<?xml version="1.0" encoding="UTF-8" standalone="no"?>
<!DOCTYPE svg PUBLIC "-//W3C//DTD SVG 1.1//EN"
 "http://www.w3.org/Graphics/SVG/1.1/DTD/svg11.dtd">
<!-- Generated by graphviz version 2.26.3 (20100126.1600)
 -->
<!-- Title: transfer::MPIThreadCache::BlockTransferer Pages: 1 -->
<svg width="1140pt" height="446pt"
 viewBox="0.00 0.00 1140.00 446.00" xmlns="http://www.w3.org/2000/svg" xmlns:xlink="http://www.w3.org/1999/xlink">
<g id="graph1" class="graph" transform="scale(1 1) rotate(0) translate(4 442)">
<title>transfer::MPIThreadCache::BlockTransferer</title>
<polygon fill="white" stroke="white" points="-4,5 -4,-442 1137,-442 1137,5 -4,5"/>
<!-- Node1 -->
<g id="node1" class="node"><title>Node1</title>
<polygon fill="#bfbfbf" stroke="black" points="474,-273 474,-307 606,-307 606,-273 474,-273"/>
<text text-anchor="start" x="482" y="-294" font-family="Helvetica,sans-Serif" font-size="10.00">transfer::MPIThreadCache</text>
<text text-anchor="middle" x="540" y="-281" font-family="Helvetica,sans-Serif" font-size="10.00">::BlockTransferer</text>
</g>
<!-- Node3 -->
<g id="node4" class="node"><title>Node3</title>
<a xlink:href="classtransfer_1_1MPIThreadCache.xhtml" target="_top" xlink:title="transfer::MPIThreadCache">
<polygon fill="white" stroke="black" points="728,-262.5 728,-283.5 860,-283.5 860,-262.5 728,-262.5"/>
<text text-anchor="middle" x="794" y="-270.5" font-family="Helvetica,sans-Serif" font-size="10.00">transfer::MPIThreadCache</text>
</a>
</g>
<!-- Node1&#45;&gt;Node3 -->
<g id="edge30" class="edge"><title>Node1&#45;&gt;Node3</title>
<path fill="none" stroke="#9a32cd" stroke-dasharray="5,2" d="M616.386,-284.888C651.883,-282.512 693.686,-279.714 727.818,-277.43"/>
<polygon fill="#9a32cd" stroke="#9a32cd" points="615.816,-281.418 606.072,-285.578 616.284,-288.402 615.816,-281.418"/>
<text text-anchor="middle" x="667" y="-288" font-family="Helvetica,sans-Serif" font-size="10.00"> m_blockTransferer</text>
</g>
<!-- Node2 -->
<g id="node2" class="node"><title>Node2</title>
<a xlink:href="classmpi_1_1Receiver.xhtml" target="_top" xlink:title="mpi::Receiver">
<polygon fill="white" stroke="black" points="263.5,-354.5 263.5,-375.5 340.5,-375.5 340.5,-354.5 263.5,-354.5"/>
<text text-anchor="middle" x="302" y="-362.5" font-family="Helvetica,sans-Serif" font-size="10.00">mpi::Receiver</text>
</a>
</g>
<!-- Node2&#45;&gt;Node1 -->
<g id="edge2" class="edge"><title>Node2&#45;&gt;Node1</title>
<path fill="none" stroke="midnightblue" d="M344.946,-351.467C384.428,-339.025 443.137,-320.524 485.826,-307.072"/>
<polygon fill="midnightblue" stroke="midnightblue" points="343.829,-348.149 335.343,-354.493 345.933,-354.825 343.829,-348.149"/>
</g>
<!-- Node11 -->
<g id="node22" class="node"><title>Node11</title>
<a xlink:href="classtransfer_1_1MPIThreadCache_1_1Adder.xhtml" target="_top" xlink:title="transfer::MPIThreadCache\l::Adder">
<polygon fill="white" stroke="black" points="1000,-307 1000,-341 1132,-341 1132,-307 1000,-307"/>
<text text-anchor="start" x="1008" y="-328" font-family="Helvetica,sans-Serif" font-size="10.00">transfer::MPIThreadCache</text>
<text text-anchor="middle" x="1066" y="-315" font-family="Helvetica,sans-Serif" font-size="10.00">::Adder</text>
</a>
</g>
<!-- Node2&#45;&gt;Node11 -->
<g id="edge26" class="edge"><title>Node2&#45;&gt;Node11</title>
<path fill="none" stroke="midnightblue" d="M350.85,-365.886C385.277,-366.502 432.459,-367.329 474,-368 699.764,-371.645 764.294,-433.89 982,-374 1005.24,-367.608 1028.54,-352.923 1044.69,-341.112"/>
<polygon fill="midnightblue" stroke="midnightblue" points="350.657,-362.382 340.596,-365.702 350.531,-369.381 350.657,-362.382"/>
</g>
<!-- Node12 -->
<g id="node27" class="node"><title>Node12</title>
<a xlink:href="classtransfer_1_1MPIThreadCache_1_1BlockInfoResponder.xhtml" target="_top" xlink:title="transfer::MPIThreadCache\l::BlockInfoResponder">
<polygon fill="white" stroke="black" points="1000,-199 1000,-233 1132,-233 1132,-199 1000,-199"/>
<text text-anchor="start" x="1008" y="-220" font-family="Helvetica,sans-Serif" font-size="10.00">transfer::MPIThreadCache</text>
<text text-anchor="middle" x="1066" y="-207" font-family="Helvetica,sans-Serif" font-size="10.00">::BlockInfoResponder</text>
</a>
</g>
<!-- Node2&#45;&gt;Node12 -->
<g id="edge34" class="edge"><title>Node2&#45;&gt;Node12</title>
<path fill="none" stroke="midnightblue" d="M323.82,-348.375C373.627,-311.709 500.92,-225.16 624,-200 779.887,-168.134 823.593,-185.048 982,-200 987.764,-200.544 993.722,-201.294 999.68,-202.174"/>
<polygon fill="midnightblue" stroke="midnightblue" points="321.636,-345.638 315.704,-354.416 325.816,-351.253 321.636,-345.638"/>
</g>
<!-- Node13 -->
<g id="node31" class="node"><title>Node13</title>
<a xlink:href="classtransfer_1_1MPIThreadCache_1_1Deleter.xhtml" target="_top" xlink:title="transfer::MPIThreadCache\l::Deleter">
<polygon fill="white" stroke="black" points="1000,-404 1000,-438 1132,-438 1132,-404 1000,-404"/>
<text text-anchor="start" x="1008" y="-425" font-family="Helvetica,sans-Serif" font-size="10.00">transfer::MPIThreadCache</text>
<text text-anchor="middle" x="1066" y="-412" font-family="Helvetica,sans-Serif" font-size="10.00">::Deleter</text>
</a>
</g>
<!-- Node2&#45;&gt;Node13 -->
<g id="edge40" class="edge"><title>Node2&#45;&gt;Node13</title>
<path fill="none" stroke="midnightblue" d="M350.58,-375.996C359.662,-377.833 369.097,-379.595 378,-381 598.734,-415.841 654.844,-422.206 878,-434 924.158,-436.44 935.914,-437.545 982,-434 987.738,-433.559 993.678,-432.95 999.624,-432.235"/>
<polygon fill="midnightblue" stroke="midnightblue" points="351.025,-372.513 340.522,-373.905 349.601,-379.367 351.025,-372.513"/>
</g>
<!-- Node3&#45;&gt;Node1 -->
<g id="edge4" class="edge"><title>Node3&#45;&gt;Node1</title>
<path fill="none" stroke="#9a32cd" stroke-dasharray="5,2" d="M736.109,-260.865C703.068,-255.773 660.987,-252.393 624,-259 608.391,-261.788 591.886,-267.276 577.676,-272.869"/>
<polygon fill="#9a32cd" stroke="#9a32cd" points="735.624,-264.332 746.058,-262.491 736.753,-257.424 735.624,-264.332"/>
<text text-anchor="middle" x="667" y="-263" font-family="Helvetica,sans-Serif" font-size="10.00"> m_parent</text>
</g>
<!-- Node3&#45;&gt;Node11 -->
<g id="edge28" class="edge"><title>Node3&#45;&gt;Node11</title>
<path fill="none" stroke="#9a32cd" stroke-dasharray="5,2" d="M870.219,-271.498C904.801,-272.433 945.941,-275.823 982,-285 1000.85,-289.798 1020.65,-298.773 1036.29,-306.905"/>
<polygon fill="#9a32cd" stroke="#9a32cd" points="870.251,-267.998 860.181,-271.29 870.106,-274.997 870.251,-267.998"/>
<text text-anchor="middle" x="930" y="-289" font-family="Helvetica,sans-Serif" font-size="10.00"> m_parent</text>
</g>
<!-- Node3&#45;&gt;Node12 -->
<g id="edge36" class="edge"><title>Node3&#45;&gt;Node12</title>
<path fill="none" stroke="#9a32cd" stroke-dasharray="5,2" d="M812.265,-255.437C828.185,-241.433 852.642,-222.904 878,-215 917.107,-202.811 963.053,-202.813 999.733,-205.983"/>
<polygon fill="#9a32cd" stroke="#9a32cd" points="809.799,-252.948 804.759,-262.267 814.51,-258.126 809.799,-252.948"/>
<text text-anchor="middle" x="930" y="-219" font-family="Helvetica,sans-Serif" font-size="10.00"> m_parent</text>
</g>
<!-- Node3&#45;&gt;Node13 -->
<g id="edge42" class="edge"><title>Node3&#45;&gt;Node13</title>
<path fill="none" stroke="#9a32cd" stroke-dasharray="5,2" d="M801.163,-293.23C812.538,-322.084 837.668,-374.292 878,-399 897.965,-411.231 953.955,-416.662 999.678,-419.074"/>
<polygon fill="#9a32cd" stroke="#9a32cd" points="804.392,-291.875 797.591,-283.751 797.842,-294.343 804.392,-291.875"/>
<text text-anchor="middle" x="930" y="-421" font-family="Helvetica,sans-Serif" font-size="10.00"> m_parent</text>
</g>
<!-- Node4 -->
<g id="node6" class="node"><title>Node4</title>
<a xlink:href="classtransfer_1_1MPICache.xhtml" target="_top" xlink:title="transfer::MPICache\l\&lt; allocator::Default \&gt;">
<polygon fill="white" stroke="black" points="485.5,-325 485.5,-359 594.5,-359 594.5,-325 485.5,-325"/>
<text text-anchor="start" x="493.5" y="-346" font-family="Helvetica,sans-Serif" font-size="10.00">transfer::MPICache</text>
<text text-anchor="middle" x="540" y="-333" font-family="Helvetica,sans-Serif" font-size="10.00">&lt; allocator::Default &gt;</text>
</a>
</g>
<!-- Node4&#45;&gt;Node3 -->
<g id="edge6" class="edge"><title>Node4&#45;&gt;Node3</title>
<path fill="none" stroke="#8b1a1a" d="M604.752,-327.748C636.617,-320.389 675.502,-310.89 710,-301 728.176,-295.789 748.277,-289.122 764.258,-283.601"/>
<polygon fill="#8b1a1a" stroke="#8b1a1a" points="603.632,-324.414 594.667,-330.06 605.196,-331.237 603.632,-324.414"/>
</g>
<!-- Node5 -->
<g id="node8" class="node"><title>Node5</title>
<a xlink:href="classcache_1_1CacheManager.xhtml" target="_top" xlink:title="Manages a block cache. ">
<polygon fill="white" stroke="black" points="482.5,-109.5 482.5,-130.5 597.5,-130.5 597.5,-109.5 482.5,-109.5"/>
<text text-anchor="middle" x="540" y="-117.5" font-family="Helvetica,sans-Serif" font-size="10.00">cache::CacheManager</text>
</a>
</g>
<!-- Node5&#45;&gt;Node3 -->
<g id="edge8" class="edge"><title>Node5&#45;&gt;Node3</title>
<path fill="none" stroke="#9a32cd" stroke-dasharray="5,2" d="M598.106,-133.266C632.681,-143.014 676.243,-158.677 710,-182 743.432,-205.099 773.285,-243.691 786.621,-262.31"/>
<polygon fill="#9a32cd" stroke="#9a32cd" points="598.716,-129.805 588.148,-130.55 596.875,-136.558 598.716,-129.805"/>
<text text-anchor="middle" x="667" y="-186" font-family="Helvetica,sans-Serif" font-size="10.00"> m_cacheManager</text>
</g>
<!-- Node6 -->
<g id="node10" class="node"><title>Node6</title>
<a xlink:href="classthreads_1_1PthreadMutex.xhtml" target="_top" xlink:title="threads::PthreadMutex">
<polygon fill="white" stroke="black" points="244,-109.5 244,-130.5 360,-130.5 360,-109.5 244,-109.5"/>
<text text-anchor="middle" x="302" y="-117.5" font-family="Helvetica,sans-Serif" font-size="10.00">threads::PthreadMutex</text>
</a>
</g>
<!-- Node6&#45;&gt;Node3 -->
<g id="edge22" class="edge"><title>Node6&#45;&gt;Node3</title>
<path fill="none" stroke="#9a32cd" stroke-dasharray="5,2" d="M344.561,-106.616C403.824,-89.9551 514.256,-66.0916 606,-87 656.005,-98.396 671.879,-102.691 710,-137 751.668,-174.501 779.879,-237.497 789.926,-262.405"/>
<polygon fill="#9a32cd" stroke="#9a32cd" points="343.445,-103.295 334.803,-109.425 345.381,-110.022 343.445,-103.295"/>
<text text-anchor="middle" x="540" y="-91" font-family="Helvetica,sans-Serif" font-size="10.00"> m_mutexes</text>
</g>
<!-- Node6&#45;&gt;Node5 -->
<g id="edge10" class="edge"><title>Node6&#45;&gt;Node5</title>
<path fill="none" stroke="#9a32cd" stroke-dasharray="5,2" d="M370.482,-120C405.908,-120 448.668,-120 482.38,-120"/>
<polygon fill="#9a32cd" stroke="#9a32cd" points="370.221,-116.5 360.221,-120 370.221,-123.5 370.221,-116.5"/>
<text text-anchor="middle" x="417" y="-124" font-family="Helvetica,sans-Serif" font-size="10.00"> m_blockMutexes</text>
</g>
<!-- Node10 -->
<g id="node18" class="node"><title>Node10</title>
<a xlink:href="classmpi_1_1MPIComm.xhtml" target="_top" xlink:title="mpi::MPIComm">
<polygon fill="white" stroke="black" points="497,-149.5 497,-170.5 583,-170.5 583,-149.5 497,-149.5"/>
<text text-anchor="middle" x="540" y="-157.5" font-family="Helvetica,sans-Serif" font-size="10.00">mpi::MPIComm</text>
</a>
</g>
<!-- Node6&#45;&gt;Node10 -->
<g id="edge20" class="edge"><title>Node6&#45;&gt;Node10</title>
<path fill="none" stroke="#9a32cd" stroke-dasharray="5,2" d="M359.938,-132.575C366.027,-133.784 372.133,-134.949 378,-136 418.16,-143.195 464.2,-149.865 496.908,-154.338"/>
<polygon fill="#9a32cd" stroke="#9a32cd" points="360.249,-129.067 349.753,-130.513 358.86,-135.928 360.249,-129.067"/>
<text text-anchor="middle" x="417" y="-152" font-family="Helvetica,sans-Serif" font-size="10.00"> mpiLock</text>
</g>
<!-- Node7 -->
<g id="node12" class="node"><title>Node7</title>
<a xlink:href="classcache_1_1CacheList.xhtml" target="_top" xlink:title="Controls a list of blocks. ">
<polygon fill="white" stroke="black" points="255.5,-39.5 255.5,-60.5 348.5,-60.5 348.5,-39.5 255.5,-39.5"/>
<text text-anchor="middle" x="302" y="-47.5" font-family="Helvetica,sans-Serif" font-size="10.00">cache::CacheList</text>
</a>
</g>
<!-- Node7&#45;&gt;Node5 -->
<g id="edge12" class="edge"><title>Node7&#45;&gt;Node5</title>
<path fill="none" stroke="#9a32cd" stroke-dasharray="5,2" d="M347.525,-63.3899C393.131,-76.8034 462.392,-97.1742 504.209,-109.473"/>
<polygon fill="#9a32cd" stroke="#9a32cd" points="348.47,-60.0195 337.889,-60.5555 346.495,-66.735 348.47,-60.0195"/>
<text text-anchor="middle" x="417" y="-97" font-family="Helvetica,sans-Serif" font-size="10.00"> m_cacheList</text>
</g>
<!-- Node8 -->
<g id="node14" class="node"><title>Node8</title>
<a xlink:href="classcache_1_1LRU.xhtml" target="_top" xlink:title="cache::LRU">
<polygon fill="white" stroke="black" points="31.5,-66.5 31.5,-87.5 100.5,-87.5 100.5,-66.5 31.5,-66.5"/>
<text text-anchor="middle" x="66" y="-74.5" font-family="Helvetica,sans-Serif" font-size="10.00">cache::LRU</text>
</a>
</g>
<!-- Node8&#45;&gt;Node7 -->
<g id="edge14" class="edge"><title>Node8&#45;&gt;Node7</title>
<path fill="none" stroke="#9a32cd" stroke-dasharray="5,2" d="M110.618,-71.8955C151.92,-67.1702 213.113,-60.1693 255.122,-55.3631"/>
<polygon fill="#9a32cd" stroke="#9a32cd" points="110.107,-68.431 100.569,-73.0451 110.902,-75.3856 110.107,-68.431"/>
<text text-anchor="middle" x="188" y="-70" font-family="Helvetica,sans-Serif" font-size="10.00"> m_lru</text>
</g>
<!-- Node9 -->
<g id="node16" class="node"><title>Node9</title>
<polygon fill="white" stroke="#bfbfbf" points="0.5,-0.5 0.5,-47.5 131.5,-47.5 131.5,-0.5 0.5,-0.5"/>
<text text-anchor="start" x="8.5" y="-34.5" font-family="Helvetica,sans-Serif" font-size="10.00">std::unordered_map</text>
<text text-anchor="start" x="8.5" y="-21.5" font-family="Helvetica,sans-Serif" font-size="10.00">&lt; unsigned long, unsigned</text>
<text text-anchor="middle" x="66" y="-8.5" font-family="Helvetica,sans-Serif" font-size="10.00"> long &gt;</text>
</g>
<!-- Node9&#45;&gt;Node7 -->
<g id="edge16" class="edge"><title>Node9&#45;&gt;Node7</title>
<path fill="none" stroke="#9a32cd" stroke-dasharray="5,2" d="M142.066,-32.3801C179.333,-36.4859 223.016,-41.2984 255.304,-44.8555"/>
<polygon fill="#9a32cd" stroke="#9a32cd" points="142.062,-28.8587 131.739,-31.2424 141.296,-35.8166 142.062,-28.8587"/>
<text text-anchor="middle" x="188" y="-45" font-family="Helvetica,sans-Serif" font-size="10.00"> m_blockToIndex</text>
</g>
<!-- Node10&#45;&gt;Node3 -->
<g id="edge18" class="edge"><title>Node10&#45;&gt;Node3</title>
<path fill="none" stroke="#9a32cd" stroke-dasharray="5,2" d="M573.356,-174.839C625.477,-198.027 724.954,-242.283 770.353,-262.48"/>
<polygon fill="#9a32cd" stroke="#9a32cd" points="574.455,-171.498 563.896,-170.631 571.61,-177.893 574.455,-171.498"/>
<text text-anchor="middle" x="667" y="-237" font-family="Helvetica,sans-Serif" font-size="10.00"> m_mpiComm</text>
</g>
<!-- Node11&#45;&gt;Node3 -->
<g id="edge24" class="edge"><title>Node11&#45;&gt;Node3</title>
<path fill="none" stroke="#9a32cd" stroke-dasharray="5,2" d="M989.727,-318.84C955.302,-315.549 914.303,-310.288 878,-302 858.146,-297.467 836.433,-289.899 820.057,-283.63"/>
<polygon fill="#9a32cd" stroke="#9a32cd" points="989.44,-322.328 999.719,-319.757 990.081,-315.357 989.44,-322.328"/>
<text text-anchor="middle" x="930" y="-321" font-family="Helvetica,sans-Serif" font-size="10.00"> m_adder</text>
</g>
<!-- Node12&#45;&gt;Node3 -->
<g id="edge32" class="edge"><title>Node12&#45;&gt;Node3</title>
<path fill="none" stroke="#9a32cd" stroke-dasharray="5,2" d="M989.866,-230.975C955.633,-237.815 914.748,-246.131 878,-254 865.573,-256.661 852.137,-259.65 839.733,-262.455"/>
<polygon fill="#9a32cd" stroke="#9a32cd" points="990.676,-234.383 999.799,-228.995 989.308,-227.518 990.676,-234.383"/>
<text text-anchor="middle" x="930" y="-258" font-family="Helvetica,sans-Serif" font-size="10.00"> m_blockInfoResponder</text>
</g>
<!-- Node13&#45;&gt;Node3 -->
<g id="edge38" class="edge"><title>Node13&#45;&gt;Node3</title>
<path fill="none" stroke="#9a32cd" stroke-dasharray="5,2" d="M1017.38,-399.79C970.423,-379.077 902.882,-348.604 878,-334 851.421,-318.4 822.87,-296.423 806.841,-283.549"/>
<polygon fill="#9a32cd" stroke="#9a32cd" points="1016.2,-403.098 1026.77,-403.923 1019.02,-396.691 1016.2,-403.098"/>
<text text-anchor="middle" x="930" y="-387" font-family="Helvetica,sans-Serif" font-size="10.00"> m_deleter</text>
</g>
</g>
</svg>
