<?xml version="1.0" encoding="UTF-8" standalone="no"?>
<!DOCTYPE svg PUBLIC "-//W3C//DTD SVG 1.1//EN"
 "http://www.w3.org/Graphics/SVG/1.1/DTD/svg11.dtd">
<!-- Generated by graphviz version 2.26.3 (20100126.1600)
 -->
<!-- Title: grid::Grid Pages: 1 -->
<svg width="1318pt" height="247pt"
 viewBox="0.00 0.00 1318.00 247.00" xmlns="http://www.w3.org/2000/svg" xmlns:xlink="http://www.w3.org/1999/xlink">
<g id="graph1" class="graph" transform="scale(1 1) rotate(0) translate(4 243)">
<title>grid::Grid</title>
<polygon fill="white" stroke="white" points="-4,5 -4,-243 1315,-243 1315,5 -4,5"/>
<!-- Node1 -->
<g id="node1" class="node"><title>Node1</title>
<polygon fill="#bfbfbf" stroke="black" points="888,-133.5 888,-154.5 944,-154.5 944,-133.5 888,-133.5"/>
<text text-anchor="middle" x="916" y="-141.5" font-family="Helvetica,sans-Serif" font-size="10.00">grid::Grid</text>
</g>
<!-- Node11 -->
<g id="node20" class="node"><title>Node11</title>
<polygon fill="white" stroke="#bfbfbf" points="1024,-159 1024,-193 1118,-193 1118,-159 1024,-159"/>
<text text-anchor="start" x="1032" y="-180" font-family="Helvetica,sans-Serif" font-size="10.00">std::vector&lt; grid::</text>
<text text-anchor="middle" x="1071" y="-167" font-family="Helvetica,sans-Serif" font-size="10.00">Grid * &gt;</text>
</g>
<!-- Node1&#45;&gt;Node11 -->
<g id="edge22" class="edge"><title>Node1&#45;&gt;Node11</title>
<path fill="none" stroke="#9a32cd" stroke-dasharray="5,2" d="M953.967,-151.838C975.087,-156.199 1001.56,-161.663 1023.98,-166.292"/>
<polygon fill="#9a32cd" stroke="#9a32cd" points="954.57,-148.389 944.069,-149.795 953.155,-155.245 954.57,-148.389"/>
<text text-anchor="middle" x="984" y="-165" font-family="Helvetica,sans-Serif" font-size="10.00"> elements</text>
</g>
<!-- Node2 -->
<g id="node2" class="node"><title>Node2</title>
<a xlink:href="classasagi_1_1Grid.xhtml" target="_top" xlink:title="C++ Interface for ASAGI grids. ">
<polygon fill="white" stroke="black" points="689,-217.5 689,-238.5 753,-238.5 753,-217.5 689,-217.5"/>
<text text-anchor="middle" x="721" y="-225.5" font-family="Helvetica,sans-Serif" font-size="10.00">asagi::Grid</text>
</a>
</g>
<!-- Node2&#45;&gt;Node1 -->
<g id="edge2" class="edge"><title>Node2&#45;&gt;Node1</title>
<path fill="none" stroke="midnightblue" d="M763.432,-228.918C794.883,-227.775 837.711,-222.241 870,-203 889.414,-191.431 903.688,-168.332 910.84,-154.721"/>
<polygon fill="midnightblue" stroke="midnightblue" points="763.152,-225.423 753.234,-229.151 763.311,-232.421 763.152,-225.423"/>
</g>
<!-- Node3 -->
<g id="node4" class="node"><title>Node3</title>
<a xlink:href="classthreads_1_1Once.xhtml" target="_top" xlink:title="threads::Once">
<polygon fill="white" stroke="black" points="342,-203.5 342,-224.5 420,-224.5 420,-203.5 342,-203.5"/>
<text text-anchor="middle" x="381" y="-211.5" font-family="Helvetica,sans-Serif" font-size="10.00">threads::Once</text>
</a>
</g>
<!-- Node3&#45;&gt;Node1 -->
<g id="edge4" class="edge"><title>Node3&#45;&gt;Node1</title>
<path fill="none" stroke="#9a32cd" stroke-dasharray="5,2" d="M430.546,-208.748C507.483,-200.576 660.334,-184.268 790,-170 825.565,-166.086 835.187,-169.262 870,-161 876.793,-159.388 883.954,-157.064 890.55,-154.651"/>
<polygon fill="#9a32cd" stroke="#9a32cd" points="429.778,-205.31 420.203,-209.847 430.517,-212.271 429.778,-205.31"/>
<text text-anchor="middle" x="600" y="-198" font-family="Helvetica,sans-Serif" font-size="10.00"> m_resizeOnce</text>
</g>
<!-- Node4 -->
<g id="node6" class="node"><title>Node4</title>
<a xlink:href="classthreads_1_1PthreadMutex.xhtml" target="_top" xlink:title="threads::PthreadMutex">
<polygon fill="white" stroke="black" points="2,-207.5 2,-228.5 118,-228.5 118,-207.5 2,-207.5"/>
<text text-anchor="middle" x="60" y="-215.5" font-family="Helvetica,sans-Serif" font-size="10.00">threads::PthreadMutex</text>
</a>
</g>
<!-- Node4&#45;&gt;Node3 -->
<g id="edge6" class="edge"><title>Node4&#45;&gt;Node3</title>
<path fill="none" stroke="#9a32cd" stroke-dasharray="5,2" d="M128.297,-217.149C193.345,-216.338 288.969,-215.147 341.984,-214.486"/>
<polygon fill="#9a32cd" stroke="#9a32cd" points="128.086,-213.651 118.131,-217.276 128.174,-220.651 128.086,-213.651"/>
<text text-anchor="middle" x="179" y="-220" font-family="Helvetica,sans-Serif" font-size="10.00"> m_mutex</text>
</g>
<!-- Node14 -->
<g id="node27" class="node"><title>Node14</title>
<a xlink:href="classmpi_1_1MPIComm.xhtml" target="_top" xlink:title="mpi::MPIComm">
<polygon fill="white" stroke="black" points="238,-165.5 238,-186.5 324,-186.5 324,-165.5 238,-165.5"/>
<text text-anchor="middle" x="281" y="-173.5" font-family="Helvetica,sans-Serif" font-size="10.00">mpi::MPIComm</text>
</a>
</g>
<!-- Node4&#45;&gt;Node14 -->
<g id="edge30" class="edge"><title>Node4&#45;&gt;Node14</title>
<path fill="none" stroke="#9a32cd" stroke-dasharray="5,2" d="M117.145,-205.26C124.161,-203.78 131.238,-202.327 138,-201 171.387,-194.446 209.328,-187.852 237.736,-183.083"/>
<polygon fill="#9a32cd" stroke="#9a32cd" points="116.004,-201.925 106.956,-207.436 117.466,-208.77 116.004,-201.925"/>
<text text-anchor="middle" x="179" y="-205" font-family="Helvetica,sans-Serif" font-size="10.00"> mpiLock</text>
</g>
<!-- Node5 -->
<g id="node8" class="node"><title>Node5</title>
<a xlink:href="classtypes_1_1Type.xhtml" target="_top" xlink:title="types::Type">
<polygon fill="white" stroke="black" points="687,-87.5 687,-108.5 755,-108.5 755,-87.5 687,-87.5"/>
<text text-anchor="middle" x="721" y="-95.5" font-family="Helvetica,sans-Serif" font-size="10.00">types::Type</text>
</a>
</g>
<!-- Node5&#45;&gt;Node1 -->
<g id="edge8" class="edge"><title>Node5&#45;&gt;Node1</title>
<path fill="none" stroke="#9a32cd" stroke-dasharray="5,2" d="M765.208,-104.675C795.086,-109.656 835.269,-117.271 870,-127 876.395,-128.791 883.163,-131.069 889.484,-133.371"/>
<polygon fill="#9a32cd" stroke="#9a32cd" points="765.529,-101.181 755.096,-103.024 764.401,-108.09 765.529,-101.181"/>
<text text-anchor="middle" x="839" y="-131" font-family="Helvetica,sans-Serif" font-size="10.00"> m_type</text>
</g>
<!-- Node6 -->
<g id="node10" class="node"><title>Node6</title>
<polygon fill="white" stroke="#bfbfbf" points="652.5,-32 652.5,-66 789.5,-66 789.5,-32 652.5,-32"/>
<text text-anchor="start" x="660.5" y="-53" font-family="Helvetica,sans-Serif" font-size="10.00">std::vector&lt; std::map</text>
<text text-anchor="middle" x="721" y="-40" font-family="Helvetica,sans-Serif" font-size="10.00">&lt; std::string, std::string &gt; &gt;</text>
</g>
<!-- Node6&#45;&gt;Node1 -->
<g id="edge10" class="edge"><title>Node6&#45;&gt;Node1</title>
<path fill="none" stroke="#9a32cd" stroke-dasharray="5,2" d="M799.533,-65.0411C823.292,-72.0046 848.707,-81.7038 870,-95 886.231,-105.136 900.545,-122.395 908.736,-133.49"/>
<polygon fill="#9a32cd" stroke="#9a32cd" points="800.396,-61.6482 789.822,-62.3164 798.505,-68.3879 800.396,-61.6482"/>
<text text-anchor="middle" x="839" y="-99" font-family="Helvetica,sans-Serif" font-size="10.00"> m_params</text>
</g>
<!-- Node7 -->
<g id="node12" class="node"><title>Node7</title>
<polygon fill="white" stroke="#bfbfbf" points="438,-15 438,-49 548,-49 548,-15 438,-15"/>
<text text-anchor="start" x="446" y="-36" font-family="Helvetica,sans-Serif" font-size="10.00">std::map&lt; std::string,</text>
<text text-anchor="middle" x="493" y="-23" font-family="Helvetica,sans-Serif" font-size="10.00"> std::string &gt;</text>
</g>
<!-- Node7&#45;&gt;Node6 -->
<g id="edge12" class="edge"><title>Node7&#45;&gt;Node6</title>
<path fill="none" stroke="#9a32cd" stroke-dasharray="5,2" d="M558.373,-36.8743C587.831,-39.0708 622.621,-41.6647 652.448,-43.8886"/>
<polygon fill="#9a32cd" stroke="#9a32cd" points="558.425,-33.3686 548.192,-36.1152 557.904,-40.3492 558.425,-33.3686"/>
<text text-anchor="middle" x="600" y="-46" font-family="Helvetica,sans-Serif" font-size="10.00"> elements</text>
</g>
<!-- Node8 -->
<g id="node14" class="node"><title>Node8</title>
<a xlink:title="STL class. ">
<polygon fill="white" stroke="#bfbfbf" points="251,-9.5 251,-30.5 311,-30.5 311,-9.5 251,-9.5"/>
<text text-anchor="middle" x="281" y="-17.5" font-family="Helvetica,sans-Serif" font-size="10.00">std::string</text>
</a>
</g>
<!-- Node8&#45;&gt;Node7 -->
<g id="edge14" class="edge"><title>Node8&#45;&gt;Node7</title>
<path fill="none" stroke="#9a32cd" stroke-dasharray="5,2" d="M321.549,-22.2952C354.481,-24.1593 401.261,-26.8072 437.639,-28.8664"/>
<polygon fill="#9a32cd" stroke="#9a32cd" points="321.556,-18.7901 311.374,-21.7193 321.161,-25.7789 321.556,-18.7901"/>
<text text-anchor="middle" x="381" y="-44" font-family="Helvetica,sans-Serif" font-size="10.00"> keys</text>
<text text-anchor="middle" x="381" y="-31" font-family="Helvetica,sans-Serif" font-size="10.00">elements</text>
</g>
<!-- Node9 -->
<g id="node16" class="node"><title>Node9</title>
<a xlink:title="STL class. ">
<polygon fill="white" stroke="#bfbfbf" points="12.5,-0 12.5,-34 107.5,-34 107.5,-0 12.5,-0"/>
<text text-anchor="start" x="20.5" y="-21" font-family="Helvetica,sans-Serif" font-size="10.00">std::basic_string&lt;</text>
<text text-anchor="middle" x="60" y="-8" font-family="Helvetica,sans-Serif" font-size="10.00"> char &gt;</text>
</a>
</g>
<!-- Node9&#45;&gt;Node8 -->
<g id="edge16" class="edge"><title>Node9&#45;&gt;Node8</title>
<path fill="none" stroke="midnightblue" d="M117.915,-17.7862C160.488,-18.3641 216.641,-19.1263 250.719,-19.5889"/>
<polygon fill="midnightblue" stroke="midnightblue" points="117.728,-14.2834 107.682,-17.6473 117.633,-21.2828 117.728,-14.2834"/>
</g>
<!-- Node10 -->
<g id="node18" class="node"><title>Node10</title>
<a xlink:href="classfortran_1_1PointerArray.xhtml" target="_top" xlink:title="fortran::PointerArray\l\&lt; grid::Grid \&gt;">
<polygon fill="white" stroke="black" points="1206,-131 1206,-165 1310,-165 1310,-131 1206,-131"/>
<text text-anchor="start" x="1214" y="-152" font-family="Helvetica,sans-Serif" font-size="10.00">fortran::PointerArray</text>
<text text-anchor="middle" x="1258" y="-139" font-family="Helvetica,sans-Serif" font-size="10.00">&lt; grid::Grid &gt;</text>
</a>
</g>
<!-- Node10&#45;&gt;Node1 -->
<g id="edge18" class="edge"><title>Node10&#45;&gt;Node1</title>
<path fill="none" stroke="#9a32cd" stroke-dasharray="5,2" d="M1195.73,-142.055C1171.49,-140.017 1143.47,-137.999 1118,-137 1076.25,-135.363 1065.76,-135.648 1024,-137 996.958,-137.875 966.166,-139.981 944.399,-141.656"/>
<polygon fill="#9a32cd" stroke="#9a32cd" points="1195.6,-145.557 1205.87,-142.927 1196.2,-138.583 1195.6,-145.557"/>
<text text-anchor="middle" x="1071" y="-141" font-family="Helvetica,sans-Serif" font-size="10.00"> m_pointers</text>
</g>
<!-- Node11&#45;&gt;Node10 -->
<g id="edge20" class="edge"><title>Node11&#45;&gt;Node10</title>
<path fill="none" stroke="#9a32cd" stroke-dasharray="5,2" d="M1128.17,-167.44C1152.93,-163.732 1181.72,-159.422 1205.89,-155.803"/>
<polygon fill="#9a32cd" stroke="#9a32cd" points="1127.56,-163.992 1118.19,-168.934 1128.6,-170.915 1127.56,-163.992"/>
<text text-anchor="middle" x="1162" y="-170" font-family="Helvetica,sans-Serif" font-size="10.00"> m_pointers</text>
</g>
<!-- Node12 -->
<g id="node23" class="node"><title>Node12</title>
<polygon fill="white" stroke="#bfbfbf" points="674,-127 674,-161 768,-161 768,-127 674,-127"/>
<text text-anchor="start" x="682" y="-148" font-family="Helvetica,sans-Serif" font-size="10.00">std::vector&lt; grid::</text>
<text text-anchor="middle" x="721" y="-135" font-family="Helvetica,sans-Serif" font-size="10.00">Container * &gt;</text>
</g>
<!-- Node12&#45;&gt;Node1 -->
<g id="edge24" class="edge"><title>Node12&#45;&gt;Node1</title>
<path fill="none" stroke="#9a32cd" stroke-dasharray="5,2" d="M778.596,-144C814.637,-144 859.469,-144 887.919,-144"/>
<polygon fill="#9a32cd" stroke="#9a32cd" points="778.204,-140.5 768.204,-144 778.204,-147.5 778.204,-140.5"/>
<text text-anchor="middle" x="839" y="-148" font-family="Helvetica,sans-Serif" font-size="10.00"> m_containers</text>
</g>
<!-- Node13 -->
<g id="node25" class="node"><title>Node13</title>
<a xlink:href="classgrid_1_1Container.xhtml" target="_top" xlink:title="grid::Container">
<polygon fill="white" stroke="black" points="453,-133.5 453,-154.5 533,-154.5 533,-133.5 453,-133.5"/>
<text text-anchor="middle" x="493" y="-141.5" font-family="Helvetica,sans-Serif" font-size="10.00">grid::Container</text>
</a>
</g>
<!-- Node13&#45;&gt;Node12 -->
<g id="edge26" class="edge"><title>Node13&#45;&gt;Node12</title>
<path fill="none" stroke="#9a32cd" stroke-dasharray="5,2" d="M543.287,-144C582.154,-144 635.577,-144 673.677,-144"/>
<polygon fill="#9a32cd" stroke="#9a32cd" points="543.237,-140.5 533.237,-144 543.237,-147.5 543.237,-140.5"/>
<text text-anchor="middle" x="600" y="-148" font-family="Helvetica,sans-Serif" font-size="10.00"> elements</text>
</g>
<!-- Node14&#45;&gt;Node13 -->
<g id="edge28" class="edge"><title>Node14&#45;&gt;Node13</title>
<path fill="none" stroke="#9a32cd" stroke-dasharray="5,2" d="M334.209,-167.968C370.996,-162.416 419.175,-155.143 452.774,-150.072"/>
<polygon fill="#9a32cd" stroke="#9a32cd" points="333.522,-164.532 324.157,-169.486 334.567,-171.454 333.522,-164.532"/>
<text text-anchor="middle" x="381" y="-170" font-family="Helvetica,sans-Serif" font-size="10.00"> m_comm</text>
</g>
<!-- Node15 -->
<g id="node30" class="node"><title>Node15</title>
<a xlink:href="classnuma_1_1Numa.xhtml" target="_top" xlink:title="numa::Numa">
<polygon fill="white" stroke="black" points="244.5,-110.5 244.5,-131.5 317.5,-131.5 317.5,-110.5 244.5,-110.5"/>
<text text-anchor="middle" x="281" y="-118.5" font-family="Helvetica,sans-Serif" font-size="10.00">numa::Numa</text>
</a>
</g>
<!-- Node15&#45;&gt;Node13 -->
<g id="edge32" class="edge"><title>Node15&#45;&gt;Node13</title>
<path fill="none" stroke="#9a32cd" stroke-dasharray="5,2" d="M328.047,-122.011C355.046,-123.014 389.531,-125.014 420,-129 430.648,-130.393 442.065,-132.459 452.633,-134.616"/>
<polygon fill="#9a32cd" stroke="#9a32cd" points="327.831,-118.501 317.718,-121.661 327.594,-125.497 327.831,-118.501"/>
<text text-anchor="middle" x="381" y="-133" font-family="Helvetica,sans-Serif" font-size="10.00"> m_numa</text>
</g>
<!-- Node16 -->
<g id="node32" class="node"><title>Node16</title>
<a xlink:href="classthreads_1_1Sync.xhtml" target="_top" xlink:title="Synchronizes a set of threads. ">
<polygon fill="white" stroke="black" points="21.5,-144.5 21.5,-165.5 98.5,-165.5 98.5,-144.5 21.5,-144.5"/>
<text text-anchor="middle" x="60" y="-152.5" font-family="Helvetica,sans-Serif" font-size="10.00">threads::Sync</text>
</a>
</g>
<!-- Node16&#45;&gt;Node15 -->
<g id="edge34" class="edge"><title>Node16&#45;&gt;Node15</title>
<path fill="none" stroke="#9a32cd" stroke-dasharray="5,2" d="M108.754,-147.499C149.604,-141.215 207.034,-132.379 244.136,-126.671"/>
<polygon fill="#9a32cd" stroke="#9a32cd" points="108.1,-144.059 98.7482,-149.039 109.164,-150.977 108.1,-144.059"/>
<text text-anchor="middle" x="179" y="-159" font-family="Helvetica,sans-Serif" font-size="10.00"> m_syncDomains</text>
<text text-anchor="middle" x="179" y="-146" font-family="Helvetica,sans-Serif" font-size="10.00">m_syncThreads</text>
</g>
<!-- Node17 -->
<g id="node34" class="node"><title>Node17</title>
<polygon fill="white" stroke="#bfbfbf" points="10.5,-104.5 10.5,-125.5 109.5,-125.5 109.5,-104.5 10.5,-104.5"/>
<text text-anchor="middle" x="60" y="-112.5" font-family="Helvetica,sans-Serif" font-size="10.00">std::vector&lt; bool &gt;</text>
</g>
<!-- Node17&#45;&gt;Node15 -->
<g id="edge36" class="edge"><title>Node17&#45;&gt;Node15</title>
<path fill="none" stroke="#9a32cd" stroke-dasharray="5,2" d="M120.071,-114.303C150.098,-114.227 186.983,-114.546 220,-116 227.855,-116.346 236.266,-116.91 244.255,-117.536"/>
<polygon fill="#9a32cd" stroke="#9a32cd" points="119.739,-110.804 109.753,-114.345 119.767,-117.804 119.739,-110.804"/>
<text text-anchor="middle" x="179" y="-120" font-family="Helvetica,sans-Serif" font-size="10.00"> m_masterThreads</text>
</g>
<!-- Node18 -->
<g id="node36" class="node"><title>Node18</title>
<polygon fill="white" stroke="#bfbfbf" points="0.5,-52 0.5,-86 119.5,-86 119.5,-52 0.5,-52"/>
<text text-anchor="start" x="8.5" y="-73" font-family="Helvetica,sans-Serif" font-size="10.00">std::map&lt; int, unsigned</text>
<text text-anchor="middle" x="60" y="-60" font-family="Helvetica,sans-Serif" font-size="10.00"> int &gt;</text>
</g>
<!-- Node18&#45;&gt;Node15 -->
<g id="edge38" class="edge"><title>Node18&#45;&gt;Node15</title>
<path fill="none" stroke="#9a32cd" stroke-dasharray="5,2" d="M129.736,-78.0754C158.039,-82.5656 190.865,-88.8097 220,-97 232.599,-100.542 246.188,-105.745 257.336,-110.402"/>
<polygon fill="#9a32cd" stroke="#9a32cd" points="129.946,-74.5663 119.529,-76.5 128.878,-81.4844 129.946,-74.5663"/>
<text text-anchor="middle" x="179" y="-101" font-family="Helvetica,sans-Serif" font-size="10.00"> m_domains</text>
</g>
</g>
</svg>
