<?xml version="1.0" encoding="UTF-8" standalone="no"?>
<!DOCTYPE svg PUBLIC "-//W3C//DTD SVG 1.1//EN"
 "http://www.w3.org/Graphics/SVG/1.1/DTD/svg11.dtd">
<!-- Generated by graphviz version 2.26.3 (20100126.1600)
 -->
<!-- Title: transfer::MPIWinCache Pages: 1 -->
<svg width="126pt" height="114pt"
 viewBox="0.00 0.00 126.00 114.00" xmlns="http://www.w3.org/2000/svg" xmlns:xlink="http://www.w3.org/1999/xlink">
<g id="graph1" class="graph" transform="scale(1 1) rotate(0) translate(4 110)">
<title>transfer::MPIWinCache</title>
<polygon fill="white" stroke="white" points="-4,5 -4,-110 123,-110 123,5 -4,5"/>
<!-- Node1 -->
<g id="node1" class="node"><title>Node1</title>
<polygon fill="#bfbfbf" stroke="black" points="-0.5,-0.5 -0.5,-21.5 118.5,-21.5 118.5,-0.5 -0.5,-0.5"/>
<text text-anchor="middle" x="59" y="-8.5" font-family="Helvetica,sans-Serif" font-size="10.00">transfer::MPIWinCache</text>
</g>
<!-- Node2 -->
<g id="node2" class="node"><title>Node2</title>
<a xlink:href="classtransfer_1_1MPICache.xhtml" target="_top" xlink:title="transfer::MPICache\l\&lt; allocator::MPIAlloc,\l true \&gt;">
<polygon fill="white" stroke="black" points="3.5,-58.5 3.5,-105.5 114.5,-105.5 114.5,-58.5 3.5,-58.5"/>
<text text-anchor="start" x="11.5" y="-92.5" font-family="Helvetica,sans-Serif" font-size="10.00">transfer::MPICache</text>
<text text-anchor="start" x="11.5" y="-79.5" font-family="Helvetica,sans-Serif" font-size="10.00">&lt; allocator::MPIAlloc,</text>
<text text-anchor="middle" x="59" y="-66.5" font-family="Helvetica,sans-Serif" font-size="10.00"> true &gt;</text>
</a>
</g>
<!-- Node2&#45;&gt;Node1 -->
<g id="edge2" class="edge"><title>Node2&#45;&gt;Node1</title>
<path fill="none" stroke="#8b1a1a" d="M59,-48.1273C59,-38.5183 59,-28.7499 59,-21.6462"/>
<polygon fill="#8b1a1a" stroke="#8b1a1a" points="55.5001,-48.358 59,-58.358 62.5001,-48.3581 55.5001,-48.358"/>
</g>
</g>
</svg>
