<?xml version="1.0" encoding="UTF-8" standalone="no"?>
<!DOCTYPE svg PUBLIC "-//W3C//DTD SVG 1.1//EN"
 "http://www.w3.org/Graphics/SVG/1.1/DTD/svg11.dtd">
<!-- Generated by graphviz version 2.26.3 (20100126.1600)
 -->
<!-- Title: cache::CacheList Pages: 1 -->
<svg width="224pt" height="128pt"
 viewBox="0.00 0.00 224.00 128.00" xmlns="http://www.w3.org/2000/svg" xmlns:xlink="http://www.w3.org/1999/xlink">
<g id="graph1" class="graph" transform="scale(1 1) rotate(0) translate(4 124)">
<title>cache::CacheList</title>
<polygon fill="white" stroke="white" points="-4,5 -4,-124 221,-124 221,5 -4,5"/>
<!-- Node1 -->
<g id="node1" class="node"><title>Node1</title>
<polygon fill="#bfbfbf" stroke="black" points="45.5,-0.5 45.5,-21.5 138.5,-21.5 138.5,-0.5 45.5,-0.5"/>
<text text-anchor="middle" x="92" y="-8.5" font-family="Helvetica,sans-Serif" font-size="10.00">cache::CacheList</text>
</g>
<!-- Node2 -->
<g id="node2" class="node"><title>Node2</title>
<a xlink:href="classcache_1_1LRU.xhtml" target="_top" xlink:title="cache::LRU">
<polygon fill="white" stroke="black" points="-0.5,-85.5 -0.5,-106.5 68.5,-106.5 68.5,-85.5 -0.5,-85.5"/>
<text text-anchor="middle" x="34" y="-93.5" font-family="Helvetica,sans-Serif" font-size="10.00">cache::LRU</text>
</a>
</g>
<!-- Node2&#45;&gt;Node1 -->
<g id="edge2" class="edge"><title>Node2&#45;&gt;Node1</title>
<path fill="none" stroke="#9a32cd" stroke-dasharray="5,2" d="M47.227,-76.6155C58.8497,-59.5823 75.3305,-35.4294 84.7139,-21.6779"/>
<polygon fill="#9a32cd" stroke="#9a32cd" points="44.0911,-75.0017 41.3457,-85.2347 49.8732,-78.9472 44.0911,-75.0017"/>
<text text-anchor="middle" x="86" y="-44.5" font-family="Helvetica,sans-Serif" font-size="10.00"> m_lru</text>
</g>
<!-- Node3 -->
<g id="node4" class="node"><title>Node3</title>
<polygon fill="white" stroke="#bfbfbf" points="85.5,-72.5 85.5,-119.5 216.5,-119.5 216.5,-72.5 85.5,-72.5"/>
<text text-anchor="start" x="93.5" y="-106.5" font-family="Helvetica,sans-Serif" font-size="10.00">std::unordered_map</text>
<text text-anchor="start" x="93.5" y="-93.5" font-family="Helvetica,sans-Serif" font-size="10.00">&lt; unsigned long, unsigned</text>
<text text-anchor="middle" x="151" y="-80.5" font-family="Helvetica,sans-Serif" font-size="10.00"> long &gt;</text>
</g>
<!-- Node3&#45;&gt;Node1 -->
<g id="edge4" class="edge"><title>Node3&#45;&gt;Node1</title>
<path fill="none" stroke="#9a32cd" stroke-dasharray="5,2" d="M128.701,-63.8747C118.429,-49.0756 106.916,-32.4889 99.5699,-21.9057"/>
<polygon fill="#9a32cd" stroke="#9a32cd" points="125.988,-66.1036 134.565,-72.3228 131.738,-62.112 125.988,-66.1036"/>
<text text-anchor="middle" x="159" y="-44.5" font-family="Helvetica,sans-Serif" font-size="10.00"> m_blockToIndex</text>
</g>
</g>
</svg>
