<?xml version="1.0" encoding="UTF-8" standalone="no"?>
<!DOCTYPE svg PUBLIC "-//W3C//DTD SVG 1.1//EN"
 "http://www.w3.org/Graphics/SVG/1.1/DTD/svg11.dtd">
<!-- Generated by graphviz version 2.26.3 (20100126.1600)
 -->
<!-- Title: G Pages: 1 -->
<svg width="1236pt" height="279pt"
 viewBox="0.00 0.00 1236.00 279.00" xmlns="http://www.w3.org/2000/svg" xmlns:xlink="http://www.w3.org/1999/xlink">
<g id="graph1" class="graph" transform="scale(1 1) rotate(0) translate(4 275)">
<title>G</title>
<polygon fill="white" stroke="white" points="-4,5 -4,-275 1233,-275 1233,5 -4,5"/>
<!-- Node1 -->
<g id="node1" class="node"><title>Node1</title>
<polygon fill="#bfbfbf" stroke="black" points="1073,-89.5 1073,-110.5 1201,-110.5 1201,-89.5 1073,-89.5"/>
<text text-anchor="middle" x="1137" y="-97.5" font-family="Helvetica,sans-Serif" font-size="10.00">grid::SimpleGridContainer</text>
</g>
<!-- Node2 -->
<g id="node2" class="node"><title>Node2</title>
<a xlink:href="classgrid_1_1GridContainer.xhtml" target="_top" xlink:title="grid::GridContainer">
<polygon fill="white" stroke="black" points="618,-40.5 618,-61.5 716,-61.5 716,-40.5 618,-40.5"/>
<text text-anchor="middle" x="667" y="-48.5" font-family="Helvetica,sans-Serif" font-size="10.00">grid::GridContainer</text>
</a>
</g>
<!-- Node2&#45;&gt;Node1 -->
<g id="edge2" class="edge"><title>Node2&#45;&gt;Node1</title>
<path fill="none" stroke="midnightblue" d="M713.729,-63.9278C720.492,-65.4855 727.397,-66.9083 734,-68 852.583,-87.6071 992.852,-95.3016 1072.73,-98.2474"/>
<polygon fill="midnightblue" stroke="midnightblue" points="714.517,-60.5174 703.975,-61.5716 712.873,-67.3218 714.517,-60.5174"/>
</g>
<!-- Node6 -->
<g id="node10" class="node"><title>Node6</title>
<polygon fill="white" stroke="#bfbfbf" points="810,-40.5 810,-61.5 958,-61.5 958,-40.5 810,-40.5"/>
<text text-anchor="middle" x="884" y="-48.5" font-family="Helvetica,sans-Serif" font-size="10.00">std::vector&lt; GridContainer * &gt;</text>
</g>
<!-- Node2&#45;&gt;Node6 -->
<g id="edge12" class="edge"><title>Node2&#45;&gt;Node6</title>
<path fill="none" stroke="#9a32cd" stroke-dasharray="5,2" d="M726.242,-51C752.03,-51 782.531,-51 809.807,-51"/>
<polygon fill="#9a32cd" stroke="#9a32cd" points="726.241,-47.5001 716.241,-51 726.241,-54.5001 726.241,-47.5001"/>
<text text-anchor="middle" x="763" y="-55" font-family="Helvetica,sans-Serif" font-size="10.00"> elements</text>
</g>
<!-- Node7 -->
<g id="node13" class="node"><title>Node7</title>
<a xlink:href="classgrid_1_1Grid.xhtml" target="_top" xlink:title="Base class for a grid.">
<polygon fill="white" stroke="black" points="856,-148.5 856,-169.5 912,-169.5 912,-148.5 856,-148.5"/>
<text text-anchor="middle" x="884" y="-156.5" font-family="Helvetica,sans-Serif" font-size="10.00">grid::Grid</text>
</a>
</g>
<!-- Node2&#45;&gt;Node7 -->
<g id="edge20" class="edge"><title>Node2&#45;&gt;Node7</title>
<path fill="none" stroke="#9a32cd" stroke-dasharray="5,2" d="M686.87,-68.0935C699.711,-78.551 717.12,-91.6679 734,-101 774.318,-123.29 824.976,-140.941 855.897,-150.674"/>
<polygon fill="#9a32cd" stroke="#9a32cd" points="689.071,-65.3717 679.143,-61.6719 684.597,-70.7552 689.071,-65.3717"/>
<text text-anchor="middle" x="763" y="-132" font-family="Helvetica,sans-Serif" font-size="10.00"> m_container</text>
</g>
<!-- Node3 -->
<g id="node4" class="node"><title>Node3</title>
<a xlink:href="classasagi_1_1Grid.xhtml" target="_top" xlink:title="C++ Interface for ASAGI.">
<polygon fill="white" stroke="black" points="357,-40.5 357,-61.5 421,-61.5 421,-40.5 357,-40.5"/>
<text text-anchor="middle" x="389" y="-48.5" font-family="Helvetica,sans-Serif" font-size="10.00">asagi::Grid</text>
</a>
</g>
<!-- Node3&#45;&gt;Node2 -->
<g id="edge4" class="edge"><title>Node3&#45;&gt;Node2</title>
<path fill="none" stroke="midnightblue" d="M431.336,-51C481.491,-51 564.901,-51 617.858,-51"/>
<polygon fill="midnightblue" stroke="midnightblue" points="431.162,-47.5001 421.162,-51 431.162,-54.5001 431.162,-47.5001"/>
</g>
<!-- Node4 -->
<g id="node6" class="node"><title>Node4</title>
<a xlink:href="classtypes_1_1Type.xhtml" target="_top" xlink:title="types::Type">
<polygon fill="white" stroke="black" points="355,-0.5 355,-21.5 423,-21.5 423,-0.5 355,-0.5"/>
<text text-anchor="middle" x="389" y="-8.5" font-family="Helvetica,sans-Serif" font-size="10.00">types::Type</text>
</a>
</g>
<!-- Node4&#45;&gt;Node2 -->
<g id="edge6" class="edge"><title>Node4&#45;&gt;Node2</title>
<path fill="none" stroke="#9a32cd" stroke-dasharray="5,2" d="M433.297,-14.0165C476.171,-17.362 542.881,-23.6927 600,-34 609.566,-35.7262 619.786,-38.062 629.289,-40.4487"/>
<polygon fill="#9a32cd" stroke="#9a32cd" points="433.433,-10.5169 423.197,-13.2493 432.903,-17.4968 433.433,-10.5169"/>
<text text-anchor="middle" x="546" y="-38" font-family="Helvetica,sans-Serif" font-size="10.00"> m_type</text>
</g>
<!-- Node5 -->
<g id="node8" class="node"><title>Node5</title>
<a xlink:href="classfortran_1_1PointerArray.xhtml" target="_top" xlink:title="fortran::PointerArray\&lt; GridContainer \&gt;">
<polygon fill="white" stroke="black" points="1046,-29.5 1046,-50.5 1228,-50.5 1228,-29.5 1046,-29.5"/>
<text text-anchor="middle" x="1137" y="-37.5" font-family="Helvetica,sans-Serif" font-size="10.00">fortran::PointerArray&lt; GridContainer &gt;</text>
</a>
</g>
<!-- Node5&#45;&gt;Node2 -->
<g id="edge8" class="edge"><title>Node5&#45;&gt;Node2</title>
<path fill="none" stroke="#9a32cd" stroke-dasharray="5,2" d="M1066.96,-27.9966C1000.63,-18.3531 898.323,-7.94111 810,-18 772.787,-22.2382 731.159,-32.4901 702.458,-40.4518"/>
<polygon fill="#9a32cd" stroke="#9a32cd" points="1066.47,-31.4632 1076.88,-29.4728 1067.5,-24.5394 1066.47,-31.4632"/>
<text text-anchor="middle" x="884" y="-22" font-family="Helvetica,sans-Serif" font-size="10.00"> m_pointers</text>
</g>
<!-- Node6&#45;&gt;Node5 -->
<g id="edge10" class="edge"><title>Node6&#45;&gt;Node5</title>
<path fill="none" stroke="#9a32cd" stroke-dasharray="5,2" d="M968.32,-47.3339C993.174,-46.2533 1020.48,-45.0661 1045.75,-43.9675"/>
<polygon fill="#9a32cd" stroke="#9a32cd" points="968.037,-43.8428 958.199,-47.774 968.341,-50.8362 968.037,-43.8428"/>
<text text-anchor="middle" x="1002" y="-51" font-family="Helvetica,sans-Serif" font-size="10.00"> m_pointers</text>
</g>
<!-- Node7&#45;&gt;Node1 -->
<g id="edge14" class="edge"><title>Node7&#45;&gt;Node1</title>
<path fill="none" stroke="#9a32cd" stroke-dasharray="5,2" d="M921.792,-150.187C967.197,-139.598 1043.3,-121.85 1091.78,-110.545"/>
<polygon fill="#9a32cd" stroke="#9a32cd" points="920.986,-146.781 912.042,-152.461 922.576,-153.598 920.986,-146.781"/>
<text text-anchor="middle" x="1002" y="-140" font-family="Helvetica,sans-Serif" font-size="10.00"> m_grids</text>
</g>
<!-- Node8 -->
<g id="node15" class="node"><title>Node8</title>
<a xlink:href="classperf_1_1Counter.xhtml" target="_top" xlink:title="perf::Counter">
<polygon fill="white" stroke="black" points="630,-247.5 630,-268.5 704,-268.5 704,-247.5 630,-247.5"/>
<text text-anchor="middle" x="667" y="-255.5" font-family="Helvetica,sans-Serif" font-size="10.00">perf::Counter</text>
</a>
</g>
<!-- Node8&#45;&gt;Node7 -->
<g id="edge16" class="edge"><title>Node8&#45;&gt;Node7</title>
<path fill="none" stroke="#9a32cd" stroke-dasharray="5,2" d="M714.011,-253.991C738.188,-250.612 767.617,-244.401 792,-233 825.98,-217.111 858.391,-186.124 874.113,-169.744"/>
<polygon fill="#9a32cd" stroke="#9a32cd" points="713.476,-250.531 704.001,-255.273 714.365,-257.474 713.476,-250.531"/>
<text text-anchor="middle" x="763" y="-254" font-family="Helvetica,sans-Serif" font-size="10.00"> m_counter</text>
</g>
<!-- Node9 -->
<g id="node17" class="node"><title>Node9</title>
<a xlink:href="classperf_1_1Counter_1_1NameToCounterMap.xhtml" target="_top" xlink:title="perf::Counter::NameToCounterMap">
<polygon fill="white" stroke="black" points="304,-247.5 304,-268.5 474,-268.5 474,-247.5 304,-247.5"/>
<text text-anchor="middle" x="389" y="-255.5" font-family="Helvetica,sans-Serif" font-size="10.00">perf::Counter::NameToCounterMap</text>
</a>
</g>
<!-- Node9&#45;&gt;Node8 -->
<g id="edge18" class="edge"><title>Node9&#45;&gt;Node8</title>
<path fill="none" stroke="#9a32cd" stroke-dasharray="5,2" d="M484.498,-258C534.466,-258 592.776,-258 629.784,-258"/>
<polygon fill="#9a32cd" stroke="#9a32cd" points="484.298,-254.5 474.298,-258 484.298,-261.5 484.298,-254.5"/>
<text text-anchor="middle" x="546" y="-262" font-family="Helvetica,sans-Serif" font-size="10.00"> NAME_TO_COUNTER</text>
</g>
<!-- Node10 -->
<g id="node20" class="node"><title>Node10</title>
<a xlink:href="classio_1_1NetCdfReader.xhtml" target="_top" xlink:title="io::NetCdfReader">
<polygon fill="white" stroke="black" points="620.5,-139.5 620.5,-160.5 713.5,-160.5 713.5,-139.5 620.5,-139.5"/>
<text text-anchor="middle" x="667" y="-147.5" font-family="Helvetica,sans-Serif" font-size="10.00">io::NetCdfReader</text>
</a>
</g>
<!-- Node10&#45;&gt;Node7 -->
<g id="edge22" class="edge"><title>Node10&#45;&gt;Node7</title>
<path fill="none" stroke="#9a32cd" stroke-dasharray="5,2" d="M723.75,-152.354C766.197,-154.114 822.443,-156.447 855.768,-157.829"/>
<polygon fill="#9a32cd" stroke="#9a32cd" points="723.688,-148.848 713.552,-151.931 723.398,-155.842 723.688,-148.848"/>
<text text-anchor="middle" x="763" y="-159" font-family="Helvetica,sans-Serif" font-size="10.00"> m_inputFile</text>
</g>
<!-- Node11 -->
<g id="node22" class="node"><title>Node11</title>
<a xlink:title="STL class.">
<polygon fill="white" stroke="#bfbfbf" points="164,-167.5 164,-188.5 224,-188.5 224,-167.5 164,-167.5"/>
<text text-anchor="middle" x="194" y="-175.5" font-family="Helvetica,sans-Serif" font-size="10.00">std::string</text>
</a>
</g>
<!-- Node11&#45;&gt;Node7 -->
<g id="edge34" class="edge"><title>Node11&#45;&gt;Node7</title>
<path fill="none" stroke="#9a32cd" stroke-dasharray="5,2" d="M233.95,-190.463C236.658,-191.057 239.359,-191.579 242,-192 269.226,-196.338 276.434,-193.555 304,-194 521.081,-197.5 576.08,-194.695 792,-172 813.497,-169.74 837.696,-166.285 855.879,-163.504"/>
<polygon fill="#9a32cd" stroke="#9a32cd" points="234.755,-187.057 224.208,-188.059 233.078,-193.853 234.755,-187.057"/>
<text text-anchor="middle" x="546" y="-198" font-family="Helvetica,sans-Serif" font-size="10.00"> m_variableName</text>
</g>
<!-- Node11&#45;&gt;Node10 -->
<g id="edge24" class="edge"><title>Node11&#45;&gt;Node10</title>
<path fill="none" stroke="#9a32cd" stroke-dasharray="5,2" d="M234.303,-178.247C307.406,-178.287 466.654,-176.499 600,-162 606.579,-161.285 613.485,-160.308 620.262,-159.219"/>
<polygon fill="#9a32cd" stroke="#9a32cd" points="234.161,-174.747 224.155,-178.229 234.149,-181.747 234.161,-174.747"/>
<text text-anchor="middle" x="389" y="-181" font-family="Helvetica,sans-Serif" font-size="10.00"> m_filename</text>
</g>
<!-- Node14 -->
<g id="node28" class="node"><title>Node14</title>
<polygon fill="white" stroke="#bfbfbf" points="326.5,-120.5 326.5,-141.5 451.5,-141.5 451.5,-120.5 326.5,-120.5"/>
<text text-anchor="middle" x="389" y="-128.5" font-family="Helvetica,sans-Serif" font-size="10.00">std::vector&lt; std::string &gt;</text>
</g>
<!-- Node11&#45;&gt;Node14 -->
<g id="edge32" class="edge"><title>Node11&#45;&gt;Node14</title>
<path fill="none" stroke="#9a32cd" stroke-dasharray="5,2" d="M218.083,-162.119C225.488,-157.888 233.842,-153.738 242,-151 268.859,-141.986 299.777,-137.025 326.307,-134.299"/>
<polygon fill="#9a32cd" stroke="#9a32cd" points="216.051,-159.257 209.298,-167.42 219.668,-165.25 216.051,-159.257"/>
<text text-anchor="middle" x="264" y="-155" font-family="Helvetica,sans-Serif" font-size="10.00"> elements</text>
</g>
<!-- Node12 -->
<g id="node24" class="node"><title>Node12</title>
<a xlink:title="STL class.">
<polygon fill="white" stroke="#bfbfbf" points="0.5,-167.5 0.5,-188.5 125.5,-188.5 125.5,-167.5 0.5,-167.5"/>
<text text-anchor="middle" x="63" y="-175.5" font-family="Helvetica,sans-Serif" font-size="10.00">std::basic_string&lt; char &gt;</text>
</a>
</g>
<!-- Node12&#45;&gt;Node11 -->
<g id="edge26" class="edge"><title>Node12&#45;&gt;Node11</title>
<path fill="none" stroke="midnightblue" d="M136.065,-178C145.859,-178 155.423,-178 163.868,-178"/>
<polygon fill="midnightblue" stroke="midnightblue" points="135.814,-174.5 125.814,-178 135.814,-181.5 135.814,-174.5"/>
</g>
<!-- Node13 -->
<g id="node26" class="node"><title>Node13</title>
<polygon fill="white" stroke="#bfbfbf" points="335.5,-80.5 335.5,-101.5 442.5,-101.5 442.5,-80.5 335.5,-80.5"/>
<text text-anchor="middle" x="389" y="-88.5" font-family="Helvetica,sans-Serif" font-size="10.00">std::vector&lt; size_t &gt;</text>
</g>
<!-- Node13&#45;&gt;Node10 -->
<g id="edge28" class="edge"><title>Node13&#45;&gt;Node10</title>
<path fill="none" stroke="#9a32cd" stroke-dasharray="5,2" d="M452.881,-95.6108C495.21,-99.7513 551.639,-107.362 600,-121 616.103,-125.541 633.413,-133.109 646.404,-139.376"/>
<polygon fill="#9a32cd" stroke="#9a32cd" points="452.995,-92.1061 442.711,-94.6559 452.34,-99.0754 452.995,-92.1061"/>
<text text-anchor="middle" x="546" y="-125" font-family="Helvetica,sans-Serif" font-size="10.00"> m_size</text>
</g>
<!-- Node14&#45;&gt;Node10 -->
<g id="edge30" class="edge"><title>Node14&#45;&gt;Node10</title>
<path fill="none" stroke="#9a32cd" stroke-dasharray="5,2" d="M461.849,-135.979C511.869,-139.398 576.794,-143.835 620.074,-146.793"/>
<polygon fill="#9a32cd" stroke="#9a32cd" points="461.951,-132.478 451.735,-135.288 461.473,-139.461 461.951,-132.478"/>
<text text-anchor="middle" x="546" y="-149" font-family="Helvetica,sans-Serif" font-size="10.00"> m_names</text>
</g>
</g>
</svg>
