<?xml version="1.0" encoding="UTF-8" standalone="no"?>
<!DOCTYPE svg PUBLIC "-//W3C//DTD SVG 1.1//EN"
 "http://www.w3.org/Graphics/SVG/1.1/DTD/svg11.dtd">
<!-- Generated by graphviz version 2.26.3 (20100126.1600)
 -->
<!-- Title: transfer::MPIThreadCache::BlockInfoResponder Pages: 1 -->
<svg width="1108pt" height="428pt"
 viewBox="0.00 0.00 1108.00 428.00" xmlns="http://www.w3.org/2000/svg" xmlns:xlink="http://www.w3.org/1999/xlink">
<g id="graph1" class="graph" transform="scale(1 1) rotate(0) translate(4 424)">
<title>transfer::MPIThreadCache::BlockInfoResponder</title>
<polygon fill="white" stroke="white" points="-4,5 -4,-424 1105,-424 1105,5 -4,5"/>
<!-- Node1 -->
<g id="node1" class="node"><title>Node1</title>
<polygon fill="#bfbfbf" stroke="black" points="442,-270 442,-304 574,-304 574,-270 442,-270"/>
<text text-anchor="start" x="450" y="-291" font-family="Helvetica,sans-Serif" font-size="10.00">transfer::MPIThreadCache</text>
<text text-anchor="middle" x="508" y="-278" font-family="Helvetica,sans-Serif" font-size="10.00">::BlockInfoResponder</text>
</g>
<!-- Node3 -->
<g id="node4" class="node"><title>Node3</title>
<a xlink:href="classtransfer_1_1MPIThreadCache.xhtml" target="_top" xlink:title="transfer::MPIThreadCache">
<polygon fill="white" stroke="black" points="714,-240.5 714,-261.5 846,-261.5 846,-240.5 714,-240.5"/>
<text text-anchor="middle" x="780" y="-248.5" font-family="Helvetica,sans-Serif" font-size="10.00">transfer::MPIThreadCache</text>
</a>
</g>
<!-- Node1&#45;&gt;Node3 -->
<g id="edge36" class="edge"><title>Node1&#45;&gt;Node3</title>
<path fill="none" stroke="#9a32cd" stroke-dasharray="5,2" d="M584.601,-278.89C618.748,-275.055 659.437,-270.183 696,-265 703.465,-263.942 711.29,-262.749 719.035,-261.519"/>
<polygon fill="#9a32cd" stroke="#9a32cd" points="583.776,-275.46 574.225,-280.046 584.551,-282.417 583.776,-275.46"/>
<text text-anchor="middle" x="644" y="-281" font-family="Helvetica,sans-Serif" font-size="10.00"> m_blockInfoResponder</text>
</g>
<!-- Node2 -->
<g id="node2" class="node"><title>Node2</title>
<a xlink:href="classmpi_1_1Receiver.xhtml" target="_top" xlink:title="mpi::Receiver">
<polygon fill="white" stroke="black" points="252.5,-305.5 252.5,-326.5 329.5,-326.5 329.5,-305.5 252.5,-305.5"/>
<text text-anchor="middle" x="291" y="-313.5" font-family="Helvetica,sans-Serif" font-size="10.00">mpi::Receiver</text>
</a>
</g>
<!-- Node2&#45;&gt;Node1 -->
<g id="edge2" class="edge"><title>Node2&#45;&gt;Node1</title>
<path fill="none" stroke="midnightblue" d="M340.048,-309.445C370.146,-305.423 409.074,-300.221 441.873,-295.837"/>
<polygon fill="midnightblue" stroke="midnightblue" points="339.243,-306.022 329.795,-310.815 340.171,-312.96 339.243,-306.022"/>
</g>
<!-- Node11 -->
<g id="node22" class="node"><title>Node11</title>
<a xlink:href="classtransfer_1_1MPIThreadCache_1_1Adder.xhtml" target="_top" xlink:title="transfer::MPIThreadCache\l::Adder">
<polygon fill="white" stroke="black" points="968,-289 968,-323 1100,-323 1100,-289 968,-289"/>
<text text-anchor="start" x="976" y="-310" font-family="Helvetica,sans-Serif" font-size="10.00">transfer::MPIThreadCache</text>
<text text-anchor="middle" x="1034" y="-297" font-family="Helvetica,sans-Serif" font-size="10.00">::Adder</text>
</a>
</g>
<!-- Node2&#45;&gt;Node11 -->
<g id="edge26" class="edge"><title>Node2&#45;&gt;Node11</title>
<path fill="none" stroke="midnightblue" d="M339.735,-316.022C364.898,-316.028 396.096,-316.027 424,-316 657.778,-315.778 716.567,-327.692 950,-315 955.712,-314.689 961.632,-314.265 967.566,-313.768"/>
<polygon fill="midnightblue" stroke="midnightblue" points="339.703,-312.522 329.702,-316.019 339.701,-319.522 339.703,-312.522"/>
</g>
<!-- Node12 -->
<g id="node26" class="node"><title>Node12</title>
<a xlink:href="classtransfer_1_1MPIThreadCache_1_1BlockTransferer.xhtml" target="_top" xlink:title="transfer::MPIThreadCache\l::BlockTransferer">
<polygon fill="white" stroke="black" points="968,-181 968,-215 1100,-215 1100,-181 968,-181"/>
<text text-anchor="start" x="976" y="-202" font-family="Helvetica,sans-Serif" font-size="10.00">transfer::MPIThreadCache</text>
<text text-anchor="middle" x="1034" y="-189" font-family="Helvetica,sans-Serif" font-size="10.00">::BlockTransferer</text>
</a>
</g>
<!-- Node2&#45;&gt;Node12 -->
<g id="edge32" class="edge"><title>Node2&#45;&gt;Node12</title>
<path fill="none" stroke="midnightblue" d="M325.217,-301.628C355.475,-289.383 401.046,-272.059 442,-261 625.983,-211.318 674.183,-201.956 864,-185 902.071,-181.599 911.89,-182.068 950,-185 955.738,-185.441 961.678,-186.05 967.624,-186.765"/>
<polygon fill="midnightblue" stroke="midnightblue" points="323.89,-298.39 315.956,-305.412 326.537,-304.87 323.89,-298.39"/>
</g>
<!-- Node13 -->
<g id="node31" class="node"><title>Node13</title>
<a xlink:href="classtransfer_1_1MPIThreadCache_1_1Deleter.xhtml" target="_top" xlink:title="transfer::MPIThreadCache\l::Deleter">
<polygon fill="white" stroke="black" points="968,-386 968,-420 1100,-420 1100,-386 968,-386"/>
<text text-anchor="start" x="976" y="-407" font-family="Helvetica,sans-Serif" font-size="10.00">transfer::MPIThreadCache</text>
<text text-anchor="middle" x="1034" y="-394" font-family="Helvetica,sans-Serif" font-size="10.00">::Deleter</text>
</a>
</g>
<!-- Node2&#45;&gt;Node13 -->
<g id="edge40" class="edge"><title>Node2&#45;&gt;Node13</title>
<path fill="none" stroke="midnightblue" d="M339.55,-327.155C437.857,-349.088 667.804,-397.078 864,-413 902.097,-416.092 911.845,-415.263 950,-413 955.718,-412.661 961.643,-412.193 967.579,-411.643"/>
<polygon fill="midnightblue" stroke="midnightblue" points="340.138,-323.7 329.615,-324.927 338.606,-330.53 340.138,-323.7"/>
</g>
<!-- Node3&#45;&gt;Node1 -->
<g id="edge4" class="edge"><title>Node3&#45;&gt;Node1</title>
<path fill="none" stroke="#9a32cd" stroke-dasharray="5,2" d="M703.675,-244.736C669.24,-243.611 628.247,-244.65 592,-252 574.349,-255.579 555.761,-262.911 540.57,-269.944"/>
<polygon fill="#9a32cd" stroke="#9a32cd" points="703.541,-248.233 713.67,-245.128 703.815,-241.239 703.541,-248.233"/>
<text text-anchor="middle" x="644" y="-256" font-family="Helvetica,sans-Serif" font-size="10.00"> m_parent</text>
</g>
<!-- Node3&#45;&gt;Node11 -->
<g id="edge28" class="edge"><title>Node3&#45;&gt;Node11</title>
<path fill="none" stroke="#9a32cd" stroke-dasharray="5,2" d="M856.591,-252.668C886.176,-254.744 920.051,-258.896 950,-267 968.624,-272.039 988.245,-280.924 1003.84,-288.941"/>
<polygon fill="#9a32cd" stroke="#9a32cd" points="856.52,-249.156 846.319,-252.016 856.077,-256.142 856.52,-249.156"/>
<text text-anchor="middle" x="907" y="-271" font-family="Helvetica,sans-Serif" font-size="10.00"> m_parent</text>
</g>
<!-- Node3&#45;&gt;Node12 -->
<g id="edge34" class="edge"><title>Node3&#45;&gt;Node12</title>
<path fill="none" stroke="#9a32cd" stroke-dasharray="5,2" d="M840.47,-238.382C878.776,-230.389 928.334,-220.048 967.71,-211.832"/>
<polygon fill="#9a32cd" stroke="#9a32cd" points="839.56,-234.997 830.486,-240.466 840.99,-241.849 839.56,-234.997"/>
<text text-anchor="middle" x="907" y="-236" font-family="Helvetica,sans-Serif" font-size="10.00"> m_parent</text>
</g>
<!-- Node3&#45;&gt;Node13 -->
<g id="edge42" class="edge"><title>Node3&#45;&gt;Node13</title>
<path fill="none" stroke="#9a32cd" stroke-dasharray="5,2" d="M787.214,-271.229C798.655,-300.112 823.864,-352.487 864,-378 881.056,-388.842 927.683,-395.211 967.799,-398.804"/>
<polygon fill="#9a32cd" stroke="#9a32cd" points="790.437,-269.856 783.62,-261.745 783.891,-272.336 790.437,-269.856"/>
<text text-anchor="middle" x="907" y="-400" font-family="Helvetica,sans-Serif" font-size="10.00"> m_parent</text>
</g>
<!-- Node4 -->
<g id="node6" class="node"><title>Node4</title>
<a xlink:href="classtransfer_1_1MPICache.xhtml" target="_top" xlink:title="transfer::MPICache\l\&lt; allocator::Default,\l false \&gt;">
<polygon fill="white" stroke="black" points="456.5,-103.5 456.5,-150.5 559.5,-150.5 559.5,-103.5 456.5,-103.5"/>
<text text-anchor="start" x="464.5" y="-137.5" font-family="Helvetica,sans-Serif" font-size="10.00">transfer::MPICache</text>
<text text-anchor="start" x="464.5" y="-124.5" font-family="Helvetica,sans-Serif" font-size="10.00">&lt; allocator::Default,</text>
<text text-anchor="middle" x="508" y="-111.5" font-family="Helvetica,sans-Serif" font-size="10.00"> false &gt;</text>
</a>
</g>
<!-- Node4&#45;&gt;Node3 -->
<g id="edge6" class="edge"><title>Node4&#45;&gt;Node3</title>
<path fill="none" stroke="#8b1a1a" d="M569.394,-150.532C606.487,-165.226 654.467,-185.083 696,-205 719.238,-216.143 745.13,-230.656 761.943,-240.373"/>
<polygon fill="#8b1a1a" stroke="#8b1a1a" points="570.31,-147.131 559.723,-146.72 567.743,-153.643 570.31,-147.131"/>
</g>
<!-- Node5 -->
<g id="node8" class="node"><title>Node5</title>
<a xlink:href="classmpi_1_1MPIComm.xhtml" target="_top" xlink:title="mpi::MPIComm">
<polygon fill="white" stroke="black" points="248,-132.5 248,-153.5 334,-153.5 334,-132.5 248,-132.5"/>
<text text-anchor="middle" x="291" y="-140.5" font-family="Helvetica,sans-Serif" font-size="10.00">mpi::MPIComm</text>
</a>
</g>
<!-- Node5&#45;&gt;Node4 -->
<g id="edge8" class="edge"><title>Node5&#45;&gt;Node4</title>
<path fill="none" stroke="#9a32cd" stroke-dasharray="5,2" d="M344.366,-139.065C378.436,-136.553 422.384,-133.313 456.155,-130.823"/>
<polygon fill="#9a32cd" stroke="#9a32cd" points="343.847,-135.594 334.132,-139.82 344.362,-142.575 343.847,-135.594"/>
<text text-anchor="middle" x="390" y="-141" font-family="Helvetica,sans-Serif" font-size="10.00"> m_mpiComm</text>
</g>
<!-- Node6 -->
<g id="node10" class="node"><title>Node6</title>
<a xlink:href="classthreads_1_1PthreadMutex.xhtml" target="_top" xlink:title="threads::PthreadMutex">
<polygon fill="white" stroke="black" points="8,-132.5 8,-153.5 124,-153.5 124,-132.5 8,-132.5"/>
<text text-anchor="middle" x="66" y="-140.5" font-family="Helvetica,sans-Serif" font-size="10.00">threads::PthreadMutex</text>
</a>
</g>
<!-- Node6&#45;&gt;Node3 -->
<g id="edge22" class="edge"><title>Node6&#45;&gt;Node3</title>
<path fill="none" stroke="#9a32cd" stroke-dasharray="5,2" d="M125.563,-155.485C133.759,-157.077 142.079,-158.627 150,-160 257.731,-178.667 575.314,-222.845 713.976,-241.944"/>
<polygon fill="#9a32cd" stroke="#9a32cd" points="126.149,-152.033 115.66,-153.531 124.794,-158.901 126.149,-152.033"/>
<text text-anchor="middle" x="390" y="-230" font-family="Helvetica,sans-Serif" font-size="10.00"> m_blockMutex</text>
<text text-anchor="middle" x="390" y="-217" font-family="Helvetica,sans-Serif" font-size="10.00">m_mutexes</text>
<text text-anchor="middle" x="390" y="-204" font-family="Helvetica,sans-Serif" font-size="10.00">m_infoMutex</text>
</g>
<!-- Node6&#45;&gt;Node5 -->
<g id="edge10" class="edge"><title>Node6&#45;&gt;Node5</title>
<path fill="none" stroke="#9a32cd" stroke-dasharray="5,2" d="M134.438,-143C171.378,-143 215.846,-143 247.935,-143"/>
<polygon fill="#9a32cd" stroke="#9a32cd" points="134.236,-139.5 124.236,-143 134.236,-146.5 134.236,-139.5"/>
<text text-anchor="middle" x="188" y="-147" font-family="Helvetica,sans-Serif" font-size="10.00"> mpiLock</text>
</g>
<!-- Node7 -->
<g id="node12" class="node"><title>Node7</title>
<a xlink:href="classcache_1_1CacheManager.xhtml" target="_top" xlink:title="Manages a block cache. ">
<polygon fill="white" stroke="black" points="450.5,-63.5 450.5,-84.5 565.5,-84.5 565.5,-63.5 450.5,-63.5"/>
<text text-anchor="middle" x="508" y="-71.5" font-family="Helvetica,sans-Serif" font-size="10.00">cache::CacheManager</text>
</a>
</g>
<!-- Node6&#45;&gt;Node7 -->
<g id="edge14" class="edge"><title>Node6&#45;&gt;Node7</title>
<path fill="none" stroke="#9a32cd" stroke-dasharray="5,2" d="M129.474,-130.471C163.39,-123.969 205.895,-116.127 244,-110 314.904,-98.5997 396.902,-87.7868 450.462,-81.0416"/>
<polygon fill="#9a32cd" stroke="#9a32cd" points="128.396,-127.114 119.239,-132.442 129.72,-133.988 128.396,-127.114"/>
<text text-anchor="middle" x="291" y="-114" font-family="Helvetica,sans-Serif" font-size="10.00"> m_blockMutexes</text>
</g>
<!-- Node7&#45;&gt;Node3 -->
<g id="edge12" class="edge"><title>Node7&#45;&gt;Node3</title>
<path fill="none" stroke="#9a32cd" stroke-dasharray="5,2" d="M570.828,-87.1804C609.693,-97.6044 659.043,-115.147 696,-143 732.991,-170.878 762.366,-218.949 774.266,-240.275"/>
<polygon fill="#9a32cd" stroke="#9a32cd" points="571.234,-83.6704 560.677,-84.5541 569.481,-90.4473 571.234,-83.6704"/>
<text text-anchor="middle" x="644" y="-147" font-family="Helvetica,sans-Serif" font-size="10.00"> m_cacheManager</text>
</g>
<!-- Node8 -->
<g id="node15" class="node"><title>Node8</title>
<a xlink:href="classcache_1_1CacheList.xhtml" target="_top" xlink:title="Controls a list of blocks. ">
<polygon fill="white" stroke="black" points="244.5,-43.5 244.5,-64.5 337.5,-64.5 337.5,-43.5 244.5,-43.5"/>
<text text-anchor="middle" x="291" y="-51.5" font-family="Helvetica,sans-Serif" font-size="10.00">cache::CacheList</text>
</a>
</g>
<!-- Node8&#45;&gt;Node7 -->
<g id="edge16" class="edge"><title>Node8&#45;&gt;Node7</title>
<path fill="none" stroke="#9a32cd" stroke-dasharray="5,2" d="M347.53,-59.2101C379.157,-62.1251 418.497,-65.7509 450.31,-68.6829"/>
<polygon fill="#9a32cd" stroke="#9a32cd" points="347.831,-55.7231 337.552,-58.2905 347.188,-62.6936 347.831,-55.7231"/>
<text text-anchor="middle" x="390" y="-69" font-family="Helvetica,sans-Serif" font-size="10.00"> m_cacheList</text>
</g>
<!-- Node9 -->
<g id="node17" class="node"><title>Node9</title>
<a xlink:href="classcache_1_1LRU.xhtml" target="_top" xlink:title="cache::LRU">
<polygon fill="white" stroke="black" points="31.5,-0.5 31.5,-21.5 100.5,-21.5 100.5,-0.5 31.5,-0.5"/>
<text text-anchor="middle" x="66" y="-8.5" font-family="Helvetica,sans-Serif" font-size="10.00">cache::LRU</text>
</a>
</g>
<!-- Node9&#45;&gt;Node8 -->
<g id="edge18" class="edge"><title>Node9&#45;&gt;Node8</title>
<path fill="none" stroke="#9a32cd" stroke-dasharray="5,2" d="M110.733,-18.1694C142.884,-23.4828 187.22,-31.1381 226,-39 232.697,-40.3577 239.759,-41.8862 246.663,-43.4349"/>
<polygon fill="#9a32cd" stroke="#9a32cd" points="111.18,-14.696 100.745,-16.5293 110.046,-21.6035 111.18,-14.696"/>
<text text-anchor="middle" x="188" y="-43" font-family="Helvetica,sans-Serif" font-size="10.00"> m_lru</text>
</g>
<!-- Node10 -->
<g id="node19" class="node"><title>Node10</title>
<polygon fill="white" stroke="#bfbfbf" points="0.5,-40.5 0.5,-87.5 131.5,-87.5 131.5,-40.5 0.5,-40.5"/>
<text text-anchor="start" x="8.5" y="-74.5" font-family="Helvetica,sans-Serif" font-size="10.00">std::unordered_map</text>
<text text-anchor="start" x="8.5" y="-61.5" font-family="Helvetica,sans-Serif" font-size="10.00">&lt; unsigned long, unsigned</text>
<text text-anchor="middle" x="66" y="-48.5" font-family="Helvetica,sans-Serif" font-size="10.00"> long &gt;</text>
</g>
<!-- Node10&#45;&gt;Node8 -->
<g id="edge20" class="edge"><title>Node10&#45;&gt;Node8</title>
<path fill="none" stroke="#9a32cd" stroke-dasharray="5,2" d="M142.016,-60.6215C175.87,-59.1169 214.667,-57.3926 244.181,-56.0808"/>
<polygon fill="#9a32cd" stroke="#9a32cd" points="141.519,-57.1401 131.684,-61.0807 141.83,-64.1332 141.519,-57.1401"/>
<text text-anchor="middle" x="188" y="-64" font-family="Helvetica,sans-Serif" font-size="10.00"> m_blockToIndex</text>
</g>
<!-- Node11&#45;&gt;Node3 -->
<g id="edge24" class="edge"><title>Node11&#45;&gt;Node3</title>
<path fill="none" stroke="#9a32cd" stroke-dasharray="5,2" d="M957.637,-300.152C928.082,-296.842 894.167,-291.752 864,-284 842.451,-278.463 818.963,-268.915 802.317,-261.51"/>
<polygon fill="#9a32cd" stroke="#9a32cd" points="957.581,-303.666 967.897,-301.25 958.326,-296.705 957.581,-303.666"/>
<text text-anchor="middle" x="907" y="-302" font-family="Helvetica,sans-Serif" font-size="10.00"> m_adder</text>
</g>
<!-- Node12&#45;&gt;Node3 -->
<g id="edge30" class="edge"><title>Node12&#45;&gt;Node3</title>
<path fill="none" stroke="#9a32cd" stroke-dasharray="5,2" d="M957.513,-189.694C927.802,-188.722 893.813,-190.424 864,-199 835.814,-207.108 807.803,-227.586 792.31,-240.29"/>
<polygon fill="#9a32cd" stroke="#9a32cd" points="957.687,-193.205 967.83,-190.143 957.991,-186.212 957.687,-193.205"/>
<text text-anchor="middle" x="907" y="-203" font-family="Helvetica,sans-Serif" font-size="10.00"> m_blockTransferer</text>
</g>
<!-- Node13&#45;&gt;Node3 -->
<g id="edge38" class="edge"><title>Node13&#45;&gt;Node3</title>
<path fill="none" stroke="#9a32cd" stroke-dasharray="5,2" d="M987.047,-381.415C952.219,-364.76 904.04,-340.348 864,-315 837.356,-298.133 808.596,-275.04 792.591,-261.702"/>
<polygon fill="#9a32cd" stroke="#9a32cd" points="985.963,-384.775 996.498,-385.901 988.965,-378.451 985.963,-384.775"/>
<text text-anchor="middle" x="907" y="-365" font-family="Helvetica,sans-Serif" font-size="10.00"> m_deleter</text>
</g>
</g>
</svg>
