<?xml version="1.0" encoding="UTF-8" standalone="no"?>
<!DOCTYPE svg PUBLIC "-//W3C//DTD SVG 1.1//EN"
 "http://www.w3.org/Graphics/SVG/1.1/DTD/svg11.dtd">
<!-- Generated by graphviz version 2.26.3 (20100126.1600)
 -->
<!-- Title: mpi::CommThread Pages: 1 -->
<svg width="207pt" height="286pt"
 viewBox="0.00 0.00 207.00 286.00" xmlns="http://www.w3.org/2000/svg" xmlns:xlink="http://www.w3.org/1999/xlink">
<g id="graph1" class="graph" transform="scale(1 1) rotate(0) translate(4 282)">
<title>mpi::CommThread</title>
<polygon fill="white" stroke="white" points="-4,5 -4,-282 204,-282 204,5 -4,5"/>
<!-- Node1 -->
<g id="node1" class="node"><title>Node1</title>
<polygon fill="#bfbfbf" stroke="black" points="22,-0.5 22,-21.5 120,-21.5 120,-0.5 22,-0.5"/>
<text text-anchor="middle" x="71" y="-8.5" font-family="Helvetica,sans-Serif" font-size="10.00">mpi::CommThread</text>
</g>
<!-- Node1&#45;&gt;Node1 -->
<g id="edge8" class="edge"><title>Node1&#45;&gt;Node1</title>
<path fill="none" stroke="#9a32cd" stroke-dasharray="5,2" d="M130.323,-16.1471C135.065,-15.0228 138,-13.3071 138,-11 138,-7.30859 130.486,-5.13124 120.08,-4.46794"/>
<polygon fill="#9a32cd" stroke="#9a32cd" points="129.521,-12.7236 120.08,-17.5321 130.459,-19.6604 129.521,-12.7236"/>
<text text-anchor="middle" x="168.5" y="-8.5" font-family="Helvetica,sans-Serif" font-size="10.00"> commThread</text>
</g>
<!-- Node2 -->
<g id="node2" class="node"><title>Node2</title>
<polygon fill="white" stroke="#bfbfbf" points="9.5,-72.5 9.5,-119.5 132.5,-119.5 132.5,-72.5 9.5,-72.5"/>
<text text-anchor="start" x="17.5" y="-106.5" font-family="Helvetica,sans-Serif" font-size="10.00">std::unordered_map</text>
<text text-anchor="start" x="17.5" y="-93.5" font-family="Helvetica,sans-Serif" font-size="10.00">&lt; int, mpi::CommThread</text>
<text text-anchor="middle" x="71" y="-80.5" font-family="Helvetica,sans-Serif" font-size="10.00">::ReceiverDetail &gt;</text>
</g>
<!-- Node2&#45;&gt;Node1 -->
<g id="edge2" class="edge"><title>Node2&#45;&gt;Node1</title>
<path fill="none" stroke="#9a32cd" stroke-dasharray="5,2" d="M71,-62.2079C71,-47.8439 71,-32.0932 71,-21.9057"/>
<polygon fill="#9a32cd" stroke="#9a32cd" points="67.5001,-62.3227 71,-72.3228 74.5001,-62.3228 67.5001,-62.3227"/>
<text text-anchor="middle" x="97" y="-44.5" font-family="Helvetica,sans-Serif" font-size="10.00"> m_receiver</text>
</g>
<!-- Node3 -->
<g id="node4" class="node"><title>Node3</title>
<a xlink:href="classmpi_1_1CommThread.xhtml#structmpi_1_1CommThread_1_1ReceiverDetail" target="_top" xlink:title="mpi::CommThread::Receiver\lDetail">
<polygon fill="white" stroke="black" points="-0.5,-171 -0.5,-205 142.5,-205 142.5,-171 -0.5,-171"/>
<text text-anchor="start" x="7.5" y="-192" font-family="Helvetica,sans-Serif" font-size="10.00">mpi::CommThread::Receiver</text>
<text text-anchor="middle" x="71" y="-179" font-family="Helvetica,sans-Serif" font-size="10.00">Detail</text>
</a>
</g>
<!-- Node3&#45;&gt;Node2 -->
<g id="edge4" class="edge"><title>Node3&#45;&gt;Node2</title>
<path fill="none" stroke="#9a32cd" stroke-dasharray="5,2" d="M71,-160.489C71,-147.547 71,-132.263 71,-119.823"/>
<polygon fill="#9a32cd" stroke="#9a32cd" points="67.5001,-160.695 71,-170.696 74.5001,-160.696 67.5001,-160.695"/>
<text text-anchor="middle" x="92.5" y="-142.5" font-family="Helvetica,sans-Serif" font-size="10.00"> elements</text>
</g>
<!-- Node4 -->
<g id="node6" class="node"><title>Node4</title>
<a xlink:href="classmpi_1_1Receiver.xhtml" target="_top" xlink:title="mpi::Receiver">
<polygon fill="white" stroke="black" points="32.5,-256.5 32.5,-277.5 109.5,-277.5 109.5,-256.5 32.5,-256.5"/>
<text text-anchor="middle" x="71" y="-264.5" font-family="Helvetica,sans-Serif" font-size="10.00">mpi::Receiver</text>
</a>
</g>
<!-- Node4&#45;&gt;Node3 -->
<g id="edge6" class="edge"><title>Node4&#45;&gt;Node3</title>
<path fill="none" stroke="#9a32cd" stroke-dasharray="5,2" d="M71,-246.162C71,-233.363 71,-217.171 71,-205.124"/>
<polygon fill="#9a32cd" stroke="#9a32cd" points="67.5001,-246.346 71,-256.346 74.5001,-246.346 67.5001,-246.346"/>
<text text-anchor="middle" x="82" y="-228.5" font-family="Helvetica,sans-Serif" font-size="10.00"> recv</text>
</g>
</g>
</svg>
