<?xml version="1.0" encoding="UTF-8" standalone="no"?>
<!DOCTYPE svg PUBLIC "-//W3C//DTD SVG 1.1//EN"
 "http://www.w3.org/Graphics/SVG/1.1/DTD/svg11.dtd">
<!-- Generated by graphviz version 2.26.3 (20100126.1600)
 -->
<!-- Title: grid::level::Blocked&lt; Type &gt; Pages: 1 -->
<svg width="510pt" height="94pt"
 viewBox="0.00 0.00 510.00 94.00" xmlns="http://www.w3.org/2000/svg" xmlns:xlink="http://www.w3.org/1999/xlink">
<g id="graph1" class="graph" transform="scale(1 1) rotate(0) translate(4 90)">
<title>grid::level::Blocked&lt; Type &gt;</title>
<polygon fill="white" stroke="white" points="-4,5 -4,-90 507,-90 507,5 -4,5"/>
<!-- Node1 -->
<g id="node1" class="node"><title>Node1</title>
<polygon fill="#bfbfbf" stroke="black" points="124,-26 124,-60 224,-60 224,-26 124,-26"/>
<text text-anchor="start" x="132" y="-47" font-family="Helvetica,sans-Serif" font-size="10.00">grid::level::Blocked</text>
<text text-anchor="middle" x="174" y="-34" font-family="Helvetica,sans-Serif" font-size="10.00">&lt; Type &gt;</text>
</g>
<!-- Node3 -->
<g id="node5" class="node"><title>Node3</title>
<a xlink:href="classgrid_1_1level_1_1Cache.xhtml" target="_top" xlink:title="grid::level::Cache\l\&lt; Type \&gt;">
<polygon fill="white" stroke="black" points="260.5,-52 260.5,-86 353.5,-86 353.5,-52 260.5,-52"/>
<text text-anchor="start" x="268.5" y="-73" font-family="Helvetica,sans-Serif" font-size="10.00">grid::level::Cache</text>
<text text-anchor="middle" x="307" y="-60" font-family="Helvetica,sans-Serif" font-size="10.00">&lt; Type &gt;</text>
</a>
</g>
<!-- Node1&#45;&gt;Node3 -->
<g id="edge4" class="edge"><title>Node1&#45;&gt;Node3</title>
<path fill="none" stroke="midnightblue" d="M234.348,-54.7974C243.008,-56.4904 251.809,-58.2108 260.156,-59.8425"/>
<polygon fill="midnightblue" stroke="midnightblue" points="234.767,-51.3132 224.282,-52.8295 233.424,-58.1831 234.767,-51.3132"/>
</g>
<!-- Node5 -->
<g id="node9" class="node"><title>Node5</title>
<a xlink:href="classgrid_1_1level_1_1Full.xhtml" target="_top" xlink:title="grid::level::Full\&lt;\l Type \&gt;">
<polygon fill="white" stroke="black" points="264,-0 264,-34 350,-34 350,-0 264,-0"/>
<text text-anchor="start" x="272" y="-21" font-family="Helvetica,sans-Serif" font-size="10.00">grid::level::Full&lt;</text>
<text text-anchor="middle" x="307" y="-8" font-family="Helvetica,sans-Serif" font-size="10.00"> Type &gt;</text>
</a>
</g>
<!-- Node1&#45;&gt;Node5 -->
<g id="edge8" class="edge"><title>Node1&#45;&gt;Node5</title>
<path fill="none" stroke="midnightblue" d="M234.122,-31.2468C244.06,-29.3041 254.189,-27.3239 263.612,-25.4819"/>
<polygon fill="midnightblue" stroke="midnightblue" points="233.424,-27.8169 224.282,-33.1705 234.767,-34.6868 233.424,-27.8169"/>
</g>
<!-- Node2 -->
<g id="node2" class="node"><title>Node2</title>
<a xlink:href="classgrid_1_1level_1_1Level.xhtml" target="_top" xlink:title="Base class for a grid level. ">
<polygon fill="white" stroke="black" points="0,-26 0,-60 88,-60 88,-26 0,-26"/>
<text text-anchor="start" x="8" y="-47" font-family="Helvetica,sans-Serif" font-size="10.00">grid::level::Level</text>
<text text-anchor="middle" x="44" y="-34" font-family="Helvetica,sans-Serif" font-size="10.00">&lt; Type &gt;</text>
</a>
</g>
<!-- Node2&#45;&gt;Node1 -->
<g id="edge2" class="edge"><title>Node2&#45;&gt;Node1</title>
<path fill="none" stroke="midnightblue" d="M98.1825,-43C106.656,-43 115.382,-43 123.762,-43"/>
<polygon fill="midnightblue" stroke="midnightblue" points="98.0121,-39.5001 88.0121,-43 98.012,-46.5001 98.0121,-39.5001"/>
</g>
<!-- Node4 -->
<g id="node7" class="node"><title>Node4</title>
<a xlink:href="classgrid_1_1level_1_1CacheDist.xhtml" target="_top" xlink:title="grid::level::CacheDist\l\&lt; Type, Allocator \&gt;">
<polygon fill="white" stroke="black" points="390.5,-52 390.5,-86 501.5,-86 501.5,-52 390.5,-52"/>
<text text-anchor="start" x="398.5" y="-73" font-family="Helvetica,sans-Serif" font-size="10.00">grid::level::CacheDist</text>
<text text-anchor="middle" x="446" y="-60" font-family="Helvetica,sans-Serif" font-size="10.00">&lt; Type, Allocator &gt;</text>
</a>
</g>
<!-- Node3&#45;&gt;Node4 -->
<g id="edge6" class="edge"><title>Node3&#45;&gt;Node4</title>
<path fill="none" stroke="midnightblue" d="M363.716,-69C372.409,-69 381.378,-69 390.055,-69"/>
<polygon fill="midnightblue" stroke="midnightblue" points="363.672,-65.5001 353.672,-69 363.672,-72.5001 363.672,-65.5001"/>
</g>
<!-- Node6 -->
<g id="node11" class="node"><title>Node6</title>
<a xlink:href="classgrid_1_1level_1_1FullDist.xhtml" target="_top" xlink:title="grid::level::FullDist\l\&lt; Type, Allocator \&gt;">
<polygon fill="white" stroke="black" points="395.5,-0 395.5,-34 496.5,-34 496.5,-0 395.5,-0"/>
<text text-anchor="start" x="403.5" y="-21" font-family="Helvetica,sans-Serif" font-size="10.00">grid::level::FullDist</text>
<text text-anchor="middle" x="446" y="-8" font-family="Helvetica,sans-Serif" font-size="10.00">&lt; Type, Allocator &gt;</text>
</a>
</g>
<!-- Node5&#45;&gt;Node6 -->
<g id="edge10" class="edge"><title>Node5&#45;&gt;Node6</title>
<path fill="none" stroke="midnightblue" d="M360.438,-17C371.791,-17 383.75,-17 395.009,-17"/>
<polygon fill="midnightblue" stroke="midnightblue" points="360.219,-13.5001 350.219,-17 360.218,-20.5001 360.219,-13.5001"/>
</g>
</g>
</svg>
