<?xml version="1.0" encoding="UTF-8" standalone="no"?>
<!DOCTYPE svg PUBLIC "-//W3C//DTD SVG 1.1//EN"
 "http://www.w3.org/Graphics/SVG/1.1/DTD/svg11.dtd">
<!-- Generated by graphviz version 2.26.3 (20100126.1600)
 -->
<!-- Title: transfer::MPIWinCache Pages: 1 -->
<svg width="512pt" height="382pt"
 viewBox="0.00 0.00 512.00 382.00" xmlns="http://www.w3.org/2000/svg" xmlns:xlink="http://www.w3.org/1999/xlink">
<g id="graph1" class="graph" transform="scale(1 1) rotate(0) translate(4 378)">
<title>transfer::MPIWinCache</title>
<polygon fill="white" stroke="white" points="-4,5 -4,-378 509,-378 509,5 -4,5"/>
<!-- Node1 -->
<g id="node1" class="node"><title>Node1</title>
<polygon fill="#bfbfbf" stroke="black" points="52.5,-0.5 52.5,-21.5 171.5,-21.5 171.5,-0.5 52.5,-0.5"/>
<text text-anchor="middle" x="112" y="-8.5" font-family="Helvetica,sans-Serif" font-size="10.00">transfer::MPIWinCache</text>
</g>
<!-- Node2 -->
<g id="node2" class="node"><title>Node2</title>
<a xlink:href="classtransfer_1_1MPICache.xhtml" target="_top" xlink:title="transfer::MPICache\l\&lt; allocator::MPIAlloc,\l true \&gt;">
<polygon fill="white" stroke="black" points="56.5,-72.5 56.5,-119.5 167.5,-119.5 167.5,-72.5 56.5,-72.5"/>
<text text-anchor="start" x="64.5" y="-106.5" font-family="Helvetica,sans-Serif" font-size="10.00">transfer::MPICache</text>
<text text-anchor="start" x="64.5" y="-93.5" font-family="Helvetica,sans-Serif" font-size="10.00">&lt; allocator::MPIAlloc,</text>
<text text-anchor="middle" x="112" y="-80.5" font-family="Helvetica,sans-Serif" font-size="10.00"> true &gt;</text>
</a>
</g>
<!-- Node2&#45;&gt;Node1 -->
<g id="edge2" class="edge"><title>Node2&#45;&gt;Node1</title>
<path fill="none" stroke="#8b1a1a" d="M112,-62.2079C112,-47.8439 112,-32.0932 112,-21.9057"/>
<polygon fill="#8b1a1a" stroke="#8b1a1a" points="108.5,-62.3227 112,-72.3228 115.5,-62.3228 108.5,-62.3227"/>
</g>
<!-- Node3 -->
<g id="node4" class="node"><title>Node3</title>
<a xlink:href="classmpi_1_1MPIComm.xhtml" target="_top" xlink:title="mpi::MPIComm">
<polygon fill="white" stroke="black" points="79,-182.5 79,-203.5 165,-203.5 165,-182.5 79,-182.5"/>
<text text-anchor="middle" x="122" y="-190.5" font-family="Helvetica,sans-Serif" font-size="10.00">mpi::MPIComm</text>
</a>
</g>
<!-- Node3&#45;&gt;Node2 -->
<g id="edge4" class="edge"><title>Node3&#45;&gt;Node2</title>
<path fill="none" stroke="#9a32cd" stroke-dasharray="5,2" d="M119.853,-172.171C118.265,-156.766 116.099,-135.763 114.445,-119.713"/>
<polygon fill="#9a32cd" stroke="#9a32cd" points="116.384,-172.66 120.892,-182.249 123.348,-171.942 116.384,-172.66"/>
<text text-anchor="middle" x="149" y="-148.5" font-family="Helvetica,sans-Serif" font-size="10.00"> m_mpiComm</text>
</g>
<!-- Node5 -->
<g id="node9" class="node"><title>Node5</title>
<a xlink:href="classmpi_1_1Mutex.xhtml" target="_top" xlink:title="mpi::Mutex">
<polygon fill="white" stroke="black" points="184.5,-85.5 184.5,-106.5 249.5,-106.5 249.5,-85.5 184.5,-85.5"/>
<text text-anchor="middle" x="217" y="-93.5" font-family="Helvetica,sans-Serif" font-size="10.00">mpi::Mutex</text>
</a>
</g>
<!-- Node3&#45;&gt;Node5 -->
<g id="edge12" class="edge"><title>Node3&#45;&gt;Node5</title>
<path fill="none" stroke="#9a32cd" stroke-dasharray="5,2" d="M164.276,-178.024C171.423,-174.211 178.347,-169.572 184,-164 200.634,-147.602 210.091,-121.132 214.309,-106.525"/>
<polygon fill="#9a32cd" stroke="#9a32cd" points="162.663,-174.917 155.183,-182.421 165.71,-181.219 162.663,-174.917"/>
<text text-anchor="middle" x="223" y="-148.5" font-family="Helvetica,sans-Serif" font-size="10.00"> m_comm</text>
</g>
<!-- Node4 -->
<g id="node6" class="node"><title>Node4</title>
<a xlink:href="classthreads_1_1PthreadMutex.xhtml" target="_top" xlink:title="threads::PthreadMutex">
<polygon fill="white" stroke="black" points="0,-254.5 0,-275.5 116,-275.5 116,-254.5 0,-254.5"/>
<text text-anchor="middle" x="58" y="-262.5" font-family="Helvetica,sans-Serif" font-size="10.00">threads::PthreadMutex</text>
</a>
</g>
<!-- Node4&#45;&gt;Node1 -->
<g id="edge8" class="edge"><title>Node4&#45;&gt;Node1</title>
<path fill="none" stroke="#9a32cd" stroke-dasharray="5,2" d="M48.1232,-245.146C36.9494,-220.33 21.0324,-176.437 27,-138 31.7226,-107.582 31.6821,-98.1014 48,-72 61.019,-51.1753 82.7643,-32.5533 97.2424,-21.5154"/>
<polygon fill="#9a32cd" stroke="#9a32cd" points="44.9816,-246.691 52.4019,-254.253 51.3172,-243.714 44.9816,-246.691"/>
<text text-anchor="middle" x="69.5" y="-155" font-family="Helvetica,sans-Serif" font-size="10.00"> m_dictWinMutex</text>
<text text-anchor="middle" x="69.5" y="-142" font-family="Helvetica,sans-Serif" font-size="10.00">m_cacheWinMutex</text>
</g>
<!-- Node4&#45;&gt;Node3 -->
<g id="edge6" class="edge"><title>Node4&#45;&gt;Node3</title>
<path fill="none" stroke="#9a32cd" stroke-dasharray="5,2" d="M74.3697,-246.584C86.4546,-232.989 102.482,-214.958 112.518,-203.667"/>
<polygon fill="#9a32cd" stroke="#9a32cd" points="71.4711,-244.577 67.4434,-254.376 76.703,-249.227 71.4711,-244.577"/>
<text text-anchor="middle" x="115" y="-226.5" font-family="Helvetica,sans-Serif" font-size="10.00"> mpiLock</text>
</g>
<!-- Node5&#45;&gt;Node1 -->
<g id="edge10" class="edge"><title>Node5&#45;&gt;Node1</title>
<path fill="none" stroke="#9a32cd" stroke-dasharray="5,2" d="M195.918,-78.9338C174.804,-61.841 142.964,-36.066 125.19,-21.6779"/>
<polygon fill="#9a32cd" stroke="#9a32cd" points="193.727,-81.663 203.702,-85.2347 198.131,-76.2223 193.727,-81.663"/>
<text text-anchor="middle" x="194" y="-44.5" font-family="Helvetica,sans-Serif" font-size="10.00"> m_mpiMutex</text>
</g>
<!-- Node6 -->
<g id="node12" class="node"><title>Node6</title>
<a xlink:href="classnuma_1_1NumaComm.xhtml" target="_top" xlink:title="numa::NumaComm">
<polygon fill="white" stroke="black" points="223,-182.5 223,-203.5 325,-203.5 325,-182.5 223,-182.5"/>
<text text-anchor="middle" x="274" y="-190.5" font-family="Helvetica,sans-Serif" font-size="10.00">numa::NumaComm</text>
</a>
</g>
<!-- Node6&#45;&gt;Node5 -->
<g id="edge14" class="edge"><title>Node6&#45;&gt;Node5</title>
<path fill="none" stroke="#9a32cd" stroke-dasharray="5,2" d="M267.601,-172.687C263.81,-161.986 258.478,-148.865 252,-138 245.098,-126.423 235.084,-114.767 227.534,-106.681"/>
<polygon fill="#9a32cd" stroke="#9a32cd" points="264.364,-174.042 270.865,-182.409 271,-171.815 264.364,-174.042"/>
<text text-anchor="middle" x="283.5" y="-148.5" font-family="Helvetica,sans-Serif" font-size="10.00"> m_numa</text>
</g>
<!-- Node7 -->
<g id="node14" class="node"><title>Node7</title>
<a xlink:href="classthreads_1_1Sync.xhtml" target="_top" xlink:title="Synchronizes a set of threads. ">
<polygon fill="white" stroke="black" points="161.5,-345.5 161.5,-366.5 238.5,-366.5 238.5,-345.5 161.5,-345.5"/>
<text text-anchor="middle" x="200" y="-353.5" font-family="Helvetica,sans-Serif" font-size="10.00">threads::Sync</text>
</a>
</g>
<!-- Node7&#45;&gt;Node6 -->
<g id="edge16" class="edge"><title>Node7&#45;&gt;Node6</title>
<path fill="none" stroke="#9a32cd" stroke-dasharray="5,2" d="M201.047,-335.174C202.063,-322.98 204.063,-307.393 208,-294 218.869,-257.023 248.21,-221.023 263.854,-203.699"/>
<polygon fill="#9a32cd" stroke="#9a32cd" points="197.548,-335.046 200.363,-345.259 204.532,-335.519 197.548,-335.046"/>
<text text-anchor="middle" x="245" y="-262.5" font-family="Helvetica,sans-Serif" font-size="10.00"> m_sync</text>
</g>
<!-- Node8 -->
<g id="node16" class="node"><title>Node8</title>
<a xlink:href="classnuma_1_1Numa.xhtml" target="_top" xlink:title="numa::Numa">
<polygon fill="white" stroke="black" points="273.5,-254.5 273.5,-275.5 346.5,-275.5 346.5,-254.5 273.5,-254.5"/>
<text text-anchor="middle" x="310" y="-262.5" font-family="Helvetica,sans-Serif" font-size="10.00">numa::Numa</text>
</a>
</g>
<!-- Node7&#45;&gt;Node8 -->
<g id="edge20" class="edge"><title>Node7&#45;&gt;Node8</title>
<path fill="none" stroke="#9a32cd" stroke-dasharray="5,2" d="M205.869,-335.474C210.66,-322.046 218.682,-305.012 231,-294 242.764,-283.484 258.662,-276.679 273.113,-272.326"/>
<polygon fill="#9a32cd" stroke="#9a32cd" points="202.443,-334.695 202.699,-345.287 209.104,-336.847 202.443,-334.695"/>
<text text-anchor="middle" x="269.5" y="-311" font-family="Helvetica,sans-Serif" font-size="10.00"> m_syncDomains</text>
<text text-anchor="middle" x="269.5" y="-298" font-family="Helvetica,sans-Serif" font-size="10.00">m_syncThreads</text>
</g>
<!-- Node8&#45;&gt;Node6 -->
<g id="edge18" class="edge"><title>Node8&#45;&gt;Node6</title>
<path fill="none" stroke="#9a32cd" stroke-dasharray="5,2" d="M300.21,-245.419C293.487,-231.973 284.819,-214.638 279.334,-203.667"/>
<polygon fill="#9a32cd" stroke="#9a32cd" points="297.085,-246.997 304.688,-254.376 303.346,-243.867 297.085,-246.997"/>
<text text-anchor="middle" x="315.5" y="-226.5" font-family="Helvetica,sans-Serif" font-size="10.00"> m_numa</text>
</g>
<!-- Node9 -->
<g id="node19" class="node"><title>Node9</title>
<polygon fill="white" stroke="#bfbfbf" points="269.5,-345.5 269.5,-366.5 368.5,-366.5 368.5,-345.5 269.5,-345.5"/>
<text text-anchor="middle" x="319" y="-353.5" font-family="Helvetica,sans-Serif" font-size="10.00">std::vector&lt; bool &gt;</text>
</g>
<!-- Node9&#45;&gt;Node8 -->
<g id="edge22" class="edge"><title>Node9&#45;&gt;Node8</title>
<path fill="none" stroke="#9a32cd" stroke-dasharray="5,2" d="M316.928,-335.049C315.087,-316.433 312.472,-289.991 311.039,-275.501"/>
<polygon fill="#9a32cd" stroke="#9a32cd" points="313.465,-335.597 317.932,-345.204 320.431,-334.908 313.465,-335.597"/>
<text text-anchor="middle" x="356" y="-304.5" font-family="Helvetica,sans-Serif" font-size="10.00"> m_masterThreads</text>
</g>
<!-- Node10 -->
<g id="node21" class="node"><title>Node10</title>
<polygon fill="white" stroke="#bfbfbf" points="385.5,-339 385.5,-373 504.5,-373 504.5,-339 385.5,-339"/>
<text text-anchor="start" x="393.5" y="-360" font-family="Helvetica,sans-Serif" font-size="10.00">std::map&lt; int, unsigned</text>
<text text-anchor="middle" x="445" y="-347" font-family="Helvetica,sans-Serif" font-size="10.00"> int &gt;</text>
</g>
<!-- Node10&#45;&gt;Node8 -->
<g id="edge24" class="edge"><title>Node10&#45;&gt;Node8</title>
<path fill="none" stroke="#9a32cd" stroke-dasharray="5,2" d="M431.68,-329.864C424.174,-317.441 413.738,-303.308 401,-294 385.068,-282.358 364.285,-275.273 346.603,-271.024"/>
<polygon fill="#9a32cd" stroke="#9a32cd" points="428.848,-331.964 436.838,-338.922 434.931,-328.5 428.848,-331.964"/>
<text text-anchor="middle" x="451" y="-304.5" font-family="Helvetica,sans-Serif" font-size="10.00"> m_domains</text>
</g>
</g>
</svg>
