<?xml version="1.0" encoding="UTF-8" standalone="no"?>
<!DOCTYPE svg PUBLIC "-//W3C//DTD SVG 1.1//EN"
 "http://www.w3.org/Graphics/SVG/1.1/DTD/svg11.dtd">
<!-- Generated by graphviz version 2.26.3 (20100126.1600)
 -->
<!-- Title: transfer::MPIThreadCache::Adder Pages: 1 -->
<svg width="1104pt" height="428pt"
 viewBox="0.00 0.00 1104.00 428.00" xmlns="http://www.w3.org/2000/svg" xmlns:xlink="http://www.w3.org/1999/xlink">
<g id="graph1" class="graph" transform="scale(1 1) rotate(0) translate(4 424)">
<title>transfer::MPIThreadCache::Adder</title>
<polygon fill="white" stroke="white" points="-4,5 -4,-424 1101,-424 1101,5 -4,5"/>
<!-- Node1 -->
<g id="node1" class="node"><title>Node1</title>
<polygon fill="#bfbfbf" stroke="black" points="442,-270 442,-304 574,-304 574,-270 442,-270"/>
<text text-anchor="start" x="450" y="-291" font-family="Helvetica,sans-Serif" font-size="10.00">transfer::MPIThreadCache</text>
<text text-anchor="middle" x="508" y="-278" font-family="Helvetica,sans-Serif" font-size="10.00">::Adder</text>
</g>
<!-- Node3 -->
<g id="node4" class="node"><title>Node3</title>
<a xlink:href="classtransfer_1_1MPIThreadCache.xhtml" target="_top" xlink:title="transfer::MPIThreadCache">
<polygon fill="white" stroke="black" points="692,-240.5 692,-261.5 824,-261.5 824,-240.5 692,-240.5"/>
<text text-anchor="middle" x="758" y="-248.5" font-family="Helvetica,sans-Serif" font-size="10.00">transfer::MPIThreadCache</text>
</a>
</g>
<!-- Node1&#45;&gt;Node3 -->
<g id="edge24" class="edge"><title>Node1&#45;&gt;Node3</title>
<path fill="none" stroke="#9a32cd" stroke-dasharray="5,2" d="M584.493,-277.405C612.66,-273.729 644.808,-269.366 674,-265 681.165,-263.928 688.664,-262.754 696.108,-261.556"/>
<polygon fill="#9a32cd" stroke="#9a32cd" points="583.775,-273.969 574.309,-278.727 584.676,-280.911 583.775,-273.969"/>
<text text-anchor="middle" x="633" y="-280" font-family="Helvetica,sans-Serif" font-size="10.00"> m_adder</text>
</g>
<!-- Node2 -->
<g id="node2" class="node"><title>Node2</title>
<a xlink:href="classmpi_1_1Receiver.xhtml" target="_top" xlink:title="mpi::Receiver">
<polygon fill="white" stroke="black" points="252.5,-305.5 252.5,-326.5 329.5,-326.5 329.5,-305.5 252.5,-305.5"/>
<text text-anchor="middle" x="291" y="-313.5" font-family="Helvetica,sans-Serif" font-size="10.00">mpi::Receiver</text>
</a>
</g>
<!-- Node2&#45;&gt;Node1 -->
<g id="edge2" class="edge"><title>Node2&#45;&gt;Node1</title>
<path fill="none" stroke="midnightblue" d="M340.048,-309.445C370.146,-305.423 409.074,-300.221 441.873,-295.837"/>
<polygon fill="midnightblue" stroke="midnightblue" points="339.243,-306.022 329.795,-310.815 340.171,-312.96 339.243,-306.022"/>
</g>
<!-- Node11 -->
<g id="node23" class="node"><title>Node11</title>
<a xlink:href="classtransfer_1_1MPIThreadCache_1_1BlockTransferer.xhtml" target="_top" xlink:title="transfer::MPIThreadCache\l::BlockTransferer">
<polygon fill="white" stroke="black" points="964,-289 964,-323 1096,-323 1096,-289 964,-289"/>
<text text-anchor="start" x="972" y="-310" font-family="Helvetica,sans-Serif" font-size="10.00">transfer::MPIThreadCache</text>
<text text-anchor="middle" x="1030" y="-297" font-family="Helvetica,sans-Serif" font-size="10.00">::BlockTransferer</text>
</a>
</g>
<!-- Node2&#45;&gt;Node11 -->
<g id="edge28" class="edge"><title>Node2&#45;&gt;Node11</title>
<path fill="none" stroke="midnightblue" d="M340.037,-316.119C436.279,-316.345 656.671,-316.832 842,-317 888.222,-317.042 899.876,-320.007 946,-317 951.724,-316.627 957.653,-316.112 963.593,-315.507"/>
<polygon fill="midnightblue" stroke="midnightblue" points="339.754,-312.618 329.746,-316.094 339.737,-319.618 339.754,-312.618"/>
</g>
<!-- Node12 -->
<g id="node27" class="node"><title>Node12</title>
<a xlink:href="classtransfer_1_1MPIThreadCache_1_1BlockInfoResponder.xhtml" target="_top" xlink:title="transfer::MPIThreadCache\l::BlockInfoResponder">
<polygon fill="white" stroke="black" points="964,-181 964,-215 1096,-215 1096,-181 964,-181"/>
<text text-anchor="start" x="972" y="-202" font-family="Helvetica,sans-Serif" font-size="10.00">transfer::MPIThreadCache</text>
<text text-anchor="middle" x="1030" y="-189" font-family="Helvetica,sans-Serif" font-size="10.00">::BlockInfoResponder</text>
</a>
</g>
<!-- Node2&#45;&gt;Node12 -->
<g id="edge34" class="edge"><title>Node2&#45;&gt;Node12</title>
<path fill="none" stroke="midnightblue" d="M325.52,-301.641C355.799,-289.479 401.235,-272.271 442,-261 616.495,-212.756 661.776,-201.189 842,-184 888.013,-179.611 899.935,-180.188 946,-184 951.746,-184.476 957.691,-185.131 963.641,-185.901"/>
<polygon fill="midnightblue" stroke="midnightblue" points="324.2,-298.4 316.246,-305.399 326.829,-304.887 324.2,-298.4"/>
</g>
<!-- Node13 -->
<g id="node31" class="node"><title>Node13</title>
<a xlink:href="classtransfer_1_1MPIThreadCache_1_1Deleter.xhtml" target="_top" xlink:title="transfer::MPIThreadCache\l::Deleter">
<polygon fill="white" stroke="black" points="964,-386 964,-420 1096,-420 1096,-386 964,-386"/>
<text text-anchor="start" x="972" y="-407" font-family="Helvetica,sans-Serif" font-size="10.00">transfer::MPIThreadCache</text>
<text text-anchor="middle" x="1030" y="-394" font-family="Helvetica,sans-Serif" font-size="10.00">::Deleter</text>
</a>
</g>
<!-- Node2&#45;&gt;Node13 -->
<g id="edge40" class="edge"><title>Node2&#45;&gt;Node13</title>
<path fill="none" stroke="midnightblue" d="M339.695,-327.961C435.259,-350.737 654.409,-399.53 842,-416 888.045,-420.043 899.914,-419.545 946,-416 951.738,-415.559 957.678,-414.95 963.624,-414.235"/>
<polygon fill="midnightblue" stroke="midnightblue" points="340.288,-324.504 329.748,-325.578 338.657,-331.312 340.288,-324.504"/>
</g>
<!-- Node3&#45;&gt;Node1 -->
<g id="edge4" class="edge"><title>Node3&#45;&gt;Node1</title>
<path fill="none" stroke="#9a32cd" stroke-dasharray="5,2" d="M681.685,-245.303C653.279,-244.79 620.927,-246.124 592,-252 574.35,-255.585 555.762,-262.918 540.572,-269.95"/>
<polygon fill="#9a32cd" stroke="#9a32cd" points="681.87,-248.809 691.958,-245.571 682.053,-241.812 681.87,-248.809"/>
<text text-anchor="middle" x="633" y="-256" font-family="Helvetica,sans-Serif" font-size="10.00"> m_parent</text>
</g>
<!-- Node3&#45;&gt;Node11 -->
<g id="edge30" class="edge"><title>Node3&#45;&gt;Node11</title>
<path fill="none" stroke="#9a32cd" stroke-dasharray="5,2" d="M834.258,-251.464C868.849,-253.203 909.983,-257.427 946,-267 964.647,-271.956 984.269,-280.835 999.855,-288.871"/>
<polygon fill="#9a32cd" stroke="#9a32cd" points="834.363,-247.965 824.217,-251.019 834.053,-254.958 834.363,-247.965"/>
<text text-anchor="middle" x="894" y="-271" font-family="Helvetica,sans-Serif" font-size="10.00"> m_parent</text>
</g>
<!-- Node3&#45;&gt;Node12 -->
<g id="edge36" class="edge"><title>Node3&#45;&gt;Node12</title>
<path fill="none" stroke="#9a32cd" stroke-dasharray="5,2" d="M822.039,-238.522C864.63,-230.223 920.446,-219.347 963.529,-210.952"/>
<polygon fill="#9a32cd" stroke="#9a32cd" points="821.21,-235.118 812.064,-240.466 822.548,-241.988 821.21,-235.118"/>
<text text-anchor="middle" x="894" y="-237" font-family="Helvetica,sans-Serif" font-size="10.00"> m_parent</text>
</g>
<!-- Node3&#45;&gt;Node13 -->
<g id="edge42" class="edge"><title>Node3&#45;&gt;Node13</title>
<path fill="none" stroke="#9a32cd" stroke-dasharray="5,2" d="M764.81,-271.417C775.872,-301.075 800.757,-355.325 842,-381 861.877,-393.374 917.877,-398.789 963.626,-401.158"/>
<polygon fill="#9a32cd" stroke="#9a32cd" points="768.004,-269.952 761.356,-261.702 761.408,-272.297 768.004,-269.952"/>
<text text-anchor="middle" x="894" y="-403" font-family="Helvetica,sans-Serif" font-size="10.00"> m_parent</text>
</g>
<!-- Node4 -->
<g id="node6" class="node"><title>Node4</title>
<a xlink:href="classtransfer_1_1MPICache.xhtml" target="_top" xlink:title="transfer::MPICache\l\&lt; allocator::Default,\l false \&gt;">
<polygon fill="white" stroke="black" points="456.5,-103.5 456.5,-150.5 559.5,-150.5 559.5,-103.5 456.5,-103.5"/>
<text text-anchor="start" x="464.5" y="-137.5" font-family="Helvetica,sans-Serif" font-size="10.00">transfer::MPICache</text>
<text text-anchor="start" x="464.5" y="-124.5" font-family="Helvetica,sans-Serif" font-size="10.00">&lt; allocator::Default,</text>
<text text-anchor="middle" x="508" y="-111.5" font-family="Helvetica,sans-Serif" font-size="10.00"> false &gt;</text>
</a>
</g>
<!-- Node4&#45;&gt;Node3 -->
<g id="edge6" class="edge"><title>Node4&#45;&gt;Node3</title>
<path fill="none" stroke="#8b1a1a" d="M568.75,-154.452C600.362,-169.012 639.507,-187.473 674,-205 696.827,-216.599 722.588,-230.89 739.493,-240.436"/>
<polygon fill="#8b1a1a" stroke="#8b1a1a" points="570.169,-151.253 559.621,-150.259 567.247,-157.614 570.169,-151.253"/>
</g>
<!-- Node5 -->
<g id="node8" class="node"><title>Node5</title>
<a xlink:href="classmpi_1_1MPIComm.xhtml" target="_top" xlink:title="mpi::MPIComm">
<polygon fill="white" stroke="black" points="248,-132.5 248,-153.5 334,-153.5 334,-132.5 248,-132.5"/>
<text text-anchor="middle" x="291" y="-140.5" font-family="Helvetica,sans-Serif" font-size="10.00">mpi::MPIComm</text>
</a>
</g>
<!-- Node5&#45;&gt;Node4 -->
<g id="edge8" class="edge"><title>Node5&#45;&gt;Node4</title>
<path fill="none" stroke="#9a32cd" stroke-dasharray="5,2" d="M344.366,-139.065C378.436,-136.553 422.384,-133.313 456.155,-130.823"/>
<polygon fill="#9a32cd" stroke="#9a32cd" points="343.847,-135.594 334.132,-139.82 344.362,-142.575 343.847,-135.594"/>
<text text-anchor="middle" x="390" y="-141" font-family="Helvetica,sans-Serif" font-size="10.00"> m_mpiComm</text>
</g>
<!-- Node6 -->
<g id="node10" class="node"><title>Node6</title>
<a xlink:href="classthreads_1_1PthreadMutex.xhtml" target="_top" xlink:title="threads::PthreadMutex">
<polygon fill="white" stroke="black" points="8,-132.5 8,-153.5 124,-153.5 124,-132.5 8,-132.5"/>
<text text-anchor="middle" x="66" y="-140.5" font-family="Helvetica,sans-Serif" font-size="10.00">threads::PthreadMutex</text>
</a>
</g>
<!-- Node6&#45;&gt;Node3 -->
<g id="edge22" class="edge"><title>Node6&#45;&gt;Node3</title>
<path fill="none" stroke="#9a32cd" stroke-dasharray="5,2" d="M126.16,-155.562C134.164,-157.12 142.272,-158.641 150,-160 346.307,-194.532 579.758,-227.109 691.693,-242.206"/>
<polygon fill="#9a32cd" stroke="#9a32cd" points="126.602,-152.082 116.113,-153.578 125.245,-158.949 126.602,-152.082"/>
<text text-anchor="middle" x="390" y="-233" font-family="Helvetica,sans-Serif" font-size="10.00"> m_blockMutex</text>
<text text-anchor="middle" x="390" y="-220" font-family="Helvetica,sans-Serif" font-size="10.00">m_mutexes</text>
<text text-anchor="middle" x="390" y="-207" font-family="Helvetica,sans-Serif" font-size="10.00">m_infoMutex</text>
</g>
<!-- Node6&#45;&gt;Node5 -->
<g id="edge10" class="edge"><title>Node6&#45;&gt;Node5</title>
<path fill="none" stroke="#9a32cd" stroke-dasharray="5,2" d="M134.438,-143C171.378,-143 215.846,-143 247.935,-143"/>
<polygon fill="#9a32cd" stroke="#9a32cd" points="134.236,-139.5 124.236,-143 134.236,-146.5 134.236,-139.5"/>
<text text-anchor="middle" x="188" y="-147" font-family="Helvetica,sans-Serif" font-size="10.00"> mpiLock</text>
</g>
<!-- Node7 -->
<g id="node12" class="node"><title>Node7</title>
<a xlink:href="classcache_1_1CacheManager.xhtml" target="_top" xlink:title="Manages a block cache. ">
<polygon fill="white" stroke="black" points="450.5,-63.5 450.5,-84.5 565.5,-84.5 565.5,-63.5 450.5,-63.5"/>
<text text-anchor="middle" x="508" y="-71.5" font-family="Helvetica,sans-Serif" font-size="10.00">cache::CacheManager</text>
</a>
</g>
<!-- Node6&#45;&gt;Node7 -->
<g id="edge14" class="edge"><title>Node6&#45;&gt;Node7</title>
<path fill="none" stroke="#9a32cd" stroke-dasharray="5,2" d="M129.474,-130.471C163.39,-123.969 205.895,-116.127 244,-110 314.904,-98.5997 396.902,-87.7868 450.462,-81.0416"/>
<polygon fill="#9a32cd" stroke="#9a32cd" points="128.396,-127.114 119.239,-132.442 129.72,-133.988 128.396,-127.114"/>
<text text-anchor="middle" x="291" y="-114" font-family="Helvetica,sans-Serif" font-size="10.00"> m_blockMutexes</text>
</g>
<!-- Node7&#45;&gt;Node3 -->
<g id="edge12" class="edge"><title>Node7&#45;&gt;Node3</title>
<path fill="none" stroke="#9a32cd" stroke-dasharray="5,2" d="M556.113,-87.707C591.471,-99.513 639.214,-119.237 674,-148 708.143,-176.231 738.322,-220.053 751.277,-240.2"/>
<polygon fill="#9a32cd" stroke="#9a32cd" points="557.082,-84.3418 546.49,-84.5861 554.923,-91.0004 557.082,-84.3418"/>
<text text-anchor="middle" x="633" y="-152" font-family="Helvetica,sans-Serif" font-size="10.00"> m_cacheManager</text>
</g>
<!-- Node8 -->
<g id="node15" class="node"><title>Node8</title>
<a xlink:href="classcache_1_1CacheList.xhtml" target="_top" xlink:title="Controls a list of blocks. ">
<polygon fill="white" stroke="black" points="244.5,-43.5 244.5,-64.5 337.5,-64.5 337.5,-43.5 244.5,-43.5"/>
<text text-anchor="middle" x="291" y="-51.5" font-family="Helvetica,sans-Serif" font-size="10.00">cache::CacheList</text>
</a>
</g>
<!-- Node8&#45;&gt;Node7 -->
<g id="edge16" class="edge"><title>Node8&#45;&gt;Node7</title>
<path fill="none" stroke="#9a32cd" stroke-dasharray="5,2" d="M347.53,-59.2101C379.157,-62.1251 418.497,-65.7509 450.31,-68.6829"/>
<polygon fill="#9a32cd" stroke="#9a32cd" points="347.831,-55.7231 337.552,-58.2905 347.188,-62.6936 347.831,-55.7231"/>
<text text-anchor="middle" x="390" y="-69" font-family="Helvetica,sans-Serif" font-size="10.00"> m_cacheList</text>
</g>
<!-- Node9 -->
<g id="node17" class="node"><title>Node9</title>
<a xlink:href="classcache_1_1LRU.xhtml" target="_top" xlink:title="cache::LRU">
<polygon fill="white" stroke="black" points="31.5,-0.5 31.5,-21.5 100.5,-21.5 100.5,-0.5 31.5,-0.5"/>
<text text-anchor="middle" x="66" y="-8.5" font-family="Helvetica,sans-Serif" font-size="10.00">cache::LRU</text>
</a>
</g>
<!-- Node9&#45;&gt;Node8 -->
<g id="edge18" class="edge"><title>Node9&#45;&gt;Node8</title>
<path fill="none" stroke="#9a32cd" stroke-dasharray="5,2" d="M110.733,-18.1694C142.884,-23.4828 187.22,-31.1381 226,-39 232.697,-40.3577 239.759,-41.8862 246.663,-43.4349"/>
<polygon fill="#9a32cd" stroke="#9a32cd" points="111.18,-14.696 100.745,-16.5293 110.046,-21.6035 111.18,-14.696"/>
<text text-anchor="middle" x="188" y="-43" font-family="Helvetica,sans-Serif" font-size="10.00"> m_lru</text>
</g>
<!-- Node10 -->
<g id="node19" class="node"><title>Node10</title>
<polygon fill="white" stroke="#bfbfbf" points="0.5,-40.5 0.5,-87.5 131.5,-87.5 131.5,-40.5 0.5,-40.5"/>
<text text-anchor="start" x="8.5" y="-74.5" font-family="Helvetica,sans-Serif" font-size="10.00">std::unordered_map</text>
<text text-anchor="start" x="8.5" y="-61.5" font-family="Helvetica,sans-Serif" font-size="10.00">&lt; unsigned long, unsigned</text>
<text text-anchor="middle" x="66" y="-48.5" font-family="Helvetica,sans-Serif" font-size="10.00"> long &gt;</text>
</g>
<!-- Node10&#45;&gt;Node8 -->
<g id="edge20" class="edge"><title>Node10&#45;&gt;Node8</title>
<path fill="none" stroke="#9a32cd" stroke-dasharray="5,2" d="M142.016,-60.6215C175.87,-59.1169 214.667,-57.3926 244.181,-56.0808"/>
<polygon fill="#9a32cd" stroke="#9a32cd" points="141.519,-57.1401 131.684,-61.0807 141.83,-64.1332 141.519,-57.1401"/>
<text text-anchor="middle" x="188" y="-64" font-family="Helvetica,sans-Serif" font-size="10.00"> m_blockToIndex</text>
</g>
<!-- Node11&#45;&gt;Node3 -->
<g id="edge26" class="edge"><title>Node11&#45;&gt;Node3</title>
<path fill="none" stroke="#9a32cd" stroke-dasharray="5,2" d="M953.973,-301.585C919.429,-298.438 878.266,-293.083 842,-284 820.418,-278.594 796.933,-269.032 780.297,-261.588"/>
<polygon fill="#9a32cd" stroke="#9a32cd" points="953.733,-305.077 963.998,-302.453 954.337,-298.103 953.733,-305.077"/>
<text text-anchor="middle" x="894" y="-304" font-family="Helvetica,sans-Serif" font-size="10.00"> m_blockTransferer</text>
</g>
<!-- Node12&#45;&gt;Node3 -->
<g id="edge32" class="edge"><title>Node12&#45;&gt;Node3</title>
<path fill="none" stroke="#9a32cd" stroke-dasharray="5,2" d="M953.854,-189.106C919.116,-187.396 877.832,-188.704 842,-199 813.812,-207.1 785.802,-227.58 770.309,-240.288"/>
<polygon fill="#9a32cd" stroke="#9a32cd" points="953.751,-192.606 963.938,-189.695 954.159,-185.618 953.751,-192.606"/>
<text text-anchor="middle" x="894" y="-203" font-family="Helvetica,sans-Serif" font-size="10.00"> m_blockInfoResponder</text>
</g>
<!-- Node13&#45;&gt;Node3 -->
<g id="edge38" class="edge"><title>Node13&#45;&gt;Node3</title>
<path fill="none" stroke="#9a32cd" stroke-dasharray="5,2" d="M980.426,-381.908C933.414,-361.621 866.441,-331.901 842,-317 814.288,-300.105 785.21,-275.467 769.584,-261.567"/>
<polygon fill="#9a32cd" stroke="#9a32cd" points="979.269,-385.221 989.838,-385.959 982.037,-378.791 979.269,-385.221"/>
<text text-anchor="middle" x="894" y="-370" font-family="Helvetica,sans-Serif" font-size="10.00"> m_deleter</text>
</g>
</g>
</svg>
