<?xml version="1.0" encoding="UTF-8" standalone="no"?>
<!DOCTYPE svg PUBLIC "-//W3C//DTD SVG 1.1//EN"
 "http://www.w3.org/Graphics/SVG/1.1/DTD/svg11.dtd">
<!-- Generated by graphviz version 2.26.3 (20100126.1600)
 -->
<!-- Title: grid::level::CacheDist&lt; MPITrans, NumaTrans, Type, Allocator &gt; Pages: 1 -->
<svg width="136pt" height="272pt"
 viewBox="0.00 0.00 136.00 272.00" xmlns="http://www.w3.org/2000/svg" xmlns:xlink="http://www.w3.org/1999/xlink">
<g id="graph1" class="graph" transform="scale(1 1) rotate(0) translate(4 268)">
<title>grid::level::CacheDist&lt; MPITrans, NumaTrans, Type, Allocator &gt;</title>
<polygon fill="white" stroke="white" points="-4,5 -4,-268 133,-268 133,5 -4,5"/>
<!-- Node1 -->
<g id="node1" class="node"><title>Node1</title>
<polygon fill="#bfbfbf" stroke="black" points="0,-0.5 0,-47.5 128,-47.5 128,-0.5 0,-0.5"/>
<text text-anchor="start" x="8" y="-34.5" font-family="Helvetica,sans-Serif" font-size="10.00">grid::level::CacheDist</text>
<text text-anchor="start" x="8" y="-21.5" font-family="Helvetica,sans-Serif" font-size="10.00">&lt; MPITrans, NumaTrans,</text>
<text text-anchor="middle" x="64" y="-8.5" font-family="Helvetica,sans-Serif" font-size="10.00"> Type, Allocator &gt;</text>
</g>
<!-- Node2 -->
<g id="node2" class="node"><title>Node2</title>
<a xlink:href="classgrid_1_1level_1_1Cache.xhtml" target="_top" xlink:title="grid::level::Cache\l\&lt; Type, Allocator \&gt;">
<polygon fill="white" stroke="black" points="13.5,-85 13.5,-119 114.5,-119 114.5,-85 13.5,-85"/>
<text text-anchor="start" x="21.5" y="-106" font-family="Helvetica,sans-Serif" font-size="10.00">grid::level::Cache</text>
<text text-anchor="middle" x="64" y="-93" font-family="Helvetica,sans-Serif" font-size="10.00">&lt; Type, Allocator &gt;</text>
</a>
</g>
<!-- Node2&#45;&gt;Node1 -->
<g id="edge2" class="edge"><title>Node2&#45;&gt;Node1</title>
<path fill="none" stroke="midnightblue" d="M64,-74.5793C64,-65.8339 64,-56.2342 64,-47.77"/>
<polygon fill="midnightblue" stroke="midnightblue" points="60.5001,-74.6892 64,-84.6893 67.5001,-74.6893 60.5001,-74.6892"/>
</g>
<!-- Node3 -->
<g id="node4" class="node"><title>Node3</title>
<a xlink:href="classgrid_1_1level_1_1Blocked.xhtml" target="_top" xlink:title="Base class for all grid levels that work on blocks. ">
<polygon fill="white" stroke="black" points="14,-157 14,-191 114,-191 114,-157 14,-157"/>
<text text-anchor="start" x="22" y="-178" font-family="Helvetica,sans-Serif" font-size="10.00">grid::level::Blocked</text>
<text text-anchor="middle" x="64" y="-165" font-family="Helvetica,sans-Serif" font-size="10.00">&lt; Type &gt;</text>
</a>
</g>
<!-- Node3&#45;&gt;Node2 -->
<g id="edge4" class="edge"><title>Node3&#45;&gt;Node2</title>
<path fill="none" stroke="midnightblue" d="M64,-146.719C64,-137.572 64,-127.625 64,-119.441"/>
<polygon fill="midnightblue" stroke="midnightblue" points="60.5001,-146.937 64,-156.937 67.5001,-146.937 60.5001,-146.937"/>
</g>
<!-- Node4 -->
<g id="node6" class="node"><title>Node4</title>
<a xlink:href="classgrid_1_1level_1_1Level.xhtml" target="_top" xlink:title="Base class for a grid level. ">
<polygon fill="white" stroke="black" points="20,-229 20,-263 108,-263 108,-229 20,-229"/>
<text text-anchor="start" x="28" y="-250" font-family="Helvetica,sans-Serif" font-size="10.00">grid::level::Level</text>
<text text-anchor="middle" x="64" y="-237" font-family="Helvetica,sans-Serif" font-size="10.00">&lt; Type &gt;</text>
</a>
</g>
<!-- Node4&#45;&gt;Node3 -->
<g id="edge6" class="edge"><title>Node4&#45;&gt;Node3</title>
<path fill="none" stroke="midnightblue" d="M64,-218.719C64,-209.572 64,-199.625 64,-191.441"/>
<polygon fill="midnightblue" stroke="midnightblue" points="60.5001,-218.937 64,-228.937 67.5001,-218.937 60.5001,-218.937"/>
</g>
</g>
</svg>
