<?xml version="1.0" encoding="UTF-8" standalone="no"?>
<!DOCTYPE svg PUBLIC "-//W3C//DTD SVG 1.1//EN"
 "http://www.w3.org/Graphics/SVG/1.1/DTD/svg11.dtd">
<!-- Generated by graphviz version 2.26.3 (20100126.1600)
 -->
<!-- Title: transfer::MPIThreadCache Pages: 1 -->
<svg width="1088pt" height="353pt"
 viewBox="0.00 0.00 1088.00 352.68" xmlns="http://www.w3.org/2000/svg" xmlns:xlink="http://www.w3.org/1999/xlink">
<g id="graph1" class="graph" transform="scale(1 1) rotate(0) translate(4 348.683)">
<title>transfer::MPIThreadCache</title>
<polygon fill="white" stroke="white" points="-4,5 -4,-348.683 1085,-348.683 1085,5 -4,5"/>
<!-- Node1 -->
<g id="node1" class="node"><title>Node1</title>
<polygon fill="#bfbfbf" stroke="black" points="676,-196.183 676,-217.183 808,-217.183 808,-196.183 676,-196.183"/>
<text text-anchor="middle" x="742" y="-204.183" font-family="Helvetica,sans-Serif" font-size="10.00">transfer::MPIThreadCache</text>
</g>
<!-- Node9 -->
<g id="node18" class="node"><title>Node9</title>
<a xlink:href="classtransfer_1_1MPIThreadCache_1_1Adder.xhtml" target="_top" xlink:title="transfer::MPIThreadCache\l::Adder">
<polygon fill="white" stroke="black" points="948,-110.683 948,-144.683 1080,-144.683 1080,-110.683 948,-110.683"/>
<text text-anchor="start" x="956" y="-131.683" font-family="Helvetica,sans-Serif" font-size="10.00">transfer::MPIThreadCache</text>
<text text-anchor="middle" x="1014" y="-118.683" font-family="Helvetica,sans-Serif" font-size="10.00">::Adder</text>
</a>
</g>
<!-- Node1&#45;&gt;Node9 -->
<g id="edge24" class="edge"><title>Node1&#45;&gt;Node9</title>
<path fill="none" stroke="#9a32cd" stroke-dasharray="5,2" d="M818.264,-194.493C852.855,-187.94 893.989,-178.703 930,-166.683 947.539,-160.829 966.271,-152.365 981.585,-144.816"/>
<polygon fill="#9a32cd" stroke="#9a32cd" points="817.416,-191.09 808.222,-196.355 818.693,-197.973 817.416,-191.09"/>
<text text-anchor="middle" x="878" y="-195.683" font-family="Helvetica,sans-Serif" font-size="10.00"> m_parent</text>
</g>
<!-- Node11 -->
<g id="node23" class="node"><title>Node11</title>
<a xlink:href="classtransfer_1_1MPIThreadCache_1_1BlockTransferer.xhtml" target="_top" xlink:title="transfer::MPIThreadCache\l::BlockTransferer">
<polygon fill="white" stroke="black" points="948,-13.6834 948,-47.6834 1080,-47.6834 1080,-13.6834 948,-13.6834"/>
<text text-anchor="start" x="956" y="-34.6834" font-family="Helvetica,sans-Serif" font-size="10.00">transfer::MPIThreadCache</text>
<text text-anchor="middle" x="1014" y="-21.6834" font-family="Helvetica,sans-Serif" font-size="10.00">::BlockTransferer</text>
</a>
</g>
<!-- Node1&#45;&gt;Node11 -->
<g id="edge30" class="edge"><title>Node1&#45;&gt;Node11</title>
<path fill="none" stroke="#9a32cd" stroke-dasharray="5,2" d="M760.48,-188.549C775.499,-172.765 796.084,-148.57 808,-123.683 823.739,-90.8127 798.344,-67.4187 826,-43.6834 858.896,-15.4509 908.102,-12.9609 947.923,-17.129"/>
<polygon fill="#9a32cd" stroke="#9a32cd" points="757.691,-186.395 753.208,-195.995 762.699,-191.286 757.691,-186.395"/>
<text text-anchor="middle" x="878" y="-47.6834" font-family="Helvetica,sans-Serif" font-size="10.00"> m_parent</text>
</g>
<!-- Node12 -->
<g id="node27" class="node"><title>Node12</title>
<a xlink:href="classtransfer_1_1MPIThreadCache_1_1BlockInfoResponder.xhtml" target="_top" xlink:title="transfer::MPIThreadCache\l::BlockInfoResponder">
<polygon fill="white" stroke="black" points="948,-304.683 948,-338.683 1080,-338.683 1080,-304.683 948,-304.683"/>
<text text-anchor="start" x="956" y="-325.683" font-family="Helvetica,sans-Serif" font-size="10.00">transfer::MPIThreadCache</text>
<text text-anchor="middle" x="1014" y="-312.683" font-family="Helvetica,sans-Serif" font-size="10.00">::BlockInfoResponder</text>
</a>
</g>
<!-- Node1&#45;&gt;Node12 -->
<g id="edge36" class="edge"><title>Node1&#45;&gt;Node12</title>
<path fill="none" stroke="#9a32cd" stroke-dasharray="5,2" d="M751.403,-226.756C764.302,-251.695 790.047,-293.212 826,-311.683 863.213,-330.802 910.213,-333.302 947.91,-331.022"/>
<polygon fill="#9a32cd" stroke="#9a32cd" points="754.389,-224.899 746.81,-217.495 748.118,-228.009 754.389,-224.899"/>
<text text-anchor="middle" x="878" y="-335.683" font-family="Helvetica,sans-Serif" font-size="10.00"> m_parent</text>
</g>
<!-- Node13 -->
<g id="node31" class="node"><title>Node13</title>
<a xlink:href="classtransfer_1_1MPIThreadCache_1_1Deleter.xhtml" target="_top" xlink:title="transfer::MPIThreadCache\l::Deleter">
<polygon fill="white" stroke="black" points="948,-207.683 948,-241.683 1080,-241.683 1080,-207.683 948,-207.683"/>
<text text-anchor="start" x="956" y="-228.683" font-family="Helvetica,sans-Serif" font-size="10.00">transfer::MPIThreadCache</text>
<text text-anchor="middle" x="1014" y="-215.683" font-family="Helvetica,sans-Serif" font-size="10.00">::Deleter</text>
</a>
</g>
<!-- Node1&#45;&gt;Node13 -->
<g id="edge42" class="edge"><title>Node1&#45;&gt;Node13</title>
<path fill="none" stroke="#9a32cd" stroke-dasharray="5,2" d="M775.173,-220.989C790.359,-226.789 808.776,-232.794 826,-235.683 866.144,-242.418 911.706,-240 947.922,-235.74"/>
<polygon fill="#9a32cd" stroke="#9a32cd" points="776.291,-217.668 765.705,-217.242 773.715,-224.177 776.291,-217.668"/>
<text text-anchor="middle" x="878" y="-243.683" font-family="Helvetica,sans-Serif" font-size="10.00"> m_parent</text>
</g>
<!-- Node2 -->
<g id="node2" class="node"><title>Node2</title>
<a xlink:href="classtransfer_1_1MPICache.xhtml" target="_top" xlink:title="transfer::MPICache\l\&lt; allocator::Default,\l false \&gt;">
<polygon fill="white" stroke="black" points="448.5,-183.183 448.5,-230.183 551.5,-230.183 551.5,-183.183 448.5,-183.183"/>
<text text-anchor="start" x="456.5" y="-217.183" font-family="Helvetica,sans-Serif" font-size="10.00">transfer::MPICache</text>
<text text-anchor="start" x="456.5" y="-204.183" font-family="Helvetica,sans-Serif" font-size="10.00">&lt; allocator::Default,</text>
<text text-anchor="middle" x="500" y="-191.183" font-family="Helvetica,sans-Serif" font-size="10.00"> false &gt;</text>
</a>
</g>
<!-- Node2&#45;&gt;Node1 -->
<g id="edge2" class="edge"><title>Node2&#45;&gt;Node1</title>
<path fill="none" stroke="#8b1a1a" d="M561.671,-206.683C596.533,-206.683 640.127,-206.683 675.719,-206.683"/>
<polygon fill="#8b1a1a" stroke="#8b1a1a" points="561.618,-203.184 551.618,-206.683 561.618,-210.184 561.618,-203.184"/>
</g>
<!-- Node3 -->
<g id="node4" class="node"><title>Node3</title>
<a xlink:href="classmpi_1_1MPIComm.xhtml" target="_top" xlink:title="mpi::MPIComm">
<polygon fill="white" stroke="black" points="248,-203.183 248,-224.183 334,-224.183 334,-203.183 248,-203.183"/>
<text text-anchor="middle" x="291" y="-211.183" font-family="Helvetica,sans-Serif" font-size="10.00">mpi::MPIComm</text>
</a>
</g>
<!-- Node3&#45;&gt;Node2 -->
<g id="edge4" class="edge"><title>Node3&#45;&gt;Node2</title>
<path fill="none" stroke="#9a32cd" stroke-dasharray="5,2" d="M344.092,-211.905C376.006,-210.836 416.439,-209.482 448.132,-208.421"/>
<polygon fill="#9a32cd" stroke="#9a32cd" points="343.929,-208.409 334.052,-212.242 344.163,-215.405 343.929,-208.409"/>
<text text-anchor="middle" x="390" y="-214.683" font-family="Helvetica,sans-Serif" font-size="10.00"> m_mpiComm</text>
</g>
<!-- Node4 -->
<g id="node6" class="node"><title>Node4</title>
<a xlink:href="classthreads_1_1PthreadMutex.xhtml" target="_top" xlink:title="threads::PthreadMutex">
<polygon fill="white" stroke="black" points="8,-203.183 8,-224.183 124,-224.183 124,-203.183 8,-203.183"/>
<text text-anchor="middle" x="66" y="-211.183" font-family="Helvetica,sans-Serif" font-size="10.00">threads::PthreadMutex</text>
</a>
</g>
<!-- Node4&#45;&gt;Node1 -->
<g id="edge18" class="edge"><title>Node4&#45;&gt;Node1</title>
<path fill="none" stroke="#9a32cd" stroke-dasharray="5,2" d="M120.991,-226.185C130.615,-227.979 140.567,-229.586 150,-230.683 330.163,-251.639 377.336,-255.756 558,-239.683 605.52,-235.456 659.136,-225.202 696.179,-217.237"/>
<polygon fill="#9a32cd" stroke="#9a32cd" points="121.6,-222.738 111.115,-224.261 120.261,-229.609 121.6,-222.738"/>
<text text-anchor="middle" x="390" y="-278.683" font-family="Helvetica,sans-Serif" font-size="10.00"> m_blockMutex</text>
<text text-anchor="middle" x="390" y="-265.683" font-family="Helvetica,sans-Serif" font-size="10.00">m_mutexes</text>
<text text-anchor="middle" x="390" y="-252.683" font-family="Helvetica,sans-Serif" font-size="10.00">m_infoMutex</text>
</g>
<!-- Node4&#45;&gt;Node3 -->
<g id="edge6" class="edge"><title>Node4&#45;&gt;Node3</title>
<path fill="none" stroke="#9a32cd" stroke-dasharray="5,2" d="M134.438,-213.683C171.378,-213.683 215.846,-213.683 247.935,-213.683"/>
<polygon fill="#9a32cd" stroke="#9a32cd" points="134.236,-210.184 124.236,-213.683 134.236,-217.184 134.236,-210.184"/>
<text text-anchor="middle" x="188" y="-217.683" font-family="Helvetica,sans-Serif" font-size="10.00"> mpiLock</text>
</g>
<!-- Node5 -->
<g id="node8" class="node"><title>Node5</title>
<a xlink:href="classcache_1_1CacheManager.xhtml" target="_top" xlink:title="Manages a block cache. ">
<polygon fill="white" stroke="black" points="442.5,-143.183 442.5,-164.183 557.5,-164.183 557.5,-143.183 442.5,-143.183"/>
<text text-anchor="middle" x="500" y="-151.183" font-family="Helvetica,sans-Serif" font-size="10.00">cache::CacheManager</text>
</a>
</g>
<!-- Node4&#45;&gt;Node5 -->
<g id="edge10" class="edge"><title>Node4&#45;&gt;Node5</title>
<path fill="none" stroke="#9a32cd" stroke-dasharray="5,2" d="M126.721,-201.208C161.038,-194.464 204.792,-186.377 244,-180.683 311.889,-170.826 390.404,-163.082 442.394,-158.462"/>
<polygon fill="#9a32cd" stroke="#9a32cd" points="125.978,-197.787 116.848,-203.162 127.337,-204.654 125.978,-197.787"/>
<text text-anchor="middle" x="291" y="-184.683" font-family="Helvetica,sans-Serif" font-size="10.00"> m_blockMutexes</text>
</g>
<!-- Node5&#45;&gt;Node1 -->
<g id="edge8" class="edge"><title>Node5&#45;&gt;Node1</title>
<path fill="none" stroke="#9a32cd" stroke-dasharray="5,2" d="M558.084,-166.404C599.644,-175.506 654.922,-187.613 693.99,-196.169"/>
<polygon fill="#9a32cd" stroke="#9a32cd" points="558.618,-162.938 548.101,-164.218 557.12,-169.776 558.618,-162.938"/>
<text text-anchor="middle" x="617" y="-191.683" font-family="Helvetica,sans-Serif" font-size="10.00"> m_cacheManager</text>
</g>
<!-- Node6 -->
<g id="node11" class="node"><title>Node6</title>
<a xlink:href="classcache_1_1CacheList.xhtml" target="_top" xlink:title="Controls a list of blocks. ">
<polygon fill="white" stroke="black" points="244.5,-114.183 244.5,-135.183 337.5,-135.183 337.5,-114.183 244.5,-114.183"/>
<text text-anchor="middle" x="291" y="-122.183" font-family="Helvetica,sans-Serif" font-size="10.00">cache::CacheList</text>
</a>
</g>
<!-- Node6&#45;&gt;Node5 -->
<g id="edge12" class="edge"><title>Node6&#45;&gt;Node5</title>
<path fill="none" stroke="#9a32cd" stroke-dasharray="5,2" d="M347.735,-132.556C377.079,-136.627 412.824,-141.587 442.306,-145.678"/>
<polygon fill="#9a32cd" stroke="#9a32cd" points="348.03,-129.063 337.644,-131.155 347.068,-135.997 348.03,-129.063"/>
<text text-anchor="middle" x="390" y="-145.683" font-family="Helvetica,sans-Serif" font-size="10.00"> m_cacheList</text>
</g>
<!-- Node7 -->
<g id="node13" class="node"><title>Node7</title>
<a xlink:href="classcache_1_1LRU.xhtml" target="_top" xlink:title="cache::LRU">
<polygon fill="white" stroke="black" points="31.5,-71.1834 31.5,-92.1834 100.5,-92.1834 100.5,-71.1834 31.5,-71.1834"/>
<text text-anchor="middle" x="66" y="-79.1834" font-family="Helvetica,sans-Serif" font-size="10.00">cache::LRU</text>
</a>
</g>
<!-- Node7&#45;&gt;Node6 -->
<g id="edge14" class="edge"><title>Node7&#45;&gt;Node6</title>
<path fill="none" stroke="#9a32cd" stroke-dasharray="5,2" d="M110.733,-88.8529C142.884,-94.1662 187.22,-101.822 226,-109.683 232.697,-111.041 239.759,-112.57 246.663,-114.118"/>
<polygon fill="#9a32cd" stroke="#9a32cd" points="111.18,-85.3794 100.745,-87.2127 110.046,-92.2869 111.18,-85.3794"/>
<text text-anchor="middle" x="188" y="-113.683" font-family="Helvetica,sans-Serif" font-size="10.00"> m_lru</text>
</g>
<!-- Node8 -->
<g id="node15" class="node"><title>Node8</title>
<polygon fill="white" stroke="#bfbfbf" points="0.5,-111.183 0.5,-158.183 131.5,-158.183 131.5,-111.183 0.5,-111.183"/>
<text text-anchor="start" x="8.5" y="-145.183" font-family="Helvetica,sans-Serif" font-size="10.00">std::unordered_map</text>
<text text-anchor="start" x="8.5" y="-132.183" font-family="Helvetica,sans-Serif" font-size="10.00">&lt; unsigned long, unsigned</text>
<text text-anchor="middle" x="66" y="-119.183" font-family="Helvetica,sans-Serif" font-size="10.00"> long &gt;</text>
</g>
<!-- Node8&#45;&gt;Node6 -->
<g id="edge16" class="edge"><title>Node8&#45;&gt;Node6</title>
<path fill="none" stroke="#9a32cd" stroke-dasharray="5,2" d="M142.016,-131.305C175.87,-129.8 214.667,-128.076 244.181,-126.764"/>
<polygon fill="#9a32cd" stroke="#9a32cd" points="141.519,-127.823 131.684,-131.764 141.83,-134.817 141.519,-127.823"/>
<text text-anchor="middle" x="188" y="-134.683" font-family="Helvetica,sans-Serif" font-size="10.00"> m_blockToIndex</text>
</g>
<!-- Node9&#45;&gt;Node1 -->
<g id="edge20" class="edge"><title>Node9&#45;&gt;Node1</title>
<path fill="none" stroke="#9a32cd" stroke-dasharray="5,2" d="M937.829,-130.855C902.914,-134.155 861.494,-140.721 826,-153.683 798.465,-163.739 770.457,-183.812 754.748,-196.163"/>
<polygon fill="#9a32cd" stroke="#9a32cd" points="938.308,-134.327 947.966,-129.97 937.7,-127.353 938.308,-134.327"/>
<text text-anchor="middle" x="878" y="-157.683" font-family="Helvetica,sans-Serif" font-size="10.00"> m_adder</text>
</g>
<!-- Node10 -->
<g id="node20" class="node"><title>Node10</title>
<a xlink:href="classmpi_1_1Receiver.xhtml" target="_top" xlink:title="mpi::Receiver">
<polygon fill="white" stroke="black" points="703.5,-93.1834 703.5,-114.183 780.5,-114.183 780.5,-93.1834 703.5,-93.1834"/>
<text text-anchor="middle" x="742" y="-101.183" font-family="Helvetica,sans-Serif" font-size="10.00">mpi::Receiver</text>
</a>
</g>
<!-- Node10&#45;&gt;Node9 -->
<g id="edge22" class="edge"><title>Node10&#45;&gt;Node9</title>
<path fill="none" stroke="midnightblue" d="M773.445,-89.0689C788.912,-82.6669 808.049,-75.89 826,-72.6834 871.502,-64.5552 885.706,-59.4724 930,-72.6834 954.722,-80.057 978.934,-97.2874 994.964,-110.513"/>
<polygon fill="midnightblue" stroke="midnightblue" points="771.671,-86.0216 763.86,-93.1805 774.43,-92.4547 771.671,-86.0216"/>
</g>
<!-- Node10&#45;&gt;Node11 -->
<g id="edge28" class="edge"><title>Node10&#45;&gt;Node11</title>
<path fill="none" stroke="midnightblue" d="M752.741,-84.4367C766.432,-62.1181 792.408,-26.5 826,-11.6834 871.323,8.30752 928.587,-1.895 967.937,-13.6273"/>
<polygon fill="midnightblue" stroke="midnightblue" points="749.704,-82.6964 747.639,-93.0882 755.734,-86.2521 749.704,-82.6964"/>
</g>
<!-- Node10&#45;&gt;Node12 -->
<g id="edge34" class="edge"><title>Node10&#45;&gt;Node12</title>
<path fill="none" stroke="midnightblue" d="M759.408,-121.974C773.941,-138.014 794.407,-162.492 808,-186.683 819.365,-206.91 809.091,-219.797 826,-235.683 861.152,-268.709 886.254,-246.371 930,-266.683 952.292,-277.034 975.51,-292.668 991.872,-304.625"/>
<polygon fill="midnightblue" stroke="midnightblue" points="761.771,-119.375 752.416,-114.401 756.628,-124.123 761.771,-119.375"/>
</g>
<!-- Node10&#45;&gt;Node13 -->
<g id="edge40" class="edge"><title>Node10&#45;&gt;Node13</title>
<path fill="none" stroke="midnightblue" d="M772.267,-118.81C788.034,-126.32 807.781,-135.158 826,-141.683 871.065,-157.823 886.319,-150.105 930,-169.683 952.428,-179.736 975.633,-195.4 991.954,-207.444"/>
<polygon fill="midnightblue" stroke="midnightblue" points="773.54,-115.538 763.013,-114.338 770.494,-121.84 773.54,-115.538"/>
</g>
<!-- Node11&#45;&gt;Node1 -->
<g id="edge26" class="edge"><title>Node11&#45;&gt;Node1</title>
<path fill="none" stroke="#9a32cd" stroke-dasharray="5,2" d="M951.582,-51.1743C913.256,-65.4906 864.338,-86.9937 826,-114.683 792.862,-138.618 762.869,-177.357 749.44,-195.995"/>
<polygon fill="#9a32cd" stroke="#9a32cd" points="952.9,-54.4187 961.084,-47.6901 950.491,-47.8465 952.9,-54.4187"/>
<text text-anchor="middle" x="878" y="-118.683" font-family="Helvetica,sans-Serif" font-size="10.00"> m_blockTransferer</text>
</g>
<!-- Node12&#45;&gt;Node1 -->
<g id="edge32" class="edge"><title>Node12&#45;&gt;Node1</title>
<path fill="none" stroke="#9a32cd" stroke-dasharray="5,2" d="M944.827,-301.498C908.718,-290.036 864.219,-274.438 826,-256.683 801.066,-245.1 774.051,-228.154 757.574,-217.271"/>
<polygon fill="#9a32cd" stroke="#9a32cd" points="944.188,-304.966 954.777,-304.62 946.283,-298.287 944.188,-304.966"/>
<text text-anchor="middle" x="878" y="-298.683" font-family="Helvetica,sans-Serif" font-size="10.00"> m_blockInfoResponder</text>
</g>
<!-- Node13&#45;&gt;Node1 -->
<g id="edge38" class="edge"><title>Node13&#45;&gt;Node1</title>
<path fill="none" stroke="#9a32cd" stroke-dasharray="5,2" d="M937.824,-219.642C897.057,-216.945 847.332,-213.654 808.191,-211.064"/>
<polygon fill="#9a32cd" stroke="#9a32cd" points="937.775,-223.147 947.984,-220.315 938.237,-216.162 937.775,-223.147"/>
<text text-anchor="middle" x="878" y="-222.683" font-family="Helvetica,sans-Serif" font-size="10.00"> m_deleter</text>
</g>
</g>
</svg>
