<?xml version="1.0" encoding="UTF-8" standalone="no"?>
<!DOCTYPE svg PUBLIC "-//W3C//DTD SVG 1.1//EN"
 "http://www.w3.org/Graphics/SVG/1.1/DTD/svg11.dtd">
<!-- Generated by graphviz version 2.26.3 (20100126.1600)
 -->
<!-- Title: grid::level::Level&lt; Type &gt; Pages: 1 -->
<svg width="532pt" height="120pt"
 viewBox="0.00 0.00 532.00 120.00" xmlns="http://www.w3.org/2000/svg" xmlns:xlink="http://www.w3.org/1999/xlink">
<g id="graph1" class="graph" transform="scale(1 1) rotate(0) translate(4 116)">
<title>grid::level::Level&lt; Type &gt;</title>
<polygon fill="white" stroke="white" points="-4,5 -4,-116 529,-116 529,5 -4,5"/>
<!-- Node1 -->
<g id="node1" class="node"><title>Node1</title>
<polygon fill="#bfbfbf" stroke="black" points="0,-26 0,-60 88,-60 88,-26 0,-26"/>
<text text-anchor="start" x="8" y="-47" font-family="Helvetica,sans-Serif" font-size="10.00">grid::level::Level</text>
<text text-anchor="middle" x="44" y="-34" font-family="Helvetica,sans-Serif" font-size="10.00">&lt; Type &gt;</text>
</g>
<!-- Node2 -->
<g id="node3" class="node"><title>Node2</title>
<a xlink:href="classgrid_1_1level_1_1Blocked.xhtml" target="_top" xlink:title="Base class for all grid levels that work on blocks. ">
<polygon fill="white" stroke="black" points="135,-52 135,-86 235,-86 235,-52 135,-52"/>
<text text-anchor="start" x="143" y="-73" font-family="Helvetica,sans-Serif" font-size="10.00">grid::level::Blocked</text>
<text text-anchor="middle" x="185" y="-60" font-family="Helvetica,sans-Serif" font-size="10.00">&lt; Type &gt;</text>
</a>
</g>
<!-- Node1&#45;&gt;Node2 -->
<g id="edge2" class="edge"><title>Node1&#45;&gt;Node2</title>
<path fill="none" stroke="midnightblue" d="M98.0951,-52.975C110.07,-55.1831 122.713,-57.5144 134.536,-59.6946"/>
<polygon fill="midnightblue" stroke="midnightblue" points="98.6953,-49.5267 88.2264,-51.1552 97.4259,-56.4107 98.6953,-49.5267"/>
</g>
<!-- Node7 -->
<g id="node13" class="node"><title>Node7</title>
<a xlink:href="classgrid_1_1level_1_1PassThrough.xhtml" target="_top" xlink:title="grid::level::PassThrough\l\&lt; Type \&gt;">
<polygon fill="white" stroke="black" points="124,-0 124,-34 246,-34 246,-0 124,-0"/>
<text text-anchor="start" x="132" y="-21" font-family="Helvetica,sans-Serif" font-size="10.00">grid::level::PassThrough</text>
<text text-anchor="middle" x="185" y="-8" font-family="Helvetica,sans-Serif" font-size="10.00">&lt; Type &gt;</text>
</a>
</g>
<!-- Node1&#45;&gt;Node7 -->
<g id="edge12" class="edge"><title>Node1&#45;&gt;Node7</title>
<path fill="none" stroke="midnightblue" d="M98.261,-32.9944C106.647,-31.448 115.358,-29.8418 123.883,-28.2699"/>
<polygon fill="midnightblue" stroke="midnightblue" points="97.4259,-29.5893 88.2264,-34.8448 98.6953,-36.4733 97.4259,-29.5893"/>
</g>
<!-- Node3 -->
<g id="node5" class="node"><title>Node3</title>
<a xlink:href="classgrid_1_1level_1_1Cache.xhtml" target="_top" xlink:title="grid::level::Cache\l\&lt; Type \&gt;">
<polygon fill="white" stroke="black" points="282.5,-78 282.5,-112 375.5,-112 375.5,-78 282.5,-78"/>
<text text-anchor="start" x="290.5" y="-99" font-family="Helvetica,sans-Serif" font-size="10.00">grid::level::Cache</text>
<text text-anchor="middle" x="329" y="-86" font-family="Helvetica,sans-Serif" font-size="10.00">&lt; Type &gt;</text>
</a>
</g>
<!-- Node2&#45;&gt;Node3 -->
<g id="edge4" class="edge"><title>Node2&#45;&gt;Node3</title>
<path fill="none" stroke="midnightblue" d="M245.543,-79.9313C257.827,-82.1493 270.567,-84.4497 282.285,-86.5653"/>
<polygon fill="midnightblue" stroke="midnightblue" points="245.827,-76.4261 235.364,-78.0935 244.583,-83.3148 245.827,-76.4261"/>
</g>
<!-- Node5 -->
<g id="node9" class="node"><title>Node5</title>
<a xlink:href="classgrid_1_1level_1_1Full.xhtml" target="_top" xlink:title="grid::level::Full\&lt;\l Type \&gt;">
<polygon fill="white" stroke="black" points="286,-26 286,-60 372,-60 372,-26 286,-26"/>
<text text-anchor="start" x="294" y="-47" font-family="Helvetica,sans-Serif" font-size="10.00">grid::level::Full&lt;</text>
<text text-anchor="middle" x="329" y="-34" font-family="Helvetica,sans-Serif" font-size="10.00"> Type &gt;</text>
</a>
</g>
<!-- Node2&#45;&gt;Node5 -->
<g id="edge8" class="edge"><title>Node2&#45;&gt;Node5</title>
<path fill="none" stroke="midnightblue" d="M245.519,-58.0729C258.981,-55.6423 272.993,-53.1124 285.606,-50.835"/>
<polygon fill="midnightblue" stroke="midnightblue" points="244.583,-54.6852 235.364,-59.9065 245.827,-61.5739 244.583,-54.6852"/>
</g>
<!-- Node4 -->
<g id="node7" class="node"><title>Node4</title>
<a xlink:href="classgrid_1_1level_1_1CacheDist.xhtml" target="_top" xlink:title="grid::level::CacheDist\l\&lt; Type, Allocator \&gt;">
<polygon fill="white" stroke="black" points="412.5,-78 412.5,-112 523.5,-112 523.5,-78 412.5,-78"/>
<text text-anchor="start" x="420.5" y="-99" font-family="Helvetica,sans-Serif" font-size="10.00">grid::level::CacheDist</text>
<text text-anchor="middle" x="468" y="-86" font-family="Helvetica,sans-Serif" font-size="10.00">&lt; Type, Allocator &gt;</text>
</a>
</g>
<!-- Node3&#45;&gt;Node4 -->
<g id="edge6" class="edge"><title>Node3&#45;&gt;Node4</title>
<path fill="none" stroke="midnightblue" d="M385.716,-95C394.409,-95 403.378,-95 412.055,-95"/>
<polygon fill="midnightblue" stroke="midnightblue" points="385.672,-91.5001 375.672,-95 385.672,-98.5001 385.672,-91.5001"/>
</g>
<!-- Node6 -->
<g id="node11" class="node"><title>Node6</title>
<a xlink:href="classgrid_1_1level_1_1FullDist.xhtml" target="_top" xlink:title="grid::level::FullDist\l\&lt; Type, Allocator \&gt;">
<polygon fill="white" stroke="black" points="417.5,-26 417.5,-60 518.5,-60 518.5,-26 417.5,-26"/>
<text text-anchor="start" x="425.5" y="-47" font-family="Helvetica,sans-Serif" font-size="10.00">grid::level::FullDist</text>
<text text-anchor="middle" x="468" y="-34" font-family="Helvetica,sans-Serif" font-size="10.00">&lt; Type, Allocator &gt;</text>
</a>
</g>
<!-- Node5&#45;&gt;Node6 -->
<g id="edge10" class="edge"><title>Node5&#45;&gt;Node6</title>
<path fill="none" stroke="midnightblue" d="M382.438,-43C393.791,-43 405.75,-43 417.009,-43"/>
<polygon fill="midnightblue" stroke="midnightblue" points="382.219,-39.5001 372.219,-43 382.218,-46.5001 382.219,-39.5001"/>
</g>
</g>
</svg>
