<?xml version="1.0" encoding="UTF-8" standalone="no"?>
<!DOCTYPE svg PUBLIC "-//W3C//DTD SVG 1.1//EN"
 "http://www.w3.org/Graphics/SVG/1.1/DTD/svg11.dtd">
<!-- Generated by graphviz version 2.26.3 (20100126.1600)
 -->
<!-- Title: transfer::MPIThreadCache::Adder Pages: 1 -->
<svg width="1136pt" height="446pt"
 viewBox="0.00 0.00 1136.00 446.00" xmlns="http://www.w3.org/2000/svg" xmlns:xlink="http://www.w3.org/1999/xlink">
<g id="graph1" class="graph" transform="scale(1 1) rotate(0) translate(4 442)">
<title>transfer::MPIThreadCache::Adder</title>
<polygon fill="white" stroke="white" points="-4,5 -4,-442 1133,-442 1133,5 -4,5"/>
<!-- Node1 -->
<g id="node1" class="node"><title>Node1</title>
<polygon fill="#bfbfbf" stroke="black" points="474,-273 474,-307 606,-307 606,-273 474,-273"/>
<text text-anchor="start" x="482" y="-294" font-family="Helvetica,sans-Serif" font-size="10.00">transfer::MPIThreadCache</text>
<text text-anchor="middle" x="540" y="-281" font-family="Helvetica,sans-Serif" font-size="10.00">::Adder</text>
</g>
<!-- Node3 -->
<g id="node4" class="node"><title>Node3</title>
<a xlink:href="classtransfer_1_1MPIThreadCache.xhtml" target="_top" xlink:title="transfer::MPIThreadCache">
<polygon fill="white" stroke="black" points="724,-262.5 724,-283.5 856,-283.5 856,-262.5 724,-262.5"/>
<text text-anchor="middle" x="790" y="-270.5" font-family="Helvetica,sans-Serif" font-size="10.00">transfer::MPIThreadCache</text>
</a>
</g>
<!-- Node1&#45;&gt;Node3 -->
<g id="edge24" class="edge"><title>Node1&#45;&gt;Node3</title>
<path fill="none" stroke="#9a32cd" stroke-dasharray="5,2" d="M615.995,-284.832C650.326,-282.498 690.517,-279.765 723.618,-277.514"/>
<polygon fill="#9a32cd" stroke="#9a32cd" points="615.751,-281.341 606.012,-285.511 616.226,-288.325 615.751,-281.341"/>
<text text-anchor="middle" x="665" y="-288" font-family="Helvetica,sans-Serif" font-size="10.00"> m_adder</text>
</g>
<!-- Node2 -->
<g id="node2" class="node"><title>Node2</title>
<a xlink:href="classmpi_1_1Receiver.xhtml" target="_top" xlink:title="mpi::Receiver">
<polygon fill="white" stroke="black" points="263.5,-354.5 263.5,-375.5 340.5,-375.5 340.5,-354.5 263.5,-354.5"/>
<text text-anchor="middle" x="302" y="-362.5" font-family="Helvetica,sans-Serif" font-size="10.00">mpi::Receiver</text>
</a>
</g>
<!-- Node2&#45;&gt;Node1 -->
<g id="edge2" class="edge"><title>Node2&#45;&gt;Node1</title>
<path fill="none" stroke="midnightblue" d="M344.946,-351.467C384.428,-339.025 443.137,-320.524 485.826,-307.072"/>
<polygon fill="midnightblue" stroke="midnightblue" points="343.829,-348.149 335.343,-354.493 345.933,-354.825 343.829,-348.149"/>
</g>
<!-- Node11 -->
<g id="node23" class="node"><title>Node11</title>
<a xlink:href="classtransfer_1_1MPIThreadCache_1_1BlockTransferer.xhtml" target="_top" xlink:title="transfer::MPIThreadCache\l::BlockTransferer">
<polygon fill="white" stroke="black" points="996,-307 996,-341 1128,-341 1128,-307 996,-307"/>
<text text-anchor="start" x="1004" y="-328" font-family="Helvetica,sans-Serif" font-size="10.00">transfer::MPIThreadCache</text>
<text text-anchor="middle" x="1062" y="-315" font-family="Helvetica,sans-Serif" font-size="10.00">::BlockTransferer</text>
</a>
</g>
<!-- Node2&#45;&gt;Node11 -->
<g id="edge28" class="edge"><title>Node2&#45;&gt;Node11</title>
<path fill="none" stroke="midnightblue" d="M350.85,-365.884C385.277,-366.499 432.46,-367.326 474,-368 697.986,-371.633 762.008,-433.419 978,-374 1001.24,-367.608 1024.54,-352.923 1040.69,-341.112"/>
<polygon fill="midnightblue" stroke="midnightblue" points="350.657,-362.38 340.596,-365.7 350.531,-369.379 350.657,-362.38"/>
</g>
<!-- Node12 -->
<g id="node27" class="node"><title>Node12</title>
<a xlink:href="classtransfer_1_1MPIThreadCache_1_1BlockInfoResponder.xhtml" target="_top" xlink:title="transfer::MPIThreadCache\l::BlockInfoResponder">
<polygon fill="white" stroke="black" points="996,-199 996,-233 1128,-233 1128,-199 996,-199"/>
<text text-anchor="start" x="1004" y="-220" font-family="Helvetica,sans-Serif" font-size="10.00">transfer::MPIThreadCache</text>
<text text-anchor="middle" x="1062" y="-207" font-family="Helvetica,sans-Serif" font-size="10.00">::BlockInfoResponder</text>
</a>
</g>
<!-- Node2&#45;&gt;Node12 -->
<g id="edge34" class="edge"><title>Node2&#45;&gt;Node12</title>
<path fill="none" stroke="midnightblue" d="M323.82,-348.375C373.627,-311.709 500.92,-225.16 624,-200 778.146,-168.49 821.363,-185.215 978,-200 983.764,-200.544 989.722,-201.294 995.68,-202.174"/>
<polygon fill="midnightblue" stroke="midnightblue" points="321.636,-345.638 315.704,-354.416 325.816,-351.253 321.636,-345.638"/>
</g>
<!-- Node13 -->
<g id="node31" class="node"><title>Node13</title>
<a xlink:href="classtransfer_1_1MPIThreadCache_1_1Deleter.xhtml" target="_top" xlink:title="transfer::MPIThreadCache\l::Deleter">
<polygon fill="white" stroke="black" points="996,-404 996,-438 1128,-438 1128,-404 996,-404"/>
<text text-anchor="start" x="1004" y="-425" font-family="Helvetica,sans-Serif" font-size="10.00">transfer::MPIThreadCache</text>
<text text-anchor="middle" x="1062" y="-412" font-family="Helvetica,sans-Serif" font-size="10.00">::Deleter</text>
</a>
</g>
<!-- Node2&#45;&gt;Node13 -->
<g id="edge40" class="edge"><title>Node2&#45;&gt;Node13</title>
<path fill="none" stroke="midnightblue" d="M350.581,-375.989C359.663,-377.827 369.098,-379.591 378,-381 596.974,-415.658 652.615,-422.206 874,-434 920.157,-436.459 931.914,-437.545 978,-434 983.738,-433.559 989.678,-432.95 995.624,-432.235"/>
<polygon fill="midnightblue" stroke="midnightblue" points="351.026,-372.507 340.523,-373.898 349.601,-379.361 351.026,-372.507"/>
</g>
<!-- Node3&#45;&gt;Node1 -->
<g id="edge4" class="edge"><title>Node3&#45;&gt;Node1</title>
<path fill="none" stroke="#9a32cd" stroke-dasharray="5,2" d="M732.367,-260.81C700.276,-255.853 659.71,-252.621 624,-259 608.391,-261.788 591.886,-267.276 577.676,-272.869"/>
<polygon fill="#9a32cd" stroke="#9a32cd" points="732.037,-264.303 742.472,-262.47 733.171,-257.395 732.037,-264.303"/>
<text text-anchor="middle" x="665" y="-263" font-family="Helvetica,sans-Serif" font-size="10.00"> m_parent</text>
</g>
<!-- Node3&#45;&gt;Node11 -->
<g id="edge30" class="edge"><title>Node3&#45;&gt;Node11</title>
<path fill="none" stroke="#9a32cd" stroke-dasharray="5,2" d="M866.219,-271.498C900.801,-272.433 941.941,-275.823 978,-285 996.854,-289.798 1016.65,-298.773 1032.29,-306.905"/>
<polygon fill="#9a32cd" stroke="#9a32cd" points="866.251,-267.998 856.181,-271.29 866.106,-274.997 866.251,-267.998"/>
<text text-anchor="middle" x="926" y="-289" font-family="Helvetica,sans-Serif" font-size="10.00"> m_parent</text>
</g>
<!-- Node3&#45;&gt;Node12 -->
<g id="edge36" class="edge"><title>Node3&#45;&gt;Node12</title>
<path fill="none" stroke="#9a32cd" stroke-dasharray="5,2" d="M808.265,-255.437C824.185,-241.433 848.642,-222.904 874,-215 913.107,-202.811 959.053,-202.813 995.733,-205.983"/>
<polygon fill="#9a32cd" stroke="#9a32cd" points="805.799,-252.948 800.759,-262.267 810.51,-258.126 805.799,-252.948"/>
<text text-anchor="middle" x="926" y="-219" font-family="Helvetica,sans-Serif" font-size="10.00"> m_parent</text>
</g>
<!-- Node3&#45;&gt;Node13 -->
<g id="edge42" class="edge"><title>Node3&#45;&gt;Node13</title>
<path fill="none" stroke="#9a32cd" stroke-dasharray="5,2" d="M797.163,-293.23C808.538,-322.084 833.668,-374.292 874,-399 893.965,-411.231 949.955,-416.662 995.678,-419.074"/>
<polygon fill="#9a32cd" stroke="#9a32cd" points="800.392,-291.875 793.591,-283.751 793.842,-294.343 800.392,-291.875"/>
<text text-anchor="middle" x="926" y="-421" font-family="Helvetica,sans-Serif" font-size="10.00"> m_parent</text>
</g>
<!-- Node4 -->
<g id="node6" class="node"><title>Node4</title>
<a xlink:href="classtransfer_1_1MPICache.xhtml" target="_top" xlink:title="transfer::MPICache\l\&lt; allocator::Default \&gt;">
<polygon fill="white" stroke="black" points="485.5,-325 485.5,-359 594.5,-359 594.5,-325 485.5,-325"/>
<text text-anchor="start" x="493.5" y="-346" font-family="Helvetica,sans-Serif" font-size="10.00">transfer::MPICache</text>
<text text-anchor="middle" x="540" y="-333" font-family="Helvetica,sans-Serif" font-size="10.00">&lt; allocator::Default &gt;</text>
</a>
</g>
<!-- Node4&#45;&gt;Node3 -->
<g id="edge6" class="edge"><title>Node4&#45;&gt;Node3</title>
<path fill="none" stroke="#8b1a1a" d="M604.642,-327.298C635.482,-319.962 672.81,-310.614 706,-301 724.161,-295.739 744.262,-289.07 760.246,-283.56"/>
<polygon fill="#8b1a1a" stroke="#8b1a1a" points="603.797,-323.901 594.87,-329.607 605.407,-330.713 603.797,-323.901"/>
</g>
<!-- Node5 -->
<g id="node8" class="node"><title>Node5</title>
<a xlink:href="classcache_1_1CacheManager.xhtml" target="_top" xlink:title="Manages a block cache. ">
<polygon fill="white" stroke="black" points="482.5,-109.5 482.5,-130.5 597.5,-130.5 597.5,-109.5 482.5,-109.5"/>
<text text-anchor="middle" x="540" y="-117.5" font-family="Helvetica,sans-Serif" font-size="10.00">cache::CacheManager</text>
</a>
</g>
<!-- Node5&#45;&gt;Node3 -->
<g id="edge8" class="edge"><title>Node5&#45;&gt;Node3</title>
<path fill="none" stroke="#9a32cd" stroke-dasharray="5,2" d="M596.08,-133.246C629.97,-143.047 672.872,-158.772 706,-182 739.272,-205.329 769.201,-243.812 782.588,-262.357"/>
<polygon fill="#9a32cd" stroke="#9a32cd" points="596.899,-129.84 586.326,-130.515 595.012,-136.581 596.899,-129.84"/>
<text text-anchor="middle" x="665" y="-186" font-family="Helvetica,sans-Serif" font-size="10.00"> m_cacheManager</text>
</g>
<!-- Node6 -->
<g id="node10" class="node"><title>Node6</title>
<a xlink:href="classthreads_1_1PthreadMutex.xhtml" target="_top" xlink:title="threads::PthreadMutex">
<polygon fill="white" stroke="black" points="244,-109.5 244,-130.5 360,-130.5 360,-109.5 244,-109.5"/>
<text text-anchor="middle" x="302" y="-117.5" font-family="Helvetica,sans-Serif" font-size="10.00">threads::PthreadMutex</text>
</a>
</g>
<!-- Node6&#45;&gt;Node3 -->
<g id="edge22" class="edge"><title>Node6&#45;&gt;Node3</title>
<path fill="none" stroke="#9a32cd" stroke-dasharray="5,2" d="M343.688,-106.583C402.799,-89.5539 514.02,-64.8992 606,-87 654.51,-98.6559 669.255,-104.252 706,-138 746.865,-175.531 775.342,-237.35 785.693,-262.181"/>
<polygon fill="#9a32cd" stroke="#9a32cd" points="342.566,-103.264 333.965,-109.451 344.547,-109.978 342.566,-103.264"/>
<text text-anchor="middle" x="540" y="-91" font-family="Helvetica,sans-Serif" font-size="10.00"> m_mutexes</text>
</g>
<!-- Node6&#45;&gt;Node5 -->
<g id="edge10" class="edge"><title>Node6&#45;&gt;Node5</title>
<path fill="none" stroke="#9a32cd" stroke-dasharray="5,2" d="M370.482,-120C405.908,-120 448.668,-120 482.38,-120"/>
<polygon fill="#9a32cd" stroke="#9a32cd" points="370.221,-116.5 360.221,-120 370.221,-123.5 370.221,-116.5"/>
<text text-anchor="middle" x="417" y="-124" font-family="Helvetica,sans-Serif" font-size="10.00"> m_blockMutexes</text>
</g>
<!-- Node10 -->
<g id="node18" class="node"><title>Node10</title>
<a xlink:href="classmpi_1_1MPIComm.xhtml" target="_top" xlink:title="mpi::MPIComm">
<polygon fill="white" stroke="black" points="497,-149.5 497,-170.5 583,-170.5 583,-149.5 497,-149.5"/>
<text text-anchor="middle" x="540" y="-157.5" font-family="Helvetica,sans-Serif" font-size="10.00">mpi::MPIComm</text>
</a>
</g>
<!-- Node6&#45;&gt;Node10 -->
<g id="edge20" class="edge"><title>Node6&#45;&gt;Node10</title>
<path fill="none" stroke="#9a32cd" stroke-dasharray="5,2" d="M359.938,-132.575C366.027,-133.784 372.133,-134.949 378,-136 418.16,-143.195 464.2,-149.865 496.908,-154.338"/>
<polygon fill="#9a32cd" stroke="#9a32cd" points="360.249,-129.067 349.753,-130.513 358.86,-135.928 360.249,-129.067"/>
<text text-anchor="middle" x="417" y="-152" font-family="Helvetica,sans-Serif" font-size="10.00"> mpiLock</text>
</g>
<!-- Node7 -->
<g id="node12" class="node"><title>Node7</title>
<a xlink:href="classcache_1_1CacheList.xhtml" target="_top" xlink:title="Controls a list of blocks. ">
<polygon fill="white" stroke="black" points="255.5,-39.5 255.5,-60.5 348.5,-60.5 348.5,-39.5 255.5,-39.5"/>
<text text-anchor="middle" x="302" y="-47.5" font-family="Helvetica,sans-Serif" font-size="10.00">cache::CacheList</text>
</a>
</g>
<!-- Node7&#45;&gt;Node5 -->
<g id="edge12" class="edge"><title>Node7&#45;&gt;Node5</title>
<path fill="none" stroke="#9a32cd" stroke-dasharray="5,2" d="M347.525,-63.3899C393.131,-76.8034 462.392,-97.1742 504.209,-109.473"/>
<polygon fill="#9a32cd" stroke="#9a32cd" points="348.47,-60.0195 337.889,-60.5555 346.495,-66.735 348.47,-60.0195"/>
<text text-anchor="middle" x="417" y="-97" font-family="Helvetica,sans-Serif" font-size="10.00"> m_cacheList</text>
</g>
<!-- Node8 -->
<g id="node14" class="node"><title>Node8</title>
<a xlink:href="classcache_1_1LRU.xhtml" target="_top" xlink:title="cache::LRU">
<polygon fill="white" stroke="black" points="31.5,-66.5 31.5,-87.5 100.5,-87.5 100.5,-66.5 31.5,-66.5"/>
<text text-anchor="middle" x="66" y="-74.5" font-family="Helvetica,sans-Serif" font-size="10.00">cache::LRU</text>
</a>
</g>
<!-- Node8&#45;&gt;Node7 -->
<g id="edge14" class="edge"><title>Node8&#45;&gt;Node7</title>
<path fill="none" stroke="#9a32cd" stroke-dasharray="5,2" d="M110.618,-71.8955C151.92,-67.1702 213.113,-60.1693 255.122,-55.3631"/>
<polygon fill="#9a32cd" stroke="#9a32cd" points="110.107,-68.431 100.569,-73.0451 110.902,-75.3856 110.107,-68.431"/>
<text text-anchor="middle" x="188" y="-70" font-family="Helvetica,sans-Serif" font-size="10.00"> m_lru</text>
</g>
<!-- Node9 -->
<g id="node16" class="node"><title>Node9</title>
<polygon fill="white" stroke="#bfbfbf" points="0.5,-0.5 0.5,-47.5 131.5,-47.5 131.5,-0.5 0.5,-0.5"/>
<text text-anchor="start" x="8.5" y="-34.5" font-family="Helvetica,sans-Serif" font-size="10.00">std::unordered_map</text>
<text text-anchor="start" x="8.5" y="-21.5" font-family="Helvetica,sans-Serif" font-size="10.00">&lt; unsigned long, unsigned</text>
<text text-anchor="middle" x="66" y="-8.5" font-family="Helvetica,sans-Serif" font-size="10.00"> long &gt;</text>
</g>
<!-- Node9&#45;&gt;Node7 -->
<g id="edge16" class="edge"><title>Node9&#45;&gt;Node7</title>
<path fill="none" stroke="#9a32cd" stroke-dasharray="5,2" d="M142.066,-32.3801C179.333,-36.4859 223.016,-41.2984 255.304,-44.8555"/>
<polygon fill="#9a32cd" stroke="#9a32cd" points="142.062,-28.8587 131.739,-31.2424 141.296,-35.8166 142.062,-28.8587"/>
<text text-anchor="middle" x="188" y="-45" font-family="Helvetica,sans-Serif" font-size="10.00"> m_blockToIndex</text>
</g>
<!-- Node10&#45;&gt;Node3 -->
<g id="edge18" class="edge"><title>Node10&#45;&gt;Node3</title>
<path fill="none" stroke="#9a32cd" stroke-dasharray="5,2" d="M572.831,-174.839C624.131,-198.027 722.042,-242.283 766.725,-262.48"/>
<polygon fill="#9a32cd" stroke="#9a32cd" points="574.073,-171.56 563.519,-170.631 571.19,-177.939 574.073,-171.56"/>
<text text-anchor="middle" x="665" y="-237" font-family="Helvetica,sans-Serif" font-size="10.00"> m_mpiComm</text>
</g>
<!-- Node11&#45;&gt;Node3 -->
<g id="edge26" class="edge"><title>Node11&#45;&gt;Node3</title>
<path fill="none" stroke="#9a32cd" stroke-dasharray="5,2" d="M985.727,-318.84C951.302,-315.549 910.303,-310.288 874,-302 854.146,-297.467 832.433,-289.899 816.057,-283.63"/>
<polygon fill="#9a32cd" stroke="#9a32cd" points="985.44,-322.328 995.719,-319.757 986.081,-315.357 985.44,-322.328"/>
<text text-anchor="middle" x="926" y="-321" font-family="Helvetica,sans-Serif" font-size="10.00"> m_blockTransferer</text>
</g>
<!-- Node12&#45;&gt;Node3 -->
<g id="edge32" class="edge"><title>Node12&#45;&gt;Node3</title>
<path fill="none" stroke="#9a32cd" stroke-dasharray="5,2" d="M985.866,-230.975C951.633,-237.815 910.748,-246.131 874,-254 861.573,-256.661 848.137,-259.65 835.733,-262.455"/>
<polygon fill="#9a32cd" stroke="#9a32cd" points="986.676,-234.383 995.799,-228.995 985.308,-227.518 986.676,-234.383"/>
<text text-anchor="middle" x="926" y="-258" font-family="Helvetica,sans-Serif" font-size="10.00"> m_blockInfoResponder</text>
</g>
<!-- Node13&#45;&gt;Node3 -->
<g id="edge38" class="edge"><title>Node13&#45;&gt;Node3</title>
<path fill="none" stroke="#9a32cd" stroke-dasharray="5,2" d="M1013.38,-399.79C966.423,-379.077 898.882,-348.604 874,-334 847.421,-318.4 818.87,-296.423 802.841,-283.549"/>
<polygon fill="#9a32cd" stroke="#9a32cd" points="1012.2,-403.098 1022.77,-403.923 1015.02,-396.691 1012.2,-403.098"/>
<text text-anchor="middle" x="926" y="-387" font-family="Helvetica,sans-Serif" font-size="10.00"> m_deleter</text>
</g>
</g>
</svg>
