<?xml version="1.0" encoding="UTF-8" standalone="no"?>
<!DOCTYPE svg PUBLIC "-//W3C//DTD SVG 1.1//EN"
 "http://www.w3.org/Graphics/SVG/1.1/DTD/svg11.dtd">
<!-- Generated by graphviz version 2.26.3 (20100126.1600)
 -->
<!-- Title: io::NetCdfReader Pages: 1 -->
<svg width="219pt" height="188pt"
 viewBox="0.00 0.00 219.00 188.00" xmlns="http://www.w3.org/2000/svg" xmlns:xlink="http://www.w3.org/1999/xlink">
<g id="graph1" class="graph" transform="scale(1 1) rotate(0) translate(4 184)">
<title>io::NetCdfReader</title>
<polygon fill="white" stroke="white" points="-4,5 -4,-184 216,-184 216,5 -4,5"/>
<!-- Node1 -->
<g id="node1" class="node"><title>Node1</title>
<polygon fill="#bfbfbf" stroke="black" points="56.5,-0.5 56.5,-21.5 149.5,-21.5 149.5,-0.5 56.5,-0.5"/>
<text text-anchor="middle" x="103" y="-8.5" font-family="Helvetica,sans-Serif" font-size="10.00">io::NetCdfReader</text>
</g>
<!-- Node2 -->
<g id="node2" class="node"><title>Node2</title>
<a xlink:href="classthreads_1_1PthreadMutex.xhtml" target="_top" xlink:title="threads::PthreadMutex">
<polygon fill="white" stroke="black" points="0,-84.5 0,-105.5 116,-105.5 116,-84.5 0,-84.5"/>
<text text-anchor="middle" x="58" y="-92.5" font-family="Helvetica,sans-Serif" font-size="10.00">threads::PthreadMutex</text>
</a>
</g>
<!-- Node2&#45;&gt;Node1 -->
<g id="edge2" class="edge"><title>Node2&#45;&gt;Node1</title>
<path fill="none" stroke="#9a32cd" stroke-dasharray="5,2" d="M61.4252,-74.4138C63.8348,-63.6352 67.7717,-50.5272 74,-40 78.0606,-33.1366 84.119,-26.7279 89.6498,-21.6898"/>
<polygon fill="#9a32cd" stroke="#9a32cd" points="57.9894,-73.7469 59.4964,-84.234 64.8582,-75.0961 57.9894,-73.7469"/>
<text text-anchor="middle" x="100" y="-50.5" font-family="Helvetica,sans-Serif" font-size="10.00"> netcdfLock</text>
</g>
<!-- Node3 -->
<g id="node4" class="node"><title>Node3</title>
<a xlink:title="STL class. ">
<polygon fill="white" stroke="#bfbfbf" points="134,-84.5 134,-105.5 194,-105.5 194,-84.5 134,-84.5"/>
<text text-anchor="middle" x="164" y="-92.5" font-family="Helvetica,sans-Serif" font-size="10.00">std::string</text>
</a>
</g>
<!-- Node3&#45;&gt;Node1 -->
<g id="edge4" class="edge"><title>Node3&#45;&gt;Node1</title>
<path fill="none" stroke="#9a32cd" stroke-dasharray="5,2" d="M151.167,-75.767C143.942,-65.1074 134.656,-51.6852 126,-40 121.41,-33.8037 116.069,-27.0444 111.69,-21.6113"/>
<polygon fill="#9a32cd" stroke="#9a32cd" points="148.431,-77.9697 156.919,-84.3103 154.238,-74.0604 148.431,-77.9697"/>
<text text-anchor="middle" x="169.5" y="-57" font-family="Helvetica,sans-Serif" font-size="10.00"> m_names</text>
<text text-anchor="middle" x="169.5" y="-44" font-family="Helvetica,sans-Serif" font-size="10.00">m_filename</text>
</g>
<!-- Node4 -->
<g id="node6" class="node"><title>Node4</title>
<a xlink:title="STL class. ">
<polygon fill="white" stroke="#bfbfbf" points="116.5,-145 116.5,-179 211.5,-179 211.5,-145 116.5,-145"/>
<text text-anchor="start" x="124.5" y="-166" font-family="Helvetica,sans-Serif" font-size="10.00">std::basic_string&lt;</text>
<text text-anchor="middle" x="164" y="-153" font-family="Helvetica,sans-Serif" font-size="10.00"> char &gt;</text>
</a>
</g>
<!-- Node4&#45;&gt;Node3 -->
<g id="edge6" class="edge"><title>Node4&#45;&gt;Node3</title>
<path fill="none" stroke="midnightblue" d="M164,-134.534C164,-124.306 164,-113.301 164,-105.506"/>
<polygon fill="midnightblue" stroke="midnightblue" points="160.5,-134.746 164,-144.746 167.5,-134.746 160.5,-134.746"/>
</g>
</g>
</svg>
