<?xml version="1.0" encoding="UTF-8" standalone="no"?>
<!DOCTYPE svg PUBLIC "-//W3C//DTD SVG 1.1//EN"
 "http://www.w3.org/Graphics/SVG/1.1/DTD/svg11.dtd">
<!-- Generated by graphviz version 2.26.3 (20100126.1600)
 -->
<!-- Title: transfer::MPIThreadCache Pages: 1 -->
<svg width="1108pt" height="353pt"
 viewBox="0.00 0.00 1108.00 352.68" xmlns="http://www.w3.org/2000/svg" xmlns:xlink="http://www.w3.org/1999/xlink">
<g id="graph1" class="graph" transform="scale(1 1) rotate(0) translate(4 348.683)">
<title>transfer::MPIThreadCache</title>
<polygon fill="white" stroke="white" points="-4,5 -4,-348.683 1105,-348.683 1105,5 -4,5"/>
<!-- Node1 -->
<g id="node1" class="node"><title>Node1</title>
<polygon fill="#bfbfbf" stroke="black" points="696,-196.183 696,-217.183 828,-217.183 828,-196.183 696,-196.183"/>
<text text-anchor="middle" x="762" y="-204.183" font-family="Helvetica,sans-Serif" font-size="10.00">transfer::MPIThreadCache</text>
</g>
<!-- Node9 -->
<g id="node18" class="node"><title>Node9</title>
<a xlink:href="classtransfer_1_1MPIThreadCache_1_1Adder.xhtml" target="_top" xlink:title="transfer::MPIThreadCache\l::Adder">
<polygon fill="white" stroke="black" points="968,-110.683 968,-144.683 1100,-144.683 1100,-110.683 968,-110.683"/>
<text text-anchor="start" x="976" y="-131.683" font-family="Helvetica,sans-Serif" font-size="10.00">transfer::MPIThreadCache</text>
<text text-anchor="middle" x="1034" y="-118.683" font-family="Helvetica,sans-Serif" font-size="10.00">::Adder</text>
</a>
</g>
<!-- Node1&#45;&gt;Node9 -->
<g id="edge24" class="edge"><title>Node1&#45;&gt;Node9</title>
<path fill="none" stroke="#9a32cd" stroke-dasharray="5,2" d="M838.264,-194.493C872.855,-187.94 913.989,-178.703 950,-166.683 967.539,-160.829 986.271,-152.365 1001.59,-144.816"/>
<polygon fill="#9a32cd" stroke="#9a32cd" points="837.416,-191.09 828.222,-196.355 838.693,-197.973 837.416,-191.09"/>
<text text-anchor="middle" x="898" y="-195.683" font-family="Helvetica,sans-Serif" font-size="10.00"> m_parent</text>
</g>
<!-- Node11 -->
<g id="node23" class="node"><title>Node11</title>
<a xlink:href="classtransfer_1_1MPIThreadCache_1_1BlockTransferer.xhtml" target="_top" xlink:title="transfer::MPIThreadCache\l::BlockTransferer">
<polygon fill="white" stroke="black" points="968,-13.6834 968,-47.6834 1100,-47.6834 1100,-13.6834 968,-13.6834"/>
<text text-anchor="start" x="976" y="-34.6834" font-family="Helvetica,sans-Serif" font-size="10.00">transfer::MPIThreadCache</text>
<text text-anchor="middle" x="1034" y="-21.6834" font-family="Helvetica,sans-Serif" font-size="10.00">::BlockTransferer</text>
</a>
</g>
<!-- Node1&#45;&gt;Node11 -->
<g id="edge30" class="edge"><title>Node1&#45;&gt;Node11</title>
<path fill="none" stroke="#9a32cd" stroke-dasharray="5,2" d="M780.48,-188.549C795.499,-172.765 816.084,-148.57 828,-123.683 843.739,-90.8127 818.344,-67.4187 846,-43.6834 878.896,-15.4509 928.102,-12.9609 967.923,-17.129"/>
<polygon fill="#9a32cd" stroke="#9a32cd" points="777.691,-186.395 773.208,-195.995 782.699,-191.286 777.691,-186.395"/>
<text text-anchor="middle" x="898" y="-47.6834" font-family="Helvetica,sans-Serif" font-size="10.00"> m_parent</text>
</g>
<!-- Node12 -->
<g id="node27" class="node"><title>Node12</title>
<a xlink:href="classtransfer_1_1MPIThreadCache_1_1BlockInfoResponder.xhtml" target="_top" xlink:title="transfer::MPIThreadCache\l::BlockInfoResponder">
<polygon fill="white" stroke="black" points="968,-304.683 968,-338.683 1100,-338.683 1100,-304.683 968,-304.683"/>
<text text-anchor="start" x="976" y="-325.683" font-family="Helvetica,sans-Serif" font-size="10.00">transfer::MPIThreadCache</text>
<text text-anchor="middle" x="1034" y="-312.683" font-family="Helvetica,sans-Serif" font-size="10.00">::BlockInfoResponder</text>
</a>
</g>
<!-- Node1&#45;&gt;Node12 -->
<g id="edge36" class="edge"><title>Node1&#45;&gt;Node12</title>
<path fill="none" stroke="#9a32cd" stroke-dasharray="5,2" d="M771.403,-226.756C784.302,-251.695 810.047,-293.212 846,-311.683 883.213,-330.802 930.213,-333.302 967.91,-331.022"/>
<polygon fill="#9a32cd" stroke="#9a32cd" points="774.389,-224.899 766.81,-217.495 768.118,-228.009 774.389,-224.899"/>
<text text-anchor="middle" x="898" y="-335.683" font-family="Helvetica,sans-Serif" font-size="10.00"> m_parent</text>
</g>
<!-- Node13 -->
<g id="node31" class="node"><title>Node13</title>
<a xlink:href="classtransfer_1_1MPIThreadCache_1_1Deleter.xhtml" target="_top" xlink:title="transfer::MPIThreadCache\l::Deleter">
<polygon fill="white" stroke="black" points="968,-207.683 968,-241.683 1100,-241.683 1100,-207.683 968,-207.683"/>
<text text-anchor="start" x="976" y="-228.683" font-family="Helvetica,sans-Serif" font-size="10.00">transfer::MPIThreadCache</text>
<text text-anchor="middle" x="1034" y="-215.683" font-family="Helvetica,sans-Serif" font-size="10.00">::Deleter</text>
</a>
</g>
<!-- Node1&#45;&gt;Node13 -->
<g id="edge42" class="edge"><title>Node1&#45;&gt;Node13</title>
<path fill="none" stroke="#9a32cd" stroke-dasharray="5,2" d="M795.173,-220.989C810.359,-226.789 828.776,-232.794 846,-235.683 886.144,-242.418 931.706,-240 967.922,-235.74"/>
<polygon fill="#9a32cd" stroke="#9a32cd" points="796.291,-217.668 785.705,-217.242 793.715,-224.177 796.291,-217.668"/>
<text text-anchor="middle" x="898" y="-243.683" font-family="Helvetica,sans-Serif" font-size="10.00"> m_parent</text>
</g>
<!-- Node2 -->
<g id="node2" class="node"><title>Node2</title>
<a xlink:href="classtransfer_1_1MPICache.xhtml" target="_top" xlink:title="transfer::MPICache\l\&lt; allocator::Default,\l false \&gt;">
<polygon fill="white" stroke="black" points="468.5,-183.183 468.5,-230.183 571.5,-230.183 571.5,-183.183 468.5,-183.183"/>
<text text-anchor="start" x="476.5" y="-217.183" font-family="Helvetica,sans-Serif" font-size="10.00">transfer::MPICache</text>
<text text-anchor="start" x="476.5" y="-204.183" font-family="Helvetica,sans-Serif" font-size="10.00">&lt; allocator::Default,</text>
<text text-anchor="middle" x="520" y="-191.183" font-family="Helvetica,sans-Serif" font-size="10.00"> false &gt;</text>
</a>
</g>
<!-- Node2&#45;&gt;Node1 -->
<g id="edge2" class="edge"><title>Node2&#45;&gt;Node1</title>
<path fill="none" stroke="#8b1a1a" d="M581.671,-206.683C616.533,-206.683 660.127,-206.683 695.719,-206.683"/>
<polygon fill="#8b1a1a" stroke="#8b1a1a" points="581.618,-203.184 571.618,-206.683 581.618,-210.184 581.618,-203.184"/>
</g>
<!-- Node3 -->
<g id="node4" class="node"><title>Node3</title>
<a xlink:href="classmpi_1_1MPIComm.xhtml" target="_top" xlink:title="mpi::MPIComm">
<polygon fill="white" stroke="black" points="248,-203.183 248,-224.183 334,-224.183 334,-203.183 248,-203.183"/>
<text text-anchor="middle" x="291" y="-211.183" font-family="Helvetica,sans-Serif" font-size="10.00">mpi::MPIComm</text>
</a>
</g>
<!-- Node3&#45;&gt;Node2 -->
<g id="edge4" class="edge"><title>Node3&#45;&gt;Node2</title>
<path fill="none" stroke="#9a32cd" stroke-dasharray="5,2" d="M344.262,-212.055C381.617,-210.913 431.294,-209.395 468.3,-208.264"/>
<polygon fill="#9a32cd" stroke="#9a32cd" points="343.962,-208.563 334.073,-212.367 344.175,-215.56 343.962,-208.563"/>
<text text-anchor="middle" x="400" y="-214.683" font-family="Helvetica,sans-Serif" font-size="10.00"> m_mpiComm</text>
</g>
<!-- Node4 -->
<g id="node6" class="node"><title>Node4</title>
<a xlink:href="classthreads_1_1PthreadMutex.xhtml" target="_top" xlink:title="threads::PthreadMutex">
<polygon fill="white" stroke="black" points="8,-203.183 8,-224.183 124,-224.183 124,-203.183 8,-203.183"/>
<text text-anchor="middle" x="66" y="-211.183" font-family="Helvetica,sans-Serif" font-size="10.00">threads::PthreadMutex</text>
</a>
</g>
<!-- Node4&#45;&gt;Node1 -->
<g id="edge18" class="edge"><title>Node4&#45;&gt;Node1</title>
<path fill="none" stroke="#9a32cd" stroke-dasharray="5,2" d="M120.991,-226.185C130.615,-227.979 140.567,-229.586 150,-230.683 338.99,-252.666 388.484,-256.544 578,-239.683 625.52,-235.456 679.136,-225.202 716.179,-217.237"/>
<polygon fill="#9a32cd" stroke="#9a32cd" points="121.6,-222.738 111.115,-224.261 120.261,-229.609 121.6,-222.738"/>
<text text-anchor="middle" x="400" y="-266.683" font-family="Helvetica,sans-Serif" font-size="10.00"> m_sendRecvMutex</text>
<text text-anchor="middle" x="400" y="-253.683" font-family="Helvetica,sans-Serif" font-size="10.00">m_mutexes</text>
</g>
<!-- Node4&#45;&gt;Node3 -->
<g id="edge6" class="edge"><title>Node4&#45;&gt;Node3</title>
<path fill="none" stroke="#9a32cd" stroke-dasharray="5,2" d="M134.438,-213.683C171.378,-213.683 215.846,-213.683 247.935,-213.683"/>
<polygon fill="#9a32cd" stroke="#9a32cd" points="134.236,-210.184 124.236,-213.683 134.236,-217.184 134.236,-210.184"/>
<text text-anchor="middle" x="188" y="-217.683" font-family="Helvetica,sans-Serif" font-size="10.00"> mpiLock</text>
</g>
<!-- Node5 -->
<g id="node8" class="node"><title>Node5</title>
<a xlink:href="classcache_1_1CacheManager.xhtml" target="_top" xlink:title="Manages a block cache. ">
<polygon fill="white" stroke="black" points="462.5,-143.183 462.5,-164.183 577.5,-164.183 577.5,-143.183 462.5,-143.183"/>
<text text-anchor="middle" x="520" y="-151.183" font-family="Helvetica,sans-Serif" font-size="10.00">cache::CacheManager</text>
</a>
</g>
<!-- Node4&#45;&gt;Node5 -->
<g id="edge10" class="edge"><title>Node4&#45;&gt;Node5</title>
<path fill="none" stroke="#9a32cd" stroke-dasharray="5,2" d="M126.334,-201.167C160.701,-194.372 204.629,-186.248 244,-180.683 319.202,-170.054 406.525,-162.272 462.475,-157.865"/>
<polygon fill="#9a32cd" stroke="#9a32cd" points="125.573,-197.75 116.449,-203.136 126.941,-204.615 125.573,-197.75"/>
<text text-anchor="middle" x="291" y="-184.683" font-family="Helvetica,sans-Serif" font-size="10.00"> m_blockMutexes</text>
</g>
<!-- Node5&#45;&gt;Node1 -->
<g id="edge8" class="edge"><title>Node5&#45;&gt;Node1</title>
<path fill="none" stroke="#9a32cd" stroke-dasharray="5,2" d="M578.084,-166.404C619.644,-175.506 674.922,-187.613 713.99,-196.169"/>
<polygon fill="#9a32cd" stroke="#9a32cd" points="578.618,-162.938 568.101,-164.218 577.12,-169.776 578.618,-162.938"/>
<text text-anchor="middle" x="637" y="-191.683" font-family="Helvetica,sans-Serif" font-size="10.00"> m_cacheManager</text>
</g>
<!-- Node6 -->
<g id="node11" class="node"><title>Node6</title>
<a xlink:href="classcache_1_1CacheList.xhtml" target="_top" xlink:title="Controls a list of blocks. ">
<polygon fill="white" stroke="black" points="244.5,-114.183 244.5,-135.183 337.5,-135.183 337.5,-114.183 244.5,-114.183"/>
<text text-anchor="middle" x="291" y="-122.183" font-family="Helvetica,sans-Serif" font-size="10.00">cache::CacheList</text>
</a>
</g>
<!-- Node6&#45;&gt;Node5 -->
<g id="edge12" class="edge"><title>Node6&#45;&gt;Node5</title>
<path fill="none" stroke="#9a32cd" stroke-dasharray="5,2" d="M347.668,-131.86C382.634,-136.288 427.357,-141.951 462.479,-146.399"/>
<polygon fill="#9a32cd" stroke="#9a32cd" points="347.978,-128.371 337.618,-130.587 347.099,-135.316 347.978,-128.371"/>
<text text-anchor="middle" x="400" y="-146.683" font-family="Helvetica,sans-Serif" font-size="10.00"> m_cacheList</text>
</g>
<!-- Node7 -->
<g id="node13" class="node"><title>Node7</title>
<a xlink:href="classcache_1_1LRU.xhtml" target="_top" xlink:title="cache::LRU">
<polygon fill="white" stroke="black" points="31.5,-71.1834 31.5,-92.1834 100.5,-92.1834 100.5,-71.1834 31.5,-71.1834"/>
<text text-anchor="middle" x="66" y="-79.1834" font-family="Helvetica,sans-Serif" font-size="10.00">cache::LRU</text>
</a>
</g>
<!-- Node7&#45;&gt;Node6 -->
<g id="edge14" class="edge"><title>Node7&#45;&gt;Node6</title>
<path fill="none" stroke="#9a32cd" stroke-dasharray="5,2" d="M110.733,-88.8529C142.884,-94.1662 187.22,-101.822 226,-109.683 232.697,-111.041 239.759,-112.57 246.663,-114.118"/>
<polygon fill="#9a32cd" stroke="#9a32cd" points="111.18,-85.3794 100.745,-87.2127 110.046,-92.2869 111.18,-85.3794"/>
<text text-anchor="middle" x="188" y="-113.683" font-family="Helvetica,sans-Serif" font-size="10.00"> m_lru</text>
</g>
<!-- Node8 -->
<g id="node15" class="node"><title>Node8</title>
<polygon fill="white" stroke="#bfbfbf" points="0.5,-111.183 0.5,-158.183 131.5,-158.183 131.5,-111.183 0.5,-111.183"/>
<text text-anchor="start" x="8.5" y="-145.183" font-family="Helvetica,sans-Serif" font-size="10.00">std::unordered_map</text>
<text text-anchor="start" x="8.5" y="-132.183" font-family="Helvetica,sans-Serif" font-size="10.00">&lt; unsigned long, unsigned</text>
<text text-anchor="middle" x="66" y="-119.183" font-family="Helvetica,sans-Serif" font-size="10.00"> long &gt;</text>
</g>
<!-- Node8&#45;&gt;Node6 -->
<g id="edge16" class="edge"><title>Node8&#45;&gt;Node6</title>
<path fill="none" stroke="#9a32cd" stroke-dasharray="5,2" d="M142.016,-131.305C175.87,-129.8 214.667,-128.076 244.181,-126.764"/>
<polygon fill="#9a32cd" stroke="#9a32cd" points="141.519,-127.823 131.684,-131.764 141.83,-134.817 141.519,-127.823"/>
<text text-anchor="middle" x="188" y="-134.683" font-family="Helvetica,sans-Serif" font-size="10.00"> m_blockToIndex</text>
</g>
<!-- Node9&#45;&gt;Node1 -->
<g id="edge20" class="edge"><title>Node9&#45;&gt;Node1</title>
<path fill="none" stroke="#9a32cd" stroke-dasharray="5,2" d="M957.829,-130.855C922.914,-134.155 881.494,-140.721 846,-153.683 818.465,-163.739 790.457,-183.812 774.748,-196.163"/>
<polygon fill="#9a32cd" stroke="#9a32cd" points="958.308,-134.327 967.966,-129.97 957.7,-127.353 958.308,-134.327"/>
<text text-anchor="middle" x="898" y="-157.683" font-family="Helvetica,sans-Serif" font-size="10.00"> m_adder</text>
</g>
<!-- Node10 -->
<g id="node20" class="node"><title>Node10</title>
<a xlink:href="classmpi_1_1Receiver.xhtml" target="_top" xlink:title="mpi::Receiver">
<polygon fill="white" stroke="black" points="723.5,-93.1834 723.5,-114.183 800.5,-114.183 800.5,-93.1834 723.5,-93.1834"/>
<text text-anchor="middle" x="762" y="-101.183" font-family="Helvetica,sans-Serif" font-size="10.00">mpi::Receiver</text>
</a>
</g>
<!-- Node10&#45;&gt;Node9 -->
<g id="edge22" class="edge"><title>Node10&#45;&gt;Node9</title>
<path fill="none" stroke="midnightblue" d="M793.445,-89.0689C808.912,-82.6669 828.049,-75.89 846,-72.6834 891.502,-64.5552 905.706,-59.4724 950,-72.6834 974.722,-80.057 998.934,-97.2874 1014.96,-110.513"/>
<polygon fill="midnightblue" stroke="midnightblue" points="791.671,-86.0216 783.86,-93.1805 794.43,-92.4547 791.671,-86.0216"/>
</g>
<!-- Node10&#45;&gt;Node11 -->
<g id="edge28" class="edge"><title>Node10&#45;&gt;Node11</title>
<path fill="none" stroke="midnightblue" d="M772.741,-84.4367C786.432,-62.1181 812.408,-26.5 846,-11.6834 891.323,8.30752 948.587,-1.895 987.937,-13.6273"/>
<polygon fill="midnightblue" stroke="midnightblue" points="769.704,-82.6964 767.639,-93.0882 775.734,-86.2521 769.704,-82.6964"/>
</g>
<!-- Node10&#45;&gt;Node12 -->
<g id="edge34" class="edge"><title>Node10&#45;&gt;Node12</title>
<path fill="none" stroke="midnightblue" d="M779.408,-121.974C793.941,-138.014 814.407,-162.492 828,-186.683 839.365,-206.91 829.091,-219.797 846,-235.683 881.152,-268.709 906.254,-246.371 950,-266.683 972.292,-277.034 995.51,-292.668 1011.87,-304.625"/>
<polygon fill="midnightblue" stroke="midnightblue" points="781.771,-119.375 772.416,-114.401 776.628,-124.123 781.771,-119.375"/>
</g>
<!-- Node10&#45;&gt;Node13 -->
<g id="edge40" class="edge"><title>Node10&#45;&gt;Node13</title>
<path fill="none" stroke="midnightblue" d="M792.267,-118.81C808.034,-126.32 827.781,-135.158 846,-141.683 891.065,-157.823 906.319,-150.105 950,-169.683 972.428,-179.736 995.633,-195.4 1011.95,-207.444"/>
<polygon fill="midnightblue" stroke="midnightblue" points="793.54,-115.538 783.013,-114.338 790.494,-121.84 793.54,-115.538"/>
</g>
<!-- Node11&#45;&gt;Node1 -->
<g id="edge26" class="edge"><title>Node11&#45;&gt;Node1</title>
<path fill="none" stroke="#9a32cd" stroke-dasharray="5,2" d="M971.582,-51.1743C933.256,-65.4906 884.338,-86.9937 846,-114.683 812.862,-138.618 782.869,-177.357 769.44,-195.995"/>
<polygon fill="#9a32cd" stroke="#9a32cd" points="972.9,-54.4187 981.084,-47.6901 970.491,-47.8465 972.9,-54.4187"/>
<text text-anchor="middle" x="898" y="-118.683" font-family="Helvetica,sans-Serif" font-size="10.00"> m_blockTransferer</text>
</g>
<!-- Node12&#45;&gt;Node1 -->
<g id="edge32" class="edge"><title>Node12&#45;&gt;Node1</title>
<path fill="none" stroke="#9a32cd" stroke-dasharray="5,2" d="M964.827,-301.498C928.718,-290.036 884.219,-274.438 846,-256.683 821.066,-245.1 794.051,-228.154 777.574,-217.271"/>
<polygon fill="#9a32cd" stroke="#9a32cd" points="964.188,-304.966 974.777,-304.62 966.283,-298.287 964.188,-304.966"/>
<text text-anchor="middle" x="898" y="-298.683" font-family="Helvetica,sans-Serif" font-size="10.00"> m_blockInfoResponder</text>
</g>
<!-- Node13&#45;&gt;Node1 -->
<g id="edge38" class="edge"><title>Node13&#45;&gt;Node1</title>
<path fill="none" stroke="#9a32cd" stroke-dasharray="5,2" d="M957.824,-219.642C917.057,-216.945 867.332,-213.654 828.191,-211.064"/>
<polygon fill="#9a32cd" stroke="#9a32cd" points="957.775,-223.147 967.984,-220.315 958.237,-216.162 957.775,-223.147"/>
<text text-anchor="middle" x="898" y="-222.683" font-family="Helvetica,sans-Serif" font-size="10.00"> m_deleter</text>
</g>
</g>
</svg>
