<?xml version="1.0" encoding="UTF-8" standalone="no"?>
<!DOCTYPE svg PUBLIC "-//W3C//DTD SVG 1.1//EN"
 "http://www.w3.org/Graphics/SVG/1.1/DTD/svg11.dtd">
<!-- Generated by graphviz version 2.26.3 (20100126.1600)
 -->
<!-- Title: numa::Numa Pages: 1 -->
<svg width="336pt" height="128pt"
 viewBox="0.00 0.00 336.00 128.00" xmlns="http://www.w3.org/2000/svg" xmlns:xlink="http://www.w3.org/1999/xlink">
<g id="graph1" class="graph" transform="scale(1 1) rotate(0) translate(4 124)">
<title>numa::Numa</title>
<polygon fill="white" stroke="white" points="-4,5 -4,-124 333,-124 333,5 -4,5"/>
<!-- Node1 -->
<g id="node1" class="node"><title>Node1</title>
<polygon fill="#bfbfbf" stroke="black" points="106.5,-0.5 106.5,-21.5 179.5,-21.5 179.5,-0.5 106.5,-0.5"/>
<text text-anchor="middle" x="143" y="-8.5" font-family="Helvetica,sans-Serif" font-size="10.00">numa::Numa</text>
</g>
<!-- Node2 -->
<g id="node2" class="node"><title>Node2</title>
<a xlink:href="classthreads_1_1Sync.xhtml" target="_top" xlink:title="Synchronizes a set of threads. ">
<polygon fill="white" stroke="black" points="-0.5,-91.5 -0.5,-112.5 76.5,-112.5 76.5,-91.5 -0.5,-91.5"/>
<text text-anchor="middle" x="38" y="-99.5" font-family="Helvetica,sans-Serif" font-size="10.00">threads::Sync</text>
</a>
</g>
<!-- Node2&#45;&gt;Node1 -->
<g id="edge2" class="edge"><title>Node2&#45;&gt;Node1</title>
<path fill="none" stroke="#9a32cd" stroke-dasharray="5,2" d="M41.3756,-81.5063C44.5733,-68.0916 50.6523,-51.0616 62,-40 73.9792,-28.3228 90.9805,-21.3123 106.317,-17.1203"/>
<polygon fill="#9a32cd" stroke="#9a32cd" points="37.9457,-80.8096 39.3832,-91.3065 44.8054,-82.2043 37.9457,-80.8096"/>
<text text-anchor="middle" x="100.5" y="-57" font-family="Helvetica,sans-Serif" font-size="10.00"> m_syncDomains</text>
<text text-anchor="middle" x="100.5" y="-44" font-family="Helvetica,sans-Serif" font-size="10.00">m_syncThreads</text>
</g>
<!-- Node3 -->
<g id="node4" class="node"><title>Node3</title>
<polygon fill="white" stroke="#bfbfbf" points="93.5,-91.5 93.5,-112.5 192.5,-112.5 192.5,-91.5 93.5,-91.5"/>
<text text-anchor="middle" x="143" y="-99.5" font-family="Helvetica,sans-Serif" font-size="10.00">std::vector&lt; bool &gt;</text>
</g>
<!-- Node3&#45;&gt;Node1 -->
<g id="edge4" class="edge"><title>Node3&#45;&gt;Node1</title>
<path fill="none" stroke="#9a32cd" stroke-dasharray="5,2" d="M143,-81.0488C143,-62.4328 143,-35.9913 143,-21.5013"/>
<polygon fill="#9a32cd" stroke="#9a32cd" points="139.5,-81.2037 143,-91.2038 146.5,-81.2038 139.5,-81.2037"/>
<text text-anchor="middle" x="184" y="-50.5" font-family="Helvetica,sans-Serif" font-size="10.00"> m_masterThreads</text>
</g>
<!-- Node4 -->
<g id="node6" class="node"><title>Node4</title>
<polygon fill="white" stroke="#bfbfbf" points="209.5,-85 209.5,-119 328.5,-119 328.5,-85 209.5,-85"/>
<text text-anchor="start" x="217.5" y="-106" font-family="Helvetica,sans-Serif" font-size="10.00">std::map&lt; int, unsigned</text>
<text text-anchor="middle" x="269" y="-93" font-family="Helvetica,sans-Serif" font-size="10.00"> int &gt;</text>
</g>
<!-- Node4&#45;&gt;Node1 -->
<g id="edge6" class="edge"><title>Node4&#45;&gt;Node1</title>
<path fill="none" stroke="#9a32cd" stroke-dasharray="5,2" d="M257.318,-75.947C250.601,-63.5454 241.082,-49.4063 229,-40 214.702,-28.8684 195.896,-21.8857 179.516,-17.5707"/>
<polygon fill="#9a32cd" stroke="#9a32cd" points="254.257,-77.6507 261.904,-84.9848 260.5,-74.4833 254.257,-77.6507"/>
<text text-anchor="middle" x="278" y="-50.5" font-family="Helvetica,sans-Serif" font-size="10.00"> m_domains</text>
</g>
</g>
</svg>
