<?xml version="1.0" encoding="UTF-8" standalone="no"?>
<!DOCTYPE svg PUBLIC "-//W3C//DTD SVG 1.1//EN"
 "http://www.w3.org/Graphics/SVG/1.1/DTD/svg11.dtd">
<!-- Generated by graphviz version 2.26.3 (20100126.1600)
 -->
<!-- Title: transfer::NumaCache Pages: 1 -->
<svg width="311pt" height="272pt"
 viewBox="0.00 0.00 311.00 272.00" xmlns="http://www.w3.org/2000/svg" xmlns:xlink="http://www.w3.org/1999/xlink">
<g id="graph1" class="graph" transform="scale(1 1) rotate(0) translate(4 268)">
<title>transfer::NumaCache</title>
<polygon fill="white" stroke="white" points="-4,5 -4,-268 308,-268 308,5 -4,5"/>
<!-- Node1 -->
<g id="node1" class="node"><title>Node1</title>
<polygon fill="#bfbfbf" stroke="black" points="58,-0.5 58,-21.5 168,-21.5 168,-0.5 58,-0.5"/>
<text text-anchor="middle" x="113" y="-8.5" font-family="Helvetica,sans-Serif" font-size="10.00">transfer::NumaCache</text>
</g>
<!-- Node2 -->
<g id="node2" class="node"><title>Node2</title>
<a xlink:href="classcache_1_1CacheManager.xhtml" target="_top" xlink:title="Manages a block cache. ">
<polygon fill="white" stroke="black" points="55.5,-72.5 55.5,-93.5 170.5,-93.5 170.5,-72.5 55.5,-72.5"/>
<text text-anchor="middle" x="113" y="-80.5" font-family="Helvetica,sans-Serif" font-size="10.00">cache::CacheManager</text>
</a>
</g>
<!-- Node2&#45;&gt;Node1 -->
<g id="edge2" class="edge"><title>Node2&#45;&gt;Node1</title>
<path fill="none" stroke="#9a32cd" stroke-dasharray="5,2" d="M113,-62.2348C113,-48.969 113,-32.3188 113,-21.6674"/>
<polygon fill="#9a32cd" stroke="#9a32cd" points="109.5,-62.3761 113,-72.3762 116.5,-62.3762 109.5,-62.3761"/>
<text text-anchor="middle" x="153.5" y="-44.5" font-family="Helvetica,sans-Serif" font-size="10.00"> m_cacheManager</text>
</g>
<!-- Node3 -->
<g id="node4" class="node"><title>Node3</title>
<a xlink:href="classthreads_1_1PthreadMutex.xhtml" target="_top" xlink:title="threads::PthreadMutex">
<polygon fill="white" stroke="black" points="0,-144.5 0,-165.5 116,-165.5 116,-144.5 0,-144.5"/>
<text text-anchor="middle" x="58" y="-152.5" font-family="Helvetica,sans-Serif" font-size="10.00">threads::PthreadMutex</text>
</a>
</g>
<!-- Node3&#45;&gt;Node2 -->
<g id="edge4" class="edge"><title>Node3&#45;&gt;Node2</title>
<path fill="none" stroke="#9a32cd" stroke-dasharray="5,2" d="M60.1402,-134.275C61.6966,-126.736 64.3793,-118.483 69,-112 74.4164,-104.401 82.5017,-98.2536 90.2693,-93.6075"/>
<polygon fill="#9a32cd" stroke="#9a32cd" points="56.6752,-133.781 58.6053,-144.198 63.5929,-134.851 56.6752,-133.781"/>
<text text-anchor="middle" x="108" y="-116.5" font-family="Helvetica,sans-Serif" font-size="10.00"> m_blockMutexes</text>
</g>
<!-- Node4 -->
<g id="node6" class="node"><title>Node4</title>
<a xlink:href="classcache_1_1CacheList.xhtml" target="_top" xlink:title="Controls a list of blocks. ">
<polygon fill="white" stroke="black" points="133.5,-144.5 133.5,-165.5 226.5,-165.5 226.5,-144.5 133.5,-144.5"/>
<text text-anchor="middle" x="180" y="-152.5" font-family="Helvetica,sans-Serif" font-size="10.00">cache::CacheList</text>
</a>
</g>
<!-- Node4&#45;&gt;Node2 -->
<g id="edge6" class="edge"><title>Node4&#45;&gt;Node2</title>
<path fill="none" stroke="#9a32cd" stroke-dasharray="5,2" d="M166.838,-136.102C161.092,-128.335 154.062,-119.437 147,-112 140.803,-105.474 133.241,-98.908 126.823,-93.678"/>
<polygon fill="#9a32cd" stroke="#9a32cd" points="164.025,-138.186 172.712,-144.253 169.704,-134.094 164.025,-138.186"/>
<text text-anchor="middle" x="187.5" y="-116.5" font-family="Helvetica,sans-Serif" font-size="10.00"> m_cacheList</text>
</g>
<!-- Node5 -->
<g id="node8" class="node"><title>Node5</title>
<a xlink:href="classcache_1_1LRU.xhtml" target="_top" xlink:title="cache::LRU">
<polygon fill="white" stroke="black" points="86.5,-229.5 86.5,-250.5 155.5,-250.5 155.5,-229.5 86.5,-229.5"/>
<text text-anchor="middle" x="121" y="-237.5" font-family="Helvetica,sans-Serif" font-size="10.00">cache::LRU</text>
</a>
</g>
<!-- Node5&#45;&gt;Node4 -->
<g id="edge8" class="edge"><title>Node5&#45;&gt;Node4</title>
<path fill="none" stroke="#9a32cd" stroke-dasharray="5,2" d="M134.455,-220.616C146.278,-203.582 163.043,-179.429 172.588,-165.678"/>
<polygon fill="#9a32cd" stroke="#9a32cd" points="131.299,-219.024 128.472,-229.235 137.05,-223.015 131.299,-219.024"/>
<text text-anchor="middle" x="173" y="-188.5" font-family="Helvetica,sans-Serif" font-size="10.00"> m_lru</text>
</g>
<!-- Node6 -->
<g id="node10" class="node"><title>Node6</title>
<polygon fill="white" stroke="#bfbfbf" points="172.5,-216.5 172.5,-263.5 303.5,-263.5 303.5,-216.5 172.5,-216.5"/>
<text text-anchor="start" x="180.5" y="-250.5" font-family="Helvetica,sans-Serif" font-size="10.00">std::unordered_map</text>
<text text-anchor="start" x="180.5" y="-237.5" font-family="Helvetica,sans-Serif" font-size="10.00">&lt; unsigned long, unsigned</text>
<text text-anchor="middle" x="238" y="-224.5" font-family="Helvetica,sans-Serif" font-size="10.00"> long &gt;</text>
</g>
<!-- Node6&#45;&gt;Node4 -->
<g id="edge10" class="edge"><title>Node6&#45;&gt;Node4</title>
<path fill="none" stroke="#9a32cd" stroke-dasharray="5,2" d="M216.079,-207.875C205.981,-193.076 194.663,-176.489 187.442,-165.906"/>
<polygon fill="#9a32cd" stroke="#9a32cd" points="213.316,-210.035 221.844,-216.323 219.098,-206.09 213.316,-210.035"/>
<text text-anchor="middle" x="247" y="-188.5" font-family="Helvetica,sans-Serif" font-size="10.00"> m_blockToIndex</text>
</g>
</g>
</svg>
