<?xml version="1.0" encoding="UTF-8" standalone="no"?>
<!DOCTYPE svg PUBLIC "-//W3C//DTD SVG 1.1//EN"
 "http://www.w3.org/Graphics/SVG/1.1/DTD/svg11.dtd">
<!-- Generated by graphviz version 2.26.3 (20100126.1600)
 -->
<!-- Title: G Pages: 1 -->
<svg width="1236pt" height="264pt"
 viewBox="0.00 0.00 1236.00 264.00" xmlns="http://www.w3.org/2000/svg" xmlns:xlink="http://www.w3.org/1999/xlink">
<g id="graph1" class="graph" transform="scale(1 1) rotate(0) translate(4 260)">
<title>G</title>
<polygon fill="white" stroke="white" points="-4,5 -4,-260 1233,-260 1233,5 -4,5"/>
<!-- Node1 -->
<g id="node1" class="node"><title>Node1</title>
<polygon fill="#bfbfbf" stroke="black" points="856,-174.5 856,-195.5 912,-195.5 912,-174.5 856,-174.5"/>
<text text-anchor="middle" x="884" y="-182.5" font-family="Helvetica,sans-Serif" font-size="10.00">grid::Grid</text>
</g>
<!-- Node2 -->
<g id="node2" class="node"><title>Node2</title>
<a xlink:href="classperf_1_1Counter.xhtml" target="_top" xlink:title="perf::Counter">
<polygon fill="white" stroke="black" points="630,-207.5 630,-228.5 704,-228.5 704,-207.5 630,-207.5"/>
<text text-anchor="middle" x="667" y="-215.5" font-family="Helvetica,sans-Serif" font-size="10.00">perf::Counter</text>
</a>
</g>
<!-- Node2&#45;&gt;Node1 -->
<g id="edge2" class="edge"><title>Node2&#45;&gt;Node1</title>
<path fill="none" stroke="#9a32cd" stroke-dasharray="5,2" d="M714.3,-210.807C757.505,-204.237 819.949,-194.74 855.808,-189.287"/>
<polygon fill="#9a32cd" stroke="#9a32cd" points="713.664,-207.363 704.304,-212.327 714.716,-214.284 713.664,-207.363"/>
<text text-anchor="middle" x="763" y="-211" font-family="Helvetica,sans-Serif" font-size="10.00"> m_counter</text>
</g>
<!-- Node3 -->
<g id="node4" class="node"><title>Node3</title>
<a xlink:href="classperf_1_1Counter_1_1NameToCounterMap.xhtml" target="_top" xlink:title="perf::Counter::NameToCounterMap">
<polygon fill="white" stroke="black" points="304,-209.5 304,-230.5 474,-230.5 474,-209.5 304,-209.5"/>
<text text-anchor="middle" x="389" y="-217.5" font-family="Helvetica,sans-Serif" font-size="10.00">perf::Counter::NameToCounterMap</text>
</a>
</g>
<!-- Node3&#45;&gt;Node2 -->
<g id="edge4" class="edge"><title>Node3&#45;&gt;Node2</title>
<path fill="none" stroke="#9a32cd" stroke-dasharray="5,2" d="M484.498,-219.313C534.466,-218.953 592.776,-218.534 629.784,-218.268"/>
<polygon fill="#9a32cd" stroke="#9a32cd" points="484.273,-215.814 474.298,-219.386 484.323,-222.814 484.273,-215.814"/>
<text text-anchor="middle" x="546" y="-223" font-family="Helvetica,sans-Serif" font-size="10.00"> NAME_TO_COUNTER</text>
</g>
<!-- Node4 -->
<g id="node6" class="node"><title>Node4</title>
<a xlink:href="classgrid_1_1GridContainer.xhtml" target="_top" xlink:title="grid::GridContainer">
<polygon fill="white" stroke="black" points="618,-40.5 618,-61.5 716,-61.5 716,-40.5 618,-40.5"/>
<text text-anchor="middle" x="667" y="-48.5" font-family="Helvetica,sans-Serif" font-size="10.00">grid::GridContainer</text>
</a>
</g>
<!-- Node4&#45;&gt;Node1 -->
<g id="edge6" class="edge"><title>Node4&#45;&gt;Node1</title>
<path fill="none" stroke="#9a32cd" stroke-dasharray="5,2" d="M692.581,-66.7964C737.333,-94.4314 828.687,-150.844 866.751,-174.349"/>
<polygon fill="#9a32cd" stroke="#9a32cd" points="694.375,-63.7909 684.028,-61.5148 690.697,-69.7469 694.375,-63.7909"/>
<text text-anchor="middle" x="763" y="-131" font-family="Helvetica,sans-Serif" font-size="10.00"> m_container</text>
</g>
<!-- Node8 -->
<g id="node14" class="node"><title>Node8</title>
<polygon fill="white" stroke="#bfbfbf" points="810,-78.5 810,-99.5 958,-99.5 958,-78.5 810,-78.5"/>
<text text-anchor="middle" x="884" y="-86.5" font-family="Helvetica,sans-Serif" font-size="10.00">std::vector&lt; GridContainer * &gt;</text>
</g>
<!-- Node4&#45;&gt;Node8 -->
<g id="edge16" class="edge"><title>Node4&#45;&gt;Node8</title>
<path fill="none" stroke="#9a32cd" stroke-dasharray="5,2" d="M726.242,-61.3743C756.524,-66.6771 793.305,-73.1179 823.731,-78.446"/>
<polygon fill="#9a32cd" stroke="#9a32cd" points="726.695,-57.9002 716.241,-59.6228 725.487,-64.7953 726.695,-57.9002"/>
<text text-anchor="middle" x="763" y="-77" font-family="Helvetica,sans-Serif" font-size="10.00"> elements</text>
</g>
<!-- Node5 -->
<g id="node8" class="node"><title>Node5</title>
<a xlink:href="classasagi_1_1Grid.xhtml" target="_top" xlink:title="C++ Interface for ASAGI.">
<polygon fill="white" stroke="black" points="357,-0.5 357,-21.5 421,-21.5 421,-0.5 357,-0.5"/>
<text text-anchor="middle" x="389" y="-8.5" font-family="Helvetica,sans-Serif" font-size="10.00">asagi::Grid</text>
</a>
</g>
<!-- Node5&#45;&gt;Node4 -->
<g id="edge8" class="edge"><title>Node5&#45;&gt;Node4</title>
<path fill="none" stroke="midnightblue" d="M431.336,-17.0916C481.491,-24.308 564.901,-36.3096 617.858,-43.9292"/>
<polygon fill="midnightblue" stroke="midnightblue" points="431.558,-13.5875 421.162,-15.6276 430.561,-20.5162 431.558,-13.5875"/>
</g>
<!-- Node6 -->
<g id="node10" class="node"><title>Node6</title>
<a xlink:href="classtypes_1_1Type.xhtml" target="_top" xlink:title="types::Type">
<polygon fill="white" stroke="black" points="355,-40.5 355,-61.5 423,-61.5 423,-40.5 355,-40.5"/>
<text text-anchor="middle" x="389" y="-48.5" font-family="Helvetica,sans-Serif" font-size="10.00">types::Type</text>
</a>
</g>
<!-- Node6&#45;&gt;Node4 -->
<g id="edge10" class="edge"><title>Node6&#45;&gt;Node4</title>
<path fill="none" stroke="#9a32cd" stroke-dasharray="5,2" d="M433.315,-51C483.584,-51 565.343,-51 617.62,-51"/>
<polygon fill="#9a32cd" stroke="#9a32cd" points="433.088,-47.5001 423.088,-51 433.088,-54.5001 433.088,-47.5001"/>
<text text-anchor="middle" x="546" y="-55" font-family="Helvetica,sans-Serif" font-size="10.00"> m_type</text>
</g>
<!-- Node7 -->
<g id="node12" class="node"><title>Node7</title>
<a xlink:href="classfortran_1_1PointerArray.xhtml" target="_top" xlink:title="fortran::PointerArray\&lt; GridContainer \&gt;">
<polygon fill="white" stroke="black" points="1046,-54.5 1046,-75.5 1228,-75.5 1228,-54.5 1046,-54.5"/>
<text text-anchor="middle" x="1137" y="-62.5" font-family="Helvetica,sans-Serif" font-size="10.00">fortran::PointerArray&lt; GridContainer &gt;</text>
</a>
</g>
<!-- Node7&#45;&gt;Node4 -->
<g id="edge12" class="edge"><title>Node7&#45;&gt;Node4</title>
<path fill="none" stroke="#9a32cd" stroke-dasharray="5,2" d="M1035.94,-59.3339C1010.51,-58.0689 983.257,-56.8517 958,-56 873.034,-53.1348 774.056,-51.8761 716.184,-51.3498"/>
<polygon fill="#9a32cd" stroke="#9a32cd" points="1035.8,-62.8312 1045.96,-59.8395 1036.15,-55.8401 1035.8,-62.8312"/>
<text text-anchor="middle" x="884" y="-60" font-family="Helvetica,sans-Serif" font-size="10.00"> m_pointers</text>
</g>
<!-- Node8&#45;&gt;Node7 -->
<g id="edge14" class="edge"><title>Node8&#45;&gt;Node7</title>
<path fill="none" stroke="#9a32cd" stroke-dasharray="5,2" d="M968.32,-81.0012C993.174,-78.6436 1020.48,-76.0533 1045.75,-73.6563"/>
<polygon fill="#9a32cd" stroke="#9a32cd" points="967.824,-77.5325 958.199,-81.9614 968.485,-84.5013 967.824,-77.5325"/>
<text text-anchor="middle" x="1002" y="-84" font-family="Helvetica,sans-Serif" font-size="10.00"> m_pointers</text>
</g>
<!-- Node9 -->
<g id="node17" class="node"><title>Node9</title>
<a xlink:href="classio_1_1NetCdfReader.xhtml" target="_top" xlink:title="io::NetCdfReader">
<polygon fill="white" stroke="black" points="620.5,-136.5 620.5,-157.5 713.5,-157.5 713.5,-136.5 620.5,-136.5"/>
<text text-anchor="middle" x="667" y="-144.5" font-family="Helvetica,sans-Serif" font-size="10.00">io::NetCdfReader</text>
</a>
</g>
<!-- Node9&#45;&gt;Node1 -->
<g id="edge18" class="edge"><title>Node9&#45;&gt;Node1</title>
<path fill="none" stroke="#9a32cd" stroke-dasharray="5,2" d="M723.48,-156.891C765.959,-164.329 822.373,-174.208 855.768,-180.056"/>
<polygon fill="#9a32cd" stroke="#9a32cd" points="724.006,-153.429 713.552,-155.152 722.798,-160.324 724.006,-153.429"/>
<text text-anchor="middle" x="763" y="-172" font-family="Helvetica,sans-Serif" font-size="10.00"> m_inputFile</text>
</g>
<!-- Node10 -->
<g id="node19" class="node"><title>Node10</title>
<a xlink:title="STL class.">
<polygon fill="white" stroke="#bfbfbf" points="164,-127.5 164,-148.5 224,-148.5 224,-127.5 164,-127.5"/>
<text text-anchor="middle" x="194" y="-135.5" font-family="Helvetica,sans-Serif" font-size="10.00">std::string</text>
</a>
</g>
<!-- Node10&#45;&gt;Node1 -->
<g id="edge30" class="edge"><title>Node10&#45;&gt;Node1</title>
<path fill="none" stroke="#9a32cd" stroke-dasharray="5,2" d="M207.183,-156.983C225.562,-181.587 261.461,-223.313 304,-240 319.409,-246.045 660.359,-243.314 716,-238 750.191,-234.735 759.103,-233.873 792,-224 817.09,-216.47 844.59,-204.254 862.928,-195.501"/>
<polygon fill="#9a32cd" stroke="#9a32cd" points="209.93,-154.809 201.224,-148.771 204.264,-158.92 209.93,-154.809"/>
<text text-anchor="middle" x="546" y="-247" font-family="Helvetica,sans-Serif" font-size="10.00"> m_variableName</text>
</g>
<!-- Node10&#45;&gt;Node9 -->
<g id="edge20" class="edge"><title>Node10&#45;&gt;Node9</title>
<path fill="none" stroke="#9a32cd" stroke-dasharray="5,2" d="M234.354,-138.768C321.691,-140.43 527.812,-144.352 620.465,-146.115"/>
<polygon fill="#9a32cd" stroke="#9a32cd" points="234.373,-135.268 224.308,-138.577 234.239,-142.266 234.373,-135.268"/>
<text text-anchor="middle" x="389" y="-147" font-family="Helvetica,sans-Serif" font-size="10.00"> m_filename</text>
</g>
<!-- Node13 -->
<g id="node25" class="node"><title>Node13</title>
<polygon fill="white" stroke="#bfbfbf" points="326.5,-80.5 326.5,-101.5 451.5,-101.5 451.5,-80.5 326.5,-80.5"/>
<text text-anchor="middle" x="389" y="-88.5" font-family="Helvetica,sans-Serif" font-size="10.00">std::vector&lt; std::string &gt;</text>
</g>
<!-- Node10&#45;&gt;Node13 -->
<g id="edge28" class="edge"><title>Node10&#45;&gt;Node13</title>
<path fill="none" stroke="#9a32cd" stroke-dasharray="5,2" d="M218.083,-122.119C225.488,-117.888 233.842,-113.738 242,-111 268.859,-101.986 299.777,-97.0252 326.307,-94.2994"/>
<polygon fill="#9a32cd" stroke="#9a32cd" points="216.051,-119.257 209.298,-127.42 219.668,-125.25 216.051,-119.257"/>
<text text-anchor="middle" x="264" y="-115" font-family="Helvetica,sans-Serif" font-size="10.00"> elements</text>
</g>
<!-- Node11 -->
<g id="node21" class="node"><title>Node11</title>
<a xlink:title="STL class.">
<polygon fill="white" stroke="#bfbfbf" points="0.5,-127.5 0.5,-148.5 125.5,-148.5 125.5,-127.5 0.5,-127.5"/>
<text text-anchor="middle" x="63" y="-135.5" font-family="Helvetica,sans-Serif" font-size="10.00">std::basic_string&lt; char &gt;</text>
</a>
</g>
<!-- Node11&#45;&gt;Node10 -->
<g id="edge22" class="edge"><title>Node11&#45;&gt;Node10</title>
<path fill="none" stroke="midnightblue" d="M136.065,-138C145.859,-138 155.423,-138 163.868,-138"/>
<polygon fill="midnightblue" stroke="midnightblue" points="135.814,-134.5 125.814,-138 135.814,-141.5 135.814,-134.5"/>
</g>
<!-- Node12 -->
<g id="node23" class="node"><title>Node12</title>
<polygon fill="white" stroke="#bfbfbf" points="335.5,-169.5 335.5,-190.5 442.5,-190.5 442.5,-169.5 335.5,-169.5"/>
<text text-anchor="middle" x="389" y="-177.5" font-family="Helvetica,sans-Serif" font-size="10.00">std::vector&lt; size_t &gt;</text>
</g>
<!-- Node12&#45;&gt;Node9 -->
<g id="edge24" class="edge"><title>Node12&#45;&gt;Node9</title>
<path fill="none" stroke="#9a32cd" stroke-dasharray="5,2" d="M452.562,-172.455C503.738,-166.38 574.486,-157.982 620.489,-152.521"/>
<polygon fill="#9a32cd" stroke="#9a32cd" points="452.119,-168.983 442.601,-173.637 452.944,-175.934 452.119,-168.983"/>
<text text-anchor="middle" x="546" y="-171" font-family="Helvetica,sans-Serif" font-size="10.00"> m_size</text>
</g>
<!-- Node13&#45;&gt;Node9 -->
<g id="edge26" class="edge"><title>Node13&#45;&gt;Node9</title>
<path fill="none" stroke="#9a32cd" stroke-dasharray="5,2" d="M461.9,-90.8184C503.192,-92.4594 555.356,-97.4939 600,-111 618.832,-116.697 638.439,-127.958 651.54,-136.376"/>
<polygon fill="#9a32cd" stroke="#9a32cd" points="461.76,-87.3118 451.647,-90.4712 461.523,-94.3078 461.76,-87.3118"/>
<text text-anchor="middle" x="546" y="-115" font-family="Helvetica,sans-Serif" font-size="10.00"> m_names</text>
</g>
</g>
</svg>
