<?xml version="1.0" encoding="UTF-8" standalone="no"?>
<!DOCTYPE svg PUBLIC "-//W3C//DTD SVG 1.1//EN"
 "http://www.w3.org/Graphics/SVG/1.1/DTD/svg11.dtd">
<!-- Generated by graphviz version 2.26.3 (20100126.1600)
 -->
<!-- Title: G Pages: 1 -->
<svg width="1416pt" height="290pt"
 viewBox="0.00 0.00 1416.00 290.00" xmlns="http://www.w3.org/2000/svg" xmlns:xlink="http://www.w3.org/1999/xlink">
<g id="graph1" class="graph" transform="scale(1 1) rotate(0) translate(4 286)">
<title>G</title>
<polygon fill="white" stroke="white" points="-4,5 -4,-286 1413,-286 1413,5 -4,5"/>
<!-- Node1 -->
<g id="node1" class="node"><title>Node1</title>
<polygon fill="#bfbfbf" stroke="black" points="1330.5,-124.5 1330.5,-145.5 1407.5,-145.5 1407.5,-124.5 1330.5,-124.5"/>
<text text-anchor="middle" x="1369" y="-132.5" font-family="Helvetica,sans-Serif" font-size="10.00">grid::MultiGrid</text>
</g>
<!-- Node2 -->
<g id="node2" class="node"><title>Node2</title>
<polygon fill="white" stroke="#bfbfbf" points="1084,-145.5 1084,-166.5 1190,-166.5 1190,-145.5 1084,-145.5"/>
<text text-anchor="middle" x="1137" y="-153.5" font-family="Helvetica,sans-Serif" font-size="10.00">std::vector&lt; Grid * &gt;</text>
</g>
<!-- Node2&#45;&gt;Node1 -->
<g id="edge2" class="edge"><title>Node2&#45;&gt;Node1</title>
<path fill="none" stroke="#9a32cd" stroke-dasharray="5,2" d="M1200.28,-150.272C1241.92,-146.503 1295.09,-141.691 1330.49,-138.485"/>
<polygon fill="#9a32cd" stroke="#9a32cd" points="1199.87,-146.795 1190.23,-151.182 1200.5,-153.766 1199.87,-146.795"/>
<text text-anchor="middle" x="1279" y="-150" font-family="Helvetica,sans-Serif" font-size="10.00"> m_grids</text>
</g>
<!-- Node3 -->
<g id="node4" class="node"><title>Node3</title>
<a xlink:href="classgrid_1_1Grid.xhtml" target="_top" xlink:title="Base class for a grid.">
<polygon fill="white" stroke="black" points="856,-145.5 856,-166.5 912,-166.5 912,-145.5 856,-145.5"/>
<text text-anchor="middle" x="884" y="-153.5" font-family="Helvetica,sans-Serif" font-size="10.00">grid::Grid</text>
</a>
</g>
<!-- Node3&#45;&gt;Node2 -->
<g id="edge4" class="edge"><title>Node3&#45;&gt;Node2</title>
<path fill="none" stroke="#9a32cd" stroke-dasharray="5,2" d="M922.09,-156C965.066,-156 1035.27,-156 1083.68,-156"/>
<polygon fill="#9a32cd" stroke="#9a32cd" points="922.042,-152.5 912.042,-156 922.042,-159.5 922.042,-152.5"/>
<text text-anchor="middle" x="1002" y="-160" font-family="Helvetica,sans-Serif" font-size="10.00"> elements</text>
</g>
<!-- Node4 -->
<g id="node6" class="node"><title>Node4</title>
<a xlink:href="classperf_1_1Counter.xhtml" target="_top" xlink:title="perf::Counter">
<polygon fill="white" stroke="black" points="630,-167.5 630,-188.5 704,-188.5 704,-167.5 630,-167.5"/>
<text text-anchor="middle" x="667" y="-175.5" font-family="Helvetica,sans-Serif" font-size="10.00">perf::Counter</text>
</a>
</g>
<!-- Node4&#45;&gt;Node3 -->
<g id="edge6" class="edge"><title>Node4&#45;&gt;Node3</title>
<path fill="none" stroke="#9a32cd" stroke-dasharray="5,2" d="M714.3,-173.205C757.505,-168.824 819.949,-162.494 855.808,-158.858"/>
<polygon fill="#9a32cd" stroke="#9a32cd" points="713.9,-169.727 704.304,-174.218 714.606,-176.691 713.9,-169.727"/>
<text text-anchor="middle" x="763" y="-174" font-family="Helvetica,sans-Serif" font-size="10.00"> m_counter</text>
</g>
<!-- Node5 -->
<g id="node8" class="node"><title>Node5</title>
<a xlink:href="classperf_1_1Counter_1_1NameToCounterMap.xhtml" target="_top" xlink:title="perf::Counter::NameToCounterMap">
<polygon fill="white" stroke="black" points="304,-167.5 304,-188.5 474,-188.5 474,-167.5 304,-167.5"/>
<text text-anchor="middle" x="389" y="-175.5" font-family="Helvetica,sans-Serif" font-size="10.00">perf::Counter::NameToCounterMap</text>
</a>
</g>
<!-- Node5&#45;&gt;Node4 -->
<g id="edge8" class="edge"><title>Node5&#45;&gt;Node4</title>
<path fill="none" stroke="#9a32cd" stroke-dasharray="5,2" d="M484.498,-178C534.466,-178 592.776,-178 629.784,-178"/>
<polygon fill="#9a32cd" stroke="#9a32cd" points="484.298,-174.5 474.298,-178 484.298,-181.5 484.298,-174.5"/>
<text text-anchor="middle" x="546" y="-182" font-family="Helvetica,sans-Serif" font-size="10.00"> NAME_TO_COUNTER</text>
</g>
<!-- Node6 -->
<g id="node10" class="node"><title>Node6</title>
<a xlink:href="classgrid_1_1GridContainer.xhtml" target="_top" xlink:title="grid::GridContainer">
<polygon fill="white" stroke="black" points="618,-233.5 618,-254.5 716,-254.5 716,-233.5 618,-233.5"/>
<text text-anchor="middle" x="667" y="-241.5" font-family="Helvetica,sans-Serif" font-size="10.00">grid::GridContainer</text>
</a>
</g>
<!-- Node6&#45;&gt;Node3 -->
<g id="edge10" class="edge"><title>Node6&#45;&gt;Node3</title>
<path fill="none" stroke="#9a32cd" stroke-dasharray="5,2" d="M702.556,-229.581C746.248,-211.863 819.333,-182.224 858.07,-166.516"/>
<polygon fill="#9a32cd" stroke="#9a32cd" points="701.127,-226.384 693.175,-233.385 703.758,-232.87 701.127,-226.384"/>
<text text-anchor="middle" x="763" y="-219" font-family="Helvetica,sans-Serif" font-size="10.00"> m_container</text>
</g>
<!-- Node10 -->
<g id="node18" class="node"><title>Node10</title>
<polygon fill="white" stroke="#bfbfbf" points="810,-223.5 810,-244.5 958,-244.5 958,-223.5 810,-223.5"/>
<text text-anchor="middle" x="884" y="-231.5" font-family="Helvetica,sans-Serif" font-size="10.00">std::vector&lt; GridContainer * &gt;</text>
</g>
<!-- Node6&#45;&gt;Node10 -->
<g id="edge20" class="edge"><title>Node6&#45;&gt;Node10</title>
<path fill="none" stroke="#9a32cd" stroke-dasharray="5,2" d="M726.242,-241.27C752.03,-240.082 782.531,-238.676 809.807,-237.419"/>
<polygon fill="#9a32cd" stroke="#9a32cd" points="726.069,-237.774 716.241,-241.731 726.391,-244.767 726.069,-237.774"/>
<text text-anchor="middle" x="763" y="-244" font-family="Helvetica,sans-Serif" font-size="10.00"> elements</text>
</g>
<!-- Node7 -->
<g id="node12" class="node"><title>Node7</title>
<a xlink:href="classasagi_1_1Grid.xhtml" target="_top" xlink:title="C++ Interface for ASAGI.">
<polygon fill="white" stroke="black" points="357,-220.5 357,-241.5 421,-241.5 421,-220.5 357,-220.5"/>
<text text-anchor="middle" x="389" y="-228.5" font-family="Helvetica,sans-Serif" font-size="10.00">asagi::Grid</text>
</a>
</g>
<!-- Node7&#45;&gt;Node6 -->
<g id="edge12" class="edge"><title>Node7&#45;&gt;Node6</title>
<path fill="none" stroke="midnightblue" d="M431.336,-232.98C481.491,-235.325 564.901,-239.226 617.858,-241.702"/>
<polygon fill="midnightblue" stroke="midnightblue" points="431.314,-229.475 421.162,-232.504 430.987,-236.467 431.314,-229.475"/>
</g>
<!-- Node8 -->
<g id="node14" class="node"><title>Node8</title>
<a xlink:href="classtypes_1_1Type.xhtml" target="_top" xlink:title="types::Type">
<polygon fill="white" stroke="black" points="355,-260.5 355,-281.5 423,-281.5 423,-260.5 355,-260.5"/>
<text text-anchor="middle" x="389" y="-268.5" font-family="Helvetica,sans-Serif" font-size="10.00">types::Type</text>
</a>
</g>
<!-- Node8&#45;&gt;Node6 -->
<g id="edge14" class="edge"><title>Node8&#45;&gt;Node6</title>
<path fill="none" stroke="#9a32cd" stroke-dasharray="5,2" d="M433.315,-266.696C483.584,-261.814 565.343,-253.873 617.62,-248.796"/>
<polygon fill="#9a32cd" stroke="#9a32cd" points="432.703,-263.239 423.088,-267.689 433.38,-270.206 432.703,-263.239"/>
<text text-anchor="middle" x="546" y="-264" font-family="Helvetica,sans-Serif" font-size="10.00"> m_type</text>
</g>
<!-- Node9 -->
<g id="node16" class="node"><title>Node9</title>
<a xlink:href="classfortran_1_1PointerArray.xhtml" target="_top" xlink:title="fortran::PointerArray\&lt; GridContainer \&gt;">
<polygon fill="white" stroke="black" points="1046,-247.5 1046,-268.5 1228,-268.5 1228,-247.5 1046,-247.5"/>
<text text-anchor="middle" x="1137" y="-255.5" font-family="Helvetica,sans-Serif" font-size="10.00">fortran::PointerArray&lt; GridContainer &gt;</text>
</a>
</g>
<!-- Node9&#45;&gt;Node6 -->
<g id="edge16" class="edge"><title>Node9&#45;&gt;Node6</title>
<path fill="none" stroke="#9a32cd" stroke-dasharray="5,2" d="M1035.67,-263.765C1033.09,-263.852 1030.53,-263.93 1028,-264 897.346,-267.593 863.91,-271.385 734,-257 728.229,-256.361 722.213,-255.49 716.257,-254.5"/>
<polygon fill="#9a32cd" stroke="#9a32cd" points="1035.86,-267.261 1045.72,-263.395 1035.6,-260.266 1035.86,-267.261"/>
<text text-anchor="middle" x="884" y="-271" font-family="Helvetica,sans-Serif" font-size="10.00"> m_pointers</text>
</g>
<!-- Node10&#45;&gt;Node9 -->
<g id="edge18" class="edge"><title>Node10&#45;&gt;Node9</title>
<path fill="none" stroke="#9a32cd" stroke-dasharray="5,2" d="M968.32,-241.999C993.174,-244.356 1020.48,-246.947 1045.75,-249.344"/>
<polygon fill="#9a32cd" stroke="#9a32cd" points="968.485,-238.499 958.199,-241.039 967.824,-245.467 968.485,-238.499"/>
<text text-anchor="middle" x="1002" y="-251" font-family="Helvetica,sans-Serif" font-size="10.00"> m_pointers</text>
</g>
<!-- Node11 -->
<g id="node21" class="node"><title>Node11</title>
<a xlink:href="classio_1_1NetCdfReader.xhtml" target="_top" xlink:title="io::NetCdfReader">
<polygon fill="white" stroke="black" points="620.5,-68.5 620.5,-89.5 713.5,-89.5 713.5,-68.5 620.5,-68.5"/>
<text text-anchor="middle" x="667" y="-76.5" font-family="Helvetica,sans-Serif" font-size="10.00">io::NetCdfReader</text>
</a>
</g>
<!-- Node11&#45;&gt;Node3 -->
<g id="edge22" class="edge"><title>Node11&#45;&gt;Node3</title>
<path fill="none" stroke="#9a32cd" stroke-dasharray="5,2" d="M723.389,-91.4945C745.115,-96.9276 769.985,-103.911 792,-112 817.925,-121.525 846.417,-135.781 864.721,-145.464"/>
<polygon fill="#9a32cd" stroke="#9a32cd" points="724.196,-88.0886 713.65,-89.109 722.53,-94.8877 724.196,-88.0886"/>
<text text-anchor="middle" x="763" y="-116" font-family="Helvetica,sans-Serif" font-size="10.00"> m_inputFile</text>
</g>
<!-- Node12 -->
<g id="node23" class="node"><title>Node12</title>
<a xlink:title="STL class.">
<polygon fill="white" stroke="#bfbfbf" points="164,-47.5 164,-68.5 224,-68.5 224,-47.5 164,-47.5"/>
<text text-anchor="middle" x="194" y="-55.5" font-family="Helvetica,sans-Serif" font-size="10.00">std::string</text>
</a>
</g>
<!-- Node12&#45;&gt;Node3 -->
<g id="edge34" class="edge"><title>Node12&#45;&gt;Node3</title>
<path fill="none" stroke="#9a32cd" stroke-dasharray="5,2" d="M216.332,-74.621C237.641,-89.4651 271.259,-110.315 304,-120 409.209,-151.123 754.31,-155.347 855.73,-155.914"/>
<polygon fill="#9a32cd" stroke="#9a32cd" points="218.166,-71.6305 207.992,-68.677 214.104,-77.331 218.166,-71.6305"/>
<text text-anchor="middle" x="546" y="-154" font-family="Helvetica,sans-Serif" font-size="10.00"> m_variableName</text>
</g>
<!-- Node12&#45;&gt;Node11 -->
<g id="edge24" class="edge"><title>Node12&#45;&gt;Node11</title>
<path fill="none" stroke="#9a32cd" stroke-dasharray="5,2" d="M234.53,-58.9218C288.999,-60.2479 388.829,-62.9843 474,-67 523.966,-69.3559 581.149,-73.0345 620.222,-75.698"/>
<polygon fill="#9a32cd" stroke="#9a32cd" points="234.34,-55.4164 224.259,-58.6755 234.172,-62.4144 234.34,-55.4164"/>
<text text-anchor="middle" x="389" y="-71" font-family="Helvetica,sans-Serif" font-size="10.00"> m_filename</text>
</g>
<!-- Node15 -->
<g id="node29" class="node"><title>Node15</title>
<polygon fill="white" stroke="#bfbfbf" points="326.5,-0.5 326.5,-21.5 451.5,-21.5 451.5,-0.5 326.5,-0.5"/>
<text text-anchor="middle" x="389" y="-8.5" font-family="Helvetica,sans-Serif" font-size="10.00">std::vector&lt; std::string &gt;</text>
</g>
<!-- Node12&#45;&gt;Node15 -->
<g id="edge32" class="edge"><title>Node12&#45;&gt;Node15</title>
<path fill="none" stroke="#9a32cd" stroke-dasharray="5,2" d="M218.083,-42.1186C225.488,-37.8879 233.842,-33.738 242,-31 268.859,-21.9855 299.777,-17.0252 326.307,-14.2994"/>
<polygon fill="#9a32cd" stroke="#9a32cd" points="216.051,-39.2567 209.298,-47.4205 219.668,-45.2498 216.051,-39.2567"/>
<text text-anchor="middle" x="264" y="-35" font-family="Helvetica,sans-Serif" font-size="10.00"> elements</text>
</g>
<!-- Node13 -->
<g id="node25" class="node"><title>Node13</title>
<a xlink:title="STL class.">
<polygon fill="white" stroke="#bfbfbf" points="0.5,-47.5 0.5,-68.5 125.5,-68.5 125.5,-47.5 0.5,-47.5"/>
<text text-anchor="middle" x="63" y="-55.5" font-family="Helvetica,sans-Serif" font-size="10.00">std::basic_string&lt; char &gt;</text>
</a>
</g>
<!-- Node13&#45;&gt;Node12 -->
<g id="edge26" class="edge"><title>Node13&#45;&gt;Node12</title>
<path fill="none" stroke="midnightblue" d="M136.065,-58C145.859,-58 155.423,-58 163.868,-58"/>
<polygon fill="midnightblue" stroke="midnightblue" points="135.814,-54.5001 125.814,-58 135.814,-61.5001 135.814,-54.5001"/>
</g>
<!-- Node14 -->
<g id="node27" class="node"><title>Node14</title>
<polygon fill="white" stroke="#bfbfbf" points="335.5,-89.5 335.5,-110.5 442.5,-110.5 442.5,-89.5 335.5,-89.5"/>
<text text-anchor="middle" x="389" y="-97.5" font-family="Helvetica,sans-Serif" font-size="10.00">std::vector&lt; size_t &gt;</text>
</g>
<!-- Node14&#45;&gt;Node11 -->
<g id="edge28" class="edge"><title>Node14&#45;&gt;Node11</title>
<path fill="none" stroke="#9a32cd" stroke-dasharray="5,2" d="M452.882,-95.1743C504.033,-91.3105 574.581,-85.9813 620.489,-82.5134"/>
<polygon fill="#9a32cd" stroke="#9a32cd" points="452.309,-91.7076 442.601,-95.951 452.836,-98.6877 452.309,-91.7076"/>
<text text-anchor="middle" x="546" y="-96" font-family="Helvetica,sans-Serif" font-size="10.00"> m_size</text>
</g>
<!-- Node15&#45;&gt;Node11 -->
<g id="edge30" class="edge"><title>Node15&#45;&gt;Node11</title>
<path fill="none" stroke="#9a32cd" stroke-dasharray="5,2" d="M461.917,-8.63026C503.56,-9.53295 556.065,-14.5588 600,-31 622.246,-39.3249 643.813,-57.036 656.228,-68.4603"/>
<polygon fill="#9a32cd" stroke="#9a32cd" points="461.898,-5.12973 451.849,-8.48698 461.798,-12.129 461.898,-5.12973"/>
<text text-anchor="middle" x="546" y="-35" font-family="Helvetica,sans-Serif" font-size="10.00"> m_names</text>
</g>
<!-- Node16 -->
<g id="node33" class="node"><title>Node16</title>
<a xlink:href="classgrid_1_1GridCreator.xhtml" target="_top" xlink:title="grid::GridCreator">
<polygon fill="white" stroke="black" points="1092.5,-105.5 1092.5,-126.5 1181.5,-126.5 1181.5,-105.5 1092.5,-105.5"/>
<text text-anchor="middle" x="1137" y="-113.5" font-family="Helvetica,sans-Serif" font-size="10.00">grid::GridCreator</text>
</a>
</g>
<!-- Node16&#45;&gt;Node1 -->
<g id="edge36" class="edge"><title>Node16&#45;&gt;Node1</title>
<path fill="none" stroke="#9a32cd" stroke-dasharray="5,2" d="M1192.22,-113.345C1226.81,-112.57 1272.22,-113.175 1312,-119 1320.24,-120.206 1328.97,-122.251 1337.06,-124.483"/>
<polygon fill="#9a32cd" stroke="#9a32cd" points="1191.75,-109.856 1181.85,-113.625 1191.94,-116.853 1191.75,-109.856"/>
<text text-anchor="middle" x="1279" y="-123" font-family="Helvetica,sans-Serif" font-size="10.00"> m_gridCreator</text>
</g>
</g>
</svg>
