<?xml version="1.0" encoding="UTF-8" standalone="no"?>
<!DOCTYPE svg PUBLIC "-//W3C//DTD SVG 1.1//EN"
 "http://www.w3.org/Graphics/SVG/1.1/DTD/svg11.dtd">
<!-- Generated by graphviz version 2.26.3 (20100126.1600)
 -->
<!-- Title: perf::Counter Pages: 1 -->
<svg width="200pt" height="248pt"
 viewBox="0.00 0.00 200.00 248.00" xmlns="http://www.w3.org/2000/svg" xmlns:xlink="http://www.w3.org/1999/xlink">
<g id="graph1" class="graph" transform="scale(1 1) rotate(0) translate(4 244)">
<title>perf::Counter</title>
<polygon fill="white" stroke="white" points="-4,5 -4,-244 197,-244 197,5 -4,5"/>
<!-- Node1 -->
<g id="node1" class="node"><title>Node1</title>
<polygon fill="#bfbfbf" stroke="black" points="48,-0.5 48,-21.5 122,-21.5 122,-0.5 48,-0.5"/>
<text text-anchor="middle" x="85" y="-8.5" font-family="Helvetica,sans-Serif" font-size="10.00">perf::Counter</text>
</g>
<!-- Node2 -->
<g id="node2" class="node"><title>Node2</title>
<a xlink:href="classperf_1_1Counter_1_1NameToCounterMap.xhtml" target="_top" xlink:title="perf::Counter::NameToCounterMap">
<polygon fill="white" stroke="black" points="0,-72.5 0,-93.5 170,-93.5 170,-72.5 0,-72.5"/>
<text text-anchor="middle" x="85" y="-80.5" font-family="Helvetica,sans-Serif" font-size="10.00">perf::Counter::NameToCounterMap</text>
</a>
</g>
<!-- Node2&#45;&gt;Node1 -->
<g id="edge2" class="edge"><title>Node2&#45;&gt;Node1</title>
<path fill="none" stroke="#9a32cd" stroke-dasharray="5,2" d="M85,-62.2348C85,-48.969 85,-32.3188 85,-21.6674"/>
<polygon fill="#9a32cd" stroke="#9a32cd" points="81.5001,-62.3761 85,-72.3762 88.5001,-62.3762 81.5001,-62.3761"/>
<text text-anchor="middle" x="138.5" y="-44.5" font-family="Helvetica,sans-Serif" font-size="10.00"> NAME_TO_COUNTER</text>
</g>
<!-- Node3 -->
<g id="node4" class="node"><title>Node3</title>
<a xlink:title="STL class. ">
<polygon fill="white" stroke="#bfbfbf" points="15,-133 15,-167 155,-167 155,-133 15,-133"/>
<text text-anchor="start" x="23" y="-154" font-family="Helvetica,sans-Serif" font-size="10.00">std::unordered_map</text>
<text text-anchor="middle" x="85" y="-141" font-family="Helvetica,sans-Serif" font-size="10.00">&lt; std::string, CounterType &gt;</text>
</a>
</g>
<!-- Node3&#45;&gt;Node2 -->
<g id="edge4" class="edge"><title>Node3&#45;&gt;Node2</title>
<path fill="none" stroke="midnightblue" d="M85,-122.534C85,-112.306 85,-101.301 85,-93.5056"/>
<polygon fill="midnightblue" stroke="midnightblue" points="81.5001,-122.746 85,-132.746 88.5001,-122.746 81.5001,-122.746"/>
</g>
<!-- Node4 -->
<g id="node6" class="node"><title>Node4</title>
<polygon fill="white" stroke="#bfbfbf" points="46.5,-218.5 46.5,-239.5 75.5,-239.5 75.5,-218.5 46.5,-218.5"/>
<text text-anchor="middle" x="61" y="-226.5" font-family="Helvetica,sans-Serif" font-size="10.00">K</text>
</g>
<!-- Node4&#45;&gt;Node3 -->
<g id="edge6" class="edge"><title>Node4&#45;&gt;Node3</title>
<path fill="none" stroke="#9a32cd" stroke-dasharray="5,2" d="M59.2353,-208.43C59.1987,-201.203 59.8311,-193.115 62,-186 63.9896,-179.473 67.5197,-172.988 71.226,-167.358"/>
<polygon fill="#9a32cd" stroke="#9a32cd" points="55.7425,-208.668 59.6925,-218.499 62.7353,-208.351 55.7425,-208.668"/>
<text text-anchor="middle" x="74.5" y="-190.5" font-family="Helvetica,sans-Serif" font-size="10.00"> keys</text>
</g>
<!-- Node5 -->
<g id="node8" class="node"><title>Node5</title>
<polygon fill="white" stroke="#bfbfbf" points="94.5,-218.5 94.5,-239.5 123.5,-239.5 123.5,-218.5 94.5,-218.5"/>
<text text-anchor="middle" x="109" y="-226.5" font-family="Helvetica,sans-Serif" font-size="10.00">T</text>
</g>
<!-- Node5&#45;&gt;Node3 -->
<g id="edge8" class="edge"><title>Node5&#45;&gt;Node3</title>
<path fill="none" stroke="#9a32cd" stroke-dasharray="5,2" d="M102.787,-208.549C98.8808,-195.691 93.8991,-179.293 90.2021,-167.124"/>
<polygon fill="#9a32cd" stroke="#9a32cd" points="99.5075,-209.795 105.763,-218.346 106.205,-207.76 99.5075,-209.795"/>
<text text-anchor="middle" x="120.5" y="-190.5" font-family="Helvetica,sans-Serif" font-size="10.00"> elements</text>
</g>
</g>
</svg>
