<?xml version="1.0" encoding="UTF-8" standalone="no"?>
<!DOCTYPE svg PUBLIC "-//W3C//DTD SVG 1.1//EN"
 "http://www.w3.org/Graphics/SVG/1.1/DTD/svg11.dtd">
<!-- Generated by graphviz version 2.26.3 (20100126.1600)
 -->
<!-- Title: cache::CacheManager Pages: 1 -->
<svg width="311pt" height="200pt"
 viewBox="0.00 0.00 311.00 200.00" xmlns="http://www.w3.org/2000/svg" xmlns:xlink="http://www.w3.org/1999/xlink">
<g id="graph1" class="graph" transform="scale(1 1) rotate(0) translate(4 196)">
<title>cache::CacheManager</title>
<polygon fill="white" stroke="white" points="-4,5 -4,-196 308,-196 308,5 -4,5"/>
<!-- Node1 -->
<g id="node1" class="node"><title>Node1</title>
<polygon fill="#bfbfbf" stroke="black" points="55.5,-0.5 55.5,-21.5 170.5,-21.5 170.5,-0.5 55.5,-0.5"/>
<text text-anchor="middle" x="113" y="-8.5" font-family="Helvetica,sans-Serif" font-size="10.00">cache::CacheManager</text>
</g>
<!-- Node2 -->
<g id="node2" class="node"><title>Node2</title>
<a xlink:href="classthreads_1_1PthreadMutex.xhtml" target="_top" xlink:title="threads::PthreadMutex">
<polygon fill="white" stroke="black" points="0,-72.5 0,-93.5 116,-93.5 116,-72.5 0,-72.5"/>
<text text-anchor="middle" x="58" y="-80.5" font-family="Helvetica,sans-Serif" font-size="10.00">threads::PthreadMutex</text>
</a>
</g>
<!-- Node2&#45;&gt;Node1 -->
<g id="edge2" class="edge"><title>Node2&#45;&gt;Node1</title>
<path fill="none" stroke="#9a32cd" stroke-dasharray="5,2" d="M60.1402,-62.2754C61.6966,-54.7362 64.3793,-46.4827 69,-40 74.4164,-32.401 82.5017,-26.2536 90.2693,-21.6075"/>
<polygon fill="#9a32cd" stroke="#9a32cd" points="56.6752,-61.7808 58.6053,-72.1983 63.5929,-62.8509 56.6752,-61.7808"/>
<text text-anchor="middle" x="108" y="-44.5" font-family="Helvetica,sans-Serif" font-size="10.00"> m_blockMutexes</text>
</g>
<!-- Node3 -->
<g id="node4" class="node"><title>Node3</title>
<a xlink:href="classcache_1_1CacheList.xhtml" target="_top" xlink:title="Controls a list of blocks. ">
<polygon fill="white" stroke="black" points="133.5,-72.5 133.5,-93.5 226.5,-93.5 226.5,-72.5 133.5,-72.5"/>
<text text-anchor="middle" x="180" y="-80.5" font-family="Helvetica,sans-Serif" font-size="10.00">cache::CacheList</text>
</a>
</g>
<!-- Node3&#45;&gt;Node1 -->
<g id="edge4" class="edge"><title>Node3&#45;&gt;Node1</title>
<path fill="none" stroke="#9a32cd" stroke-dasharray="5,2" d="M166.838,-64.102C161.092,-56.3347 154.062,-47.4367 147,-40 140.803,-33.4742 133.241,-26.908 126.823,-21.678"/>
<polygon fill="#9a32cd" stroke="#9a32cd" points="164.025,-66.1863 172.712,-72.2529 169.704,-62.0937 164.025,-66.1863"/>
<text text-anchor="middle" x="187.5" y="-44.5" font-family="Helvetica,sans-Serif" font-size="10.00"> m_cacheList</text>
</g>
<!-- Node4 -->
<g id="node6" class="node"><title>Node4</title>
<a xlink:href="classcache_1_1LRU.xhtml" target="_top" xlink:title="cache::LRU">
<polygon fill="white" stroke="black" points="86.5,-157.5 86.5,-178.5 155.5,-178.5 155.5,-157.5 86.5,-157.5"/>
<text text-anchor="middle" x="121" y="-165.5" font-family="Helvetica,sans-Serif" font-size="10.00">cache::LRU</text>
</a>
</g>
<!-- Node4&#45;&gt;Node3 -->
<g id="edge6" class="edge"><title>Node4&#45;&gt;Node3</title>
<path fill="none" stroke="#9a32cd" stroke-dasharray="5,2" d="M134.455,-148.616C146.278,-131.582 163.043,-107.429 172.588,-93.6779"/>
<polygon fill="#9a32cd" stroke="#9a32cd" points="131.299,-147.024 128.472,-157.235 137.05,-151.015 131.299,-147.024"/>
<text text-anchor="middle" x="173" y="-116.5" font-family="Helvetica,sans-Serif" font-size="10.00"> m_lru</text>
</g>
<!-- Node5 -->
<g id="node8" class="node"><title>Node5</title>
<polygon fill="white" stroke="#bfbfbf" points="172.5,-144.5 172.5,-191.5 303.5,-191.5 303.5,-144.5 172.5,-144.5"/>
<text text-anchor="start" x="180.5" y="-178.5" font-family="Helvetica,sans-Serif" font-size="10.00">std::unordered_map</text>
<text text-anchor="start" x="180.5" y="-165.5" font-family="Helvetica,sans-Serif" font-size="10.00">&lt; unsigned long, unsigned</text>
<text text-anchor="middle" x="238" y="-152.5" font-family="Helvetica,sans-Serif" font-size="10.00"> long &gt;</text>
</g>
<!-- Node5&#45;&gt;Node3 -->
<g id="edge8" class="edge"><title>Node5&#45;&gt;Node3</title>
<path fill="none" stroke="#9a32cd" stroke-dasharray="5,2" d="M216.079,-135.875C205.981,-121.076 194.663,-104.489 187.442,-93.9057"/>
<polygon fill="#9a32cd" stroke="#9a32cd" points="213.316,-138.035 221.844,-144.323 219.098,-134.09 213.316,-138.035"/>
<text text-anchor="middle" x="247" y="-116.5" font-family="Helvetica,sans-Serif" font-size="10.00"> m_blockToIndex</text>
</g>
</g>
</svg>
