<?xml version="1.0" encoding="UTF-8" standalone="no"?>
<!DOCTYPE svg PUBLIC "-//W3C//DTD SVG 1.1//EN"
 "http://www.w3.org/Graphics/SVG/1.1/DTD/svg11.dtd">
<!-- Generated by graphviz version 2.26.3 (20100126.1600)
 -->
<!-- Title: G Pages: 1 -->
<svg width="239pt" height="246pt"
 viewBox="0.00 0.00 239.00 246.00" xmlns="http://www.w3.org/2000/svg" xmlns:xlink="http://www.w3.org/1999/xlink">
<g id="graph1" class="graph" transform="scale(1 1) rotate(0) translate(4 242)">
<title>G</title>
<polygon fill="white" stroke="white" points="-4,5 -4,-242 236,-242 236,5 -4,5"/>
<!-- Node1 -->
<g id="node1" class="node"><title>Node1</title>
<polygon fill="#bfbfbf" stroke="black" points="106,-144.5 106,-165.5 204,-165.5 204,-144.5 106,-144.5"/>
<text text-anchor="middle" x="155" y="-152.5" font-family="Helvetica,sans-Serif" font-size="10.00">grid::GridContainer</text>
</g>
<!-- Node5 -->
<g id="node8" class="node"><title>Node5</title>
<polygon fill="white" stroke="#bfbfbf" points="0,-72.5 0,-93.5 148,-93.5 148,-72.5 0,-72.5"/>
<text text-anchor="middle" x="74" y="-80.5" font-family="Helvetica,sans-Serif" font-size="10.00">std::vector&lt; GridContainer * &gt;</text>
</g>
<!-- Node1&#45;&gt;Node5 -->
<g id="edge10" class="edge"><title>Node1&#45;&gt;Node5</title>
<path fill="none" stroke="#9a32cd" stroke-dasharray="5,2" d="M135.568,-137.728C120.141,-124.015 99.0621,-105.277 86.0009,-93.6674"/>
<polygon fill="#9a32cd" stroke="#9a32cd" points="133.249,-140.348 143.048,-144.376 137.899,-135.117 133.249,-140.348"/>
<text text-anchor="middle" x="143.5" y="-116.5" font-family="Helvetica,sans-Serif" font-size="10.00"> elements</text>
</g>
<!-- Node2 -->
<g id="node2" class="node"><title>Node2</title>
<a xlink:href="classasagi_1_1Grid.xhtml" target="_top" xlink:title="C++ Interface for ASAGI.">
<polygon fill="white" stroke="black" points="81,-216.5 81,-237.5 145,-237.5 145,-216.5 81,-216.5"/>
<text text-anchor="middle" x="113" y="-224.5" font-family="Helvetica,sans-Serif" font-size="10.00">asagi::Grid</text>
</a>
</g>
<!-- Node2&#45;&gt;Node1 -->
<g id="edge2" class="edge"><title>Node2&#45;&gt;Node1</title>
<path fill="none" stroke="midnightblue" d="M124.422,-207.419C132.266,-193.973 142.378,-176.638 148.777,-165.667"/>
<polygon fill="midnightblue" stroke="midnightblue" points="121.213,-205.975 119.197,-216.376 127.259,-209.502 121.213,-205.975"/>
</g>
<!-- Node3 -->
<g id="node4" class="node"><title>Node3</title>
<a xlink:href="classtypes_1_1Type.xhtml" target="_top" xlink:title="types::Type">
<polygon fill="white" stroke="black" points="163,-216.5 163,-237.5 231,-237.5 231,-216.5 163,-216.5"/>
<text text-anchor="middle" x="197" y="-224.5" font-family="Helvetica,sans-Serif" font-size="10.00">types::Type</text>
</a>
</g>
<!-- Node3&#45;&gt;Node1 -->
<g id="edge4" class="edge"><title>Node3&#45;&gt;Node1</title>
<path fill="none" stroke="#9a32cd" stroke-dasharray="5,2" d="M185.578,-207.419C177.734,-193.973 167.622,-176.638 161.223,-165.667"/>
<polygon fill="#9a32cd" stroke="#9a32cd" points="182.741,-209.502 190.803,-216.376 188.787,-205.975 182.741,-209.502"/>
<text text-anchor="middle" x="197" y="-188.5" font-family="Helvetica,sans-Serif" font-size="10.00"> m_type</text>
</g>
<!-- Node4 -->
<g id="node6" class="node"><title>Node4</title>
<a xlink:href="classfortran_1_1PointerArray.xhtml" target="_top" xlink:title="fortran::PointerArray\&lt; GridContainer \&gt;">
<polygon fill="white" stroke="black" points="49,-0.5 49,-21.5 231,-21.5 231,-0.5 49,-0.5"/>
<text text-anchor="middle" x="140" y="-8.5" font-family="Helvetica,sans-Serif" font-size="10.00">fortran::PointerArray&lt; GridContainer &gt;</text>
</a>
</g>
<!-- Node4&#45;&gt;Node1 -->
<g id="edge6" class="edge"><title>Node4&#45;&gt;Node1</title>
<path fill="none" stroke="#9a32cd" stroke-dasharray="5,2" d="M161.987,-28.9019C164.842,-32.2711 167.345,-36.0038 169,-40 183.627,-75.3127 177.523,-88.7402 169,-126 167.529,-132.431 164.44,-139.095 161.536,-144.41"/>
<polygon fill="#9a32cd" stroke="#9a32cd" points="164.438,-26.4022 154.92,-21.7473 159.457,-31.3214 164.438,-26.4022"/>
<text text-anchor="middle" x="203" y="-80.5" font-family="Helvetica,sans-Serif" font-size="10.00"> m_pointers</text>
</g>
<!-- Node5&#45;&gt;Node4 -->
<g id="edge8" class="edge"><title>Node5&#45;&gt;Node4</title>
<path fill="none" stroke="#9a32cd" stroke-dasharray="5,2" d="M90.5296,-64.9677C103.031,-51.3294 119.774,-33.0644 130.222,-21.6674"/>
<polygon fill="#9a32cd" stroke="#9a32cd" points="87.9158,-62.6395 83.7385,-72.3762 93.0759,-67.3696 87.9158,-62.6395"/>
<text text-anchor="middle" x="139" y="-44.5" font-family="Helvetica,sans-Serif" font-size="10.00"> m_pointers</text>
</g>
</g>
</svg>
