<?xml version="1.0" encoding="UTF-8" standalone="no"?>
<!DOCTYPE svg PUBLIC "-//W3C//DTD SVG 1.1//EN"
 "http://www.w3.org/Graphics/SVG/1.1/DTD/svg11.dtd">
<!-- Generated by graphviz version 2.26.3 (20100126.1600)
 -->
<!-- Title: transfer::MPIThreadCache::BlockInfoResponder Pages: 1 -->
<svg width="1140pt" height="446pt"
 viewBox="0.00 0.00 1140.00 446.00" xmlns="http://www.w3.org/2000/svg" xmlns:xlink="http://www.w3.org/1999/xlink">
<g id="graph1" class="graph" transform="scale(1 1) rotate(0) translate(4 442)">
<title>transfer::MPIThreadCache::BlockInfoResponder</title>
<polygon fill="white" stroke="white" points="-4,5 -4,-442 1137,-442 1137,5 -4,5"/>
<!-- Node1 -->
<g id="node1" class="node"><title>Node1</title>
<polygon fill="#bfbfbf" stroke="black" points="474,-273 474,-307 606,-307 606,-273 474,-273"/>
<text text-anchor="start" x="482" y="-294" font-family="Helvetica,sans-Serif" font-size="10.00">transfer::MPIThreadCache</text>
<text text-anchor="middle" x="540" y="-281" font-family="Helvetica,sans-Serif" font-size="10.00">::BlockInfoResponder</text>
</g>
<!-- Node3 -->
<g id="node4" class="node"><title>Node3</title>
<a xlink:href="classtransfer_1_1MPIThreadCache.xhtml" target="_top" xlink:title="transfer::MPIThreadCache">
<polygon fill="white" stroke="black" points="746,-262.5 746,-283.5 878,-283.5 878,-262.5 746,-262.5"/>
<text text-anchor="middle" x="812" y="-270.5" font-family="Helvetica,sans-Serif" font-size="10.00">transfer::MPIThreadCache</text>
</a>
</g>
<!-- Node1&#45;&gt;Node3 -->
<g id="edge36" class="edge"><title>Node1&#45;&gt;Node3</title>
<path fill="none" stroke="#9a32cd" stroke-dasharray="5,2" d="M616.358,-285.228C657.153,-282.678 706.875,-279.57 745.984,-277.126"/>
<polygon fill="#9a32cd" stroke="#9a32cd" points="615.953,-281.746 606.191,-285.863 616.39,-288.732 615.953,-281.746"/>
<text text-anchor="middle" x="676" y="-288" font-family="Helvetica,sans-Serif" font-size="10.00"> m_blockInfoResponder</text>
</g>
<!-- Node2 -->
<g id="node2" class="node"><title>Node2</title>
<a xlink:href="classmpi_1_1Receiver.xhtml" target="_top" xlink:title="mpi::Receiver">
<polygon fill="white" stroke="black" points="263.5,-354.5 263.5,-375.5 340.5,-375.5 340.5,-354.5 263.5,-354.5"/>
<text text-anchor="middle" x="302" y="-362.5" font-family="Helvetica,sans-Serif" font-size="10.00">mpi::Receiver</text>
</a>
</g>
<!-- Node2&#45;&gt;Node1 -->
<g id="edge2" class="edge"><title>Node2&#45;&gt;Node1</title>
<path fill="none" stroke="midnightblue" d="M344.946,-351.467C384.428,-339.025 443.137,-320.524 485.826,-307.072"/>
<polygon fill="midnightblue" stroke="midnightblue" points="343.829,-348.149 335.343,-354.493 345.933,-354.825 343.829,-348.149"/>
</g>
<!-- Node11 -->
<g id="node22" class="node"><title>Node11</title>
<a xlink:href="classtransfer_1_1MPIThreadCache_1_1Adder.xhtml" target="_top" xlink:title="transfer::MPIThreadCache\l::Adder">
<polygon fill="white" stroke="black" points="1000,-307 1000,-341 1132,-341 1132,-307 1000,-307"/>
<text text-anchor="start" x="1008" y="-328" font-family="Helvetica,sans-Serif" font-size="10.00">transfer::MPIThreadCache</text>
<text text-anchor="middle" x="1066" y="-315" font-family="Helvetica,sans-Serif" font-size="10.00">::Adder</text>
</a>
</g>
<!-- Node2&#45;&gt;Node11 -->
<g id="edge26" class="edge"><title>Node2&#45;&gt;Node11</title>
<path fill="none" stroke="midnightblue" d="M350.85,-365.894C385.277,-366.514 432.459,-367.342 474,-368 699.765,-371.574 764.294,-433.89 982,-374 1005.24,-367.608 1028.54,-352.923 1044.69,-341.112"/>
<polygon fill="midnightblue" stroke="midnightblue" points="350.657,-362.39 340.596,-365.709 350.531,-369.389 350.657,-362.39"/>
</g>
<!-- Node12 -->
<g id="node26" class="node"><title>Node12</title>
<a xlink:href="classtransfer_1_1MPIThreadCache_1_1BlockTransferer.xhtml" target="_top" xlink:title="transfer::MPIThreadCache\l::BlockTransferer">
<polygon fill="white" stroke="black" points="1000,-199 1000,-233 1132,-233 1132,-199 1000,-199"/>
<text text-anchor="start" x="1008" y="-220" font-family="Helvetica,sans-Serif" font-size="10.00">transfer::MPIThreadCache</text>
<text text-anchor="middle" x="1066" y="-207" font-family="Helvetica,sans-Serif" font-size="10.00">::BlockTransferer</text>
</a>
</g>
<!-- Node2&#45;&gt;Node12 -->
<g id="edge32" class="edge"><title>Node2&#45;&gt;Node12</title>
<path fill="none" stroke="midnightblue" d="M323.82,-348.375C373.627,-311.709 500.92,-225.16 624,-200 755.089,-173.203 912.503,-190.298 999.671,-203.949"/>
<polygon fill="midnightblue" stroke="midnightblue" points="321.636,-345.638 315.704,-354.416 325.816,-351.253 321.636,-345.638"/>
</g>
<!-- Node13 -->
<g id="node31" class="node"><title>Node13</title>
<a xlink:href="classtransfer_1_1MPIThreadCache_1_1Deleter.xhtml" target="_top" xlink:title="transfer::MPIThreadCache\l::Deleter">
<polygon fill="white" stroke="black" points="1000,-404 1000,-438 1132,-438 1132,-404 1000,-404"/>
<text text-anchor="start" x="1008" y="-425" font-family="Helvetica,sans-Serif" font-size="10.00">transfer::MPIThreadCache</text>
<text text-anchor="middle" x="1066" y="-412" font-family="Helvetica,sans-Serif" font-size="10.00">::Deleter</text>
</a>
</g>
<!-- Node2&#45;&gt;Node13 -->
<g id="edge40" class="edge"><title>Node2&#45;&gt;Node13</title>
<path fill="none" stroke="midnightblue" d="M350.578,-376.008C359.66,-377.844 369.096,-379.602 378,-381 606.67,-416.891 664.842,-422.984 896,-435 934.171,-436.984 943.908,-438.153 982,-435 987.746,-434.524 993.691,-433.869 999.641,-433.099"/>
<polygon fill="midnightblue" stroke="midnightblue" points="351.023,-372.526 340.52,-373.918 349.599,-379.38 351.023,-372.526"/>
</g>
<!-- Node3&#45;&gt;Node1 -->
<g id="edge4" class="edge"><title>Node3&#45;&gt;Node1</title>
<path fill="none" stroke="#9a32cd" stroke-dasharray="5,2" d="M751.635,-260.875C714.571,-255.313 666.261,-251.451 624,-259 608.391,-261.788 591.886,-267.276 577.676,-272.869"/>
<polygon fill="#9a32cd" stroke="#9a32cd" points="751.353,-264.373 761.777,-262.48 752.447,-257.459 751.353,-264.373"/>
<text text-anchor="middle" x="676" y="-263" font-family="Helvetica,sans-Serif" font-size="10.00"> m_parent</text>
</g>
<!-- Node3&#45;&gt;Node11 -->
<g id="edge28" class="edge"><title>Node3&#45;&gt;Node11</title>
<path fill="none" stroke="#9a32cd" stroke-dasharray="5,2" d="M888.555,-272.51C918.135,-273.845 952.016,-277.262 982,-285 1000.84,-289.862 1020.63,-298.84 1036.27,-306.958"/>
<polygon fill="#9a32cd" stroke="#9a32cd" points="888.41,-269.002 878.284,-272.121 888.145,-275.997 888.41,-269.002"/>
<text text-anchor="middle" x="939" y="-289" font-family="Helvetica,sans-Serif" font-size="10.00"> m_parent</text>
</g>
<!-- Node3&#45;&gt;Node12 -->
<g id="edge34" class="edge"><title>Node3&#45;&gt;Node12</title>
<path fill="none" stroke="#9a32cd" stroke-dasharray="5,2" d="M831.793,-255.719C847.873,-242.87 871.783,-226.345 896,-219 929.191,-208.933 967.727,-207.475 999.709,-208.844"/>
<polygon fill="#9a32cd" stroke="#9a32cd" points="829.191,-253.328 823.713,-262.397 833.651,-258.724 829.191,-253.328"/>
<text text-anchor="middle" x="939" y="-223" font-family="Helvetica,sans-Serif" font-size="10.00"> m_parent</text>
</g>
<!-- Node3&#45;&gt;Node13 -->
<g id="edge42" class="edge"><title>Node3&#45;&gt;Node13</title>
<path fill="none" stroke="#9a32cd" stroke-dasharray="5,2" d="M819.794,-293.198C831.688,-321.078 857.163,-370.662 896,-395 926.739,-414.263 966.594,-421.098 999.986,-422.962"/>
<polygon fill="#9a32cd" stroke="#9a32cd" points="822.924,-291.606 815.901,-283.673 816.444,-294.254 822.924,-291.606"/>
<text text-anchor="middle" x="939" y="-425" font-family="Helvetica,sans-Serif" font-size="10.00"> m_parent</text>
</g>
<!-- Node4 -->
<g id="node6" class="node"><title>Node4</title>
<a xlink:href="classtransfer_1_1MPICache.xhtml" target="_top" xlink:title="transfer::MPICache\l\&lt; allocator::Default \&gt;">
<polygon fill="white" stroke="black" points="485.5,-325 485.5,-359 594.5,-359 594.5,-325 485.5,-325"/>
<text text-anchor="start" x="493.5" y="-346" font-family="Helvetica,sans-Serif" font-size="10.00">transfer::MPICache</text>
<text text-anchor="middle" x="540" y="-333" font-family="Helvetica,sans-Serif" font-size="10.00">&lt; allocator::Default &gt;</text>
</a>
</g>
<!-- Node4&#45;&gt;Node3 -->
<g id="edge6" class="edge"><title>Node4&#45;&gt;Node3</title>
<path fill="none" stroke="#8b1a1a" d="M604.683,-329.675C641.134,-322.285 687.368,-312.168 728,-301 746.38,-295.948 766.662,-289.221 782.692,-283.627"/>
<polygon fill="#8b1a1a" stroke="#8b1a1a" points="603.788,-326.284 594.674,-331.685 605.167,-333.147 603.788,-326.284"/>
</g>
<!-- Node5 -->
<g id="node8" class="node"><title>Node5</title>
<a xlink:href="classcache_1_1CacheManager.xhtml" target="_top" xlink:title="Manages a block cache. ">
<polygon fill="white" stroke="black" points="482.5,-109.5 482.5,-130.5 597.5,-130.5 597.5,-109.5 482.5,-109.5"/>
<text text-anchor="middle" x="540" y="-117.5" font-family="Helvetica,sans-Serif" font-size="10.00">cache::CacheManager</text>
</a>
</g>
<!-- Node5&#45;&gt;Node3 -->
<g id="edge8" class="edge"><title>Node5&#45;&gt;Node3</title>
<path fill="none" stroke="#9a32cd" stroke-dasharray="5,2" d="M607.665,-131.003C645.291,-139.369 691.7,-153.568 728,-177 763.724,-200.06 793.112,-242.53 805.573,-262.324"/>
<polygon fill="#9a32cd" stroke="#9a32cd" points="608.313,-127.562 597.802,-128.897 606.851,-134.408 608.313,-127.562"/>
<text text-anchor="middle" x="676" y="-181" font-family="Helvetica,sans-Serif" font-size="10.00"> m_cacheManager</text>
</g>
<!-- Node6 -->
<g id="node10" class="node"><title>Node6</title>
<a xlink:href="classthreads_1_1PthreadMutex.xhtml" target="_top" xlink:title="threads::PthreadMutex">
<polygon fill="white" stroke="black" points="244,-109.5 244,-130.5 360,-130.5 360,-109.5 244,-109.5"/>
<text text-anchor="middle" x="302" y="-117.5" font-family="Helvetica,sans-Serif" font-size="10.00">threads::PthreadMutex</text>
</a>
</g>
<!-- Node6&#45;&gt;Node3 -->
<g id="edge22" class="edge"><title>Node6&#45;&gt;Node3</title>
<path fill="none" stroke="#9a32cd" stroke-dasharray="5,2" d="M348.624,-106.853C408.515,-91.8131 515.534,-71.185 606,-87 662.78,-96.9261 683.595,-94.2484 728,-131 773.014,-168.256 799.628,-236.307 808.582,-262.415"/>
<polygon fill="#9a32cd" stroke="#9a32cd" points="347.53,-103.521 338.715,-109.399 349.272,-110.3 347.53,-103.521"/>
<text text-anchor="middle" x="540" y="-91" font-family="Helvetica,sans-Serif" font-size="10.00"> m_mutexes</text>
</g>
<!-- Node6&#45;&gt;Node5 -->
<g id="edge10" class="edge"><title>Node6&#45;&gt;Node5</title>
<path fill="none" stroke="#9a32cd" stroke-dasharray="5,2" d="M370.482,-120C405.908,-120 448.668,-120 482.38,-120"/>
<polygon fill="#9a32cd" stroke="#9a32cd" points="370.221,-116.5 360.221,-120 370.221,-123.5 370.221,-116.5"/>
<text text-anchor="middle" x="417" y="-124" font-family="Helvetica,sans-Serif" font-size="10.00"> m_blockMutexes</text>
</g>
<!-- Node10 -->
<g id="node18" class="node"><title>Node10</title>
<a xlink:href="classmpi_1_1MPIComm.xhtml" target="_top" xlink:title="mpi::MPIComm">
<polygon fill="white" stroke="black" points="497,-149.5 497,-170.5 583,-170.5 583,-149.5 497,-149.5"/>
<text text-anchor="middle" x="540" y="-157.5" font-family="Helvetica,sans-Serif" font-size="10.00">mpi::MPIComm</text>
</a>
</g>
<!-- Node6&#45;&gt;Node10 -->
<g id="edge20" class="edge"><title>Node6&#45;&gt;Node10</title>
<path fill="none" stroke="#9a32cd" stroke-dasharray="5,2" d="M359.938,-132.575C366.027,-133.784 372.133,-134.949 378,-136 418.16,-143.195 464.2,-149.865 496.908,-154.338"/>
<polygon fill="#9a32cd" stroke="#9a32cd" points="360.249,-129.067 349.753,-130.513 358.86,-135.928 360.249,-129.067"/>
<text text-anchor="middle" x="417" y="-152" font-family="Helvetica,sans-Serif" font-size="10.00"> mpiLock</text>
</g>
<!-- Node7 -->
<g id="node12" class="node"><title>Node7</title>
<a xlink:href="classcache_1_1CacheList.xhtml" target="_top" xlink:title="Controls a list of blocks. ">
<polygon fill="white" stroke="black" points="255.5,-39.5 255.5,-60.5 348.5,-60.5 348.5,-39.5 255.5,-39.5"/>
<text text-anchor="middle" x="302" y="-47.5" font-family="Helvetica,sans-Serif" font-size="10.00">cache::CacheList</text>
</a>
</g>
<!-- Node7&#45;&gt;Node5 -->
<g id="edge12" class="edge"><title>Node7&#45;&gt;Node5</title>
<path fill="none" stroke="#9a32cd" stroke-dasharray="5,2" d="M347.525,-63.3899C393.131,-76.8034 462.392,-97.1742 504.209,-109.473"/>
<polygon fill="#9a32cd" stroke="#9a32cd" points="348.47,-60.0195 337.889,-60.5555 346.495,-66.735 348.47,-60.0195"/>
<text text-anchor="middle" x="417" y="-97" font-family="Helvetica,sans-Serif" font-size="10.00"> m_cacheList</text>
</g>
<!-- Node8 -->
<g id="node14" class="node"><title>Node8</title>
<a xlink:href="classcache_1_1LRU.xhtml" target="_top" xlink:title="cache::LRU">
<polygon fill="white" stroke="black" points="31.5,-66.5 31.5,-87.5 100.5,-87.5 100.5,-66.5 31.5,-66.5"/>
<text text-anchor="middle" x="66" y="-74.5" font-family="Helvetica,sans-Serif" font-size="10.00">cache::LRU</text>
</a>
</g>
<!-- Node8&#45;&gt;Node7 -->
<g id="edge14" class="edge"><title>Node8&#45;&gt;Node7</title>
<path fill="none" stroke="#9a32cd" stroke-dasharray="5,2" d="M110.618,-71.8955C151.92,-67.1702 213.113,-60.1693 255.122,-55.3631"/>
<polygon fill="#9a32cd" stroke="#9a32cd" points="110.107,-68.431 100.569,-73.0451 110.902,-75.3856 110.107,-68.431"/>
<text text-anchor="middle" x="188" y="-70" font-family="Helvetica,sans-Serif" font-size="10.00"> m_lru</text>
</g>
<!-- Node9 -->
<g id="node16" class="node"><title>Node9</title>
<polygon fill="white" stroke="#bfbfbf" points="0.5,-0.5 0.5,-47.5 131.5,-47.5 131.5,-0.5 0.5,-0.5"/>
<text text-anchor="start" x="8.5" y="-34.5" font-family="Helvetica,sans-Serif" font-size="10.00">std::unordered_map</text>
<text text-anchor="start" x="8.5" y="-21.5" font-family="Helvetica,sans-Serif" font-size="10.00">&lt; unsigned long, unsigned</text>
<text text-anchor="middle" x="66" y="-8.5" font-family="Helvetica,sans-Serif" font-size="10.00"> long &gt;</text>
</g>
<!-- Node9&#45;&gt;Node7 -->
<g id="edge16" class="edge"><title>Node9&#45;&gt;Node7</title>
<path fill="none" stroke="#9a32cd" stroke-dasharray="5,2" d="M142.066,-32.3801C179.333,-36.4859 223.016,-41.2984 255.304,-44.8555"/>
<polygon fill="#9a32cd" stroke="#9a32cd" points="142.062,-28.8587 131.739,-31.2424 141.296,-35.8166 142.062,-28.8587"/>
<text text-anchor="middle" x="188" y="-45" font-family="Helvetica,sans-Serif" font-size="10.00"> m_blockToIndex</text>
</g>
<!-- Node10&#45;&gt;Node3 -->
<g id="edge18" class="edge"><title>Node10&#45;&gt;Node3</title>
<path fill="none" stroke="#9a32cd" stroke-dasharray="5,2" d="M575.776,-174.452C613.651,-189.8 675.145,-214.852 728,-237 748.194,-245.462 771.026,-255.262 787.783,-262.499"/>
<polygon fill="#9a32cd" stroke="#9a32cd" points="576.793,-171.089 566.211,-170.58 574.166,-177.577 576.793,-171.089"/>
<text text-anchor="middle" x="676" y="-241" font-family="Helvetica,sans-Serif" font-size="10.00"> m_mpiComm</text>
</g>
<!-- Node11&#45;&gt;Node3 -->
<g id="edge24" class="edge"><title>Node11&#45;&gt;Node3</title>
<path fill="none" stroke="#9a32cd" stroke-dasharray="5,2" d="M989.422,-317.444C959.976,-314.05 926.193,-309.087 896,-302 876.174,-297.346 854.461,-289.781 838.077,-283.545"/>
<polygon fill="#9a32cd" stroke="#9a32cd" points="989.318,-320.954 999.644,-318.58 990.091,-313.997 989.318,-320.954"/>
<text text-anchor="middle" x="939" y="-320" font-family="Helvetica,sans-Serif" font-size="10.00"> m_adder</text>
</g>
<!-- Node12&#45;&gt;Node3 -->
<g id="edge30" class="edge"><title>Node12&#45;&gt;Node3</title>
<path fill="none" stroke="#9a32cd" stroke-dasharray="5,2" d="M989.991,-233.057C947.381,-242.619 895.587,-254.242 858.884,-262.479"/>
<polygon fill="#9a32cd" stroke="#9a32cd" points="990.779,-236.467 999.77,-230.863 989.246,-229.637 990.779,-236.467"/>
<text text-anchor="middle" x="939" y="-256" font-family="Helvetica,sans-Serif" font-size="10.00"> m_blockTransferer</text>
</g>
<!-- Node13&#45;&gt;Node3 -->
<g id="edge38" class="edge"><title>Node13&#45;&gt;Node3</title>
<path fill="none" stroke="#9a32cd" stroke-dasharray="5,2" d="M1019.94,-399.373C985.178,-382.525 936.685,-357.886 896,-333 870.163,-317.196 841.831,-296.11 825.558,-283.603"/>
<polygon fill="#9a32cd" stroke="#9a32cd" points="1018.83,-402.725 1029.36,-403.912 1021.87,-396.419 1018.83,-402.725"/>
<text text-anchor="middle" x="939" y="-382" font-family="Helvetica,sans-Serif" font-size="10.00"> m_deleter</text>
</g>
</g>
</svg>
