<?xml version="1.0" encoding="UTF-8" standalone="no"?>
<!DOCTYPE svg PUBLIC "-//W3C//DTD SVG 1.1//EN"
 "http://www.w3.org/Graphics/SVG/1.1/DTD/svg11.dtd">
<!-- Generated by graphviz version 2.26.3 (20100126.1600)
 -->
<!-- Title: G Pages: 1 -->
<svg width="1290pt" height="317pt"
 viewBox="0.00 0.00 1290.00 317.00" xmlns="http://www.w3.org/2000/svg" xmlns:xlink="http://www.w3.org/1999/xlink">
<g id="graph1" class="graph" transform="scale(1 1) rotate(0) translate(4 313)">
<title>G</title>
<polygon fill="white" stroke="white" points="-4,5 -4,-313 1287,-313 1287,5 -4,5"/>
<!-- Node1 -->
<g id="node1" class="node"><title>Node1</title>
<polygon fill="#bfbfbf" stroke="black" points="1137,-74.5 1137,-95.5 1245,-95.5 1245,-74.5 1137,-74.5"/>
<text text-anchor="middle" x="1191" y="-82.5" font-family="Helvetica,sans-Serif" font-size="10.00">grid::LocalCacheGrid</text>
</g>
<!-- Node2 -->
<g id="node2" class="node"><title>Node2</title>
<a xlink:href="classgrid_1_1Grid.xhtml" target="_top" xlink:title="Base class for a grid.">
<polygon fill="white" stroke="black" points="870,-125.5 870,-146.5 926,-146.5 926,-125.5 870,-125.5"/>
<text text-anchor="middle" x="898" y="-133.5" font-family="Helvetica,sans-Serif" font-size="10.00">grid::Grid</text>
</a>
</g>
<!-- Node2&#45;&gt;Node1 -->
<g id="edge2" class="edge"><title>Node2&#45;&gt;Node1</title>
<path fill="none" stroke="midnightblue" d="M936.073,-129.373C987.234,-120.468 1078.47,-104.588 1136.78,-94.4369"/>
<polygon fill="midnightblue" stroke="midnightblue" points="935.346,-125.947 926.094,-131.11 936.546,-132.843 935.346,-125.947"/>
</g>
<!-- Node3 -->
<g id="node4" class="node"><title>Node3</title>
<a xlink:href="classperf_1_1Counter.xhtml" target="_top" xlink:title="perf::Counter">
<polygon fill="white" stroke="black" points="630,-186.5 630,-207.5 704,-207.5 704,-186.5 630,-186.5"/>
<text text-anchor="middle" x="667" y="-194.5" font-family="Helvetica,sans-Serif" font-size="10.00">perf::Counter</text>
</a>
</g>
<!-- Node3&#45;&gt;Node2 -->
<g id="edge4" class="edge"><title>Node3&#45;&gt;Node2</title>
<path fill="none" stroke="#9a32cd" stroke-dasharray="5,2" d="M714.004,-184.588C760.751,-172.243 830.933,-153.71 869.715,-143.469"/>
<polygon fill="#9a32cd" stroke="#9a32cd" points="712.889,-181.262 704.114,-187.199 714.676,-188.03 712.889,-181.262"/>
<text text-anchor="middle" x="763" y="-182" font-family="Helvetica,sans-Serif" font-size="10.00"> m_counter</text>
</g>
<!-- Node4 -->
<g id="node6" class="node"><title>Node4</title>
<a xlink:href="classperf_1_1Counter_1_1NameToCounterMap.xhtml" target="_top" xlink:title="perf::Counter::NameToCounterMap">
<polygon fill="white" stroke="black" points="304,-207.5 304,-228.5 474,-228.5 474,-207.5 304,-207.5"/>
<text text-anchor="middle" x="389" y="-215.5" font-family="Helvetica,sans-Serif" font-size="10.00">perf::Counter::NameToCounterMap</text>
</a>
</g>
<!-- Node4&#45;&gt;Node3 -->
<g id="edge6" class="edge"><title>Node4&#45;&gt;Node3</title>
<path fill="none" stroke="#9a32cd" stroke-dasharray="5,2" d="M484.498,-210.786C534.466,-207.012 592.776,-202.607 629.784,-199.811"/>
<polygon fill="#9a32cd" stroke="#9a32cd" points="484.006,-207.313 474.298,-211.557 484.534,-214.293 484.006,-207.313"/>
<text text-anchor="middle" x="546" y="-213" font-family="Helvetica,sans-Serif" font-size="10.00"> NAME_TO_COUNTER</text>
</g>
<!-- Node5 -->
<g id="node8" class="node"><title>Node5</title>
<a xlink:href="classgrid_1_1GridContainer.xhtml" target="_top" xlink:title="grid::GridContainer">
<polygon fill="white" stroke="black" points="618,-247.5 618,-268.5 716,-268.5 716,-247.5 618,-247.5"/>
<text text-anchor="middle" x="667" y="-255.5" font-family="Helvetica,sans-Serif" font-size="10.00">grid::GridContainer</text>
</a>
</g>
<!-- Node5&#45;&gt;Node2 -->
<g id="edge8" class="edge"><title>Node5&#45;&gt;Node2</title>
<path fill="none" stroke="#9a32cd" stroke-dasharray="5,2" d="M697.961,-242.837C723.367,-230.288 760.203,-211.853 792,-195 822.891,-178.627 858.29,-158.68 879.362,-146.678"/>
<polygon fill="#9a32cd" stroke="#9a32cd" points="696.24,-239.783 688.817,-247.342 699.334,-246.062 696.24,-239.783"/>
<text text-anchor="middle" x="763" y="-228" font-family="Helvetica,sans-Serif" font-size="10.00"> m_container</text>
</g>
<!-- Node9 -->
<g id="node16" class="node"><title>Node9</title>
<polygon fill="white" stroke="#bfbfbf" points="824,-235.5 824,-256.5 972,-256.5 972,-235.5 824,-235.5"/>
<text text-anchor="middle" x="898" y="-243.5" font-family="Helvetica,sans-Serif" font-size="10.00">std::vector&lt; GridContainer * &gt;</text>
</g>
<!-- Node5&#45;&gt;Node9 -->
<g id="edge18" class="edge"><title>Node5&#45;&gt;Node9</title>
<path fill="none" stroke="#9a32cd" stroke-dasharray="5,2" d="M726.474,-254.91C756.137,-253.369 792.306,-251.491 823.77,-249.856"/>
<polygon fill="#9a32cd" stroke="#9a32cd" points="726.077,-251.426 716.272,-255.44 726.44,-258.417 726.077,-251.426"/>
<text text-anchor="middle" x="763" y="-258" font-family="Helvetica,sans-Serif" font-size="10.00"> elements</text>
</g>
<!-- Node6 -->
<g id="node10" class="node"><title>Node6</title>
<a xlink:href="classasagi_1_1Grid.xhtml" target="_top" xlink:title="C++ Interface for ASAGI.">
<polygon fill="white" stroke="black" points="357,-247.5 357,-268.5 421,-268.5 421,-247.5 357,-247.5"/>
<text text-anchor="middle" x="389" y="-255.5" font-family="Helvetica,sans-Serif" font-size="10.00">asagi::Grid</text>
</a>
</g>
<!-- Node6&#45;&gt;Node5 -->
<g id="edge10" class="edge"><title>Node6&#45;&gt;Node5</title>
<path fill="none" stroke="midnightblue" d="M431.336,-258C481.491,-258 564.901,-258 617.858,-258"/>
<polygon fill="midnightblue" stroke="midnightblue" points="431.162,-254.5 421.162,-258 431.162,-261.5 431.162,-254.5"/>
</g>
<!-- Node7 -->
<g id="node12" class="node"><title>Node7</title>
<a xlink:href="classtypes_1_1Type.xhtml" target="_top" xlink:title="types::Type">
<polygon fill="white" stroke="black" points="355,-287.5 355,-308.5 423,-308.5 423,-287.5 355,-287.5"/>
<text text-anchor="middle" x="389" y="-295.5" font-family="Helvetica,sans-Serif" font-size="10.00">types::Type</text>
</a>
</g>
<!-- Node7&#45;&gt;Node5 -->
<g id="edge12" class="edge"><title>Node7&#45;&gt;Node5</title>
<path fill="none" stroke="#9a32cd" stroke-dasharray="5,2" d="M433.193,-293.638C475.991,-289.159 542.647,-281.509 600,-272 606.213,-270.97 612.726,-269.766 619.147,-268.505"/>
<polygon fill="#9a32cd" stroke="#9a32cd" points="432.699,-290.171 423.112,-294.681 433.419,-297.134 432.699,-290.171"/>
<text text-anchor="middle" x="546" y="-290" font-family="Helvetica,sans-Serif" font-size="10.00"> m_type</text>
</g>
<!-- Node8 -->
<g id="node14" class="node"><title>Node8</title>
<a xlink:href="classfortran_1_1PointerArray.xhtml" target="_top" xlink:title="fortran::PointerArray\&lt; GridContainer \&gt;">
<polygon fill="white" stroke="black" points="1100,-263.5 1100,-284.5 1282,-284.5 1282,-263.5 1100,-263.5"/>
<text text-anchor="middle" x="1191" y="-271.5" font-family="Helvetica,sans-Serif" font-size="10.00">fortran::PointerArray&lt; GridContainer &gt;</text>
</a>
</g>
<!-- Node8&#45;&gt;Node5 -->
<g id="edge14" class="edge"><title>Node8&#45;&gt;Node5</title>
<path fill="none" stroke="#9a32cd" stroke-dasharray="5,2" d="M1089.67,-278.805C1087.09,-278.877 1084.53,-278.942 1082,-279 927.333,-282.546 887.762,-288.081 734,-271 728.23,-270.359 722.213,-269.487 716.257,-268.496"/>
<polygon fill="#9a32cd" stroke="#9a32cd" points="1089.83,-282.301 1099.72,-278.496 1089.62,-275.305 1089.83,-282.301"/>
<text text-anchor="middle" x="898" y="-286" font-family="Helvetica,sans-Serif" font-size="10.00"> m_pointers</text>
</g>
<!-- Node9&#45;&gt;Node8 -->
<g id="edge16" class="edge"><title>Node9&#45;&gt;Node8</title>
<path fill="none" stroke="#9a32cd" stroke-dasharray="5,2" d="M982.492,-254.074C1019.21,-257.583 1062.29,-261.7 1099.74,-265.279"/>
<polygon fill="#9a32cd" stroke="#9a32cd" points="982.603,-250.569 972.315,-253.102 981.937,-257.537 982.603,-250.569"/>
<text text-anchor="middle" x="1043" y="-267" font-family="Helvetica,sans-Serif" font-size="10.00"> m_pointers</text>
</g>
<!-- Node10 -->
<g id="node19" class="node"><title>Node10</title>
<a xlink:href="classio_1_1NetCdfReader.xhtml" target="_top" xlink:title="io::NetCdfReader">
<polygon fill="white" stroke="black" points="620.5,-125.5 620.5,-146.5 713.5,-146.5 713.5,-125.5 620.5,-125.5"/>
<text text-anchor="middle" x="667" y="-133.5" font-family="Helvetica,sans-Serif" font-size="10.00">io::NetCdfReader</text>
</a>
</g>
<!-- Node10&#45;&gt;Node2 -->
<g id="edge20" class="edge"><title>Node10&#45;&gt;Node2</title>
<path fill="none" stroke="#9a32cd" stroke-dasharray="5,2" d="M723.95,-136C770.302,-136 833.758,-136 869.852,-136"/>
<polygon fill="#9a32cd" stroke="#9a32cd" points="723.746,-132.5 713.746,-136 723.746,-139.5 723.746,-132.5"/>
<text text-anchor="middle" x="763" y="-140" font-family="Helvetica,sans-Serif" font-size="10.00"> m_inputFile</text>
</g>
<!-- Node11 -->
<g id="node21" class="node"><title>Node11</title>
<a xlink:title="STL class.">
<polygon fill="white" stroke="#bfbfbf" points="164,-125.5 164,-146.5 224,-146.5 224,-125.5 164,-125.5"/>
<text text-anchor="middle" x="194" y="-133.5" font-family="Helvetica,sans-Serif" font-size="10.00">std::string</text>
</a>
</g>
<!-- Node11&#45;&gt;Node2 -->
<g id="edge32" class="edge"><title>Node11&#45;&gt;Node2</title>
<path fill="none" stroke="#9a32cd" stroke-dasharray="5,2" d="M213.944,-119.137C234.835,-102.67 269.372,-78.7156 304,-69 515.832,-9.5661 784.177,-94.5176 870.163,-125.475"/>
<polygon fill="#9a32cd" stroke="#9a32cd" points="211.698,-116.451 206.121,-125.46 216.099,-121.895 211.698,-116.451"/>
<text text-anchor="middle" x="546" y="-62" font-family="Helvetica,sans-Serif" font-size="10.00"> m_variableName</text>
</g>
<!-- Node11&#45;&gt;Node10 -->
<g id="edge22" class="edge"><title>Node11&#45;&gt;Node10</title>
<path fill="none" stroke="#9a32cd" stroke-dasharray="5,2" d="M234.354,-136C321.691,-136 527.812,-136 620.465,-136"/>
<polygon fill="#9a32cd" stroke="#9a32cd" points="234.308,-132.5 224.308,-136 234.308,-139.5 234.308,-132.5"/>
<text text-anchor="middle" x="389" y="-140" font-family="Helvetica,sans-Serif" font-size="10.00"> m_filename</text>
</g>
<!-- Node14 -->
<g id="node27" class="node"><title>Node14</title>
<polygon fill="white" stroke="#bfbfbf" points="326.5,-167.5 326.5,-188.5 451.5,-188.5 451.5,-167.5 326.5,-167.5"/>
<text text-anchor="middle" x="389" y="-175.5" font-family="Helvetica,sans-Serif" font-size="10.00">std::vector&lt; std::string &gt;</text>
</g>
<!-- Node11&#45;&gt;Node14 -->
<g id="edge30" class="edge"><title>Node11&#45;&gt;Node14</title>
<path fill="none" stroke="#9a32cd" stroke-dasharray="5,2" d="M233.926,-147.957C236.651,-148.677 239.361,-149.365 242,-150 269.533,-156.621 300.269,-162.68 326.49,-167.455"/>
<polygon fill="#9a32cd" stroke="#9a32cd" points="234.667,-144.531 224.096,-145.255 232.811,-151.281 234.667,-144.531"/>
<text text-anchor="middle" x="264" y="-162" font-family="Helvetica,sans-Serif" font-size="10.00"> elements</text>
</g>
<!-- Node12 -->
<g id="node23" class="node"><title>Node12</title>
<a xlink:title="STL class.">
<polygon fill="white" stroke="#bfbfbf" points="0.5,-125.5 0.5,-146.5 125.5,-146.5 125.5,-125.5 0.5,-125.5"/>
<text text-anchor="middle" x="63" y="-133.5" font-family="Helvetica,sans-Serif" font-size="10.00">std::basic_string&lt; char &gt;</text>
</a>
</g>
<!-- Node12&#45;&gt;Node11 -->
<g id="edge24" class="edge"><title>Node12&#45;&gt;Node11</title>
<path fill="none" stroke="midnightblue" d="M136.065,-136C145.859,-136 155.423,-136 163.868,-136"/>
<polygon fill="midnightblue" stroke="midnightblue" points="135.814,-132.5 125.814,-136 135.814,-139.5 135.814,-132.5"/>
</g>
<!-- Node13 -->
<g id="node25" class="node"><title>Node13</title>
<polygon fill="white" stroke="#bfbfbf" points="335.5,-78.5 335.5,-99.5 442.5,-99.5 442.5,-78.5 335.5,-78.5"/>
<text text-anchor="middle" x="389" y="-86.5" font-family="Helvetica,sans-Serif" font-size="10.00">std::vector&lt; size_t &gt;</text>
</g>
<!-- Node13&#45;&gt;Node10 -->
<g id="edge26" class="edge"><title>Node13&#45;&gt;Node10</title>
<path fill="none" stroke="#9a32cd" stroke-dasharray="5,2" d="M452.755,-90.27C495.03,-92.273 551.448,-97.1807 600,-109 615.719,-112.826 632.609,-119.652 645.498,-125.483"/>
<polygon fill="#9a32cd" stroke="#9a32cd" points="452.741,-86.7663 442.599,-89.8316 452.439,-93.7597 452.741,-86.7663"/>
<text text-anchor="middle" x="546" y="-113" font-family="Helvetica,sans-Serif" font-size="10.00"> m_size</text>
</g>
<!-- Node14&#45;&gt;Node10 -->
<g id="edge28" class="edge"><title>Node14&#45;&gt;Node10</title>
<path fill="none" stroke="#9a32cd" stroke-dasharray="5,2" d="M461.624,-169.71C502.406,-164.717 554.162,-157.819 600,-150 606.56,-148.881 613.456,-147.582 620.227,-146.234"/>
<polygon fill="#9a32cd" stroke="#9a32cd" points="461.009,-166.258 451.503,-170.937 461.852,-173.208 461.009,-166.258"/>
<text text-anchor="middle" x="546" y="-169" font-family="Helvetica,sans-Serif" font-size="10.00"> m_names</text>
</g>
<!-- Node15 -->
<g id="node31" class="node"><title>Node15</title>
<a xlink:href="classallocator_1_1Allocator.xhtml" target="_top" xlink:title="allocator::Allocator\&lt; unsigned char \&gt;">
<polygon fill="white" stroke="black" points="810,-74.5 810,-95.5 986,-95.5 986,-74.5 810,-74.5"/>
<text text-anchor="middle" x="898" y="-82.5" font-family="Helvetica,sans-Serif" font-size="10.00">allocator::Allocator&lt; unsigned char &gt;</text>
</a>
</g>
<!-- Node15&#45;&gt;Node1 -->
<g id="edge34" class="edge"><title>Node15&#45;&gt;Node1</title>
<path fill="none" stroke="#9a32cd" stroke-dasharray="5,2" d="M996.499,-85C1043.38,-85 1097.64,-85 1136.92,-85"/>
<polygon fill="#9a32cd" stroke="#9a32cd" points="996.307,-81.5001 986.307,-85 996.307,-88.5001 996.307,-81.5001"/>
<text text-anchor="middle" x="1043" y="-89" font-family="Helvetica,sans-Serif" font-size="10.00"> m_allocator</text>
</g>
<!-- Node16 -->
<g id="node33" class="node"><title>Node16</title>
<a xlink:href="classblocks_1_1BlockManager.xhtml" target="_top" xlink:title="Controls a list of blocks.">
<polygon fill="white" stroke="black" points="841.5,-12.5 841.5,-33.5 954.5,-33.5 954.5,-12.5 841.5,-12.5"/>
<text text-anchor="middle" x="898" y="-20.5" font-family="Helvetica,sans-Serif" font-size="10.00">blocks::BlockManager</text>
</a>
</g>
<!-- Node16&#45;&gt;Node1 -->
<g id="edge36" class="edge"><title>Node16&#45;&gt;Node1</title>
<path fill="none" stroke="#9a32cd" stroke-dasharray="5,2" d="M957.487,-35.5878C1011.49,-47.0157 1090.24,-63.679 1141.05,-74.431"/>
<polygon fill="#9a32cd" stroke="#9a32cd" points="958.211,-32.1636 947.703,-33.5175 956.762,-39.0119 958.211,-32.1636"/>
<text text-anchor="middle" x="1043" y="-65" font-family="Helvetica,sans-Serif" font-size="10.00"> m_blockManager</text>
</g>
<!-- Node17 -->
<g id="node35" class="node"><title>Node17</title>
<a xlink:href="classblocks_1_1LRU.xhtml" target="_top" xlink:title="blocks::LRU">
<polygon fill="white" stroke="black" points="631.5,-0.5 631.5,-21.5 702.5,-21.5 702.5,-0.5 631.5,-0.5"/>
<text text-anchor="middle" x="667" y="-8.5" font-family="Helvetica,sans-Serif" font-size="10.00">blocks::LRU</text>
</a>
</g>
<!-- Node17&#45;&gt;Node16 -->
<g id="edge38" class="edge"><title>Node17&#45;&gt;Node16</title>
<path fill="none" stroke="#9a32cd" stroke-dasharray="5,2" d="M713.04,-13.3917C749.908,-15.3069 801.798,-18.0025 841.237,-20.0513"/>
<polygon fill="#9a32cd" stroke="#9a32cd" points="712.756,-9.87229 702.588,-12.8487 712.392,-16.8629 712.756,-9.87229"/>
<text text-anchor="middle" x="763" y="-21" font-family="Helvetica,sans-Serif" font-size="10.00"> m_lru</text>
</g>
</g>
</svg>
