<?xml version="1.0" encoding="UTF-8" standalone="no"?>
<!DOCTYPE svg PUBLIC "-//W3C//DTD SVG 1.1//EN"
 "http://www.w3.org/Graphics/SVG/1.1/DTD/svg11.dtd">
<!-- Generated by graphviz version 2.26.3 (20100126.1600)
 -->
<!-- Title: G Pages: 1 -->
<svg width="238pt" height="146pt"
 viewBox="0.00 0.00 238.00 146.00" xmlns="http://www.w3.org/2000/svg" xmlns:xlink="http://www.w3.org/1999/xlink">
<g id="graph1" class="graph" transform="scale(1 1) rotate(0) translate(4 142)">
<title>G</title>
<polygon fill="white" stroke="white" points="-4,5 -4,-142 235,-142 235,5 -4,5"/>
<!-- Node1 -->
<g id="node1" class="node"><title>Node1</title>
<polygon fill="#bfbfbf" stroke="black" points="64,-0.5 64,-21.5 164,-21.5 164,-0.5 64,-0.5"/>
<text text-anchor="middle" x="114" y="-8.5" font-family="Helvetica,sans-Serif" font-size="10.00">grid::DistStaticGrid</text>
</g>
<!-- Node2 -->
<g id="node2" class="node"><title>Node2</title>
<a xlink:href="classgrid_1_1LocalStaticGrid.xhtml" target="_top" xlink:title="grid::LocalStaticGrid">
<polygon fill="white" stroke="black" points="-0.5,-58.5 -0.5,-79.5 104.5,-79.5 104.5,-58.5 -0.5,-58.5"/>
<text text-anchor="middle" x="52" y="-66.5" font-family="Helvetica,sans-Serif" font-size="10.00">grid::LocalStaticGrid</text>
</a>
</g>
<!-- Node2&#45;&gt;Node1 -->
<g id="edge2" class="edge"><title>Node2&#45;&gt;Node1</title>
<path fill="none" stroke="midnightblue" d="M70.8085,-51.405C81.2166,-41.6683 93.8058,-29.8914 102.7,-21.5707"/>
<polygon fill="midnightblue" stroke="midnightblue" points="68.2834,-48.9743 63.3718,-58.3619 73.0656,-54.0863 68.2834,-48.9743"/>
</g>
<!-- Node3 -->
<g id="node4" class="node"><title>Node3</title>
<a xlink:href="classgrid_1_1Grid.xhtml" target="_top" xlink:title="Base class for a grid.">
<polygon fill="white" stroke="black" points="86,-116.5 86,-137.5 142,-137.5 142,-116.5 86,-116.5"/>
<text text-anchor="middle" x="114" y="-124.5" font-family="Helvetica,sans-Serif" font-size="10.00">grid::Grid</text>
</a>
</g>
<!-- Node3&#45;&gt;Node2 -->
<g id="edge4" class="edge"><title>Node3&#45;&gt;Node2</title>
<path fill="none" stroke="midnightblue" d="M95.1915,-109.405C84.7834,-99.6683 72.1942,-87.8914 63.2997,-79.5707"/>
<polygon fill="midnightblue" stroke="midnightblue" points="92.9344,-112.086 102.628,-116.362 97.7166,-106.974 92.9344,-112.086"/>
</g>
<!-- Node4 -->
<g id="node6" class="node"><title>Node4</title>
<a xlink:href="classgrid_1_1LocalCacheGrid.xhtml" target="_top" xlink:title="grid::LocalCacheGrid">
<polygon fill="white" stroke="black" points="122,-58.5 122,-79.5 230,-79.5 230,-58.5 122,-58.5"/>
<text text-anchor="middle" x="176" y="-66.5" font-family="Helvetica,sans-Serif" font-size="10.00">grid::LocalCacheGrid</text>
</a>
</g>
<!-- Node3&#45;&gt;Node4 -->
<g id="edge8" class="edge"><title>Node3&#45;&gt;Node4</title>
<path fill="none" stroke="midnightblue" d="M132.808,-109.405C143.217,-99.6683 155.806,-87.8914 164.7,-79.5707"/>
<polygon fill="midnightblue" stroke="midnightblue" points="130.283,-106.974 125.372,-116.362 135.066,-112.086 130.283,-106.974"/>
</g>
<!-- Node4&#45;&gt;Node1 -->
<g id="edge6" class="edge"><title>Node4&#45;&gt;Node1</title>
<path fill="none" stroke="midnightblue" d="M157.192,-51.405C146.783,-41.6683 134.194,-29.8914 125.3,-21.5707"/>
<polygon fill="midnightblue" stroke="midnightblue" points="154.934,-54.0863 164.628,-58.3619 159.717,-48.9743 154.934,-54.0863"/>
</g>
</g>
</svg>
