<?xml version="1.0" encoding="UTF-8" standalone="no"?>
<!DOCTYPE svg PUBLIC "-//W3C//DTD SVG 1.1//EN"
 "http://www.w3.org/Graphics/SVG/1.1/DTD/svg11.dtd">
<!-- Generated by graphviz version 2.26.3 (20100126.1600)
 -->
<!-- Title: transfer::MPIWinCache Pages: 1 -->
<svg width="742pt" height="169pt"
 viewBox="0.00 0.00 742.00 169.00" xmlns="http://www.w3.org/2000/svg" xmlns:xlink="http://www.w3.org/1999/xlink">
<g id="graph1" class="graph" transform="scale(1 1) rotate(0) translate(4 165)">
<title>transfer::MPIWinCache</title>
<polygon fill="white" stroke="white" points="-4,5 -4,-165 739,-165 739,5 -4,5"/>
<!-- Node1 -->
<g id="node1" class="node"><title>Node1</title>
<polygon fill="#bfbfbf" stroke="black" points="614.5,-67.5 614.5,-88.5 733.5,-88.5 733.5,-67.5 614.5,-67.5"/>
<text text-anchor="middle" x="674" y="-75.5" font-family="Helvetica,sans-Serif" font-size="10.00">transfer::MPIWinCache</text>
</g>
<!-- Node2 -->
<g id="node2" class="node"><title>Node2</title>
<a xlink:href="classtransfer_1_1MPICache.xhtml" target="_top" xlink:title="transfer::MPICache\l\&lt; allocator::MPIAlloc \&gt;">
<polygon fill="white" stroke="black" points="400.5,-127 400.5,-161 517.5,-161 517.5,-127 400.5,-127"/>
<text text-anchor="start" x="408.5" y="-148" font-family="Helvetica,sans-Serif" font-size="10.00">transfer::MPICache</text>
<text text-anchor="middle" x="459" y="-135" font-family="Helvetica,sans-Serif" font-size="10.00">&lt; allocator::MPIAlloc &gt;</text>
</a>
</g>
<!-- Node2&#45;&gt;Node1 -->
<g id="edge2" class="edge"><title>Node2&#45;&gt;Node1</title>
<path fill="none" stroke="#8b1a1a" d="M527.662,-131.269C549.739,-126.433 574.135,-120.298 596,-113 616.133,-106.28 638.112,-96.1465 653.592,-88.5099"/>
<polygon fill="#8b1a1a" stroke="#8b1a1a" points="526.747,-127.886 517.699,-133.399 528.21,-134.731 526.747,-127.886"/>
</g>
<!-- Node3 -->
<g id="node4" class="node"><title>Node3</title>
<a xlink:href="classmpi_1_1MPIComm.xhtml" target="_top" xlink:title="mpi::MPIComm">
<polygon fill="white" stroke="black" points="192,-37.5 192,-58.5 278,-58.5 278,-37.5 192,-37.5"/>
<text text-anchor="middle" x="235" y="-45.5" font-family="Helvetica,sans-Serif" font-size="10.00">mpi::MPIComm</text>
</a>
</g>
<!-- Node3&#45;&gt;Node1 -->
<g id="edge4" class="edge"><title>Node3&#45;&gt;Node1</title>
<path fill="none" stroke="#9a32cd" stroke-dasharray="5,2" d="M288.445,-51.6523C370.857,-57.2841 528.412,-68.0509 614.399,-73.9271"/>
<polygon fill="#9a32cd" stroke="#9a32cd" points="288.51,-48.1486 278.294,-50.9586 288.033,-55.1323 288.51,-48.1486"/>
<text text-anchor="middle" x="459" y="-70" font-family="Helvetica,sans-Serif" font-size="10.00"> m_mpiComm</text>
</g>
<!-- Node5 -->
<g id="node9" class="node"><title>Node5</title>
<a xlink:href="classmpi_1_1Mutex.xhtml" target="_top" xlink:title="mpi::Mutex">
<polygon fill="white" stroke="black" points="426.5,-0.5 426.5,-21.5 491.5,-21.5 491.5,-0.5 426.5,-0.5"/>
<text text-anchor="middle" x="459" y="-8.5" font-family="Helvetica,sans-Serif" font-size="10.00">mpi::Mutex</text>
</a>
</g>
<!-- Node3&#45;&gt;Node5 -->
<g id="edge12" class="edge"><title>Node3&#45;&gt;Node5</title>
<path fill="none" stroke="#9a32cd" stroke-dasharray="5,2" d="M279.249,-34.8342C284.857,-33.4121 290.542,-32.089 296,-31 340.736,-22.0741 393.224,-16.493 426.299,-13.5625"/>
<polygon fill="#9a32cd" stroke="#9a32cd" points="278.07,-31.5256 269.301,-37.4715 279.864,-38.2918 278.07,-31.5256"/>
<text text-anchor="middle" x="339" y="-35" font-family="Helvetica,sans-Serif" font-size="10.00"> m_comm</text>
</g>
<!-- Node4 -->
<g id="node6" class="node"><title>Node4</title>
<a xlink:href="classthreads_1_1PthreadMutex.xhtml" target="_top" xlink:title="threads::PthreadMutex">
<polygon fill="white" stroke="black" points="0,-37.5 0,-58.5 116,-58.5 116,-37.5 0,-37.5"/>
<text text-anchor="middle" x="58" y="-45.5" font-family="Helvetica,sans-Serif" font-size="10.00">threads::PthreadMutex</text>
</a>
</g>
<!-- Node4&#45;&gt;Node1 -->
<g id="edge8" class="edge"><title>Node4&#45;&gt;Node1</title>
<path fill="none" stroke="#9a32cd" stroke-dasharray="5,2" d="M109.43,-60.6155C117.611,-62.3004 126.009,-63.8428 134,-65 311.02,-90.6349 357.135,-83.3424 536,-84 562.666,-84.098 569.353,-85.0234 596,-84 601.972,-83.7707 608.195,-83.4429 614.406,-83.0574"/>
<polygon fill="#9a32cd" stroke="#9a32cd" points="110.112,-57.1823 99.6003,-58.5059 108.643,-64.0265 110.112,-57.1823"/>
<text text-anchor="middle" x="339" y="-101" font-family="Helvetica,sans-Serif" font-size="10.00"> m_dictWinMutex</text>
<text text-anchor="middle" x="339" y="-88" font-family="Helvetica,sans-Serif" font-size="10.00">m_cacheWinMutex</text>
</g>
<!-- Node4&#45;&gt;Node3 -->
<g id="edge6" class="edge"><title>Node4&#45;&gt;Node3</title>
<path fill="none" stroke="#9a32cd" stroke-dasharray="5,2" d="M126.698,-48C148.593,-48 172.191,-48 191.754,-48"/>
<polygon fill="#9a32cd" stroke="#9a32cd" points="126.447,-44.5001 116.447,-48 126.447,-51.5001 126.447,-44.5001"/>
<text text-anchor="middle" x="154" y="-52" font-family="Helvetica,sans-Serif" font-size="10.00"> mpiLock</text>
</g>
<!-- Node4&#45;&gt;Node5 -->
<g id="edge14" class="edge"><title>Node4&#45;&gt;Node5</title>
<path fill="none" stroke="#9a32cd" stroke-dasharray="5,2" d="M101.649,-34.5927C127.618,-27.2865 161.373,-18.9488 192,-15 275.911,-4.18138 375.876,-6.75489 426.361,-9.12445"/>
<polygon fill="#9a32cd" stroke="#9a32cd" points="100.391,-31.3124 91.7441,-37.4351 102.322,-38.0408 100.391,-31.3124"/>
<text text-anchor="middle" x="235" y="-19" font-family="Helvetica,sans-Serif" font-size="10.00"> nextTagMutex</text>
</g>
<!-- Node5&#45;&gt;Node1 -->
<g id="edge10" class="edge"><title>Node5&#45;&gt;Node1</title>
<path fill="none" stroke="#9a32cd" stroke-dasharray="5,2" d="M501.817,-12.8866C529.377,-15.1523 565.597,-20.121 596,-31 620.264,-39.6823 645.251,-56.3625 660.204,-67.3359"/>
<polygon fill="#9a32cd" stroke="#9a32cd" points="501.938,-9.3862 491.708,-12.144 501.425,-16.3674 501.938,-9.3862"/>
<text text-anchor="middle" x="566" y="-35" font-family="Helvetica,sans-Serif" font-size="10.00"> m_mpiMutex</text>
</g>
</g>
</svg>
