<?xml version="1.0" encoding="UTF-8" standalone="no"?>
<!DOCTYPE svg PUBLIC "-//W3C//DTD SVG 1.1//EN"
 "http://www.w3.org/Graphics/SVG/1.1/DTD/svg11.dtd">
<!-- Generated by graphviz version 2.26.3 (20100126.1600)
 -->
<!-- Title: grid::level::Full&lt; Type, Allocator &gt; Pages: 1 -->
<svg width="108pt" height="260pt"
 viewBox="0.00 0.00 108.00 260.00" xmlns="http://www.w3.org/2000/svg" xmlns:xlink="http://www.w3.org/1999/xlink">
<g id="graph1" class="graph" transform="scale(1 1) rotate(0) translate(4 256)">
<title>grid::level::Full&lt; Type, Allocator &gt;</title>
<polygon fill="white" stroke="white" points="-4,5 -4,-256 105,-256 105,5 -4,5"/>
<!-- Node1 -->
<g id="node1" class="node"><title>Node1</title>
<polygon fill="#bfbfbf" stroke="black" points="2.5,-73 2.5,-107 97.5,-107 97.5,-73 2.5,-73"/>
<text text-anchor="start" x="10.5" y="-94" font-family="Helvetica,sans-Serif" font-size="10.00">grid::level::Full&lt;</text>
<text text-anchor="middle" x="50" y="-81" font-family="Helvetica,sans-Serif" font-size="10.00"> Type, Allocator &gt;</text>
</g>
<!-- Node4 -->
<g id="node7" class="node"><title>Node4</title>
<a xlink:href="classgrid_1_1level_1_1FullDist.xhtml" target="_top" xlink:title="grid::level::FullDist\l\&lt; Type, Allocator \&gt;">
<polygon fill="white" stroke="black" points="-0.5,-1 -0.5,-35 100.5,-35 100.5,-1 -0.5,-1"/>
<text text-anchor="start" x="7.5" y="-22" font-family="Helvetica,sans-Serif" font-size="10.00">grid::level::FullDist</text>
<text text-anchor="middle" x="50" y="-9" font-family="Helvetica,sans-Serif" font-size="10.00">&lt; Type, Allocator &gt;</text>
</a>
</g>
<!-- Node1&#45;&gt;Node4 -->
<g id="edge6" class="edge"><title>Node1&#45;&gt;Node4</title>
<path fill="none" stroke="midnightblue" d="M50,-62.7193C50,-53.572 50,-43.6255 50,-35.4407"/>
<polygon fill="midnightblue" stroke="midnightblue" points="46.5001,-62.937 50,-72.937 53.5001,-62.937 46.5001,-62.937"/>
</g>
<!-- Node2 -->
<g id="node2" class="node"><title>Node2</title>
<a xlink:href="classgrid_1_1level_1_1Blocked.xhtml" target="_top" xlink:title="Base class for all grid levels that work on blocks. ">
<polygon fill="white" stroke="black" points="0,-145 0,-179 100,-179 100,-145 0,-145"/>
<text text-anchor="start" x="8" y="-166" font-family="Helvetica,sans-Serif" font-size="10.00">grid::level::Blocked</text>
<text text-anchor="middle" x="50" y="-153" font-family="Helvetica,sans-Serif" font-size="10.00">&lt; Type &gt;</text>
</a>
</g>
<!-- Node2&#45;&gt;Node1 -->
<g id="edge2" class="edge"><title>Node2&#45;&gt;Node1</title>
<path fill="none" stroke="midnightblue" d="M50,-134.719C50,-125.572 50,-115.625 50,-107.441"/>
<polygon fill="midnightblue" stroke="midnightblue" points="46.5001,-134.937 50,-144.937 53.5001,-134.937 46.5001,-134.937"/>
</g>
<!-- Node3 -->
<g id="node4" class="node"><title>Node3</title>
<a xlink:href="classgrid_1_1level_1_1Level.xhtml" target="_top" xlink:title="Base class for a grid level. ">
<polygon fill="white" stroke="black" points="6,-217 6,-251 94,-251 94,-217 6,-217"/>
<text text-anchor="start" x="14" y="-238" font-family="Helvetica,sans-Serif" font-size="10.00">grid::level::Level</text>
<text text-anchor="middle" x="50" y="-225" font-family="Helvetica,sans-Serif" font-size="10.00">&lt; Type &gt;</text>
</a>
</g>
<!-- Node3&#45;&gt;Node2 -->
<g id="edge4" class="edge"><title>Node3&#45;&gt;Node2</title>
<path fill="none" stroke="midnightblue" d="M50,-206.719C50,-197.572 50,-187.625 50,-179.441"/>
<polygon fill="midnightblue" stroke="midnightblue" points="46.5001,-206.937 50,-216.937 53.5001,-206.937 46.5001,-206.937"/>
</g>
</g>
</svg>
