<?xml version="1.0" encoding="UTF-8" standalone="no"?>
<!DOCTYPE svg PUBLIC "-//W3C//DTD SVG 1.1//EN"
 "http://www.w3.org/Graphics/SVG/1.1/DTD/svg11.dtd">
<!-- Generated by graphviz version 2.26.3 (20100126.1600)
 -->
<!-- Title: perf::Counter::NameToCounterMap Pages: 1 -->
<svg width="178pt" height="176pt"
 viewBox="0.00 0.00 178.00 176.00" xmlns="http://www.w3.org/2000/svg" xmlns:xlink="http://www.w3.org/1999/xlink">
<g id="graph1" class="graph" transform="scale(1 1) rotate(0) translate(4 172)">
<title>perf::Counter::NameToCounterMap</title>
<polygon fill="white" stroke="white" points="-4,5 -4,-172 175,-172 175,5 -4,5"/>
<!-- Node1 -->
<g id="node1" class="node"><title>Node1</title>
<polygon fill="#bfbfbf" stroke="black" points="0,-0.5 0,-21.5 170,-21.5 170,-0.5 0,-0.5"/>
<text text-anchor="middle" x="85" y="-8.5" font-family="Helvetica,sans-Serif" font-size="10.00">perf::Counter::NameToCounterMap</text>
</g>
<!-- Node2 -->
<g id="node2" class="node"><title>Node2</title>
<a xlink:title="STL class. ">
<polygon fill="white" stroke="#bfbfbf" points="15,-61 15,-95 155,-95 155,-61 15,-61"/>
<text text-anchor="start" x="23" y="-82" font-family="Helvetica,sans-Serif" font-size="10.00">std::unordered_map</text>
<text text-anchor="middle" x="85" y="-69" font-family="Helvetica,sans-Serif" font-size="10.00">&lt; std::string, CounterType &gt;</text>
</a>
</g>
<!-- Node2&#45;&gt;Node1 -->
<g id="edge2" class="edge"><title>Node2&#45;&gt;Node1</title>
<path fill="none" stroke="midnightblue" d="M85,-50.5344C85,-40.3057 85,-29.3007 85,-21.5056"/>
<polygon fill="midnightblue" stroke="midnightblue" points="81.5001,-50.7458 85,-60.7458 88.5001,-50.7459 81.5001,-50.7458"/>
</g>
<!-- Node3 -->
<g id="node4" class="node"><title>Node3</title>
<polygon fill="white" stroke="#bfbfbf" points="46.5,-146.5 46.5,-167.5 75.5,-167.5 75.5,-146.5 46.5,-146.5"/>
<text text-anchor="middle" x="61" y="-154.5" font-family="Helvetica,sans-Serif" font-size="10.00">K</text>
</g>
<!-- Node3&#45;&gt;Node2 -->
<g id="edge4" class="edge"><title>Node3&#45;&gt;Node2</title>
<path fill="none" stroke="#9a32cd" stroke-dasharray="5,2" d="M59.2353,-136.43C59.1987,-129.203 59.8311,-121.115 62,-114 63.9896,-107.473 67.5197,-100.988 71.226,-95.3577"/>
<polygon fill="#9a32cd" stroke="#9a32cd" points="55.7425,-136.668 59.6925,-146.499 62.7353,-136.351 55.7425,-136.668"/>
<text text-anchor="middle" x="74.5" y="-118.5" font-family="Helvetica,sans-Serif" font-size="10.00"> keys</text>
</g>
<!-- Node4 -->
<g id="node6" class="node"><title>Node4</title>
<polygon fill="white" stroke="#bfbfbf" points="94.5,-146.5 94.5,-167.5 123.5,-167.5 123.5,-146.5 94.5,-146.5"/>
<text text-anchor="middle" x="109" y="-154.5" font-family="Helvetica,sans-Serif" font-size="10.00">T</text>
</g>
<!-- Node4&#45;&gt;Node2 -->
<g id="edge6" class="edge"><title>Node4&#45;&gt;Node2</title>
<path fill="none" stroke="#9a32cd" stroke-dasharray="5,2" d="M102.787,-136.549C98.8808,-123.691 93.8991,-107.293 90.2021,-95.1236"/>
<polygon fill="#9a32cd" stroke="#9a32cd" points="99.5075,-137.795 105.763,-146.346 106.205,-135.76 99.5075,-137.795"/>
<text text-anchor="middle" x="120.5" y="-118.5" font-family="Helvetica,sans-Serif" font-size="10.00"> elements</text>
</g>
</g>
</svg>
