<?xml version="1.0" encoding="UTF-8" standalone="no"?>
<!DOCTYPE svg PUBLIC "-//W3C//DTD SVG 1.1//EN"
 "http://www.w3.org/Graphics/SVG/1.1/DTD/svg11.dtd">
<!-- Generated by graphviz version 2.26.3 (20100126.1600)
 -->
<!-- Title: G Pages: 1 -->
<svg width="816pt" height="594pt"
 viewBox="0.00 0.00 816.00 594.00" xmlns="http://www.w3.org/2000/svg" xmlns:xlink="http://www.w3.org/1999/xlink">
<g id="graph1" class="graph" transform="scale(1 1) rotate(0) translate(4 590)">
<title>G</title>
<polygon fill="white" stroke="white" points="-4,5 -4,-590 813,-590 813,5 -4,5"/>
<!-- Node1 -->
<g id="node1" class="node"><title>Node1</title>
<polygon fill="#bfbfbf" stroke="black" points="306.5,-0.5 306.5,-21.5 443.5,-21.5 443.5,-0.5 306.5,-0.5"/>
<text text-anchor="middle" x="375" y="-8.5" font-family="Helvetica,sans-Serif" font-size="10.00">grid::AdaptiveGridContainer</text>
</g>
<!-- Node2 -->
<g id="node2" class="node"><title>Node2</title>
<a xlink:href="classgrid_1_1GridContainer.xhtml" target="_top" xlink:title="grid::GridContainer">
<polygon fill="white" stroke="black" points="605,-360.5 605,-381.5 703,-381.5 703,-360.5 605,-360.5"/>
<text text-anchor="middle" x="654" y="-368.5" font-family="Helvetica,sans-Serif" font-size="10.00">grid::GridContainer</text>
</a>
</g>
<!-- Node2&#45;&gt;Node1 -->
<g id="edge2" class="edge"><title>Node2&#45;&gt;Node1</title>
<path fill="none" stroke="midnightblue" d="M605.278,-356.779C579.042,-345.808 552,-327.571 552,-299 552,-299 552,-299 552,-83 552,-55.6567 532.07,-52.9719 508,-40 488.34,-29.405 465.072,-22.6804 443.538,-18.4125"/>
<polygon fill="midnightblue" stroke="midnightblue" points="604.267,-360.141 614.856,-360.497 606.801,-353.615 604.267,-360.141"/>
</g>
<!-- Node6 -->
<g id="node10" class="node"><title>Node6</title>
<polygon fill="white" stroke="#bfbfbf" points="580,-288.5 580,-309.5 728,-309.5 728,-288.5 580,-288.5"/>
<text text-anchor="middle" x="654" y="-296.5" font-family="Helvetica,sans-Serif" font-size="10.00">std::vector&lt; GridContainer * &gt;</text>
</g>
<!-- Node2&#45;&gt;Node6 -->
<g id="edge12" class="edge"><title>Node2&#45;&gt;Node6</title>
<path fill="none" stroke="#9a32cd" stroke-dasharray="5,2" d="M654,-350.235C654,-336.969 654,-320.319 654,-309.667"/>
<polygon fill="#9a32cd" stroke="#9a32cd" points="650.5,-350.376 654,-360.376 657.5,-350.376 650.5,-350.376"/>
<text text-anchor="middle" x="675.5" y="-332.5" font-family="Helvetica,sans-Serif" font-size="10.00"> elements</text>
</g>
<!-- Node11 -->
<g id="node21" class="node"><title>Node11</title>
<a xlink:href="classgrid_1_1Grid.xhtml" target="_top" xlink:title="Base class for a grid.">
<polygon fill="white" stroke="black" points="375,-288.5 375,-309.5 431,-309.5 431,-288.5 375,-288.5"/>
<text text-anchor="middle" x="403" y="-296.5" font-family="Helvetica,sans-Serif" font-size="10.00">grid::Grid</text>
</a>
</g>
<!-- Node2&#45;&gt;Node11 -->
<g id="edge28" class="edge"><title>Node2&#45;&gt;Node11</title>
<path fill="none" stroke="#9a32cd" stroke-dasharray="5,2" d="M594.723,-366.682C560.633,-362.827 517.468,-355.579 481,-342 469.785,-337.824 468.409,-333.905 458,-328 446.827,-321.662 434.157,-314.95 423.796,-309.581"/>
<polygon fill="#9a32cd" stroke="#9a32cd" points="594.68,-370.197 604.994,-367.772 595.419,-363.236 594.68,-370.197"/>
<text text-anchor="middle" x="509.5" y="-332.5" font-family="Helvetica,sans-Serif" font-size="10.00"> m_container</text>
</g>
<!-- Node3 -->
<g id="node4" class="node"><title>Node3</title>
<a xlink:href="classasagi_1_1Grid.xhtml" target="_top" xlink:title="C++ Interface for ASAGI.">
<polygon fill="white" stroke="black" points="622,-432.5 622,-453.5 686,-453.5 686,-432.5 622,-432.5"/>
<text text-anchor="middle" x="654" y="-440.5" font-family="Helvetica,sans-Serif" font-size="10.00">asagi::Grid</text>
</a>
</g>
<!-- Node3&#45;&gt;Node2 -->
<g id="edge4" class="edge"><title>Node3&#45;&gt;Node2</title>
<path fill="none" stroke="midnightblue" d="M654,-422.235C654,-408.969 654,-392.319 654,-381.667"/>
<polygon fill="midnightblue" stroke="midnightblue" points="650.5,-422.376 654,-432.376 657.5,-422.376 650.5,-422.376"/>
</g>
<!-- Node4 -->
<g id="node6" class="node"><title>Node4</title>
<a xlink:href="classtypes_1_1Type.xhtml" target="_top" xlink:title="types::Type">
<polygon fill="white" stroke="black" points="704,-432.5 704,-453.5 772,-453.5 772,-432.5 704,-432.5"/>
<text text-anchor="middle" x="738" y="-440.5" font-family="Helvetica,sans-Serif" font-size="10.00">types::Type</text>
</a>
</g>
<!-- Node4&#45;&gt;Node2 -->
<g id="edge6" class="edge"><title>Node4&#45;&gt;Node2</title>
<path fill="none" stroke="#9a32cd" stroke-dasharray="5,2" d="M717.849,-425.728C701.85,-412.015 679.99,-393.277 666.445,-381.667"/>
<polygon fill="#9a32cd" stroke="#9a32cd" points="715.735,-428.526 725.606,-432.376 720.291,-423.211 715.735,-428.526"/>
<text text-anchor="middle" x="721" y="-404.5" font-family="Helvetica,sans-Serif" font-size="10.00"> m_type</text>
</g>
<!-- Node5 -->
<g id="node8" class="node"><title>Node5</title>
<a xlink:href="classfortran_1_1PointerArray.xhtml" target="_top" xlink:title="fortran::PointerArray\&lt; GridContainer \&gt;">
<polygon fill="white" stroke="black" points="626,-216.5 626,-237.5 808,-237.5 808,-216.5 626,-216.5"/>
<text text-anchor="middle" x="717" y="-224.5" font-family="Helvetica,sans-Serif" font-size="10.00">fortran::PointerArray&lt; GridContainer &gt;</text>
</a>
</g>
<!-- Node5&#45;&gt;Node2 -->
<g id="edge8" class="edge"><title>Node5&#45;&gt;Node2</title>
<path fill="none" stroke="#9a32cd" stroke-dasharray="5,2" d="M739.735,-244.806C742.689,-248.187 745.282,-251.949 747,-256 756.531,-278.47 749.645,-289.123 737,-310 722.919,-333.25 696.298,-350.396 676.993,-360.489"/>
<polygon fill="#9a32cd" stroke="#9a32cd" points="742.018,-242.143 732.424,-237.649 737.121,-247.146 742.018,-242.143"/>
<text text-anchor="middle" x="774" y="-296.5" font-family="Helvetica,sans-Serif" font-size="10.00"> m_pointers</text>
</g>
<!-- Node6&#45;&gt;Node5 -->
<g id="edge10" class="edge"><title>Node6&#45;&gt;Node5</title>
<path fill="none" stroke="#9a32cd" stroke-dasharray="5,2" d="M670.114,-280.584C682.01,-266.989 697.787,-248.958 707.666,-237.667"/>
<polygon fill="#9a32cd" stroke="#9a32cd" points="667.247,-278.546 663.296,-288.376 672.515,-283.155 667.247,-278.546"/>
<text text-anchor="middle" x="717" y="-260.5" font-family="Helvetica,sans-Serif" font-size="10.00"> m_pointers</text>
</g>
<!-- Node7 -->
<g id="node13" class="node"><title>Node7</title>
<a xlink:href="classgrid_1_1GridCreator.xhtml" target="_top" xlink:title="grid::GridCreator">
<polygon fill="white" stroke="black" points="247.5,-216.5 247.5,-237.5 336.5,-237.5 336.5,-216.5 247.5,-216.5"/>
<text text-anchor="middle" x="292" y="-224.5" font-family="Helvetica,sans-Serif" font-size="10.00">grid::GridCreator</text>
</a>
</g>
<!-- Node7&#45;&gt;Node1 -->
<g id="edge14" class="edge"><title>Node7&#45;&gt;Node1</title>
<path fill="none" stroke="#8b1a1a" d="M294.36,-205.769C299.155,-169.519 312.478,-94.3455 345,-40 349.166,-33.0381 355.429,-26.6171 361.157,-21.5962"/>
<polygon fill="#8b1a1a" stroke="#8b1a1a" points="290.837,-205.742 293.09,-216.095 297.785,-206.597 290.837,-205.742"/>
</g>
<!-- Node9 -->
<g id="node17" class="node"><title>Node9</title>
<a xlink:href="classgrid_1_1MultiGrid.xhtml" target="_top" xlink:title="grid::MultiGrid">
<polygon fill="white" stroke="black" points="351.5,-144.5 351.5,-165.5 428.5,-165.5 428.5,-144.5 351.5,-144.5"/>
<text text-anchor="middle" x="390" y="-152.5" font-family="Helvetica,sans-Serif" font-size="10.00">grid::MultiGrid</text>
</a>
</g>
<!-- Node7&#45;&gt;Node9 -->
<g id="edge44" class="edge"><title>Node7&#45;&gt;Node9</title>
<path fill="none" stroke="#9a32cd" stroke-dasharray="5,2" d="M304.971,-208.037C311.23,-199.887 319.272,-190.713 328,-184 337.796,-176.465 349.865,-170.267 360.744,-165.562"/>
<polygon fill="#9a32cd" stroke="#9a32cd" points="301.998,-206.173 298.931,-216.314 307.653,-210.299 301.998,-206.173"/>
<text text-anchor="middle" x="360.5" y="-188.5" font-family="Helvetica,sans-Serif" font-size="10.00"> m_gridCreator</text>
</g>
<!-- Node8 -->
<g id="node15" class="node"><title>Node8</title>
<polygon fill="white" stroke="#bfbfbf" points="393,-72.5 393,-93.5 523,-93.5 523,-72.5 393,-72.5"/>
<text text-anchor="middle" x="458" y="-80.5" font-family="Helvetica,sans-Serif" font-size="10.00">std::allocator&lt; MultiGrid &gt;</text>
</g>
<!-- Node8&#45;&gt;Node1 -->
<g id="edge16" class="edge"><title>Node8&#45;&gt;Node1</title>
<path fill="none" stroke="#9a32cd" stroke-dasharray="5,2" d="M438.089,-65.7275C422.281,-52.0146 400.681,-33.2774 387.297,-21.6674"/>
<polygon fill="#9a32cd" stroke="#9a32cd" points="435.906,-68.4672 445.753,-72.3762 440.493,-63.1795 435.906,-68.4672"/>
<text text-anchor="middle" x="463.5" y="-44.5" font-family="Helvetica,sans-Serif" font-size="10.00"> multiGridAllocator</text>
</g>
<!-- Node9&#45;&gt;Node1 -->
<g id="edge46" class="edge"><title>Node9&#45;&gt;Node1</title>
<path fill="none" stroke="#9a32cd" stroke-dasharray="5,2" d="M372.024,-136.626C362.267,-125.333 351.168,-109.998 346,-94 337.555,-67.8551 355.323,-37.4425 366.617,-21.6893"/>
<polygon fill="#9a32cd" stroke="#9a32cd" points="369.478,-139.029 378.787,-144.087 374.664,-134.327 369.478,-139.029"/>
<text text-anchor="middle" x="365" y="-80.5" font-family="Helvetica,sans-Serif" font-size="10.00"> m_grids</text>
</g>
<!-- Node9&#45;&gt;Node8 -->
<g id="edge18" class="edge"><title>Node9&#45;&gt;Node8</title>
<path fill="none" stroke="#9a32cd" stroke-dasharray="5,2" d="M407.031,-136.968C419.911,-123.329 437.161,-105.064 447.925,-93.6674"/>
<polygon fill="#9a32cd" stroke="#9a32cd" points="404.355,-134.703 400.034,-144.376 409.444,-139.509 404.355,-134.703"/>
<text text-anchor="middle" x="451.5" y="-116.5" font-family="Helvetica,sans-Serif" font-size="10.00"> elements</text>
</g>
<!-- Node10 -->
<g id="node19" class="node"><title>Node10</title>
<polygon fill="white" stroke="#bfbfbf" points="356,-216.5 356,-237.5 462,-237.5 462,-216.5 356,-216.5"/>
<text text-anchor="middle" x="409" y="-224.5" font-family="Helvetica,sans-Serif" font-size="10.00">std::vector&lt; Grid * &gt;</text>
</g>
<!-- Node10&#45;&gt;Node9 -->
<g id="edge20" class="edge"><title>Node10&#45;&gt;Node9</title>
<path fill="none" stroke="#9a32cd" stroke-dasharray="5,2" d="M403.625,-206.632C400.108,-193.303 395.654,-176.425 392.815,-165.667"/>
<polygon fill="#9a32cd" stroke="#9a32cd" points="400.261,-207.6 406.196,-216.376 407.029,-205.814 400.261,-207.6"/>
<text text-anchor="middle" x="420" y="-188.5" font-family="Helvetica,sans-Serif" font-size="10.00"> m_grids</text>
</g>
<!-- Node11&#45;&gt;Node10 -->
<g id="edge22" class="edge"><title>Node11&#45;&gt;Node10</title>
<path fill="none" stroke="#9a32cd" stroke-dasharray="5,2" d="M404.73,-278.235C405.836,-264.969 407.223,-248.319 408.111,-237.667"/>
<polygon fill="#9a32cd" stroke="#9a32cd" points="401.228,-278.12 403.885,-288.376 408.204,-278.701 401.228,-278.12"/>
<text text-anchor="middle" x="427.5" y="-260.5" font-family="Helvetica,sans-Serif" font-size="10.00"> elements</text>
</g>
<!-- Node12 -->
<g id="node23" class="node"><title>Node12</title>
<a xlink:href="classperf_1_1Counter.xhtml" target="_top" xlink:title="perf::Counter">
<polygon fill="white" stroke="black" points="81,-360.5 81,-381.5 155,-381.5 155,-360.5 81,-360.5"/>
<text text-anchor="middle" x="118" y="-368.5" font-family="Helvetica,sans-Serif" font-size="10.00">perf::Counter</text>
</a>
</g>
<!-- Node12&#45;&gt;Node11 -->
<g id="edge24" class="edge"><title>Node12&#45;&gt;Node11</title>
<path fill="none" stroke="#9a32cd" stroke-dasharray="5,2" d="M128.727,-351.314C134.467,-342.712 142.354,-333.375 152,-328 189.648,-307.021 317.384,-301.162 374.727,-299.572"/>
<polygon fill="#9a32cd" stroke="#9a32cd" points="125.566,-349.776 123.358,-360.138 131.546,-353.414 125.566,-349.776"/>
<text text-anchor="middle" x="176.5" y="-332.5" font-family="Helvetica,sans-Serif" font-size="10.00"> m_counter</text>
</g>
<!-- Node13 -->
<g id="node25" class="node"><title>Node13</title>
<a xlink:href="classperf_1_1Counter_1_1NameToCounterMap.xhtml" target="_top" xlink:title="perf::Counter::NameToCounterMap">
<polygon fill="white" stroke="black" points="0,-432.5 0,-453.5 170,-453.5 170,-432.5 0,-432.5"/>
<text text-anchor="middle" x="85" y="-440.5" font-family="Helvetica,sans-Serif" font-size="10.00">perf::Counter::NameToCounterMap</text>
</a>
</g>
<!-- Node13&#45;&gt;Node12 -->
<g id="edge26" class="edge"><title>Node13&#45;&gt;Node12</title>
<path fill="none" stroke="#9a32cd" stroke-dasharray="5,2" d="M82.2004,-422.038C82.0692,-414.775 82.9067,-406.764 86,-400 89.305,-392.772 95.3594,-386.558 101.32,-381.757"/>
<polygon fill="#9a32cd" stroke="#9a32cd" points="78.7271,-422.522 82.9765,-432.228 85.7069,-421.991 78.7271,-422.522"/>
<text text-anchor="middle" x="139.5" y="-404.5" font-family="Helvetica,sans-Serif" font-size="10.00"> NAME_TO_COUNTER</text>
</g>
<!-- Node14 -->
<g id="node28" class="node"><title>Node14</title>
<a xlink:href="classio_1_1NetCdfReader.xhtml" target="_top" xlink:title="io::NetCdfReader">
<polygon fill="white" stroke="black" points="360.5,-360.5 360.5,-381.5 453.5,-381.5 453.5,-360.5 360.5,-360.5"/>
<text text-anchor="middle" x="407" y="-368.5" font-family="Helvetica,sans-Serif" font-size="10.00">io::NetCdfReader</text>
</a>
</g>
<!-- Node14&#45;&gt;Node11 -->
<g id="edge30" class="edge"><title>Node14&#45;&gt;Node11</title>
<path fill="none" stroke="#9a32cd" stroke-dasharray="5,2" d="M404.645,-350.186C404.393,-347.436 404.168,-344.652 404,-342 403.302,-330.97 403.077,-318.322 403.011,-309.613"/>
<polygon fill="#9a32cd" stroke="#9a32cd" points="401.178,-350.686 405.684,-360.275 408.141,-349.969 401.178,-350.686"/>
<text text-anchor="middle" x="431" y="-332.5" font-family="Helvetica,sans-Serif" font-size="10.00"> m_inputFile</text>
</g>
<!-- Node15 -->
<g id="node30" class="node"><title>Node15</title>
<a xlink:title="STL class.">
<polygon fill="white" stroke="#bfbfbf" points="254,-504.5 254,-525.5 314,-525.5 314,-504.5 254,-504.5"/>
<text text-anchor="middle" x="284" y="-512.5" font-family="Helvetica,sans-Serif" font-size="10.00">std::string</text>
</a>
</g>
<!-- Node15&#45;&gt;Node11 -->
<g id="edge42" class="edge"><title>Node15&#45;&gt;Node11</title>
<path fill="none" stroke="#9a32cd" stroke-dasharray="5,2" d="M264.258,-497.223C241.266,-474.279 208.744,-433.346 228,-400 259.751,-345.016 334.085,-317.294 374.915,-305.769"/>
<polygon fill="#9a32cd" stroke="#9a32cd" points="261.965,-499.874 271.601,-504.277 266.814,-494.825 261.965,-499.874"/>
<text text-anchor="middle" x="266.5" y="-404.5" font-family="Helvetica,sans-Serif" font-size="10.00"> m_variableName</text>
</g>
<!-- Node15&#45;&gt;Node14 -->
<g id="edge32" class="edge"><title>Node15&#45;&gt;Node14</title>
<path fill="none" stroke="#9a32cd" stroke-dasharray="5,2" d="M281.156,-494.209C279.808,-476.225 280.644,-450.306 293,-432 310.33,-406.325 342.104,-390.605 367.712,-381.568"/>
<polygon fill="#9a32cd" stroke="#9a32cd" points="277.684,-494.656 282.195,-504.242 284.647,-493.935 277.684,-494.656"/>
<text text-anchor="middle" x="320" y="-440.5" font-family="Helvetica,sans-Serif" font-size="10.00"> m_filename</text>
</g>
<!-- Node18 -->
<g id="node36" class="node"><title>Node18</title>
<polygon fill="white" stroke="#bfbfbf" points="355.5,-432.5 355.5,-453.5 480.5,-453.5 480.5,-432.5 355.5,-432.5"/>
<text text-anchor="middle" x="418" y="-440.5" font-family="Helvetica,sans-Serif" font-size="10.00">std::vector&lt; std::string &gt;</text>
</g>
<!-- Node15&#45;&gt;Node18 -->
<g id="edge40" class="edge"><title>Node15&#45;&gt;Node18</title>
<path fill="none" stroke="#9a32cd" stroke-dasharray="5,2" d="M312.695,-499.582C338.44,-485.749 375.548,-465.81 398.147,-453.667"/>
<polygon fill="#9a32cd" stroke="#9a32cd" points="310.924,-496.56 303.772,-504.376 314.238,-502.726 310.924,-496.56"/>
<text text-anchor="middle" x="384.5" y="-476.5" font-family="Helvetica,sans-Serif" font-size="10.00"> elements</text>
</g>
<!-- Node16 -->
<g id="node32" class="node"><title>Node16</title>
<a xlink:title="STL class.">
<polygon fill="white" stroke="#bfbfbf" points="221.5,-564.5 221.5,-585.5 346.5,-585.5 346.5,-564.5 221.5,-564.5"/>
<text text-anchor="middle" x="284" y="-572.5" font-family="Helvetica,sans-Serif" font-size="10.00">std::basic_string&lt; char &gt;</text>
</a>
</g>
<!-- Node16&#45;&gt;Node15 -->
<g id="edge34" class="edge"><title>Node16&#45;&gt;Node15</title>
<path fill="none" stroke="midnightblue" d="M284,-554.231C284,-544.592 284,-533.544 284,-525.634"/>
<polygon fill="midnightblue" stroke="midnightblue" points="280.5,-554.273 284,-564.273 287.5,-554.273 280.5,-554.273"/>
</g>
<!-- Node17 -->
<g id="node34" class="node"><title>Node17</title>
<polygon fill="white" stroke="#bfbfbf" points="497.5,-432.5 497.5,-453.5 604.5,-453.5 604.5,-432.5 497.5,-432.5"/>
<text text-anchor="middle" x="551" y="-440.5" font-family="Helvetica,sans-Serif" font-size="10.00">std::vector&lt; size_t &gt;</text>
</g>
<!-- Node17&#45;&gt;Node14 -->
<g id="edge36" class="edge"><title>Node17&#45;&gt;Node14</title>
<path fill="none" stroke="#9a32cd" stroke-dasharray="5,2" d="M520.527,-427.763C492.847,-413.924 452.727,-393.863 428.335,-381.667"/>
<polygon fill="#9a32cd" stroke="#9a32cd" points="519.243,-431.034 529.752,-432.376 522.373,-424.773 519.243,-431.034"/>
<text text-anchor="middle" x="508.5" y="-404.5" font-family="Helvetica,sans-Serif" font-size="10.00"> m_size</text>
</g>
<!-- Node18&#45;&gt;Node14 -->
<g id="edge38" class="edge"><title>Node18&#45;&gt;Node14</title>
<path fill="none" stroke="#9a32cd" stroke-dasharray="5,2" d="M414.828,-422.235C412.801,-408.969 410.257,-392.319 408.63,-381.667"/>
<polygon fill="#9a32cd" stroke="#9a32cd" points="411.407,-423.019 416.377,-432.376 418.326,-421.962 411.407,-423.019"/>
<text text-anchor="middle" x="436" y="-404.5" font-family="Helvetica,sans-Serif" font-size="10.00"> m_names</text>
</g>
</g>
</svg>
