<?xml version="1.0" encoding="UTF-8" standalone="no"?>
<!DOCTYPE svg PUBLIC "-//W3C//DTD SVG 1.1//EN"
 "http://www.w3.org/Graphics/SVG/1.1/DTD/svg11.dtd">
<!-- Generated by graphviz version 2.26.3 (20100126.1600)
 -->
<!-- Title: transfer::NumaFullCache Pages: 1 -->
<svg width="234pt" height="88pt"
 viewBox="0.00 0.00 234.00 88.00" xmlns="http://www.w3.org/2000/svg" xmlns:xlink="http://www.w3.org/1999/xlink">
<g id="graph1" class="graph" transform="scale(1 1) rotate(0) translate(4 84)">
<title>transfer::NumaFullCache</title>
<polygon fill="white" stroke="white" points="-4,5 -4,-84 231,-84 231,5 -4,5"/>
<!-- Node1 -->
<g id="node1" class="node"><title>Node1</title>
<polygon fill="#bfbfbf" stroke="black" points="47,-0.5 47,-21.5 173,-21.5 173,-0.5 47,-0.5"/>
<text text-anchor="middle" x="110" y="-8.5" font-family="Helvetica,sans-Serif" font-size="10.00">transfer::NumaFullCache</text>
</g>
<!-- Node2 -->
<g id="node2" class="node"><title>Node2</title>
<a xlink:href="classtransfer_1_1NumaFull.xhtml" target="_top" xlink:title="transfer::NumaFull">
<polygon fill="white" stroke="black" points="0,-58.5 0,-79.5 98,-79.5 98,-58.5 0,-58.5"/>
<text text-anchor="middle" x="49" y="-66.5" font-family="Helvetica,sans-Serif" font-size="10.00">transfer::NumaFull</text>
</a>
</g>
<!-- Node2&#45;&gt;Node1 -->
<g id="edge2" class="edge"><title>Node2&#45;&gt;Node1</title>
<path fill="none" stroke="midnightblue" d="M67.5051,-51.405C77.7454,-41.6683 90.1315,-29.8914 98.8826,-21.5707"/>
<polygon fill="midnightblue" stroke="midnightblue" points="65.0237,-48.9348 60.1883,-58.3619 69.8471,-54.0077 65.0237,-48.9348"/>
</g>
<!-- Node3 -->
<g id="node4" class="node"><title>Node3</title>
<a xlink:href="classtransfer_1_1NumaCache.xhtml" target="_top" xlink:title="transfer::NumaCache">
<polygon fill="white" stroke="black" points="116,-58.5 116,-79.5 226,-79.5 226,-58.5 116,-58.5"/>
<text text-anchor="middle" x="171" y="-66.5" font-family="Helvetica,sans-Serif" font-size="10.00">transfer::NumaCache</text>
</a>
</g>
<!-- Node3&#45;&gt;Node1 -->
<g id="edge4" class="edge"><title>Node3&#45;&gt;Node1</title>
<path fill="none" stroke="midnightblue" d="M152.495,-51.405C142.255,-41.6683 129.869,-29.8914 121.117,-21.5707"/>
<polygon fill="midnightblue" stroke="midnightblue" points="150.153,-54.0077 159.812,-58.3619 154.976,-48.9348 150.153,-54.0077"/>
</g>
</g>
</svg>
