<?xml version="1.0" encoding="UTF-8" standalone="no"?>
<!DOCTYPE svg PUBLIC "-//W3C//DTD SVG 1.1//EN"
 "http://www.w3.org/Graphics/SVG/1.1/DTD/svg11.dtd">
<!-- Generated by graphviz version 2.26.3 (20100126.1600)
 -->
<!-- Title: G Pages: 1 -->
<svg width="1266pt" height="297pt"
 viewBox="0.00 0.00 1266.00 297.00" xmlns="http://www.w3.org/2000/svg" xmlns:xlink="http://www.w3.org/1999/xlink">
<g id="graph1" class="graph" transform="scale(1 1) rotate(0) translate(4 293)">
<title>G</title>
<polygon fill="white" stroke="white" points="-4,5 -4,-293 1263,-293 1263,5 -4,5"/>
<!-- Node1 -->
<g id="node1" class="node"><title>Node1</title>
<polygon fill="#bfbfbf" stroke="black" points="1114.5,-155.5 1114.5,-176.5 1219.5,-176.5 1219.5,-155.5 1114.5,-155.5"/>
<text text-anchor="middle" x="1167" y="-163.5" font-family="Helvetica,sans-Serif" font-size="10.00">grid::LocalStaticGrid</text>
</g>
<!-- Node2 -->
<g id="node2" class="node"><title>Node2</title>
<a xlink:href="classgrid_1_1Grid.xhtml" target="_top" xlink:title="Base class for a grid.">
<polygon fill="white" stroke="black" points="870,-133.5 870,-154.5 926,-154.5 926,-133.5 870,-133.5"/>
<text text-anchor="middle" x="898" y="-141.5" font-family="Helvetica,sans-Serif" font-size="10.00">grid::Grid</text>
</a>
</g>
<!-- Node2&#45;&gt;Node1 -->
<g id="edge2" class="edge"><title>Node2&#45;&gt;Node1</title>
<path fill="none" stroke="midnightblue" d="M936.02,-147.109C982.647,-150.923 1061.93,-157.407 1114.39,-161.697"/>
<polygon fill="midnightblue" stroke="midnightblue" points="936.279,-143.619 926.026,-146.292 935.708,-150.596 936.279,-143.619"/>
</g>
<!-- Node3 -->
<g id="node4" class="node"><title>Node3</title>
<a xlink:href="classperf_1_1Counter.xhtml" target="_top" xlink:title="perf::Counter">
<polygon fill="white" stroke="black" points="630,-167.5 630,-188.5 704,-188.5 704,-167.5 630,-167.5"/>
<text text-anchor="middle" x="667" y="-175.5" font-family="Helvetica,sans-Serif" font-size="10.00">perf::Counter</text>
</a>
</g>
<!-- Node3&#45;&gt;Node2 -->
<g id="edge4" class="edge"><title>Node3&#45;&gt;Node2</title>
<path fill="none" stroke="#9a32cd" stroke-dasharray="5,2" d="M714.298,-171.038C761.045,-164.158 831.015,-153.859 869.715,-148.163"/>
<polygon fill="#9a32cd" stroke="#9a32cd" points="713.498,-167.618 704.114,-172.537 714.517,-174.544 713.498,-167.618"/>
<text text-anchor="middle" x="763" y="-171" font-family="Helvetica,sans-Serif" font-size="10.00"> m_counter</text>
</g>
<!-- Node4 -->
<g id="node6" class="node"><title>Node4</title>
<a xlink:href="classperf_1_1Counter_1_1NameToCounterMap.xhtml" target="_top" xlink:title="perf::Counter::NameToCounterMap">
<polygon fill="white" stroke="black" points="304,-167.5 304,-188.5 474,-188.5 474,-167.5 304,-167.5"/>
<text text-anchor="middle" x="389" y="-175.5" font-family="Helvetica,sans-Serif" font-size="10.00">perf::Counter::NameToCounterMap</text>
</a>
</g>
<!-- Node4&#45;&gt;Node3 -->
<g id="edge6" class="edge"><title>Node4&#45;&gt;Node3</title>
<path fill="none" stroke="#9a32cd" stroke-dasharray="5,2" d="M484.498,-178C534.466,-178 592.776,-178 629.784,-178"/>
<polygon fill="#9a32cd" stroke="#9a32cd" points="484.298,-174.5 474.298,-178 484.298,-181.5 484.298,-174.5"/>
<text text-anchor="middle" x="546" y="-182" font-family="Helvetica,sans-Serif" font-size="10.00"> NAME_TO_COUNTER</text>
</g>
<!-- Node5 -->
<g id="node8" class="node"><title>Node5</title>
<a xlink:href="classgrid_1_1GridContainer.xhtml" target="_top" xlink:title="grid::GridContainer">
<polygon fill="white" stroke="black" points="618,-225.5 618,-246.5 716,-246.5 716,-225.5 618,-225.5"/>
<text text-anchor="middle" x="667" y="-233.5" font-family="Helvetica,sans-Serif" font-size="10.00">grid::GridContainer</text>
</a>
</g>
<!-- Node5&#45;&gt;Node2 -->
<g id="edge8" class="edge"><title>Node5&#45;&gt;Node2</title>
<path fill="none" stroke="#9a32cd" stroke-dasharray="5,2" d="M702.852,-221.536C738.386,-207.132 788.088,-186.77 792,-184 801.76,-177.09 799.686,-170.053 810,-164 828.241,-153.294 851.716,-148.318 869.831,-146.005"/>
<polygon fill="#9a32cd" stroke="#9a32cd" points="701.211,-218.425 693.255,-225.422 703.838,-224.913 701.211,-218.425"/>
<text text-anchor="middle" x="763" y="-212" font-family="Helvetica,sans-Serif" font-size="10.00"> m_container</text>
</g>
<!-- Node9 -->
<g id="node16" class="node"><title>Node9</title>
<polygon fill="white" stroke="#bfbfbf" points="824,-267.5 824,-288.5 972,-288.5 972,-267.5 824,-267.5"/>
<text text-anchor="middle" x="898" y="-275.5" font-family="Helvetica,sans-Serif" font-size="10.00">std::vector&lt; GridContainer * &gt;</text>
</g>
<!-- Node5&#45;&gt;Node9 -->
<g id="edge18" class="edge"><title>Node5&#45;&gt;Node9</title>
<path fill="none" stroke="#9a32cd" stroke-dasharray="5,2" d="M726.366,-248.526C728.944,-249.031 731.497,-249.525 734,-250 766.492,-256.166 802.727,-262.418 832.856,-267.445"/>
<polygon fill="#9a32cd" stroke="#9a32cd" points="726.846,-245.053 716.355,-246.528 725.477,-251.917 726.846,-245.053"/>
<text text-anchor="middle" x="763" y="-263" font-family="Helvetica,sans-Serif" font-size="10.00"> elements</text>
</g>
<!-- Node6 -->
<g id="node10" class="node"><title>Node6</title>
<a xlink:href="classasagi_1_1Grid.xhtml" target="_top" xlink:title="C++ Interface for ASAGI.">
<polygon fill="white" stroke="black" points="357,-216.5 357,-237.5 421,-237.5 421,-216.5 357,-216.5"/>
<text text-anchor="middle" x="389" y="-224.5" font-family="Helvetica,sans-Serif" font-size="10.00">asagi::Grid</text>
</a>
</g>
<!-- Node6&#45;&gt;Node5 -->
<g id="edge10" class="edge"><title>Node6&#45;&gt;Node5</title>
<path fill="none" stroke="midnightblue" d="M431.336,-228.371C481.491,-229.994 564.901,-232.695 617.858,-234.409"/>
<polygon fill="midnightblue" stroke="midnightblue" points="431.27,-224.867 421.162,-228.041 431.043,-231.863 431.27,-224.867"/>
</g>
<!-- Node7 -->
<g id="node12" class="node"><title>Node7</title>
<a xlink:href="classtypes_1_1Type.xhtml" target="_top" xlink:title="types::Type">
<polygon fill="white" stroke="black" points="355,-256.5 355,-277.5 423,-277.5 423,-256.5 355,-256.5"/>
<text text-anchor="middle" x="389" y="-264.5" font-family="Helvetica,sans-Serif" font-size="10.00">types::Type</text>
</a>
</g>
<!-- Node7&#45;&gt;Node5 -->
<g id="edge12" class="edge"><title>Node7&#45;&gt;Node5</title>
<path fill="none" stroke="#9a32cd" stroke-dasharray="5,2" d="M433.082,-262.788C475.798,-258.615 542.396,-251.871 600,-245 605.827,-244.305 611.934,-243.538 617.988,-242.754"/>
<polygon fill="#9a32cd" stroke="#9a32cd" points="432.635,-259.314 423.021,-263.766 433.313,-266.282 432.635,-259.314"/>
<text text-anchor="middle" x="546" y="-260" font-family="Helvetica,sans-Serif" font-size="10.00"> m_type</text>
</g>
<!-- Node8 -->
<g id="node14" class="node"><title>Node8</title>
<a xlink:href="classfortran_1_1PointerArray.xhtml" target="_top" xlink:title="fortran::PointerArray\&lt; GridContainer \&gt;">
<polygon fill="white" stroke="black" points="1076,-243.5 1076,-264.5 1258,-264.5 1258,-243.5 1076,-243.5"/>
<text text-anchor="middle" x="1167" y="-251.5" font-family="Helvetica,sans-Serif" font-size="10.00">fortran::PointerArray&lt; GridContainer &gt;</text>
</a>
</g>
<!-- Node8&#45;&gt;Node5 -->
<g id="edge14" class="edge"><title>Node8&#45;&gt;Node5</title>
<path fill="none" stroke="#9a32cd" stroke-dasharray="5,2" d="M1065.64,-248.576C1039.68,-247.292 1011.81,-246.006 986,-245 890.501,-241.279 778.861,-238.486 716.194,-237.06"/>
<polygon fill="#9a32cd" stroke="#9a32cd" points="1065.7,-252.083 1075.87,-249.086 1066.05,-245.092 1065.7,-252.083"/>
<text text-anchor="middle" x="898" y="-249" font-family="Helvetica,sans-Serif" font-size="10.00"> m_pointers</text>
</g>
<!-- Node9&#45;&gt;Node8 -->
<g id="edge16" class="edge"><title>Node9&#45;&gt;Node8</title>
<path fill="none" stroke="#9a32cd" stroke-dasharray="5,2" d="M982.534,-270.458C1012.18,-267.813 1045.6,-264.831 1075.77,-262.14"/>
<polygon fill="#9a32cd" stroke="#9a32cd" points="981.867,-267.003 972.218,-271.378 982.489,-273.976 981.867,-267.003"/>
<text text-anchor="middle" x="1031" y="-272" font-family="Helvetica,sans-Serif" font-size="10.00"> m_pointers</text>
</g>
<!-- Node10 -->
<g id="node19" class="node"><title>Node10</title>
<a xlink:href="classio_1_1NetCdfReader.xhtml" target="_top" xlink:title="io::NetCdfReader">
<polygon fill="white" stroke="black" points="620.5,-68.5 620.5,-89.5 713.5,-89.5 713.5,-68.5 620.5,-68.5"/>
<text text-anchor="middle" x="667" y="-76.5" font-family="Helvetica,sans-Serif" font-size="10.00">io::NetCdfReader</text>
</a>
</g>
<!-- Node10&#45;&gt;Node2 -->
<g id="edge20" class="edge"><title>Node10&#45;&gt;Node2</title>
<path fill="none" stroke="#9a32cd" stroke-dasharray="5,2" d="M718.236,-92.0933C740.892,-97.9947 767.825,-105.162 792,-112 818.451,-119.482 848.426,-128.59 869.735,-135.173"/>
<polygon fill="#9a32cd" stroke="#9a32cd" points="719.04,-88.6861 708.481,-89.5618 717.282,-95.4617 719.04,-88.6861"/>
<text text-anchor="middle" x="763" y="-116" font-family="Helvetica,sans-Serif" font-size="10.00"> m_inputFile</text>
</g>
<!-- Node11 -->
<g id="node21" class="node"><title>Node11</title>
<a xlink:title="STL class.">
<polygon fill="white" stroke="#bfbfbf" points="164,-47.5 164,-68.5 224,-68.5 224,-47.5 164,-47.5"/>
<text text-anchor="middle" x="194" y="-55.5" font-family="Helvetica,sans-Serif" font-size="10.00">std::string</text>
</a>
</g>
<!-- Node11&#45;&gt;Node2 -->
<g id="edge32" class="edge"><title>Node11&#45;&gt;Node2</title>
<path fill="none" stroke="#9a32cd" stroke-dasharray="5,2" d="M215.927,-74.5325C237.183,-89.5071 270.972,-110.616 304,-120 412.215,-150.745 766.871,-146.531 869.775,-144.603"/>
<polygon fill="#9a32cd" stroke="#9a32cd" points="217.781,-71.5544 207.624,-68.5425 213.686,-77.2314 217.781,-71.5544"/>
<text text-anchor="middle" x="546" y="-149" font-family="Helvetica,sans-Serif" font-size="10.00"> m_variableName</text>
</g>
<!-- Node11&#45;&gt;Node10 -->
<g id="edge22" class="edge"><title>Node11&#45;&gt;Node10</title>
<path fill="none" stroke="#9a32cd" stroke-dasharray="5,2" d="M234.53,-58.9218C288.999,-60.2479 388.829,-62.9843 474,-67 523.966,-69.3559 581.149,-73.0345 620.222,-75.698"/>
<polygon fill="#9a32cd" stroke="#9a32cd" points="234.34,-55.4164 224.259,-58.6755 234.172,-62.4144 234.34,-55.4164"/>
<text text-anchor="middle" x="389" y="-71" font-family="Helvetica,sans-Serif" font-size="10.00"> m_filename</text>
</g>
<!-- Node14 -->
<g id="node27" class="node"><title>Node14</title>
<polygon fill="white" stroke="#bfbfbf" points="326.5,-0.5 326.5,-21.5 451.5,-21.5 451.5,-0.5 326.5,-0.5"/>
<text text-anchor="middle" x="389" y="-8.5" font-family="Helvetica,sans-Serif" font-size="10.00">std::vector&lt; std::string &gt;</text>
</g>
<!-- Node11&#45;&gt;Node14 -->
<g id="edge30" class="edge"><title>Node11&#45;&gt;Node14</title>
<path fill="none" stroke="#9a32cd" stroke-dasharray="5,2" d="M218.083,-42.1186C225.488,-37.8879 233.842,-33.738 242,-31 268.859,-21.9855 299.777,-17.0252 326.307,-14.2994"/>
<polygon fill="#9a32cd" stroke="#9a32cd" points="216.051,-39.2567 209.298,-47.4205 219.668,-45.2498 216.051,-39.2567"/>
<text text-anchor="middle" x="264" y="-35" font-family="Helvetica,sans-Serif" font-size="10.00"> elements</text>
</g>
<!-- Node12 -->
<g id="node23" class="node"><title>Node12</title>
<a xlink:title="STL class.">
<polygon fill="white" stroke="#bfbfbf" points="0.5,-47.5 0.5,-68.5 125.5,-68.5 125.5,-47.5 0.5,-47.5"/>
<text text-anchor="middle" x="63" y="-55.5" font-family="Helvetica,sans-Serif" font-size="10.00">std::basic_string&lt; char &gt;</text>
</a>
</g>
<!-- Node12&#45;&gt;Node11 -->
<g id="edge24" class="edge"><title>Node12&#45;&gt;Node11</title>
<path fill="none" stroke="midnightblue" d="M136.065,-58C145.859,-58 155.423,-58 163.868,-58"/>
<polygon fill="midnightblue" stroke="midnightblue" points="135.814,-54.5001 125.814,-58 135.814,-61.5001 135.814,-54.5001"/>
</g>
<!-- Node13 -->
<g id="node25" class="node"><title>Node13</title>
<polygon fill="white" stroke="#bfbfbf" points="335.5,-89.5 335.5,-110.5 442.5,-110.5 442.5,-89.5 335.5,-89.5"/>
<text text-anchor="middle" x="389" y="-97.5" font-family="Helvetica,sans-Serif" font-size="10.00">std::vector&lt; size_t &gt;</text>
</g>
<!-- Node13&#45;&gt;Node10 -->
<g id="edge26" class="edge"><title>Node13&#45;&gt;Node10</title>
<path fill="none" stroke="#9a32cd" stroke-dasharray="5,2" d="M452.882,-95.1743C504.033,-91.3105 574.581,-85.9813 620.489,-82.5134"/>
<polygon fill="#9a32cd" stroke="#9a32cd" points="452.309,-91.7076 442.601,-95.951 452.836,-98.6877 452.309,-91.7076"/>
<text text-anchor="middle" x="546" y="-96" font-family="Helvetica,sans-Serif" font-size="10.00"> m_size</text>
</g>
<!-- Node14&#45;&gt;Node10 -->
<g id="edge28" class="edge"><title>Node14&#45;&gt;Node10</title>
<path fill="none" stroke="#9a32cd" stroke-dasharray="5,2" d="M461.917,-8.63026C503.56,-9.53295 556.065,-14.5588 600,-31 622.246,-39.3249 643.813,-57.036 656.228,-68.4603"/>
<polygon fill="#9a32cd" stroke="#9a32cd" points="461.898,-5.12973 451.849,-8.48698 461.798,-12.129 461.898,-5.12973"/>
<text text-anchor="middle" x="546" y="-35" font-family="Helvetica,sans-Serif" font-size="10.00"> m_names</text>
</g>
<!-- Node15 -->
<g id="node31" class="node"><title>Node15</title>
<a xlink:href="classallocator_1_1Allocator.xhtml" target="_top" xlink:title="allocator::Allocator\&lt; unsigned char \&gt;">
<polygon fill="white" stroke="black" points="810,-173.5 810,-194.5 986,-194.5 986,-173.5 810,-173.5"/>
<text text-anchor="middle" x="898" y="-181.5" font-family="Helvetica,sans-Serif" font-size="10.00">allocator::Allocator&lt; unsigned char &gt;</text>
</a>
</g>
<!-- Node15&#45;&gt;Node1 -->
<g id="edge34" class="edge"><title>Node15&#45;&gt;Node1</title>
<path fill="none" stroke="#9a32cd" stroke-dasharray="5,2" d="M996.148,-177.433C1036.18,-174.754 1080.85,-171.765 1114.47,-169.515"/>
<polygon fill="#9a32cd" stroke="#9a32cd" points="995.825,-173.946 986.081,-178.106 996.292,-180.931 995.825,-173.946"/>
<text text-anchor="middle" x="1031" y="-180" font-family="Helvetica,sans-Serif" font-size="10.00"> m_allocator</text>
</g>
</g>
</svg>
