<?xml version="1.0" encoding="UTF-8" standalone="no"?>
<!DOCTYPE svg PUBLIC "-//W3C//DTD SVG 1.1//EN"
 "http://www.w3.org/Graphics/SVG/1.1/DTD/svg11.dtd">
<!-- Generated by graphviz version 2.26.3 (20100126.1600)
 -->
<!-- Title: types::BasicType&lt; T &gt; Pages: 1 -->
<svg width="260pt" height="146pt"
 viewBox="0.00 0.00 260.00 146.00" xmlns="http://www.w3.org/2000/svg" xmlns:xlink="http://www.w3.org/1999/xlink">
<g id="graph1" class="graph" transform="scale(1 1) rotate(0) translate(4 142)">
<title>types::BasicType&lt; T &gt;</title>
<polygon fill="white" stroke="white" points="-4,5 -4,-142 257,-142 257,5 -4,5"/>
<!-- Node1 -->
<g id="node1" class="node"><title>Node1</title>
<polygon fill="#bfbfbf" stroke="black" points="66.5,-58.5 66.5,-79.5 183.5,-79.5 183.5,-58.5 66.5,-58.5"/>
<text text-anchor="middle" x="125" y="-66.5" font-family="Helvetica,sans-Serif" font-size="10.00">types::BasicType&lt; T &gt;</text>
</g>
<!-- Node3 -->
<g id="node5" class="node"><title>Node3</title>
<a xlink:href="classtypes_1_1ArrayType.xhtml" target="_top" xlink:title="types::ArrayType\&lt; T \&gt;">
<polygon fill="white" stroke="black" points="0,-0.5 0,-21.5 116,-21.5 116,-0.5 0,-0.5"/>
<text text-anchor="middle" x="58" y="-8.5" font-family="Helvetica,sans-Serif" font-size="10.00">types::ArrayType&lt; T &gt;</text>
</a>
</g>
<!-- Node1&#45;&gt;Node3 -->
<g id="edge4" class="edge"><title>Node1&#45;&gt;Node3</title>
<path fill="none" stroke="midnightblue" d="M105.005,-51.6908C93.6944,-41.8996 79.917,-29.973 70.2109,-21.5707"/>
<polygon fill="midnightblue" stroke="midnightblue" points="102.86,-54.4631 112.711,-58.3619 107.441,-49.1706 102.86,-54.4631"/>
</g>
<!-- Node4 -->
<g id="node7" class="node"><title>Node4</title>
<a xlink:href="classtypes_1_1StructType.xhtml" target="_top" xlink:title="types::StructType\&lt; T \&gt;">
<polygon fill="white" stroke="black" points="133.5,-0.5 133.5,-21.5 252.5,-21.5 252.5,-0.5 133.5,-0.5"/>
<text text-anchor="middle" x="193" y="-8.5" font-family="Helvetica,sans-Serif" font-size="10.00">types::StructType&lt; T &gt;</text>
</a>
</g>
<!-- Node1&#45;&gt;Node4 -->
<g id="edge6" class="edge"><title>Node1&#45;&gt;Node4</title>
<path fill="none" stroke="midnightblue" d="M145.294,-51.6908C156.773,-41.8996 170.756,-29.973 180.607,-21.5707"/>
<polygon fill="midnightblue" stroke="midnightblue" points="142.809,-49.2095 137.472,-58.3619 147.352,-54.5353 142.809,-49.2095"/>
</g>
<!-- Node2 -->
<g id="node2" class="node"><title>Node2</title>
<a xlink:href="classtypes_1_1Type.xhtml" target="_top" xlink:title="types::Type">
<polygon fill="white" stroke="black" points="91,-116.5 91,-137.5 159,-137.5 159,-116.5 91,-116.5"/>
<text text-anchor="middle" x="125" y="-124.5" font-family="Helvetica,sans-Serif" font-size="10.00">types::Type</text>
</a>
</g>
<!-- Node2&#45;&gt;Node1 -->
<g id="edge2" class="edge"><title>Node2&#45;&gt;Node1</title>
<path fill="none" stroke="midnightblue" d="M125,-106.191C125,-97.1684 125,-86.9941 125,-79.5707"/>
<polygon fill="midnightblue" stroke="midnightblue" points="121.5,-106.362 125,-116.362 128.5,-106.362 121.5,-106.362"/>
</g>
</g>
</svg>
