<?xml version="1.0" encoding="UTF-8" standalone="no"?>
<!DOCTYPE svg PUBLIC "-//W3C//DTD SVG 1.1//EN"
 "http://www.w3.org/Graphics/SVG/1.1/DTD/svg11.dtd">
<!-- Generated by graphviz version 2.26.3 (20100126.1600)
 -->
<!-- Title: G Pages: 1 -->
<svg width="318pt" height="88pt"
 viewBox="0.00 0.00 318.00 88.00" xmlns="http://www.w3.org/2000/svg" xmlns:xlink="http://www.w3.org/1999/xlink">
<g id="graph1" class="graph" transform="scale(1 1) rotate(0) translate(4 84)">
<title>G</title>
<polygon fill="white" stroke="white" points="-4,5 -4,-84 315,-84 315,5 -4,5"/>
<!-- Node1 -->
<g id="node1" class="node"><title>Node1</title>
<polygon fill="#bfbfbf" stroke="black" points="97,-58.5 97,-79.5 219,-79.5 219,-58.5 97,-58.5"/>
<text text-anchor="middle" x="158" y="-66.5" font-family="Helvetica,sans-Serif" font-size="10.00">allocator::Allocator&lt; T &gt;</text>
</g>
<!-- Node2 -->
<g id="node3" class="node"><title>Node2</title>
<a xlink:href="classallocator_1_1DefaultAllocator.xhtml" target="_top" xlink:title="allocator::DefaultAllocator\&lt; T \&gt;">
<polygon fill="white" stroke="black" points="-0.5,-0.5 -0.5,-21.5 152.5,-21.5 152.5,-0.5 -0.5,-0.5"/>
<text text-anchor="middle" x="76" y="-8.5" font-family="Helvetica,sans-Serif" font-size="10.00">allocator::DefaultAllocator&lt; T &gt;</text>
</a>
</g>
<!-- Node1&#45;&gt;Node2 -->
<g id="edge2" class="edge"><title>Node1&#45;&gt;Node2</title>
<path fill="none" stroke="midnightblue" d="M134.73,-52.5407C120.672,-42.5973 103.17,-30.2177 90.9447,-21.5707"/>
<polygon fill="midnightblue" stroke="midnightblue" points="132.775,-55.4447 142.96,-58.3619 136.817,-49.7298 132.775,-55.4447"/>
</g>
<!-- Node3 -->
<g id="node5" class="node"><title>Node3</title>
<a xlink:href="classallocator_1_1MPIAllocator.xhtml" target="_top" xlink:title="allocator::MPIAllocator\&lt; T \&gt;">
<polygon fill="white" stroke="black" points="170,-0.5 170,-21.5 310,-21.5 310,-0.5 170,-0.5"/>
<text text-anchor="middle" x="240" y="-8.5" font-family="Helvetica,sans-Serif" font-size="10.00">allocator::MPIAllocator&lt; T &gt;</text>
</a>
</g>
<!-- Node1&#45;&gt;Node3 -->
<g id="edge4" class="edge"><title>Node1&#45;&gt;Node3</title>
<path fill="none" stroke="midnightblue" d="M181.27,-52.5407C195.328,-42.5973 212.83,-30.2177 225.055,-21.5707"/>
<polygon fill="midnightblue" stroke="midnightblue" points="179.183,-49.7298 173.04,-58.3619 183.225,-55.4447 179.183,-49.7298"/>
</g>
</g>
</svg>
