<?xml version="1.0" encoding="UTF-8" standalone="no"?>
<!DOCTYPE svg PUBLIC "-//W3C//DTD SVG 1.1//EN"
 "http://www.w3.org/Graphics/SVG/1.1/DTD/svg11.dtd">
<!-- Generated by graphviz version 2.26.3 (20100126.1600)
 -->
<!-- Title: transfer::MPIThreadFull Pages: 1 -->
<svg width="224pt" height="102pt"
 viewBox="0.00 0.00 224.00 102.00" xmlns="http://www.w3.org/2000/svg" xmlns:xlink="http://www.w3.org/1999/xlink">
<g id="graph1" class="graph" transform="scale(1 1) rotate(0) translate(4 98)">
<title>transfer::MPIThreadFull</title>
<polygon fill="white" stroke="white" points="-4,5 -4,-98 221,-98 221,5 -4,5"/>
<!-- Node1 -->
<g id="node1" class="node"><title>Node1</title>
<polygon fill="#bfbfbf" stroke="black" points="35.5,-0.5 35.5,-21.5 154.5,-21.5 154.5,-0.5 35.5,-0.5"/>
<text text-anchor="middle" x="95" y="-8.5" font-family="Helvetica,sans-Serif" font-size="10.00">transfer::MPIThreadFull</text>
</g>
<!-- Node2 -->
<g id="node2" class="node"><title>Node2</title>
<a xlink:href="classmpi_1_1Receiver.xhtml" target="_top" xlink:title="mpi::Receiver">
<polygon fill="white" stroke="black" points="-0.5,-72.5 -0.5,-93.5 76.5,-93.5 76.5,-72.5 -0.5,-72.5"/>
<text text-anchor="middle" x="38" y="-80.5" font-family="Helvetica,sans-Serif" font-size="10.00">mpi::Receiver</text>
</a>
</g>
<!-- Node2&#45;&gt;Node1 -->
<g id="edge2" class="edge"><title>Node2&#45;&gt;Node1</title>
<path fill="none" stroke="#8b1a1a" d="M52.8848,-64.1981C63.6112,-50.649 77.701,-32.8514 86.5549,-21.6674"/>
<polygon fill="#8b1a1a" stroke="#8b1a1a" points="49.8734,-62.3632 46.4105,-72.3762 55.3618,-66.7081 49.8734,-62.3632"/>
</g>
<!-- Node3 -->
<g id="node4" class="node"><title>Node3</title>
<a xlink:href="classthreads_1_1PthreadMutex.xhtml" target="_top" xlink:title="threads::PthreadMutex">
<polygon fill="white" stroke="black" points="94,-72.5 94,-93.5 210,-93.5 210,-72.5 94,-72.5"/>
<text text-anchor="middle" x="152" y="-80.5" font-family="Helvetica,sans-Serif" font-size="10.00">threads::PthreadMutex</text>
</a>
</g>
<!-- Node3&#45;&gt;Node1 -->
<g id="edge4" class="edge"><title>Node3&#45;&gt;Node1</title>
<path fill="none" stroke="#9a32cd" stroke-dasharray="5,2" d="M137.115,-64.1981C126.389,-50.649 112.299,-32.8514 103.445,-21.6674"/>
<polygon fill="#9a32cd" stroke="#9a32cd" points="134.638,-66.7081 143.589,-72.3762 140.127,-62.3632 134.638,-66.7081"/>
<text text-anchor="middle" x="172" y="-44.5" font-family="Helvetica,sans-Serif" font-size="10.00"> m_sendRecvMutex</text>
</g>
</g>
</svg>
