<?xml version="1.0" encoding="UTF-8" standalone="no"?>
<!DOCTYPE svg PUBLIC "-//W3C//DTD SVG 1.1//EN"
 "http://www.w3.org/Graphics/SVG/1.1/DTD/svg11.dtd">
<!-- Generated by graphviz version 2.26.3 (20100126.1600)
 -->
<!-- Title: G Pages: 1 -->
<svg width="1236pt" height="274pt"
 viewBox="0.00 0.00 1236.00 274.00" xmlns="http://www.w3.org/2000/svg" xmlns:xlink="http://www.w3.org/1999/xlink">
<g id="graph1" class="graph" transform="scale(1 1) rotate(0) translate(4 270)">
<title>G</title>
<polygon fill="white" stroke="white" points="-4,5 -4,-270 1233,-270 1233,5 -4,5"/>
<!-- Node1 -->
<g id="node1" class="node"><title>Node1</title>
<polygon fill="#bfbfbf" stroke="black" points="1080,-134.5 1080,-155.5 1194,-155.5 1194,-134.5 1080,-134.5"/>
<text text-anchor="middle" x="1137" y="-142.5" font-family="Helvetica,sans-Serif" font-size="10.00">grid::PassThroughGrid</text>
</g>
<!-- Node2 -->
<g id="node2" class="node"><title>Node2</title>
<a xlink:href="classgrid_1_1Grid.xhtml" target="_top" xlink:title="Base class for a grid.">
<polygon fill="white" stroke="black" points="856,-134.5 856,-155.5 912,-155.5 912,-134.5 856,-134.5"/>
<text text-anchor="middle" x="884" y="-142.5" font-family="Helvetica,sans-Serif" font-size="10.00">grid::Grid</text>
</a>
</g>
<!-- Node2&#45;&gt;Node1 -->
<g id="edge2" class="edge"><title>Node2&#45;&gt;Node1</title>
<path fill="none" stroke="midnightblue" d="M922.108,-145C963.998,-145 1031.74,-145 1079.97,-145"/>
<polygon fill="midnightblue" stroke="midnightblue" points="922.042,-141.5 912.042,-145 922.042,-148.5 922.042,-141.5"/>
</g>
<!-- Node3 -->
<g id="node4" class="node"><title>Node3</title>
<a xlink:href="classperf_1_1Counter.xhtml" target="_top" xlink:title="perf::Counter">
<polygon fill="white" stroke="black" points="630,-98.5 630,-119.5 704,-119.5 704,-98.5 630,-98.5"/>
<text text-anchor="middle" x="667" y="-106.5" font-family="Helvetica,sans-Serif" font-size="10.00">perf::Counter</text>
</a>
</g>
<!-- Node3&#45;&gt;Node2 -->
<g id="edge4" class="edge"><title>Node3&#45;&gt;Node2</title>
<path fill="none" stroke="#9a32cd" stroke-dasharray="5,2" d="M714.3,-116.847C757.505,-124.015 819.949,-134.374 855.808,-140.323"/>
<polygon fill="#9a32cd" stroke="#9a32cd" points="714.742,-113.373 704.304,-115.189 713.596,-120.278 714.742,-113.373"/>
<text text-anchor="middle" x="763" y="-134" font-family="Helvetica,sans-Serif" font-size="10.00"> m_counter</text>
</g>
<!-- Node4 -->
<g id="node6" class="node"><title>Node4</title>
<a xlink:href="classperf_1_1Counter_1_1NameToCounterMap.xhtml" target="_top" xlink:title="perf::Counter::NameToCounterMap">
<polygon fill="white" stroke="black" points="304,-80.5 304,-101.5 474,-101.5 474,-80.5 304,-80.5"/>
<text text-anchor="middle" x="389" y="-88.5" font-family="Helvetica,sans-Serif" font-size="10.00">perf::Counter::NameToCounterMap</text>
</a>
</g>
<!-- Node4&#45;&gt;Node3 -->
<g id="edge6" class="edge"><title>Node4&#45;&gt;Node3</title>
<path fill="none" stroke="#9a32cd" stroke-dasharray="5,2" d="M484.498,-97.1833C534.466,-100.419 592.776,-104.194 629.784,-106.59"/>
<polygon fill="#9a32cd" stroke="#9a32cd" points="484.504,-93.6765 474.298,-96.5229 484.051,-100.662 484.504,-93.6765"/>
<text text-anchor="middle" x="546" y="-109" font-family="Helvetica,sans-Serif" font-size="10.00"> NAME_TO_COUNTER</text>
</g>
<!-- Node5 -->
<g id="node8" class="node"><title>Node5</title>
<a xlink:href="classgrid_1_1GridContainer.xhtml" target="_top" xlink:title="grid::GridContainer">
<polygon fill="white" stroke="black" points="618,-40.5 618,-61.5 716,-61.5 716,-40.5 618,-40.5"/>
<text text-anchor="middle" x="667" y="-48.5" font-family="Helvetica,sans-Serif" font-size="10.00">grid::GridContainer</text>
</a>
</g>
<!-- Node5&#45;&gt;Node2 -->
<g id="edge8" class="edge"><title>Node5&#45;&gt;Node2</title>
<path fill="none" stroke="#9a32cd" stroke-dasharray="5,2" d="M701.898,-65.5966C727.009,-76.148 761.657,-90.8075 792,-104 815.413,-114.18 842.044,-126.084 860.608,-134.434"/>
<polygon fill="#9a32cd" stroke="#9a32cd" points="703.01,-62.2677 692.435,-61.6248 700.301,-68.7222 703.01,-62.2677"/>
<text text-anchor="middle" x="763" y="-108" font-family="Helvetica,sans-Serif" font-size="10.00"> m_container</text>
</g>
<!-- Node9 -->
<g id="node16" class="node"><title>Node9</title>
<polygon fill="white" stroke="#bfbfbf" points="810,-46.5 810,-67.5 958,-67.5 958,-46.5 810,-46.5"/>
<text text-anchor="middle" x="884" y="-54.5" font-family="Helvetica,sans-Serif" font-size="10.00">std::vector&lt; GridContainer * &gt;</text>
</g>
<!-- Node5&#45;&gt;Node9 -->
<g id="edge18" class="edge"><title>Node5&#45;&gt;Node9</title>
<path fill="none" stroke="#9a32cd" stroke-dasharray="5,2" d="M726.242,-52.638C752.03,-53.3511 782.531,-54.1944 809.807,-54.9486"/>
<polygon fill="#9a32cd" stroke="#9a32cd" points="726.334,-49.1393 716.241,-52.3615 726.14,-56.1366 726.334,-49.1393"/>
<text text-anchor="middle" x="763" y="-59" font-family="Helvetica,sans-Serif" font-size="10.00"> elements</text>
</g>
<!-- Node6 -->
<g id="node10" class="node"><title>Node6</title>
<a xlink:href="classasagi_1_1Grid.xhtml" target="_top" xlink:title="C++ Interface for ASAGI.">
<polygon fill="white" stroke="black" points="357,-0.5 357,-21.5 421,-21.5 421,-0.5 357,-0.5"/>
<text text-anchor="middle" x="389" y="-8.5" font-family="Helvetica,sans-Serif" font-size="10.00">asagi::Grid</text>
</a>
</g>
<!-- Node6&#45;&gt;Node5 -->
<g id="edge10" class="edge"><title>Node6&#45;&gt;Node5</title>
<path fill="none" stroke="midnightblue" d="M431.336,-17.0916C481.491,-24.308 564.901,-36.3096 617.858,-43.9292"/>
<polygon fill="midnightblue" stroke="midnightblue" points="431.558,-13.5875 421.162,-15.6276 430.561,-20.5162 431.558,-13.5875"/>
</g>
<!-- Node7 -->
<g id="node12" class="node"><title>Node7</title>
<a xlink:href="classtypes_1_1Type.xhtml" target="_top" xlink:title="types::Type">
<polygon fill="white" stroke="black" points="355,-40.5 355,-61.5 423,-61.5 423,-40.5 355,-40.5"/>
<text text-anchor="middle" x="389" y="-48.5" font-family="Helvetica,sans-Serif" font-size="10.00">types::Type</text>
</a>
</g>
<!-- Node7&#45;&gt;Node5 -->
<g id="edge12" class="edge"><title>Node7&#45;&gt;Node5</title>
<path fill="none" stroke="#9a32cd" stroke-dasharray="5,2" d="M433.315,-51C483.584,-51 565.343,-51 617.62,-51"/>
<polygon fill="#9a32cd" stroke="#9a32cd" points="433.088,-47.5001 423.088,-51 433.088,-54.5001 433.088,-47.5001"/>
<text text-anchor="middle" x="546" y="-55" font-family="Helvetica,sans-Serif" font-size="10.00"> m_type</text>
</g>
<!-- Node8 -->
<g id="node14" class="node"><title>Node8</title>
<a xlink:href="classfortran_1_1PointerArray.xhtml" target="_top" xlink:title="fortran::PointerArray\&lt; GridContainer \&gt;">
<polygon fill="white" stroke="black" points="1046,-23.5 1046,-44.5 1228,-44.5 1228,-23.5 1046,-23.5"/>
<text text-anchor="middle" x="1137" y="-31.5" font-family="Helvetica,sans-Serif" font-size="10.00">fortran::PointerArray&lt; GridContainer &gt;</text>
</a>
</g>
<!-- Node8&#45;&gt;Node5 -->
<g id="edge14" class="edge"><title>Node8&#45;&gt;Node5</title>
<path fill="none" stroke="#9a32cd" stroke-dasharray="5,2" d="M1035.7,-24.4554C971.004,-19.9522 885.418,-16.9424 810,-24 776.544,-27.1308 739.253,-34.2962 711.142,-40.4589"/>
<polygon fill="#9a32cd" stroke="#9a32cd" points="1035.67,-27.9625 1045.89,-25.1897 1036.17,-20.9805 1035.67,-27.9625"/>
<text text-anchor="middle" x="884" y="-28" font-family="Helvetica,sans-Serif" font-size="10.00"> m_pointers</text>
</g>
<!-- Node9&#45;&gt;Node8 -->
<g id="edge16" class="edge"><title>Node9&#45;&gt;Node8</title>
<path fill="none" stroke="#9a32cd" stroke-dasharray="5,2" d="M968.32,-49.3345C993.174,-47.0751 1020.48,-44.5927 1045.75,-42.2957"/>
<polygon fill="#9a32cd" stroke="#9a32cd" points="967.841,-45.8636 958.199,-50.2546 968.475,-52.8348 967.841,-45.8636"/>
<text text-anchor="middle" x="1002" y="-53" font-family="Helvetica,sans-Serif" font-size="10.00"> m_pointers</text>
</g>
<!-- Node10 -->
<g id="node19" class="node"><title>Node10</title>
<a xlink:href="classio_1_1NetCdfReader.xhtml" target="_top" xlink:title="io::NetCdfReader">
<polygon fill="white" stroke="black" points="620.5,-158.5 620.5,-179.5 713.5,-179.5 713.5,-158.5 620.5,-158.5"/>
<text text-anchor="middle" x="667" y="-166.5" font-family="Helvetica,sans-Serif" font-size="10.00">io::NetCdfReader</text>
</a>
</g>
<!-- Node10&#45;&gt;Node2 -->
<g id="edge20" class="edge"><title>Node10&#45;&gt;Node2</title>
<path fill="none" stroke="#9a32cd" stroke-dasharray="5,2" d="M723.75,-162.724C766.197,-158.029 822.443,-151.808 855.768,-148.122"/>
<polygon fill="#9a32cd" stroke="#9a32cd" points="723.107,-159.273 713.552,-163.851 723.876,-166.231 723.107,-159.273"/>
<text text-anchor="middle" x="763" y="-166" font-family="Helvetica,sans-Serif" font-size="10.00"> m_inputFile</text>
</g>
<!-- Node11 -->
<g id="node21" class="node"><title>Node11</title>
<a xlink:title="STL class.">
<polygon fill="white" stroke="#bfbfbf" points="164,-167.5 164,-188.5 224,-188.5 224,-167.5 164,-167.5"/>
<text text-anchor="middle" x="194" y="-175.5" font-family="Helvetica,sans-Serif" font-size="10.00">std::string</text>
</a>
</g>
<!-- Node11&#45;&gt;Node2 -->
<g id="edge32" class="edge"><title>Node11&#45;&gt;Node2</title>
<path fill="none" stroke="#9a32cd" stroke-dasharray="5,2" d="M215.491,-194.581C236.664,-209.788 270.604,-231.236 304,-240 516.687,-295.812 782.296,-190.34 861.014,-155.571"/>
<polygon fill="#9a32cd" stroke="#9a32cd" points="217.364,-191.614 207.237,-188.5 213.212,-197.249 217.364,-191.614"/>
<text text-anchor="middle" x="546" y="-257" font-family="Helvetica,sans-Serif" font-size="10.00"> m_variableName</text>
</g>
<!-- Node11&#45;&gt;Node10 -->
<g id="edge22" class="edge"><title>Node11&#45;&gt;Node10</title>
<path fill="none" stroke="#9a32cd" stroke-dasharray="5,2" d="M234.354,-177.232C321.691,-175.57 527.812,-171.648 620.465,-169.885"/>
<polygon fill="#9a32cd" stroke="#9a32cd" points="234.239,-173.734 224.308,-177.423 234.373,-180.732 234.239,-173.734"/>
<text text-anchor="middle" x="389" y="-179" font-family="Helvetica,sans-Serif" font-size="10.00"> m_filename</text>
</g>
<!-- Node14 -->
<g id="node27" class="node"><title>Node14</title>
<polygon fill="white" stroke="#bfbfbf" points="326.5,-120.5 326.5,-141.5 451.5,-141.5 451.5,-120.5 326.5,-120.5"/>
<text text-anchor="middle" x="389" y="-128.5" font-family="Helvetica,sans-Serif" font-size="10.00">std::vector&lt; std::string &gt;</text>
</g>
<!-- Node11&#45;&gt;Node14 -->
<g id="edge30" class="edge"><title>Node11&#45;&gt;Node14</title>
<path fill="none" stroke="#9a32cd" stroke-dasharray="5,2" d="M218.083,-162.119C225.488,-157.888 233.842,-153.738 242,-151 268.859,-141.986 299.777,-137.025 326.307,-134.299"/>
<polygon fill="#9a32cd" stroke="#9a32cd" points="216.051,-159.257 209.298,-167.42 219.668,-165.25 216.051,-159.257"/>
<text text-anchor="middle" x="264" y="-155" font-family="Helvetica,sans-Serif" font-size="10.00"> elements</text>
</g>
<!-- Node12 -->
<g id="node23" class="node"><title>Node12</title>
<a xlink:title="STL class.">
<polygon fill="white" stroke="#bfbfbf" points="0.5,-167.5 0.5,-188.5 125.5,-188.5 125.5,-167.5 0.5,-167.5"/>
<text text-anchor="middle" x="63" y="-175.5" font-family="Helvetica,sans-Serif" font-size="10.00">std::basic_string&lt; char &gt;</text>
</a>
</g>
<!-- Node12&#45;&gt;Node11 -->
<g id="edge24" class="edge"><title>Node12&#45;&gt;Node11</title>
<path fill="none" stroke="midnightblue" d="M136.065,-178C145.859,-178 155.423,-178 163.868,-178"/>
<polygon fill="midnightblue" stroke="midnightblue" points="135.814,-174.5 125.814,-178 135.814,-181.5 135.814,-174.5"/>
</g>
<!-- Node13 -->
<g id="node25" class="node"><title>Node13</title>
<polygon fill="white" stroke="#bfbfbf" points="335.5,-209.5 335.5,-230.5 442.5,-230.5 442.5,-209.5 335.5,-209.5"/>
<text text-anchor="middle" x="389" y="-217.5" font-family="Helvetica,sans-Serif" font-size="10.00">std::vector&lt; size_t &gt;</text>
</g>
<!-- Node13&#45;&gt;Node10 -->
<g id="edge26" class="edge"><title>Node13&#45;&gt;Node10</title>
<path fill="none" stroke="#9a32cd" stroke-dasharray="5,2" d="M452.991,-214.844C495.137,-210.634 551.319,-203.465 600,-192 613.527,-188.814 628.166,-183.959 640.301,-179.53"/>
<polygon fill="#9a32cd" stroke="#9a32cd" points="452.48,-211.377 442.865,-215.826 453.156,-218.344 452.48,-211.377"/>
<text text-anchor="middle" x="546" y="-213" font-family="Helvetica,sans-Serif" font-size="10.00"> m_size</text>
</g>
<!-- Node14&#45;&gt;Node10 -->
<g id="edge28" class="edge"><title>Node14&#45;&gt;Node10</title>
<path fill="none" stroke="#9a32cd" stroke-dasharray="5,2" d="M461.834,-134.878C502.681,-137.808 554.433,-142.78 600,-151 610.549,-152.903 621.861,-155.659 632.131,-158.444"/>
<polygon fill="#9a32cd" stroke="#9a32cd" points="461.913,-131.375 451.695,-134.176 461.43,-138.358 461.913,-131.375"/>
<text text-anchor="middle" x="546" y="-155" font-family="Helvetica,sans-Serif" font-size="10.00"> m_names</text>
</g>
</g>
</svg>
