<?xml version="1.0" encoding="UTF-8" standalone="no"?>
<!DOCTYPE svg PUBLIC "-//W3C//DTD SVG 1.1//EN"
 "http://www.w3.org/Graphics/SVG/1.1/DTD/svg11.dtd">
<!-- Generated by graphviz version 2.26.3 (20100126.1600)
 -->
<!-- Title: transfer::MPIThreadCache::BlockTransferer Pages: 1 -->
<svg width="1108pt" height="428pt"
 viewBox="0.00 0.00 1108.00 428.00" xmlns="http://www.w3.org/2000/svg" xmlns:xlink="http://www.w3.org/1999/xlink">
<g id="graph1" class="graph" transform="scale(1 1) rotate(0) translate(4 424)">
<title>transfer::MPIThreadCache::BlockTransferer</title>
<polygon fill="white" stroke="white" points="-4,5 -4,-424 1105,-424 1105,5 -4,5"/>
<!-- Node1 -->
<g id="node1" class="node"><title>Node1</title>
<polygon fill="#bfbfbf" stroke="black" points="442,-270 442,-304 574,-304 574,-270 442,-270"/>
<text text-anchor="start" x="450" y="-291" font-family="Helvetica,sans-Serif" font-size="10.00">transfer::MPIThreadCache</text>
<text text-anchor="middle" x="508" y="-278" font-family="Helvetica,sans-Serif" font-size="10.00">::BlockTransferer</text>
</g>
<!-- Node3 -->
<g id="node4" class="node"><title>Node3</title>
<a xlink:href="classtransfer_1_1MPIThreadCache.xhtml" target="_top" xlink:title="transfer::MPIThreadCache">
<polygon fill="white" stroke="black" points="696,-240.5 696,-261.5 828,-261.5 828,-240.5 696,-240.5"/>
<text text-anchor="middle" x="762" y="-248.5" font-family="Helvetica,sans-Serif" font-size="10.00">transfer::MPIThreadCache</text>
</a>
</g>
<!-- Node1&#45;&gt;Node3 -->
<g id="edge30" class="edge"><title>Node1&#45;&gt;Node3</title>
<path fill="none" stroke="#9a32cd" stroke-dasharray="5,2" d="M584.444,-277.709C613.738,-273.991 647.452,-269.521 678,-265 685.313,-263.918 692.973,-262.724 700.567,-261.504"/>
<polygon fill="#9a32cd" stroke="#9a32cd" points="583.762,-274.268 574.278,-278.992 584.638,-281.212 583.762,-274.268"/>
<text text-anchor="middle" x="635" y="-280" font-family="Helvetica,sans-Serif" font-size="10.00"> m_blockTransferer</text>
</g>
<!-- Node2 -->
<g id="node2" class="node"><title>Node2</title>
<a xlink:href="classmpi_1_1Receiver.xhtml" target="_top" xlink:title="mpi::Receiver">
<polygon fill="white" stroke="black" points="252.5,-305.5 252.5,-326.5 329.5,-326.5 329.5,-305.5 252.5,-305.5"/>
<text text-anchor="middle" x="291" y="-313.5" font-family="Helvetica,sans-Serif" font-size="10.00">mpi::Receiver</text>
</a>
</g>
<!-- Node2&#45;&gt;Node1 -->
<g id="edge2" class="edge"><title>Node2&#45;&gt;Node1</title>
<path fill="none" stroke="midnightblue" d="M340.048,-309.445C370.146,-305.423 409.074,-300.221 441.873,-295.837"/>
<polygon fill="midnightblue" stroke="midnightblue" points="339.243,-306.022 329.795,-310.815 340.171,-312.96 339.243,-306.022"/>
</g>
<!-- Node11 -->
<g id="node22" class="node"><title>Node11</title>
<a xlink:href="classtransfer_1_1MPIThreadCache_1_1Adder.xhtml" target="_top" xlink:title="transfer::MPIThreadCache\l::Adder">
<polygon fill="white" stroke="black" points="968,-289 968,-323 1100,-323 1100,-289 968,-289"/>
<text text-anchor="start" x="976" y="-310" font-family="Helvetica,sans-Serif" font-size="10.00">transfer::MPIThreadCache</text>
<text text-anchor="middle" x="1034" y="-297" font-family="Helvetica,sans-Serif" font-size="10.00">::Adder</text>
</a>
</g>
<!-- Node2&#45;&gt;Node11 -->
<g id="edge26" class="edge"><title>Node2&#45;&gt;Node11</title>
<path fill="none" stroke="midnightblue" d="M339.738,-316.117C436.331,-316.343 658.904,-316.831 846,-317 892.222,-317.042 903.876,-320.007 950,-317 955.724,-316.627 961.653,-316.112 967.593,-315.507"/>
<polygon fill="midnightblue" stroke="midnightblue" points="339.698,-312.617 329.689,-316.094 339.681,-319.617 339.698,-312.617"/>
</g>
<!-- Node12 -->
<g id="node27" class="node"><title>Node12</title>
<a xlink:href="classtransfer_1_1MPIThreadCache_1_1BlockInfoResponder.xhtml" target="_top" xlink:title="transfer::MPIThreadCache\l::BlockInfoResponder">
<polygon fill="white" stroke="black" points="968,-181 968,-215 1100,-215 1100,-181 968,-181"/>
<text text-anchor="start" x="976" y="-202" font-family="Helvetica,sans-Serif" font-size="10.00">transfer::MPIThreadCache</text>
<text text-anchor="middle" x="1034" y="-189" font-family="Helvetica,sans-Serif" font-size="10.00">::BlockInfoResponder</text>
</a>
</g>
<!-- Node2&#45;&gt;Node12 -->
<g id="edge34" class="edge"><title>Node2&#45;&gt;Node12</title>
<path fill="none" stroke="midnightblue" d="M325.245,-301.731C355.521,-289.551 401.103,-272.267 442,-261 618.223,-212.453 664.022,-201.187 846,-184 892.017,-179.654 903.935,-180.188 950,-184 955.746,-184.476 961.691,-185.131 967.641,-185.901"/>
<polygon fill="midnightblue" stroke="midnightblue" points="323.928,-298.488 315.978,-305.492 326.56,-304.974 323.928,-298.488"/>
</g>
<!-- Node13 -->
<g id="node31" class="node"><title>Node13</title>
<a xlink:href="classtransfer_1_1MPIThreadCache_1_1Deleter.xhtml" target="_top" xlink:title="transfer::MPIThreadCache\l::Deleter">
<polygon fill="white" stroke="black" points="968,-386 968,-420 1100,-420 1100,-386 968,-386"/>
<text text-anchor="start" x="976" y="-407" font-family="Helvetica,sans-Serif" font-size="10.00">transfer::MPIThreadCache</text>
<text text-anchor="middle" x="1034" y="-394" font-family="Helvetica,sans-Serif" font-size="10.00">::Deleter</text>
</a>
</g>
<!-- Node2&#45;&gt;Node13 -->
<g id="edge40" class="edge"><title>Node2&#45;&gt;Node13</title>
<path fill="none" stroke="midnightblue" d="M339.695,-327.879C435.772,-350.623 656.844,-399.526 846,-416 892.048,-420.01 903.914,-419.545 950,-416 955.738,-415.559 961.678,-414.95 967.624,-414.235"/>
<polygon fill="midnightblue" stroke="midnightblue" points="340.236,-324.41 329.698,-325.5 338.616,-331.22 340.236,-324.41"/>
</g>
<!-- Node3&#45;&gt;Node1 -->
<g id="edge4" class="edge"><title>Node3&#45;&gt;Node1</title>
<path fill="none" stroke="#9a32cd" stroke-dasharray="5,2" d="M685.369,-245.182C655.916,-244.576 622.143,-245.879 592,-252 574.35,-255.584 555.762,-262.917 540.571,-269.949"/>
<polygon fill="#9a32cd" stroke="#9a32cd" points="685.498,-248.687 695.593,-245.472 685.696,-241.69 685.498,-248.687"/>
<text text-anchor="middle" x="635" y="-256" font-family="Helvetica,sans-Serif" font-size="10.00"> m_parent</text>
</g>
<!-- Node3&#45;&gt;Node11 -->
<g id="edge28" class="edge"><title>Node3&#45;&gt;Node11</title>
<path fill="none" stroke="#9a32cd" stroke-dasharray="5,2" d="M838.258,-251.464C872.849,-253.203 913.983,-257.427 950,-267 968.647,-271.956 988.269,-280.835 1003.86,-288.871"/>
<polygon fill="#9a32cd" stroke="#9a32cd" points="838.363,-247.965 828.217,-251.019 838.053,-254.958 838.363,-247.965"/>
<text text-anchor="middle" x="898" y="-271" font-family="Helvetica,sans-Serif" font-size="10.00"> m_parent</text>
</g>
<!-- Node3&#45;&gt;Node12 -->
<g id="edge36" class="edge"><title>Node3&#45;&gt;Node12</title>
<path fill="none" stroke="#9a32cd" stroke-dasharray="5,2" d="M826.039,-238.522C868.63,-230.223 924.446,-219.347 967.529,-210.952"/>
<polygon fill="#9a32cd" stroke="#9a32cd" points="825.21,-235.118 816.064,-240.466 826.548,-241.988 825.21,-235.118"/>
<text text-anchor="middle" x="898" y="-237" font-family="Helvetica,sans-Serif" font-size="10.00"> m_parent</text>
</g>
<!-- Node3&#45;&gt;Node13 -->
<g id="edge42" class="edge"><title>Node3&#45;&gt;Node13</title>
<path fill="none" stroke="#9a32cd" stroke-dasharray="5,2" d="M768.81,-271.417C779.872,-301.075 804.757,-355.325 846,-381 865.877,-393.374 921.877,-398.789 967.626,-401.158"/>
<polygon fill="#9a32cd" stroke="#9a32cd" points="772.004,-269.952 765.356,-261.702 765.408,-272.297 772.004,-269.952"/>
<text text-anchor="middle" x="898" y="-403" font-family="Helvetica,sans-Serif" font-size="10.00"> m_parent</text>
</g>
<!-- Node4 -->
<g id="node6" class="node"><title>Node4</title>
<a xlink:href="classtransfer_1_1MPICache.xhtml" target="_top" xlink:title="transfer::MPICache\l\&lt; allocator::Default,\l false \&gt;">
<polygon fill="white" stroke="black" points="456.5,-103.5 456.5,-150.5 559.5,-150.5 559.5,-103.5 456.5,-103.5"/>
<text text-anchor="start" x="464.5" y="-137.5" font-family="Helvetica,sans-Serif" font-size="10.00">transfer::MPICache</text>
<text text-anchor="start" x="464.5" y="-124.5" font-family="Helvetica,sans-Serif" font-size="10.00">&lt; allocator::Default,</text>
<text text-anchor="middle" x="508" y="-111.5" font-family="Helvetica,sans-Serif" font-size="10.00"> false &gt;</text>
</a>
</g>
<!-- Node4&#45;&gt;Node3 -->
<g id="edge6" class="edge"><title>Node4&#45;&gt;Node3</title>
<path fill="none" stroke="#8b1a1a" d="M569.181,-153.81C601.757,-168.401 642.348,-187.087 678,-205 700.88,-216.496 726.63,-230.807 743.518,-240.386"/>
<polygon fill="#8b1a1a" stroke="#8b1a1a" points="570.339,-150.494 559.781,-149.614 567.486,-156.886 570.339,-150.494"/>
</g>
<!-- Node5 -->
<g id="node8" class="node"><title>Node5</title>
<a xlink:href="classmpi_1_1MPIComm.xhtml" target="_top" xlink:title="mpi::MPIComm">
<polygon fill="white" stroke="black" points="248,-132.5 248,-153.5 334,-153.5 334,-132.5 248,-132.5"/>
<text text-anchor="middle" x="291" y="-140.5" font-family="Helvetica,sans-Serif" font-size="10.00">mpi::MPIComm</text>
</a>
</g>
<!-- Node5&#45;&gt;Node4 -->
<g id="edge8" class="edge"><title>Node5&#45;&gt;Node4</title>
<path fill="none" stroke="#9a32cd" stroke-dasharray="5,2" d="M344.366,-139.065C378.436,-136.553 422.384,-133.313 456.155,-130.823"/>
<polygon fill="#9a32cd" stroke="#9a32cd" points="343.847,-135.594 334.132,-139.82 344.362,-142.575 343.847,-135.594"/>
<text text-anchor="middle" x="390" y="-141" font-family="Helvetica,sans-Serif" font-size="10.00"> m_mpiComm</text>
</g>
<!-- Node6 -->
<g id="node10" class="node"><title>Node6</title>
<a xlink:href="classthreads_1_1PthreadMutex.xhtml" target="_top" xlink:title="threads::PthreadMutex">
<polygon fill="white" stroke="black" points="8,-132.5 8,-153.5 124,-153.5 124,-132.5 8,-132.5"/>
<text text-anchor="middle" x="66" y="-140.5" font-family="Helvetica,sans-Serif" font-size="10.00">threads::PthreadMutex</text>
</a>
</g>
<!-- Node6&#45;&gt;Node3 -->
<g id="edge22" class="edge"><title>Node6&#45;&gt;Node3</title>
<path fill="none" stroke="#9a32cd" stroke-dasharray="5,2" d="M126.158,-155.569C134.163,-157.126 142.272,-158.644 150,-160 347.851,-194.706 583.208,-227.265 695.707,-242.295"/>
<polygon fill="#9a32cd" stroke="#9a32cd" points="126.6,-152.089 116.112,-153.586 125.245,-158.956 126.6,-152.089"/>
<text text-anchor="middle" x="390" y="-233" font-family="Helvetica,sans-Serif" font-size="10.00"> m_blockMutex</text>
<text text-anchor="middle" x="390" y="-220" font-family="Helvetica,sans-Serif" font-size="10.00">m_mutexes</text>
<text text-anchor="middle" x="390" y="-207" font-family="Helvetica,sans-Serif" font-size="10.00">m_infoMutex</text>
</g>
<!-- Node6&#45;&gt;Node5 -->
<g id="edge10" class="edge"><title>Node6&#45;&gt;Node5</title>
<path fill="none" stroke="#9a32cd" stroke-dasharray="5,2" d="M134.438,-143C171.378,-143 215.846,-143 247.935,-143"/>
<polygon fill="#9a32cd" stroke="#9a32cd" points="134.236,-139.5 124.236,-143 134.236,-146.5 134.236,-139.5"/>
<text text-anchor="middle" x="188" y="-147" font-family="Helvetica,sans-Serif" font-size="10.00"> mpiLock</text>
</g>
<!-- Node7 -->
<g id="node12" class="node"><title>Node7</title>
<a xlink:href="classcache_1_1CacheManager.xhtml" target="_top" xlink:title="Manages a block cache. ">
<polygon fill="white" stroke="black" points="450.5,-63.5 450.5,-84.5 565.5,-84.5 565.5,-63.5 450.5,-63.5"/>
<text text-anchor="middle" x="508" y="-71.5" font-family="Helvetica,sans-Serif" font-size="10.00">cache::CacheManager</text>
</a>
</g>
<!-- Node6&#45;&gt;Node7 -->
<g id="edge14" class="edge"><title>Node6&#45;&gt;Node7</title>
<path fill="none" stroke="#9a32cd" stroke-dasharray="5,2" d="M129.474,-130.471C163.39,-123.969 205.895,-116.127 244,-110 314.904,-98.5997 396.902,-87.7868 450.462,-81.0416"/>
<polygon fill="#9a32cd" stroke="#9a32cd" points="128.396,-127.114 119.239,-132.442 129.72,-133.988 128.396,-127.114"/>
<text text-anchor="middle" x="291" y="-114" font-family="Helvetica,sans-Serif" font-size="10.00"> m_blockMutexes</text>
</g>
<!-- Node7&#45;&gt;Node3 -->
<g id="edge12" class="edge"><title>Node7&#45;&gt;Node3</title>
<path fill="none" stroke="#9a32cd" stroke-dasharray="5,2" d="M557.562,-87.6498C593.707,-99.3825 642.39,-119.04 678,-148 712.55,-176.099 742.749,-220.373 755.52,-240.462"/>
<polygon fill="#9a32cd" stroke="#9a32cd" points="558.311,-84.2162 547.721,-84.5496 556.207,-90.8927 558.311,-84.2162"/>
<text text-anchor="middle" x="635" y="-152" font-family="Helvetica,sans-Serif" font-size="10.00"> m_cacheManager</text>
</g>
<!-- Node8 -->
<g id="node15" class="node"><title>Node8</title>
<a xlink:href="classcache_1_1CacheList.xhtml" target="_top" xlink:title="Controls a list of blocks. ">
<polygon fill="white" stroke="black" points="244.5,-43.5 244.5,-64.5 337.5,-64.5 337.5,-43.5 244.5,-43.5"/>
<text text-anchor="middle" x="291" y="-51.5" font-family="Helvetica,sans-Serif" font-size="10.00">cache::CacheList</text>
</a>
</g>
<!-- Node8&#45;&gt;Node7 -->
<g id="edge16" class="edge"><title>Node8&#45;&gt;Node7</title>
<path fill="none" stroke="#9a32cd" stroke-dasharray="5,2" d="M347.53,-59.2101C379.157,-62.1251 418.497,-65.7509 450.31,-68.6829"/>
<polygon fill="#9a32cd" stroke="#9a32cd" points="347.831,-55.7231 337.552,-58.2905 347.188,-62.6936 347.831,-55.7231"/>
<text text-anchor="middle" x="390" y="-69" font-family="Helvetica,sans-Serif" font-size="10.00"> m_cacheList</text>
</g>
<!-- Node9 -->
<g id="node17" class="node"><title>Node9</title>
<a xlink:href="classcache_1_1LRU.xhtml" target="_top" xlink:title="cache::LRU">
<polygon fill="white" stroke="black" points="31.5,-0.5 31.5,-21.5 100.5,-21.5 100.5,-0.5 31.5,-0.5"/>
<text text-anchor="middle" x="66" y="-8.5" font-family="Helvetica,sans-Serif" font-size="10.00">cache::LRU</text>
</a>
</g>
<!-- Node9&#45;&gt;Node8 -->
<g id="edge18" class="edge"><title>Node9&#45;&gt;Node8</title>
<path fill="none" stroke="#9a32cd" stroke-dasharray="5,2" d="M110.733,-18.1694C142.884,-23.4828 187.22,-31.1381 226,-39 232.697,-40.3577 239.759,-41.8862 246.663,-43.4349"/>
<polygon fill="#9a32cd" stroke="#9a32cd" points="111.18,-14.696 100.745,-16.5293 110.046,-21.6035 111.18,-14.696"/>
<text text-anchor="middle" x="188" y="-43" font-family="Helvetica,sans-Serif" font-size="10.00"> m_lru</text>
</g>
<!-- Node10 -->
<g id="node19" class="node"><title>Node10</title>
<polygon fill="white" stroke="#bfbfbf" points="0.5,-40.5 0.5,-87.5 131.5,-87.5 131.5,-40.5 0.5,-40.5"/>
<text text-anchor="start" x="8.5" y="-74.5" font-family="Helvetica,sans-Serif" font-size="10.00">std::unordered_map</text>
<text text-anchor="start" x="8.5" y="-61.5" font-family="Helvetica,sans-Serif" font-size="10.00">&lt; unsigned long, unsigned</text>
<text text-anchor="middle" x="66" y="-48.5" font-family="Helvetica,sans-Serif" font-size="10.00"> long &gt;</text>
</g>
<!-- Node10&#45;&gt;Node8 -->
<g id="edge20" class="edge"><title>Node10&#45;&gt;Node8</title>
<path fill="none" stroke="#9a32cd" stroke-dasharray="5,2" d="M142.016,-60.6215C175.87,-59.1169 214.667,-57.3926 244.181,-56.0808"/>
<polygon fill="#9a32cd" stroke="#9a32cd" points="141.519,-57.1401 131.684,-61.0807 141.83,-64.1332 141.519,-57.1401"/>
<text text-anchor="middle" x="188" y="-64" font-family="Helvetica,sans-Serif" font-size="10.00"> m_blockToIndex</text>
</g>
<!-- Node11&#45;&gt;Node3 -->
<g id="edge24" class="edge"><title>Node11&#45;&gt;Node3</title>
<path fill="none" stroke="#9a32cd" stroke-dasharray="5,2" d="M957.973,-301.585C923.429,-298.438 882.266,-293.083 846,-284 824.418,-278.594 800.933,-269.032 784.297,-261.588"/>
<polygon fill="#9a32cd" stroke="#9a32cd" points="957.733,-305.077 967.998,-302.453 958.337,-298.103 957.733,-305.077"/>
<text text-anchor="middle" x="898" y="-304" font-family="Helvetica,sans-Serif" font-size="10.00"> m_adder</text>
</g>
<!-- Node12&#45;&gt;Node3 -->
<g id="edge32" class="edge"><title>Node12&#45;&gt;Node3</title>
<path fill="none" stroke="#9a32cd" stroke-dasharray="5,2" d="M957.854,-189.106C923.116,-187.396 881.832,-188.704 846,-199 817.812,-207.1 789.802,-227.58 774.309,-240.288"/>
<polygon fill="#9a32cd" stroke="#9a32cd" points="957.751,-192.606 967.938,-189.695 958.159,-185.618 957.751,-192.606"/>
<text text-anchor="middle" x="898" y="-203" font-family="Helvetica,sans-Serif" font-size="10.00"> m_blockInfoResponder</text>
</g>
<!-- Node13&#45;&gt;Node3 -->
<g id="edge38" class="edge"><title>Node13&#45;&gt;Node3</title>
<path fill="none" stroke="#9a32cd" stroke-dasharray="5,2" d="M984.426,-381.908C937.414,-361.621 870.441,-331.901 846,-317 818.288,-300.105 789.21,-275.467 773.584,-261.567"/>
<polygon fill="#9a32cd" stroke="#9a32cd" points="983.269,-385.221 993.838,-385.959 986.037,-378.791 983.269,-385.221"/>
<text text-anchor="middle" x="898" y="-370" font-family="Helvetica,sans-Serif" font-size="10.00"> m_deleter</text>
</g>
</g>
</svg>
