<?xml version="1.0" encoding="UTF-8" standalone="no"?>
<!DOCTYPE svg PUBLIC "-//W3C//DTD SVG 1.1//EN"
 "http://www.w3.org/Graphics/SVG/1.1/DTD/svg11.dtd">
<!-- Generated by graphviz version 2.26.3 (20100126.1600)
 -->
<!-- Title: grid::Container Pages: 1 -->
<svg width="492pt" height="169pt"
 viewBox="0.00 0.00 492.00 169.00" xmlns="http://www.w3.org/2000/svg" xmlns:xlink="http://www.w3.org/1999/xlink">
<g id="graph1" class="graph" transform="scale(1 1) rotate(0) translate(4 165)">
<title>grid::Container</title>
<polygon fill="white" stroke="white" points="-4,5 -4,-165 489,-165 489,5 -4,5"/>
<!-- Node1 -->
<g id="node1" class="node"><title>Node1</title>
<polygon fill="#bfbfbf" stroke="black" points="404,-98.5 404,-119.5 484,-119.5 484,-98.5 404,-98.5"/>
<text text-anchor="middle" x="444" y="-106.5" font-family="Helvetica,sans-Serif" font-size="10.00">grid::Container</text>
</g>
<!-- Node2 -->
<g id="node2" class="node"><title>Node2</title>
<a xlink:href="classmpi_1_1MPIComm.xhtml" target="_top" xlink:title="mpi::MPIComm">
<polygon fill="white" stroke="black" points="238,-127.5 238,-148.5 324,-148.5 324,-127.5 238,-127.5"/>
<text text-anchor="middle" x="281" y="-135.5" font-family="Helvetica,sans-Serif" font-size="10.00">mpi::MPIComm</text>
</a>
</g>
<!-- Node2&#45;&gt;Node1 -->
<g id="edge2" class="edge"><title>Node2&#45;&gt;Node1</title>
<path fill="none" stroke="#9a32cd" stroke-dasharray="5,2" d="M334.39,-128.501C357.022,-124.475 382.95,-119.862 403.906,-116.133"/>
<polygon fill="#9a32cd" stroke="#9a32cd" points="333.485,-125.107 324.253,-130.305 334.712,-131.999 333.485,-125.107"/>
<text text-anchor="middle" x="364" y="-130" font-family="Helvetica,sans-Serif" font-size="10.00"> m_comm</text>
</g>
<!-- Node3 -->
<g id="node4" class="node"><title>Node3</title>
<a xlink:href="classthreads_1_1PthreadMutex.xhtml" target="_top" xlink:title="threads::PthreadMutex">
<polygon fill="white" stroke="black" points="2,-139.5 2,-160.5 118,-160.5 118,-139.5 2,-139.5"/>
<text text-anchor="middle" x="60" y="-147.5" font-family="Helvetica,sans-Serif" font-size="10.00">threads::PthreadMutex</text>
</a>
</g>
<!-- Node3&#45;&gt;Node2 -->
<g id="edge4" class="edge"><title>Node3&#45;&gt;Node2</title>
<path fill="none" stroke="#9a32cd" stroke-dasharray="5,2" d="M128.437,-146.284C164.202,-144.342 206.878,-142.025 237.988,-140.336"/>
<polygon fill="#9a32cd" stroke="#9a32cd" points="127.861,-142.81 118.065,-146.847 128.24,-149.8 127.861,-142.81"/>
<text text-anchor="middle" x="179" y="-149" font-family="Helvetica,sans-Serif" font-size="10.00"> mpiLock</text>
</g>
<!-- Node4 -->
<g id="node6" class="node"><title>Node4</title>
<a xlink:href="classnuma_1_1Numa.xhtml" target="_top" xlink:title="numa::Numa">
<polygon fill="white" stroke="black" points="244.5,-64.5 244.5,-85.5 317.5,-85.5 317.5,-64.5 244.5,-64.5"/>
<text text-anchor="middle" x="281" y="-72.5" font-family="Helvetica,sans-Serif" font-size="10.00">numa::Numa</text>
</a>
</g>
<!-- Node4&#45;&gt;Node1 -->
<g id="edge6" class="edge"><title>Node4&#45;&gt;Node1</title>
<path fill="none" stroke="#9a32cd" stroke-dasharray="5,2" d="M327.561,-84.7122C351.642,-89.7352 380.743,-95.8053 403.828,-100.621"/>
<polygon fill="#9a32cd" stroke="#9a32cd" points="328.084,-81.246 317.58,-82.6303 326.655,-88.0985 328.084,-81.246"/>
<text text-anchor="middle" x="364" y="-100" font-family="Helvetica,sans-Serif" font-size="10.00"> m_numa</text>
</g>
<!-- Node5 -->
<g id="node8" class="node"><title>Node5</title>
<a xlink:href="classthreads_1_1Sync.xhtml" target="_top" xlink:title="Synchronizes a set of threads. ">
<polygon fill="white" stroke="black" points="21.5,-92.5 21.5,-113.5 98.5,-113.5 98.5,-92.5 21.5,-92.5"/>
<text text-anchor="middle" x="60" y="-100.5" font-family="Helvetica,sans-Serif" font-size="10.00">threads::Sync</text>
</a>
</g>
<!-- Node5&#45;&gt;Node4 -->
<g id="edge8" class="edge"><title>Node5&#45;&gt;Node4</title>
<path fill="none" stroke="#9a32cd" stroke-dasharray="5,2" d="M108.754,-96.823C149.604,-91.6475 207.034,-84.3713 244.136,-79.6705"/>
<polygon fill="#9a32cd" stroke="#9a32cd" points="108.229,-93.3615 98.7482,-98.0907 109.109,-100.306 108.229,-93.3615"/>
<text text-anchor="middle" x="179" y="-109" font-family="Helvetica,sans-Serif" font-size="10.00"> m_syncDomains</text>
<text text-anchor="middle" x="179" y="-96" font-family="Helvetica,sans-Serif" font-size="10.00">m_syncThreads</text>
</g>
<!-- Node6 -->
<g id="node10" class="node"><title>Node6</title>
<polygon fill="white" stroke="#bfbfbf" points="10.5,-52.5 10.5,-73.5 109.5,-73.5 109.5,-52.5 10.5,-52.5"/>
<text text-anchor="middle" x="60" y="-60.5" font-family="Helvetica,sans-Serif" font-size="10.00">std::vector&lt; bool &gt;</text>
</g>
<!-- Node6&#45;&gt;Node4 -->
<g id="edge10" class="edge"><title>Node6&#45;&gt;Node4</title>
<path fill="none" stroke="#9a32cd" stroke-dasharray="5,2" d="M120.136,-62.3139C150.179,-62.432 187.059,-63.2723 220,-66 227.895,-66.6537 236.322,-67.6815 244.315,-68.8125"/>
<polygon fill="#9a32cd" stroke="#9a32cd" points="119.816,-58.8136 109.812,-62.3004 119.807,-65.8136 119.816,-58.8136"/>
<text text-anchor="middle" x="179" y="-70" font-family="Helvetica,sans-Serif" font-size="10.00"> m_masterThreads</text>
</g>
<!-- Node7 -->
<g id="node12" class="node"><title>Node7</title>
<polygon fill="white" stroke="#bfbfbf" points="0.5,-0 0.5,-34 119.5,-34 119.5,-0 0.5,-0"/>
<text text-anchor="start" x="8.5" y="-21" font-family="Helvetica,sans-Serif" font-size="10.00">std::map&lt; int, unsigned</text>
<text text-anchor="middle" x="60" y="-8" font-family="Helvetica,sans-Serif" font-size="10.00"> int &gt;</text>
</g>
<!-- Node7&#45;&gt;Node4 -->
<g id="edge12" class="edge"><title>Node7&#45;&gt;Node4</title>
<path fill="none" stroke="#9a32cd" stroke-dasharray="5,2" d="M130.102,-24.8706C158.458,-29.1827 191.226,-35.6191 220,-45 235.035,-49.9019 251.044,-57.8917 262.887,-64.3938"/>
<polygon fill="#9a32cd" stroke="#9a32cd" points="130.271,-21.3582 119.87,-23.3765 129.259,-28.2847 130.271,-21.3582"/>
<text text-anchor="middle" x="179" y="-49" font-family="Helvetica,sans-Serif" font-size="10.00"> m_domains</text>
</g>
</g>
</svg>
