<?xml version="1.0" encoding="UTF-8" standalone="no"?>
<!DOCTYPE svg PUBLIC "-//W3C//DTD SVG 1.1//EN"
 "http://www.w3.org/Graphics/SVG/1.1/DTD/svg11.dtd">
<!-- Generated by graphviz version 2.26.3 (20100126.1600)
 -->
<!-- Title: grid::level::PassThrough&lt; Type &gt; Pages: 1 -->
<svg width="1146pt" height="338pt"
 viewBox="0.00 0.00 1146.00 338.00" xmlns="http://www.w3.org/2000/svg" xmlns:xlink="http://www.w3.org/1999/xlink">
<g id="graph1" class="graph" transform="scale(1 1) rotate(0) translate(4 334)">
<title>grid::level::PassThrough&lt; Type &gt;</title>
<polygon fill="white" stroke="white" points="-4,5 -4,-334 1143,-334 1143,5 -4,5"/>
<!-- Node1 -->
<g id="node1" class="node"><title>Node1</title>
<polygon fill="#bfbfbf" stroke="black" points="1016,-181 1016,-215 1138,-215 1138,-181 1016,-181"/>
<text text-anchor="start" x="1024" y="-202" font-family="Helvetica,sans-Serif" font-size="10.00">grid::level::PassThrough</text>
<text text-anchor="middle" x="1077" y="-189" font-family="Helvetica,sans-Serif" font-size="10.00">&lt; Type &gt;</text>
</g>
<!-- Node2 -->
<g id="node2" class="node"><title>Node2</title>
<a xlink:href="classgrid_1_1level_1_1Level.xhtml" target="_top" xlink:title="Base class for a grid level. ">
<polygon fill="white" stroke="black" points="890,-181 890,-215 978,-215 978,-181 890,-181"/>
<text text-anchor="start" x="898" y="-202" font-family="Helvetica,sans-Serif" font-size="10.00">grid::level::Level</text>
<text text-anchor="middle" x="934" y="-189" font-family="Helvetica,sans-Serif" font-size="10.00">&lt; Type &gt;</text>
</a>
</g>
<!-- Node2&#45;&gt;Node1 -->
<g id="edge2" class="edge"><title>Node2&#45;&gt;Node1</title>
<path fill="none" stroke="midnightblue" d="M988.138,-198C997.234,-198 1006.73,-198 1015.98,-198"/>
<polygon fill="midnightblue" stroke="midnightblue" points="988.072,-194.5 978.072,-198 988.072,-201.5 988.072,-194.5"/>
</g>
<!-- Node3 -->
<g id="node4" class="node"><title>Node3</title>
<a xlink:href="classperf_1_1Counter.xhtml" target="_top" xlink:title="perf::Counter">
<polygon fill="white" stroke="black" points="696,-267.5 696,-288.5 770,-288.5 770,-267.5 696,-267.5"/>
<text text-anchor="middle" x="733" y="-275.5" font-family="Helvetica,sans-Serif" font-size="10.00">perf::Counter</text>
</a>
</g>
<!-- Node3&#45;&gt;Node2 -->
<g id="edge4" class="edge"><title>Node3&#45;&gt;Node2</title>
<path fill="none" stroke="#9a32cd" stroke-dasharray="5,2" d="M774.013,-263.994C801.882,-254.223 839.453,-240.553 872,-227 880.776,-223.345 890.122,-219.143 898.824,-215.092"/>
<polygon fill="#9a32cd" stroke="#9a32cd" points="772.502,-260.814 764.211,-267.41 774.806,-267.424 772.502,-260.814"/>
<text text-anchor="middle" x="837" y="-257" font-family="Helvetica,sans-Serif" font-size="10.00"> m_counter</text>
</g>
<!-- Node4 -->
<g id="node6" class="node"><title>Node4</title>
<a xlink:href="classperf_1_1Counter_1_1NameToCounterMap.xhtml" target="_top" xlink:title="perf::Counter::NameToCounterMap">
<polygon fill="white" stroke="black" points="368,-286.5 368,-307.5 538,-307.5 538,-286.5 368,-286.5"/>
<text text-anchor="middle" x="453" y="-294.5" font-family="Helvetica,sans-Serif" font-size="10.00">perf::Counter::NameToCounterMap</text>
</a>
</g>
<!-- Node4&#45;&gt;Node3 -->
<g id="edge6" class="edge"><title>Node4&#45;&gt;Node3</title>
<path fill="none" stroke="#9a32cd" stroke-dasharray="5,2" d="M548.149,-290.543C598.776,-287.108 658.151,-283.079 695.673,-280.533"/>
<polygon fill="#9a32cd" stroke="#9a32cd" points="547.89,-287.053 538.15,-291.222 548.364,-294.037 547.89,-287.053"/>
<text text-anchor="middle" x="610" y="-293" font-family="Helvetica,sans-Serif" font-size="10.00"> NAME_TO_COUNTER</text>
</g>
<!-- Node5 -->
<g id="node8" class="node"><title>Node5</title>
<a xlink:title="STL class. ">
<polygon fill="white" stroke="#bfbfbf" points="110,-282 110,-316 250,-316 250,-282 110,-282"/>
<text text-anchor="start" x="118" y="-303" font-family="Helvetica,sans-Serif" font-size="10.00">std::unordered_map</text>
<text text-anchor="middle" x="180" y="-290" font-family="Helvetica,sans-Serif" font-size="10.00">&lt; std::string, CounterType &gt;</text>
</a>
</g>
<!-- Node5&#45;&gt;Node4 -->
<g id="edge8" class="edge"><title>Node5&#45;&gt;Node4</title>
<path fill="none" stroke="midnightblue" d="M260.591,-298.41C294.345,-298.162 333.613,-297.875 367.84,-297.624"/>
<polygon fill="midnightblue" stroke="midnightblue" points="260.278,-294.912 250.304,-298.485 260.33,-301.912 260.278,-294.912"/>
</g>
<!-- Node6 -->
<g id="node10" class="node"><title>Node6</title>
<polygon fill="white" stroke="#bfbfbf" points="0.5,-308.5 0.5,-329.5 29.5,-329.5 29.5,-308.5 0.5,-308.5"/>
<text text-anchor="middle" x="15" y="-316.5" font-family="Helvetica,sans-Serif" font-size="10.00">K</text>
</g>
<!-- Node6&#45;&gt;Node5 -->
<g id="edge10" class="edge"><title>Node6&#45;&gt;Node5</title>
<path fill="none" stroke="#9a32cd" stroke-dasharray="5,2" d="M39.6332,-316.014C58.2831,-313.754 84.8806,-310.53 109.917,-307.495"/>
<polygon fill="#9a32cd" stroke="#9a32cd" points="39.1488,-312.547 29.6426,-317.225 39.9912,-319.496 39.1488,-312.547"/>
<text text-anchor="middle" x="70" y="-318" font-family="Helvetica,sans-Serif" font-size="10.00"> keys</text>
</g>
<!-- Node7 -->
<g id="node12" class="node"><title>Node7</title>
<polygon fill="white" stroke="#bfbfbf" points="0.5,-268.5 0.5,-289.5 29.5,-289.5 29.5,-268.5 0.5,-268.5"/>
<text text-anchor="middle" x="15" y="-276.5" font-family="Helvetica,sans-Serif" font-size="10.00">T</text>
</g>
<!-- Node7&#45;&gt;Node5 -->
<g id="edge12" class="edge"><title>Node7&#45;&gt;Node5</title>
<path fill="none" stroke="#9a32cd" stroke-dasharray="5,2" d="M39.6332,-281.986C58.2831,-284.246 84.8806,-287.47 109.917,-290.505"/>
<polygon fill="#9a32cd" stroke="#9a32cd" points="39.9912,-278.504 29.6426,-280.775 39.1488,-285.453 39.9912,-278.504"/>
<text text-anchor="middle" x="70" y="-291" font-family="Helvetica,sans-Serif" font-size="10.00"> elements</text>
</g>
<!-- Node8 -->
<g id="node14" class="node"><title>Node8</title>
<a xlink:href="classio_1_1NetCdfReader.xhtml" target="_top" xlink:title="io::NetCdfReader">
<polygon fill="white" stroke="black" points="686.5,-207.5 686.5,-228.5 779.5,-228.5 779.5,-207.5 686.5,-207.5"/>
<text text-anchor="middle" x="733" y="-215.5" font-family="Helvetica,sans-Serif" font-size="10.00">io::NetCdfReader</text>
</a>
</g>
<!-- Node8&#45;&gt;Node2 -->
<g id="edge14" class="edge"><title>Node8&#45;&gt;Node2</title>
<path fill="none" stroke="#9a32cd" stroke-dasharray="5,2" d="M789.633,-212.365C821.325,-209.211 860.258,-205.338 889.703,-202.408"/>
<polygon fill="#9a32cd" stroke="#9a32cd" points="789.223,-208.888 779.619,-213.361 789.916,-215.854 789.223,-208.888"/>
<text text-anchor="middle" x="837" y="-214" font-family="Helvetica,sans-Serif" font-size="10.00"> m_inputFile</text>
</g>
<!-- Node9 -->
<g id="node16" class="node"><title>Node9</title>
<a xlink:href="classthreads_1_1PthreadMutex.xhtml" target="_top" xlink:title="threads::PthreadMutex">
<polygon fill="white" stroke="black" points="395,-185.5 395,-206.5 511,-206.5 511,-185.5 395,-185.5"/>
<text text-anchor="middle" x="453" y="-193.5" font-family="Helvetica,sans-Serif" font-size="10.00">threads::PthreadMutex</text>
</a>
</g>
<!-- Node9&#45;&gt;Node8 -->
<g id="edge16" class="edge"><title>Node9&#45;&gt;Node8</title>
<path fill="none" stroke="#9a32cd" stroke-dasharray="5,2" d="M521.007,-201.343C572.199,-205.366 641.034,-210.774 686.184,-214.322"/>
<polygon fill="#9a32cd" stroke="#9a32cd" points="521.26,-197.853 511.016,-200.558 520.711,-204.831 521.26,-197.853"/>
<text text-anchor="middle" x="610" y="-216" font-family="Helvetica,sans-Serif" font-size="10.00"> netcdfLock</text>
</g>
<!-- Node12 -->
<g id="node22" class="node"><title>Node12</title>
<a xlink:href="classmpi_1_1MPIComm.xhtml" target="_top" xlink:title="mpi::MPIComm">
<polygon fill="white" stroke="black" points="690,-167.5 690,-188.5 776,-188.5 776,-167.5 690,-167.5"/>
<text text-anchor="middle" x="733" y="-175.5" font-family="Helvetica,sans-Serif" font-size="10.00">mpi::MPIComm</text>
</a>
</g>
<!-- Node9&#45;&gt;Node12 -->
<g id="edge24" class="edge"><title>Node9&#45;&gt;Node12</title>
<path fill="none" stroke="#9a32cd" stroke-dasharray="5,2" d="M510.015,-183.568C524.908,-180.848 540.993,-178.373 556,-177 603.8,-172.628 616.001,-176.652 664,-177 672.386,-177.061 681.345,-177.163 689.937,-177.28"/>
<polygon fill="#9a32cd" stroke="#9a32cd" points="509.098,-180.179 499.924,-185.479 510.4,-187.057 509.098,-180.179"/>
<text text-anchor="middle" x="610" y="-181" font-family="Helvetica,sans-Serif" font-size="10.00"> mpiLock</text>
</g>
<!-- Node10 -->
<g id="node18" class="node"><title>Node10</title>
<a xlink:title="STL class. ">
<polygon fill="white" stroke="#bfbfbf" points="423,-236.5 423,-257.5 483,-257.5 483,-236.5 423,-236.5"/>
<text text-anchor="middle" x="453" y="-244.5" font-family="Helvetica,sans-Serif" font-size="10.00">std::string</text>
</a>
</g>
<!-- Node10&#45;&gt;Node8 -->
<g id="edge18" class="edge"><title>Node10&#45;&gt;Node8</title>
<path fill="none" stroke="#9a32cd" stroke-dasharray="5,2" d="M493.274,-243.188C535.749,-239.121 604.615,-232.397 664,-226 671.194,-225.225 678.806,-224.374 686.245,-223.525"/>
<polygon fill="#9a32cd" stroke="#9a32cd" points="492.687,-239.728 483.066,-244.162 493.353,-246.696 492.687,-239.728"/>
<text text-anchor="middle" x="610" y="-253" font-family="Helvetica,sans-Serif" font-size="10.00"> m_names</text>
<text text-anchor="middle" x="610" y="-240" font-family="Helvetica,sans-Serif" font-size="10.00">m_filename</text>
</g>
<!-- Node11 -->
<g id="node20" class="node"><title>Node11</title>
<a xlink:title="STL class. ">
<polygon fill="white" stroke="#bfbfbf" points="132.5,-230 132.5,-264 227.5,-264 227.5,-230 132.5,-230"/>
<text text-anchor="start" x="140.5" y="-251" font-family="Helvetica,sans-Serif" font-size="10.00">std::basic_string&lt;</text>
<text text-anchor="middle" x="180" y="-238" font-family="Helvetica,sans-Serif" font-size="10.00"> char &gt;</text>
</a>
</g>
<!-- Node11&#45;&gt;Node10 -->
<g id="edge20" class="edge"><title>Node11&#45;&gt;Node10</title>
<path fill="none" stroke="midnightblue" d="M237.786,-247C294.384,-247 378.409,-247 422.872,-247"/>
<polygon fill="midnightblue" stroke="midnightblue" points="237.553,-243.5 227.553,-247 237.553,-250.5 237.553,-243.5"/>
</g>
<!-- Node12&#45;&gt;Node2 -->
<g id="edge22" class="edge"><title>Node12&#45;&gt;Node2</title>
<path fill="none" stroke="#9a32cd" stroke-dasharray="5,2" d="M786.027,-180.05C812.002,-181.406 843.705,-183.585 872,-187 877.752,-187.694 883.78,-188.573 889.723,-189.529"/>
<polygon fill="#9a32cd" stroke="#9a32cd" points="786.168,-176.553 776.006,-179.553 785.821,-183.544 786.168,-176.553"/>
<text text-anchor="middle" x="837" y="-191" font-family="Helvetica,sans-Serif" font-size="10.00"> m_mpiComm</text>
</g>
<!-- Node13 -->
<g id="node25" class="node"><title>Node13</title>
<a xlink:href="classnuma_1_1NumaComm.xhtml" target="_top" xlink:title="numa::NumaComm">
<polygon fill="white" stroke="black" points="682,-127.5 682,-148.5 784,-148.5 784,-127.5 682,-127.5"/>
<text text-anchor="middle" x="733" y="-135.5" font-family="Helvetica,sans-Serif" font-size="10.00">numa::NumaComm</text>
</a>
</g>
<!-- Node13&#45;&gt;Node2 -->
<g id="edge26" class="edge"><title>Node13&#45;&gt;Node2</title>
<path fill="none" stroke="#9a32cd" stroke-dasharray="5,2" d="M794.154,-145.16C818.802,-149.141 847.211,-155.14 872,-164 884.138,-168.338 896.749,-174.837 907.403,-180.995"/>
<polygon fill="#9a32cd" stroke="#9a32cd" points="794.617,-141.69 784.2,-143.628 793.551,-148.609 794.617,-141.69"/>
<text text-anchor="middle" x="837" y="-168" font-family="Helvetica,sans-Serif" font-size="10.00"> m_numaComm</text>
</g>
<!-- Node14 -->
<g id="node27" class="node"><title>Node14</title>
<a xlink:href="classthreads_1_1Sync.xhtml" target="_top" xlink:title="Synchronizes a set of threads. ">
<polygon fill="white" stroke="black" points="141.5,-111.5 141.5,-132.5 218.5,-132.5 218.5,-111.5 141.5,-111.5"/>
<text text-anchor="middle" x="180" y="-119.5" font-family="Helvetica,sans-Serif" font-size="10.00">threads::Sync</text>
</a>
</g>
<!-- Node14&#45;&gt;Node13 -->
<g id="edge28" class="edge"><title>Node14&#45;&gt;Node13</title>
<path fill="none" stroke="#9a32cd" stroke-dasharray="5,2" d="M228.573,-124.379C241.393,-124.96 255.216,-125.545 268,-126 418.313,-131.355 596.039,-135.27 681.728,-137.006"/>
<polygon fill="#9a32cd" stroke="#9a32cd" points="228.696,-120.881 218.546,-123.916 228.374,-127.873 228.696,-120.881"/>
<text text-anchor="middle" x="453" y="-138" font-family="Helvetica,sans-Serif" font-size="10.00"> m_sync</text>
</g>
<!-- Node15 -->
<g id="node29" class="node"><title>Node15</title>
<a xlink:href="classnuma_1_1Numa.xhtml" target="_top" xlink:title="numa::Numa">
<polygon fill="white" stroke="black" points="416.5,-67.5 416.5,-88.5 489.5,-88.5 489.5,-67.5 416.5,-67.5"/>
<text text-anchor="middle" x="453" y="-75.5" font-family="Helvetica,sans-Serif" font-size="10.00">numa::Numa</text>
</a>
</g>
<!-- Node14&#45;&gt;Node15 -->
<g id="edge32" class="edge"><title>Node14&#45;&gt;Node15</title>
<path fill="none" stroke="#9a32cd" stroke-dasharray="5,2" d="M227.593,-108.933C240.622,-105.677 254.793,-102.426 268,-100 319.058,-90.6208 378.812,-84.3547 416.289,-80.9848"/>
<polygon fill="#9a32cd" stroke="#9a32cd" points="226.711,-105.546 217.888,-111.411 228.443,-112.328 226.711,-105.546"/>
<text text-anchor="middle" x="309" y="-117" font-family="Helvetica,sans-Serif" font-size="10.00"> m_syncDomains</text>
<text text-anchor="middle" x="309" y="-104" font-family="Helvetica,sans-Serif" font-size="10.00">m_syncThreads</text>
</g>
<!-- Node15&#45;&gt;Node13 -->
<g id="edge30" class="edge"><title>Node15&#45;&gt;Node13</title>
<path fill="none" stroke="#9a32cd" stroke-dasharray="5,2" d="M499.83,-83.267C542.933,-88.7025 608.413,-98.4509 664,-113 678.668,-116.839 694.609,-122.511 707.47,-127.482"/>
<polygon fill="#9a32cd" stroke="#9a32cd" points="499.996,-79.761 489.642,-82.0102 499.139,-86.7083 499.996,-79.761"/>
<text text-anchor="middle" x="610" y="-117" font-family="Helvetica,sans-Serif" font-size="10.00"> m_numa</text>
</g>
<!-- Node16 -->
<g id="node32" class="node"><title>Node16</title>
<polygon fill="white" stroke="#bfbfbf" points="130.5,-52.5 130.5,-73.5 229.5,-73.5 229.5,-52.5 130.5,-52.5"/>
<text text-anchor="middle" x="180" y="-60.5" font-family="Helvetica,sans-Serif" font-size="10.00">std::vector&lt; bool &gt;</text>
</g>
<!-- Node16&#45;&gt;Node15 -->
<g id="edge34" class="edge"><title>Node16&#45;&gt;Node15</title>
<path fill="none" stroke="#9a32cd" stroke-dasharray="5,2" d="M239.808,-61.4682C272.419,-61.1069 313.472,-61.4209 350,-64 372.142,-65.5633 396.784,-68.8563 416.413,-71.8559"/>
<polygon fill="#9a32cd" stroke="#9a32cd" points="239.485,-57.9721 229.533,-61.6072 239.579,-64.9715 239.485,-57.9721"/>
<text text-anchor="middle" x="309" y="-68" font-family="Helvetica,sans-Serif" font-size="10.00"> m_masterThreads</text>
</g>
<!-- Node17 -->
<g id="node34" class="node"><title>Node17</title>
<polygon fill="white" stroke="#bfbfbf" points="120.5,-0 120.5,-34 239.5,-34 239.5,-0 120.5,-0"/>
<text text-anchor="start" x="128.5" y="-21" font-family="Helvetica,sans-Serif" font-size="10.00">std::map&lt; int, unsigned</text>
<text text-anchor="middle" x="180" y="-8" font-family="Helvetica,sans-Serif" font-size="10.00"> int &gt;</text>
</g>
<!-- Node17&#45;&gt;Node15 -->
<g id="edge36" class="edge"><title>Node17&#45;&gt;Node15</title>
<path fill="none" stroke="#9a32cd" stroke-dasharray="5,2" d="M250.061,-26.174C280.917,-30.8211 317.475,-37.156 350,-45 375.373,-51.1191 403.558,-60.3222 424.022,-67.4562"/>
<polygon fill="#9a32cd" stroke="#9a32cd" points="250.233,-22.6616 239.829,-24.6631 249.21,-29.5865 250.233,-22.6616"/>
<text text-anchor="middle" x="309" y="-49" font-family="Helvetica,sans-Serif" font-size="10.00"> m_domains</text>
</g>
</g>
</svg>
