<?xml version="1.0" encoding="UTF-8" standalone="no"?>
<!DOCTYPE svg PUBLIC "-//W3C//DTD SVG 1.1//EN"
 "http://www.w3.org/Graphics/SVG/1.1/DTD/svg11.dtd">
<!-- Generated by graphviz version 2.26.3 (20100126.1600)
 -->
<!-- Title: G Pages: 1 -->
<svg width="1500pt" height="317pt"
 viewBox="0.00 0.00 1500.00 317.00" xmlns="http://www.w3.org/2000/svg" xmlns:xlink="http://www.w3.org/1999/xlink">
<g id="graph1" class="graph" transform="scale(1 1) rotate(0) translate(4 313)">
<title>G</title>
<polygon fill="white" stroke="white" points="-4,5 -4,-313 1497,-313 1497,5 -4,5"/>
<!-- Node1 -->
<g id="node1" class="node"><title>Node1</title>
<polygon fill="#bfbfbf" stroke="black" points="1388.5,-96.5 1388.5,-117.5 1491.5,-117.5 1491.5,-96.5 1388.5,-96.5"/>
<text text-anchor="middle" x="1440" y="-104.5" font-family="Helvetica,sans-Serif" font-size="10.00">grid::DistCacheGrid</text>
</g>
<!-- Node2 -->
<g id="node2" class="node"><title>Node2</title>
<a xlink:href="classgrid_1_1LocalCacheGrid.xhtml" target="_top" xlink:title="grid::LocalCacheGrid">
<polygon fill="white" stroke="black" points="1137,-73.5 1137,-94.5 1245,-94.5 1245,-73.5 1137,-73.5"/>
<text text-anchor="middle" x="1191" y="-81.5" font-family="Helvetica,sans-Serif" font-size="10.00">grid::LocalCacheGrid</text>
</a>
</g>
<!-- Node2&#45;&gt;Node1 -->
<g id="edge2" class="edge"><title>Node2&#45;&gt;Node1</title>
<path fill="none" stroke="midnightblue" d="M1255.01,-89.9122C1296.37,-93.733 1349.5,-98.6409 1388.21,-102.216"/>
<polygon fill="midnightblue" stroke="midnightblue" points="1255.31,-86.4254 1245.03,-88.9907 1254.66,-93.3957 1255.31,-86.4254"/>
</g>
<!-- Node3 -->
<g id="node4" class="node"><title>Node3</title>
<a xlink:href="classgrid_1_1Grid.xhtml" target="_top" xlink:title="Base class for a grid.">
<polygon fill="white" stroke="black" points="870,-125.5 870,-146.5 926,-146.5 926,-125.5 870,-125.5"/>
<text text-anchor="middle" x="898" y="-133.5" font-family="Helvetica,sans-Serif" font-size="10.00">grid::Grid</text>
</a>
</g>
<!-- Node3&#45;&gt;Node2 -->
<g id="edge4" class="edge"><title>Node3&#45;&gt;Node2</title>
<path fill="none" stroke="midnightblue" d="M936.073,-129.243C987.234,-120.163 1078.47,-103.972 1136.78,-93.6219"/>
<polygon fill="midnightblue" stroke="midnightblue" points="935.329,-125.82 926.094,-131.014 936.552,-132.713 935.329,-125.82"/>
</g>
<!-- Node4 -->
<g id="node6" class="node"><title>Node4</title>
<a xlink:href="classperf_1_1Counter.xhtml" target="_top" xlink:title="perf::Counter">
<polygon fill="white" stroke="black" points="630,-188.5 630,-209.5 704,-209.5 704,-188.5 630,-188.5"/>
<text text-anchor="middle" x="667" y="-196.5" font-family="Helvetica,sans-Serif" font-size="10.00">perf::Counter</text>
</a>
</g>
<!-- Node4&#45;&gt;Node3 -->
<g id="edge6" class="edge"><title>Node4&#45;&gt;Node3</title>
<path fill="none" stroke="#9a32cd" stroke-dasharray="5,2" d="M714.004,-186.181C760.751,-173.432 830.933,-154.291 869.715,-143.714"/>
<polygon fill="#9a32cd" stroke="#9a32cd" points="712.841,-182.87 704.114,-188.878 714.683,-189.623 712.841,-182.87"/>
<text text-anchor="middle" x="763" y="-184" font-family="Helvetica,sans-Serif" font-size="10.00"> m_counter</text>
</g>
<!-- Node5 -->
<g id="node8" class="node"><title>Node5</title>
<a xlink:href="classperf_1_1Counter_1_1NameToCounterMap.xhtml" target="_top" xlink:title="perf::Counter::NameToCounterMap">
<polygon fill="white" stroke="black" points="304,-207.5 304,-228.5 474,-228.5 474,-207.5 304,-207.5"/>
<text text-anchor="middle" x="389" y="-215.5" font-family="Helvetica,sans-Serif" font-size="10.00">perf::Counter::NameToCounterMap</text>
</a>
</g>
<!-- Node5&#45;&gt;Node4 -->
<g id="edge8" class="edge"><title>Node5&#45;&gt;Node4</title>
<path fill="none" stroke="#9a32cd" stroke-dasharray="5,2" d="M484.498,-211.473C534.466,-208.058 592.776,-204.073 629.784,-201.544"/>
<polygon fill="#9a32cd" stroke="#9a32cd" points="484.036,-207.996 474.298,-212.17 484.514,-214.98 484.036,-207.996"/>
<text text-anchor="middle" x="546" y="-214" font-family="Helvetica,sans-Serif" font-size="10.00"> NAME_TO_COUNTER</text>
</g>
<!-- Node6 -->
<g id="node10" class="node"><title>Node6</title>
<a xlink:href="classgrid_1_1GridContainer.xhtml" target="_top" xlink:title="grid::GridContainer">
<polygon fill="white" stroke="black" points="618,-247.5 618,-268.5 716,-268.5 716,-247.5 618,-247.5"/>
<text text-anchor="middle" x="667" y="-255.5" font-family="Helvetica,sans-Serif" font-size="10.00">grid::GridContainer</text>
</a>
</g>
<!-- Node6&#45;&gt;Node3 -->
<g id="edge10" class="edge"><title>Node6&#45;&gt;Node3</title>
<path fill="none" stroke="#9a32cd" stroke-dasharray="5,2" d="M698.476,-242.977C723.899,-230.702 760.501,-212.71 792,-196 823.196,-179.45 858.8,-158.959 879.785,-146.712"/>
<polygon fill="#9a32cd" stroke="#9a32cd" points="696.807,-239.896 689.314,-247.387 699.843,-246.203 696.807,-239.896"/>
<text text-anchor="middle" x="763" y="-229" font-family="Helvetica,sans-Serif" font-size="10.00"> m_container</text>
</g>
<!-- Node10 -->
<g id="node18" class="node"><title>Node10</title>
<polygon fill="white" stroke="#bfbfbf" points="824,-235.5 824,-256.5 972,-256.5 972,-235.5 824,-235.5"/>
<text text-anchor="middle" x="898" y="-243.5" font-family="Helvetica,sans-Serif" font-size="10.00">std::vector&lt; GridContainer * &gt;</text>
</g>
<!-- Node6&#45;&gt;Node10 -->
<g id="edge20" class="edge"><title>Node6&#45;&gt;Node10</title>
<path fill="none" stroke="#9a32cd" stroke-dasharray="5,2" d="M726.474,-254.91C756.137,-253.369 792.306,-251.491 823.77,-249.856"/>
<polygon fill="#9a32cd" stroke="#9a32cd" points="726.077,-251.426 716.272,-255.44 726.44,-258.417 726.077,-251.426"/>
<text text-anchor="middle" x="763" y="-258" font-family="Helvetica,sans-Serif" font-size="10.00"> elements</text>
</g>
<!-- Node7 -->
<g id="node12" class="node"><title>Node7</title>
<a xlink:href="classasagi_1_1Grid.xhtml" target="_top" xlink:title="C++ Interface for ASAGI.">
<polygon fill="white" stroke="black" points="357,-247.5 357,-268.5 421,-268.5 421,-247.5 357,-247.5"/>
<text text-anchor="middle" x="389" y="-255.5" font-family="Helvetica,sans-Serif" font-size="10.00">asagi::Grid</text>
</a>
</g>
<!-- Node7&#45;&gt;Node6 -->
<g id="edge12" class="edge"><title>Node7&#45;&gt;Node6</title>
<path fill="none" stroke="midnightblue" d="M431.336,-258C481.491,-258 564.901,-258 617.858,-258"/>
<polygon fill="midnightblue" stroke="midnightblue" points="431.162,-254.5 421.162,-258 431.162,-261.5 431.162,-254.5"/>
</g>
<!-- Node8 -->
<g id="node14" class="node"><title>Node8</title>
<a xlink:href="classtypes_1_1Type.xhtml" target="_top" xlink:title="types::Type">
<polygon fill="white" stroke="black" points="355,-287.5 355,-308.5 423,-308.5 423,-287.5 355,-287.5"/>
<text text-anchor="middle" x="389" y="-295.5" font-family="Helvetica,sans-Serif" font-size="10.00">types::Type</text>
</a>
</g>
<!-- Node8&#45;&gt;Node6 -->
<g id="edge14" class="edge"><title>Node8&#45;&gt;Node6</title>
<path fill="none" stroke="#9a32cd" stroke-dasharray="5,2" d="M433.193,-293.638C475.991,-289.159 542.647,-281.509 600,-272 606.213,-270.97 612.726,-269.766 619.147,-268.505"/>
<polygon fill="#9a32cd" stroke="#9a32cd" points="432.699,-290.171 423.112,-294.681 433.419,-297.134 432.699,-290.171"/>
<text text-anchor="middle" x="546" y="-290" font-family="Helvetica,sans-Serif" font-size="10.00"> m_type</text>
</g>
<!-- Node9 -->
<g id="node16" class="node"><title>Node9</title>
<a xlink:href="classfortran_1_1PointerArray.xhtml" target="_top" xlink:title="fortran::PointerArray\&lt; GridContainer \&gt;">
<polygon fill="white" stroke="black" points="1100,-267.5 1100,-288.5 1282,-288.5 1282,-267.5 1100,-267.5"/>
<text text-anchor="middle" x="1191" y="-275.5" font-family="Helvetica,sans-Serif" font-size="10.00">fortran::PointerArray&lt; GridContainer &gt;</text>
</a>
</g>
<!-- Node9&#45;&gt;Node6 -->
<g id="edge16" class="edge"><title>Node9&#45;&gt;Node6</title>
<path fill="none" stroke="#9a32cd" stroke-dasharray="5,2" d="M1089.66,-278.961C1087.08,-278.975 1084.53,-278.988 1082,-279 927.294,-279.71 887.762,-288.081 734,-271 728.23,-270.359 722.213,-269.487 716.257,-268.496"/>
<polygon fill="#9a32cd" stroke="#9a32cd" points="1089.73,-282.461 1099.71,-278.899 1089.69,-275.461 1089.73,-282.461"/>
<text text-anchor="middle" x="898" y="-285" font-family="Helvetica,sans-Serif" font-size="10.00"> m_pointers</text>
</g>
<!-- Node10&#45;&gt;Node9 -->
<g id="edge18" class="edge"><title>Node10&#45;&gt;Node9</title>
<path fill="none" stroke="#9a32cd" stroke-dasharray="5,2" d="M982.307,-255.139C1013.62,-258.54 1049.43,-262.437 1082,-266 1087.77,-266.631 1093.72,-267.283 1099.71,-267.94"/>
<polygon fill="#9a32cd" stroke="#9a32cd" points="982.63,-251.654 972.31,-254.054 981.874,-258.613 982.63,-251.654"/>
<text text-anchor="middle" x="1043" y="-270" font-family="Helvetica,sans-Serif" font-size="10.00"> m_pointers</text>
</g>
<!-- Node11 -->
<g id="node21" class="node"><title>Node11</title>
<a xlink:href="classio_1_1NetCdfReader.xhtml" target="_top" xlink:title="io::NetCdfReader">
<polygon fill="white" stroke="black" points="620.5,-125.5 620.5,-146.5 713.5,-146.5 713.5,-125.5 620.5,-125.5"/>
<text text-anchor="middle" x="667" y="-133.5" font-family="Helvetica,sans-Serif" font-size="10.00">io::NetCdfReader</text>
</a>
</g>
<!-- Node11&#45;&gt;Node3 -->
<g id="edge22" class="edge"><title>Node11&#45;&gt;Node3</title>
<path fill="none" stroke="#9a32cd" stroke-dasharray="5,2" d="M723.95,-136C770.302,-136 833.758,-136 869.852,-136"/>
<polygon fill="#9a32cd" stroke="#9a32cd" points="723.746,-132.5 713.746,-136 723.746,-139.5 723.746,-132.5"/>
<text text-anchor="middle" x="763" y="-140" font-family="Helvetica,sans-Serif" font-size="10.00"> m_inputFile</text>
</g>
<!-- Node12 -->
<g id="node23" class="node"><title>Node12</title>
<a xlink:title="STL class.">
<polygon fill="white" stroke="#bfbfbf" points="164,-125.5 164,-146.5 224,-146.5 224,-125.5 164,-125.5"/>
<text text-anchor="middle" x="194" y="-133.5" font-family="Helvetica,sans-Serif" font-size="10.00">std::string</text>
</a>
</g>
<!-- Node12&#45;&gt;Node3 -->
<g id="edge34" class="edge"><title>Node12&#45;&gt;Node3</title>
<path fill="none" stroke="#9a32cd" stroke-dasharray="5,2" d="M213.944,-119.137C234.835,-102.67 269.372,-78.7156 304,-69 515.832,-9.5661 784.177,-94.5176 870.163,-125.475"/>
<polygon fill="#9a32cd" stroke="#9a32cd" points="211.698,-116.451 206.121,-125.46 216.099,-121.895 211.698,-116.451"/>
<text text-anchor="middle" x="546" y="-63" font-family="Helvetica,sans-Serif" font-size="10.00"> m_variableName</text>
</g>
<!-- Node12&#45;&gt;Node11 -->
<g id="edge24" class="edge"><title>Node12&#45;&gt;Node11</title>
<path fill="none" stroke="#9a32cd" stroke-dasharray="5,2" d="M234.354,-136C321.691,-136 527.812,-136 620.465,-136"/>
<polygon fill="#9a32cd" stroke="#9a32cd" points="234.308,-132.5 224.308,-136 234.308,-139.5 234.308,-132.5"/>
<text text-anchor="middle" x="389" y="-140" font-family="Helvetica,sans-Serif" font-size="10.00"> m_filename</text>
</g>
<!-- Node15 -->
<g id="node29" class="node"><title>Node15</title>
<polygon fill="white" stroke="#bfbfbf" points="326.5,-167.5 326.5,-188.5 451.5,-188.5 451.5,-167.5 326.5,-167.5"/>
<text text-anchor="middle" x="389" y="-175.5" font-family="Helvetica,sans-Serif" font-size="10.00">std::vector&lt; std::string &gt;</text>
</g>
<!-- Node12&#45;&gt;Node15 -->
<g id="edge32" class="edge"><title>Node12&#45;&gt;Node15</title>
<path fill="none" stroke="#9a32cd" stroke-dasharray="5,2" d="M233.926,-147.957C236.651,-148.677 239.361,-149.365 242,-150 269.533,-156.621 300.269,-162.68 326.49,-167.455"/>
<polygon fill="#9a32cd" stroke="#9a32cd" points="234.667,-144.531 224.096,-145.255 232.811,-151.281 234.667,-144.531"/>
<text text-anchor="middle" x="264" y="-162" font-family="Helvetica,sans-Serif" font-size="10.00"> elements</text>
</g>
<!-- Node13 -->
<g id="node25" class="node"><title>Node13</title>
<a xlink:title="STL class.">
<polygon fill="white" stroke="#bfbfbf" points="0.5,-125.5 0.5,-146.5 125.5,-146.5 125.5,-125.5 0.5,-125.5"/>
<text text-anchor="middle" x="63" y="-133.5" font-family="Helvetica,sans-Serif" font-size="10.00">std::basic_string&lt; char &gt;</text>
</a>
</g>
<!-- Node13&#45;&gt;Node12 -->
<g id="edge26" class="edge"><title>Node13&#45;&gt;Node12</title>
<path fill="none" stroke="midnightblue" d="M136.065,-136C145.859,-136 155.423,-136 163.868,-136"/>
<polygon fill="midnightblue" stroke="midnightblue" points="135.814,-132.5 125.814,-136 135.814,-139.5 135.814,-132.5"/>
</g>
<!-- Node14 -->
<g id="node27" class="node"><title>Node14</title>
<polygon fill="white" stroke="#bfbfbf" points="335.5,-78.5 335.5,-99.5 442.5,-99.5 442.5,-78.5 335.5,-78.5"/>
<text text-anchor="middle" x="389" y="-86.5" font-family="Helvetica,sans-Serif" font-size="10.00">std::vector&lt; size_t &gt;</text>
</g>
<!-- Node14&#45;&gt;Node11 -->
<g id="edge28" class="edge"><title>Node14&#45;&gt;Node11</title>
<path fill="none" stroke="#9a32cd" stroke-dasharray="5,2" d="M452.755,-90.27C495.03,-92.273 551.448,-97.1807 600,-109 615.719,-112.826 632.609,-119.652 645.498,-125.483"/>
<polygon fill="#9a32cd" stroke="#9a32cd" points="452.741,-86.7663 442.599,-89.8316 452.439,-93.7597 452.741,-86.7663"/>
<text text-anchor="middle" x="546" y="-113" font-family="Helvetica,sans-Serif" font-size="10.00"> m_size</text>
</g>
<!-- Node15&#45;&gt;Node11 -->
<g id="edge30" class="edge"><title>Node15&#45;&gt;Node11</title>
<path fill="none" stroke="#9a32cd" stroke-dasharray="5,2" d="M461.624,-169.71C502.406,-164.717 554.162,-157.819 600,-150 606.56,-148.881 613.456,-147.582 620.227,-146.234"/>
<polygon fill="#9a32cd" stroke="#9a32cd" points="461.009,-166.258 451.503,-170.937 461.852,-173.208 461.009,-166.258"/>
<text text-anchor="middle" x="546" y="-169" font-family="Helvetica,sans-Serif" font-size="10.00"> m_names</text>
</g>
<!-- Node16 -->
<g id="node33" class="node"><title>Node16</title>
<a xlink:href="classallocator_1_1Allocator.xhtml" target="_top" xlink:title="allocator::Allocator\&lt; unsigned char \&gt;">
<polygon fill="white" stroke="black" points="810,-73.5 810,-94.5 986,-94.5 986,-73.5 810,-73.5"/>
<text text-anchor="middle" x="898" y="-81.5" font-family="Helvetica,sans-Serif" font-size="10.00">allocator::Allocator&lt; unsigned char &gt;</text>
</a>
</g>
<!-- Node16&#45;&gt;Node2 -->
<g id="edge36" class="edge"><title>Node16&#45;&gt;Node2</title>
<path fill="none" stroke="#9a32cd" stroke-dasharray="5,2" d="M996.499,-84C1043.38,-84 1097.64,-84 1136.92,-84"/>
<polygon fill="#9a32cd" stroke="#9a32cd" points="996.307,-80.5001 986.307,-84 996.307,-87.5001 996.307,-80.5001"/>
<text text-anchor="middle" x="1043" y="-88" font-family="Helvetica,sans-Serif" font-size="10.00"> m_allocator</text>
</g>
<!-- Node17 -->
<g id="node35" class="node"><title>Node17</title>
<a xlink:href="classblocks_1_1BlockManager.xhtml" target="_top" xlink:title="Controls a list of blocks.">
<polygon fill="white" stroke="black" points="841.5,-6.5 841.5,-27.5 954.5,-27.5 954.5,-6.5 841.5,-6.5"/>
<text text-anchor="middle" x="898" y="-14.5" font-family="Helvetica,sans-Serif" font-size="10.00">blocks::BlockManager</text>
</a>
</g>
<!-- Node17&#45;&gt;Node2 -->
<g id="edge38" class="edge"><title>Node17&#45;&gt;Node2</title>
<path fill="none" stroke="#9a32cd" stroke-dasharray="5,2" d="M954.093,-29.8266C1009.43,-42.4796 1093.01,-61.5928 1144.68,-73.4085"/>
<polygon fill="#9a32cd" stroke="#9a32cd" points="954.632,-26.3597 944.104,-27.5425 953.072,-33.1836 954.632,-26.3597"/>
<text text-anchor="middle" x="1043" y="-63" font-family="Helvetica,sans-Serif" font-size="10.00"> m_blockManager</text>
</g>
<!-- Node18 -->
<g id="node37" class="node"><title>Node18</title>
<a xlink:href="classblocks_1_1LRU.xhtml" target="_top" xlink:title="blocks::LRU">
<polygon fill="white" stroke="black" points="631.5,-0.5 631.5,-21.5 702.5,-21.5 702.5,-0.5 631.5,-0.5"/>
<text text-anchor="middle" x="667" y="-8.5" font-family="Helvetica,sans-Serif" font-size="10.00">blocks::LRU</text>
</a>
</g>
<!-- Node18&#45;&gt;Node17 -->
<g id="edge40" class="edge"><title>Node18&#45;&gt;Node17</title>
<path fill="none" stroke="#9a32cd" stroke-dasharray="5,2" d="M713.04,-12.1958C749.908,-13.1535 801.798,-14.5012 841.237,-15.5256"/>
<polygon fill="#9a32cd" stroke="#9a32cd" points="712.675,-8.68528 702.588,-11.9244 712.493,-15.6829 712.675,-8.68528"/>
<text text-anchor="middle" x="763" y="-19" font-family="Helvetica,sans-Serif" font-size="10.00"> m_lru</text>
</g>
<!-- Node19 -->
<g id="node39" class="node"><title>Node19</title>
<a xlink:href="classmpi_1_1Mutex.xhtml" target="_top" xlink:title="mpi::Mutex">
<polygon fill="white" stroke="black" points="1158.5,-113.5 1158.5,-134.5 1223.5,-134.5 1223.5,-113.5 1158.5,-113.5"/>
<text text-anchor="middle" x="1191" y="-121.5" font-family="Helvetica,sans-Serif" font-size="10.00">mpi::Mutex</text>
</a>
</g>
<!-- Node19&#45;&gt;Node1 -->
<g id="edge42" class="edge"><title>Node19&#45;&gt;Node1</title>
<path fill="none" stroke="#9a32cd" stroke-dasharray="5,2" d="M1233.65,-121.088C1276.51,-118.162 1342.59,-113.65 1388.38,-110.524"/>
<polygon fill="#9a32cd" stroke="#9a32cd" points="1233.29,-117.604 1223.55,-121.778 1233.77,-124.588 1233.29,-117.604"/>
<text text-anchor="middle" x="1335" y="-120" font-family="Helvetica,sans-Serif" font-size="10.00"> m_globalMutex</text>
</g>
</g>
</svg>
