<?xml version="1.0" encoding="UTF-8" standalone="no"?>
<!DOCTYPE svg PUBLIC "-//W3C//DTD SVG 1.1//EN"
 "http://www.w3.org/Graphics/SVG/1.1/DTD/svg11.dtd">
<!-- Generated by graphviz version 2.26.3 (20100126.1600)
 -->
<!-- Title: transfer::MPIThreadCache::BlockInfoResponder Pages: 1 -->
<svg width="1128pt" height="428pt"
 viewBox="0.00 0.00 1128.00 428.00" xmlns="http://www.w3.org/2000/svg" xmlns:xlink="http://www.w3.org/1999/xlink">
<g id="graph1" class="graph" transform="scale(1 1) rotate(0) translate(4 424)">
<title>transfer::MPIThreadCache::BlockInfoResponder</title>
<polygon fill="white" stroke="white" points="-4,5 -4,-424 1125,-424 1125,5 -4,5"/>
<!-- Node1 -->
<g id="node1" class="node"><title>Node1</title>
<polygon fill="#bfbfbf" stroke="black" points="462,-270 462,-304 594,-304 594,-270 462,-270"/>
<text text-anchor="start" x="470" y="-291" font-family="Helvetica,sans-Serif" font-size="10.00">transfer::MPIThreadCache</text>
<text text-anchor="middle" x="528" y="-278" font-family="Helvetica,sans-Serif" font-size="10.00">::BlockInfoResponder</text>
</g>
<!-- Node3 -->
<g id="node4" class="node"><title>Node3</title>
<a xlink:href="classtransfer_1_1MPIThreadCache.xhtml" target="_top" xlink:title="transfer::MPIThreadCache">
<polygon fill="white" stroke="black" points="734,-240.5 734,-261.5 866,-261.5 866,-240.5 734,-240.5"/>
<text text-anchor="middle" x="800" y="-248.5" font-family="Helvetica,sans-Serif" font-size="10.00">transfer::MPIThreadCache</text>
</a>
</g>
<!-- Node1&#45;&gt;Node3 -->
<g id="edge36" class="edge"><title>Node1&#45;&gt;Node3</title>
<path fill="none" stroke="#9a32cd" stroke-dasharray="5,2" d="M604.601,-278.89C638.748,-275.055 679.437,-270.183 716,-265 723.465,-263.942 731.29,-262.749 739.035,-261.519"/>
<polygon fill="#9a32cd" stroke="#9a32cd" points="603.776,-275.46 594.225,-280.046 604.551,-282.417 603.776,-275.46"/>
<text text-anchor="middle" x="664" y="-281" font-family="Helvetica,sans-Serif" font-size="10.00"> m_blockInfoResponder</text>
</g>
<!-- Node2 -->
<g id="node2" class="node"><title>Node2</title>
<a xlink:href="classmpi_1_1Receiver.xhtml" target="_top" xlink:title="mpi::Receiver">
<polygon fill="white" stroke="black" points="252.5,-300.5 252.5,-321.5 329.5,-321.5 329.5,-300.5 252.5,-300.5"/>
<text text-anchor="middle" x="291" y="-308.5" font-family="Helvetica,sans-Serif" font-size="10.00">mpi::Receiver</text>
</a>
</g>
<!-- Node2&#45;&gt;Node1 -->
<g id="edge2" class="edge"><title>Node2&#45;&gt;Node1</title>
<path fill="none" stroke="midnightblue" d="M339.638,-306.075C374.853,-302.509 422.869,-297.646 461.608,-293.723"/>
<polygon fill="midnightblue" stroke="midnightblue" points="339.202,-302.601 329.606,-307.091 339.907,-309.565 339.202,-302.601"/>
</g>
<!-- Node11 -->
<g id="node22" class="node"><title>Node11</title>
<a xlink:href="classtransfer_1_1MPIThreadCache_1_1Adder.xhtml" target="_top" xlink:title="transfer::MPIThreadCache\l::Adder">
<polygon fill="white" stroke="black" points="988,-289 988,-323 1120,-323 1120,-289 988,-289"/>
<text text-anchor="start" x="996" y="-310" font-family="Helvetica,sans-Serif" font-size="10.00">transfer::MPIThreadCache</text>
<text text-anchor="middle" x="1054" y="-297" font-family="Helvetica,sans-Serif" font-size="10.00">::Adder</text>
</a>
</g>
<!-- Node2&#45;&gt;Node11 -->
<g id="edge26" class="edge"><title>Node2&#45;&gt;Node11</title>
<path fill="none" stroke="midnightblue" d="M340.075,-313.496C345.448,-313.701 350.839,-313.876 356,-314 590.599,-319.633 649.333,-314.778 884,-315 922.222,-315.036 931.832,-317.039 970,-315 975.712,-314.695 981.633,-314.274 987.567,-313.779"/>
<polygon fill="midnightblue" stroke="midnightblue" points="339.965,-309.989 329.83,-313.073 339.677,-316.983 339.965,-309.989"/>
</g>
<!-- Node12 -->
<g id="node26" class="node"><title>Node12</title>
<a xlink:href="classtransfer_1_1MPIThreadCache_1_1BlockTransferer.xhtml" target="_top" xlink:title="transfer::MPIThreadCache\l::BlockTransferer">
<polygon fill="white" stroke="black" points="988,-181 988,-215 1120,-215 1120,-181 988,-181"/>
<text text-anchor="start" x="996" y="-202" font-family="Helvetica,sans-Serif" font-size="10.00">transfer::MPIThreadCache</text>
<text text-anchor="middle" x="1054" y="-189" font-family="Helvetica,sans-Serif" font-size="10.00">::BlockTransferer</text>
</a>
</g>
<!-- Node2&#45;&gt;Node12 -->
<g id="edge32" class="edge"><title>Node2&#45;&gt;Node12</title>
<path fill="none" stroke="midnightblue" d="M332.902,-297.394C367.319,-286.547 417.472,-271.488 462,-261 647.497,-217.308 694.183,-201.956 884,-185 922.071,-181.599 931.89,-182.068 970,-185 975.738,-185.441 981.678,-186.05 987.624,-186.765"/>
<polygon fill="midnightblue" stroke="midnightblue" points="331.665,-294.114 323.191,-300.474 333.781,-300.787 331.665,-294.114"/>
</g>
<!-- Node13 -->
<g id="node31" class="node"><title>Node13</title>
<a xlink:href="classtransfer_1_1MPIThreadCache_1_1Deleter.xhtml" target="_top" xlink:title="transfer::MPIThreadCache\l::Deleter">
<polygon fill="white" stroke="black" points="988,-386 988,-420 1120,-420 1120,-386 988,-386"/>
<text text-anchor="start" x="996" y="-407" font-family="Helvetica,sans-Serif" font-size="10.00">transfer::MPIThreadCache</text>
<text text-anchor="middle" x="1054" y="-394" font-family="Helvetica,sans-Serif" font-size="10.00">::Deleter</text>
</a>
</g>
<!-- Node2&#45;&gt;Node13 -->
<g id="edge40" class="edge"><title>Node2&#45;&gt;Node13</title>
<path fill="none" stroke="midnightblue" d="M338.455,-323.974C344.344,-325.418 350.297,-326.798 356,-328 588.579,-377.016 647.069,-394.051 884,-413 922.101,-416.047 931.845,-415.263 970,-413 975.718,-412.661 981.643,-412.193 987.579,-411.643"/>
<polygon fill="midnightblue" stroke="midnightblue" points="339.214,-320.556 328.662,-321.506 337.504,-327.344 339.214,-320.556"/>
</g>
<!-- Node3&#45;&gt;Node1 -->
<g id="edge4" class="edge"><title>Node3&#45;&gt;Node1</title>
<path fill="none" stroke="#9a32cd" stroke-dasharray="5,2" d="M723.675,-244.736C689.24,-243.611 648.247,-244.65 612,-252 594.349,-255.579 575.761,-262.911 560.57,-269.944"/>
<polygon fill="#9a32cd" stroke="#9a32cd" points="723.541,-248.233 733.67,-245.128 723.815,-241.239 723.541,-248.233"/>
<text text-anchor="middle" x="664" y="-256" font-family="Helvetica,sans-Serif" font-size="10.00"> m_parent</text>
</g>
<!-- Node3&#45;&gt;Node11 -->
<g id="edge28" class="edge"><title>Node3&#45;&gt;Node11</title>
<path fill="none" stroke="#9a32cd" stroke-dasharray="5,2" d="M876.591,-252.668C906.176,-254.744 940.051,-258.896 970,-267 988.624,-272.039 1008.25,-280.924 1023.84,-288.941"/>
<polygon fill="#9a32cd" stroke="#9a32cd" points="876.52,-249.156 866.319,-252.016 876.077,-256.142 876.52,-249.156"/>
<text text-anchor="middle" x="927" y="-271" font-family="Helvetica,sans-Serif" font-size="10.00"> m_parent</text>
</g>
<!-- Node3&#45;&gt;Node12 -->
<g id="edge34" class="edge"><title>Node3&#45;&gt;Node12</title>
<path fill="none" stroke="#9a32cd" stroke-dasharray="5,2" d="M860.47,-238.382C898.776,-230.389 948.334,-220.048 987.71,-211.832"/>
<polygon fill="#9a32cd" stroke="#9a32cd" points="859.56,-234.997 850.486,-240.466 860.99,-241.849 859.56,-234.997"/>
<text text-anchor="middle" x="927" y="-236" font-family="Helvetica,sans-Serif" font-size="10.00"> m_parent</text>
</g>
<!-- Node3&#45;&gt;Node13 -->
<g id="edge42" class="edge"><title>Node3&#45;&gt;Node13</title>
<path fill="none" stroke="#9a32cd" stroke-dasharray="5,2" d="M807.214,-271.229C818.655,-300.112 843.864,-352.487 884,-378 901.056,-388.842 947.683,-395.211 987.799,-398.804"/>
<polygon fill="#9a32cd" stroke="#9a32cd" points="810.437,-269.856 803.62,-261.745 803.891,-272.336 810.437,-269.856"/>
<text text-anchor="middle" x="927" y="-400" font-family="Helvetica,sans-Serif" font-size="10.00"> m_parent</text>
</g>
<!-- Node4 -->
<g id="node6" class="node"><title>Node4</title>
<a xlink:href="classtransfer_1_1MPICache.xhtml" target="_top" xlink:title="transfer::MPICache\l\&lt; allocator::Default,\l false \&gt;">
<polygon fill="white" stroke="black" points="476.5,-103.5 476.5,-150.5 579.5,-150.5 579.5,-103.5 476.5,-103.5"/>
<text text-anchor="start" x="484.5" y="-137.5" font-family="Helvetica,sans-Serif" font-size="10.00">transfer::MPICache</text>
<text text-anchor="start" x="484.5" y="-124.5" font-family="Helvetica,sans-Serif" font-size="10.00">&lt; allocator::Default,</text>
<text text-anchor="middle" x="528" y="-111.5" font-family="Helvetica,sans-Serif" font-size="10.00"> false &gt;</text>
</a>
</g>
<!-- Node4&#45;&gt;Node3 -->
<g id="edge6" class="edge"><title>Node4&#45;&gt;Node3</title>
<path fill="none" stroke="#8b1a1a" d="M589.394,-150.532C626.487,-165.226 674.467,-185.083 716,-205 739.238,-216.143 765.13,-230.656 781.943,-240.373"/>
<polygon fill="#8b1a1a" stroke="#8b1a1a" points="590.31,-147.131 579.723,-146.72 587.743,-153.643 590.31,-147.131"/>
</g>
<!-- Node5 -->
<g id="node8" class="node"><title>Node5</title>
<a xlink:href="classmpi_1_1MPIComm.xhtml" target="_top" xlink:title="mpi::MPIComm">
<polygon fill="white" stroke="black" points="248,-132.5 248,-153.5 334,-153.5 334,-132.5 248,-132.5"/>
<text text-anchor="middle" x="291" y="-140.5" font-family="Helvetica,sans-Serif" font-size="10.00">mpi::MPIComm</text>
</a>
</g>
<!-- Node5&#45;&gt;Node4 -->
<g id="edge8" class="edge"><title>Node5&#45;&gt;Node4</title>
<path fill="none" stroke="#9a32cd" stroke-dasharray="5,2" d="M344.174,-139.41C383.692,-136.742 437.308,-133.123 476.435,-130.481"/>
<polygon fill="#9a32cd" stroke="#9a32cd" points="343.935,-135.918 334.194,-140.084 344.407,-142.902 343.935,-135.918"/>
<text text-anchor="middle" x="400" y="-142" font-family="Helvetica,sans-Serif" font-size="10.00"> m_mpiComm</text>
</g>
<!-- Node6 -->
<g id="node10" class="node"><title>Node6</title>
<a xlink:href="classthreads_1_1PthreadMutex.xhtml" target="_top" xlink:title="threads::PthreadMutex">
<polygon fill="white" stroke="black" points="8,-132.5 8,-153.5 124,-153.5 124,-132.5 8,-132.5"/>
<text text-anchor="middle" x="66" y="-140.5" font-family="Helvetica,sans-Serif" font-size="10.00">threads::PthreadMutex</text>
</a>
</g>
<!-- Node6&#45;&gt;Node3 -->
<g id="edge22" class="edge"><title>Node6&#45;&gt;Node3</title>
<path fill="none" stroke="#9a32cd" stroke-dasharray="5,2" d="M125.557,-155.517C133.755,-157.104 142.076,-158.645 150,-160 261.615,-179.089 591.706,-223.388 733.763,-242.246"/>
<polygon fill="#9a32cd" stroke="#9a32cd" points="126.142,-152.065 115.654,-153.567 124.79,-158.933 126.142,-152.065"/>
<text text-anchor="middle" x="400" y="-219" font-family="Helvetica,sans-Serif" font-size="10.00"> m_sendRecvMutex</text>
<text text-anchor="middle" x="400" y="-206" font-family="Helvetica,sans-Serif" font-size="10.00">m_mutexes</text>
</g>
<!-- Node6&#45;&gt;Node5 -->
<g id="edge10" class="edge"><title>Node6&#45;&gt;Node5</title>
<path fill="none" stroke="#9a32cd" stroke-dasharray="5,2" d="M134.438,-143C171.378,-143 215.846,-143 247.935,-143"/>
<polygon fill="#9a32cd" stroke="#9a32cd" points="134.236,-139.5 124.236,-143 134.236,-146.5 134.236,-139.5"/>
<text text-anchor="middle" x="188" y="-147" font-family="Helvetica,sans-Serif" font-size="10.00"> mpiLock</text>
</g>
<!-- Node7 -->
<g id="node12" class="node"><title>Node7</title>
<a xlink:href="classcache_1_1CacheManager.xhtml" target="_top" xlink:title="Manages a block cache. ">
<polygon fill="white" stroke="black" points="470.5,-63.5 470.5,-84.5 585.5,-84.5 585.5,-63.5 470.5,-63.5"/>
<text text-anchor="middle" x="528" y="-71.5" font-family="Helvetica,sans-Serif" font-size="10.00">cache::CacheManager</text>
</a>
</g>
<!-- Node6&#45;&gt;Node7 -->
<g id="edge14" class="edge"><title>Node6&#45;&gt;Node7</title>
<path fill="none" stroke="#9a32cd" stroke-dasharray="5,2" d="M128.262,-130.554C162.364,-123.965 205.42,-116.016 244,-110 322.202,-97.8047 413.01,-86.8511 470.478,-80.3136"/>
<polygon fill="#9a32cd" stroke="#9a32cd" points="127.587,-127.12 118.438,-132.462 128.922,-133.991 127.587,-127.12"/>
<text text-anchor="middle" x="291" y="-114" font-family="Helvetica,sans-Serif" font-size="10.00"> m_blockMutexes</text>
</g>
<!-- Node7&#45;&gt;Node3 -->
<g id="edge12" class="edge"><title>Node7&#45;&gt;Node3</title>
<path fill="none" stroke="#9a32cd" stroke-dasharray="5,2" d="M590.828,-87.1804C629.693,-97.6044 679.043,-115.147 716,-143 752.991,-170.878 782.366,-218.949 794.266,-240.275"/>
<polygon fill="#9a32cd" stroke="#9a32cd" points="591.234,-83.6704 580.677,-84.5541 589.481,-90.4473 591.234,-83.6704"/>
<text text-anchor="middle" x="664" y="-147" font-family="Helvetica,sans-Serif" font-size="10.00"> m_cacheManager</text>
</g>
<!-- Node8 -->
<g id="node15" class="node"><title>Node8</title>
<a xlink:href="classcache_1_1CacheList.xhtml" target="_top" xlink:title="Controls a list of blocks. ">
<polygon fill="white" stroke="black" points="244.5,-43.5 244.5,-64.5 337.5,-64.5 337.5,-43.5 244.5,-43.5"/>
<text text-anchor="middle" x="291" y="-51.5" font-family="Helvetica,sans-Serif" font-size="10.00">cache::CacheList</text>
</a>
</g>
<!-- Node8&#45;&gt;Node7 -->
<g id="edge16" class="edge"><title>Node8&#45;&gt;Node7</title>
<path fill="none" stroke="#9a32cd" stroke-dasharray="5,2" d="M347.675,-58.7827C384.726,-61.9094 432.977,-65.9811 470.242,-69.1259"/>
<polygon fill="#9a32cd" stroke="#9a32cd" points="347.8,-55.2809 337.541,-57.9275 347.211,-62.2561 347.8,-55.2809"/>
<text text-anchor="middle" x="400" y="-70" font-family="Helvetica,sans-Serif" font-size="10.00"> m_cacheList</text>
</g>
<!-- Node9 -->
<g id="node17" class="node"><title>Node9</title>
<a xlink:href="classcache_1_1LRU.xhtml" target="_top" xlink:title="cache::LRU">
<polygon fill="white" stroke="black" points="31.5,-0.5 31.5,-21.5 100.5,-21.5 100.5,-0.5 31.5,-0.5"/>
<text text-anchor="middle" x="66" y="-8.5" font-family="Helvetica,sans-Serif" font-size="10.00">cache::LRU</text>
</a>
</g>
<!-- Node9&#45;&gt;Node8 -->
<g id="edge18" class="edge"><title>Node9&#45;&gt;Node8</title>
<path fill="none" stroke="#9a32cd" stroke-dasharray="5,2" d="M110.733,-18.1694C142.884,-23.4828 187.22,-31.1381 226,-39 232.697,-40.3577 239.759,-41.8862 246.663,-43.4349"/>
<polygon fill="#9a32cd" stroke="#9a32cd" points="111.18,-14.696 100.745,-16.5293 110.046,-21.6035 111.18,-14.696"/>
<text text-anchor="middle" x="188" y="-43" font-family="Helvetica,sans-Serif" font-size="10.00"> m_lru</text>
</g>
<!-- Node10 -->
<g id="node19" class="node"><title>Node10</title>
<polygon fill="white" stroke="#bfbfbf" points="0.5,-40.5 0.5,-87.5 131.5,-87.5 131.5,-40.5 0.5,-40.5"/>
<text text-anchor="start" x="8.5" y="-74.5" font-family="Helvetica,sans-Serif" font-size="10.00">std::unordered_map</text>
<text text-anchor="start" x="8.5" y="-61.5" font-family="Helvetica,sans-Serif" font-size="10.00">&lt; unsigned long, unsigned</text>
<text text-anchor="middle" x="66" y="-48.5" font-family="Helvetica,sans-Serif" font-size="10.00"> long &gt;</text>
</g>
<!-- Node10&#45;&gt;Node8 -->
<g id="edge20" class="edge"><title>Node10&#45;&gt;Node8</title>
<path fill="none" stroke="#9a32cd" stroke-dasharray="5,2" d="M142.016,-60.6215C175.87,-59.1169 214.667,-57.3926 244.181,-56.0808"/>
<polygon fill="#9a32cd" stroke="#9a32cd" points="141.519,-57.1401 131.684,-61.0807 141.83,-64.1332 141.519,-57.1401"/>
<text text-anchor="middle" x="188" y="-64" font-family="Helvetica,sans-Serif" font-size="10.00"> m_blockToIndex</text>
</g>
<!-- Node11&#45;&gt;Node3 -->
<g id="edge24" class="edge"><title>Node11&#45;&gt;Node3</title>
<path fill="none" stroke="#9a32cd" stroke-dasharray="5,2" d="M977.637,-300.152C948.082,-296.842 914.167,-291.752 884,-284 862.451,-278.463 838.963,-268.915 822.317,-261.51"/>
<polygon fill="#9a32cd" stroke="#9a32cd" points="977.581,-303.666 987.897,-301.25 978.326,-296.705 977.581,-303.666"/>
<text text-anchor="middle" x="927" y="-302" font-family="Helvetica,sans-Serif" font-size="10.00"> m_adder</text>
</g>
<!-- Node12&#45;&gt;Node3 -->
<g id="edge30" class="edge"><title>Node12&#45;&gt;Node3</title>
<path fill="none" stroke="#9a32cd" stroke-dasharray="5,2" d="M977.513,-189.694C947.802,-188.722 913.813,-190.424 884,-199 855.814,-207.108 827.803,-227.586 812.31,-240.29"/>
<polygon fill="#9a32cd" stroke="#9a32cd" points="977.687,-193.205 987.83,-190.143 977.991,-186.212 977.687,-193.205"/>
<text text-anchor="middle" x="927" y="-203" font-family="Helvetica,sans-Serif" font-size="10.00"> m_blockTransferer</text>
</g>
<!-- Node13&#45;&gt;Node3 -->
<g id="edge38" class="edge"><title>Node13&#45;&gt;Node3</title>
<path fill="none" stroke="#9a32cd" stroke-dasharray="5,2" d="M1007.05,-381.415C972.219,-364.76 924.04,-340.348 884,-315 857.356,-298.133 828.596,-275.04 812.591,-261.702"/>
<polygon fill="#9a32cd" stroke="#9a32cd" points="1005.96,-384.775 1016.5,-385.901 1008.96,-378.451 1005.96,-384.775"/>
<text text-anchor="middle" x="927" y="-365" font-family="Helvetica,sans-Serif" font-size="10.00"> m_deleter</text>
</g>
</g>
</svg>
