<?xml version="1.0" encoding="UTF-8" standalone="no"?>
<!DOCTYPE svg PUBLIC "-//W3C//DTD SVG 1.1//EN"
 "http://www.w3.org/Graphics/SVG/1.1/DTD/svg11.dtd">
<!-- Generated by graphviz version 2.26.3 (20100126.1600)
 -->
<!-- Title: grid::level::FullDist&lt; MPITrans, NumaTrans, Type, Allocator &gt; Pages: 1 -->
<svg width="1438pt" height="437pt"
 viewBox="0.00 0.00 1438.00 437.00" xmlns="http://www.w3.org/2000/svg" xmlns:xlink="http://www.w3.org/1999/xlink">
<g id="graph1" class="graph" transform="scale(1 1) rotate(0) translate(4 433)">
<title>grid::level::FullDist&lt; MPITrans, NumaTrans, Type, Allocator &gt;</title>
<polygon fill="white" stroke="white" points="-4,5 -4,-433 1435,-433 1435,5 -4,5"/>
<!-- Node1 -->
<g id="node1" class="node"><title>Node1</title>
<polygon fill="#bfbfbf" stroke="black" points="1302,-88.5 1302,-135.5 1430,-135.5 1430,-88.5 1302,-88.5"/>
<text text-anchor="start" x="1310" y="-122.5" font-family="Helvetica,sans-Serif" font-size="10.00">grid::level::FullDist</text>
<text text-anchor="start" x="1310" y="-109.5" font-family="Helvetica,sans-Serif" font-size="10.00">&lt; MPITrans, NumaTrans,</text>
<text text-anchor="middle" x="1366" y="-96.5" font-family="Helvetica,sans-Serif" font-size="10.00"> Type, Allocator &gt;</text>
</g>
<!-- Node2 -->
<g id="node2" class="node"><title>Node2</title>
<a xlink:href="classgrid_1_1level_1_1Full.xhtml" target="_top" xlink:title="grid::level::Full\&lt;\l Type, Allocator \&gt;">
<polygon fill="white" stroke="black" points="1168.5,-125 1168.5,-159 1263.5,-159 1263.5,-125 1168.5,-125"/>
<text text-anchor="start" x="1176.5" y="-146" font-family="Helvetica,sans-Serif" font-size="10.00">grid::level::Full&lt;</text>
<text text-anchor="middle" x="1216" y="-133" font-family="Helvetica,sans-Serif" font-size="10.00"> Type, Allocator &gt;</text>
</a>
</g>
<!-- Node2&#45;&gt;Node1 -->
<g id="edge2" class="edge"><title>Node2&#45;&gt;Node1</title>
<path fill="none" stroke="midnightblue" d="M1273.71,-130.458C1282.93,-128.614 1292.52,-126.695 1301.89,-124.823"/>
<polygon fill="midnightblue" stroke="midnightblue" points="1272.99,-127.032 1263.87,-132.425 1274.37,-133.896 1272.99,-127.032"/>
</g>
<!-- Node3 -->
<g id="node4" class="node"><title>Node3</title>
<a xlink:href="classgrid_1_1level_1_1Blocked.xhtml" target="_top" xlink:title="Base class for all grid levels that work on blocks. ">
<polygon fill="white" stroke="black" points="1030,-134 1030,-168 1130,-168 1130,-134 1030,-134"/>
<text text-anchor="start" x="1038" y="-155" font-family="Helvetica,sans-Serif" font-size="10.00">grid::level::Blocked</text>
<text text-anchor="middle" x="1080" y="-142" font-family="Helvetica,sans-Serif" font-size="10.00">&lt; Type &gt;</text>
</a>
</g>
<!-- Node3&#45;&gt;Node2 -->
<g id="edge4" class="edge"><title>Node3&#45;&gt;Node2</title>
<path fill="none" stroke="midnightblue" d="M1140.29,-147.01C1149.64,-146.392 1159.19,-145.76 1168.21,-145.163"/>
<polygon fill="midnightblue" stroke="midnightblue" points="1140,-143.522 1130.25,-147.674 1140.46,-150.506 1140,-143.522"/>
</g>
<!-- Node4 -->
<g id="node6" class="node"><title>Node4</title>
<a xlink:href="classgrid_1_1level_1_1Level.xhtml" target="_top" xlink:title="Base class for a grid level. ">
<polygon fill="white" stroke="black" points="904,-163 904,-197 992,-197 992,-163 904,-163"/>
<text text-anchor="start" x="912" y="-184" font-family="Helvetica,sans-Serif" font-size="10.00">grid::level::Level</text>
<text text-anchor="middle" x="948" y="-171" font-family="Helvetica,sans-Serif" font-size="10.00">&lt; Type &gt;</text>
</a>
</g>
<!-- Node4&#45;&gt;Node3 -->
<g id="edge6" class="edge"><title>Node4&#45;&gt;Node3</title>
<path fill="none" stroke="midnightblue" d="M1002.35,-168.058C1011.39,-166.074 1020.72,-164.023 1029.65,-162.062"/>
<polygon fill="midnightblue" stroke="midnightblue" points="1001.34,-164.698 992.321,-170.263 1002.84,-171.535 1001.34,-164.698"/>
</g>
<!-- Node5 -->
<g id="node8" class="node"><title>Node5</title>
<a xlink:href="classperf_1_1Counter.xhtml" target="_top" xlink:title="perf::Counter">
<polygon fill="white" stroke="black" points="703,-228.5 703,-249.5 777,-249.5 777,-228.5 703,-228.5"/>
<text text-anchor="middle" x="740" y="-236.5" font-family="Helvetica,sans-Serif" font-size="10.00">perf::Counter</text>
</a>
</g>
<!-- Node5&#45;&gt;Node4 -->
<g id="edge8" class="edge"><title>Node5&#45;&gt;Node4</title>
<path fill="none" stroke="#9a32cd" stroke-dasharray="5,2" d="M787.173,-225.619C822.205,-215.682 869.65,-202.224 903.92,-192.503"/>
<polygon fill="#9a32cd" stroke="#9a32cd" points="785.852,-222.356 777.186,-228.452 787.762,-229.09 785.852,-222.356"/>
<text text-anchor="middle" x="851" y="-221" font-family="Helvetica,sans-Serif" font-size="10.00"> m_counter</text>
</g>
<!-- Node6 -->
<g id="node10" class="node"><title>Node6</title>
<a xlink:href="classperf_1_1Counter_1_1NameToCounterMap.xhtml" target="_top" xlink:title="perf::Counter::NameToCounterMap">
<polygon fill="white" stroke="black" points="368,-232.5 368,-253.5 538,-253.5 538,-232.5 368,-232.5"/>
<text text-anchor="middle" x="453" y="-240.5" font-family="Helvetica,sans-Serif" font-size="10.00">perf::Counter::NameToCounterMap</text>
</a>
</g>
<!-- Node6&#45;&gt;Node5 -->
<g id="edge10" class="edge"><title>Node6&#45;&gt;Node5</title>
<path fill="none" stroke="#9a32cd" stroke-dasharray="5,2" d="M548.407,-241.67C601.193,-240.935 663.795,-240.062 702.715,-239.52"/>
<polygon fill="#9a32cd" stroke="#9a32cd" points="548.283,-238.172 538.332,-241.811 548.38,-245.171 548.283,-238.172"/>
<text text-anchor="middle" x="610" y="-246" font-family="Helvetica,sans-Serif" font-size="10.00"> NAME_TO_COUNTER</text>
</g>
<!-- Node7 -->
<g id="node12" class="node"><title>Node7</title>
<a xlink:title="STL class. ">
<polygon fill="white" stroke="#bfbfbf" points="110,-227 110,-261 250,-261 250,-227 110,-227"/>
<text text-anchor="start" x="118" y="-248" font-family="Helvetica,sans-Serif" font-size="10.00">std::unordered_map</text>
<text text-anchor="middle" x="180" y="-235" font-family="Helvetica,sans-Serif" font-size="10.00">&lt; std::string, CounterType &gt;</text>
</a>
</g>
<!-- Node7&#45;&gt;Node6 -->
<g id="edge12" class="edge"><title>Node7&#45;&gt;Node6</title>
<path fill="none" stroke="midnightblue" d="M260.591,-243.705C294.345,-243.581 333.613,-243.437 367.84,-243.312"/>
<polygon fill="midnightblue" stroke="midnightblue" points="260.291,-240.206 250.304,-243.742 260.317,-247.206 260.291,-240.206"/>
</g>
<!-- Node8 -->
<g id="node14" class="node"><title>Node8</title>
<polygon fill="white" stroke="#bfbfbf" points="0.5,-253.5 0.5,-274.5 29.5,-274.5 29.5,-253.5 0.5,-253.5"/>
<text text-anchor="middle" x="15" y="-261.5" font-family="Helvetica,sans-Serif" font-size="10.00">K</text>
</g>
<!-- Node8&#45;&gt;Node7 -->
<g id="edge14" class="edge"><title>Node8&#45;&gt;Node7</title>
<path fill="none" stroke="#9a32cd" stroke-dasharray="5,2" d="M39.6332,-261.014C58.2831,-258.754 84.8806,-255.53 109.917,-252.495"/>
<polygon fill="#9a32cd" stroke="#9a32cd" points="39.1488,-257.547 29.6426,-262.225 39.9912,-264.496 39.1488,-257.547"/>
<text text-anchor="middle" x="70" y="-264" font-family="Helvetica,sans-Serif" font-size="10.00"> keys</text>
</g>
<!-- Node9 -->
<g id="node16" class="node"><title>Node9</title>
<polygon fill="white" stroke="#bfbfbf" points="0.5,-213.5 0.5,-234.5 29.5,-234.5 29.5,-213.5 0.5,-213.5"/>
<text text-anchor="middle" x="15" y="-221.5" font-family="Helvetica,sans-Serif" font-size="10.00">T</text>
</g>
<!-- Node9&#45;&gt;Node7 -->
<g id="edge16" class="edge"><title>Node9&#45;&gt;Node7</title>
<path fill="none" stroke="#9a32cd" stroke-dasharray="5,2" d="M39.6332,-226.986C58.2831,-229.246 84.8806,-232.47 109.917,-235.505"/>
<polygon fill="#9a32cd" stroke="#9a32cd" points="39.9912,-223.504 29.6426,-225.775 39.1488,-230.453 39.9912,-223.504"/>
<text text-anchor="middle" x="70" y="-237" font-family="Helvetica,sans-Serif" font-size="10.00"> elements</text>
</g>
<!-- Node10 -->
<g id="node18" class="node"><title>Node10</title>
<a xlink:href="classio_1_1NetCdfReader.xhtml" target="_top" xlink:title="io::NetCdfReader">
<polygon fill="white" stroke="black" points="693.5,-169.5 693.5,-190.5 786.5,-190.5 786.5,-169.5 693.5,-169.5"/>
<text text-anchor="middle" x="740" y="-177.5" font-family="Helvetica,sans-Serif" font-size="10.00">io::NetCdfReader</text>
</a>
</g>
<!-- Node10&#45;&gt;Node4 -->
<g id="edge18" class="edge"><title>Node10&#45;&gt;Node4</title>
<path fill="none" stroke="#9a32cd" stroke-dasharray="5,2" d="M796.862,-180C830.611,-180 872.76,-180 903.967,-180"/>
<polygon fill="#9a32cd" stroke="#9a32cd" points="796.679,-176.5 786.679,-180 796.679,-183.5 796.679,-176.5"/>
<text text-anchor="middle" x="851" y="-184" font-family="Helvetica,sans-Serif" font-size="10.00"> m_inputFile</text>
</g>
<!-- Node11 -->
<g id="node20" class="node"><title>Node11</title>
<a xlink:href="classthreads_1_1PthreadMutex.xhtml" target="_top" xlink:title="threads::PthreadMutex">
<polygon fill="white" stroke="black" points="395,-111.5 395,-132.5 511,-132.5 511,-111.5 395,-111.5"/>
<text text-anchor="middle" x="453" y="-119.5" font-family="Helvetica,sans-Serif" font-size="10.00">threads::PthreadMutex</text>
</a>
</g>
<!-- Node11&#45;&gt;Node10 -->
<g id="edge20" class="edge"><title>Node11&#45;&gt;Node10</title>
<path fill="none" stroke="#9a32cd" stroke-dasharray="5,2" d="M515.023,-134.534C568.527,-145.347 644.631,-160.727 693.165,-170.535"/>
<polygon fill="#9a32cd" stroke="#9a32cd" points="515.469,-131.054 504.974,-132.503 514.082,-137.915 515.469,-131.054"/>
<text text-anchor="middle" x="610" y="-169" font-family="Helvetica,sans-Serif" font-size="10.00"> netcdfLock</text>
</g>
<!-- Node14 -->
<g id="node26" class="node"><title>Node14</title>
<a xlink:href="classmpi_1_1MPIComm.xhtml" target="_top" xlink:title="mpi::MPIComm">
<polygon fill="white" stroke="black" points="697,-122.5 697,-143.5 783,-143.5 783,-122.5 697,-122.5"/>
<text text-anchor="middle" x="740" y="-130.5" font-family="Helvetica,sans-Serif" font-size="10.00">mpi::MPIComm</text>
</a>
</g>
<!-- Node11&#45;&gt;Node14 -->
<g id="edge28" class="edge"><title>Node11&#45;&gt;Node14</title>
<path fill="none" stroke="#9a32cd" stroke-dasharray="5,2" d="M521.513,-120.144C562.831,-119.567 616.493,-119.775 664,-123 674.622,-123.721 686.027,-124.968 696.689,-126.342"/>
<polygon fill="#9a32cd" stroke="#9a32cd" points="521.229,-116.648 511.285,-120.306 521.34,-123.647 521.229,-116.648"/>
<text text-anchor="middle" x="610" y="-127" font-family="Helvetica,sans-Serif" font-size="10.00"> mpiLock</text>
</g>
<!-- Node20 -->
<g id="node40" class="node"><title>Node20</title>
<a xlink:href="classcache_1_1CacheManager.xhtml" target="_top" xlink:title="Manages a block cache. ">
<polygon fill="white" stroke="black" points="682.5,-75.5 682.5,-96.5 797.5,-96.5 797.5,-75.5 682.5,-75.5"/>
<text text-anchor="middle" x="740" y="-83.5" font-family="Helvetica,sans-Serif" font-size="10.00">cache::CacheManager</text>
</a>
</g>
<!-- Node11&#45;&gt;Node20 -->
<g id="edge44" class="edge"><title>Node11&#45;&gt;Node20</title>
<path fill="none" stroke="#9a32cd" stroke-dasharray="5,2" d="M515.103,-109.608C528.552,-107.187 542.723,-104.834 556,-103 598.107,-97.1833 645.918,-92.8337 682.248,-89.9908"/>
<polygon fill="#9a32cd" stroke="#9a32cd" points="514.19,-106.218 504.987,-111.466 515.454,-113.102 514.19,-106.218"/>
<text text-anchor="middle" x="610" y="-107" font-family="Helvetica,sans-Serif" font-size="10.00"> m_blockMutexes</text>
</g>
<!-- Node12 -->
<g id="node22" class="node"><title>Node12</title>
<a xlink:title="STL class. ">
<polygon fill="white" stroke="#bfbfbf" points="423,-182.5 423,-203.5 483,-203.5 483,-182.5 423,-182.5"/>
<text text-anchor="middle" x="453" y="-190.5" font-family="Helvetica,sans-Serif" font-size="10.00">std::string</text>
</a>
</g>
<!-- Node12&#45;&gt;Node10 -->
<g id="edge22" class="edge"><title>Node12&#45;&gt;Node10</title>
<path fill="none" stroke="#9a32cd" stroke-dasharray="5,2" d="M493.461,-191.167C546.058,-188.785 637.729,-184.632 693.245,-182.118"/>
<polygon fill="#9a32cd" stroke="#9a32cd" points="493.003,-187.684 483.172,-191.633 493.32,-194.677 493.003,-187.684"/>
<text text-anchor="middle" x="610" y="-206" font-family="Helvetica,sans-Serif" font-size="10.00"> m_names</text>
<text text-anchor="middle" x="610" y="-193" font-family="Helvetica,sans-Serif" font-size="10.00">m_filename</text>
</g>
<!-- Node13 -->
<g id="node24" class="node"><title>Node13</title>
<a xlink:title="STL class. ">
<polygon fill="white" stroke="#bfbfbf" points="132.5,-175 132.5,-209 227.5,-209 227.5,-175 132.5,-175"/>
<text text-anchor="start" x="140.5" y="-196" font-family="Helvetica,sans-Serif" font-size="10.00">std::basic_string&lt;</text>
<text text-anchor="middle" x="180" y="-183" font-family="Helvetica,sans-Serif" font-size="10.00"> char &gt;</text>
</a>
</g>
<!-- Node13&#45;&gt;Node12 -->
<g id="edge24" class="edge"><title>Node13&#45;&gt;Node12</title>
<path fill="none" stroke="midnightblue" d="M237.786,-192.212C294.384,-192.419 378.409,-192.727 422.872,-192.89"/>
<polygon fill="midnightblue" stroke="midnightblue" points="237.566,-188.711 227.553,-192.174 237.54,-195.711 237.566,-188.711"/>
</g>
<!-- Node14&#45;&gt;Node4 -->
<g id="edge26" class="edge"><title>Node14&#45;&gt;Node4</title>
<path fill="none" stroke="#9a32cd" stroke-dasharray="5,2" d="M793.188,-143.066C820.945,-148.537 855.407,-155.671 886,-163 891.753,-164.378 897.781,-165.914 903.724,-167.484"/>
<polygon fill="#9a32cd" stroke="#9a32cd" points="793.771,-139.614 783.285,-141.129 792.427,-146.484 793.771,-139.614"/>
<text text-anchor="middle" x="851" y="-167" font-family="Helvetica,sans-Serif" font-size="10.00"> m_mpiComm</text>
</g>
<!-- Node15 -->
<g id="node29" class="node"><title>Node15</title>
<a xlink:href="classnuma_1_1NumaComm.xhtml" target="_top" xlink:title="numa::NumaComm">
<polygon fill="white" stroke="black" points="689,-279.5 689,-300.5 791,-300.5 791,-279.5 689,-279.5"/>
<text text-anchor="middle" x="740" y="-287.5" font-family="Helvetica,sans-Serif" font-size="10.00">numa::NumaComm</text>
</a>
</g>
<!-- Node15&#45;&gt;Node4 -->
<g id="edge30" class="edge"><title>Node15&#45;&gt;Node4</title>
<path fill="none" stroke="#9a32cd" stroke-dasharray="5,2" d="M787.616,-276.423C817.134,-266.891 855.169,-252.54 886,-234 903.004,-223.775 919.821,-208.734 931.641,-197.121"/>
<polygon fill="#9a32cd" stroke="#9a32cd" points="786.439,-273.124 777.955,-279.469 788.544,-279.8 786.439,-273.124"/>
<text text-anchor="middle" x="851" y="-271" font-family="Helvetica,sans-Serif" font-size="10.00"> m_numaComm</text>
</g>
<!-- Node16 -->
<g id="node31" class="node"><title>Node16</title>
<a xlink:href="classthreads_1_1Sync.xhtml" target="_top" xlink:title="Synchronizes a set of threads. ">
<polygon fill="white" stroke="black" points="141.5,-296.5 141.5,-317.5 218.5,-317.5 218.5,-296.5 141.5,-296.5"/>
<text text-anchor="middle" x="180" y="-304.5" font-family="Helvetica,sans-Serif" font-size="10.00">threads::Sync</text>
</a>
</g>
<!-- Node16&#45;&gt;Node15 -->
<g id="edge32" class="edge"><title>Node16&#45;&gt;Node15</title>
<path fill="none" stroke="#9a32cd" stroke-dasharray="5,2" d="M228.97,-305.513C334.262,-302.317 581.331,-294.817 688.689,-291.558"/>
<polygon fill="#9a32cd" stroke="#9a32cd" points="228.823,-302.016 218.934,-305.818 229.035,-309.013 228.823,-302.016"/>
<text text-anchor="middle" x="453" y="-305" font-family="Helvetica,sans-Serif" font-size="10.00"> m_sync</text>
</g>
<!-- Node17 -->
<g id="node33" class="node"><title>Node17</title>
<a xlink:href="classnuma_1_1Numa.xhtml" target="_top" xlink:title="numa::Numa">
<polygon fill="white" stroke="black" points="416.5,-349.5 416.5,-370.5 489.5,-370.5 489.5,-349.5 416.5,-349.5"/>
<text text-anchor="middle" x="453" y="-357.5" font-family="Helvetica,sans-Serif" font-size="10.00">numa::Numa</text>
</a>
</g>
<!-- Node16&#45;&gt;Node17 -->
<g id="edge36" class="edge"><title>Node16&#45;&gt;Node17</title>
<path fill="none" stroke="#9a32cd" stroke-dasharray="5,2" d="M228.825,-313.568C262.918,-318.444 309.41,-325.671 350,-334 372.222,-338.56 396.867,-344.74 416.478,-349.931"/>
<polygon fill="#9a32cd" stroke="#9a32cd" points="229.054,-310.066 218.663,-312.132 228.075,-316.997 229.054,-310.066"/>
<text text-anchor="middle" x="309" y="-351" font-family="Helvetica,sans-Serif" font-size="10.00"> m_syncDomains</text>
<text text-anchor="middle" x="309" y="-338" font-family="Helvetica,sans-Serif" font-size="10.00">m_syncThreads</text>
</g>
<!-- Node17&#45;&gt;Node15 -->
<g id="edge34" class="edge"><title>Node17&#45;&gt;Node15</title>
<path fill="none" stroke="#9a32cd" stroke-dasharray="5,2" d="M499.38,-348.688C553.824,-335.409 643.411,-313.558 696.553,-300.597"/>
<polygon fill="#9a32cd" stroke="#9a32cd" points="498.526,-345.293 489.64,-351.063 500.185,-352.094 498.526,-345.293"/>
<text text-anchor="middle" x="610" y="-337" font-family="Helvetica,sans-Serif" font-size="10.00"> m_numa</text>
</g>
<!-- Node18 -->
<g id="node36" class="node"><title>Node18</title>
<polygon fill="white" stroke="#bfbfbf" points="130.5,-407.5 130.5,-428.5 229.5,-428.5 229.5,-407.5 130.5,-407.5"/>
<text text-anchor="middle" x="180" y="-415.5" font-family="Helvetica,sans-Serif" font-size="10.00">std::vector&lt; bool &gt;</text>
</g>
<!-- Node18&#45;&gt;Node17 -->
<g id="edge38" class="edge"><title>Node18&#45;&gt;Node17</title>
<path fill="none" stroke="#9a32cd" stroke-dasharray="5,2" d="M239.452,-407.159C272.151,-401.02 313.398,-392.99 350,-385 372.113,-380.173 396.754,-374.213 416.389,-369.323"/>
<polygon fill="#9a32cd" stroke="#9a32cd" points="238.78,-403.724 229.593,-409.001 240.066,-410.604 238.78,-403.724"/>
<text text-anchor="middle" x="309" y="-405" font-family="Helvetica,sans-Serif" font-size="10.00"> m_masterThreads</text>
</g>
<!-- Node19 -->
<g id="node38" class="node"><title>Node19</title>
<polygon fill="white" stroke="#bfbfbf" points="120.5,-355 120.5,-389 239.5,-389 239.5,-355 120.5,-355"/>
<text text-anchor="start" x="128.5" y="-376" font-family="Helvetica,sans-Serif" font-size="10.00">std::map&lt; int, unsigned</text>
<text text-anchor="middle" x="180" y="-363" font-family="Helvetica,sans-Serif" font-size="10.00"> int &gt;</text>
</g>
<!-- Node19&#45;&gt;Node17 -->
<g id="edge40" class="edge"><title>Node19&#45;&gt;Node17</title>
<path fill="none" stroke="#9a32cd" stroke-dasharray="5,2" d="M249.596,-368.941C302.653,-366.609 373.626,-363.489 416.18,-361.618"/>
<polygon fill="#9a32cd" stroke="#9a32cd" points="249.41,-365.446 239.574,-369.381 249.718,-372.439 249.41,-365.446"/>
<text text-anchor="middle" x="309" y="-372" font-family="Helvetica,sans-Serif" font-size="10.00"> m_domains</text>
</g>
<!-- Node20&#45;&gt;Node1 -->
<g id="edge42" class="edge"><title>Node20&#45;&gt;Node1</title>
<path fill="none" stroke="#9a32cd" stroke-dasharray="5,2" d="M807.869,-89.9286C848.505,-91.9521 901.193,-94 948,-94 948,-94 948,-94 1216,-94 1244.33,-94 1275.45,-97.2036 1301.97,-100.908"/>
<polygon fill="#9a32cd" stroke="#9a32cd" points="807.973,-86.4295 797.808,-89.4159 807.617,-93.4204 807.973,-86.4295"/>
<text text-anchor="middle" x="1080" y="-98" font-family="Helvetica,sans-Serif" font-size="10.00"> m_cacheManager</text>
</g>
<!-- Node21 -->
<g id="node43" class="node"><title>Node21</title>
<a xlink:href="classcache_1_1CacheList.xhtml" target="_top" xlink:title="Controls a list of blocks. ">
<polygon fill="white" stroke="black" points="406.5,-39.5 406.5,-60.5 499.5,-60.5 499.5,-39.5 406.5,-39.5"/>
<text text-anchor="middle" x="453" y="-47.5" font-family="Helvetica,sans-Serif" font-size="10.00">cache::CacheList</text>
</a>
</g>
<!-- Node21&#45;&gt;Node20 -->
<g id="edge46" class="edge"><title>Node21&#45;&gt;Node20</title>
<path fill="none" stroke="#9a32cd" stroke-dasharray="5,2" d="M509.71,-56.3174C552.216,-61.1501 611.799,-68.131 664,-75 669.948,-75.7827 676.153,-76.6301 682.342,-77.4953"/>
<polygon fill="#9a32cd" stroke="#9a32cd" points="509.888,-52.8153 499.558,-55.1671 509.1,-59.7708 509.888,-52.8153"/>
<text text-anchor="middle" x="610" y="-79" font-family="Helvetica,sans-Serif" font-size="10.00"> m_cacheList</text>
</g>
<!-- Node22 -->
<g id="node45" class="node"><title>Node22</title>
<a xlink:href="classcache_1_1LRU.xhtml" target="_top" xlink:title="cache::LRU">
<polygon fill="white" stroke="black" points="145.5,-66.5 145.5,-87.5 214.5,-87.5 214.5,-66.5 145.5,-66.5"/>
<text text-anchor="middle" x="180" y="-74.5" font-family="Helvetica,sans-Serif" font-size="10.00">cache::LRU</text>
</a>
</g>
<!-- Node22&#45;&gt;Node21 -->
<g id="edge48" class="edge"><title>Node22&#45;&gt;Node21</title>
<path fill="none" stroke="#9a32cd" stroke-dasharray="5,2" d="M224.774,-72.5718C274.851,-67.6192 355.582,-59.6348 406.392,-54.6096"/>
<polygon fill="#9a32cd" stroke="#9a32cd" points="224.183,-69.1131 214.576,-73.5804 224.872,-76.0791 224.183,-69.1131"/>
<text text-anchor="middle" x="309" y="-73" font-family="Helvetica,sans-Serif" font-size="10.00"> m_lru</text>
</g>
<!-- Node23 -->
<g id="node47" class="node"><title>Node23</title>
<polygon fill="white" stroke="#bfbfbf" points="114.5,-0.5 114.5,-47.5 245.5,-47.5 245.5,-0.5 114.5,-0.5"/>
<text text-anchor="start" x="122.5" y="-34.5" font-family="Helvetica,sans-Serif" font-size="10.00">std::unordered_map</text>
<text text-anchor="start" x="122.5" y="-21.5" font-family="Helvetica,sans-Serif" font-size="10.00">&lt; unsigned long, unsigned</text>
<text text-anchor="middle" x="180" y="-8.5" font-family="Helvetica,sans-Serif" font-size="10.00"> long &gt;</text>
</g>
<!-- Node23&#45;&gt;Node21 -->
<g id="edge50" class="edge"><title>Node23&#45;&gt;Node21</title>
<path fill="none" stroke="#9a32cd" stroke-dasharray="5,2" d="M255.823,-31.2212C304.042,-35.8135 364.944,-41.6137 406.211,-45.544"/>
<polygon fill="#9a32cd" stroke="#9a32cd" points="256.025,-27.7247 245.738,-30.2607 255.361,-34.6931 256.025,-27.7247"/>
<text text-anchor="middle" x="309" y="-45" font-family="Helvetica,sans-Serif" font-size="10.00"> m_blockToIndex</text>
</g>
</g>
</svg>
