<?xml version="1.0" encoding="UTF-8" standalone="no"?>
<!DOCTYPE svg PUBLIC "-//W3C//DTD SVG 1.1//EN"
 "http://www.w3.org/Graphics/SVG/1.1/DTD/svg11.dtd">
<!-- Generated by graphviz version 2.26.3 (20100126.1600)
 -->
<!-- Title: G Pages: 1 -->
<svg width="228pt" height="146pt"
 viewBox="0.00 0.00 228.00 146.00" xmlns="http://www.w3.org/2000/svg" xmlns:xlink="http://www.w3.org/1999/xlink">
<g id="graph1" class="graph" transform="scale(1 1) rotate(0) translate(4 142)">
<title>G</title>
<polygon fill="white" stroke="white" points="-4,5 -4,-142 225,-142 225,5 -4,5"/>
<!-- Node1 -->
<g id="node1" class="node"><title>Node1</title>
<polygon fill="#bfbfbf" stroke="black" points="56,-58.5 56,-79.5 164,-79.5 164,-58.5 56,-58.5"/>
<text text-anchor="middle" x="110" y="-66.5" font-family="Helvetica,sans-Serif" font-size="10.00">grid::LocalCacheGrid</text>
</g>
<!-- Node3 -->
<g id="node5" class="node"><title>Node3</title>
<a xlink:href="classgrid_1_1DistCacheGrid.xhtml" target="_top" xlink:title="grid::DistCacheGrid">
<polygon fill="white" stroke="black" points="-0.5,-0.5 -0.5,-21.5 102.5,-21.5 102.5,-0.5 -0.5,-0.5"/>
<text text-anchor="middle" x="51" y="-8.5" font-family="Helvetica,sans-Serif" font-size="10.00">grid::DistCacheGrid</text>
</a>
</g>
<!-- Node1&#45;&gt;Node3 -->
<g id="edge4" class="edge"><title>Node1&#45;&gt;Node3</title>
<path fill="none" stroke="midnightblue" d="M91.8097,-51.118C81.9625,-41.4377 70.1341,-29.8098 61.7529,-21.5707"/>
<polygon fill="midnightblue" stroke="midnightblue" points="89.5936,-53.8474 99.1785,-58.3619 94.5009,-48.8556 89.5936,-53.8474"/>
</g>
<!-- Node4 -->
<g id="node7" class="node"><title>Node4</title>
<a xlink:href="classgrid_1_1DistStaticGrid.xhtml" target="_top" xlink:title="grid::DistStaticGrid">
<polygon fill="white" stroke="black" points="120,-0.5 120,-21.5 220,-21.5 220,-0.5 120,-0.5"/>
<text text-anchor="middle" x="170" y="-8.5" font-family="Helvetica,sans-Serif" font-size="10.00">grid::DistStaticGrid</text>
</a>
</g>
<!-- Node1&#45;&gt;Node4 -->
<g id="edge6" class="edge"><title>Node1&#45;&gt;Node4</title>
<path fill="none" stroke="midnightblue" d="M128.202,-51.405C138.274,-41.6683 150.457,-29.8914 159.065,-21.5707"/>
<polygon fill="midnightblue" stroke="midnightblue" points="125.762,-48.8952 121.005,-58.3619 130.627,-53.9281 125.762,-48.8952"/>
</g>
<!-- Node2 -->
<g id="node2" class="node"><title>Node2</title>
<a xlink:href="classgrid_1_1Grid.xhtml" target="_top" xlink:title="Base class for a grid.">
<polygon fill="white" stroke="black" points="82,-116.5 82,-137.5 138,-137.5 138,-116.5 82,-116.5"/>
<text text-anchor="middle" x="110" y="-124.5" font-family="Helvetica,sans-Serif" font-size="10.00">grid::Grid</text>
</a>
</g>
<!-- Node2&#45;&gt;Node1 -->
<g id="edge2" class="edge"><title>Node2&#45;&gt;Node1</title>
<path fill="none" stroke="midnightblue" d="M110,-106.191C110,-97.1684 110,-86.9941 110,-79.5707"/>
<polygon fill="midnightblue" stroke="midnightblue" points="106.5,-106.362 110,-116.362 113.5,-106.362 106.5,-106.362"/>
</g>
</g>
</svg>
