<?xml version="1.0" encoding="UTF-8" standalone="no"?>
<!DOCTYPE svg PUBLIC "-//W3C//DTD SVG 1.1//EN"
 "http://www.w3.org/Graphics/SVG/1.1/DTD/svg11.dtd">
<!-- Generated by graphviz version 2.26.3 (20100126.1600)
 -->
<!-- Title: G Pages: 1 -->
<svg width="349pt" height="234pt"
 viewBox="0.00 0.00 349.00 234.00" xmlns="http://www.w3.org/2000/svg" xmlns:xlink="http://www.w3.org/1999/xlink">
<g id="graph1" class="graph" transform="scale(1 1) rotate(0) translate(4 230)">
<title>G</title>
<polygon fill="white" stroke="white" points="-4,5 -4,-230 346,-230 346,5 -4,5"/>
<!-- Node1 -->
<g id="node1" class="node"><title>Node1</title>
<polygon fill="#bfbfbf" stroke="black" points="108.5,-0.5 108.5,-21.5 201.5,-21.5 201.5,-0.5 108.5,-0.5"/>
<text text-anchor="middle" x="155" y="-8.5" font-family="Helvetica,sans-Serif" font-size="10.00">io::NetCdfReader</text>
</g>
<!-- Node2 -->
<g id="node2" class="node"><title>Node2</title>
<a xlink:title="STL class.">
<polygon fill="white" stroke="#bfbfbf" points="32,-144.5 32,-165.5 92,-165.5 92,-144.5 32,-144.5"/>
<text text-anchor="middle" x="62" y="-152.5" font-family="Helvetica,sans-Serif" font-size="10.00">std::string</text>
</a>
</g>
<!-- Node2&#45;&gt;Node1 -->
<g id="edge2" class="edge"><title>Node2&#45;&gt;Node1</title>
<path fill="none" stroke="#9a32cd" stroke-dasharray="5,2" d="M45.6493,-136.677C32.1504,-119.212 17.1318,-92.5983 30,-72 47.08,-44.6596 80.3394,-29.2457 108.259,-20.7544"/>
<polygon fill="#9a32cd" stroke="#9a32cd" points="42.9767,-138.937 52.0251,-144.449 48.3887,-134.498 42.9767,-138.937"/>
<text text-anchor="middle" x="57" y="-80.5" font-family="Helvetica,sans-Serif" font-size="10.00"> m_filename</text>
</g>
<!-- Node5 -->
<g id="node8" class="node"><title>Node5</title>
<polygon fill="white" stroke="#bfbfbf" points="92.5,-72.5 92.5,-93.5 217.5,-93.5 217.5,-72.5 92.5,-72.5"/>
<text text-anchor="middle" x="155" y="-80.5" font-family="Helvetica,sans-Serif" font-size="10.00">std::vector&lt; std::string &gt;</text>
</g>
<!-- Node2&#45;&gt;Node5 -->
<g id="edge10" class="edge"><title>Node2&#45;&gt;Node5</title>
<path fill="none" stroke="#9a32cd" stroke-dasharray="5,2" d="M83.8244,-138.104C101.578,-124.359 126.087,-105.384 141.221,-93.6674"/>
<polygon fill="#9a32cd" stroke="#9a32cd" points="81.4871,-135.487 75.7225,-144.376 85.7723,-141.022 81.4871,-135.487"/>
<text text-anchor="middle" x="138.5" y="-116.5" font-family="Helvetica,sans-Serif" font-size="10.00"> elements</text>
</g>
<!-- Node3 -->
<g id="node4" class="node"><title>Node3</title>
<a xlink:title="STL class.">
<polygon fill="white" stroke="#bfbfbf" points="-0.5,-204.5 -0.5,-225.5 124.5,-225.5 124.5,-204.5 -0.5,-204.5"/>
<text text-anchor="middle" x="62" y="-212.5" font-family="Helvetica,sans-Serif" font-size="10.00">std::basic_string&lt; char &gt;</text>
</a>
</g>
<!-- Node3&#45;&gt;Node2 -->
<g id="edge4" class="edge"><title>Node3&#45;&gt;Node2</title>
<path fill="none" stroke="midnightblue" d="M62,-194.231C62,-184.592 62,-173.544 62,-165.634"/>
<polygon fill="midnightblue" stroke="midnightblue" points="58.5001,-194.273 62,-204.273 65.5001,-194.273 58.5001,-194.273"/>
</g>
<!-- Node4 -->
<g id="node6" class="node"><title>Node4</title>
<polygon fill="white" stroke="#bfbfbf" points="234.5,-72.5 234.5,-93.5 341.5,-93.5 341.5,-72.5 234.5,-72.5"/>
<text text-anchor="middle" x="288" y="-80.5" font-family="Helvetica,sans-Serif" font-size="10.00">std::vector&lt; size_t &gt;</text>
</g>
<!-- Node4&#45;&gt;Node1 -->
<g id="edge6" class="edge"><title>Node4&#45;&gt;Node1</title>
<path fill="none" stroke="#9a32cd" stroke-dasharray="5,2" d="M259.519,-67.5817C233.966,-53.7486 197.135,-33.81 174.705,-21.6674"/>
<polygon fill="#9a32cd" stroke="#9a32cd" points="257.915,-70.6933 268.375,-72.3762 261.248,-64.5375 257.915,-70.6933"/>
<text text-anchor="middle" x="250.5" y="-44.5" font-family="Helvetica,sans-Serif" font-size="10.00"> m_size</text>
</g>
<!-- Node5&#45;&gt;Node1 -->
<g id="edge8" class="edge"><title>Node5&#45;&gt;Node1</title>
<path fill="none" stroke="#9a32cd" stroke-dasharray="5,2" d="M155,-62.2348C155,-48.969 155,-32.3188 155,-21.6674"/>
<polygon fill="#9a32cd" stroke="#9a32cd" points="151.5,-62.3761 155,-72.3762 158.5,-62.3762 151.5,-62.3761"/>
<text text-anchor="middle" x="178" y="-44.5" font-family="Helvetica,sans-Serif" font-size="10.00"> m_names</text>
</g>
</g>
</svg>
