<?xml version="1.0" encoding="UTF-8" standalone="no"?>
<!DOCTYPE svg PUBLIC "-//W3C//DTD SVG 1.1//EN"
 "http://www.w3.org/Graphics/SVG/1.1/DTD/svg11.dtd">
<!-- Generated by graphviz version 2.26.3 (20100126.1600)
 -->
<!-- Title: transfer::MPIThreadCache::BlockTransferer Pages: 1 -->
<svg width="1128pt" height="428pt"
 viewBox="0.00 0.00 1128.00 428.00" xmlns="http://www.w3.org/2000/svg" xmlns:xlink="http://www.w3.org/1999/xlink">
<g id="graph1" class="graph" transform="scale(1 1) rotate(0) translate(4 424)">
<title>transfer::MPIThreadCache::BlockTransferer</title>
<polygon fill="white" stroke="white" points="-4,5 -4,-424 1125,-424 1125,5 -4,5"/>
<!-- Node1 -->
<g id="node1" class="node"><title>Node1</title>
<polygon fill="#bfbfbf" stroke="black" points="462,-270 462,-304 594,-304 594,-270 462,-270"/>
<text text-anchor="start" x="470" y="-291" font-family="Helvetica,sans-Serif" font-size="10.00">transfer::MPIThreadCache</text>
<text text-anchor="middle" x="528" y="-278" font-family="Helvetica,sans-Serif" font-size="10.00">::BlockTransferer</text>
</g>
<!-- Node3 -->
<g id="node4" class="node"><title>Node3</title>
<a xlink:href="classtransfer_1_1MPIThreadCache.xhtml" target="_top" xlink:title="transfer::MPIThreadCache">
<polygon fill="white" stroke="black" points="716,-240.5 716,-261.5 848,-261.5 848,-240.5 716,-240.5"/>
<text text-anchor="middle" x="782" y="-248.5" font-family="Helvetica,sans-Serif" font-size="10.00">transfer::MPIThreadCache</text>
</a>
</g>
<!-- Node1&#45;&gt;Node3 -->
<g id="edge30" class="edge"><title>Node1&#45;&gt;Node3</title>
<path fill="none" stroke="#9a32cd" stroke-dasharray="5,2" d="M604.444,-277.709C633.738,-273.991 667.452,-269.521 698,-265 705.313,-263.918 712.973,-262.724 720.567,-261.504"/>
<polygon fill="#9a32cd" stroke="#9a32cd" points="603.762,-274.268 594.278,-278.992 604.638,-281.212 603.762,-274.268"/>
<text text-anchor="middle" x="655" y="-280" font-family="Helvetica,sans-Serif" font-size="10.00"> m_blockTransferer</text>
</g>
<!-- Node2 -->
<g id="node2" class="node"><title>Node2</title>
<a xlink:href="classmpi_1_1Receiver.xhtml" target="_top" xlink:title="mpi::Receiver">
<polygon fill="white" stroke="black" points="252.5,-300.5 252.5,-321.5 329.5,-321.5 329.5,-300.5 252.5,-300.5"/>
<text text-anchor="middle" x="291" y="-308.5" font-family="Helvetica,sans-Serif" font-size="10.00">mpi::Receiver</text>
</a>
</g>
<!-- Node2&#45;&gt;Node1 -->
<g id="edge2" class="edge"><title>Node2&#45;&gt;Node1</title>
<path fill="none" stroke="midnightblue" d="M339.638,-306.075C374.853,-302.509 422.869,-297.646 461.608,-293.723"/>
<polygon fill="midnightblue" stroke="midnightblue" points="339.202,-302.601 329.606,-307.091 339.907,-309.565 339.202,-302.601"/>
</g>
<!-- Node11 -->
<g id="node22" class="node"><title>Node11</title>
<a xlink:href="classtransfer_1_1MPIThreadCache_1_1Adder.xhtml" target="_top" xlink:title="transfer::MPIThreadCache\l::Adder">
<polygon fill="white" stroke="black" points="988,-289 988,-323 1120,-323 1120,-289 988,-289"/>
<text text-anchor="start" x="996" y="-310" font-family="Helvetica,sans-Serif" font-size="10.00">transfer::MPIThreadCache</text>
<text text-anchor="middle" x="1054" y="-297" font-family="Helvetica,sans-Serif" font-size="10.00">::Adder</text>
</a>
</g>
<!-- Node2&#45;&gt;Node11 -->
<g id="edge26" class="edge"><title>Node2&#45;&gt;Node11</title>
<path fill="none" stroke="midnightblue" d="M340.076,-313.476C345.449,-313.684 350.839,-313.866 356,-314 582.594,-319.893 639.33,-316.333 866,-317 912.222,-317.136 923.876,-320.007 970,-317 975.724,-316.627 981.653,-316.112 987.593,-315.507"/>
<polygon fill="midnightblue" stroke="midnightblue" points="339.967,-309.968 329.83,-313.048 339.676,-316.962 339.967,-309.968"/>
</g>
<!-- Node12 -->
<g id="node27" class="node"><title>Node12</title>
<a xlink:href="classtransfer_1_1MPIThreadCache_1_1BlockInfoResponder.xhtml" target="_top" xlink:title="transfer::MPIThreadCache\l::BlockInfoResponder">
<polygon fill="white" stroke="black" points="988,-181 988,-215 1120,-215 1120,-181 988,-181"/>
<text text-anchor="start" x="996" y="-202" font-family="Helvetica,sans-Serif" font-size="10.00">transfer::MPIThreadCache</text>
<text text-anchor="middle" x="1054" y="-189" font-family="Helvetica,sans-Serif" font-size="10.00">::BlockInfoResponder</text>
</a>
</g>
<!-- Node2&#45;&gt;Node12 -->
<g id="edge34" class="edge"><title>Node2&#45;&gt;Node12</title>
<path fill="none" stroke="midnightblue" d="M333.25,-297.415C367.673,-286.645 417.663,-271.681 462,-261 639.704,-218.19 684.022,-201.187 866,-184 912.017,-179.654 923.935,-180.188 970,-184 975.746,-184.476 981.691,-185.131 987.641,-185.901"/>
<polygon fill="midnightblue" stroke="midnightblue" points="332.019,-294.133 323.531,-300.473 334.121,-300.81 332.019,-294.133"/>
</g>
<!-- Node13 -->
<g id="node31" class="node"><title>Node13</title>
<a xlink:href="classtransfer_1_1MPIThreadCache_1_1Deleter.xhtml" target="_top" xlink:title="transfer::MPIThreadCache\l::Deleter">
<polygon fill="white" stroke="black" points="988,-386 988,-420 1120,-420 1120,-386 988,-386"/>
<text text-anchor="start" x="996" y="-407" font-family="Helvetica,sans-Serif" font-size="10.00">transfer::MPIThreadCache</text>
<text text-anchor="middle" x="1054" y="-394" font-family="Helvetica,sans-Serif" font-size="10.00">::Deleter</text>
</a>
</g>
<!-- Node2&#45;&gt;Node13 -->
<g id="edge40" class="edge"><title>Node2&#45;&gt;Node13</title>
<path fill="none" stroke="midnightblue" d="M339.12,-324.073C344.793,-325.469 350.514,-326.812 356,-328 580.802,-376.7 636.823,-396.373 866,-416 912.054,-419.944 923.914,-419.545 970,-416 975.738,-415.559 981.678,-414.95 987.624,-414.235"/>
<polygon fill="midnightblue" stroke="midnightblue" points="339.574,-320.577 329.021,-321.522 337.86,-327.364 339.574,-320.577"/>
</g>
<!-- Node3&#45;&gt;Node1 -->
<g id="edge4" class="edge"><title>Node3&#45;&gt;Node1</title>
<path fill="none" stroke="#9a32cd" stroke-dasharray="5,2" d="M705.369,-245.182C675.916,-244.576 642.143,-245.879 612,-252 594.35,-255.584 575.762,-262.917 560.571,-269.949"/>
<polygon fill="#9a32cd" stroke="#9a32cd" points="705.498,-248.687 715.593,-245.472 705.696,-241.69 705.498,-248.687"/>
<text text-anchor="middle" x="655" y="-256" font-family="Helvetica,sans-Serif" font-size="10.00"> m_parent</text>
</g>
<!-- Node3&#45;&gt;Node11 -->
<g id="edge28" class="edge"><title>Node3&#45;&gt;Node11</title>
<path fill="none" stroke="#9a32cd" stroke-dasharray="5,2" d="M858.258,-251.464C892.849,-253.203 933.983,-257.427 970,-267 988.647,-271.956 1008.27,-280.835 1023.86,-288.871"/>
<polygon fill="#9a32cd" stroke="#9a32cd" points="858.363,-247.965 848.217,-251.019 858.053,-254.958 858.363,-247.965"/>
<text text-anchor="middle" x="918" y="-271" font-family="Helvetica,sans-Serif" font-size="10.00"> m_parent</text>
</g>
<!-- Node3&#45;&gt;Node12 -->
<g id="edge36" class="edge"><title>Node3&#45;&gt;Node12</title>
<path fill="none" stroke="#9a32cd" stroke-dasharray="5,2" d="M846.039,-238.522C888.63,-230.223 944.446,-219.347 987.529,-210.952"/>
<polygon fill="#9a32cd" stroke="#9a32cd" points="845.21,-235.118 836.064,-240.466 846.548,-241.988 845.21,-235.118"/>
<text text-anchor="middle" x="918" y="-237" font-family="Helvetica,sans-Serif" font-size="10.00"> m_parent</text>
</g>
<!-- Node3&#45;&gt;Node13 -->
<g id="edge42" class="edge"><title>Node3&#45;&gt;Node13</title>
<path fill="none" stroke="#9a32cd" stroke-dasharray="5,2" d="M788.81,-271.417C799.872,-301.075 824.757,-355.325 866,-381 885.877,-393.374 941.877,-398.789 987.626,-401.158"/>
<polygon fill="#9a32cd" stroke="#9a32cd" points="792.004,-269.952 785.356,-261.702 785.408,-272.297 792.004,-269.952"/>
<text text-anchor="middle" x="918" y="-403" font-family="Helvetica,sans-Serif" font-size="10.00"> m_parent</text>
</g>
<!-- Node4 -->
<g id="node6" class="node"><title>Node4</title>
<a xlink:href="classtransfer_1_1MPICache.xhtml" target="_top" xlink:title="transfer::MPICache\l\&lt; allocator::Default,\l false \&gt;">
<polygon fill="white" stroke="black" points="476.5,-103.5 476.5,-150.5 579.5,-150.5 579.5,-103.5 476.5,-103.5"/>
<text text-anchor="start" x="484.5" y="-137.5" font-family="Helvetica,sans-Serif" font-size="10.00">transfer::MPICache</text>
<text text-anchor="start" x="484.5" y="-124.5" font-family="Helvetica,sans-Serif" font-size="10.00">&lt; allocator::Default,</text>
<text text-anchor="middle" x="528" y="-111.5" font-family="Helvetica,sans-Serif" font-size="10.00"> false &gt;</text>
</a>
</g>
<!-- Node4&#45;&gt;Node3 -->
<g id="edge6" class="edge"><title>Node4&#45;&gt;Node3</title>
<path fill="none" stroke="#8b1a1a" d="M589.181,-153.81C621.757,-168.401 662.348,-187.087 698,-205 720.88,-216.496 746.63,-230.807 763.518,-240.386"/>
<polygon fill="#8b1a1a" stroke="#8b1a1a" points="590.339,-150.494 579.781,-149.614 587.486,-156.886 590.339,-150.494"/>
</g>
<!-- Node5 -->
<g id="node8" class="node"><title>Node5</title>
<a xlink:href="classmpi_1_1MPIComm.xhtml" target="_top" xlink:title="mpi::MPIComm">
<polygon fill="white" stroke="black" points="248,-132.5 248,-153.5 334,-153.5 334,-132.5 248,-132.5"/>
<text text-anchor="middle" x="291" y="-140.5" font-family="Helvetica,sans-Serif" font-size="10.00">mpi::MPIComm</text>
</a>
</g>
<!-- Node5&#45;&gt;Node4 -->
<g id="edge8" class="edge"><title>Node5&#45;&gt;Node4</title>
<path fill="none" stroke="#9a32cd" stroke-dasharray="5,2" d="M344.174,-139.41C383.692,-136.742 437.308,-133.123 476.435,-130.481"/>
<polygon fill="#9a32cd" stroke="#9a32cd" points="343.935,-135.918 334.194,-140.084 344.407,-142.902 343.935,-135.918"/>
<text text-anchor="middle" x="400" y="-142" font-family="Helvetica,sans-Serif" font-size="10.00"> m_mpiComm</text>
</g>
<!-- Node6 -->
<g id="node10" class="node"><title>Node6</title>
<a xlink:href="classthreads_1_1PthreadMutex.xhtml" target="_top" xlink:title="threads::PthreadMutex">
<polygon fill="white" stroke="black" points="8,-132.5 8,-153.5 124,-153.5 124,-132.5 8,-132.5"/>
<text text-anchor="middle" x="66" y="-140.5" font-family="Helvetica,sans-Serif" font-size="10.00">threads::PthreadMutex</text>
</a>
</g>
<!-- Node6&#45;&gt;Node3 -->
<g id="edge22" class="edge"><title>Node6&#45;&gt;Node3</title>
<path fill="none" stroke="#9a32cd" stroke-dasharray="5,2" d="M125.562,-155.488C133.759,-157.08 142.078,-158.629 150,-160 355.626,-195.582 600.586,-228.041 715.841,-242.729"/>
<polygon fill="#9a32cd" stroke="#9a32cd" points="126.148,-152.036 115.66,-153.535 124.793,-158.904 126.148,-152.036"/>
<text text-anchor="middle" x="400" y="-222" font-family="Helvetica,sans-Serif" font-size="10.00"> m_sendRecvMutex</text>
<text text-anchor="middle" x="400" y="-209" font-family="Helvetica,sans-Serif" font-size="10.00">m_mutexes</text>
</g>
<!-- Node6&#45;&gt;Node5 -->
<g id="edge10" class="edge"><title>Node6&#45;&gt;Node5</title>
<path fill="none" stroke="#9a32cd" stroke-dasharray="5,2" d="M134.438,-143C171.378,-143 215.846,-143 247.935,-143"/>
<polygon fill="#9a32cd" stroke="#9a32cd" points="134.236,-139.5 124.236,-143 134.236,-146.5 134.236,-139.5"/>
<text text-anchor="middle" x="188" y="-147" font-family="Helvetica,sans-Serif" font-size="10.00"> mpiLock</text>
</g>
<!-- Node7 -->
<g id="node12" class="node"><title>Node7</title>
<a xlink:href="classcache_1_1CacheManager.xhtml" target="_top" xlink:title="Manages a block cache. ">
<polygon fill="white" stroke="black" points="470.5,-63.5 470.5,-84.5 585.5,-84.5 585.5,-63.5 470.5,-63.5"/>
<text text-anchor="middle" x="528" y="-71.5" font-family="Helvetica,sans-Serif" font-size="10.00">cache::CacheManager</text>
</a>
</g>
<!-- Node6&#45;&gt;Node7 -->
<g id="edge14" class="edge"><title>Node6&#45;&gt;Node7</title>
<path fill="none" stroke="#9a32cd" stroke-dasharray="5,2" d="M128.262,-130.554C162.364,-123.965 205.42,-116.016 244,-110 322.202,-97.8047 413.01,-86.8511 470.478,-80.3136"/>
<polygon fill="#9a32cd" stroke="#9a32cd" points="127.587,-127.12 118.438,-132.462 128.922,-133.991 127.587,-127.12"/>
<text text-anchor="middle" x="291" y="-114" font-family="Helvetica,sans-Serif" font-size="10.00"> m_blockMutexes</text>
</g>
<!-- Node7&#45;&gt;Node3 -->
<g id="edge12" class="edge"><title>Node7&#45;&gt;Node3</title>
<path fill="none" stroke="#9a32cd" stroke-dasharray="5,2" d="M577.562,-87.6498C613.707,-99.3825 662.39,-119.04 698,-148 732.55,-176.099 762.749,-220.373 775.52,-240.462"/>
<polygon fill="#9a32cd" stroke="#9a32cd" points="578.311,-84.2162 567.721,-84.5496 576.207,-90.8927 578.311,-84.2162"/>
<text text-anchor="middle" x="655" y="-152" font-family="Helvetica,sans-Serif" font-size="10.00"> m_cacheManager</text>
</g>
<!-- Node8 -->
<g id="node15" class="node"><title>Node8</title>
<a xlink:href="classcache_1_1CacheList.xhtml" target="_top" xlink:title="Controls a list of blocks. ">
<polygon fill="white" stroke="black" points="244.5,-43.5 244.5,-64.5 337.5,-64.5 337.5,-43.5 244.5,-43.5"/>
<text text-anchor="middle" x="291" y="-51.5" font-family="Helvetica,sans-Serif" font-size="10.00">cache::CacheList</text>
</a>
</g>
<!-- Node8&#45;&gt;Node7 -->
<g id="edge16" class="edge"><title>Node8&#45;&gt;Node7</title>
<path fill="none" stroke="#9a32cd" stroke-dasharray="5,2" d="M347.675,-58.7827C384.726,-61.9094 432.977,-65.9811 470.242,-69.1259"/>
<polygon fill="#9a32cd" stroke="#9a32cd" points="347.8,-55.2809 337.541,-57.9275 347.211,-62.2561 347.8,-55.2809"/>
<text text-anchor="middle" x="400" y="-70" font-family="Helvetica,sans-Serif" font-size="10.00"> m_cacheList</text>
</g>
<!-- Node9 -->
<g id="node17" class="node"><title>Node9</title>
<a xlink:href="classcache_1_1LRU.xhtml" target="_top" xlink:title="cache::LRU">
<polygon fill="white" stroke="black" points="31.5,-0.5 31.5,-21.5 100.5,-21.5 100.5,-0.5 31.5,-0.5"/>
<text text-anchor="middle" x="66" y="-8.5" font-family="Helvetica,sans-Serif" font-size="10.00">cache::LRU</text>
</a>
</g>
<!-- Node9&#45;&gt;Node8 -->
<g id="edge18" class="edge"><title>Node9&#45;&gt;Node8</title>
<path fill="none" stroke="#9a32cd" stroke-dasharray="5,2" d="M110.733,-18.1694C142.884,-23.4828 187.22,-31.1381 226,-39 232.697,-40.3577 239.759,-41.8862 246.663,-43.4349"/>
<polygon fill="#9a32cd" stroke="#9a32cd" points="111.18,-14.696 100.745,-16.5293 110.046,-21.6035 111.18,-14.696"/>
<text text-anchor="middle" x="188" y="-43" font-family="Helvetica,sans-Serif" font-size="10.00"> m_lru</text>
</g>
<!-- Node10 -->
<g id="node19" class="node"><title>Node10</title>
<polygon fill="white" stroke="#bfbfbf" points="0.5,-40.5 0.5,-87.5 131.5,-87.5 131.5,-40.5 0.5,-40.5"/>
<text text-anchor="start" x="8.5" y="-74.5" font-family="Helvetica,sans-Serif" font-size="10.00">std::unordered_map</text>
<text text-anchor="start" x="8.5" y="-61.5" font-family="Helvetica,sans-Serif" font-size="10.00">&lt; unsigned long, unsigned</text>
<text text-anchor="middle" x="66" y="-48.5" font-family="Helvetica,sans-Serif" font-size="10.00"> long &gt;</text>
</g>
<!-- Node10&#45;&gt;Node8 -->
<g id="edge20" class="edge"><title>Node10&#45;&gt;Node8</title>
<path fill="none" stroke="#9a32cd" stroke-dasharray="5,2" d="M142.016,-60.6215C175.87,-59.1169 214.667,-57.3926 244.181,-56.0808"/>
<polygon fill="#9a32cd" stroke="#9a32cd" points="141.519,-57.1401 131.684,-61.0807 141.83,-64.1332 141.519,-57.1401"/>
<text text-anchor="middle" x="188" y="-64" font-family="Helvetica,sans-Serif" font-size="10.00"> m_blockToIndex</text>
</g>
<!-- Node11&#45;&gt;Node3 -->
<g id="edge24" class="edge"><title>Node11&#45;&gt;Node3</title>
<path fill="none" stroke="#9a32cd" stroke-dasharray="5,2" d="M977.973,-301.585C943.429,-298.438 902.266,-293.083 866,-284 844.418,-278.594 820.933,-269.032 804.297,-261.588"/>
<polygon fill="#9a32cd" stroke="#9a32cd" points="977.733,-305.077 987.998,-302.453 978.337,-298.103 977.733,-305.077"/>
<text text-anchor="middle" x="918" y="-304" font-family="Helvetica,sans-Serif" font-size="10.00"> m_adder</text>
</g>
<!-- Node12&#45;&gt;Node3 -->
<g id="edge32" class="edge"><title>Node12&#45;&gt;Node3</title>
<path fill="none" stroke="#9a32cd" stroke-dasharray="5,2" d="M977.854,-189.106C943.116,-187.396 901.832,-188.704 866,-199 837.812,-207.1 809.802,-227.58 794.309,-240.288"/>
<polygon fill="#9a32cd" stroke="#9a32cd" points="977.751,-192.606 987.938,-189.695 978.159,-185.618 977.751,-192.606"/>
<text text-anchor="middle" x="918" y="-203" font-family="Helvetica,sans-Serif" font-size="10.00"> m_blockInfoResponder</text>
</g>
<!-- Node13&#45;&gt;Node3 -->
<g id="edge38" class="edge"><title>Node13&#45;&gt;Node3</title>
<path fill="none" stroke="#9a32cd" stroke-dasharray="5,2" d="M1004.43,-381.908C957.414,-361.621 890.441,-331.901 866,-317 838.288,-300.105 809.21,-275.467 793.584,-261.567"/>
<polygon fill="#9a32cd" stroke="#9a32cd" points="1003.27,-385.221 1013.84,-385.959 1006.04,-378.791 1003.27,-385.221"/>
<text text-anchor="middle" x="918" y="-370" font-family="Helvetica,sans-Serif" font-size="10.00"> m_deleter</text>
</g>
</g>
</svg>
