<?xml version="1.0" encoding="UTF-8" standalone="no"?>
<!DOCTYPE svg PUBLIC "-//W3C//DTD SVG 1.1//EN"
 "http://www.w3.org/Graphics/SVG/1.1/DTD/svg11.dtd">
<!-- Generated by graphviz version 2.26.3 (20100126.1600)
 -->
<!-- Title: numa::NumaComm Pages: 1 -->
<svg width="350pt" height="200pt"
 viewBox="0.00 0.00 350.00 200.00" xmlns="http://www.w3.org/2000/svg" xmlns:xlink="http://www.w3.org/1999/xlink">
<g id="graph1" class="graph" transform="scale(1 1) rotate(0) translate(4 196)">
<title>numa::NumaComm</title>
<polygon fill="white" stroke="white" points="-4,5 -4,-196 347,-196 347,5 -4,5"/>
<!-- Node1 -->
<g id="node1" class="node"><title>Node1</title>
<polygon fill="#bfbfbf" stroke="black" points="9,-0.5 9,-21.5 111,-21.5 111,-0.5 9,-0.5"/>
<text text-anchor="middle" x="60" y="-8.5" font-family="Helvetica,sans-Serif" font-size="10.00">numa::NumaComm</text>
</g>
<!-- Node2 -->
<g id="node2" class="node"><title>Node2</title>
<a xlink:href="classthreads_1_1Sync.xhtml" target="_top" xlink:title="Synchronizes a set of threads. ">
<polygon fill="white" stroke="black" points="-0.5,-163.5 -0.5,-184.5 76.5,-184.5 76.5,-163.5 -0.5,-163.5"/>
<text text-anchor="middle" x="38" y="-171.5" font-family="Helvetica,sans-Serif" font-size="10.00">threads::Sync</text>
</a>
</g>
<!-- Node2&#45;&gt;Node1 -->
<g id="edge2" class="edge"><title>Node2&#45;&gt;Node1</title>
<path fill="none" stroke="#9a32cd" stroke-dasharray="5,2" d="M38.7658,-153.085C39.3525,-141.04 40.3507,-125.633 42,-112 46.0217,-78.7577 53.8441,-39.8701 57.7159,-21.5565"/>
<polygon fill="#9a32cd" stroke="#9a32cd" points="35.2537,-153.295 38.3215,-163.435 42.2472,-153.595 35.2537,-153.295"/>
<text text-anchor="middle" x="67" y="-80.5" font-family="Helvetica,sans-Serif" font-size="10.00"> m_sync</text>
</g>
<!-- Node3 -->
<g id="node4" class="node"><title>Node3</title>
<a xlink:href="classnuma_1_1Numa.xhtml" target="_top" xlink:title="numa::Numa">
<polygon fill="white" stroke="black" points="99.5,-72.5 99.5,-93.5 172.5,-93.5 172.5,-72.5 99.5,-72.5"/>
<text text-anchor="middle" x="136" y="-80.5" font-family="Helvetica,sans-Serif" font-size="10.00">numa::Numa</text>
</a>
</g>
<!-- Node2&#45;&gt;Node3 -->
<g id="edge6" class="edge"><title>Node2&#45;&gt;Node3</title>
<path fill="none" stroke="#9a32cd" stroke-dasharray="5,2" d="M41.1999,-153.212C44.2349,-139.904 50.0405,-123.111 61,-112 71.2936,-101.564 85.7604,-94.8103 99.2453,-90.4737"/>
<polygon fill="#9a32cd" stroke="#9a32cd" points="37.6981,-152.889 39.2498,-163.369 44.5725,-154.208 37.6981,-152.889"/>
<text text-anchor="middle" x="99.5" y="-129" font-family="Helvetica,sans-Serif" font-size="10.00"> m_syncDomains</text>
<text text-anchor="middle" x="99.5" y="-116" font-family="Helvetica,sans-Serif" font-size="10.00">m_syncThreads</text>
</g>
<!-- Node3&#45;&gt;Node1 -->
<g id="edge4" class="edge"><title>Node3&#45;&gt;Node1</title>
<path fill="none" stroke="#9a32cd" stroke-dasharray="5,2" d="M117.368,-65.3488C102.931,-51.6714 83.4026,-33.1709 71.2601,-21.6674"/>
<polygon fill="#9a32cd" stroke="#9a32cd" points="115.119,-68.0395 124.786,-72.3762 119.934,-62.9578 115.119,-68.0395"/>
<text text-anchor="middle" x="124.5" y="-44.5" font-family="Helvetica,sans-Serif" font-size="10.00"> m_numa</text>
</g>
<!-- Node4 -->
<g id="node7" class="node"><title>Node4</title>
<polygon fill="white" stroke="#bfbfbf" points="107.5,-163.5 107.5,-184.5 206.5,-184.5 206.5,-163.5 107.5,-163.5"/>
<text text-anchor="middle" x="157" y="-171.5" font-family="Helvetica,sans-Serif" font-size="10.00">std::vector&lt; bool &gt;</text>
</g>
<!-- Node4&#45;&gt;Node3 -->
<g id="edge8" class="edge"><title>Node4&#45;&gt;Node3</title>
<path fill="none" stroke="#9a32cd" stroke-dasharray="5,2" d="M152.225,-153.31C147.926,-134.681 141.783,-108.059 138.423,-93.5013"/>
<polygon fill="#9a32cd" stroke="#9a32cd" points="148.85,-154.247 154.509,-163.204 155.67,-152.673 148.85,-154.247"/>
<text text-anchor="middle" x="189" y="-122.5" font-family="Helvetica,sans-Serif" font-size="10.00"> m_masterThreads</text>
</g>
<!-- Node5 -->
<g id="node9" class="node"><title>Node5</title>
<polygon fill="white" stroke="#bfbfbf" points="223.5,-157 223.5,-191 342.5,-191 342.5,-157 223.5,-157"/>
<text text-anchor="start" x="231.5" y="-178" font-family="Helvetica,sans-Serif" font-size="10.00">std::map&lt; int, unsigned</text>
<text text-anchor="middle" x="283" y="-165" font-family="Helvetica,sans-Serif" font-size="10.00"> int &gt;</text>
</g>
<!-- Node5&#45;&gt;Node3 -->
<g id="edge10" class="edge"><title>Node5&#45;&gt;Node3</title>
<path fill="none" stroke="#9a32cd" stroke-dasharray="5,2" d="M267.9,-148.128C259.391,-135.592 247.716,-121.28 234,-112 215.778,-99.6707 192.215,-92.4815 172.762,-88.3456"/>
<polygon fill="#9a32cd" stroke="#9a32cd" points="265.16,-150.338 273.521,-156.845 271.043,-146.544 265.16,-150.338"/>
<text text-anchor="middle" x="287" y="-122.5" font-family="Helvetica,sans-Serif" font-size="10.00"> m_domains</text>
</g>
</g>
</svg>
