<?xml version="1.0" encoding="UTF-8" standalone="no"?>
<!DOCTYPE svg PUBLIC "-//W3C//DTD SVG 1.1//EN"
 "http://www.w3.org/Graphics/SVG/1.1/DTD/svg11.dtd">
<!-- Generated by graphviz version 2.26.3 (20100126.1600)
 -->
<!-- Title: transfer::MPICache&lt; Allocator, lock &gt; Pages: 1 -->
<svg width="128pt" height="188pt"
 viewBox="0.00 0.00 128.00 188.00" xmlns="http://www.w3.org/2000/svg" xmlns:xlink="http://www.w3.org/1999/xlink">
<g id="graph1" class="graph" transform="scale(1 1) rotate(0) translate(4 184)">
<title>transfer::MPICache&lt; Allocator, lock &gt;</title>
<polygon fill="white" stroke="white" points="-4,5 -4,-184 125,-184 125,5 -4,5"/>
<!-- Node1 -->
<g id="node1" class="node"><title>Node1</title>
<polygon fill="#bfbfbf" stroke="black" points="7,-1 7,-35 109,-35 109,-1 7,-1"/>
<text text-anchor="start" x="15" y="-22" font-family="Helvetica,sans-Serif" font-size="10.00">transfer::MPICache</text>
<text text-anchor="middle" x="58" y="-9" font-family="Helvetica,sans-Serif" font-size="10.00">&lt; Allocator, lock &gt;</text>
</g>
<!-- Node2 -->
<g id="node2" class="node"><title>Node2</title>
<a xlink:href="classmpi_1_1MPIComm.xhtml" target="_top" xlink:title="mpi::MPIComm">
<polygon fill="white" stroke="black" points="15,-86.5 15,-107.5 101,-107.5 101,-86.5 15,-86.5"/>
<text text-anchor="middle" x="58" y="-94.5" font-family="Helvetica,sans-Serif" font-size="10.00">mpi::MPIComm</text>
</a>
</g>
<!-- Node2&#45;&gt;Node1 -->
<g id="edge2" class="edge"><title>Node2&#45;&gt;Node1</title>
<path fill="none" stroke="#9a32cd" stroke-dasharray="5,2" d="M58,-76.1618C58,-63.3635 58,-47.1713 58,-35.1236"/>
<polygon fill="#9a32cd" stroke="#9a32cd" points="54.5001,-76.3457 58,-86.3457 61.5001,-76.3457 54.5001,-76.3457"/>
<text text-anchor="middle" x="89" y="-58.5" font-family="Helvetica,sans-Serif" font-size="10.00"> m_mpiComm</text>
</g>
<!-- Node3 -->
<g id="node4" class="node"><title>Node3</title>
<a xlink:href="classthreads_1_1PthreadMutex.xhtml" target="_top" xlink:title="threads::PthreadMutex">
<polygon fill="white" stroke="black" points="0,-158.5 0,-179.5 116,-179.5 116,-158.5 0,-158.5"/>
<text text-anchor="middle" x="58" y="-166.5" font-family="Helvetica,sans-Serif" font-size="10.00">threads::PthreadMutex</text>
</a>
</g>
<!-- Node3&#45;&gt;Node2 -->
<g id="edge4" class="edge"><title>Node3&#45;&gt;Node2</title>
<path fill="none" stroke="#9a32cd" stroke-dasharray="5,2" d="M58,-148.235C58,-134.969 58,-118.319 58,-107.667"/>
<polygon fill="#9a32cd" stroke="#9a32cd" points="54.5001,-148.376 58,-158.376 61.5001,-148.376 54.5001,-148.376"/>
<text text-anchor="middle" x="78" y="-130.5" font-family="Helvetica,sans-Serif" font-size="10.00"> mpiLock</text>
</g>
</g>
</svg>
