<?xml version="1.0" encoding="UTF-8" standalone="no"?>
<!DOCTYPE svg PUBLIC "-//W3C//DTD SVG 1.1//EN"
 "http://www.w3.org/Graphics/SVG/1.1/DTD/svg11.dtd">
<!-- Generated by graphviz version 2.26.3 (20100126.1600)
 -->
<!-- Title: G Pages: 1 -->
<svg width="370pt" height="146pt"
 viewBox="0.00 0.00 370.00 146.00" xmlns="http://www.w3.org/2000/svg" xmlns:xlink="http://www.w3.org/1999/xlink">
<g id="graph1" class="graph" transform="scale(1 1) rotate(0) translate(4 142)">
<title>G</title>
<polygon fill="white" stroke="white" points="-4,5 -4,-142 367,-142 367,5 -4,5"/>
<!-- Node1 -->
<g id="node1" class="node"><title>Node1</title>
<polygon fill="#bfbfbf" stroke="black" points="150,-116.5 150,-137.5 206,-137.5 206,-116.5 150,-116.5"/>
<text text-anchor="middle" x="178" y="-124.5" font-family="Helvetica,sans-Serif" font-size="10.00">grid::Grid</text>
</g>
<!-- Node2 -->
<g id="node3" class="node"><title>Node2</title>
<a xlink:href="classgrid_1_1LocalCacheGrid.xhtml" target="_top" xlink:title="grid::LocalCacheGrid">
<polygon fill="white" stroke="black" points="0,-58.5 0,-79.5 108,-79.5 108,-58.5 0,-58.5"/>
<text text-anchor="middle" x="54" y="-66.5" font-family="Helvetica,sans-Serif" font-size="10.00">grid::LocalCacheGrid</text>
</a>
</g>
<!-- Node1&#45;&gt;Node2 -->
<g id="edge2" class="edge"><title>Node1&#45;&gt;Node2</title>
<path fill="none" stroke="midnightblue" d="M146.372,-112.206C124.618,-102.031 96.2384,-88.7567 76.7074,-79.6212"/>
<polygon fill="midnightblue" stroke="midnightblue" points="145.004,-115.43 155.545,-116.497 147.969,-109.089 145.004,-115.43"/>
</g>
<!-- Node5 -->
<g id="node9" class="node"><title>Node5</title>
<a xlink:href="classgrid_1_1LocalStaticGrid.xhtml" target="_top" xlink:title="grid::LocalStaticGrid">
<polygon fill="white" stroke="black" points="125.5,-58.5 125.5,-79.5 230.5,-79.5 230.5,-58.5 125.5,-58.5"/>
<text text-anchor="middle" x="178" y="-66.5" font-family="Helvetica,sans-Serif" font-size="10.00">grid::LocalStaticGrid</text>
</a>
</g>
<!-- Node1&#45;&gt;Node5 -->
<g id="edge8" class="edge"><title>Node1&#45;&gt;Node5</title>
<path fill="none" stroke="midnightblue" d="M178,-106.191C178,-97.1684 178,-86.9941 178,-79.5707"/>
<polygon fill="midnightblue" stroke="midnightblue" points="174.5,-106.362 178,-116.362 181.5,-106.362 174.5,-106.362"/>
</g>
<!-- Node6 -->
<g id="node12" class="node"><title>Node6</title>
<a xlink:href="classgrid_1_1PassThroughGrid.xhtml" target="_top" xlink:title="grid::PassThroughGrid">
<polygon fill="white" stroke="black" points="248,-58.5 248,-79.5 362,-79.5 362,-58.5 248,-58.5"/>
<text text-anchor="middle" x="305" y="-66.5" font-family="Helvetica,sans-Serif" font-size="10.00">grid::PassThroughGrid</text>
</a>
</g>
<!-- Node1&#45;&gt;Node6 -->
<g id="edge12" class="edge"><title>Node1&#45;&gt;Node6</title>
<path fill="none" stroke="midnightblue" d="M210.393,-112.206C232.673,-102.031 261.74,-88.7567 281.743,-79.6212"/>
<polygon fill="midnightblue" stroke="midnightblue" points="208.641,-109.159 200.999,-116.497 211.549,-115.526 208.641,-109.159"/>
</g>
<!-- Node3 -->
<g id="node5" class="node"><title>Node3</title>
<a xlink:href="classgrid_1_1DistCacheGrid.xhtml" target="_top" xlink:title="grid::DistCacheGrid">
<polygon fill="white" stroke="black" points="2.5,-0.5 2.5,-21.5 105.5,-21.5 105.5,-0.5 2.5,-0.5"/>
<text text-anchor="middle" x="54" y="-8.5" font-family="Helvetica,sans-Serif" font-size="10.00">grid::DistCacheGrid</text>
</a>
</g>
<!-- Node2&#45;&gt;Node3 -->
<g id="edge4" class="edge"><title>Node2&#45;&gt;Node3</title>
<path fill="none" stroke="midnightblue" d="M54,-48.1906C54,-39.1684 54,-28.9941 54,-21.5707"/>
<polygon fill="midnightblue" stroke="midnightblue" points="50.5001,-48.3619 54,-58.3619 57.5001,-48.3619 50.5001,-48.3619"/>
</g>
<!-- Node4 -->
<g id="node7" class="node"><title>Node4</title>
<a xlink:href="classgrid_1_1DistStaticGrid.xhtml" target="_top" xlink:title="grid::DistStaticGrid">
<polygon fill="white" stroke="black" points="125,-0.5 125,-21.5 225,-21.5 225,-0.5 125,-0.5"/>
<text text-anchor="middle" x="175" y="-8.5" font-family="Helvetica,sans-Serif" font-size="10.00">grid::DistStaticGrid</text>
</a>
</g>
<!-- Node2&#45;&gt;Node4 -->
<g id="edge6" class="edge"><title>Node2&#45;&gt;Node4</title>
<path fill="none" stroke="midnightblue" d="M85.1485,-54.0693C106.339,-43.9121 133.869,-30.7157 152.842,-21.6212"/>
<polygon fill="midnightblue" stroke="midnightblue" points="83.4169,-51.018 75.9122,-58.4966 86.4426,-57.3303 83.4169,-51.018"/>
</g>
<!-- Node5&#45;&gt;Node4 -->
<g id="edge10" class="edge"><title>Node5&#45;&gt;Node4</title>
<path fill="none" stroke="midnightblue" d="M176.924,-48.1906C176.457,-39.1684 175.931,-28.9941 175.547,-21.5707"/>
<polygon fill="midnightblue" stroke="midnightblue" points="173.438,-48.5561 177.45,-58.3619 180.428,-48.1944 173.438,-48.5561"/>
</g>
</g>
</svg>
