<?xml version="1.0" encoding="UTF-8" standalone="no"?>
<!DOCTYPE svg PUBLIC "-//W3C//DTD SVG 1.1//EN"
 "http://www.w3.org/Graphics/SVG/1.1/DTD/svg11.dtd">
<!-- Generated by graphviz version 2.26.3 (20100126.1600)
 -->
<!-- Title: G Pages: 1 -->
<svg width="1428pt" height="317pt"
 viewBox="0.00 0.00 1428.00 317.00" xmlns="http://www.w3.org/2000/svg" xmlns:xlink="http://www.w3.org/1999/xlink">
<g id="graph1" class="graph" transform="scale(1 1) rotate(0) translate(4 313)">
<title>G</title>
<polygon fill="white" stroke="white" points="-4,5 -4,-313 1425,-313 1425,5 -4,5"/>
<!-- Node1 -->
<g id="node1" class="node"><title>Node1</title>
<polygon fill="#bfbfbf" stroke="black" points="1320,-75.5 1320,-96.5 1420,-96.5 1420,-75.5 1320,-75.5"/>
<text text-anchor="middle" x="1370" y="-83.5" font-family="Helvetica,sans-Serif" font-size="10.00">grid::DistStaticGrid</text>
</g>
<!-- Node2 -->
<g id="node2" class="node"><title>Node2</title>
<a xlink:href="classgrid_1_1LocalStaticGrid.xhtml" target="_top" xlink:title="grid::LocalStaticGrid">
<polygon fill="white" stroke="black" points="1138.5,-94.5 1138.5,-115.5 1243.5,-115.5 1243.5,-94.5 1138.5,-94.5"/>
<text text-anchor="middle" x="1191" y="-102.5" font-family="Helvetica,sans-Serif" font-size="10.00">grid::LocalStaticGrid</text>
</a>
</g>
<!-- Node2&#45;&gt;Node1 -->
<g id="edge2" class="edge"><title>Node2&#45;&gt;Node1</title>
<path fill="none" stroke="midnightblue" d="M1253.81,-98.333C1275.42,-96.0392 1299.32,-93.5028 1319.79,-91.3297"/>
<polygon fill="midnightblue" stroke="midnightblue" points="1253.31,-94.8661 1243.74,-99.4021 1254.05,-101.827 1253.31,-94.8661"/>
</g>
<!-- Node3 -->
<g id="node4" class="node"><title>Node3</title>
<a xlink:href="classgrid_1_1Grid.xhtml" target="_top" xlink:title="Base class for a grid.">
<polygon fill="white" stroke="black" points="870,-79.5 870,-100.5 926,-100.5 926,-79.5 870,-79.5"/>
<text text-anchor="middle" x="898" y="-87.5" font-family="Helvetica,sans-Serif" font-size="10.00">grid::Grid</text>
</a>
</g>
<!-- Node3&#45;&gt;Node2 -->
<g id="edge4" class="edge"><title>Node3&#45;&gt;Node2</title>
<path fill="none" stroke="midnightblue" d="M936.167,-91.954C987.831,-94.5989 1080.24,-99.3294 1138.44,-102.309"/>
<polygon fill="midnightblue" stroke="midnightblue" points="936.26,-88.4542 926.094,-91.4383 935.902,-95.4451 936.26,-88.4542"/>
</g>
<!-- Node17 -->
<g id="node35" class="node"><title>Node17</title>
<a xlink:href="classgrid_1_1LocalCacheGrid.xhtml" target="_top" xlink:title="grid::LocalCacheGrid">
<polygon fill="white" stroke="black" points="1137,-54.5 1137,-75.5 1245,-75.5 1245,-54.5 1137,-54.5"/>
<text text-anchor="middle" x="1191" y="-62.5" font-family="Helvetica,sans-Serif" font-size="10.00">grid::LocalCacheGrid</text>
</a>
</g>
<!-- Node3&#45;&gt;Node17 -->
<g id="edge40" class="edge"><title>Node3&#45;&gt;Node17</title>
<path fill="none" stroke="midnightblue" d="M936.073,-86.7514C987.234,-82.3862 1078.47,-74.6019 1136.78,-69.6259"/>
<polygon fill="midnightblue" stroke="midnightblue" points="935.76,-83.2653 926.094,-87.6029 936.355,-90.24 935.76,-83.2653"/>
</g>
<!-- Node4 -->
<g id="node6" class="node"><title>Node4</title>
<a xlink:href="classperf_1_1Counter.xhtml" target="_top" xlink:title="perf::Counter">
<polygon fill="white" stroke="black" points="630,-40.5 630,-61.5 704,-61.5 704,-40.5 630,-40.5"/>
<text text-anchor="middle" x="667" y="-48.5" font-family="Helvetica,sans-Serif" font-size="10.00">perf::Counter</text>
</a>
</g>
<!-- Node4&#45;&gt;Node3 -->
<g id="edge6" class="edge"><title>Node4&#45;&gt;Node3</title>
<path fill="none" stroke="#9a32cd" stroke-dasharray="5,2" d="M714.179,-53.8089C737.681,-55.6439 766.462,-58.549 792,-63 818.753,-67.6629 848.693,-75.5412 869.911,-81.5877"/>
<polygon fill="#9a32cd" stroke="#9a32cd" points="714.351,-50.3121 704.119,-53.063 713.833,-57.293 714.351,-50.3121"/>
<text text-anchor="middle" x="763" y="-67" font-family="Helvetica,sans-Serif" font-size="10.00"> m_counter</text>
</g>
<!-- Node5 -->
<g id="node8" class="node"><title>Node5</title>
<a xlink:href="classperf_1_1Counter_1_1NameToCounterMap.xhtml" target="_top" xlink:title="perf::Counter::NameToCounterMap">
<polygon fill="white" stroke="black" points="304,-40.5 304,-61.5 474,-61.5 474,-40.5 304,-40.5"/>
<text text-anchor="middle" x="389" y="-48.5" font-family="Helvetica,sans-Serif" font-size="10.00">perf::Counter::NameToCounterMap</text>
</a>
</g>
<!-- Node5&#45;&gt;Node4 -->
<g id="edge8" class="edge"><title>Node5&#45;&gt;Node4</title>
<path fill="none" stroke="#9a32cd" stroke-dasharray="5,2" d="M484.498,-51C534.466,-51 592.776,-51 629.784,-51"/>
<polygon fill="#9a32cd" stroke="#9a32cd" points="484.298,-47.5001 474.298,-51 484.298,-54.5001 484.298,-47.5001"/>
<text text-anchor="middle" x="546" y="-55" font-family="Helvetica,sans-Serif" font-size="10.00"> NAME_TO_COUNTER</text>
</g>
<!-- Node6 -->
<g id="node10" class="node"><title>Node6</title>
<a xlink:href="classgrid_1_1GridContainer.xhtml" target="_top" xlink:title="grid::GridContainer">
<polygon fill="white" stroke="black" points="618,-247.5 618,-268.5 716,-268.5 716,-247.5 618,-247.5"/>
<text text-anchor="middle" x="667" y="-255.5" font-family="Helvetica,sans-Serif" font-size="10.00">grid::GridContainer</text>
</a>
</g>
<!-- Node6&#45;&gt;Node3 -->
<g id="edge10" class="edge"><title>Node6&#45;&gt;Node3</title>
<path fill="none" stroke="#9a32cd" stroke-dasharray="5,2" d="M691.411,-241.346C718.169,-222.309 761.362,-189.203 792,-154 801.959,-142.557 798.367,-134.737 810,-125 827.273,-110.542 851.261,-101.535 869.83,-96.285"/>
<polygon fill="#9a32cd" stroke="#9a32cd" points="689.182,-238.635 683.009,-247.246 693.204,-244.364 689.182,-238.635"/>
<text text-anchor="middle" x="763" y="-212" font-family="Helvetica,sans-Serif" font-size="10.00"> m_container</text>
</g>
<!-- Node10 -->
<g id="node18" class="node"><title>Node10</title>
<polygon fill="white" stroke="#bfbfbf" points="824,-216.5 824,-237.5 972,-237.5 972,-216.5 824,-216.5"/>
<text text-anchor="middle" x="898" y="-224.5" font-family="Helvetica,sans-Serif" font-size="10.00">std::vector&lt; GridContainer * &gt;</text>
</g>
<!-- Node6&#45;&gt;Node10 -->
<g id="edge20" class="edge"><title>Node6&#45;&gt;Node10</title>
<path fill="none" stroke="#9a32cd" stroke-dasharray="5,2" d="M726.369,-248.119C728.946,-247.733 731.498,-247.358 734,-247 763.246,-242.818 795.507,-238.763 823.622,-235.411"/>
<polygon fill="#9a32cd" stroke="#9a32cd" points="725.712,-244.679 716.36,-249.659 726.776,-251.598 725.712,-244.679"/>
<text text-anchor="middle" x="763" y="-251" font-family="Helvetica,sans-Serif" font-size="10.00"> elements</text>
</g>
<!-- Node7 -->
<g id="node12" class="node"><title>Node7</title>
<a xlink:href="classasagi_1_1Grid.xhtml" target="_top" xlink:title="C++ Interface for ASAGI.">
<polygon fill="white" stroke="black" points="357,-247.5 357,-268.5 421,-268.5 421,-247.5 357,-247.5"/>
<text text-anchor="middle" x="389" y="-255.5" font-family="Helvetica,sans-Serif" font-size="10.00">asagi::Grid</text>
</a>
</g>
<!-- Node7&#45;&gt;Node6 -->
<g id="edge12" class="edge"><title>Node7&#45;&gt;Node6</title>
<path fill="none" stroke="midnightblue" d="M431.336,-258C481.491,-258 564.901,-258 617.858,-258"/>
<polygon fill="midnightblue" stroke="midnightblue" points="431.162,-254.5 421.162,-258 431.162,-261.5 431.162,-254.5"/>
</g>
<!-- Node8 -->
<g id="node14" class="node"><title>Node8</title>
<a xlink:href="classtypes_1_1Type.xhtml" target="_top" xlink:title="types::Type">
<polygon fill="white" stroke="black" points="355,-287.5 355,-308.5 423,-308.5 423,-287.5 355,-287.5"/>
<text text-anchor="middle" x="389" y="-295.5" font-family="Helvetica,sans-Serif" font-size="10.00">types::Type</text>
</a>
</g>
<!-- Node8&#45;&gt;Node6 -->
<g id="edge14" class="edge"><title>Node8&#45;&gt;Node6</title>
<path fill="none" stroke="#9a32cd" stroke-dasharray="5,2" d="M433.193,-293.638C475.991,-289.159 542.647,-281.509 600,-272 606.213,-270.97 612.726,-269.766 619.147,-268.505"/>
<polygon fill="#9a32cd" stroke="#9a32cd" points="432.699,-290.171 423.112,-294.681 433.419,-297.134 432.699,-290.171"/>
<text text-anchor="middle" x="546" y="-290" font-family="Helvetica,sans-Serif" font-size="10.00"> m_type</text>
</g>
<!-- Node9 -->
<g id="node16" class="node"><title>Node9</title>
<a xlink:href="classfortran_1_1PointerArray.xhtml" target="_top" xlink:title="fortran::PointerArray\&lt; GridContainer \&gt;">
<polygon fill="white" stroke="black" points="1100,-244.5 1100,-265.5 1282,-265.5 1282,-244.5 1100,-244.5"/>
<text text-anchor="middle" x="1191" y="-252.5" font-family="Helvetica,sans-Serif" font-size="10.00">fortran::PointerArray&lt; GridContainer &gt;</text>
</a>
</g>
<!-- Node9&#45;&gt;Node6 -->
<g id="edge16" class="edge"><title>Node9&#45;&gt;Node6</title>
<path fill="none" stroke="#9a32cd" stroke-dasharray="5,2" d="M1089.67,-259.805C1087.09,-259.877 1084.53,-259.942 1082,-260 927.374,-263.545 888.649,-262.308 734,-260 728.182,-259.913 722.081,-259.784 716.029,-259.632"/>
<polygon fill="#9a32cd" stroke="#9a32cd" points="1089.83,-263.301 1099.72,-259.496 1089.62,-256.305 1089.83,-263.301"/>
<text text-anchor="middle" x="898" y="-266" font-family="Helvetica,sans-Serif" font-size="10.00"> m_pointers</text>
</g>
<!-- Node10&#45;&gt;Node9 -->
<g id="edge18" class="edge"><title>Node10&#45;&gt;Node9</title>
<path fill="none" stroke="#9a32cd" stroke-dasharray="5,2" d="M982.492,-235.074C1019.21,-238.583 1062.29,-242.7 1099.74,-246.279"/>
<polygon fill="#9a32cd" stroke="#9a32cd" points="982.603,-231.569 972.315,-234.102 981.937,-238.537 982.603,-231.569"/>
<text text-anchor="middle" x="1043" y="-248" font-family="Helvetica,sans-Serif" font-size="10.00"> m_pointers</text>
</g>
<!-- Node11 -->
<g id="node21" class="node"><title>Node11</title>
<a xlink:href="classio_1_1NetCdfReader.xhtml" target="_top" xlink:title="io::NetCdfReader">
<polygon fill="white" stroke="black" points="620.5,-146.5 620.5,-167.5 713.5,-167.5 713.5,-146.5 620.5,-146.5"/>
<text text-anchor="middle" x="667" y="-154.5" font-family="Helvetica,sans-Serif" font-size="10.00">io::NetCdfReader</text>
</a>
</g>
<!-- Node11&#45;&gt;Node3 -->
<g id="edge22" class="edge"><title>Node11&#45;&gt;Node3</title>
<path fill="none" stroke="#9a32cd" stroke-dasharray="5,2" d="M713.239,-143.589C760.039,-130.015 830.895,-109.463 869.858,-98.1625"/>
<polygon fill="#9a32cd" stroke="#9a32cd" points="711.977,-140.31 703.348,-146.458 713.927,-147.033 711.977,-140.31"/>
<text text-anchor="middle" x="763" y="-141" font-family="Helvetica,sans-Serif" font-size="10.00"> m_inputFile</text>
</g>
<!-- Node12 -->
<g id="node23" class="node"><title>Node12</title>
<a xlink:title="STL class.">
<polygon fill="white" stroke="#bfbfbf" points="164,-118.5 164,-139.5 224,-139.5 224,-118.5 164,-118.5"/>
<text text-anchor="middle" x="194" y="-126.5" font-family="Helvetica,sans-Serif" font-size="10.00">std::string</text>
</a>
</g>
<!-- Node12&#45;&gt;Node3 -->
<g id="edge34" class="edge"><title>Node12&#45;&gt;Node3</title>
<path fill="none" stroke="#9a32cd" stroke-dasharray="5,2" d="M234.218,-120.213C254.955,-116.058 280.718,-111.475 304,-109 520.742,-85.9577 784.258,-88.0062 869.762,-89.4265"/>
<polygon fill="#9a32cd" stroke="#9a32cd" points="233.268,-116.835 224.174,-122.27 234.673,-123.692 233.268,-116.835"/>
<text text-anchor="middle" x="546" y="-99" font-family="Helvetica,sans-Serif" font-size="10.00"> m_variableName</text>
</g>
<!-- Node12&#45;&gt;Node11 -->
<g id="edge24" class="edge"><title>Node12&#45;&gt;Node11</title>
<path fill="none" stroke="#9a32cd" stroke-dasharray="5,2" d="M216.291,-145.546C237.571,-160.234 271.17,-180.628 304,-189 431.523,-221.518 471.117,-207.621 600,-181 614.52,-178.001 630.15,-172.54 642.658,-167.584"/>
<polygon fill="#9a32cd" stroke="#9a32cd" points="218.147,-142.572 207.963,-139.651 214.103,-148.285 218.147,-142.572"/>
<text text-anchor="middle" x="389" y="-211" font-family="Helvetica,sans-Serif" font-size="10.00"> m_filename</text>
</g>
<!-- Node15 -->
<g id="node29" class="node"><title>Node15</title>
<polygon fill="white" stroke="#bfbfbf" points="326.5,-118.5 326.5,-139.5 451.5,-139.5 451.5,-118.5 326.5,-118.5"/>
<text text-anchor="middle" x="389" y="-126.5" font-family="Helvetica,sans-Serif" font-size="10.00">std::vector&lt; std::string &gt;</text>
</g>
<!-- Node12&#45;&gt;Node15 -->
<g id="edge32" class="edge"><title>Node12&#45;&gt;Node15</title>
<path fill="none" stroke="#9a32cd" stroke-dasharray="5,2" d="M234.112,-129C260.652,-129 295.999,-129 326.225,-129"/>
<polygon fill="#9a32cd" stroke="#9a32cd" points="234.041,-125.5 224.041,-129 234.041,-132.5 234.041,-125.5"/>
<text text-anchor="middle" x="264" y="-133" font-family="Helvetica,sans-Serif" font-size="10.00"> elements</text>
</g>
<!-- Node13 -->
<g id="node25" class="node"><title>Node13</title>
<a xlink:title="STL class.">
<polygon fill="white" stroke="#bfbfbf" points="0.5,-118.5 0.5,-139.5 125.5,-139.5 125.5,-118.5 0.5,-118.5"/>
<text text-anchor="middle" x="63" y="-126.5" font-family="Helvetica,sans-Serif" font-size="10.00">std::basic_string&lt; char &gt;</text>
</a>
</g>
<!-- Node13&#45;&gt;Node12 -->
<g id="edge26" class="edge"><title>Node13&#45;&gt;Node12</title>
<path fill="none" stroke="midnightblue" d="M136.065,-129C145.859,-129 155.423,-129 163.868,-129"/>
<polygon fill="midnightblue" stroke="midnightblue" points="135.814,-125.5 125.814,-129 135.814,-132.5 135.814,-125.5"/>
</g>
<!-- Node14 -->
<g id="node27" class="node"><title>Node14</title>
<polygon fill="white" stroke="#bfbfbf" points="335.5,-158.5 335.5,-179.5 442.5,-179.5 442.5,-158.5 335.5,-158.5"/>
<text text-anchor="middle" x="389" y="-166.5" font-family="Helvetica,sans-Serif" font-size="10.00">std::vector&lt; size_t &gt;</text>
</g>
<!-- Node14&#45;&gt;Node11 -->
<g id="edge28" class="edge"><title>Node14&#45;&gt;Node11</title>
<path fill="none" stroke="#9a32cd" stroke-dasharray="5,2" d="M452.882,-166.242C504.033,-164.035 574.581,-160.989 620.489,-159.008"/>
<polygon fill="#9a32cd" stroke="#9a32cd" points="452.441,-162.758 442.601,-166.686 452.743,-169.752 452.441,-162.758"/>
<text text-anchor="middle" x="546" y="-168" font-family="Helvetica,sans-Serif" font-size="10.00"> m_size</text>
</g>
<!-- Node15&#45;&gt;Node11 -->
<g id="edge30" class="edge"><title>Node15&#45;&gt;Node11</title>
<path fill="none" stroke="#9a32cd" stroke-dasharray="5,2" d="M461.711,-130.635C502.52,-132.264 554.274,-135.515 600,-142 608.025,-143.138 616.514,-144.73 624.655,-146.454"/>
<polygon fill="#9a32cd" stroke="#9a32cd" points="461.707,-127.132 451.583,-130.255 461.444,-134.127 461.707,-127.132"/>
<text text-anchor="middle" x="546" y="-146" font-family="Helvetica,sans-Serif" font-size="10.00"> m_names</text>
</g>
<!-- Node16 -->
<g id="node33" class="node"><title>Node16</title>
<a xlink:href="classallocator_1_1Allocator.xhtml" target="_top" xlink:title="allocator::Allocator\&lt; unsigned char \&gt;">
<polygon fill="white" stroke="black" points="810,-134.5 810,-155.5 986,-155.5 986,-134.5 810,-134.5"/>
<text text-anchor="middle" x="898" y="-142.5" font-family="Helvetica,sans-Serif" font-size="10.00">allocator::Allocator&lt; unsigned char &gt;</text>
</a>
</g>
<!-- Node16&#45;&gt;Node2 -->
<g id="edge36" class="edge"><title>Node16&#45;&gt;Node2</title>
<path fill="none" stroke="#9a32cd" stroke-dasharray="5,2" d="M996.544,-145.111C1024.32,-143.954 1054.47,-141.57 1082,-137 1109.82,-132.381 1140.57,-122.938 1162.3,-115.501"/>
<polygon fill="#9a32cd" stroke="#9a32cd" points="996.291,-141.618 986.426,-145.484 996.548,-148.613 996.291,-141.618"/>
<text text-anchor="middle" x="1043" y="-148" font-family="Helvetica,sans-Serif" font-size="10.00"> m_allocator</text>
</g>
<!-- Node16&#45;&gt;Node17 -->
<g id="edge42" class="edge"><title>Node16&#45;&gt;Node17</title>
<path fill="none" stroke="#9a32cd" stroke-dasharray="5,2" d="M948.612,-131.747C985.788,-121.692 1037.38,-107.069 1082,-92 1090.13,-89.2537 1091.78,-87.4842 1100,-85 1111.77,-81.4421 1124.57,-78.234 1136.75,-75.4816"/>
<polygon fill="#9a32cd" stroke="#9a32cd" points="947.274,-128.482 938.526,-134.459 949.092,-135.242 947.274,-128.482"/>
<text text-anchor="middle" x="1043" y="-119" font-family="Helvetica,sans-Serif" font-size="10.00"> m_allocator</text>
</g>
<!-- Node17&#45;&gt;Node1 -->
<g id="edge38" class="edge"><title>Node17&#45;&gt;Node1</title>
<path fill="none" stroke="midnightblue" d="M1255.14,-72.525C1276.46,-75.026 1299.87,-77.7725 1319.96,-80.1297"/>
<polygon fill="midnightblue" stroke="midnightblue" points="1255.53,-69.0468 1245.19,-71.3577 1254.72,-75.9991 1255.53,-69.0468"/>
</g>
<!-- Node18 -->
<g id="node39" class="node"><title>Node18</title>
<a xlink:href="classblocks_1_1BlockManager.xhtml" target="_top" xlink:title="Controls a list of blocks.">
<polygon fill="white" stroke="black" points="841.5,-7.5 841.5,-28.5 954.5,-28.5 954.5,-7.5 841.5,-7.5"/>
<text text-anchor="middle" x="898" y="-15.5" font-family="Helvetica,sans-Serif" font-size="10.00">blocks::BlockManager</text>
</a>
</g>
<!-- Node18&#45;&gt;Node17 -->
<g id="edge44" class="edge"><title>Node18&#45;&gt;Node17</title>
<path fill="none" stroke="#9a32cd" stroke-dasharray="5,2" d="M964.982,-28.7446C1017.03,-37.0938 1088.29,-48.5251 1136.79,-56.3046"/>
<polygon fill="#9a32cd" stroke="#9a32cd" points="965.269,-25.2459 954.841,-27.1178 964.16,-32.1576 965.269,-25.2459"/>
<text text-anchor="middle" x="1043" y="-52" font-family="Helvetica,sans-Serif" font-size="10.00"> m_blockManager</text>
</g>
<!-- Node19 -->
<g id="node41" class="node"><title>Node19</title>
<a xlink:href="classblocks_1_1LRU.xhtml" target="_top" xlink:title="blocks::LRU">
<polygon fill="white" stroke="black" points="631.5,-0.5 631.5,-21.5 702.5,-21.5 702.5,-0.5 631.5,-0.5"/>
<text text-anchor="middle" x="667" y="-8.5" font-family="Helvetica,sans-Serif" font-size="10.00">blocks::LRU</text>
</a>
</g>
<!-- Node19&#45;&gt;Node18 -->
<g id="edge46" class="edge"><title>Node19&#45;&gt;Node18</title>
<path fill="none" stroke="#9a32cd" stroke-dasharray="5,2" d="M713.04,-12.3951C749.908,-13.5124 801.798,-15.0848 841.237,-16.2799"/>
<polygon fill="#9a32cd" stroke="#9a32cd" points="712.689,-8.883 702.588,-12.0784 712.477,-15.8798 712.689,-8.883"/>
<text text-anchor="middle" x="763" y="-19" font-family="Helvetica,sans-Serif" font-size="10.00"> m_lru</text>
</g>
</g>
</svg>
