<?xml version="1.0" encoding="UTF-8" standalone="no"?>
<!DOCTYPE svg PUBLIC "-//W3C//DTD SVG 1.1//EN"
 "http://www.w3.org/Graphics/SVG/1.1/DTD/svg11.dtd">
<!-- Generated by graphviz version 2.26.3 (20100126.1600)
 -->
<!-- Title: transfer::NumaFullCache Pages: 1 -->
<svg width="369pt" height="332pt"
 viewBox="0.00 0.00 369.00 332.00" xmlns="http://www.w3.org/2000/svg" xmlns:xlink="http://www.w3.org/1999/xlink">
<g id="graph1" class="graph" transform="scale(1 1) rotate(0) translate(4 328)">
<title>transfer::NumaFullCache</title>
<polygon fill="white" stroke="white" points="-4,5 -4,-328 366,-328 366,5 -4,5"/>
<!-- Node1 -->
<g id="node1" class="node"><title>Node1</title>
<polygon fill="#bfbfbf" stroke="black" points="22,-0.5 22,-21.5 148,-21.5 148,-0.5 22,-0.5"/>
<text text-anchor="middle" x="85" y="-8.5" font-family="Helvetica,sans-Serif" font-size="10.00">transfer::NumaFullCache</text>
</g>
<!-- Node2 -->
<g id="node2" class="node"><title>Node2</title>
<a xlink:href="classtransfer_1_1NumaFull.xhtml" target="_top" xlink:title="transfer::NumaFull">
<polygon fill="white" stroke="black" points="0,-60.5 0,-81.5 98,-81.5 98,-60.5 0,-60.5"/>
<text text-anchor="middle" x="49" y="-68.5" font-family="Helvetica,sans-Serif" font-size="10.00">transfer::NumaFull</text>
</a>
</g>
<!-- Node2&#45;&gt;Node1 -->
<g id="edge2" class="edge"><title>Node2&#45;&gt;Node1</title>
<path fill="none" stroke="midnightblue" d="M60.7199,-51.4668C66.671,-41.5483 73.6692,-29.8846 78.6196,-21.6339"/>
<polygon fill="midnightblue" stroke="midnightblue" points="57.5799,-49.8975 55.4361,-60.2732 63.5823,-53.499 57.5799,-49.8975"/>
</g>
<!-- Node3 -->
<g id="node4" class="node"><title>Node3</title>
<a xlink:href="classtransfer_1_1NumaCache.xhtml" target="_top" xlink:title="transfer::NumaCache">
<polygon fill="white" stroke="black" points="116,-60.5 116,-81.5 226,-81.5 226,-60.5 116,-60.5"/>
<text text-anchor="middle" x="171" y="-68.5" font-family="Helvetica,sans-Serif" font-size="10.00">transfer::NumaCache</text>
</a>
</g>
<!-- Node3&#45;&gt;Node1 -->
<g id="edge4" class="edge"><title>Node3&#45;&gt;Node1</title>
<path fill="none" stroke="midnightblue" d="M147.311,-54.4731C132.285,-43.9895 113.287,-30.7352 100.242,-21.6339"/>
<polygon fill="midnightblue" stroke="midnightblue" points="145.421,-57.4218 155.625,-60.2732 149.426,-51.6809 145.421,-57.4218"/>
</g>
<!-- Node4 -->
<g id="node6" class="node"><title>Node4</title>
<a xlink:href="classcache_1_1CacheManager.xhtml" target="_top" xlink:title="Manages a block cache. ">
<polygon fill="white" stroke="black" points="113.5,-132.5 113.5,-153.5 228.5,-153.5 228.5,-132.5 113.5,-132.5"/>
<text text-anchor="middle" x="171" y="-140.5" font-family="Helvetica,sans-Serif" font-size="10.00">cache::CacheManager</text>
</a>
</g>
<!-- Node4&#45;&gt;Node3 -->
<g id="edge6" class="edge"><title>Node4&#45;&gt;Node3</title>
<path fill="none" stroke="#9a32cd" stroke-dasharray="5,2" d="M171,-122.235C171,-108.969 171,-92.3188 171,-81.6674"/>
<polygon fill="#9a32cd" stroke="#9a32cd" points="167.5,-122.376 171,-132.376 174.5,-122.376 167.5,-122.376"/>
<text text-anchor="middle" x="211.5" y="-104.5" font-family="Helvetica,sans-Serif" font-size="10.00"> m_cacheManager</text>
</g>
<!-- Node5 -->
<g id="node8" class="node"><title>Node5</title>
<a xlink:href="classthreads_1_1PthreadMutex.xhtml" target="_top" xlink:title="threads::PthreadMutex">
<polygon fill="white" stroke="black" points="58,-204.5 58,-225.5 174,-225.5 174,-204.5 58,-204.5"/>
<text text-anchor="middle" x="116" y="-212.5" font-family="Helvetica,sans-Serif" font-size="10.00">threads::PthreadMutex</text>
</a>
</g>
<!-- Node5&#45;&gt;Node4 -->
<g id="edge8" class="edge"><title>Node5&#45;&gt;Node4</title>
<path fill="none" stroke="#9a32cd" stroke-dasharray="5,2" d="M118.14,-194.275C119.697,-186.736 122.379,-178.483 127,-172 132.416,-164.401 140.502,-158.254 148.269,-153.607"/>
<polygon fill="#9a32cd" stroke="#9a32cd" points="114.675,-193.781 116.605,-204.198 121.593,-194.851 114.675,-193.781"/>
<text text-anchor="middle" x="166" y="-176.5" font-family="Helvetica,sans-Serif" font-size="10.00"> m_blockMutexes</text>
</g>
<!-- Node6 -->
<g id="node10" class="node"><title>Node6</title>
<a xlink:href="classcache_1_1CacheList.xhtml" target="_top" xlink:title="Controls a list of blocks. ">
<polygon fill="white" stroke="black" points="191.5,-204.5 191.5,-225.5 284.5,-225.5 284.5,-204.5 191.5,-204.5"/>
<text text-anchor="middle" x="238" y="-212.5" font-family="Helvetica,sans-Serif" font-size="10.00">cache::CacheList</text>
</a>
</g>
<!-- Node6&#45;&gt;Node4 -->
<g id="edge10" class="edge"><title>Node6&#45;&gt;Node4</title>
<path fill="none" stroke="#9a32cd" stroke-dasharray="5,2" d="M224.838,-196.102C219.092,-188.335 212.062,-179.437 205,-172 198.803,-165.474 191.241,-158.908 184.823,-153.678"/>
<polygon fill="#9a32cd" stroke="#9a32cd" points="222.025,-198.186 230.712,-204.253 227.704,-194.094 222.025,-198.186"/>
<text text-anchor="middle" x="245.5" y="-176.5" font-family="Helvetica,sans-Serif" font-size="10.00"> m_cacheList</text>
</g>
<!-- Node7 -->
<g id="node12" class="node"><title>Node7</title>
<a xlink:href="classcache_1_1LRU.xhtml" target="_top" xlink:title="cache::LRU">
<polygon fill="white" stroke="black" points="144.5,-289.5 144.5,-310.5 213.5,-310.5 213.5,-289.5 144.5,-289.5"/>
<text text-anchor="middle" x="179" y="-297.5" font-family="Helvetica,sans-Serif" font-size="10.00">cache::LRU</text>
</a>
</g>
<!-- Node7&#45;&gt;Node6 -->
<g id="edge12" class="edge"><title>Node7&#45;&gt;Node6</title>
<path fill="none" stroke="#9a32cd" stroke-dasharray="5,2" d="M192.455,-280.616C204.278,-263.582 221.043,-239.429 230.588,-225.678"/>
<polygon fill="#9a32cd" stroke="#9a32cd" points="189.299,-279.024 186.472,-289.235 195.05,-283.015 189.299,-279.024"/>
<text text-anchor="middle" x="231" y="-248.5" font-family="Helvetica,sans-Serif" font-size="10.00"> m_lru</text>
</g>
<!-- Node8 -->
<g id="node14" class="node"><title>Node8</title>
<polygon fill="white" stroke="#bfbfbf" points="230.5,-276.5 230.5,-323.5 361.5,-323.5 361.5,-276.5 230.5,-276.5"/>
<text text-anchor="start" x="238.5" y="-310.5" font-family="Helvetica,sans-Serif" font-size="10.00">std::unordered_map</text>
<text text-anchor="start" x="238.5" y="-297.5" font-family="Helvetica,sans-Serif" font-size="10.00">&lt; unsigned long, unsigned</text>
<text text-anchor="middle" x="296" y="-284.5" font-family="Helvetica,sans-Serif" font-size="10.00"> long &gt;</text>
</g>
<!-- Node8&#45;&gt;Node6 -->
<g id="edge14" class="edge"><title>Node8&#45;&gt;Node6</title>
<path fill="none" stroke="#9a32cd" stroke-dasharray="5,2" d="M274.079,-267.875C263.981,-253.076 252.663,-236.489 245.442,-225.906"/>
<polygon fill="#9a32cd" stroke="#9a32cd" points="271.316,-270.035 279.844,-276.323 277.098,-266.09 271.316,-270.035"/>
<text text-anchor="middle" x="305" y="-248.5" font-family="Helvetica,sans-Serif" font-size="10.00"> m_blockToIndex</text>
</g>
</g>
</svg>
