<?xml version="1.0" encoding="UTF-8" standalone="no"?>
<!DOCTYPE svg PUBLIC "-//W3C//DTD SVG 1.1//EN"
 "http://www.w3.org/Graphics/SVG/1.1/DTD/svg11.dtd">
<!-- Generated by graphviz version 2.26.3 (20100126.1600)
 -->
<!-- Title: transfer::MPICache Pages: 1 -->
<svg width="198pt" height="246pt"
 viewBox="0.00 0.00 198.00 246.00" xmlns="http://www.w3.org/2000/svg" xmlns:xlink="http://www.w3.org/1999/xlink">
<g id="graph1" class="graph" transform="scale(1 1) rotate(0) translate(4 242)">
<title>transfer::MPICache</title>
<polygon fill="white" stroke="white" points="-4,5 -4,-242 195,-242 195,5 -4,5"/>
<!-- Node1 -->
<g id="node1" class="node"><title>Node1</title>
<polygon fill="#bfbfbf" stroke="black" points="0,-0.5 0,-21.5 102,-21.5 102,-0.5 0,-0.5"/>
<text text-anchor="middle" x="51" y="-8.5" font-family="Helvetica,sans-Serif" font-size="10.00">transfer::MPICache</text>
</g>
<!-- Node2 -->
<g id="node2" class="node"><title>Node2</title>
<a xlink:href="classmpi_1_1MPIComm.xhtml" target="_top" xlink:title="mpi::MPIComm">
<polygon fill="white" stroke="black" points="5,-144.5 5,-165.5 91,-165.5 91,-144.5 5,-144.5"/>
<text text-anchor="middle" x="48" y="-152.5" font-family="Helvetica,sans-Serif" font-size="10.00">mpi::MPIComm</text>
</a>
</g>
<!-- Node2&#45;&gt;Node1 -->
<g id="edge2" class="edge"><title>Node2&#45;&gt;Node1</title>
<path fill="none" stroke="#9a32cd" stroke-dasharray="5,2" d="M36.5141,-135.102C28.2731,-118.417 19.375,-93.8759 24,-72 27.9287,-53.4174 37.9046,-33.6093 44.5673,-21.7722"/>
<polygon fill="#9a32cd" stroke="#9a32cd" points="33.6574,-137.186 41.4336,-144.382 39.8421,-133.908 33.6574,-137.186"/>
<text text-anchor="middle" x="55" y="-80.5" font-family="Helvetica,sans-Serif" font-size="10.00"> m_mpiComm</text>
</g>
<!-- Node4 -->
<g id="node6" class="node"><title>Node4</title>
<a xlink:href="classmpi_1_1Mutex.xhtml" target="_top" xlink:title="mpi::Mutex">
<polygon fill="white" stroke="black" points="94.5,-72.5 94.5,-93.5 159.5,-93.5 159.5,-72.5 94.5,-72.5"/>
<text text-anchor="middle" x="127" y="-80.5" font-family="Helvetica,sans-Serif" font-size="10.00">mpi::Mutex</text>
</a>
</g>
<!-- Node2&#45;&gt;Node4 -->
<g id="edge8" class="edge"><title>Node2&#45;&gt;Node4</title>
<path fill="none" stroke="#9a32cd" stroke-dasharray="5,2" d="M54.6952,-134.692C58.0416,-126.876 62.739,-118.32 69,-112 76.7648,-104.162 87.0844,-98.0755 96.8647,-93.5476"/>
<polygon fill="#9a32cd" stroke="#9a32cd" points="51.3288,-133.698 51.0563,-144.289 57.8742,-136.18 51.3288,-133.698"/>
<text text-anchor="middle" x="91" y="-116.5" font-family="Helvetica,sans-Serif" font-size="10.00"> m_comm</text>
</g>
<!-- Node3 -->
<g id="node4" class="node"><title>Node3</title>
<a xlink:href="classthreads_1_1PthreadMutex.xhtml" target="_top" xlink:title="threads::PthreadMutex">
<polygon fill="white" stroke="black" points="35,-216.5 35,-237.5 151,-237.5 151,-216.5 35,-216.5"/>
<text text-anchor="middle" x="93" y="-224.5" font-family="Helvetica,sans-Serif" font-size="10.00">threads::PthreadMutex</text>
</a>
</g>
<!-- Node3&#45;&gt;Node2 -->
<g id="edge4" class="edge"><title>Node3&#45;&gt;Node2</title>
<path fill="none" stroke="#9a32cd" stroke-dasharray="5,2" d="M79.636,-208.07C77.3766,-204.744 75.0882,-201.293 73,-198 66.1552,-187.207 58.869,-174.522 53.9395,-165.739"/>
<polygon fill="#9a32cd" stroke="#9a32cd" points="76.824,-210.157 85.3917,-216.39 82.5807,-206.175 76.824,-210.157"/>
<text text-anchor="middle" x="93" y="-188.5" font-family="Helvetica,sans-Serif" font-size="10.00"> mpiLock</text>
</g>
<!-- Node3&#45;&gt;Node4 -->
<g id="edge10" class="edge"><title>Node3&#45;&gt;Node4</title>
<path fill="none" stroke="#9a32cd" stroke-dasharray="5,2" d="M107.95,-208.036C109.92,-204.826 111.703,-201.42 113,-198 126.835,-161.516 127.741,-114.286 127.369,-93.5488"/>
<polygon fill="#9a32cd" stroke="#9a32cd" points="104.96,-206.205 102.145,-216.419 110.716,-210.19 104.96,-206.205"/>
<text text-anchor="middle" x="157" y="-152.5" font-family="Helvetica,sans-Serif" font-size="10.00"> nextTagMutex</text>
</g>
<!-- Node4&#45;&gt;Node1 -->
<g id="edge6" class="edge"><title>Node4&#45;&gt;Node1</title>
<path fill="none" stroke="#9a32cd" stroke-dasharray="5,2" d="M108.368,-65.3488C93.9309,-51.6714 74.4026,-33.1709 62.2601,-21.6674"/>
<polygon fill="#9a32cd" stroke="#9a32cd" points="106.119,-68.0395 115.786,-72.3762 110.934,-62.9578 106.119,-68.0395"/>
<text text-anchor="middle" x="125" y="-44.5" font-family="Helvetica,sans-Serif" font-size="10.00"> m_mpiMutex</text>
</g>
</g>
</svg>
