<?xml version="1.0" encoding="UTF-8" standalone="no"?>
<!DOCTYPE svg PUBLIC "-//W3C//DTD SVG 1.1//EN"
 "http://www.w3.org/Graphics/SVG/1.1/DTD/svg11.dtd">
<!-- Generated by graphviz version 2.26.3 (20100126.1600)
 -->
<!-- Title: grid::Container Pages: 1 -->
<svg width="118pt" height="174pt"
 viewBox="0.00 0.00 118.00 174.00" xmlns="http://www.w3.org/2000/svg" xmlns:xlink="http://www.w3.org/1999/xlink">
<g id="graph1" class="graph" transform="scale(1 1) rotate(0) translate(4 170)">
<title>grid::Container</title>
<polygon fill="white" stroke="white" points="-4,5 -4,-170 115,-170 115,5 -4,5"/>
<!-- Node1 -->
<g id="node1" class="node"><title>Node1</title>
<polygon fill="#bfbfbf" stroke="black" points="15,-144.5 15,-165.5 95,-165.5 95,-144.5 15,-144.5"/>
<text text-anchor="middle" x="55" y="-152.5" font-family="Helvetica,sans-Serif" font-size="10.00">grid::Container</text>
</g>
<!-- Node2 -->
<g id="node3" class="node"><title>Node2</title>
<a xlink:href="classgrid_1_1TypedContainer.xhtml" target="_top" xlink:title="grid::TypedContainer\l\&lt; Type \&gt;">
<polygon fill="white" stroke="black" points="1.5,-73 1.5,-107 108.5,-107 108.5,-73 1.5,-73"/>
<text text-anchor="start" x="9.5" y="-94" font-family="Helvetica,sans-Serif" font-size="10.00">grid::TypedContainer</text>
<text text-anchor="middle" x="55" y="-81" font-family="Helvetica,sans-Serif" font-size="10.00">&lt; Type &gt;</text>
</a>
</g>
<!-- Node1&#45;&gt;Node2 -->
<g id="edge2" class="edge"><title>Node1&#45;&gt;Node2</title>
<path fill="none" stroke="midnightblue" d="M55,-134.131C55,-125.405 55,-115.391 55,-107.11"/>
<polygon fill="midnightblue" stroke="midnightblue" points="51.5001,-134.267 55,-144.267 58.5001,-134.267 51.5001,-134.267"/>
</g>
<!-- Node3 -->
<g id="node5" class="node"><title>Node3</title>
<a xlink:href="classgrid_1_1SimpleContainer.xhtml" target="_top" xlink:title="grid::SimpleContainer\l\&lt; Type \&gt;">
<polygon fill="white" stroke="black" points="0,-1 0,-35 110,-35 110,-1 0,-1"/>
<text text-anchor="start" x="8" y="-22" font-family="Helvetica,sans-Serif" font-size="10.00">grid::SimpleContainer</text>
<text text-anchor="middle" x="55" y="-9" font-family="Helvetica,sans-Serif" font-size="10.00">&lt; Type &gt;</text>
</a>
</g>
<!-- Node2&#45;&gt;Node3 -->
<g id="edge4" class="edge"><title>Node2&#45;&gt;Node3</title>
<path fill="none" stroke="midnightblue" d="M55,-62.7193C55,-53.572 55,-43.6255 55,-35.4407"/>
<polygon fill="midnightblue" stroke="midnightblue" points="51.5001,-62.937 55,-72.937 58.5001,-62.937 51.5001,-62.937"/>
</g>
</g>
</svg>
