<?xml version="1.0" encoding="UTF-8" standalone="no"?>
<!DOCTYPE svg PUBLIC "-//W3C//DTD SVG 1.1//EN"
 "http://www.w3.org/Graphics/SVG/1.1/DTD/svg11.dtd">
<!-- Generated by graphviz version 2.26.3 (20100126.1600)
 -->
<!-- Title: transfer::MPIThreadCache::BlockInfoResponder Pages: 1 -->
<svg width="1140pt" height="459pt"
 viewBox="0.00 0.00 1140.00 459.00" xmlns="http://www.w3.org/2000/svg" xmlns:xlink="http://www.w3.org/1999/xlink">
<g id="graph1" class="graph" transform="scale(1 1) rotate(0) translate(4 455)">
<title>transfer::MPIThreadCache::BlockInfoResponder</title>
<polygon fill="white" stroke="white" points="-4,5 -4,-455 1137,-455 1137,5 -4,5"/>
<!-- Node1 -->
<g id="node1" class="node"><title>Node1</title>
<polygon fill="#bfbfbf" stroke="black" points="474,-286 474,-320 606,-320 606,-286 474,-286"/>
<text text-anchor="start" x="482" y="-307" font-family="Helvetica,sans-Serif" font-size="10.00">transfer::MPIThreadCache</text>
<text text-anchor="middle" x="540" y="-294" font-family="Helvetica,sans-Serif" font-size="10.00">::BlockInfoResponder</text>
</g>
<!-- Node3 -->
<g id="node4" class="node"><title>Node3</title>
<a xlink:href="classtransfer_1_1MPIThreadCache.xhtml" target="_top" xlink:title="transfer::MPIThreadCache">
<polygon fill="white" stroke="black" points="746,-275.5 746,-296.5 878,-296.5 878,-275.5 746,-275.5"/>
<text text-anchor="middle" x="812" y="-283.5" font-family="Helvetica,sans-Serif" font-size="10.00">transfer::MPIThreadCache</text>
</a>
</g>
<!-- Node1&#45;&gt;Node3 -->
<g id="edge36" class="edge"><title>Node1&#45;&gt;Node3</title>
<path fill="none" stroke="#9a32cd" stroke-dasharray="5,2" d="M616.358,-298.228C657.153,-295.678 706.875,-292.57 745.984,-290.126"/>
<polygon fill="#9a32cd" stroke="#9a32cd" points="615.953,-294.746 606.191,-298.863 616.39,-301.732 615.953,-294.746"/>
<text text-anchor="middle" x="676" y="-301" font-family="Helvetica,sans-Serif" font-size="10.00"> m_blockInfoResponder</text>
</g>
<!-- Node2 -->
<g id="node2" class="node"><title>Node2</title>
<a xlink:href="classmpi_1_1Receiver.xhtml" target="_top" xlink:title="mpi::Receiver">
<polygon fill="white" stroke="black" points="263.5,-367.5 263.5,-388.5 340.5,-388.5 340.5,-367.5 263.5,-367.5"/>
<text text-anchor="middle" x="302" y="-375.5" font-family="Helvetica,sans-Serif" font-size="10.00">mpi::Receiver</text>
</a>
</g>
<!-- Node2&#45;&gt;Node1 -->
<g id="edge2" class="edge"><title>Node2&#45;&gt;Node1</title>
<path fill="none" stroke="midnightblue" d="M344.946,-364.467C384.428,-352.025 443.137,-333.524 485.826,-320.072"/>
<polygon fill="midnightblue" stroke="midnightblue" points="343.829,-361.149 335.343,-367.493 345.933,-367.825 343.829,-361.149"/>
</g>
<!-- Node11 -->
<g id="node22" class="node"><title>Node11</title>
<a xlink:href="classtransfer_1_1MPIThreadCache_1_1Adder.xhtml" target="_top" xlink:title="transfer::MPIThreadCache\l::Adder">
<polygon fill="white" stroke="black" points="1000,-320 1000,-354 1132,-354 1132,-320 1000,-320"/>
<text text-anchor="start" x="1008" y="-341" font-family="Helvetica,sans-Serif" font-size="10.00">transfer::MPIThreadCache</text>
<text text-anchor="middle" x="1066" y="-328" font-family="Helvetica,sans-Serif" font-size="10.00">::Adder</text>
</a>
</g>
<!-- Node2&#45;&gt;Node11 -->
<g id="edge26" class="edge"><title>Node2&#45;&gt;Node11</title>
<path fill="none" stroke="midnightblue" d="M350.85,-378.894C385.277,-379.514 432.459,-380.342 474,-381 699.765,-384.574 764.294,-446.89 982,-387 1005.24,-380.608 1028.54,-365.923 1044.69,-354.112"/>
<polygon fill="midnightblue" stroke="midnightblue" points="350.657,-375.39 340.596,-378.709 350.531,-382.389 350.657,-375.39"/>
</g>
<!-- Node12 -->
<g id="node26" class="node"><title>Node12</title>
<a xlink:href="classtransfer_1_1MPIThreadCache_1_1BlockTransferer.xhtml" target="_top" xlink:title="transfer::MPIThreadCache\l::BlockTransferer">
<polygon fill="white" stroke="black" points="1000,-212 1000,-246 1132,-246 1132,-212 1000,-212"/>
<text text-anchor="start" x="1008" y="-233" font-family="Helvetica,sans-Serif" font-size="10.00">transfer::MPIThreadCache</text>
<text text-anchor="middle" x="1066" y="-220" font-family="Helvetica,sans-Serif" font-size="10.00">::BlockTransferer</text>
</a>
</g>
<!-- Node2&#45;&gt;Node12 -->
<g id="edge32" class="edge"><title>Node2&#45;&gt;Node12</title>
<path fill="none" stroke="midnightblue" d="M323.82,-361.375C373.627,-324.709 500.92,-238.16 624,-213 755.089,-186.203 912.503,-203.298 999.671,-216.949"/>
<polygon fill="midnightblue" stroke="midnightblue" points="321.636,-358.638 315.704,-367.416 325.816,-364.253 321.636,-358.638"/>
</g>
<!-- Node13 -->
<g id="node31" class="node"><title>Node13</title>
<a xlink:href="classtransfer_1_1MPIThreadCache_1_1Deleter.xhtml" target="_top" xlink:title="transfer::MPIThreadCache\l::Deleter">
<polygon fill="white" stroke="black" points="1000,-417 1000,-451 1132,-451 1132,-417 1000,-417"/>
<text text-anchor="start" x="1008" y="-438" font-family="Helvetica,sans-Serif" font-size="10.00">transfer::MPIThreadCache</text>
<text text-anchor="middle" x="1066" y="-425" font-family="Helvetica,sans-Serif" font-size="10.00">::Deleter</text>
</a>
</g>
<!-- Node2&#45;&gt;Node13 -->
<g id="edge40" class="edge"><title>Node2&#45;&gt;Node13</title>
<path fill="none" stroke="midnightblue" d="M350.578,-389.008C359.66,-390.844 369.096,-392.602 378,-394 606.67,-429.891 664.842,-435.984 896,-448 934.171,-449.984 943.908,-451.153 982,-448 987.746,-447.524 993.691,-446.869 999.641,-446.099"/>
<polygon fill="midnightblue" stroke="midnightblue" points="351.023,-385.526 340.52,-386.918 349.599,-392.38 351.023,-385.526"/>
</g>
<!-- Node3&#45;&gt;Node1 -->
<g id="edge4" class="edge"><title>Node3&#45;&gt;Node1</title>
<path fill="none" stroke="#9a32cd" stroke-dasharray="5,2" d="M751.635,-273.875C714.571,-268.313 666.261,-264.451 624,-272 608.391,-274.788 591.886,-280.276 577.676,-285.869"/>
<polygon fill="#9a32cd" stroke="#9a32cd" points="751.353,-277.373 761.777,-275.48 752.447,-270.459 751.353,-277.373"/>
<text text-anchor="middle" x="676" y="-276" font-family="Helvetica,sans-Serif" font-size="10.00"> m_parent</text>
</g>
<!-- Node3&#45;&gt;Node11 -->
<g id="edge28" class="edge"><title>Node3&#45;&gt;Node11</title>
<path fill="none" stroke="#9a32cd" stroke-dasharray="5,2" d="M888.555,-285.51C918.135,-286.845 952.016,-290.262 982,-298 1000.84,-302.862 1020.63,-311.84 1036.27,-319.958"/>
<polygon fill="#9a32cd" stroke="#9a32cd" points="888.41,-282.002 878.284,-285.121 888.145,-288.997 888.41,-282.002"/>
<text text-anchor="middle" x="939" y="-302" font-family="Helvetica,sans-Serif" font-size="10.00"> m_parent</text>
</g>
<!-- Node3&#45;&gt;Node12 -->
<g id="edge34" class="edge"><title>Node3&#45;&gt;Node12</title>
<path fill="none" stroke="#9a32cd" stroke-dasharray="5,2" d="M831.793,-268.719C847.873,-255.87 871.783,-239.345 896,-232 929.191,-221.933 967.727,-220.475 999.709,-221.844"/>
<polygon fill="#9a32cd" stroke="#9a32cd" points="829.191,-266.328 823.713,-275.397 833.651,-271.724 829.191,-266.328"/>
<text text-anchor="middle" x="939" y="-236" font-family="Helvetica,sans-Serif" font-size="10.00"> m_parent</text>
</g>
<!-- Node3&#45;&gt;Node13 -->
<g id="edge42" class="edge"><title>Node3&#45;&gt;Node13</title>
<path fill="none" stroke="#9a32cd" stroke-dasharray="5,2" d="M819.794,-306.198C831.688,-334.078 857.163,-383.662 896,-408 926.739,-427.263 966.594,-434.098 999.986,-435.962"/>
<polygon fill="#9a32cd" stroke="#9a32cd" points="822.924,-304.606 815.901,-296.673 816.444,-307.254 822.924,-304.606"/>
<text text-anchor="middle" x="939" y="-438" font-family="Helvetica,sans-Serif" font-size="10.00"> m_parent</text>
</g>
<!-- Node4 -->
<g id="node6" class="node"><title>Node4</title>
<a xlink:href="classtransfer_1_1MPICache.xhtml" target="_top" xlink:title="transfer::MPICache\l\&lt; allocator::Default \&gt;">
<polygon fill="white" stroke="black" points="485.5,-338 485.5,-372 594.5,-372 594.5,-338 485.5,-338"/>
<text text-anchor="start" x="493.5" y="-359" font-family="Helvetica,sans-Serif" font-size="10.00">transfer::MPICache</text>
<text text-anchor="middle" x="540" y="-346" font-family="Helvetica,sans-Serif" font-size="10.00">&lt; allocator::Default &gt;</text>
</a>
</g>
<!-- Node4&#45;&gt;Node3 -->
<g id="edge6" class="edge"><title>Node4&#45;&gt;Node3</title>
<path fill="none" stroke="#8b1a1a" d="M604.683,-342.675C641.134,-335.285 687.368,-325.168 728,-314 746.38,-308.948 766.662,-302.221 782.692,-296.627"/>
<polygon fill="#8b1a1a" stroke="#8b1a1a" points="603.788,-339.284 594.674,-344.685 605.167,-346.147 603.788,-339.284"/>
</g>
<!-- Node5 -->
<g id="node8" class="node"><title>Node5</title>
<a xlink:href="classcache_1_1CacheManager.xhtml" target="_top" xlink:title="Manages a block cache. ">
<polygon fill="white" stroke="black" points="482.5,-122.5 482.5,-143.5 597.5,-143.5 597.5,-122.5 482.5,-122.5"/>
<text text-anchor="middle" x="540" y="-130.5" font-family="Helvetica,sans-Serif" font-size="10.00">cache::CacheManager</text>
</a>
</g>
<!-- Node5&#45;&gt;Node3 -->
<g id="edge8" class="edge"><title>Node5&#45;&gt;Node3</title>
<path fill="none" stroke="#9a32cd" stroke-dasharray="5,2" d="M607.665,-144.003C645.291,-152.369 691.7,-166.568 728,-190 763.724,-213.06 793.112,-255.53 805.573,-275.324"/>
<polygon fill="#9a32cd" stroke="#9a32cd" points="608.313,-140.562 597.802,-141.897 606.851,-147.408 608.313,-140.562"/>
<text text-anchor="middle" x="676" y="-194" font-family="Helvetica,sans-Serif" font-size="10.00"> m_cacheManager</text>
</g>
<!-- Node6 -->
<g id="node10" class="node"><title>Node6</title>
<a xlink:href="classthreads_1_1PthreadMutex.xhtml" target="_top" xlink:title="threads::PthreadMutex">
<polygon fill="white" stroke="black" points="244,-122.5 244,-143.5 360,-143.5 360,-122.5 244,-122.5"/>
<text text-anchor="middle" x="302" y="-130.5" font-family="Helvetica,sans-Serif" font-size="10.00">threads::PthreadMutex</text>
</a>
</g>
<!-- Node6&#45;&gt;Node3 -->
<g id="edge22" class="edge"><title>Node6&#45;&gt;Node3</title>
<path fill="none" stroke="#9a32cd" stroke-dasharray="5,2" d="M338.344,-118.906C395.666,-98.6007 510.389,-65.7662 606,-87 664.425,-99.9753 683.677,-103.785 728,-144 771.062,-183.071 798.65,-249.467 808.227,-275.285"/>
<polygon fill="#9a32cd" stroke="#9a32cd" points="336.867,-115.719 328.656,-122.414 339.251,-122.301 336.867,-115.719"/>
<text text-anchor="middle" x="540" y="-104" font-family="Helvetica,sans-Serif" font-size="10.00"> m_sendRecvMutex</text>
<text text-anchor="middle" x="540" y="-91" font-family="Helvetica,sans-Serif" font-size="10.00">m_mutexes</text>
</g>
<!-- Node6&#45;&gt;Node5 -->
<g id="edge10" class="edge"><title>Node6&#45;&gt;Node5</title>
<path fill="none" stroke="#9a32cd" stroke-dasharray="5,2" d="M370.482,-133C405.908,-133 448.668,-133 482.38,-133"/>
<polygon fill="#9a32cd" stroke="#9a32cd" points="370.221,-129.5 360.221,-133 370.221,-136.5 370.221,-129.5"/>
<text text-anchor="middle" x="417" y="-137" font-family="Helvetica,sans-Serif" font-size="10.00"> m_blockMutexes</text>
</g>
<!-- Node10 -->
<g id="node18" class="node"><title>Node10</title>
<a xlink:href="classmpi_1_1MPIComm.xhtml" target="_top" xlink:title="mpi::MPIComm">
<polygon fill="white" stroke="black" points="497,-162.5 497,-183.5 583,-183.5 583,-162.5 497,-162.5"/>
<text text-anchor="middle" x="540" y="-170.5" font-family="Helvetica,sans-Serif" font-size="10.00">mpi::MPIComm</text>
</a>
</g>
<!-- Node6&#45;&gt;Node10 -->
<g id="edge20" class="edge"><title>Node6&#45;&gt;Node10</title>
<path fill="none" stroke="#9a32cd" stroke-dasharray="5,2" d="M359.938,-145.575C366.027,-146.784 372.133,-147.949 378,-149 418.16,-156.195 464.2,-162.865 496.908,-167.338"/>
<polygon fill="#9a32cd" stroke="#9a32cd" points="360.249,-142.067 349.753,-143.513 358.86,-148.928 360.249,-142.067"/>
<text text-anchor="middle" x="417" y="-165" font-family="Helvetica,sans-Serif" font-size="10.00"> mpiLock</text>
</g>
<!-- Node7 -->
<g id="node12" class="node"><title>Node7</title>
<a xlink:href="classcache_1_1CacheList.xhtml" target="_top" xlink:title="Controls a list of blocks. ">
<polygon fill="white" stroke="black" points="255.5,-39.5 255.5,-60.5 348.5,-60.5 348.5,-39.5 255.5,-39.5"/>
<text text-anchor="middle" x="302" y="-47.5" font-family="Helvetica,sans-Serif" font-size="10.00">cache::CacheList</text>
</a>
</g>
<!-- Node7&#45;&gt;Node5 -->
<g id="edge12" class="edge"><title>Node7&#45;&gt;Node5</title>
<path fill="none" stroke="#9a32cd" stroke-dasharray="5,2" d="M341.751,-63.8627C389.068,-80.3639 467.032,-107.553 509.727,-122.443"/>
<polygon fill="#9a32cd" stroke="#9a32cd" points="342.738,-60.5002 332.143,-60.512 340.433,-67.1098 342.738,-60.5002"/>
<text text-anchor="middle" x="417" y="-105" font-family="Helvetica,sans-Serif" font-size="10.00"> m_cacheList</text>
</g>
<!-- Node8 -->
<g id="node14" class="node"><title>Node8</title>
<a xlink:href="classcache_1_1LRU.xhtml" target="_top" xlink:title="cache::LRU">
<polygon fill="white" stroke="black" points="31.5,-66.5 31.5,-87.5 100.5,-87.5 100.5,-66.5 31.5,-66.5"/>
<text text-anchor="middle" x="66" y="-74.5" font-family="Helvetica,sans-Serif" font-size="10.00">cache::LRU</text>
</a>
</g>
<!-- Node8&#45;&gt;Node7 -->
<g id="edge14" class="edge"><title>Node8&#45;&gt;Node7</title>
<path fill="none" stroke="#9a32cd" stroke-dasharray="5,2" d="M110.618,-71.8955C151.92,-67.1702 213.113,-60.1693 255.122,-55.3631"/>
<polygon fill="#9a32cd" stroke="#9a32cd" points="110.107,-68.431 100.569,-73.0451 110.902,-75.3856 110.107,-68.431"/>
<text text-anchor="middle" x="188" y="-70" font-family="Helvetica,sans-Serif" font-size="10.00"> m_lru</text>
</g>
<!-- Node9 -->
<g id="node16" class="node"><title>Node9</title>
<polygon fill="white" stroke="#bfbfbf" points="0.5,-0.5 0.5,-47.5 131.5,-47.5 131.5,-0.5 0.5,-0.5"/>
<text text-anchor="start" x="8.5" y="-34.5" font-family="Helvetica,sans-Serif" font-size="10.00">std::unordered_map</text>
<text text-anchor="start" x="8.5" y="-21.5" font-family="Helvetica,sans-Serif" font-size="10.00">&lt; unsigned long, unsigned</text>
<text text-anchor="middle" x="66" y="-8.5" font-family="Helvetica,sans-Serif" font-size="10.00"> long &gt;</text>
</g>
<!-- Node9&#45;&gt;Node7 -->
<g id="edge16" class="edge"><title>Node9&#45;&gt;Node7</title>
<path fill="none" stroke="#9a32cd" stroke-dasharray="5,2" d="M142.066,-32.3801C179.333,-36.4859 223.016,-41.2984 255.304,-44.8555"/>
<polygon fill="#9a32cd" stroke="#9a32cd" points="142.062,-28.8587 131.739,-31.2424 141.296,-35.8166 142.062,-28.8587"/>
<text text-anchor="middle" x="188" y="-45" font-family="Helvetica,sans-Serif" font-size="10.00"> m_blockToIndex</text>
</g>
<!-- Node10&#45;&gt;Node3 -->
<g id="edge18" class="edge"><title>Node10&#45;&gt;Node3</title>
<path fill="none" stroke="#9a32cd" stroke-dasharray="5,2" d="M575.776,-187.452C613.651,-202.8 675.145,-227.852 728,-250 748.194,-258.462 771.026,-268.262 787.783,-275.499"/>
<polygon fill="#9a32cd" stroke="#9a32cd" points="576.793,-184.089 566.211,-183.58 574.166,-190.577 576.793,-184.089"/>
<text text-anchor="middle" x="676" y="-254" font-family="Helvetica,sans-Serif" font-size="10.00"> m_mpiComm</text>
</g>
<!-- Node11&#45;&gt;Node3 -->
<g id="edge24" class="edge"><title>Node11&#45;&gt;Node3</title>
<path fill="none" stroke="#9a32cd" stroke-dasharray="5,2" d="M989.422,-330.444C959.976,-327.05 926.193,-322.087 896,-315 876.174,-310.346 854.461,-302.781 838.077,-296.545"/>
<polygon fill="#9a32cd" stroke="#9a32cd" points="989.318,-333.954 999.644,-331.58 990.091,-326.997 989.318,-333.954"/>
<text text-anchor="middle" x="939" y="-333" font-family="Helvetica,sans-Serif" font-size="10.00"> m_adder</text>
</g>
<!-- Node12&#45;&gt;Node3 -->
<g id="edge30" class="edge"><title>Node12&#45;&gt;Node3</title>
<path fill="none" stroke="#9a32cd" stroke-dasharray="5,2" d="M989.991,-246.057C947.381,-255.619 895.587,-267.242 858.884,-275.479"/>
<polygon fill="#9a32cd" stroke="#9a32cd" points="990.779,-249.467 999.77,-243.863 989.246,-242.637 990.779,-249.467"/>
<text text-anchor="middle" x="939" y="-269" font-family="Helvetica,sans-Serif" font-size="10.00"> m_blockTransferer</text>
</g>
<!-- Node13&#45;&gt;Node3 -->
<g id="edge38" class="edge"><title>Node13&#45;&gt;Node3</title>
<path fill="none" stroke="#9a32cd" stroke-dasharray="5,2" d="M1019.94,-412.373C985.178,-395.525 936.685,-370.886 896,-346 870.163,-330.196 841.831,-309.11 825.558,-296.603"/>
<polygon fill="#9a32cd" stroke="#9a32cd" points="1018.83,-415.725 1029.36,-416.912 1021.87,-409.419 1018.83,-415.725"/>
<text text-anchor="middle" x="939" y="-395" font-family="Helvetica,sans-Serif" font-size="10.00"> m_deleter</text>
</g>
</g>
</svg>
