<?xml version="1.0" encoding="UTF-8" standalone="no"?>
<!DOCTYPE svg PUBLIC "-//W3C//DTD SVG 1.1//EN"
 "http://www.w3.org/Graphics/SVG/1.1/DTD/svg11.dtd">
<!-- Generated by graphviz version 2.26.3 (20100126.1600)
 -->
<!-- Title: types::StructType&lt; T &gt; Pages: 1 -->
<svg width="126pt" height="146pt"
 viewBox="0.00 0.00 126.00 146.00" xmlns="http://www.w3.org/2000/svg" xmlns:xlink="http://www.w3.org/1999/xlink">
<g id="graph1" class="graph" transform="scale(1 1) rotate(0) translate(4 142)">
<title>types::StructType&lt; T &gt;</title>
<polygon fill="white" stroke="white" points="-4,5 -4,-142 123,-142 123,5 -4,5"/>
<!-- Node1 -->
<g id="node1" class="node"><title>Node1</title>
<polygon fill="#bfbfbf" stroke="black" points="-0.5,-0.5 -0.5,-21.5 118.5,-21.5 118.5,-0.5 -0.5,-0.5"/>
<text text-anchor="middle" x="59" y="-8.5" font-family="Helvetica,sans-Serif" font-size="10.00">types::StructType&lt; T &gt;</text>
</g>
<!-- Node2 -->
<g id="node2" class="node"><title>Node2</title>
<a xlink:href="classtypes_1_1BasicType.xhtml" target="_top" xlink:title="types::BasicType\&lt; T \&gt;">
<polygon fill="white" stroke="black" points="0.5,-58.5 0.5,-79.5 117.5,-79.5 117.5,-58.5 0.5,-58.5"/>
<text text-anchor="middle" x="59" y="-66.5" font-family="Helvetica,sans-Serif" font-size="10.00">types::BasicType&lt; T &gt;</text>
</a>
</g>
<!-- Node2&#45;&gt;Node1 -->
<g id="edge2" class="edge"><title>Node2&#45;&gt;Node1</title>
<path fill="none" stroke="midnightblue" d="M59,-48.1906C59,-39.1684 59,-28.9941 59,-21.5707"/>
<polygon fill="midnightblue" stroke="midnightblue" points="55.5001,-48.3619 59,-58.3619 62.5001,-48.3619 55.5001,-48.3619"/>
</g>
<!-- Node3 -->
<g id="node4" class="node"><title>Node3</title>
<a xlink:href="classtypes_1_1Type.xhtml" target="_top" xlink:title="types::Type">
<polygon fill="white" stroke="black" points="25,-116.5 25,-137.5 93,-137.5 93,-116.5 25,-116.5"/>
<text text-anchor="middle" x="59" y="-124.5" font-family="Helvetica,sans-Serif" font-size="10.00">types::Type</text>
</a>
</g>
<!-- Node3&#45;&gt;Node2 -->
<g id="edge4" class="edge"><title>Node3&#45;&gt;Node2</title>
<path fill="none" stroke="midnightblue" d="M59,-106.191C59,-97.1684 59,-86.9941 59,-79.5707"/>
<polygon fill="midnightblue" stroke="midnightblue" points="55.5001,-106.362 59,-116.362 62.5001,-106.362 55.5001,-106.362"/>
</g>
</g>
</svg>
