<?xml version="1.0" encoding="UTF-8" standalone="no"?>
<!DOCTYPE svg PUBLIC "-//W3C//DTD SVG 1.1//EN"
 "http://www.w3.org/Graphics/SVG/1.1/DTD/svg11.dtd">
<!-- Generated by graphviz version 2.26.3 (20100126.1600)
 -->
<!-- Title: G Pages: 1 -->
<svg width="212pt" height="146pt"
 viewBox="0.00 0.00 212.00 146.00" xmlns="http://www.w3.org/2000/svg" xmlns:xlink="http://www.w3.org/1999/xlink">
<g id="graph1" class="graph" transform="scale(1 1) rotate(0) translate(4 142)">
<title>G</title>
<polygon fill="white" stroke="white" points="-4,5 -4,-142 209,-142 209,5 -4,5"/>
<!-- Node1 -->
<g id="node1" class="node"><title>Node1</title>
<polygon fill="#bfbfbf" stroke="black" points="35.5,-0.5 35.5,-21.5 172.5,-21.5 172.5,-0.5 35.5,-0.5"/>
<text text-anchor="middle" x="104" y="-8.5" font-family="Helvetica,sans-Serif" font-size="10.00">grid::AdaptiveGridContainer</text>
</g>
<!-- Node2 -->
<g id="node2" class="node"><title>Node2</title>
<a xlink:href="classgrid_1_1GridContainer.xhtml" target="_top" xlink:title="grid::GridContainer">
<polygon fill="white" stroke="black" points="0,-58.5 0,-79.5 98,-79.5 98,-58.5 0,-58.5"/>
<text text-anchor="middle" x="49" y="-66.5" font-family="Helvetica,sans-Serif" font-size="10.00">grid::GridContainer</text>
</a>
</g>
<!-- Node2&#45;&gt;Node1 -->
<g id="edge2" class="edge"><title>Node2&#45;&gt;Node1</title>
<path fill="none" stroke="midnightblue" d="M66.2302,-50.8299C75.3546,-41.2078 86.2405,-29.7282 93.9761,-21.5707"/>
<polygon fill="midnightblue" stroke="midnightblue" points="63.4291,-48.6973 59.0878,-58.3619 68.5085,-53.514 63.4291,-48.6973"/>
</g>
<!-- Node3 -->
<g id="node4" class="node"><title>Node3</title>
<a xlink:href="classasagi_1_1Grid.xhtml" target="_top" xlink:title="C++ Interface for ASAGI.">
<polygon fill="white" stroke="black" points="17,-116.5 17,-137.5 81,-137.5 81,-116.5 17,-116.5"/>
<text text-anchor="middle" x="49" y="-124.5" font-family="Helvetica,sans-Serif" font-size="10.00">asagi::Grid</text>
</a>
</g>
<!-- Node3&#45;&gt;Node2 -->
<g id="edge4" class="edge"><title>Node3&#45;&gt;Node2</title>
<path fill="none" stroke="midnightblue" d="M49,-106.191C49,-97.1684 49,-86.9941 49,-79.5707"/>
<polygon fill="midnightblue" stroke="midnightblue" points="45.5001,-106.362 49,-116.362 52.5001,-106.362 45.5001,-106.362"/>
</g>
<!-- Node4 -->
<g id="node6" class="node"><title>Node4</title>
<a xlink:href="classgrid_1_1GridCreator.xhtml" target="_top" xlink:title="grid::GridCreator">
<polygon fill="white" stroke="black" points="115.5,-58.5 115.5,-79.5 204.5,-79.5 204.5,-58.5 115.5,-58.5"/>
<text text-anchor="middle" x="160" y="-66.5" font-family="Helvetica,sans-Serif" font-size="10.00">grid::GridCreator</text>
</a>
</g>
<!-- Node4&#45;&gt;Node1 -->
<g id="edge6" class="edge"><title>Node4&#45;&gt;Node1</title>
<path fill="none" stroke="#8b1a1a" d="M142.735,-51.118C133.388,-41.4377 122.161,-29.8098 114.206,-21.5707"/>
<polygon fill="#8b1a1a" stroke="#8b1a1a" points="140.265,-53.599 149.729,-58.3619 145.301,-48.7368 140.265,-53.599"/>
</g>
</g>
</svg>
