<?xml version="1.0" encoding="UTF-8" standalone="no"?>
<!DOCTYPE svg PUBLIC "-//W3C//DTD SVG 1.1//EN"
 "http://www.w3.org/Graphics/SVG/1.1/DTD/svg11.dtd">
<!-- Generated by graphviz version 2.26.3 (20100126.1600)
 -->
<!-- Title: transfer::MPIThreadCache::BlockTransferer Pages: 1 -->
<svg width="1140pt" height="459pt"
 viewBox="0.00 0.00 1140.00 459.00" xmlns="http://www.w3.org/2000/svg" xmlns:xlink="http://www.w3.org/1999/xlink">
<g id="graph1" class="graph" transform="scale(1 1) rotate(0) translate(4 455)">
<title>transfer::MPIThreadCache::BlockTransferer</title>
<polygon fill="white" stroke="white" points="-4,5 -4,-455 1137,-455 1137,5 -4,5"/>
<!-- Node1 -->
<g id="node1" class="node"><title>Node1</title>
<polygon fill="#bfbfbf" stroke="black" points="474,-286 474,-320 606,-320 606,-286 474,-286"/>
<text text-anchor="start" x="482" y="-307" font-family="Helvetica,sans-Serif" font-size="10.00">transfer::MPIThreadCache</text>
<text text-anchor="middle" x="540" y="-294" font-family="Helvetica,sans-Serif" font-size="10.00">::BlockTransferer</text>
</g>
<!-- Node3 -->
<g id="node4" class="node"><title>Node3</title>
<a xlink:href="classtransfer_1_1MPIThreadCache.xhtml" target="_top" xlink:title="transfer::MPIThreadCache">
<polygon fill="white" stroke="black" points="728,-275.5 728,-296.5 860,-296.5 860,-275.5 728,-275.5"/>
<text text-anchor="middle" x="794" y="-283.5" font-family="Helvetica,sans-Serif" font-size="10.00">transfer::MPIThreadCache</text>
</a>
</g>
<!-- Node1&#45;&gt;Node3 -->
<g id="edge30" class="edge"><title>Node1&#45;&gt;Node3</title>
<path fill="none" stroke="#9a32cd" stroke-dasharray="5,2" d="M616.386,-297.888C651.883,-295.512 693.686,-292.714 727.818,-290.43"/>
<polygon fill="#9a32cd" stroke="#9a32cd" points="615.816,-294.418 606.072,-298.578 616.284,-301.402 615.816,-294.418"/>
<text text-anchor="middle" x="667" y="-301" font-family="Helvetica,sans-Serif" font-size="10.00"> m_blockTransferer</text>
</g>
<!-- Node2 -->
<g id="node2" class="node"><title>Node2</title>
<a xlink:href="classmpi_1_1Receiver.xhtml" target="_top" xlink:title="mpi::Receiver">
<polygon fill="white" stroke="black" points="263.5,-367.5 263.5,-388.5 340.5,-388.5 340.5,-367.5 263.5,-367.5"/>
<text text-anchor="middle" x="302" y="-375.5" font-family="Helvetica,sans-Serif" font-size="10.00">mpi::Receiver</text>
</a>
</g>
<!-- Node2&#45;&gt;Node1 -->
<g id="edge2" class="edge"><title>Node2&#45;&gt;Node1</title>
<path fill="none" stroke="midnightblue" d="M344.946,-364.467C384.428,-352.025 443.137,-333.524 485.826,-320.072"/>
<polygon fill="midnightblue" stroke="midnightblue" points="343.829,-361.149 335.343,-367.493 345.933,-367.825 343.829,-361.149"/>
</g>
<!-- Node11 -->
<g id="node22" class="node"><title>Node11</title>
<a xlink:href="classtransfer_1_1MPIThreadCache_1_1Adder.xhtml" target="_top" xlink:title="transfer::MPIThreadCache\l::Adder">
<polygon fill="white" stroke="black" points="1000,-320 1000,-354 1132,-354 1132,-320 1000,-320"/>
<text text-anchor="start" x="1008" y="-341" font-family="Helvetica,sans-Serif" font-size="10.00">transfer::MPIThreadCache</text>
<text text-anchor="middle" x="1066" y="-328" font-family="Helvetica,sans-Serif" font-size="10.00">::Adder</text>
</a>
</g>
<!-- Node2&#45;&gt;Node11 -->
<g id="edge26" class="edge"><title>Node2&#45;&gt;Node11</title>
<path fill="none" stroke="midnightblue" d="M350.85,-378.886C385.277,-379.502 432.459,-380.329 474,-381 699.764,-384.645 764.294,-446.89 982,-387 1005.24,-380.608 1028.54,-365.923 1044.69,-354.112"/>
<polygon fill="midnightblue" stroke="midnightblue" points="350.657,-375.382 340.596,-378.702 350.531,-382.381 350.657,-375.382"/>
</g>
<!-- Node12 -->
<g id="node27" class="node"><title>Node12</title>
<a xlink:href="classtransfer_1_1MPIThreadCache_1_1BlockInfoResponder.xhtml" target="_top" xlink:title="transfer::MPIThreadCache\l::BlockInfoResponder">
<polygon fill="white" stroke="black" points="1000,-212 1000,-246 1132,-246 1132,-212 1000,-212"/>
<text text-anchor="start" x="1008" y="-233" font-family="Helvetica,sans-Serif" font-size="10.00">transfer::MPIThreadCache</text>
<text text-anchor="middle" x="1066" y="-220" font-family="Helvetica,sans-Serif" font-size="10.00">::BlockInfoResponder</text>
</a>
</g>
<!-- Node2&#45;&gt;Node12 -->
<g id="edge34" class="edge"><title>Node2&#45;&gt;Node12</title>
<path fill="none" stroke="midnightblue" d="M323.82,-361.375C373.627,-324.709 500.92,-238.16 624,-213 779.887,-181.134 823.593,-198.048 982,-213 987.764,-213.544 993.722,-214.294 999.68,-215.174"/>
<polygon fill="midnightblue" stroke="midnightblue" points="321.636,-358.638 315.704,-367.416 325.816,-364.253 321.636,-358.638"/>
</g>
<!-- Node13 -->
<g id="node31" class="node"><title>Node13</title>
<a xlink:href="classtransfer_1_1MPIThreadCache_1_1Deleter.xhtml" target="_top" xlink:title="transfer::MPIThreadCache\l::Deleter">
<polygon fill="white" stroke="black" points="1000,-417 1000,-451 1132,-451 1132,-417 1000,-417"/>
<text text-anchor="start" x="1008" y="-438" font-family="Helvetica,sans-Serif" font-size="10.00">transfer::MPIThreadCache</text>
<text text-anchor="middle" x="1066" y="-425" font-family="Helvetica,sans-Serif" font-size="10.00">::Deleter</text>
</a>
</g>
<!-- Node2&#45;&gt;Node13 -->
<g id="edge40" class="edge"><title>Node2&#45;&gt;Node13</title>
<path fill="none" stroke="midnightblue" d="M350.58,-388.996C359.662,-390.833 369.097,-392.595 378,-394 598.734,-428.841 654.844,-435.206 878,-447 924.158,-449.44 935.914,-450.545 982,-447 987.738,-446.559 993.678,-445.95 999.624,-445.235"/>
<polygon fill="midnightblue" stroke="midnightblue" points="351.025,-385.513 340.522,-386.905 349.601,-392.367 351.025,-385.513"/>
</g>
<!-- Node3&#45;&gt;Node1 -->
<g id="edge4" class="edge"><title>Node3&#45;&gt;Node1</title>
<path fill="none" stroke="#9a32cd" stroke-dasharray="5,2" d="M736.109,-273.865C703.068,-268.773 660.987,-265.393 624,-272 608.391,-274.788 591.886,-280.276 577.676,-285.869"/>
<polygon fill="#9a32cd" stroke="#9a32cd" points="735.624,-277.332 746.058,-275.491 736.753,-270.424 735.624,-277.332"/>
<text text-anchor="middle" x="667" y="-276" font-family="Helvetica,sans-Serif" font-size="10.00"> m_parent</text>
</g>
<!-- Node3&#45;&gt;Node11 -->
<g id="edge28" class="edge"><title>Node3&#45;&gt;Node11</title>
<path fill="none" stroke="#9a32cd" stroke-dasharray="5,2" d="M870.219,-284.498C904.801,-285.433 945.941,-288.823 982,-298 1000.85,-302.798 1020.65,-311.773 1036.29,-319.905"/>
<polygon fill="#9a32cd" stroke="#9a32cd" points="870.251,-280.998 860.181,-284.29 870.106,-287.997 870.251,-280.998"/>
<text text-anchor="middle" x="930" y="-302" font-family="Helvetica,sans-Serif" font-size="10.00"> m_parent</text>
</g>
<!-- Node3&#45;&gt;Node12 -->
<g id="edge36" class="edge"><title>Node3&#45;&gt;Node12</title>
<path fill="none" stroke="#9a32cd" stroke-dasharray="5,2" d="M812.265,-268.437C828.185,-254.433 852.642,-235.904 878,-228 917.107,-215.811 963.053,-215.813 999.733,-218.983"/>
<polygon fill="#9a32cd" stroke="#9a32cd" points="809.799,-265.948 804.759,-275.267 814.51,-271.126 809.799,-265.948"/>
<text text-anchor="middle" x="930" y="-232" font-family="Helvetica,sans-Serif" font-size="10.00"> m_parent</text>
</g>
<!-- Node3&#45;&gt;Node13 -->
<g id="edge42" class="edge"><title>Node3&#45;&gt;Node13</title>
<path fill="none" stroke="#9a32cd" stroke-dasharray="5,2" d="M801.163,-306.23C812.538,-335.084 837.668,-387.292 878,-412 897.965,-424.231 953.955,-429.662 999.678,-432.074"/>
<polygon fill="#9a32cd" stroke="#9a32cd" points="804.392,-304.875 797.591,-296.751 797.842,-307.343 804.392,-304.875"/>
<text text-anchor="middle" x="930" y="-434" font-family="Helvetica,sans-Serif" font-size="10.00"> m_parent</text>
</g>
<!-- Node4 -->
<g id="node6" class="node"><title>Node4</title>
<a xlink:href="classtransfer_1_1MPICache.xhtml" target="_top" xlink:title="transfer::MPICache\l\&lt; allocator::Default \&gt;">
<polygon fill="white" stroke="black" points="485.5,-338 485.5,-372 594.5,-372 594.5,-338 485.5,-338"/>
<text text-anchor="start" x="493.5" y="-359" font-family="Helvetica,sans-Serif" font-size="10.00">transfer::MPICache</text>
<text text-anchor="middle" x="540" y="-346" font-family="Helvetica,sans-Serif" font-size="10.00">&lt; allocator::Default &gt;</text>
</a>
</g>
<!-- Node4&#45;&gt;Node3 -->
<g id="edge6" class="edge"><title>Node4&#45;&gt;Node3</title>
<path fill="none" stroke="#8b1a1a" d="M604.752,-340.748C636.617,-333.389 675.502,-323.89 710,-314 728.176,-308.789 748.277,-302.122 764.258,-296.601"/>
<polygon fill="#8b1a1a" stroke="#8b1a1a" points="603.632,-337.414 594.667,-343.06 605.196,-344.237 603.632,-337.414"/>
</g>
<!-- Node5 -->
<g id="node8" class="node"><title>Node5</title>
<a xlink:href="classcache_1_1CacheManager.xhtml" target="_top" xlink:title="Manages a block cache. ">
<polygon fill="white" stroke="black" points="482.5,-122.5 482.5,-143.5 597.5,-143.5 597.5,-122.5 482.5,-122.5"/>
<text text-anchor="middle" x="540" y="-130.5" font-family="Helvetica,sans-Serif" font-size="10.00">cache::CacheManager</text>
</a>
</g>
<!-- Node5&#45;&gt;Node3 -->
<g id="edge8" class="edge"><title>Node5&#45;&gt;Node3</title>
<path fill="none" stroke="#9a32cd" stroke-dasharray="5,2" d="M598.106,-146.266C632.681,-156.014 676.243,-171.677 710,-195 743.432,-218.099 773.285,-256.691 786.621,-275.31"/>
<polygon fill="#9a32cd" stroke="#9a32cd" points="598.716,-142.805 588.148,-143.55 596.875,-149.558 598.716,-142.805"/>
<text text-anchor="middle" x="667" y="-199" font-family="Helvetica,sans-Serif" font-size="10.00"> m_cacheManager</text>
</g>
<!-- Node6 -->
<g id="node10" class="node"><title>Node6</title>
<a xlink:href="classthreads_1_1PthreadMutex.xhtml" target="_top" xlink:title="threads::PthreadMutex">
<polygon fill="white" stroke="black" points="244,-122.5 244,-143.5 360,-143.5 360,-122.5 244,-122.5"/>
<text text-anchor="middle" x="302" y="-130.5" font-family="Helvetica,sans-Serif" font-size="10.00">threads::PthreadMutex</text>
</a>
</g>
<!-- Node6&#45;&gt;Node3 -->
<g id="edge22" class="edge"><title>Node6&#45;&gt;Node3</title>
<path fill="none" stroke="#9a32cd" stroke-dasharray="5,2" d="M336.022,-118.684C392.83,-96.8018 510.214,-60.2504 606,-87 658.05,-101.536 671.622,-111.952 710,-150 749.613,-189.272 778.805,-250.715 789.52,-275.303"/>
<polygon fill="#9a32cd" stroke="#9a32cd" points="334.483,-115.528 326.462,-122.449 337.049,-122.041 334.483,-115.528"/>
<text text-anchor="middle" x="540" y="-104" font-family="Helvetica,sans-Serif" font-size="10.00"> m_sendRecvMutex</text>
<text text-anchor="middle" x="540" y="-91" font-family="Helvetica,sans-Serif" font-size="10.00">m_mutexes</text>
</g>
<!-- Node6&#45;&gt;Node5 -->
<g id="edge10" class="edge"><title>Node6&#45;&gt;Node5</title>
<path fill="none" stroke="#9a32cd" stroke-dasharray="5,2" d="M370.482,-133C405.908,-133 448.668,-133 482.38,-133"/>
<polygon fill="#9a32cd" stroke="#9a32cd" points="370.221,-129.5 360.221,-133 370.221,-136.5 370.221,-129.5"/>
<text text-anchor="middle" x="417" y="-137" font-family="Helvetica,sans-Serif" font-size="10.00"> m_blockMutexes</text>
</g>
<!-- Node10 -->
<g id="node18" class="node"><title>Node10</title>
<a xlink:href="classmpi_1_1MPIComm.xhtml" target="_top" xlink:title="mpi::MPIComm">
<polygon fill="white" stroke="black" points="497,-162.5 497,-183.5 583,-183.5 583,-162.5 497,-162.5"/>
<text text-anchor="middle" x="540" y="-170.5" font-family="Helvetica,sans-Serif" font-size="10.00">mpi::MPIComm</text>
</a>
</g>
<!-- Node6&#45;&gt;Node10 -->
<g id="edge20" class="edge"><title>Node6&#45;&gt;Node10</title>
<path fill="none" stroke="#9a32cd" stroke-dasharray="5,2" d="M359.938,-145.575C366.027,-146.784 372.133,-147.949 378,-149 418.16,-156.195 464.2,-162.865 496.908,-167.338"/>
<polygon fill="#9a32cd" stroke="#9a32cd" points="360.249,-142.067 349.753,-143.513 358.86,-148.928 360.249,-142.067"/>
<text text-anchor="middle" x="417" y="-165" font-family="Helvetica,sans-Serif" font-size="10.00"> mpiLock</text>
</g>
<!-- Node7 -->
<g id="node12" class="node"><title>Node7</title>
<a xlink:href="classcache_1_1CacheList.xhtml" target="_top" xlink:title="Controls a list of blocks. ">
<polygon fill="white" stroke="black" points="255.5,-39.5 255.5,-60.5 348.5,-60.5 348.5,-39.5 255.5,-39.5"/>
<text text-anchor="middle" x="302" y="-47.5" font-family="Helvetica,sans-Serif" font-size="10.00">cache::CacheList</text>
</a>
</g>
<!-- Node7&#45;&gt;Node5 -->
<g id="edge12" class="edge"><title>Node7&#45;&gt;Node5</title>
<path fill="none" stroke="#9a32cd" stroke-dasharray="5,2" d="M341.751,-63.8627C389.068,-80.3639 467.032,-107.553 509.727,-122.443"/>
<polygon fill="#9a32cd" stroke="#9a32cd" points="342.738,-60.5002 332.143,-60.512 340.433,-67.1098 342.738,-60.5002"/>
<text text-anchor="middle" x="417" y="-105" font-family="Helvetica,sans-Serif" font-size="10.00"> m_cacheList</text>
</g>
<!-- Node8 -->
<g id="node14" class="node"><title>Node8</title>
<a xlink:href="classcache_1_1LRU.xhtml" target="_top" xlink:title="cache::LRU">
<polygon fill="white" stroke="black" points="31.5,-66.5 31.5,-87.5 100.5,-87.5 100.5,-66.5 31.5,-66.5"/>
<text text-anchor="middle" x="66" y="-74.5" font-family="Helvetica,sans-Serif" font-size="10.00">cache::LRU</text>
</a>
</g>
<!-- Node8&#45;&gt;Node7 -->
<g id="edge14" class="edge"><title>Node8&#45;&gt;Node7</title>
<path fill="none" stroke="#9a32cd" stroke-dasharray="5,2" d="M110.618,-71.8955C151.92,-67.1702 213.113,-60.1693 255.122,-55.3631"/>
<polygon fill="#9a32cd" stroke="#9a32cd" points="110.107,-68.431 100.569,-73.0451 110.902,-75.3856 110.107,-68.431"/>
<text text-anchor="middle" x="188" y="-70" font-family="Helvetica,sans-Serif" font-size="10.00"> m_lru</text>
</g>
<!-- Node9 -->
<g id="node16" class="node"><title>Node9</title>
<polygon fill="white" stroke="#bfbfbf" points="0.5,-0.5 0.5,-47.5 131.5,-47.5 131.5,-0.5 0.5,-0.5"/>
<text text-anchor="start" x="8.5" y="-34.5" font-family="Helvetica,sans-Serif" font-size="10.00">std::unordered_map</text>
<text text-anchor="start" x="8.5" y="-21.5" font-family="Helvetica,sans-Serif" font-size="10.00">&lt; unsigned long, unsigned</text>
<text text-anchor="middle" x="66" y="-8.5" font-family="Helvetica,sans-Serif" font-size="10.00"> long &gt;</text>
</g>
<!-- Node9&#45;&gt;Node7 -->
<g id="edge16" class="edge"><title>Node9&#45;&gt;Node7</title>
<path fill="none" stroke="#9a32cd" stroke-dasharray="5,2" d="M142.066,-32.3801C179.333,-36.4859 223.016,-41.2984 255.304,-44.8555"/>
<polygon fill="#9a32cd" stroke="#9a32cd" points="142.062,-28.8587 131.739,-31.2424 141.296,-35.8166 142.062,-28.8587"/>
<text text-anchor="middle" x="188" y="-45" font-family="Helvetica,sans-Serif" font-size="10.00"> m_blockToIndex</text>
</g>
<!-- Node10&#45;&gt;Node3 -->
<g id="edge18" class="edge"><title>Node10&#45;&gt;Node3</title>
<path fill="none" stroke="#9a32cd" stroke-dasharray="5,2" d="M573.356,-187.839C625.477,-211.027 724.954,-255.283 770.353,-275.48"/>
<polygon fill="#9a32cd" stroke="#9a32cd" points="574.455,-184.498 563.896,-183.631 571.61,-190.893 574.455,-184.498"/>
<text text-anchor="middle" x="667" y="-250" font-family="Helvetica,sans-Serif" font-size="10.00"> m_mpiComm</text>
</g>
<!-- Node11&#45;&gt;Node3 -->
<g id="edge24" class="edge"><title>Node11&#45;&gt;Node3</title>
<path fill="none" stroke="#9a32cd" stroke-dasharray="5,2" d="M989.727,-331.84C955.302,-328.549 914.303,-323.288 878,-315 858.146,-310.467 836.433,-302.899 820.057,-296.63"/>
<polygon fill="#9a32cd" stroke="#9a32cd" points="989.44,-335.328 999.719,-332.757 990.081,-328.357 989.44,-335.328"/>
<text text-anchor="middle" x="930" y="-334" font-family="Helvetica,sans-Serif" font-size="10.00"> m_adder</text>
</g>
<!-- Node12&#45;&gt;Node3 -->
<g id="edge32" class="edge"><title>Node12&#45;&gt;Node3</title>
<path fill="none" stroke="#9a32cd" stroke-dasharray="5,2" d="M989.866,-243.975C955.633,-250.815 914.748,-259.131 878,-267 865.573,-269.661 852.137,-272.65 839.733,-275.455"/>
<polygon fill="#9a32cd" stroke="#9a32cd" points="990.676,-247.383 999.799,-241.995 989.308,-240.518 990.676,-247.383"/>
<text text-anchor="middle" x="930" y="-271" font-family="Helvetica,sans-Serif" font-size="10.00"> m_blockInfoResponder</text>
</g>
<!-- Node13&#45;&gt;Node3 -->
<g id="edge38" class="edge"><title>Node13&#45;&gt;Node3</title>
<path fill="none" stroke="#9a32cd" stroke-dasharray="5,2" d="M1017.38,-412.79C970.423,-392.077 902.882,-361.604 878,-347 851.421,-331.4 822.87,-309.423 806.841,-296.549"/>
<polygon fill="#9a32cd" stroke="#9a32cd" points="1016.2,-416.098 1026.77,-416.923 1019.02,-409.691 1016.2,-416.098"/>
<text text-anchor="middle" x="930" y="-400" font-family="Helvetica,sans-Serif" font-size="10.00"> m_deleter</text>
</g>
</g>
</svg>
