<?xml version="1.0" encoding="UTF-8" standalone="no"?>
<!DOCTYPE svg PUBLIC "-//W3C//DTD SVG 1.1//EN"
 "http://www.w3.org/Graphics/SVG/1.1/DTD/svg11.dtd">
<!-- Generated by graphviz version 2.26.3 (20100126.1600)
 -->
<!-- Title: G Pages: 1 -->
<svg width="290pt" height="146pt"
 viewBox="0.00 0.00 290.00 146.00" xmlns="http://www.w3.org/2000/svg" xmlns:xlink="http://www.w3.org/1999/xlink">
<g id="graph1" class="graph" transform="scale(1 1) rotate(0) translate(4 142)">
<title>G</title>
<polygon fill="white" stroke="white" points="-4,5 -4,-142 287,-142 287,5 -4,5"/>
<!-- Node1 -->
<g id="node1" class="node"><title>Node1</title>
<polygon fill="#bfbfbf" stroke="black" points="111,-116.5 111,-137.5 175,-137.5 175,-116.5 111,-116.5"/>
<text text-anchor="middle" x="143" y="-124.5" font-family="Helvetica,sans-Serif" font-size="10.00">asagi::Grid</text>
</g>
<!-- Node2 -->
<g id="node3" class="node"><title>Node2</title>
<a xlink:href="classgrid_1_1GridContainer.xhtml" target="_top" xlink:title="grid::GridContainer">
<polygon fill="white" stroke="black" points="94,-58.5 94,-79.5 192,-79.5 192,-58.5 94,-58.5"/>
<text text-anchor="middle" x="143" y="-66.5" font-family="Helvetica,sans-Serif" font-size="10.00">grid::GridContainer</text>
</a>
</g>
<!-- Node1&#45;&gt;Node2 -->
<g id="edge2" class="edge"><title>Node1&#45;&gt;Node2</title>
<path fill="none" stroke="midnightblue" d="M143,-106.191C143,-97.1684 143,-86.9941 143,-79.5707"/>
<polygon fill="midnightblue" stroke="midnightblue" points="139.5,-106.362 143,-116.362 146.5,-106.362 139.5,-106.362"/>
</g>
<!-- Node3 -->
<g id="node5" class="node"><title>Node3</title>
<a xlink:href="classgrid_1_1AdaptiveGridContainer.xhtml" target="_top" xlink:title="An adaptive container that can store multiple grids of the same level.">
<polygon fill="white" stroke="black" points="-0.5,-0.5 -0.5,-21.5 136.5,-21.5 136.5,-0.5 -0.5,-0.5"/>
<text text-anchor="middle" x="68" y="-8.5" font-family="Helvetica,sans-Serif" font-size="10.00">grid::AdaptiveGridContainer</text>
</a>
</g>
<!-- Node2&#45;&gt;Node3 -->
<g id="edge4" class="edge"><title>Node2&#45;&gt;Node3</title>
<path fill="none" stroke="midnightblue" d="M120.985,-51.9753C108.256,-42.1315 92.6395,-30.0545 81.6689,-21.5707"/>
<polygon fill="midnightblue" stroke="midnightblue" points="119.192,-55.0131 129.244,-58.3619 123.474,-49.4757 119.192,-55.0131"/>
</g>
<!-- Node4 -->
<g id="node7" class="node"><title>Node4</title>
<a xlink:href="classgrid_1_1SimpleGridContainer.xhtml" target="_top" xlink:title="grid::SimpleGridContainer">
<polygon fill="white" stroke="black" points="154,-0.5 154,-21.5 282,-21.5 282,-0.5 154,-0.5"/>
<text text-anchor="middle" x="218" y="-8.5" font-family="Helvetica,sans-Serif" font-size="10.00">grid::SimpleGridContainer</text>
</a>
</g>
<!-- Node2&#45;&gt;Node4 -->
<g id="edge6" class="edge"><title>Node2&#45;&gt;Node4</title>
<path fill="none" stroke="midnightblue" d="M165.015,-51.9753C177.744,-42.1315 193.361,-30.0545 204.331,-21.5707"/>
<polygon fill="midnightblue" stroke="midnightblue" points="162.526,-49.4757 156.756,-58.3619 166.808,-55.0131 162.526,-49.4757"/>
</g>
</g>
</svg>
