<?xml version="1.0" encoding="UTF-8" standalone="no"?>
<!DOCTYPE svg PUBLIC "-//W3C//DTD SVG 1.1//EN"
 "http://www.w3.org/Graphics/SVG/1.1/DTD/svg11.dtd">
<!-- Generated by graphviz version 2.26.3 (20100126.1600)
 -->
<!-- Title: transfer::MPIThreadCache::Adder Pages: 1 -->
<svg width="1136pt" height="459pt"
 viewBox="0.00 0.00 1136.00 459.00" xmlns="http://www.w3.org/2000/svg" xmlns:xlink="http://www.w3.org/1999/xlink">
<g id="graph1" class="graph" transform="scale(1 1) rotate(0) translate(4 455)">
<title>transfer::MPIThreadCache::Adder</title>
<polygon fill="white" stroke="white" points="-4,5 -4,-455 1133,-455 1133,5 -4,5"/>
<!-- Node1 -->
<g id="node1" class="node"><title>Node1</title>
<polygon fill="#bfbfbf" stroke="black" points="474,-286 474,-320 606,-320 606,-286 474,-286"/>
<text text-anchor="start" x="482" y="-307" font-family="Helvetica,sans-Serif" font-size="10.00">transfer::MPIThreadCache</text>
<text text-anchor="middle" x="540" y="-294" font-family="Helvetica,sans-Serif" font-size="10.00">::Adder</text>
</g>
<!-- Node3 -->
<g id="node4" class="node"><title>Node3</title>
<a xlink:href="classtransfer_1_1MPIThreadCache.xhtml" target="_top" xlink:title="transfer::MPIThreadCache">
<polygon fill="white" stroke="black" points="724,-275.5 724,-296.5 856,-296.5 856,-275.5 724,-275.5"/>
<text text-anchor="middle" x="790" y="-283.5" font-family="Helvetica,sans-Serif" font-size="10.00">transfer::MPIThreadCache</text>
</a>
</g>
<!-- Node1&#45;&gt;Node3 -->
<g id="edge24" class="edge"><title>Node1&#45;&gt;Node3</title>
<path fill="none" stroke="#9a32cd" stroke-dasharray="5,2" d="M615.995,-297.832C650.326,-295.498 690.517,-292.765 723.618,-290.514"/>
<polygon fill="#9a32cd" stroke="#9a32cd" points="615.751,-294.341 606.012,-298.511 616.226,-301.325 615.751,-294.341"/>
<text text-anchor="middle" x="665" y="-301" font-family="Helvetica,sans-Serif" font-size="10.00"> m_adder</text>
</g>
<!-- Node2 -->
<g id="node2" class="node"><title>Node2</title>
<a xlink:href="classmpi_1_1Receiver.xhtml" target="_top" xlink:title="mpi::Receiver">
<polygon fill="white" stroke="black" points="263.5,-367.5 263.5,-388.5 340.5,-388.5 340.5,-367.5 263.5,-367.5"/>
<text text-anchor="middle" x="302" y="-375.5" font-family="Helvetica,sans-Serif" font-size="10.00">mpi::Receiver</text>
</a>
</g>
<!-- Node2&#45;&gt;Node1 -->
<g id="edge2" class="edge"><title>Node2&#45;&gt;Node1</title>
<path fill="none" stroke="midnightblue" d="M344.946,-364.467C384.428,-352.025 443.137,-333.524 485.826,-320.072"/>
<polygon fill="midnightblue" stroke="midnightblue" points="343.829,-361.149 335.343,-367.493 345.933,-367.825 343.829,-361.149"/>
</g>
<!-- Node11 -->
<g id="node23" class="node"><title>Node11</title>
<a xlink:href="classtransfer_1_1MPIThreadCache_1_1BlockTransferer.xhtml" target="_top" xlink:title="transfer::MPIThreadCache\l::BlockTransferer">
<polygon fill="white" stroke="black" points="996,-320 996,-354 1128,-354 1128,-320 996,-320"/>
<text text-anchor="start" x="1004" y="-341" font-family="Helvetica,sans-Serif" font-size="10.00">transfer::MPIThreadCache</text>
<text text-anchor="middle" x="1062" y="-328" font-family="Helvetica,sans-Serif" font-size="10.00">::BlockTransferer</text>
</a>
</g>
<!-- Node2&#45;&gt;Node11 -->
<g id="edge28" class="edge"><title>Node2&#45;&gt;Node11</title>
<path fill="none" stroke="midnightblue" d="M350.85,-378.884C385.277,-379.499 432.46,-380.326 474,-381 697.986,-384.633 762.008,-446.419 978,-387 1001.24,-380.608 1024.54,-365.923 1040.69,-354.112"/>
<polygon fill="midnightblue" stroke="midnightblue" points="350.657,-375.38 340.596,-378.7 350.531,-382.379 350.657,-375.38"/>
</g>
<!-- Node12 -->
<g id="node27" class="node"><title>Node12</title>
<a xlink:href="classtransfer_1_1MPIThreadCache_1_1BlockInfoResponder.xhtml" target="_top" xlink:title="transfer::MPIThreadCache\l::BlockInfoResponder">
<polygon fill="white" stroke="black" points="996,-212 996,-246 1128,-246 1128,-212 996,-212"/>
<text text-anchor="start" x="1004" y="-233" font-family="Helvetica,sans-Serif" font-size="10.00">transfer::MPIThreadCache</text>
<text text-anchor="middle" x="1062" y="-220" font-family="Helvetica,sans-Serif" font-size="10.00">::BlockInfoResponder</text>
</a>
</g>
<!-- Node2&#45;&gt;Node12 -->
<g id="edge34" class="edge"><title>Node2&#45;&gt;Node12</title>
<path fill="none" stroke="midnightblue" d="M323.82,-361.375C373.627,-324.709 500.92,-238.16 624,-213 778.146,-181.49 821.363,-198.215 978,-213 983.764,-213.544 989.722,-214.294 995.68,-215.174"/>
<polygon fill="midnightblue" stroke="midnightblue" points="321.636,-358.638 315.704,-367.416 325.816,-364.253 321.636,-358.638"/>
</g>
<!-- Node13 -->
<g id="node31" class="node"><title>Node13</title>
<a xlink:href="classtransfer_1_1MPIThreadCache_1_1Deleter.xhtml" target="_top" xlink:title="transfer::MPIThreadCache\l::Deleter">
<polygon fill="white" stroke="black" points="996,-417 996,-451 1128,-451 1128,-417 996,-417"/>
<text text-anchor="start" x="1004" y="-438" font-family="Helvetica,sans-Serif" font-size="10.00">transfer::MPIThreadCache</text>
<text text-anchor="middle" x="1062" y="-425" font-family="Helvetica,sans-Serif" font-size="10.00">::Deleter</text>
</a>
</g>
<!-- Node2&#45;&gt;Node13 -->
<g id="edge40" class="edge"><title>Node2&#45;&gt;Node13</title>
<path fill="none" stroke="midnightblue" d="M350.581,-388.989C359.663,-390.827 369.098,-392.591 378,-394 596.974,-428.658 652.615,-435.206 874,-447 920.157,-449.459 931.914,-450.545 978,-447 983.738,-446.559 989.678,-445.95 995.624,-445.235"/>
<polygon fill="midnightblue" stroke="midnightblue" points="351.026,-385.507 340.523,-386.898 349.601,-392.361 351.026,-385.507"/>
</g>
<!-- Node3&#45;&gt;Node1 -->
<g id="edge4" class="edge"><title>Node3&#45;&gt;Node1</title>
<path fill="none" stroke="#9a32cd" stroke-dasharray="5,2" d="M732.367,-273.81C700.276,-268.853 659.71,-265.621 624,-272 608.391,-274.788 591.886,-280.276 577.676,-285.869"/>
<polygon fill="#9a32cd" stroke="#9a32cd" points="732.037,-277.303 742.472,-275.47 733.171,-270.395 732.037,-277.303"/>
<text text-anchor="middle" x="665" y="-276" font-family="Helvetica,sans-Serif" font-size="10.00"> m_parent</text>
</g>
<!-- Node3&#45;&gt;Node11 -->
<g id="edge30" class="edge"><title>Node3&#45;&gt;Node11</title>
<path fill="none" stroke="#9a32cd" stroke-dasharray="5,2" d="M866.219,-284.498C900.801,-285.433 941.941,-288.823 978,-298 996.854,-302.798 1016.65,-311.773 1032.29,-319.905"/>
<polygon fill="#9a32cd" stroke="#9a32cd" points="866.251,-280.998 856.181,-284.29 866.106,-287.997 866.251,-280.998"/>
<text text-anchor="middle" x="926" y="-302" font-family="Helvetica,sans-Serif" font-size="10.00"> m_parent</text>
</g>
<!-- Node3&#45;&gt;Node12 -->
<g id="edge36" class="edge"><title>Node3&#45;&gt;Node12</title>
<path fill="none" stroke="#9a32cd" stroke-dasharray="5,2" d="M808.265,-268.437C824.185,-254.433 848.642,-235.904 874,-228 913.107,-215.811 959.053,-215.813 995.733,-218.983"/>
<polygon fill="#9a32cd" stroke="#9a32cd" points="805.799,-265.948 800.759,-275.267 810.51,-271.126 805.799,-265.948"/>
<text text-anchor="middle" x="926" y="-232" font-family="Helvetica,sans-Serif" font-size="10.00"> m_parent</text>
</g>
<!-- Node3&#45;&gt;Node13 -->
<g id="edge42" class="edge"><title>Node3&#45;&gt;Node13</title>
<path fill="none" stroke="#9a32cd" stroke-dasharray="5,2" d="M797.163,-306.23C808.538,-335.084 833.668,-387.292 874,-412 893.965,-424.231 949.955,-429.662 995.678,-432.074"/>
<polygon fill="#9a32cd" stroke="#9a32cd" points="800.392,-304.875 793.591,-296.751 793.842,-307.343 800.392,-304.875"/>
<text text-anchor="middle" x="926" y="-434" font-family="Helvetica,sans-Serif" font-size="10.00"> m_parent</text>
</g>
<!-- Node4 -->
<g id="node6" class="node"><title>Node4</title>
<a xlink:href="classtransfer_1_1MPICache.xhtml" target="_top" xlink:title="transfer::MPICache\l\&lt; allocator::Default \&gt;">
<polygon fill="white" stroke="black" points="485.5,-338 485.5,-372 594.5,-372 594.5,-338 485.5,-338"/>
<text text-anchor="start" x="493.5" y="-359" font-family="Helvetica,sans-Serif" font-size="10.00">transfer::MPICache</text>
<text text-anchor="middle" x="540" y="-346" font-family="Helvetica,sans-Serif" font-size="10.00">&lt; allocator::Default &gt;</text>
</a>
</g>
<!-- Node4&#45;&gt;Node3 -->
<g id="edge6" class="edge"><title>Node4&#45;&gt;Node3</title>
<path fill="none" stroke="#8b1a1a" d="M604.642,-340.298C635.482,-332.962 672.81,-323.614 706,-314 724.161,-308.739 744.262,-302.07 760.246,-296.56"/>
<polygon fill="#8b1a1a" stroke="#8b1a1a" points="603.797,-336.901 594.87,-342.607 605.407,-343.713 603.797,-336.901"/>
</g>
<!-- Node5 -->
<g id="node8" class="node"><title>Node5</title>
<a xlink:href="classcache_1_1CacheManager.xhtml" target="_top" xlink:title="Manages a block cache. ">
<polygon fill="white" stroke="black" points="482.5,-122.5 482.5,-143.5 597.5,-143.5 597.5,-122.5 482.5,-122.5"/>
<text text-anchor="middle" x="540" y="-130.5" font-family="Helvetica,sans-Serif" font-size="10.00">cache::CacheManager</text>
</a>
</g>
<!-- Node5&#45;&gt;Node3 -->
<g id="edge8" class="edge"><title>Node5&#45;&gt;Node3</title>
<path fill="none" stroke="#9a32cd" stroke-dasharray="5,2" d="M596.08,-146.246C629.97,-156.047 672.872,-171.772 706,-195 739.272,-218.329 769.201,-256.812 782.588,-275.357"/>
<polygon fill="#9a32cd" stroke="#9a32cd" points="596.899,-142.84 586.326,-143.515 595.012,-149.581 596.899,-142.84"/>
<text text-anchor="middle" x="665" y="-199" font-family="Helvetica,sans-Serif" font-size="10.00"> m_cacheManager</text>
</g>
<!-- Node6 -->
<g id="node10" class="node"><title>Node6</title>
<a xlink:href="classthreads_1_1PthreadMutex.xhtml" target="_top" xlink:title="threads::PthreadMutex">
<polygon fill="white" stroke="black" points="244,-122.5 244,-143.5 360,-143.5 360,-122.5 244,-122.5"/>
<text text-anchor="middle" x="302" y="-130.5" font-family="Helvetica,sans-Serif" font-size="10.00">threads::PthreadMutex</text>
</a>
</g>
<!-- Node6&#45;&gt;Node3 -->
<g id="edge22" class="edge"><title>Node6&#45;&gt;Node3</title>
<path fill="none" stroke="#9a32cd" stroke-dasharray="5,2" d="M335.666,-118.59C392.419,-96.3481 510.309,-59.0005 606,-87 656.644,-101.819 668.926,-113.451 706,-151 744.983,-190.482 774.534,-251.188 785.432,-275.451"/>
<polygon fill="#9a32cd" stroke="#9a32cd" points="334.102,-115.446 326.122,-122.416 336.707,-121.944 334.102,-115.446"/>
<text text-anchor="middle" x="540" y="-104" font-family="Helvetica,sans-Serif" font-size="10.00"> m_sendRecvMutex</text>
<text text-anchor="middle" x="540" y="-91" font-family="Helvetica,sans-Serif" font-size="10.00">m_mutexes</text>
</g>
<!-- Node6&#45;&gt;Node5 -->
<g id="edge10" class="edge"><title>Node6&#45;&gt;Node5</title>
<path fill="none" stroke="#9a32cd" stroke-dasharray="5,2" d="M370.482,-133C405.908,-133 448.668,-133 482.38,-133"/>
<polygon fill="#9a32cd" stroke="#9a32cd" points="370.221,-129.5 360.221,-133 370.221,-136.5 370.221,-129.5"/>
<text text-anchor="middle" x="417" y="-137" font-family="Helvetica,sans-Serif" font-size="10.00"> m_blockMutexes</text>
</g>
<!-- Node10 -->
<g id="node18" class="node"><title>Node10</title>
<a xlink:href="classmpi_1_1MPIComm.xhtml" target="_top" xlink:title="mpi::MPIComm">
<polygon fill="white" stroke="black" points="497,-162.5 497,-183.5 583,-183.5 583,-162.5 497,-162.5"/>
<text text-anchor="middle" x="540" y="-170.5" font-family="Helvetica,sans-Serif" font-size="10.00">mpi::MPIComm</text>
</a>
</g>
<!-- Node6&#45;&gt;Node10 -->
<g id="edge20" class="edge"><title>Node6&#45;&gt;Node10</title>
<path fill="none" stroke="#9a32cd" stroke-dasharray="5,2" d="M359.938,-145.575C366.027,-146.784 372.133,-147.949 378,-149 418.16,-156.195 464.2,-162.865 496.908,-167.338"/>
<polygon fill="#9a32cd" stroke="#9a32cd" points="360.249,-142.067 349.753,-143.513 358.86,-148.928 360.249,-142.067"/>
<text text-anchor="middle" x="417" y="-165" font-family="Helvetica,sans-Serif" font-size="10.00"> mpiLock</text>
</g>
<!-- Node7 -->
<g id="node12" class="node"><title>Node7</title>
<a xlink:href="classcache_1_1CacheList.xhtml" target="_top" xlink:title="Controls a list of blocks. ">
<polygon fill="white" stroke="black" points="255.5,-39.5 255.5,-60.5 348.5,-60.5 348.5,-39.5 255.5,-39.5"/>
<text text-anchor="middle" x="302" y="-47.5" font-family="Helvetica,sans-Serif" font-size="10.00">cache::CacheList</text>
</a>
</g>
<!-- Node7&#45;&gt;Node5 -->
<g id="edge12" class="edge"><title>Node7&#45;&gt;Node5</title>
<path fill="none" stroke="#9a32cd" stroke-dasharray="5,2" d="M341.751,-63.8627C389.068,-80.3639 467.032,-107.553 509.727,-122.443"/>
<polygon fill="#9a32cd" stroke="#9a32cd" points="342.738,-60.5002 332.143,-60.512 340.433,-67.1098 342.738,-60.5002"/>
<text text-anchor="middle" x="417" y="-105" font-family="Helvetica,sans-Serif" font-size="10.00"> m_cacheList</text>
</g>
<!-- Node8 -->
<g id="node14" class="node"><title>Node8</title>
<a xlink:href="classcache_1_1LRU.xhtml" target="_top" xlink:title="cache::LRU">
<polygon fill="white" stroke="black" points="31.5,-66.5 31.5,-87.5 100.5,-87.5 100.5,-66.5 31.5,-66.5"/>
<text text-anchor="middle" x="66" y="-74.5" font-family="Helvetica,sans-Serif" font-size="10.00">cache::LRU</text>
</a>
</g>
<!-- Node8&#45;&gt;Node7 -->
<g id="edge14" class="edge"><title>Node8&#45;&gt;Node7</title>
<path fill="none" stroke="#9a32cd" stroke-dasharray="5,2" d="M110.618,-71.8955C151.92,-67.1702 213.113,-60.1693 255.122,-55.3631"/>
<polygon fill="#9a32cd" stroke="#9a32cd" points="110.107,-68.431 100.569,-73.0451 110.902,-75.3856 110.107,-68.431"/>
<text text-anchor="middle" x="188" y="-70" font-family="Helvetica,sans-Serif" font-size="10.00"> m_lru</text>
</g>
<!-- Node9 -->
<g id="node16" class="node"><title>Node9</title>
<polygon fill="white" stroke="#bfbfbf" points="0.5,-0.5 0.5,-47.5 131.5,-47.5 131.5,-0.5 0.5,-0.5"/>
<text text-anchor="start" x="8.5" y="-34.5" font-family="Helvetica,sans-Serif" font-size="10.00">std::unordered_map</text>
<text text-anchor="start" x="8.5" y="-21.5" font-family="Helvetica,sans-Serif" font-size="10.00">&lt; unsigned long, unsigned</text>
<text text-anchor="middle" x="66" y="-8.5" font-family="Helvetica,sans-Serif" font-size="10.00"> long &gt;</text>
</g>
<!-- Node9&#45;&gt;Node7 -->
<g id="edge16" class="edge"><title>Node9&#45;&gt;Node7</title>
<path fill="none" stroke="#9a32cd" stroke-dasharray="5,2" d="M142.066,-32.3801C179.333,-36.4859 223.016,-41.2984 255.304,-44.8555"/>
<polygon fill="#9a32cd" stroke="#9a32cd" points="142.062,-28.8587 131.739,-31.2424 141.296,-35.8166 142.062,-28.8587"/>
<text text-anchor="middle" x="188" y="-45" font-family="Helvetica,sans-Serif" font-size="10.00"> m_blockToIndex</text>
</g>
<!-- Node10&#45;&gt;Node3 -->
<g id="edge18" class="edge"><title>Node10&#45;&gt;Node3</title>
<path fill="none" stroke="#9a32cd" stroke-dasharray="5,2" d="M572.831,-187.839C624.131,-211.027 722.042,-255.283 766.725,-275.48"/>
<polygon fill="#9a32cd" stroke="#9a32cd" points="574.073,-184.56 563.519,-183.631 571.19,-190.939 574.073,-184.56"/>
<text text-anchor="middle" x="665" y="-250" font-family="Helvetica,sans-Serif" font-size="10.00"> m_mpiComm</text>
</g>
<!-- Node11&#45;&gt;Node3 -->
<g id="edge26" class="edge"><title>Node11&#45;&gt;Node3</title>
<path fill="none" stroke="#9a32cd" stroke-dasharray="5,2" d="M985.727,-331.84C951.302,-328.549 910.303,-323.288 874,-315 854.146,-310.467 832.433,-302.899 816.057,-296.63"/>
<polygon fill="#9a32cd" stroke="#9a32cd" points="985.44,-335.328 995.719,-332.757 986.081,-328.357 985.44,-335.328"/>
<text text-anchor="middle" x="926" y="-334" font-family="Helvetica,sans-Serif" font-size="10.00"> m_blockTransferer</text>
</g>
<!-- Node12&#45;&gt;Node3 -->
<g id="edge32" class="edge"><title>Node12&#45;&gt;Node3</title>
<path fill="none" stroke="#9a32cd" stroke-dasharray="5,2" d="M985.866,-243.975C951.633,-250.815 910.748,-259.131 874,-267 861.573,-269.661 848.137,-272.65 835.733,-275.455"/>
<polygon fill="#9a32cd" stroke="#9a32cd" points="986.676,-247.383 995.799,-241.995 985.308,-240.518 986.676,-247.383"/>
<text text-anchor="middle" x="926" y="-271" font-family="Helvetica,sans-Serif" font-size="10.00"> m_blockInfoResponder</text>
</g>
<!-- Node13&#45;&gt;Node3 -->
<g id="edge38" class="edge"><title>Node13&#45;&gt;Node3</title>
<path fill="none" stroke="#9a32cd" stroke-dasharray="5,2" d="M1013.38,-412.79C966.423,-392.077 898.882,-361.604 874,-347 847.421,-331.4 818.87,-309.423 802.841,-296.549"/>
<polygon fill="#9a32cd" stroke="#9a32cd" points="1012.2,-416.098 1022.77,-416.923 1015.02,-409.691 1012.2,-416.098"/>
<text text-anchor="middle" x="926" y="-400" font-family="Helvetica,sans-Serif" font-size="10.00"> m_deleter</text>
</g>
</g>
</svg>
