<?xml version="1.0" encoding="UTF-8" standalone="no"?>
<!DOCTYPE svg PUBLIC "-//W3C//DTD SVG 1.1//EN"
 "http://www.w3.org/Graphics/SVG/1.1/DTD/svg11.dtd">
<!-- Generated by graphviz version 2.26.3 (20100126.1600)
 -->
<!-- Title: transfer::MPIWinCache Pages: 1 -->
<svg width="335pt" height="260pt"
 viewBox="0.00 0.00 335.00 260.00" xmlns="http://www.w3.org/2000/svg" xmlns:xlink="http://www.w3.org/1999/xlink">
<g id="graph1" class="graph" transform="scale(1 1) rotate(0) translate(4 256)">
<title>transfer::MPIWinCache</title>
<polygon fill="white" stroke="white" points="-4,5 -4,-256 332,-256 332,5 -4,5"/>
<!-- Node1 -->
<g id="node1" class="node"><title>Node1</title>
<polygon fill="#bfbfbf" stroke="black" points="92.5,-0.5 92.5,-21.5 211.5,-21.5 211.5,-0.5 92.5,-0.5"/>
<text text-anchor="middle" x="152" y="-8.5" font-family="Helvetica,sans-Serif" font-size="10.00">transfer::MPIWinCache</text>
</g>
<!-- Node2 -->
<g id="node2" class="node"><title>Node2</title>
<a xlink:href="classtransfer_1_1MPICache.xhtml" target="_top" xlink:title="transfer::MPICache\l\&lt; allocator::MPIAlloc \&gt;">
<polygon fill="white" stroke="black" points="-0.5,-73 -0.5,-107 116.5,-107 116.5,-73 -0.5,-73"/>
<text text-anchor="start" x="7.5" y="-94" font-family="Helvetica,sans-Serif" font-size="10.00">transfer::MPICache</text>
<text text-anchor="middle" x="58" y="-81" font-family="Helvetica,sans-Serif" font-size="10.00">&lt; allocator::MPIAlloc &gt;</text>
</a>
</g>
<!-- Node2&#45;&gt;Node1 -->
<g id="edge2" class="edge"><title>Node2&#45;&gt;Node1</title>
<path fill="none" stroke="#8b1a1a" d="M86.1892,-66.3091C103.903,-51.422 125.886,-32.947 139.426,-21.5672"/>
<polygon fill="#8b1a1a" stroke="#8b1a1a" points="83.8002,-63.7449 78.3966,-72.8582 88.3039,-69.1037 83.8002,-63.7449"/>
</g>
<!-- Node3 -->
<g id="node4" class="node"><title>Node3</title>
<a xlink:href="classmpi_1_1MPIComm.xhtml" target="_top" xlink:title="mpi::MPIComm">
<polygon fill="white" stroke="black" points="142,-158.5 142,-179.5 228,-179.5 228,-158.5 142,-158.5"/>
<text text-anchor="middle" x="185" y="-166.5" font-family="Helvetica,sans-Serif" font-size="10.00">mpi::MPIComm</text>
</a>
</g>
<!-- Node3&#45;&gt;Node1 -->
<g id="edge4" class="edge"><title>Node3&#45;&gt;Node1</title>
<path fill="none" stroke="#9a32cd" stroke-dasharray="5,2" d="M175.577,-149.235C170.41,-137.514 164.383,-122.214 161,-108 153.677,-77.233 152.25,-39.657 152.013,-21.6363"/>
<polygon fill="#9a32cd" stroke="#9a32cd" points="172.47,-150.856 179.809,-158.497 178.836,-147.947 172.47,-150.856"/>
<text text-anchor="middle" x="192" y="-87.5" font-family="Helvetica,sans-Serif" font-size="10.00"> m_mpiComm</text>
</g>
<!-- Node5 -->
<g id="node8" class="node"><title>Node5</title>
<a xlink:href="classmpi_1_1Mutex.xhtml" target="_top" xlink:title="mpi::Mutex">
<polygon fill="white" stroke="black" points="231.5,-79.5 231.5,-100.5 296.5,-100.5 296.5,-79.5 231.5,-79.5"/>
<text text-anchor="middle" x="264" y="-87.5" font-family="Helvetica,sans-Serif" font-size="10.00">mpi::Mutex</text>
</a>
</g>
<!-- Node3&#45;&gt;Node5 -->
<g id="edge10" class="edge"><title>Node3&#45;&gt;Node5</title>
<path fill="none" stroke="#9a32cd" stroke-dasharray="5,2" d="M191.996,-148.977C195.387,-141.202 200.036,-132.601 206,-126 215.614,-115.36 229.097,-106.736 240.644,-100.598"/>
<polygon fill="#9a32cd" stroke="#9a32cd" points="188.661,-147.895 188.26,-158.482 195.176,-150.456 188.661,-147.895"/>
<text text-anchor="middle" x="228" y="-130.5" font-family="Helvetica,sans-Serif" font-size="10.00"> m_comm</text>
</g>
<!-- Node4 -->
<g id="node6" class="node"><title>Node4</title>
<a xlink:href="classthreads_1_1PthreadMutex.xhtml" target="_top" xlink:title="threads::PthreadMutex">
<polygon fill="white" stroke="black" points="172,-230.5 172,-251.5 288,-251.5 288,-230.5 172,-230.5"/>
<text text-anchor="middle" x="230" y="-238.5" font-family="Helvetica,sans-Serif" font-size="10.00">threads::PthreadMutex</text>
</a>
</g>
<!-- Node4&#45;&gt;Node3 -->
<g id="edge6" class="edge"><title>Node4&#45;&gt;Node3</title>
<path fill="none" stroke="#9a32cd" stroke-dasharray="5,2" d="M216.636,-222.07C214.377,-218.744 212.088,-215.293 210,-212 203.155,-201.207 195.869,-188.522 190.939,-179.739"/>
<polygon fill="#9a32cd" stroke="#9a32cd" points="213.824,-224.157 222.392,-230.39 219.581,-220.175 213.824,-224.157"/>
<text text-anchor="middle" x="230" y="-202.5" font-family="Helvetica,sans-Serif" font-size="10.00"> mpiLock</text>
</g>
<!-- Node4&#45;&gt;Node5 -->
<g id="edge12" class="edge"><title>Node4&#45;&gt;Node5</title>
<path fill="none" stroke="#9a32cd" stroke-dasharray="5,2" d="M244.97,-222.044C246.938,-218.832 248.715,-215.425 250,-212 264.681,-172.878 265.088,-122.147 264.473,-100.516"/>
<polygon fill="#9a32cd" stroke="#9a32cd" points="241.981,-220.213 239.166,-230.426 247.736,-224.198 241.981,-220.213"/>
<text text-anchor="middle" x="294" y="-166.5" font-family="Helvetica,sans-Serif" font-size="10.00"> nextTagMutex</text>
</g>
<!-- Node5&#45;&gt;Node1 -->
<g id="edge8" class="edge"><title>Node5&#45;&gt;Node1</title>
<path fill="none" stroke="#9a32cd" stroke-dasharray="5,2" d="M240.716,-73.5766C218.652,-58.0132 186.151,-35.0886 167.223,-21.7378"/>
<polygon fill="#9a32cd" stroke="#9a32cd" points="238.706,-76.4418 248.895,-79.3457 242.741,-70.7216 238.706,-76.4418"/>
<text text-anchor="middle" x="241" y="-44.5" font-family="Helvetica,sans-Serif" font-size="10.00"> m_mpiMutex</text>
</g>
</g>
</svg>
