<?xml version="1.0" encoding="UTF-8" standalone="no"?>
<!DOCTYPE svg PUBLIC "-//W3C//DTD SVG 1.1//EN"
 "http://www.w3.org/Graphics/SVG/1.1/DTD/svg11.dtd">
<!-- Generated by graphviz version 2.26.3 (20100126.1600)
 -->
<!-- Title: grid::SimpleContainer&lt; Level, Type &gt; Pages: 1 -->
<svg width="828pt" height="169pt"
 viewBox="0.00 0.00 828.00 169.00" xmlns="http://www.w3.org/2000/svg" xmlns:xlink="http://www.w3.org/1999/xlink">
<g id="graph1" class="graph" transform="scale(1 1) rotate(0) translate(4 165)">
<title>grid::SimpleContainer&lt; Level, Type &gt;</title>
<polygon fill="white" stroke="white" points="-4,5 -4,-165 825,-165 825,5 -4,5"/>
<!-- Node1 -->
<g id="node1" class="node"><title>Node1</title>
<polygon fill="#bfbfbf" stroke="black" points="710,-48 710,-82 820,-82 820,-48 710,-48"/>
<text text-anchor="start" x="718" y="-69" font-family="Helvetica,sans-Serif" font-size="10.00">grid::SimpleContainer</text>
<text text-anchor="middle" x="765" y="-56" font-family="Helvetica,sans-Serif" font-size="10.00">&lt; Level, Type &gt;</text>
</g>
<!-- Node2 -->
<g id="node2" class="node"><title>Node2</title>
<a xlink:href="classgrid_1_1TypedContainer.xhtml" target="_top" xlink:title="grid::TypedContainer\l\&lt; Type \&gt;">
<polygon fill="white" stroke="black" points="522.5,-76 522.5,-110 629.5,-110 629.5,-76 522.5,-76"/>
<text text-anchor="start" x="530.5" y="-97" font-family="Helvetica,sans-Serif" font-size="10.00">grid::TypedContainer</text>
<text text-anchor="middle" x="576" y="-84" font-family="Helvetica,sans-Serif" font-size="10.00">&lt; Type &gt;</text>
</a>
</g>
<!-- Node2&#45;&gt;Node1 -->
<g id="edge2" class="edge"><title>Node2&#45;&gt;Node1</title>
<path fill="none" stroke="midnightblue" d="M639.579,-83.581C662.378,-80.2033 687.876,-76.4258 709.897,-73.1634"/>
<polygon fill="midnightblue" stroke="midnightblue" points="639.033,-80.1234 629.654,-85.0512 640.059,-87.0479 639.033,-80.1234"/>
</g>
<!-- Node3 -->
<g id="node4" class="node"><title>Node3</title>
<a xlink:href="classgrid_1_1Container.xhtml" target="_top" xlink:title="grid::Container">
<polygon fill="white" stroke="black" points="404,-82.5 404,-103.5 484,-103.5 484,-82.5 404,-82.5"/>
<text text-anchor="middle" x="444" y="-90.5" font-family="Helvetica,sans-Serif" font-size="10.00">grid::Container</text>
</a>
</g>
<!-- Node3&#45;&gt;Node2 -->
<g id="edge4" class="edge"><title>Node3&#45;&gt;Node2</title>
<path fill="none" stroke="midnightblue" d="M494.408,-93C503.536,-93 513.086,-93 522.305,-93"/>
<polygon fill="midnightblue" stroke="midnightblue" points="494.322,-89.5001 484.322,-93 494.322,-96.5001 494.322,-89.5001"/>
</g>
<!-- Node4 -->
<g id="node6" class="node"><title>Node4</title>
<a xlink:href="classmpi_1_1MPIComm.xhtml" target="_top" xlink:title="mpi::MPIComm">
<polygon fill="white" stroke="black" points="238,-125.5 238,-146.5 324,-146.5 324,-125.5 238,-125.5"/>
<text text-anchor="middle" x="281" y="-133.5" font-family="Helvetica,sans-Serif" font-size="10.00">mpi::MPIComm</text>
</a>
</g>
<!-- Node4&#45;&gt;Node3 -->
<g id="edge6" class="edge"><title>Node4&#45;&gt;Node3</title>
<path fill="none" stroke="#9a32cd" stroke-dasharray="5,2" d="M330.66,-122.9C354.157,-116.701 381.845,-109.397 403.972,-103.559"/>
<polygon fill="#9a32cd" stroke="#9a32cd" points="329.651,-119.546 320.874,-125.481 331.436,-126.314 329.651,-119.546"/>
<text text-anchor="middle" x="364" y="-123" font-family="Helvetica,sans-Serif" font-size="10.00"> m_comm</text>
</g>
<!-- Node5 -->
<g id="node8" class="node"><title>Node5</title>
<a xlink:href="classthreads_1_1PthreadMutex.xhtml" target="_top" xlink:title="threads::PthreadMutex">
<polygon fill="white" stroke="black" points="2,-139.5 2,-160.5 118,-160.5 118,-139.5 2,-139.5"/>
<text text-anchor="middle" x="60" y="-147.5" font-family="Helvetica,sans-Serif" font-size="10.00">threads::PthreadMutex</text>
</a>
</g>
<!-- Node5&#45;&gt;Node4 -->
<g id="edge8" class="edge"><title>Node5&#45;&gt;Node4</title>
<path fill="none" stroke="#9a32cd" stroke-dasharray="5,2" d="M128.437,-145.665C164.202,-143.399 206.878,-140.696 237.988,-138.725"/>
<polygon fill="#9a32cd" stroke="#9a32cd" points="127.824,-142.196 118.065,-146.322 128.266,-149.182 127.824,-142.196"/>
<text text-anchor="middle" x="179" y="-148" font-family="Helvetica,sans-Serif" font-size="10.00"> mpiLock</text>
</g>
<!-- Node6 -->
<g id="node10" class="node"><title>Node6</title>
<a xlink:href="classnuma_1_1Numa.xhtml" target="_top" xlink:title="numa::Numa">
<polygon fill="white" stroke="black" points="244.5,-63.5 244.5,-84.5 317.5,-84.5 317.5,-63.5 244.5,-63.5"/>
<text text-anchor="middle" x="281" y="-71.5" font-family="Helvetica,sans-Serif" font-size="10.00">numa::Numa</text>
</a>
</g>
<!-- Node6&#45;&gt;Node3 -->
<g id="edge10" class="edge"><title>Node6&#45;&gt;Node3</title>
<path fill="none" stroke="#9a32cd" stroke-dasharray="5,2" d="M327.727,-73.6333C345.987,-74.0496 367.052,-75.2219 386,-78 393.306,-79.0712 401.021,-80.702 408.356,-82.4997"/>
<polygon fill="#9a32cd" stroke="#9a32cd" points="327.676,-70.1322 317.622,-73.4717 327.564,-77.1313 327.676,-70.1322"/>
<text text-anchor="middle" x="364" y="-82" font-family="Helvetica,sans-Serif" font-size="10.00"> m_numa</text>
</g>
<!-- Node7 -->
<g id="node12" class="node"><title>Node7</title>
<a xlink:href="classthreads_1_1Sync.xhtml" target="_top" xlink:title="Synchronizes a set of threads. ">
<polygon fill="white" stroke="black" points="21.5,-92.5 21.5,-113.5 98.5,-113.5 98.5,-92.5 21.5,-92.5"/>
<text text-anchor="middle" x="60" y="-100.5" font-family="Helvetica,sans-Serif" font-size="10.00">threads::Sync</text>
</a>
</g>
<!-- Node7&#45;&gt;Node6 -->
<g id="edge12" class="edge"><title>Node7&#45;&gt;Node6</title>
<path fill="none" stroke="#9a32cd" stroke-dasharray="5,2" d="M108.754,-96.6024C149.604,-91.2421 207.034,-83.7059 244.136,-78.8373"/>
<polygon fill="#9a32cd" stroke="#9a32cd" points="108.208,-93.144 98.7482,-97.9154 109.119,-100.085 108.208,-93.144"/>
<text text-anchor="middle" x="179" y="-109" font-family="Helvetica,sans-Serif" font-size="10.00"> m_syncDomains</text>
<text text-anchor="middle" x="179" y="-96" font-family="Helvetica,sans-Serif" font-size="10.00">m_syncThreads</text>
</g>
<!-- Node8 -->
<g id="node14" class="node"><title>Node8</title>
<polygon fill="white" stroke="#bfbfbf" points="10.5,-52.5 10.5,-73.5 109.5,-73.5 109.5,-52.5 10.5,-52.5"/>
<text text-anchor="middle" x="60" y="-60.5" font-family="Helvetica,sans-Serif" font-size="10.00">std::vector&lt; bool &gt;</text>
</g>
<!-- Node8&#45;&gt;Node6 -->
<g id="edge14" class="edge"><title>Node8&#45;&gt;Node6</title>
<path fill="none" stroke="#9a32cd" stroke-dasharray="5,2" d="M120.118,-62.5417C150.157,-62.7157 187.038,-63.5373 220,-66 227.882,-66.5889 236.304,-67.5058 244.296,-68.5119"/>
<polygon fill="#9a32cd" stroke="#9a32cd" points="119.808,-59.0407 109.796,-62.5055 119.783,-66.0406 119.808,-59.0407"/>
<text text-anchor="middle" x="179" y="-70" font-family="Helvetica,sans-Serif" font-size="10.00"> m_masterThreads</text>
</g>
<!-- Node9 -->
<g id="node16" class="node"><title>Node9</title>
<polygon fill="white" stroke="#bfbfbf" points="0.5,-0 0.5,-34 119.5,-34 119.5,-0 0.5,-0"/>
<text text-anchor="start" x="8.5" y="-21" font-family="Helvetica,sans-Serif" font-size="10.00">std::map&lt; int, unsigned</text>
<text text-anchor="middle" x="60" y="-8" font-family="Helvetica,sans-Serif" font-size="10.00"> int &gt;</text>
</g>
<!-- Node9&#45;&gt;Node6 -->
<g id="edge16" class="edge"><title>Node9&#45;&gt;Node6</title>
<path fill="none" stroke="#9a32cd" stroke-dasharray="5,2" d="M129.974,-25.7824C158.311,-30.3418 191.1,-36.9074 220,-46 234.339,-50.5113 249.716,-57.5859 261.444,-63.4949"/>
<polygon fill="#9a32cd" stroke="#9a32cd" points="130.17,-22.2709 119.751,-24.1924 129.094,-29.1877 130.17,-22.2709"/>
<text text-anchor="middle" x="179" y="-50" font-family="Helvetica,sans-Serif" font-size="10.00"> m_domains</text>
</g>
<!-- Node10 -->
<g id="node18" class="node"><title>Node10</title>
<polygon fill="white" stroke="#bfbfbf" points="524,-36.5 524,-57.5 628,-57.5 628,-36.5 524,-36.5"/>
<text text-anchor="middle" x="576" y="-44.5" font-family="Helvetica,sans-Serif" font-size="10.00">std::vector&lt; Level &gt;</text>
</g>
<!-- Node10&#45;&gt;Node1 -->
<g id="edge18" class="edge"><title>Node10&#45;&gt;Node1</title>
<path fill="none" stroke="#9a32cd" stroke-dasharray="5,2" d="M638.321,-52.1052C655.704,-53.6019 674.594,-55.2963 692,-57 697.71,-57.5589 703.668,-58.1685 709.611,-58.7938"/>
<polygon fill="#9a32cd" stroke="#9a32cd" points="638.544,-48.6116 628.283,-51.2483 637.949,-55.5863 638.544,-48.6116"/>
<text text-anchor="middle" x="670" y="-61" font-family="Helvetica,sans-Serif" font-size="10.00"> m_levels</text>
</g>
</g>
</svg>
