<?xml version="1.0" encoding="UTF-8" standalone="no"?>
<!DOCTYPE svg PUBLIC "-//W3C//DTD SVG 1.1//EN"
 "http://www.w3.org/Graphics/SVG/1.1/DTD/svg11.dtd">
<!-- Generated by graphviz version 2.26.3 (20100126.1600)
 -->
<!-- Title: mpi::Mutex Pages: 1 -->
<svg width="196pt" height="174pt"
 viewBox="0.00 0.00 196.00 174.00" xmlns="http://www.w3.org/2000/svg" xmlns:xlink="http://www.w3.org/1999/xlink">
<g id="graph1" class="graph" transform="scale(1 1) rotate(0) translate(4 170)">
<title>mpi::Mutex</title>
<polygon fill="white" stroke="white" points="-4,5 -4,-170 193,-170 193,5 -4,5"/>
<!-- Node1 -->
<g id="node1" class="node"><title>Node1</title>
<polygon fill="#bfbfbf" stroke="black" points="25.5,-0.5 25.5,-21.5 90.5,-21.5 90.5,-0.5 25.5,-0.5"/>
<text text-anchor="middle" x="58" y="-8.5" font-family="Helvetica,sans-Serif" font-size="10.00">mpi::Mutex</text>
</g>
<!-- Node2 -->
<g id="node2" class="node"><title>Node2</title>
<a xlink:href="classmpi_1_1MPIComm.xhtml" target="_top" xlink:title="mpi::MPIComm">
<polygon fill="white" stroke="black" points="102,-72.5 102,-93.5 188,-93.5 188,-72.5 102,-72.5"/>
<text text-anchor="middle" x="145" y="-80.5" font-family="Helvetica,sans-Serif" font-size="10.00">mpi::MPIComm</text>
</a>
</g>
<!-- Node2&#45;&gt;Node1 -->
<g id="edge2" class="edge"><title>Node2&#45;&gt;Node1</title>
<path fill="none" stroke="#9a32cd" stroke-dasharray="5,2" d="M124.129,-65.7275C107.559,-52.0146 84.9186,-33.2774 70.8898,-21.6674"/>
<polygon fill="#9a32cd" stroke="#9a32cd" points="122.227,-68.6968 132.163,-72.3762 126.69,-63.3041 122.227,-68.6968"/>
<text text-anchor="middle" x="131" y="-44.5" font-family="Helvetica,sans-Serif" font-size="10.00"> m_comm</text>
</g>
<!-- Node3 -->
<g id="node4" class="node"><title>Node3</title>
<a xlink:href="classthreads_1_1PthreadMutex.xhtml" target="_top" xlink:title="threads::PthreadMutex">
<polygon fill="white" stroke="black" points="0,-144.5 0,-165.5 116,-165.5 116,-144.5 0,-144.5"/>
<text text-anchor="middle" x="58" y="-152.5" font-family="Helvetica,sans-Serif" font-size="10.00">threads::PthreadMutex</text>
</a>
</g>
<!-- Node3&#45;&gt;Node1 -->
<g id="edge6" class="edge"><title>Node3&#45;&gt;Node1</title>
<path fill="none" stroke="#9a32cd" stroke-dasharray="5,2" d="M45.1765,-135.624C38.307,-124.067 30.5453,-108.802 27,-94 20.5865,-67.2236 38.298,-37.3131 49.5328,-21.7424"/>
<polygon fill="#9a32cd" stroke="#9a32cd" points="42.366,-137.732 50.6249,-144.369 48.3072,-134.03 42.366,-137.732"/>
<text text-anchor="middle" x="60" y="-80.5" font-family="Helvetica,sans-Serif" font-size="10.00"> nextTagMutex</text>
</g>
<!-- Node3&#45;&gt;Node2 -->
<g id="edge4" class="edge"><title>Node3&#45;&gt;Node2</title>
<path fill="none" stroke="#9a32cd" stroke-dasharray="5,2" d="M78.8709,-137.728C95.4407,-124.015 118.081,-105.277 132.11,-93.6674"/>
<polygon fill="#9a32cd" stroke="#9a32cd" points="76.3096,-135.304 70.8371,-144.376 80.7726,-140.697 76.3096,-135.304"/>
<text text-anchor="middle" x="129" y="-116.5" font-family="Helvetica,sans-Serif" font-size="10.00"> mpiLock</text>
</g>
</g>
</svg>
