<?xml version="1.0" encoding="UTF-8" standalone="no"?>
<!DOCTYPE svg PUBLIC "-//W3C//DTD SVG 1.1//EN"
 "http://www.w3.org/Graphics/SVG/1.1/DTD/svg11.dtd">
<!-- Generated by graphviz version 2.26.3 (20100126.1600)
 -->
<!-- Title: transfer::MPIThreadCache Pages: 1 -->
<svg width="1120pt" height="353pt"
 viewBox="0.00 0.00 1120.00 352.68" xmlns="http://www.w3.org/2000/svg" xmlns:xlink="http://www.w3.org/1999/xlink">
<g id="graph1" class="graph" transform="scale(1 1) rotate(0) translate(4 348.683)">
<title>transfer::MPIThreadCache</title>
<polygon fill="white" stroke="white" points="-4,5 -4,-348.683 1117,-348.683 1117,5 -4,5"/>
<!-- Node1 -->
<g id="node1" class="node"><title>Node1</title>
<polygon fill="#bfbfbf" stroke="black" points="708,-196.183 708,-217.183 840,-217.183 840,-196.183 708,-196.183"/>
<text text-anchor="middle" x="774" y="-204.183" font-family="Helvetica,sans-Serif" font-size="10.00">transfer::MPIThreadCache</text>
</g>
<!-- Node9 -->
<g id="node18" class="node"><title>Node9</title>
<a xlink:href="classtransfer_1_1MPIThreadCache_1_1Adder.xhtml" target="_top" xlink:title="transfer::MPIThreadCache\l::Adder">
<polygon fill="white" stroke="black" points="980,-110.683 980,-144.683 1112,-144.683 1112,-110.683 980,-110.683"/>
<text text-anchor="start" x="988" y="-131.683" font-family="Helvetica,sans-Serif" font-size="10.00">transfer::MPIThreadCache</text>
<text text-anchor="middle" x="1046" y="-118.683" font-family="Helvetica,sans-Serif" font-size="10.00">::Adder</text>
</a>
</g>
<!-- Node1&#45;&gt;Node9 -->
<g id="edge24" class="edge"><title>Node1&#45;&gt;Node9</title>
<path fill="none" stroke="#9a32cd" stroke-dasharray="5,2" d="M850.264,-194.493C884.855,-187.94 925.989,-178.703 962,-166.683 979.539,-160.829 998.271,-152.365 1013.59,-144.816"/>
<polygon fill="#9a32cd" stroke="#9a32cd" points="849.416,-191.09 840.222,-196.355 850.693,-197.973 849.416,-191.09"/>
<text text-anchor="middle" x="910" y="-196.683" font-family="Helvetica,sans-Serif" font-size="10.00"> m_parent</text>
</g>
<!-- Node11 -->
<g id="node23" class="node"><title>Node11</title>
<a xlink:href="classtransfer_1_1MPIThreadCache_1_1BlockTransferer.xhtml" target="_top" xlink:title="transfer::MPIThreadCache\l::BlockTransferer">
<polygon fill="white" stroke="black" points="980,-13.6834 980,-47.6834 1112,-47.6834 1112,-13.6834 980,-13.6834"/>
<text text-anchor="start" x="988" y="-34.6834" font-family="Helvetica,sans-Serif" font-size="10.00">transfer::MPIThreadCache</text>
<text text-anchor="middle" x="1046" y="-21.6834" font-family="Helvetica,sans-Serif" font-size="10.00">::BlockTransferer</text>
</a>
</g>
<!-- Node1&#45;&gt;Node11 -->
<g id="edge30" class="edge"><title>Node1&#45;&gt;Node11</title>
<path fill="none" stroke="#9a32cd" stroke-dasharray="5,2" d="M792.48,-188.549C807.499,-172.765 828.084,-148.57 840,-123.683 855.739,-90.8127 830.344,-67.4187 858,-43.6834 890.896,-15.4509 940.102,-12.9609 979.923,-17.129"/>
<polygon fill="#9a32cd" stroke="#9a32cd" points="789.691,-186.395 785.208,-195.995 794.699,-191.286 789.691,-186.395"/>
<text text-anchor="middle" x="910" y="-47.6834" font-family="Helvetica,sans-Serif" font-size="10.00"> m_parent</text>
</g>
<!-- Node12 -->
<g id="node27" class="node"><title>Node12</title>
<a xlink:href="classtransfer_1_1MPIThreadCache_1_1BlockInfoResponder.xhtml" target="_top" xlink:title="transfer::MPIThreadCache\l::BlockInfoResponder">
<polygon fill="white" stroke="black" points="980,-304.683 980,-338.683 1112,-338.683 1112,-304.683 980,-304.683"/>
<text text-anchor="start" x="988" y="-325.683" font-family="Helvetica,sans-Serif" font-size="10.00">transfer::MPIThreadCache</text>
<text text-anchor="middle" x="1046" y="-312.683" font-family="Helvetica,sans-Serif" font-size="10.00">::BlockInfoResponder</text>
</a>
</g>
<!-- Node1&#45;&gt;Node12 -->
<g id="edge36" class="edge"><title>Node1&#45;&gt;Node12</title>
<path fill="none" stroke="#9a32cd" stroke-dasharray="5,2" d="M783.403,-226.756C796.302,-251.695 822.047,-293.212 858,-311.683 895.213,-330.802 942.213,-333.302 979.91,-331.022"/>
<polygon fill="#9a32cd" stroke="#9a32cd" points="786.389,-224.899 778.81,-217.495 780.118,-228.009 786.389,-224.899"/>
<text text-anchor="middle" x="910" y="-335.683" font-family="Helvetica,sans-Serif" font-size="10.00"> m_parent</text>
</g>
<!-- Node13 -->
<g id="node31" class="node"><title>Node13</title>
<a xlink:href="classtransfer_1_1MPIThreadCache_1_1Deleter.xhtml" target="_top" xlink:title="transfer::MPIThreadCache\l::Deleter">
<polygon fill="white" stroke="black" points="980,-207.683 980,-241.683 1112,-241.683 1112,-207.683 980,-207.683"/>
<text text-anchor="start" x="988" y="-228.683" font-family="Helvetica,sans-Serif" font-size="10.00">transfer::MPIThreadCache</text>
<text text-anchor="middle" x="1046" y="-215.683" font-family="Helvetica,sans-Serif" font-size="10.00">::Deleter</text>
</a>
</g>
<!-- Node1&#45;&gt;Node13 -->
<g id="edge42" class="edge"><title>Node1&#45;&gt;Node13</title>
<path fill="none" stroke="#9a32cd" stroke-dasharray="5,2" d="M807.173,-220.989C822.359,-226.789 840.776,-232.794 858,-235.683 898.144,-242.418 943.706,-240 979.922,-235.74"/>
<polygon fill="#9a32cd" stroke="#9a32cd" points="808.291,-217.668 797.705,-217.242 805.715,-224.177 808.291,-217.668"/>
<text text-anchor="middle" x="910" y="-243.683" font-family="Helvetica,sans-Serif" font-size="10.00"> m_parent</text>
</g>
<!-- Node2 -->
<g id="node2" class="node"><title>Node2</title>
<a xlink:href="classtransfer_1_1MPICache.xhtml" target="_top" xlink:title="transfer::MPICache\l\&lt; allocator::Default \&gt;">
<polygon fill="white" stroke="black" points="477.5,-256.683 477.5,-290.683 586.5,-290.683 586.5,-256.683 477.5,-256.683"/>
<text text-anchor="start" x="485.5" y="-277.683" font-family="Helvetica,sans-Serif" font-size="10.00">transfer::MPICache</text>
<text text-anchor="middle" x="532" y="-264.683" font-family="Helvetica,sans-Serif" font-size="10.00">&lt; allocator::Default &gt;</text>
</a>
</g>
<!-- Node2&#45;&gt;Node1 -->
<g id="edge2" class="edge"><title>Node2&#45;&gt;Node1</title>
<path fill="none" stroke="#8b1a1a" d="M596.518,-260.961C625.345,-254.771 659.603,-246.714 690,-237.683 709.818,-231.796 731.717,-223.658 748.185,-217.198"/>
<polygon fill="#8b1a1a" stroke="#8b1a1a" points="595.62,-257.574 586.563,-263.071 597.072,-264.421 595.62,-257.574"/>
</g>
<!-- Node3 -->
<g id="node4" class="node"><title>Node3</title>
<a xlink:href="classcache_1_1CacheManager.xhtml" target="_top" xlink:title="Manages a block cache. ">
<polygon fill="white" stroke="black" points="474.5,-217.183 474.5,-238.183 589.5,-238.183 589.5,-217.183 474.5,-217.183"/>
<text text-anchor="middle" x="532" y="-225.183" font-family="Helvetica,sans-Serif" font-size="10.00">cache::CacheManager</text>
</a>
</g>
<!-- Node3&#45;&gt;Node1 -->
<g id="edge4" class="edge"><title>Node3&#45;&gt;Node1</title>
<path fill="none" stroke="#9a32cd" stroke-dasharray="5,2" d="M599.896,-221.792C633.65,-218.863 674.28,-215.337 707.799,-212.428"/>
<polygon fill="#9a32cd" stroke="#9a32cd" points="599.318,-218.329 589.658,-222.68 599.923,-225.302 599.318,-218.329"/>
<text text-anchor="middle" x="649" y="-224.683" font-family="Helvetica,sans-Serif" font-size="10.00"> m_cacheManager</text>
</g>
<!-- Node4 -->
<g id="node6" class="node"><title>Node4</title>
<a xlink:href="classthreads_1_1PthreadMutex.xhtml" target="_top" xlink:title="threads::PthreadMutex">
<polygon fill="white" stroke="black" points="244,-172.183 244,-193.183 360,-193.183 360,-172.183 244,-172.183"/>
<text text-anchor="middle" x="302" y="-180.183" font-family="Helvetica,sans-Serif" font-size="10.00">threads::PthreadMutex</text>
</a>
</g>
<!-- Node4&#45;&gt;Node1 -->
<g id="edge18" class="edge"><title>Node4&#45;&gt;Node1</title>
<path fill="none" stroke="#9a32cd" stroke-dasharray="5,2" d="M362.802,-170.329C395.586,-164.291 436.833,-157.689 474,-154.683 525.388,-150.528 538.924,-147.668 590,-154.683 635.724,-160.964 645.589,-170.121 690,-182.683 705.47,-187.059 722.53,-191.926 737.212,-196.127"/>
<polygon fill="#9a32cd" stroke="#9a32cd" points="362.099,-166.9 352.914,-172.18 363.387,-173.78 362.099,-166.9"/>
<text text-anchor="middle" x="532" y="-158.683" font-family="Helvetica,sans-Serif" font-size="10.00"> m_mutexes</text>
</g>
<!-- Node4&#45;&gt;Node3 -->
<g id="edge6" class="edge"><title>Node4&#45;&gt;Node3</title>
<path fill="none" stroke="#9a32cd" stroke-dasharray="5,2" d="M366.105,-195.226C401.327,-202.117 444.529,-210.57 478.015,-217.121"/>
<polygon fill="#9a32cd" stroke="#9a32cd" points="366.411,-191.719 355.925,-193.234 365.067,-198.589 366.411,-191.719"/>
<text text-anchor="middle" x="417" y="-216.683" font-family="Helvetica,sans-Serif" font-size="10.00"> m_blockMutexes</text>
</g>
<!-- Node8 -->
<g id="node14" class="node"><title>Node8</title>
<a xlink:href="classmpi_1_1MPIComm.xhtml" target="_top" xlink:title="mpi::MPIComm">
<polygon fill="white" stroke="black" points="489,-177.183 489,-198.183 575,-198.183 575,-177.183 489,-177.183"/>
<text text-anchor="middle" x="532" y="-185.183" font-family="Helvetica,sans-Serif" font-size="10.00">mpi::MPIComm</text>
</a>
</g>
<!-- Node4&#45;&gt;Node8 -->
<g id="edge16" class="edge"><title>Node4&#45;&gt;Node8</title>
<path fill="none" stroke="#9a32cd" stroke-dasharray="5,2" d="M370.183,-182.451C396.944,-182.537 427.918,-182.854 456,-183.683 466.566,-183.996 477.95,-184.503 488.609,-185.054"/>
<polygon fill="#9a32cd" stroke="#9a32cd" points="370.156,-178.951 360.148,-182.429 370.14,-185.951 370.156,-178.951"/>
<text text-anchor="middle" x="417" y="-187.683" font-family="Helvetica,sans-Serif" font-size="10.00"> mpiLock</text>
</g>
<!-- Node5 -->
<g id="node8" class="node"><title>Node5</title>
<a xlink:href="classcache_1_1CacheList.xhtml" target="_top" xlink:title="Controls a list of blocks. ">
<polygon fill="white" stroke="black" points="255.5,-244.183 255.5,-265.183 348.5,-265.183 348.5,-244.183 255.5,-244.183"/>
<text text-anchor="middle" x="302" y="-252.183" font-family="Helvetica,sans-Serif" font-size="10.00">cache::CacheList</text>
</a>
</g>
<!-- Node5&#45;&gt;Node3 -->
<g id="edge8" class="edge"><title>Node5&#45;&gt;Node3</title>
<path fill="none" stroke="#9a32cd" stroke-dasharray="5,2" d="M358.635,-248.035C393.749,-243.913 438.742,-238.631 474.091,-234.481"/>
<polygon fill="#9a32cd" stroke="#9a32cd" points="358.068,-244.577 348.544,-249.22 358.884,-251.53 358.068,-244.577"/>
<text text-anchor="middle" x="417" y="-248.683" font-family="Helvetica,sans-Serif" font-size="10.00"> m_cacheList</text>
</g>
<!-- Node6 -->
<g id="node10" class="node"><title>Node6</title>
<a xlink:href="classcache_1_1LRU.xhtml" target="_top" xlink:title="cache::LRU">
<polygon fill="white" stroke="black" points="31.5,-270.183 31.5,-291.183 100.5,-291.183 100.5,-270.183 31.5,-270.183"/>
<text text-anchor="middle" x="66" y="-278.183" font-family="Helvetica,sans-Serif" font-size="10.00">cache::LRU</text>
</a>
</g>
<!-- Node6&#45;&gt;Node5 -->
<g id="edge10" class="edge"><title>Node6&#45;&gt;Node5</title>
<path fill="none" stroke="#9a32cd" stroke-dasharray="5,2" d="M110.618,-275.768C151.92,-271.218 213.113,-264.476 255.122,-259.848"/>
<polygon fill="#9a32cd" stroke="#9a32cd" points="110.126,-272.301 100.569,-276.875 110.892,-279.259 110.126,-272.301"/>
<text text-anchor="middle" x="188" y="-274.683" font-family="Helvetica,sans-Serif" font-size="10.00"> m_lru</text>
</g>
<!-- Node7 -->
<g id="node12" class="node"><title>Node7</title>
<polygon fill="white" stroke="#bfbfbf" points="0.5,-204.183 0.5,-251.183 131.5,-251.183 131.5,-204.183 0.5,-204.183"/>
<text text-anchor="start" x="8.5" y="-238.183" font-family="Helvetica,sans-Serif" font-size="10.00">std::unordered_map</text>
<text text-anchor="start" x="8.5" y="-225.183" font-family="Helvetica,sans-Serif" font-size="10.00">&lt; unsigned long, unsigned</text>
<text text-anchor="middle" x="66" y="-212.183" font-family="Helvetica,sans-Serif" font-size="10.00"> long &gt;</text>
</g>
<!-- Node7&#45;&gt;Node5 -->
<g id="edge12" class="edge"><title>Node7&#45;&gt;Node5</title>
<path fill="none" stroke="#9a32cd" stroke-dasharray="5,2" d="M141.809,-236.12C168.432,-239.107 198.545,-242.514 226,-245.683 235.503,-246.781 245.673,-247.973 255.382,-249.119"/>
<polygon fill="#9a32cd" stroke="#9a32cd" points="142.117,-232.633 131.789,-234.997 141.337,-239.589 142.117,-232.633"/>
<text text-anchor="middle" x="188" y="-249.683" font-family="Helvetica,sans-Serif" font-size="10.00"> m_blockToIndex</text>
</g>
<!-- Node8&#45;&gt;Node1 -->
<g id="edge14" class="edge"><title>Node8&#45;&gt;Node1</title>
<path fill="none" stroke="#9a32cd" stroke-dasharray="5,2" d="M585.108,-186.458C615.831,-186.307 655.186,-187.064 690,-190.683 701.813,-191.912 714.446,-193.935 726.233,-196.136"/>
<polygon fill="#9a32cd" stroke="#9a32cd" points="585.009,-182.959 575.038,-186.541 585.067,-189.958 585.009,-182.959"/>
<text text-anchor="middle" x="649" y="-194.683" font-family="Helvetica,sans-Serif" font-size="10.00"> m_mpiComm</text>
</g>
<!-- Node9&#45;&gt;Node1 -->
<g id="edge20" class="edge"><title>Node9&#45;&gt;Node1</title>
<path fill="none" stroke="#9a32cd" stroke-dasharray="5,2" d="M969.829,-130.855C934.914,-134.155 893.494,-140.721 858,-153.683 830.465,-163.739 802.457,-183.812 786.748,-196.163"/>
<polygon fill="#9a32cd" stroke="#9a32cd" points="970.308,-134.327 979.966,-129.97 969.7,-127.353 970.308,-134.327"/>
<text text-anchor="middle" x="910" y="-157.683" font-family="Helvetica,sans-Serif" font-size="10.00"> m_adder</text>
</g>
<!-- Node10 -->
<g id="node20" class="node"><title>Node10</title>
<a xlink:href="classmpi_1_1Receiver.xhtml" target="_top" xlink:title="mpi::Receiver">
<polygon fill="white" stroke="black" points="735.5,-93.1834 735.5,-114.183 812.5,-114.183 812.5,-93.1834 735.5,-93.1834"/>
<text text-anchor="middle" x="774" y="-101.183" font-family="Helvetica,sans-Serif" font-size="10.00">mpi::Receiver</text>
</a>
</g>
<!-- Node10&#45;&gt;Node9 -->
<g id="edge22" class="edge"><title>Node10&#45;&gt;Node9</title>
<path fill="none" stroke="midnightblue" d="M805.445,-89.0689C820.912,-82.6669 840.049,-75.89 858,-72.6834 903.502,-64.5552 917.706,-59.4724 962,-72.6834 986.722,-80.057 1010.93,-97.2874 1026.96,-110.513"/>
<polygon fill="midnightblue" stroke="midnightblue" points="803.671,-86.0216 795.86,-93.1805 806.43,-92.4547 803.671,-86.0216"/>
</g>
<!-- Node10&#45;&gt;Node11 -->
<g id="edge28" class="edge"><title>Node10&#45;&gt;Node11</title>
<path fill="none" stroke="midnightblue" d="M784.741,-84.4367C798.432,-62.1181 824.408,-26.5 858,-11.6834 903.323,8.30752 960.587,-1.895 999.937,-13.6273"/>
<polygon fill="midnightblue" stroke="midnightblue" points="781.704,-82.6964 779.639,-93.0882 787.734,-86.2521 781.704,-82.6964"/>
</g>
<!-- Node10&#45;&gt;Node12 -->
<g id="edge34" class="edge"><title>Node10&#45;&gt;Node12</title>
<path fill="none" stroke="midnightblue" d="M791.408,-121.974C805.941,-138.014 826.407,-162.492 840,-186.683 851.365,-206.91 841.091,-219.797 858,-235.683 893.152,-268.709 918.254,-246.371 962,-266.683 984.292,-277.034 1007.51,-292.668 1023.87,-304.625"/>
<polygon fill="midnightblue" stroke="midnightblue" points="793.771,-119.375 784.416,-114.401 788.628,-124.123 793.771,-119.375"/>
</g>
<!-- Node10&#45;&gt;Node13 -->
<g id="edge40" class="edge"><title>Node10&#45;&gt;Node13</title>
<path fill="none" stroke="midnightblue" d="M804.267,-118.81C820.034,-126.32 839.781,-135.158 858,-141.683 903.065,-157.823 918.319,-150.105 962,-169.683 984.428,-179.736 1007.63,-195.4 1023.95,-207.444"/>
<polygon fill="midnightblue" stroke="midnightblue" points="805.54,-115.538 795.013,-114.338 802.494,-121.84 805.54,-115.538"/>
</g>
<!-- Node11&#45;&gt;Node1 -->
<g id="edge26" class="edge"><title>Node11&#45;&gt;Node1</title>
<path fill="none" stroke="#9a32cd" stroke-dasharray="5,2" d="M984.444,-51.3209C946.025,-65.8861 896.696,-87.7649 858,-115.683 825.046,-139.459 794.966,-177.729 781.478,-196.132"/>
<polygon fill="#9a32cd" stroke="#9a32cd" points="985.813,-54.5458 993.963,-47.7762 983.371,-47.9859 985.813,-54.5458"/>
<text text-anchor="middle" x="910" y="-119.683" font-family="Helvetica,sans-Serif" font-size="10.00"> m_blockTransferer</text>
</g>
<!-- Node12&#45;&gt;Node1 -->
<g id="edge32" class="edge"><title>Node12&#45;&gt;Node1</title>
<path fill="none" stroke="#9a32cd" stroke-dasharray="5,2" d="M976.827,-301.498C940.718,-290.036 896.219,-274.438 858,-256.683 833.066,-245.1 806.051,-228.154 789.574,-217.271"/>
<polygon fill="#9a32cd" stroke="#9a32cd" points="976.188,-304.966 986.777,-304.62 978.283,-298.287 976.188,-304.966"/>
<text text-anchor="middle" x="910" y="-298.683" font-family="Helvetica,sans-Serif" font-size="10.00"> m_blockInfoResponder</text>
</g>
<!-- Node13&#45;&gt;Node1 -->
<g id="edge38" class="edge"><title>Node13&#45;&gt;Node1</title>
<path fill="none" stroke="#9a32cd" stroke-dasharray="5,2" d="M969.824,-219.642C929.057,-216.945 879.332,-213.654 840.191,-211.064"/>
<polygon fill="#9a32cd" stroke="#9a32cd" points="969.775,-223.147 979.984,-220.315 970.237,-216.162 969.775,-223.147"/>
<text text-anchor="middle" x="910" y="-222.683" font-family="Helvetica,sans-Serif" font-size="10.00"> m_deleter</text>
</g>
</g>
</svg>
