<?xml version="1.0" encoding="UTF-8" standalone="no"?>
<!DOCTYPE svg PUBLIC "-//W3C//DTD SVG 1.1//EN"
 "http://www.w3.org/Graphics/SVG/1.1/DTD/svg11.dtd">
<!-- Generated by graphviz version 2.26.3 (20100126.1600)
 -->
<!-- Title: mpi::Mutex Pages: 1 -->
<svg width="487pt" height="272pt"
 viewBox="0.00 0.00 487.00 272.00" xmlns="http://www.w3.org/2000/svg" xmlns:xlink="http://www.w3.org/1999/xlink">
<g id="graph1" class="graph" transform="scale(1 1) rotate(0) translate(4 268)">
<title>mpi::Mutex</title>
<polygon fill="white" stroke="white" points="-4,5 -4,-268 484,-268 484,5 -4,5"/>
<!-- Node1 -->
<g id="node1" class="node"><title>Node1</title>
<polygon fill="#bfbfbf" stroke="black" points="86.5,-0.5 86.5,-21.5 151.5,-21.5 151.5,-0.5 86.5,-0.5"/>
<text text-anchor="middle" x="119" y="-8.5" font-family="Helvetica,sans-Serif" font-size="10.00">mpi::Mutex</text>
</g>
<!-- Node2 -->
<g id="node2" class="node"><title>Node2</title>
<a xlink:href="classmpi_1_1MPIComm.xhtml" target="_top" xlink:title="mpi::MPIComm">
<polygon fill="white" stroke="black" points="15,-72.5 15,-93.5 101,-93.5 101,-72.5 15,-72.5"/>
<text text-anchor="middle" x="58" y="-80.5" font-family="Helvetica,sans-Serif" font-size="10.00">mpi::MPIComm</text>
</a>
</g>
<!-- Node2&#45;&gt;Node1 -->
<g id="edge2" class="edge"><title>Node2&#45;&gt;Node1</title>
<path fill="none" stroke="#9a32cd" stroke-dasharray="5,2" d="M72.5093,-63.9756C78.4213,-56.4039 85.4059,-47.6816 92,-40 97.3768,-33.7365 103.646,-26.9729 108.788,-21.5544"/>
<polygon fill="#9a32cd" stroke="#9a32cd" points="69.4954,-62.1518 66.1495,-72.2044 75.034,-66.4324 69.4954,-62.1518"/>
<text text-anchor="middle" x="114" y="-44.5" font-family="Helvetica,sans-Serif" font-size="10.00"> m_comm</text>
</g>
<!-- Node3 -->
<g id="node4" class="node"><title>Node3</title>
<a xlink:href="classthreads_1_1PthreadMutex.xhtml" target="_top" xlink:title="threads::PthreadMutex">
<polygon fill="white" stroke="black" points="0,-144.5 0,-165.5 116,-165.5 116,-144.5 0,-144.5"/>
<text text-anchor="middle" x="58" y="-152.5" font-family="Helvetica,sans-Serif" font-size="10.00">threads::PthreadMutex</text>
</a>
</g>
<!-- Node3&#45;&gt;Node2 -->
<g id="edge4" class="edge"><title>Node3&#45;&gt;Node2</title>
<path fill="none" stroke="#9a32cd" stroke-dasharray="5,2" d="M58,-134.235C58,-120.969 58,-104.319 58,-93.6674"/>
<polygon fill="#9a32cd" stroke="#9a32cd" points="54.5001,-134.376 58,-144.376 61.5001,-134.376 54.5001,-134.376"/>
<text text-anchor="middle" x="78" y="-116.5" font-family="Helvetica,sans-Serif" font-size="10.00"> mpiLock</text>
</g>
<!-- Node4 -->
<g id="node6" class="node"><title>Node4</title>
<a xlink:href="classnuma_1_1NumaComm.xhtml" target="_top" xlink:title="numa::NumaComm">
<polygon fill="white" stroke="black" points="119,-72.5 119,-93.5 221,-93.5 221,-72.5 119,-72.5"/>
<text text-anchor="middle" x="170" y="-80.5" font-family="Helvetica,sans-Serif" font-size="10.00">numa::NumaComm</text>
</a>
</g>
<!-- Node4&#45;&gt;Node1 -->
<g id="edge6" class="edge"><title>Node4&#45;&gt;Node1</title>
<path fill="none" stroke="#9a32cd" stroke-dasharray="5,2" d="M156.682,-64.1981C147.085,-50.649 134.478,-32.8514 126.556,-21.6674"/>
<polygon fill="#9a32cd" stroke="#9a32cd" points="153.838,-66.239 162.475,-72.3762 159.551,-62.1928 153.838,-66.239"/>
<text text-anchor="middle" x="170.5" y="-44.5" font-family="Helvetica,sans-Serif" font-size="10.00"> m_numa</text>
</g>
<!-- Node5 -->
<g id="node8" class="node"><title>Node5</title>
<a xlink:href="classthreads_1_1Sync.xhtml" target="_top" xlink:title="Synchronizes a set of threads. ">
<polygon fill="white" stroke="black" points="136.5,-235.5 136.5,-256.5 213.5,-256.5 213.5,-235.5 136.5,-235.5"/>
<text text-anchor="middle" x="175" y="-243.5" font-family="Helvetica,sans-Serif" font-size="10.00">threads::Sync</text>
</a>
</g>
<!-- Node5&#45;&gt;Node4 -->
<g id="edge8" class="edge"><title>Node5&#45;&gt;Node4</title>
<path fill="none" stroke="#9a32cd" stroke-dasharray="5,2" d="M174.362,-225.21C173.283,-190.041 171.136,-120.049 170.323,-93.5224"/>
<polygon fill="#9a32cd" stroke="#9a32cd" points="170.867,-225.417 174.672,-235.305 177.864,-225.202 170.867,-225.417"/>
<text text-anchor="middle" x="192" y="-152.5" font-family="Helvetica,sans-Serif" font-size="10.00"> m_sync</text>
</g>
<!-- Node6 -->
<g id="node10" class="node"><title>Node6</title>
<a xlink:href="classnuma_1_1Numa.xhtml" target="_top" xlink:title="numa::Numa">
<polygon fill="white" stroke="black" points="237.5,-144.5 237.5,-165.5 310.5,-165.5 310.5,-144.5 237.5,-144.5"/>
<text text-anchor="middle" x="274" y="-152.5" font-family="Helvetica,sans-Serif" font-size="10.00">numa::Numa</text>
</a>
</g>
<!-- Node5&#45;&gt;Node6 -->
<g id="edge12" class="edge"><title>Node5&#45;&gt;Node6</title>
<path fill="none" stroke="#9a32cd" stroke-dasharray="5,2" d="M178.563,-225.199C181.824,-211.887 187.903,-195.093 199,-184 209.367,-173.637 223.847,-166.896 237.322,-162.55"/>
<polygon fill="#9a32cd" stroke="#9a32cd" points="175.059,-224.857 176.438,-235.362 181.911,-226.29 175.059,-224.857"/>
<text text-anchor="middle" x="237.5" y="-201" font-family="Helvetica,sans-Serif" font-size="10.00"> m_syncDomains</text>
<text text-anchor="middle" x="237.5" y="-188" font-family="Helvetica,sans-Serif" font-size="10.00">m_syncThreads</text>
</g>
<!-- Node6&#45;&gt;Node4 -->
<g id="edge10" class="edge"><title>Node6&#45;&gt;Node4</title>
<path fill="none" stroke="#9a32cd" stroke-dasharray="5,2" d="M250.402,-138.663C230.49,-124.878 202.563,-105.544 185.409,-93.6674"/>
<polygon fill="#9a32cd" stroke="#9a32cd" points="248.44,-141.562 258.654,-144.376 252.425,-135.806 248.44,-141.562"/>
<text text-anchor="middle" x="252.5" y="-116.5" font-family="Helvetica,sans-Serif" font-size="10.00"> m_numa</text>
</g>
<!-- Node7 -->
<g id="node13" class="node"><title>Node7</title>
<polygon fill="white" stroke="#bfbfbf" points="244.5,-235.5 244.5,-256.5 343.5,-256.5 343.5,-235.5 244.5,-235.5"/>
<text text-anchor="middle" x="294" y="-243.5" font-family="Helvetica,sans-Serif" font-size="10.00">std::vector&lt; bool &gt;</text>
</g>
<!-- Node7&#45;&gt;Node6 -->
<g id="edge14" class="edge"><title>Node7&#45;&gt;Node6</title>
<path fill="none" stroke="#9a32cd" stroke-dasharray="5,2" d="M289.453,-225.31C285.359,-206.681 279.508,-180.059 276.308,-165.501"/>
<polygon fill="#9a32cd" stroke="#9a32cd" points="286.062,-226.188 291.627,-235.204 292.899,-224.686 286.062,-226.188"/>
<text text-anchor="middle" x="326" y="-194.5" font-family="Helvetica,sans-Serif" font-size="10.00"> m_masterThreads</text>
</g>
<!-- Node8 -->
<g id="node15" class="node"><title>Node8</title>
<polygon fill="white" stroke="#bfbfbf" points="360.5,-229 360.5,-263 479.5,-263 479.5,-229 360.5,-229"/>
<text text-anchor="start" x="368.5" y="-250" font-family="Helvetica,sans-Serif" font-size="10.00">std::map&lt; int, unsigned</text>
<text text-anchor="middle" x="420" y="-237" font-family="Helvetica,sans-Serif" font-size="10.00"> int &gt;</text>
</g>
<!-- Node8&#45;&gt;Node6 -->
<g id="edge16" class="edge"><title>Node8&#45;&gt;Node6</title>
<path fill="none" stroke="#9a32cd" stroke-dasharray="5,2" d="M404.889,-220.144C396.377,-207.612 384.703,-193.299 371,-184 353.111,-171.86 330.02,-164.691 310.855,-160.519"/>
<polygon fill="#9a32cd" stroke="#9a32cd" points="402.149,-222.353 410.513,-228.857 408.031,-218.557 402.149,-222.353"/>
<text text-anchor="middle" x="424" y="-194.5" font-family="Helvetica,sans-Serif" font-size="10.00"> m_domains</text>
</g>
</g>
</svg>
