<?xml version="1.0" encoding="UTF-8" standalone="no"?>
<!DOCTYPE svg PUBLIC "-//W3C//DTD SVG 1.1//EN"
 "http://www.w3.org/Graphics/SVG/1.1/DTD/svg11.dtd">
<!-- Generated by graphviz version 2.26.3 (20100126.1600)
 -->
<!-- Title: transfer::MPIThreadCache::Adder Pages: 1 -->
<svg width="1124pt" height="428pt"
 viewBox="0.00 0.00 1124.00 428.00" xmlns="http://www.w3.org/2000/svg" xmlns:xlink="http://www.w3.org/1999/xlink">
<g id="graph1" class="graph" transform="scale(1 1) rotate(0) translate(4 424)">
<title>transfer::MPIThreadCache::Adder</title>
<polygon fill="white" stroke="white" points="-4,5 -4,-424 1121,-424 1121,5 -4,5"/>
<!-- Node1 -->
<g id="node1" class="node"><title>Node1</title>
<polygon fill="#bfbfbf" stroke="black" points="462,-270 462,-304 594,-304 594,-270 462,-270"/>
<text text-anchor="start" x="470" y="-291" font-family="Helvetica,sans-Serif" font-size="10.00">transfer::MPIThreadCache</text>
<text text-anchor="middle" x="528" y="-278" font-family="Helvetica,sans-Serif" font-size="10.00">::Adder</text>
</g>
<!-- Node3 -->
<g id="node4" class="node"><title>Node3</title>
<a xlink:href="classtransfer_1_1MPIThreadCache.xhtml" target="_top" xlink:title="transfer::MPIThreadCache">
<polygon fill="white" stroke="black" points="712,-240.5 712,-261.5 844,-261.5 844,-240.5 712,-240.5"/>
<text text-anchor="middle" x="778" y="-248.5" font-family="Helvetica,sans-Serif" font-size="10.00">transfer::MPIThreadCache</text>
</a>
</g>
<!-- Node1&#45;&gt;Node3 -->
<g id="edge24" class="edge"><title>Node1&#45;&gt;Node3</title>
<path fill="none" stroke="#9a32cd" stroke-dasharray="5,2" d="M604.493,-277.405C632.66,-273.729 664.808,-269.366 694,-265 701.165,-263.928 708.664,-262.754 716.108,-261.556"/>
<polygon fill="#9a32cd" stroke="#9a32cd" points="603.775,-273.969 594.309,-278.727 604.676,-280.911 603.775,-273.969"/>
<text text-anchor="middle" x="653" y="-280" font-family="Helvetica,sans-Serif" font-size="10.00"> m_adder</text>
</g>
<!-- Node2 -->
<g id="node2" class="node"><title>Node2</title>
<a xlink:href="classmpi_1_1Receiver.xhtml" target="_top" xlink:title="mpi::Receiver">
<polygon fill="white" stroke="black" points="252.5,-300.5 252.5,-321.5 329.5,-321.5 329.5,-300.5 252.5,-300.5"/>
<text text-anchor="middle" x="291" y="-308.5" font-family="Helvetica,sans-Serif" font-size="10.00">mpi::Receiver</text>
</a>
</g>
<!-- Node2&#45;&gt;Node1 -->
<g id="edge2" class="edge"><title>Node2&#45;&gt;Node1</title>
<path fill="none" stroke="midnightblue" d="M339.638,-306.075C374.853,-302.509 422.869,-297.646 461.608,-293.723"/>
<polygon fill="midnightblue" stroke="midnightblue" points="339.202,-302.601 329.606,-307.091 339.907,-309.565 339.202,-302.601"/>
</g>
<!-- Node11 -->
<g id="node23" class="node"><title>Node11</title>
<a xlink:href="classtransfer_1_1MPIThreadCache_1_1BlockTransferer.xhtml" target="_top" xlink:title="transfer::MPIThreadCache\l::BlockTransferer">
<polygon fill="white" stroke="black" points="984,-289 984,-323 1116,-323 1116,-289 984,-289"/>
<text text-anchor="start" x="992" y="-310" font-family="Helvetica,sans-Serif" font-size="10.00">transfer::MPIThreadCache</text>
<text text-anchor="middle" x="1050" y="-297" font-family="Helvetica,sans-Serif" font-size="10.00">::BlockTransferer</text>
</a>
</g>
<!-- Node2&#45;&gt;Node11 -->
<g id="edge28" class="edge"><title>Node2&#45;&gt;Node11</title>
<path fill="none" stroke="midnightblue" d="M340.076,-313.475C345.449,-313.684 350.839,-313.866 356,-314 580.817,-319.852 637.108,-316.333 862,-317 908.222,-317.137 919.876,-320.007 966,-317 971.724,-316.627 977.653,-316.112 983.593,-315.507"/>
<polygon fill="midnightblue" stroke="midnightblue" points="339.967,-309.968 329.83,-313.048 339.675,-316.962 339.967,-309.968"/>
</g>
<!-- Node12 -->
<g id="node27" class="node"><title>Node12</title>
<a xlink:href="classtransfer_1_1MPIThreadCache_1_1BlockInfoResponder.xhtml" target="_top" xlink:title="transfer::MPIThreadCache\l::BlockInfoResponder">
<polygon fill="white" stroke="black" points="984,-181 984,-215 1116,-215 1116,-181 984,-181"/>
<text text-anchor="start" x="992" y="-202" font-family="Helvetica,sans-Serif" font-size="10.00">transfer::MPIThreadCache</text>
<text text-anchor="middle" x="1050" y="-189" font-family="Helvetica,sans-Serif" font-size="10.00">::BlockInfoResponder</text>
</a>
</g>
<!-- Node2&#45;&gt;Node12 -->
<g id="edge34" class="edge"><title>Node2&#45;&gt;Node12</title>
<path fill="none" stroke="midnightblue" d="M333.255,-297.437C367.681,-286.679 417.673,-271.722 462,-261 637.967,-218.437 681.776,-201.189 862,-184 908.013,-179.611 919.935,-180.188 966,-184 971.746,-184.476 977.691,-185.131 983.641,-185.901"/>
<polygon fill="midnightblue" stroke="midnightblue" points="332.026,-294.154 323.535,-300.492 334.125,-300.832 332.026,-294.154"/>
</g>
<!-- Node13 -->
<g id="node31" class="node"><title>Node13</title>
<a xlink:href="classtransfer_1_1MPIThreadCache_1_1Deleter.xhtml" target="_top" xlink:title="transfer::MPIThreadCache\l::Deleter">
<polygon fill="white" stroke="black" points="984,-386 984,-420 1116,-420 1116,-386 984,-386"/>
<text text-anchor="start" x="992" y="-407" font-family="Helvetica,sans-Serif" font-size="10.00">transfer::MPIThreadCache</text>
<text text-anchor="middle" x="1050" y="-394" font-family="Helvetica,sans-Serif" font-size="10.00">::Deleter</text>
</a>
</g>
<!-- Node2&#45;&gt;Node13 -->
<g id="edge40" class="edge"><title>Node2&#45;&gt;Node13</title>
<path fill="none" stroke="midnightblue" d="M339.122,-324.065C344.795,-325.463 350.515,-326.808 356,-328 579.058,-376.477 634.581,-396.372 862,-416 908.051,-419.975 919.914,-419.545 966,-416 971.738,-415.559 977.678,-414.95 983.624,-414.235"/>
<polygon fill="midnightblue" stroke="midnightblue" points="339.576,-320.57 329.023,-321.514 337.861,-327.357 339.576,-320.57"/>
</g>
<!-- Node3&#45;&gt;Node1 -->
<g id="edge4" class="edge"><title>Node3&#45;&gt;Node1</title>
<path fill="none" stroke="#9a32cd" stroke-dasharray="5,2" d="M701.685,-245.303C673.279,-244.79 640.927,-246.124 612,-252 594.35,-255.585 575.762,-262.918 560.572,-269.95"/>
<polygon fill="#9a32cd" stroke="#9a32cd" points="701.87,-248.809 711.958,-245.571 702.053,-241.812 701.87,-248.809"/>
<text text-anchor="middle" x="653" y="-256" font-family="Helvetica,sans-Serif" font-size="10.00"> m_parent</text>
</g>
<!-- Node3&#45;&gt;Node11 -->
<g id="edge30" class="edge"><title>Node3&#45;&gt;Node11</title>
<path fill="none" stroke="#9a32cd" stroke-dasharray="5,2" d="M854.258,-251.464C888.849,-253.203 929.983,-257.427 966,-267 984.647,-271.956 1004.27,-280.835 1019.86,-288.871"/>
<polygon fill="#9a32cd" stroke="#9a32cd" points="854.363,-247.965 844.217,-251.019 854.053,-254.958 854.363,-247.965"/>
<text text-anchor="middle" x="914" y="-271" font-family="Helvetica,sans-Serif" font-size="10.00"> m_parent</text>
</g>
<!-- Node3&#45;&gt;Node12 -->
<g id="edge36" class="edge"><title>Node3&#45;&gt;Node12</title>
<path fill="none" stroke="#9a32cd" stroke-dasharray="5,2" d="M842.039,-238.522C884.63,-230.223 940.446,-219.347 983.529,-210.952"/>
<polygon fill="#9a32cd" stroke="#9a32cd" points="841.21,-235.118 832.064,-240.466 842.548,-241.988 841.21,-235.118"/>
<text text-anchor="middle" x="914" y="-237" font-family="Helvetica,sans-Serif" font-size="10.00"> m_parent</text>
</g>
<!-- Node3&#45;&gt;Node13 -->
<g id="edge42" class="edge"><title>Node3&#45;&gt;Node13</title>
<path fill="none" stroke="#9a32cd" stroke-dasharray="5,2" d="M784.81,-271.417C795.872,-301.075 820.757,-355.325 862,-381 881.877,-393.374 937.877,-398.789 983.626,-401.158"/>
<polygon fill="#9a32cd" stroke="#9a32cd" points="788.004,-269.952 781.356,-261.702 781.408,-272.297 788.004,-269.952"/>
<text text-anchor="middle" x="914" y="-403" font-family="Helvetica,sans-Serif" font-size="10.00"> m_parent</text>
</g>
<!-- Node4 -->
<g id="node6" class="node"><title>Node4</title>
<a xlink:href="classtransfer_1_1MPICache.xhtml" target="_top" xlink:title="transfer::MPICache\l\&lt; allocator::Default,\l false \&gt;">
<polygon fill="white" stroke="black" points="476.5,-103.5 476.5,-150.5 579.5,-150.5 579.5,-103.5 476.5,-103.5"/>
<text text-anchor="start" x="484.5" y="-137.5" font-family="Helvetica,sans-Serif" font-size="10.00">transfer::MPICache</text>
<text text-anchor="start" x="484.5" y="-124.5" font-family="Helvetica,sans-Serif" font-size="10.00">&lt; allocator::Default,</text>
<text text-anchor="middle" x="528" y="-111.5" font-family="Helvetica,sans-Serif" font-size="10.00"> false &gt;</text>
</a>
</g>
<!-- Node4&#45;&gt;Node3 -->
<g id="edge6" class="edge"><title>Node4&#45;&gt;Node3</title>
<path fill="none" stroke="#8b1a1a" d="M588.75,-154.452C620.362,-169.012 659.507,-187.473 694,-205 716.827,-216.599 742.588,-230.89 759.493,-240.436"/>
<polygon fill="#8b1a1a" stroke="#8b1a1a" points="590.169,-151.253 579.621,-150.259 587.247,-157.614 590.169,-151.253"/>
</g>
<!-- Node5 -->
<g id="node8" class="node"><title>Node5</title>
<a xlink:href="classmpi_1_1MPIComm.xhtml" target="_top" xlink:title="mpi::MPIComm">
<polygon fill="white" stroke="black" points="248,-132.5 248,-153.5 334,-153.5 334,-132.5 248,-132.5"/>
<text text-anchor="middle" x="291" y="-140.5" font-family="Helvetica,sans-Serif" font-size="10.00">mpi::MPIComm</text>
</a>
</g>
<!-- Node5&#45;&gt;Node4 -->
<g id="edge8" class="edge"><title>Node5&#45;&gt;Node4</title>
<path fill="none" stroke="#9a32cd" stroke-dasharray="5,2" d="M344.174,-139.41C383.692,-136.742 437.308,-133.123 476.435,-130.481"/>
<polygon fill="#9a32cd" stroke="#9a32cd" points="343.935,-135.918 334.194,-140.084 344.407,-142.902 343.935,-135.918"/>
<text text-anchor="middle" x="400" y="-142" font-family="Helvetica,sans-Serif" font-size="10.00"> m_mpiComm</text>
</g>
<!-- Node6 -->
<g id="node10" class="node"><title>Node6</title>
<a xlink:href="classthreads_1_1PthreadMutex.xhtml" target="_top" xlink:title="threads::PthreadMutex">
<polygon fill="white" stroke="black" points="8,-132.5 8,-153.5 124,-153.5 124,-132.5 8,-132.5"/>
<text text-anchor="middle" x="66" y="-140.5" font-family="Helvetica,sans-Serif" font-size="10.00">threads::PthreadMutex</text>
</a>
</g>
<!-- Node6&#45;&gt;Node3 -->
<g id="edge22" class="edge"><title>Node6&#45;&gt;Node3</title>
<path fill="none" stroke="#9a32cd" stroke-dasharray="5,2" d="M125.563,-155.482C133.76,-157.074 142.079,-158.626 150,-160 354.064,-195.406 597.094,-227.886 711.805,-242.643"/>
<polygon fill="#9a32cd" stroke="#9a32cd" points="126.15,-152.03 115.661,-153.528 124.794,-158.897 126.15,-152.03"/>
<text text-anchor="middle" x="400" y="-222" font-family="Helvetica,sans-Serif" font-size="10.00"> m_sendRecvMutex</text>
<text text-anchor="middle" x="400" y="-209" font-family="Helvetica,sans-Serif" font-size="10.00">m_mutexes</text>
</g>
<!-- Node6&#45;&gt;Node5 -->
<g id="edge10" class="edge"><title>Node6&#45;&gt;Node5</title>
<path fill="none" stroke="#9a32cd" stroke-dasharray="5,2" d="M134.438,-143C171.378,-143 215.846,-143 247.935,-143"/>
<polygon fill="#9a32cd" stroke="#9a32cd" points="134.236,-139.5 124.236,-143 134.236,-146.5 134.236,-139.5"/>
<text text-anchor="middle" x="188" y="-147" font-family="Helvetica,sans-Serif" font-size="10.00"> mpiLock</text>
</g>
<!-- Node7 -->
<g id="node12" class="node"><title>Node7</title>
<a xlink:href="classcache_1_1CacheManager.xhtml" target="_top" xlink:title="Manages a block cache. ">
<polygon fill="white" stroke="black" points="470.5,-63.5 470.5,-84.5 585.5,-84.5 585.5,-63.5 470.5,-63.5"/>
<text text-anchor="middle" x="528" y="-71.5" font-family="Helvetica,sans-Serif" font-size="10.00">cache::CacheManager</text>
</a>
</g>
<!-- Node6&#45;&gt;Node7 -->
<g id="edge14" class="edge"><title>Node6&#45;&gt;Node7</title>
<path fill="none" stroke="#9a32cd" stroke-dasharray="5,2" d="M128.262,-130.554C162.364,-123.965 205.42,-116.016 244,-110 322.202,-97.8047 413.01,-86.8511 470.478,-80.3136"/>
<polygon fill="#9a32cd" stroke="#9a32cd" points="127.587,-127.12 118.438,-132.462 128.922,-133.991 127.587,-127.12"/>
<text text-anchor="middle" x="291" y="-114" font-family="Helvetica,sans-Serif" font-size="10.00"> m_blockMutexes</text>
</g>
<!-- Node7&#45;&gt;Node3 -->
<g id="edge12" class="edge"><title>Node7&#45;&gt;Node3</title>
<path fill="none" stroke="#9a32cd" stroke-dasharray="5,2" d="M576.113,-87.707C611.471,-99.513 659.214,-119.237 694,-148 728.143,-176.231 758.322,-220.053 771.277,-240.2"/>
<polygon fill="#9a32cd" stroke="#9a32cd" points="577.082,-84.3418 566.49,-84.5861 574.923,-91.0004 577.082,-84.3418"/>
<text text-anchor="middle" x="653" y="-152" font-family="Helvetica,sans-Serif" font-size="10.00"> m_cacheManager</text>
</g>
<!-- Node8 -->
<g id="node15" class="node"><title>Node8</title>
<a xlink:href="classcache_1_1CacheList.xhtml" target="_top" xlink:title="Controls a list of blocks. ">
<polygon fill="white" stroke="black" points="244.5,-43.5 244.5,-64.5 337.5,-64.5 337.5,-43.5 244.5,-43.5"/>
<text text-anchor="middle" x="291" y="-51.5" font-family="Helvetica,sans-Serif" font-size="10.00">cache::CacheList</text>
</a>
</g>
<!-- Node8&#45;&gt;Node7 -->
<g id="edge16" class="edge"><title>Node8&#45;&gt;Node7</title>
<path fill="none" stroke="#9a32cd" stroke-dasharray="5,2" d="M347.675,-58.7827C384.726,-61.9094 432.977,-65.9811 470.242,-69.1259"/>
<polygon fill="#9a32cd" stroke="#9a32cd" points="347.8,-55.2809 337.541,-57.9275 347.211,-62.2561 347.8,-55.2809"/>
<text text-anchor="middle" x="400" y="-70" font-family="Helvetica,sans-Serif" font-size="10.00"> m_cacheList</text>
</g>
<!-- Node9 -->
<g id="node17" class="node"><title>Node9</title>
<a xlink:href="classcache_1_1LRU.xhtml" target="_top" xlink:title="cache::LRU">
<polygon fill="white" stroke="black" points="31.5,-0.5 31.5,-21.5 100.5,-21.5 100.5,-0.5 31.5,-0.5"/>
<text text-anchor="middle" x="66" y="-8.5" font-family="Helvetica,sans-Serif" font-size="10.00">cache::LRU</text>
</a>
</g>
<!-- Node9&#45;&gt;Node8 -->
<g id="edge18" class="edge"><title>Node9&#45;&gt;Node8</title>
<path fill="none" stroke="#9a32cd" stroke-dasharray="5,2" d="M110.733,-18.1694C142.884,-23.4828 187.22,-31.1381 226,-39 232.697,-40.3577 239.759,-41.8862 246.663,-43.4349"/>
<polygon fill="#9a32cd" stroke="#9a32cd" points="111.18,-14.696 100.745,-16.5293 110.046,-21.6035 111.18,-14.696"/>
<text text-anchor="middle" x="188" y="-43" font-family="Helvetica,sans-Serif" font-size="10.00"> m_lru</text>
</g>
<!-- Node10 -->
<g id="node19" class="node"><title>Node10</title>
<polygon fill="white" stroke="#bfbfbf" points="0.5,-40.5 0.5,-87.5 131.5,-87.5 131.5,-40.5 0.5,-40.5"/>
<text text-anchor="start" x="8.5" y="-74.5" font-family="Helvetica,sans-Serif" font-size="10.00">std::unordered_map</text>
<text text-anchor="start" x="8.5" y="-61.5" font-family="Helvetica,sans-Serif" font-size="10.00">&lt; unsigned long, unsigned</text>
<text text-anchor="middle" x="66" y="-48.5" font-family="Helvetica,sans-Serif" font-size="10.00"> long &gt;</text>
</g>
<!-- Node10&#45;&gt;Node8 -->
<g id="edge20" class="edge"><title>Node10&#45;&gt;Node8</title>
<path fill="none" stroke="#9a32cd" stroke-dasharray="5,2" d="M142.016,-60.6215C175.87,-59.1169 214.667,-57.3926 244.181,-56.0808"/>
<polygon fill="#9a32cd" stroke="#9a32cd" points="141.519,-57.1401 131.684,-61.0807 141.83,-64.1332 141.519,-57.1401"/>
<text text-anchor="middle" x="188" y="-64" font-family="Helvetica,sans-Serif" font-size="10.00"> m_blockToIndex</text>
</g>
<!-- Node11&#45;&gt;Node3 -->
<g id="edge26" class="edge"><title>Node11&#45;&gt;Node3</title>
<path fill="none" stroke="#9a32cd" stroke-dasharray="5,2" d="M973.973,-301.585C939.429,-298.438 898.266,-293.083 862,-284 840.418,-278.594 816.933,-269.032 800.297,-261.588"/>
<polygon fill="#9a32cd" stroke="#9a32cd" points="973.733,-305.077 983.998,-302.453 974.337,-298.103 973.733,-305.077"/>
<text text-anchor="middle" x="914" y="-304" font-family="Helvetica,sans-Serif" font-size="10.00"> m_blockTransferer</text>
</g>
<!-- Node12&#45;&gt;Node3 -->
<g id="edge32" class="edge"><title>Node12&#45;&gt;Node3</title>
<path fill="none" stroke="#9a32cd" stroke-dasharray="5,2" d="M973.854,-189.106C939.116,-187.396 897.832,-188.704 862,-199 833.812,-207.1 805.802,-227.58 790.309,-240.288"/>
<polygon fill="#9a32cd" stroke="#9a32cd" points="973.751,-192.606 983.938,-189.695 974.159,-185.618 973.751,-192.606"/>
<text text-anchor="middle" x="914" y="-203" font-family="Helvetica,sans-Serif" font-size="10.00"> m_blockInfoResponder</text>
</g>
<!-- Node13&#45;&gt;Node3 -->
<g id="edge38" class="edge"><title>Node13&#45;&gt;Node3</title>
<path fill="none" stroke="#9a32cd" stroke-dasharray="5,2" d="M1000.43,-381.908C953.414,-361.621 886.441,-331.901 862,-317 834.288,-300.105 805.21,-275.467 789.584,-261.567"/>
<polygon fill="#9a32cd" stroke="#9a32cd" points="999.269,-385.221 1009.84,-385.959 1002.04,-378.791 999.269,-385.221"/>
<text text-anchor="middle" x="914" y="-370" font-family="Helvetica,sans-Serif" font-size="10.00"> m_deleter</text>
</g>
</g>
</svg>
