<?xml version="1.0" encoding="UTF-8" standalone="no"?>
<!DOCTYPE svg PUBLIC "-//W3C//DTD SVG 1.1//EN"
 "http://www.w3.org/Graphics/SVG/1.1/DTD/svg11.dtd">
<!-- Generated by graphviz version 2.26.3 (20100126.1600)
 -->
<!-- Title: build/tests/unittest Pages: 1 -->
<svg width="542pt" height="113pt"
 viewBox="0.00 0.00 542.00 113.00" xmlns="http://www.w3.org/2000/svg" xmlns:xlink="http://www.w3.org/1999/xlink">
<g id="graph1" class="graph" transform="scale(1 1) rotate(0) translate(4 109)">
<title>build/tests/unittest</title>
<polygon fill="white" stroke="white" points="-4,5 -4,-109 539,-109 539,5 -4,5"/>
<g id="graph2" class="cluster"><title>clusterdir_a30fd5000947d323a9f363d528741348</title>
<a xlink:href="dir_a30fd5000947d323a9f363d528741348.xhtml" target="_top" xlink:title="tests">
<polygon fill="#ddddee" stroke="black" points="8,-8 8,-97 526,-97 526,-8 8,-8"/>
<text text-anchor="middle" x="267" y="-84" font-family="Helvetica,sans-Serif" font-size="10.00">tests</text>
</a>
</g>
<g id="graph3" class="cluster"><title>clusterdir_b44afca846e18c34e51de400f8d5b50d</title>
<a xlink:href="dir_b44afca846e18c34e51de400f8d5b50d.xhtml" target="_top">
<polygon fill="#eeeeff" stroke="black" points="16,-16 16,-68 518,-68 518,-16 16,-16"/>
</a>
</g>
<!-- dir_b44afca846e18c34e51de400f8d5b50d -->
<g id="node3" class="node"><title>dir_b44afca846e18c34e51de400f8d5b50d</title>
<text text-anchor="middle" x="483" y="-39.5" font-family="Helvetica,sans-Serif" font-size="10.00">unittest</text>
</g>
<!-- dir_081b735bbfd33effd453fbe24e2fe8a7 -->
<g id="node4" class="node"><title>dir_081b735bbfd33effd453fbe24e2fe8a7</title>
<a xlink:href="dir_081b735bbfd33effd453fbe24e2fe8a7.xhtml" target="_top" xlink:title="cache">
<polygon fill="white" stroke="black" points="438,-60 384,-60 384,-24 438,-24 438,-60"/>
<text text-anchor="middle" x="411" y="-39.5" font-family="Helvetica,sans-Serif" font-size="10.00">cache</text>
</a>
</g>
<!-- dir_3148696b0262b88d6ce3696e59260258 -->
<g id="node5" class="node"><title>dir_3148696b0262b88d6ce3696e59260258</title>
<a xlink:href="dir_3148696b0262b88d6ce3696e59260258.xhtml" target="_top" xlink:title="grid">
<polygon fill="white" stroke="red" points="366,-60 312,-60 312,-24 366,-24 366,-60"/>
<text text-anchor="middle" x="339" y="-39.5" font-family="Helvetica,sans-Serif" font-size="10.00">grid</text>
</a>
</g>
<!-- dir_319921a3f70ce397088fc388a7bff771 -->
<g id="node6" class="node"><title>dir_319921a3f70ce397088fc388a7bff771</title>
<a xlink:href="dir_319921a3f70ce397088fc388a7bff771.xhtml" target="_top" xlink:title="io">
<polygon fill="white" stroke="black" points="294,-60 240,-60 240,-24 294,-24 294,-60"/>
<text text-anchor="middle" x="267" y="-39.5" font-family="Helvetica,sans-Serif" font-size="10.00">io</text>
</a>
</g>
<!-- dir_840d3910d017037cd6d7109595ebae4c -->
<g id="node7" class="node"><title>dir_840d3910d017037cd6d7109595ebae4c</title>
<a xlink:href="dir_840d3910d017037cd6d7109595ebae4c.xhtml" target="_top" xlink:title="numa">
<polygon fill="white" stroke="black" points="222,-60 168,-60 168,-24 222,-24 222,-60"/>
<text text-anchor="middle" x="195" y="-39.5" font-family="Helvetica,sans-Serif" font-size="10.00">numa</text>
</a>
</g>
<!-- dir_b6d995c96e316435747e2ec7c1ff4c52 -->
<g id="node8" class="node"><title>dir_b6d995c96e316435747e2ec7c1ff4c52</title>
<a xlink:href="dir_b6d995c96e316435747e2ec7c1ff4c52.xhtml" target="_top" xlink:title="threads">
<polygon fill="white" stroke="black" points="150,-60 96,-60 96,-24 150,-24 150,-60"/>
<text text-anchor="middle" x="123" y="-39.5" font-family="Helvetica,sans-Serif" font-size="10.00">threads</text>
</a>
</g>
<!-- dir_20cc7dde4facb1dbb0d92dd9e63bcdd1 -->
<g id="node9" class="node"><title>dir_20cc7dde4facb1dbb0d92dd9e63bcdd1</title>
<a xlink:href="dir_20cc7dde4facb1dbb0d92dd9e63bcdd1.xhtml" target="_top" xlink:title="types">
<polygon fill="white" stroke="black" points="78,-60 24,-60 24,-24 78,-24 78,-60"/>
<text text-anchor="middle" x="51" y="-39.5" font-family="Helvetica,sans-Serif" font-size="10.00">types</text>
</a>
</g>
</g>
</svg>
