<?xml version="1.0" encoding="UTF-8" standalone="no"?>
<!DOCTYPE svg PUBLIC "-//W3C//DTD SVG 1.1//EN"
 "http://www.w3.org/Graphics/SVG/1.1/DTD/svg11.dtd">
<!-- Generated by graphviz version 2.26.3 (20100126.1600)
 -->
<!-- Title: build/CMakeFiles Pages: 1 -->
<svg width="426pt" height="113pt"
 viewBox="0.00 0.00 426.00 113.00" xmlns="http://www.w3.org/2000/svg" xmlns:xlink="http://www.w3.org/1999/xlink">
<g id="graph1" class="graph" transform="scale(1 1) rotate(0) translate(4 109)">
<title>build/CMakeFiles</title>
<polygon fill="white" stroke="white" points="-4,5 -4,-109 423,-109 423,5 -4,5"/>
<g id="graph2" class="cluster"><title>clusterdir_4fef79e7177ba769987a8da36c892c5f</title>
<a xlink:href="dir_4fef79e7177ba769987a8da36c892c5f.xhtml" target="_top" xlink:title="build">
<polygon fill="#ddddee" stroke="black" points="8,-8 8,-97 410,-97 410,-8 8,-8"/>
<text text-anchor="middle" x="209" y="-84" font-family="Helvetica,sans-Serif" font-size="10.00">build</text>
</a>
</g>
<g id="graph3" class="cluster"><title>clusterdir_63772b626f2709090f0bdca0f40827b4</title>
<a xlink:href="dir_63772b626f2709090f0bdca0f40827b4.xhtml" target="_top">
<polygon fill="#eeeeff" stroke="black" points="16,-16 16,-68 402,-68 402,-16 16,-16"/>
</a>
</g>
<!-- dir_63772b626f2709090f0bdca0f40827b4 -->
<g id="node3" class="node"><title>dir_63772b626f2709090f0bdca0f40827b4</title>
<text text-anchor="middle" x="360" y="-39.5" font-family="Helvetica,sans-Serif" font-size="10.00">CMakeFiles</text>
</g>
<!-- dir_df49bd7f6e6d9fcbbae7a65a3edbd75e -->
<g id="node4" class="node"><title>dir_df49bd7f6e6d9fcbbae7a65a3edbd75e</title>
<a xlink:href="dir_df49bd7f6e6d9fcbbae7a65a3edbd75e.xhtml" target="_top" xlink:title="CompilerIdC">
<polygon fill="white" stroke="black" points="308,-60 238,-60 238,-24 308,-24 308,-60"/>
<text text-anchor="middle" x="273" y="-39.5" font-family="Helvetica,sans-Serif" font-size="10.00">CompilerIdC</text>
</a>
</g>
<!-- dir_c70bd4c67e0e7873f3b0a092ec5b2f53 -->
<g id="node5" class="node"><title>dir_c70bd4c67e0e7873f3b0a092ec5b2f53</title>
<a xlink:href="dir_c70bd4c67e0e7873f3b0a092ec5b2f53.xhtml" target="_top" xlink:title="CompilerIdCXX">
<polygon fill="white" stroke="black" points="220,-60 136,-60 136,-24 220,-24 220,-60"/>
<text text-anchor="middle" x="178" y="-39.5" font-family="Helvetica,sans-Serif" font-size="10.00">CompilerIdCXX</text>
</a>
</g>
<!-- dir_f7127310d0079b1828e512c1f5f62a1c -->
<g id="node6" class="node"><title>dir_f7127310d0079b1828e512c1f5f62a1c</title>
<a xlink:href="dir_f7127310d0079b1828e512c1f5f62a1c.xhtml" target="_top" xlink:title="CompilerIdFortran">
<polygon fill="white" stroke="black" points="118,-60 24,-60 24,-24 118,-24 118,-60"/>
<text text-anchor="middle" x="71" y="-39.5" font-family="Helvetica,sans-Serif" font-size="10.00">CompilerIdFortran</text>
</a>
</g>
</g>
</svg>
