<?xml version="1.0" encoding="UTF-8" standalone="no"?>
<!DOCTYPE svg PUBLIC "-//W3C//DTD SVG 1.1//EN"
 "http://www.w3.org/Graphics/SVG/1.1/DTD/svg11.dtd">
<!-- Generated by graphviz version 2.26.3 (20100126.1600)
 -->
<!-- Title: Graphical Class Hierarchy Pages: 1 -->
<svg width="386pt" height="70pt"
 viewBox="0.00 0.00 386.00 70.00" xmlns="http://www.w3.org/2000/svg" xmlns:xlink="http://www.w3.org/1999/xlink">
<g id="graph1" class="graph" transform="scale(1 1) rotate(0) translate(4 66)">
<title>Graphical Class Hierarchy</title>
<polygon fill="white" stroke="white" points="-4,5 -4,-66 383,-66 383,5 -4,5"/>
<!-- Node1 -->
<g id="node1" class="node"><title>Node1</title>
<a xlink:href="classtypes_1_1Type.xhtml" target="_top" xlink:title="types::Type">
<polygon fill="white" stroke="black" points="0,-20.5 0,-41.5 68,-41.5 68,-20.5 0,-20.5"/>
<text text-anchor="middle" x="34" y="-28.5" font-family="Helvetica,sans-Serif" font-size="10.00">types::Type</text>
</a>
</g>
<!-- Node2 -->
<g id="node3" class="node"><title>Node2</title>
<a xlink:href="classtypes_1_1BasicType.xhtml" target="_top" xlink:title="types::BasicType\&lt; T \&gt;">
<polygon fill="white" stroke="black" points="104.5,-20.5 104.5,-41.5 221.5,-41.5 221.5,-20.5 104.5,-20.5"/>
<text text-anchor="middle" x="163" y="-28.5" font-family="Helvetica,sans-Serif" font-size="10.00">types::BasicType&lt; T &gt;</text>
</a>
</g>
<!-- Node1&#45;&gt;Node2 -->
<g id="edge2" class="edge"><title>Node1&#45;&gt;Node2</title>
<path fill="none" stroke="midnightblue" d="M78.4275,-31C86.7225,-31 95.5094,-31 104.16,-31"/>
<polygon fill="midnightblue" stroke="midnightblue" points="78.231,-27.5001 68.231,-31 78.2309,-34.5001 78.231,-27.5001"/>
</g>
<!-- Node3 -->
<g id="node5" class="node"><title>Node3</title>
<a xlink:href="classtypes_1_1ArrayType.xhtml" target="_top" xlink:title="types::ArrayType\&lt; T \&gt;">
<polygon fill="white" stroke="black" points="260,-40.5 260,-61.5 376,-61.5 376,-40.5 260,-40.5"/>
<text text-anchor="middle" x="318" y="-48.5" font-family="Helvetica,sans-Serif" font-size="10.00">types::ArrayType&lt; T &gt;</text>
</a>
</g>
<!-- Node2&#45;&gt;Node3 -->
<g id="edge4" class="edge"><title>Node2&#45;&gt;Node3</title>
<path fill="none" stroke="midnightblue" d="M231.695,-39.8638C241.086,-41.0756 250.653,-42.31 259.832,-43.4945"/>
<polygon fill="midnightblue" stroke="midnightblue" points="231.965,-36.3697 221.599,-38.5611 231.069,-43.3122 231.965,-36.3697"/>
</g>
<!-- Node4 -->
<g id="node7" class="node"><title>Node4</title>
<a xlink:href="classtypes_1_1StructType.xhtml" target="_top" xlink:title="types::StructType\&lt; T \&gt;">
<polygon fill="white" stroke="black" points="258.5,-0.5 258.5,-21.5 377.5,-21.5 377.5,-0.5 258.5,-0.5"/>
<text text-anchor="middle" x="318" y="-8.5" font-family="Helvetica,sans-Serif" font-size="10.00">types::StructType&lt; T &gt;</text>
</a>
</g>
<!-- Node2&#45;&gt;Node4 -->
<g id="edge6" class="edge"><title>Node2&#45;&gt;Node4</title>
<path fill="none" stroke="midnightblue" d="M231.563,-22.1531C240.472,-21.0037 249.539,-19.8336 258.288,-18.7048"/>
<polygon fill="midnightblue" stroke="midnightblue" points="231.069,-18.6878 221.599,-23.4389 231.965,-25.6303 231.069,-18.6878"/>
</g>
</g>
</svg>
