<?xml version="1.0" encoding="UTF-8" standalone="no"?>
<!DOCTYPE svg PUBLIC "-//W3C//DTD SVG 1.1//EN"
 "http://www.w3.org/Graphics/SVG/1.1/DTD/svg11.dtd">
<!-- Generated by graphviz version 2.26.3 (20100126.1600)
 -->
<!-- Title: Graphical Class Hierarchy Pages: 1 -->
<svg width="276pt" height="56pt"
 viewBox="0.00 0.00 276.00 56.00" xmlns="http://www.w3.org/2000/svg" xmlns:xlink="http://www.w3.org/1999/xlink">
<g id="graph1" class="graph" transform="scale(1 1) rotate(0) translate(4 52)">
<title>Graphical Class Hierarchy</title>
<polygon fill="white" stroke="white" points="-4,5 -4,-52 273,-52 273,5 -4,5"/>
<!-- Node1 -->
<g id="node1" class="node"><title>Node1</title>
<a xlink:href="classtransfer_1_1MPICache.xhtml" target="_top" xlink:title="transfer::MPICache\l\&lt; allocator::MPIAlloc,\l true \&gt;">
<polygon fill="white" stroke="black" points="0.5,-0.5 0.5,-47.5 111.5,-47.5 111.5,-0.5 0.5,-0.5"/>
<text text-anchor="start" x="8.5" y="-34.5" font-family="Helvetica,sans-Serif" font-size="10.00">transfer::MPICache</text>
<text text-anchor="start" x="8.5" y="-21.5" font-family="Helvetica,sans-Serif" font-size="10.00">&lt; allocator::MPIAlloc,</text>
<text text-anchor="middle" x="56" y="-8.5" font-family="Helvetica,sans-Serif" font-size="10.00"> true &gt;</text>
</a>
</g>
<!-- Node2 -->
<g id="node3" class="node"><title>Node2</title>
<a xlink:href="classtransfer_1_1MPIWinCache.xhtml" target="_top" xlink:title="transfer::MPIWinCache">
<polygon fill="white" stroke="black" points="148.5,-13.5 148.5,-34.5 267.5,-34.5 267.5,-13.5 148.5,-13.5"/>
<text text-anchor="middle" x="208" y="-21.5" font-family="Helvetica,sans-Serif" font-size="10.00">transfer::MPIWinCache</text>
</a>
</g>
<!-- Node1&#45;&gt;Node2 -->
<g id="edge2" class="edge"><title>Node1&#45;&gt;Node2</title>
<path fill="none" stroke="#8b1a1a" d="M121.958,-24C130.762,-24 139.749,-24 148.435,-24"/>
<polygon fill="#8b1a1a" stroke="#8b1a1a" points="121.736,-20.5001 111.736,-24 121.736,-27.5001 121.736,-20.5001"/>
</g>
</g>
</svg>
