<?xml version="1.0" encoding="UTF-8" standalone="no"?>
<!DOCTYPE svg PUBLIC "-//W3C//DTD SVG 1.1//EN"
 "http://www.w3.org/Graphics/SVG/1.1/DTD/svg11.dtd">
<!-- Generated by graphviz version 2.26.3 (20100126.1600)
 -->
<!-- Title: Graphical Class Hierarchy Pages: 1 -->
<svg width="308pt" height="1186pt"
 viewBox="0.00 0.00 308.00 1186.00" xmlns="http://www.w3.org/2000/svg" xmlns:xlink="http://www.w3.org/1999/xlink">
<g id="graph1" class="graph" transform="scale(1 1) rotate(0) translate(4 1182)">
<title>Graphical Class Hierarchy</title>
<polygon fill="white" stroke="white" points="-4,5 -4,-1182 305,-1182 305,5 -4,5"/>
<!-- Node1 -->
<g id="node1" class="node"><title>Node1</title>
<polygon fill="white" stroke="#bfbfbf" points="0,-578.5 0,-599.5 106,-599.5 106,-578.5 0,-578.5"/>
<text text-anchor="middle" x="53" y="-586.5" font-family="Helvetica,sans-Serif" font-size="10.00">RealTestDescription</text>
</g>
<!-- Node2 -->
<g id="node3" class="node"><title>Node2</title>
<a xlink:href="classTestDescription__ArrayTypeTest__testGetSize.xhtml" target="_top" xlink:title="TestDescription_ArrayType\lTest_testGetSize">
<polygon fill="white" stroke="black" points="153,-1144 153,-1178 289,-1178 289,-1144 153,-1144"/>
<text text-anchor="start" x="161" y="-1165" font-family="Helvetica,sans-Serif" font-size="10.00">TestDescription_ArrayType</text>
<text text-anchor="middle" x="221" y="-1152" font-family="Helvetica,sans-Serif" font-size="10.00">Test_testGetSize</text>
</a>
</g>
<!-- Node1&#45;&gt;Node2 -->
<g id="edge2" class="edge"><title>Node1&#45;&gt;Node2</title>
<path fill="none" stroke="midnightblue" d="M53.5884,-609.865C56.5338,-699.82 72.4344,-1053.61 142,-1135 145.096,-1138.62 148.706,-1141.74 152.647,-1144.43"/>
<polygon fill="midnightblue" stroke="midnightblue" points="57.0851,-609.7 53.2784,-599.813 50.0884,-609.916 57.0851,-609.7"/>
</g>
<!-- Node3 -->
<g id="node5" class="node"><title>Node3</title>
<a xlink:href="classTestDescription__CacheListTest__testGetFreeIndex.xhtml" target="_top" xlink:title="TestDescription_CacheList\lTest_testGetFreeIndex">
<polygon fill="white" stroke="black" points="153.5,-1092 153.5,-1126 288.5,-1126 288.5,-1092 153.5,-1092"/>
<text text-anchor="start" x="161.5" y="-1113" font-family="Helvetica,sans-Serif" font-size="10.00">TestDescription_CacheList</text>
<text text-anchor="middle" x="221" y="-1100" font-family="Helvetica,sans-Serif" font-size="10.00">Test_testGetFreeIndex</text>
</a>
</g>
<!-- Node1&#45;&gt;Node3 -->
<g id="edge4" class="edge"><title>Node1&#45;&gt;Node3</title>
<path fill="none" stroke="midnightblue" d="M53.974,-609.726C58.3383,-694.039 78.7341,-1010.22 142,-1083 145.315,-1086.81 149.201,-1090.07 153.439,-1092.85"/>
<polygon fill="midnightblue" stroke="midnightblue" points="57.4637,-609.43 53.4712,-599.616 50.4723,-609.777 57.4637,-609.43"/>
</g>
<!-- Node4 -->
<g id="node7" class="node"><title>Node4</title>
<a xlink:href="classTestDescription__CacheListTest__testGetIndex.xhtml" target="_top" xlink:title="TestDescription_CacheList\lTest_testGetIndex">
<polygon fill="white" stroke="black" points="153.5,-1040 153.5,-1074 288.5,-1074 288.5,-1040 153.5,-1040"/>
<text text-anchor="start" x="161.5" y="-1061" font-family="Helvetica,sans-Serif" font-size="10.00">TestDescription_CacheList</text>
<text text-anchor="middle" x="221" y="-1048" font-family="Helvetica,sans-Serif" font-size="10.00">Test_testGetIndex</text>
</a>
</g>
<!-- Node1&#45;&gt;Node4 -->
<g id="edge6" class="edge"><title>Node1&#45;&gt;Node4</title>
<path fill="none" stroke="midnightblue" d="M54.4572,-609.776C60.3737,-688.445 85.0545,-966.824 142,-1031 145.258,-1034.67 149.045,-1037.83 153.161,-1040.54"/>
<polygon fill="midnightblue" stroke="midnightblue" points="57.9381,-609.386 53.7188,-599.668 50.9567,-609.896 57.9381,-609.386"/>
</g>
<!-- Node5 -->
<g id="node9" class="node"><title>Node5</title>
<a xlink:href="classTestDescription__CacheManagerTest__testGet.xhtml" target="_top" xlink:title="TestDescription_CacheManager\lTest_testGet">
<polygon fill="white" stroke="black" points="142.5,-988 142.5,-1022 299.5,-1022 299.5,-988 142.5,-988"/>
<text text-anchor="start" x="150.5" y="-1009" font-family="Helvetica,sans-Serif" font-size="10.00">TestDescription_CacheManager</text>
<text text-anchor="middle" x="221" y="-996" font-family="Helvetica,sans-Serif" font-size="10.00">Test_testGet</text>
</a>
</g>
<!-- Node1&#45;&gt;Node5 -->
<g id="edge8" class="edge"><title>Node1&#45;&gt;Node5</title>
<path fill="none" stroke="midnightblue" d="M55.046,-609.621C62.6218,-682.031 91.2928,-923.311 142,-979 145.111,-982.416 148.678,-985.385 152.54,-987.964"/>
<polygon fill="midnightblue" stroke="midnightblue" points="58.5106,-609.095 54.0111,-599.503 51.5469,-609.808 58.5106,-609.095"/>
</g>
<!-- Node6 -->
<g id="node11" class="node"><title>Node6</title>
<a xlink:href="classTestDescription__FullTest__testGetXDelta.xhtml" target="_top" xlink:title="TestDescription_FullTest\l_testGetXDelta">
<polygon fill="white" stroke="black" points="158,-936 158,-970 284,-970 284,-936 158,-936"/>
<text text-anchor="start" x="166" y="-957" font-family="Helvetica,sans-Serif" font-size="10.00">TestDescription_FullTest</text>
<text text-anchor="middle" x="221" y="-944" font-family="Helvetica,sans-Serif" font-size="10.00">_testGetXDelta</text>
</a>
</g>
<!-- Node1&#45;&gt;Node6 -->
<g id="edge10" class="edge"><title>Node1&#45;&gt;Node6</title>
<path fill="none" stroke="midnightblue" d="M55.8547,-609.823C65.3138,-675.981 97.5725,-879.801 142,-927 146.552,-931.836 152.02,-935.774 157.926,-938.98"/>
<polygon fill="midnightblue" stroke="midnightblue" points="59.3011,-609.196 54.444,-599.78 52.3691,-610.17 59.3011,-609.196"/>
</g>
<!-- Node7 -->
<g id="node13" class="node"><title>Node7</title>
<a xlink:href="classTestDescription__FullTest__testGetXMax.xhtml" target="_top" xlink:title="TestDescription_FullTest\l_testGetXMax">
<polygon fill="white" stroke="black" points="158,-884 158,-918 284,-918 284,-884 158,-884"/>
<text text-anchor="start" x="166" y="-905" font-family="Helvetica,sans-Serif" font-size="10.00">TestDescription_FullTest</text>
<text text-anchor="middle" x="221" y="-892" font-family="Helvetica,sans-Serif" font-size="10.00">_testGetXMax</text>
</a>
</g>
<!-- Node1&#45;&gt;Node7 -->
<g id="edge12" class="edge"><title>Node1&#45;&gt;Node7</title>
<path fill="none" stroke="midnightblue" d="M56.8841,-609.641C68.3598,-668.611 103.712,-836.084 142,-875 146.557,-879.632 151.953,-883.438 157.752,-886.567"/>
<polygon fill="midnightblue" stroke="midnightblue" points="60.2898,-608.817 54.9685,-599.655 53.4152,-610.136 60.2898,-608.817"/>
</g>
<!-- Node8 -->
<g id="node15" class="node"><title>Node8</title>
<a xlink:href="classTestDescription__FullTest__testLocal2global.xhtml" target="_top" xlink:title="TestDescription_FullTest\l_testLocal2global">
<polygon fill="white" stroke="black" points="158,-832 158,-866 284,-866 284,-832 158,-832"/>
<text text-anchor="start" x="166" y="-853" font-family="Helvetica,sans-Serif" font-size="10.00">TestDescription_FullTest</text>
<text text-anchor="middle" x="221" y="-840" font-family="Helvetica,sans-Serif" font-size="10.00">_testLocal2global</text>
</a>
</g>
<!-- Node1&#45;&gt;Node8 -->
<g id="edge14" class="edge"><title>Node1&#45;&gt;Node8</title>
<path fill="none" stroke="midnightblue" d="M54.961,-609.664C60.3487,-654.857 79.425,-763.209 142,-823 146.593,-827.389 151.942,-831.037 157.649,-834.07"/>
<polygon fill="midnightblue" stroke="midnightblue" points="58.4276,-609.167 53.868,-599.603 51.4685,-609.923 58.4276,-609.167"/>
</g>
<!-- Node9 -->
<g id="node17" class="node"><title>Node9</title>
<a xlink:href="classTestDescription__FullTest__testTotalBlockSize.xhtml" target="_top" xlink:title="TestDescription_FullTest\l_testTotalBlockSize">
<polygon fill="white" stroke="black" points="158,-780 158,-814 284,-814 284,-780 158,-780"/>
<text text-anchor="start" x="166" y="-801" font-family="Helvetica,sans-Serif" font-size="10.00">TestDescription_FullTest</text>
<text text-anchor="middle" x="221" y="-788" font-family="Helvetica,sans-Serif" font-size="10.00">_testTotalBlockSize</text>
</a>
</g>
<!-- Node1&#45;&gt;Node9 -->
<g id="edge16" class="edge"><title>Node1&#45;&gt;Node9</title>
<path fill="none" stroke="midnightblue" d="M57.486,-609.625C66.7074,-647.161 91.3241,-726.825 142,-771 146.68,-775.08 152.017,-778.523 157.658,-781.427"/>
<polygon fill="midnightblue" stroke="midnightblue" points="60.8776,-608.758 55.1949,-599.816 54.0611,-610.35 60.8776,-608.758"/>
</g>
<!-- Node10 -->
<g id="node19" class="node"><title>Node10</title>
<a xlink:href="classTestDescription__NetCdfReaderTest__testGetBlock.xhtml" target="_top" xlink:title="TestDescription_NetCdfReader\lTest_testGetBlock">
<polygon fill="white" stroke="black" points="144,-728 144,-762 298,-762 298,-728 144,-728"/>
<text text-anchor="start" x="152" y="-749" font-family="Helvetica,sans-Serif" font-size="10.00">TestDescription_NetCdfReader</text>
<text text-anchor="middle" x="221" y="-736" font-family="Helvetica,sans-Serif" font-size="10.00">Test_testGetBlock</text>
</a>
</g>
<!-- Node1&#45;&gt;Node10 -->
<g id="edge18" class="edge"><title>Node1&#45;&gt;Node10</title>
<path fill="none" stroke="midnightblue" d="M61.6834,-609.22C74.933,-637.745 102.85,-689.594 142,-719 146.503,-722.382 151.467,-725.337 156.647,-727.916"/>
<polygon fill="midnightblue" stroke="midnightblue" points="64.7642,-607.537 57.4719,-599.851 58.3796,-610.407 64.7642,-607.537"/>
</g>
<!-- Node11 -->
<g id="node21" class="node"><title>Node11</title>
<a xlink:href="classTestDescription__NetCdfReaderTest__testGetDimensions.xhtml" target="_top" xlink:title="TestDescription_NetCdfReader\lTest_testGetDimensions">
<polygon fill="white" stroke="black" points="144,-676 144,-710 298,-710 298,-676 144,-676"/>
<text text-anchor="start" x="152" y="-697" font-family="Helvetica,sans-Serif" font-size="10.00">TestDescription_NetCdfReader</text>
<text text-anchor="middle" x="221" y="-684" font-family="Helvetica,sans-Serif" font-size="10.00">Test_testGetDimensions</text>
</a>
</g>
<!-- Node1&#45;&gt;Node11 -->
<g id="edge20" class="edge"><title>Node1&#45;&gt;Node11</title>
<path fill="none" stroke="midnightblue" d="M69.2539,-606.947C85.9748,-624.451 113.53,-650.745 142,-667 147.768,-670.293 154.014,-673.242 160.38,-675.865"/>
<polygon fill="midnightblue" stroke="midnightblue" points="71.7581,-604.501 62.3694,-599.591 66.6472,-609.284 71.7581,-604.501"/>
</g>
<!-- Node12 -->
<g id="node23" class="node"><title>Node12</title>
<a xlink:href="classTestDescription__NetCdfReaderTest__testGetSize.xhtml" target="_top" xlink:title="TestDescription_NetCdfReader\lTest_testGetSize">
<polygon fill="white" stroke="black" points="144,-624 144,-658 298,-658 298,-624 144,-624"/>
<text text-anchor="start" x="152" y="-645" font-family="Helvetica,sans-Serif" font-size="10.00">TestDescription_NetCdfReader</text>
<text text-anchor="middle" x="221" y="-632" font-family="Helvetica,sans-Serif" font-size="10.00">Test_testGetSize</text>
</a>
</g>
<!-- Node1&#45;&gt;Node12 -->
<g id="edge22" class="edge"><title>Node1&#45;&gt;Node12</title>
<path fill="none" stroke="midnightblue" d="M96.6747,-602.518C117.814,-609.062 143.421,-616.988 165.889,-623.942"/>
<polygon fill="midnightblue" stroke="midnightblue" points="97.5851,-599.136 86.9973,-599.523 95.5153,-605.823 97.5851,-599.136"/>
</g>
<!-- Node13 -->
<g id="node25" class="node"><title>Node13</title>
<a xlink:href="classTestDescription__NumaCommTest__testAllocate.xhtml" target="_top" xlink:title="TestDescription_NumaComm\lTest_testAllocate">
<polygon fill="white" stroke="black" points="148,-572 148,-606 294,-606 294,-572 148,-572"/>
<text text-anchor="start" x="156" y="-593" font-family="Helvetica,sans-Serif" font-size="10.00">TestDescription_NumaComm</text>
<text text-anchor="middle" x="221" y="-580" font-family="Helvetica,sans-Serif" font-size="10.00">Test_testAllocate</text>
</a>
</g>
<!-- Node1&#45;&gt;Node13 -->
<g id="edge24" class="edge"><title>Node1&#45;&gt;Node13</title>
<path fill="none" stroke="midnightblue" d="M116.304,-589C126.625,-589 137.391,-589 147.924,-589"/>
<polygon fill="midnightblue" stroke="midnightblue" points="116.156,-585.5 106.156,-589 116.156,-592.5 116.156,-585.5"/>
</g>
<!-- Node14 -->
<g id="node27" class="node"><title>Node14</title>
<a xlink:href="classTestDescription__NumaCommTest__testBroadcast.xhtml" target="_top" xlink:title="TestDescription_NumaComm\lTest_testBroadcast">
<polygon fill="white" stroke="black" points="148,-520 148,-554 294,-554 294,-520 148,-520"/>
<text text-anchor="start" x="156" y="-541" font-family="Helvetica,sans-Serif" font-size="10.00">TestDescription_NumaComm</text>
<text text-anchor="middle" x="221" y="-528" font-family="Helvetica,sans-Serif" font-size="10.00">Test_testBroadcast</text>
</a>
</g>
<!-- Node1&#45;&gt;Node14 -->
<g id="edge26" class="edge"><title>Node1&#45;&gt;Node14</title>
<path fill="none" stroke="midnightblue" d="M96.6747,-575.482C117.814,-568.938 143.421,-561.012 165.889,-554.058"/>
<polygon fill="midnightblue" stroke="midnightblue" points="95.5153,-572.177 86.9973,-578.477 97.5851,-578.864 95.5153,-572.177"/>
</g>
<!-- Node15 -->
<g id="node29" class="node"><title>Node15</title>
<a xlink:href="classTestDescription__NumaTest__testCreatecComm.xhtml" target="_top" xlink:title="TestDescription_NumaTest\l_testCreatecComm">
<polygon fill="white" stroke="black" points="152.5,-468 152.5,-502 289.5,-502 289.5,-468 152.5,-468"/>
<text text-anchor="start" x="160.5" y="-489" font-family="Helvetica,sans-Serif" font-size="10.00">TestDescription_NumaTest</text>
<text text-anchor="middle" x="221" y="-476" font-family="Helvetica,sans-Serif" font-size="10.00">_testCreatecComm</text>
</a>
</g>
<!-- Node1&#45;&gt;Node15 -->
<g id="edge28" class="edge"><title>Node1&#45;&gt;Node15</title>
<path fill="none" stroke="midnightblue" d="M69.2539,-571.053C85.9748,-553.549 113.53,-527.255 142,-511 147.768,-507.707 154.014,-504.758 160.38,-502.135"/>
<polygon fill="midnightblue" stroke="midnightblue" points="66.6472,-568.716 62.3694,-578.409 71.7581,-573.499 66.6472,-568.716"/>
</g>
<!-- Node16 -->
<g id="node31" class="node"><title>Node16</title>
<a xlink:href="classTestDescription__NumaTest__testRegisterThread.xhtml" target="_top" xlink:title="TestDescription_NumaTest\l_testRegisterThread">
<polygon fill="white" stroke="black" points="152.5,-416 152.5,-450 289.5,-450 289.5,-416 152.5,-416"/>
<text text-anchor="start" x="160.5" y="-437" font-family="Helvetica,sans-Serif" font-size="10.00">TestDescription_NumaTest</text>
<text text-anchor="middle" x="221" y="-424" font-family="Helvetica,sans-Serif" font-size="10.00">_testRegisterThread</text>
</a>
</g>
<!-- Node1&#45;&gt;Node16 -->
<g id="edge30" class="edge"><title>Node1&#45;&gt;Node16</title>
<path fill="none" stroke="midnightblue" d="M61.6834,-568.78C74.933,-540.255 102.85,-488.406 142,-459 146.503,-455.618 151.467,-452.663 156.647,-450.084"/>
<polygon fill="midnightblue" stroke="midnightblue" points="58.3796,-567.593 57.4719,-578.149 64.7642,-570.463 58.3796,-567.593"/>
</g>
<!-- Node17 -->
<g id="node33" class="node"><title>Node17</title>
<a xlink:href="classTestDescription__OnceTest__testSaveExec.xhtml" target="_top" xlink:title="TestDescription_OnceTest\l_testSaveExec">
<polygon fill="white" stroke="black" points="154,-364 154,-398 288,-398 288,-364 154,-364"/>
<text text-anchor="start" x="162" y="-385" font-family="Helvetica,sans-Serif" font-size="10.00">TestDescription_OnceTest</text>
<text text-anchor="middle" x="221" y="-372" font-family="Helvetica,sans-Serif" font-size="10.00">_testSaveExec</text>
</a>
</g>
<!-- Node1&#45;&gt;Node17 -->
<g id="edge32" class="edge"><title>Node1&#45;&gt;Node17</title>
<path fill="none" stroke="midnightblue" d="M57.486,-568.375C66.7074,-530.839 91.3241,-451.175 142,-407 145.918,-403.584 150.297,-400.615 154.929,-398.035"/>
<polygon fill="midnightblue" stroke="midnightblue" points="54.0611,-567.65 55.1949,-578.184 60.8776,-569.242 54.0611,-567.65"/>
</g>
<!-- Node18 -->
<g id="node35" class="node"><title>Node18</title>
<a xlink:href="classTestDescription__PassThroughTest__testDelta.xhtml" target="_top" xlink:title="TestDescription_PassThrough\lTest_testDelta">
<polygon fill="white" stroke="black" points="146.5,-312 146.5,-346 295.5,-346 295.5,-312 146.5,-312"/>
<text text-anchor="start" x="154.5" y="-333" font-family="Helvetica,sans-Serif" font-size="10.00">TestDescription_PassThrough</text>
<text text-anchor="middle" x="221" y="-320" font-family="Helvetica,sans-Serif" font-size="10.00">Test_testDelta</text>
</a>
</g>
<!-- Node1&#45;&gt;Node18 -->
<g id="edge34" class="edge"><title>Node1&#45;&gt;Node18</title>
<path fill="none" stroke="midnightblue" d="M54.961,-568.336C60.3487,-523.143 79.425,-414.791 142,-355 145.549,-351.608 149.55,-348.659 153.818,-346.095"/>
<polygon fill="midnightblue" stroke="midnightblue" points="51.4685,-568.077 53.868,-578.397 58.4276,-568.833 51.4685,-568.077"/>
</g>
<!-- Node19 -->
<g id="node37" class="node"><title>Node19</title>
<a xlink:href="classTestDescription__PassThroughTest__testMax.xhtml" target="_top" xlink:title="TestDescription_PassThrough\lTest_testMax">
<polygon fill="white" stroke="black" points="146.5,-260 146.5,-294 295.5,-294 295.5,-260 146.5,-260"/>
<text text-anchor="start" x="154.5" y="-281" font-family="Helvetica,sans-Serif" font-size="10.00">TestDescription_PassThrough</text>
<text text-anchor="middle" x="221" y="-268" font-family="Helvetica,sans-Serif" font-size="10.00">Test_testMax</text>
</a>
</g>
<!-- Node1&#45;&gt;Node19 -->
<g id="edge36" class="edge"><title>Node1&#45;&gt;Node19</title>
<path fill="none" stroke="midnightblue" d="M56.8841,-568.359C68.3598,-509.389 103.712,-341.916 142,-303 145.342,-299.603 149.135,-296.651 153.207,-294.083"/>
<polygon fill="midnightblue" stroke="midnightblue" points="53.4152,-567.864 54.9685,-578.345 60.2898,-569.183 53.4152,-567.864"/>
</g>
<!-- Node20 -->
<g id="node39" class="node"><title>Node20</title>
<a xlink:href="classTestDescription__PassThroughTest__testNumaDomainId.xhtml" target="_top" xlink:title="TestDescription_PassThrough\lTest_testNumaDomainId">
<polygon fill="white" stroke="black" points="146.5,-208 146.5,-242 295.5,-242 295.5,-208 146.5,-208"/>
<text text-anchor="start" x="154.5" y="-229" font-family="Helvetica,sans-Serif" font-size="10.00">TestDescription_PassThrough</text>
<text text-anchor="middle" x="221" y="-216" font-family="Helvetica,sans-Serif" font-size="10.00">Test_testNumaDomainId</text>
</a>
</g>
<!-- Node1&#45;&gt;Node20 -->
<g id="edge38" class="edge"><title>Node1&#45;&gt;Node20</title>
<path fill="none" stroke="midnightblue" d="M55.8547,-568.177C65.3138,-502.019 97.5725,-298.199 142,-251 145.167,-247.636 148.776,-244.706 152.668,-242.155"/>
<polygon fill="midnightblue" stroke="midnightblue" points="52.3691,-567.83 54.444,-578.22 59.3011,-568.804 52.3691,-567.83"/>
</g>
<!-- Node21 -->
<g id="node41" class="node"><title>Node21</title>
<a xlink:href="classTestDescription__PassThroughTest__testTypeSize.xhtml" target="_top" xlink:title="TestDescription_PassThrough\lTest_testTypeSize">
<polygon fill="white" stroke="black" points="146.5,-156 146.5,-190 295.5,-190 295.5,-156 146.5,-156"/>
<text text-anchor="start" x="154.5" y="-177" font-family="Helvetica,sans-Serif" font-size="10.00">TestDescription_PassThrough</text>
<text text-anchor="middle" x="221" y="-164" font-family="Helvetica,sans-Serif" font-size="10.00">Test_testTypeSize</text>
</a>
</g>
<!-- Node1&#45;&gt;Node21 -->
<g id="edge40" class="edge"><title>Node1&#45;&gt;Node21</title>
<path fill="none" stroke="midnightblue" d="M55.046,-568.379C62.6218,-495.969 91.2928,-254.689 142,-199 145.111,-195.584 148.678,-192.615 152.54,-190.036"/>
<polygon fill="midnightblue" stroke="midnightblue" points="51.5469,-568.192 54.0111,-578.497 58.5106,-568.905 51.5469,-568.192"/>
</g>
<!-- Node22 -->
<g id="node43" class="node"><title>Node22</title>
<a xlink:href="classTestDescription__SyncTest__testBarrier.xhtml" target="_top" xlink:title="TestDescription_SyncTest\l_testBarrier">
<polygon fill="white" stroke="black" points="154.5,-104 154.5,-138 287.5,-138 287.5,-104 154.5,-104"/>
<text text-anchor="start" x="162.5" y="-125" font-family="Helvetica,sans-Serif" font-size="10.00">TestDescription_SyncTest</text>
<text text-anchor="middle" x="221" y="-112" font-family="Helvetica,sans-Serif" font-size="10.00">_testBarrier</text>
</a>
</g>
<!-- Node1&#45;&gt;Node22 -->
<g id="edge42" class="edge"><title>Node1&#45;&gt;Node22</title>
<path fill="none" stroke="midnightblue" d="M54.4572,-568.224C60.3737,-489.555 85.0545,-211.176 142,-147 145.546,-143.004 149.717,-139.62 154.259,-136.754"/>
<polygon fill="midnightblue" stroke="midnightblue" points="50.9567,-568.104 53.7188,-578.332 57.9381,-568.614 50.9567,-568.104"/>
</g>
<!-- Node23 -->
<g id="node45" class="node"><title>Node23</title>
<a xlink:href="classTestDescription__SyncTest__testBroadcast.xhtml" target="_top" xlink:title="TestDescription_SyncTest\l_testBroadcast">
<polygon fill="white" stroke="black" points="154.5,-52 154.5,-86 287.5,-86 287.5,-52 154.5,-52"/>
<text text-anchor="start" x="162.5" y="-73" font-family="Helvetica,sans-Serif" font-size="10.00">TestDescription_SyncTest</text>
<text text-anchor="middle" x="221" y="-60" font-family="Helvetica,sans-Serif" font-size="10.00">_testBroadcast</text>
</a>
</g>
<!-- Node1&#45;&gt;Node23 -->
<g id="edge44" class="edge"><title>Node1&#45;&gt;Node23</title>
<path fill="none" stroke="midnightblue" d="M53.974,-568.274C58.3383,-483.961 78.7341,-167.784 142,-95 145.505,-90.9679 149.647,-87.5582 154.168,-84.6752"/>
<polygon fill="midnightblue" stroke="midnightblue" points="50.4723,-568.223 53.4712,-578.384 57.4637,-568.57 50.4723,-568.223"/>
</g>
<!-- Node24 -->
<g id="node47" class="node"><title>Node24</title>
<a xlink:href="classTestDescription__SyncTest__testWaitBarrier.xhtml" target="_top" xlink:title="TestDescription_SyncTest\l_testWaitBarrier">
<polygon fill="white" stroke="black" points="154.5,-0 154.5,-34 287.5,-34 287.5,-0 154.5,-0"/>
<text text-anchor="start" x="162.5" y="-21" font-family="Helvetica,sans-Serif" font-size="10.00">TestDescription_SyncTest</text>
<text text-anchor="middle" x="221" y="-8" font-family="Helvetica,sans-Serif" font-size="10.00">_testWaitBarrier</text>
</a>
</g>
<!-- Node1&#45;&gt;Node24 -->
<g id="edge46" class="edge"><title>Node1&#45;&gt;Node24</title>
<path fill="none" stroke="midnightblue" d="M53.5884,-568.135C56.5338,-478.18 72.4344,-124.392 142,-43 145.565,-38.8291 149.812,-35.3235 154.461,-32.3777"/>
<polygon fill="midnightblue" stroke="midnightblue" points="50.0884,-568.084 53.2784,-578.187 57.0851,-568.3 50.0884,-568.084"/>
</g>
</g>
</svg>
