<?xml version="1.0" encoding="UTF-8" standalone="no"?>
<!DOCTYPE svg PUBLIC "-//W3C//DTD SVG 1.1//EN"
 "http://www.w3.org/Graphics/SVG/1.1/DTD/svg11.dtd">
<!-- Generated by graphviz version 2.26.3 (20100126.1600)
 -->
<!-- Title: G Pages: 1 -->
<svg width="354pt" height="110pt"
 viewBox="0.00 0.00 354.00 110.00" xmlns="http://www.w3.org/2000/svg" xmlns:xlink="http://www.w3.org/1999/xlink">
<g id="graph1" class="graph" transform="scale(1 1) rotate(0) translate(4 106)">
<title>G</title>
<polygon fill="white" stroke="white" points="-4,5 -4,-106 351,-106 351,5 -4,5"/>
<!-- Node1 -->
<g id="node1" class="node"><title>Node1</title>
<a xlink:href="classgrid_1_1Grid.xhtml" target="_top" xlink:title="Base class for a grid.">
<polygon fill="white" stroke="black" points="0,-40.5 0,-61.5 56,-61.5 56,-40.5 0,-40.5"/>
<text text-anchor="middle" x="28" y="-48.5" font-family="Helvetica,sans-Serif" font-size="10.00">grid::Grid</text>
</a>
</g>
<!-- Node2 -->
<g id="node3" class="node"><title>Node2</title>
<a xlink:href="classgrid_1_1LocalCacheGrid.xhtml" target="_top" xlink:title="grid::LocalCacheGrid">
<polygon fill="white" stroke="black" points="95,-80.5 95,-101.5 203,-101.5 203,-80.5 95,-80.5"/>
<text text-anchor="middle" x="149" y="-88.5" font-family="Helvetica,sans-Serif" font-size="10.00">grid::LocalCacheGrid</text>
</a>
</g>
<!-- Node1&#45;&gt;Node2 -->
<g id="edge2" class="edge"><title>Node1&#45;&gt;Node2</title>
<path fill="none" stroke="midnightblue" d="M65.8612,-63.5161C82.2154,-68.9225 101.149,-75.1814 116.813,-80.3595"/>
<polygon fill="midnightblue" stroke="midnightblue" points="66.6572,-60.093 56.064,-60.2773 64.46,-66.7393 66.6572,-60.093"/>
</g>
<!-- Node5 -->
<g id="node9" class="node"><title>Node5</title>
<a xlink:href="classgrid_1_1LocalStaticGrid.xhtml" target="_top" xlink:title="grid::LocalStaticGrid">
<polygon fill="white" stroke="black" points="96.5,-40.5 96.5,-61.5 201.5,-61.5 201.5,-40.5 96.5,-40.5"/>
<text text-anchor="middle" x="149" y="-48.5" font-family="Helvetica,sans-Serif" font-size="10.00">grid::LocalStaticGrid</text>
</a>
</g>
<!-- Node1&#45;&gt;Node5 -->
<g id="edge8" class="edge"><title>Node1&#45;&gt;Node5</title>
<path fill="none" stroke="midnightblue" d="M66.0893,-51C75.6974,-51 86.1838,-51 96.3676,-51"/>
<polygon fill="midnightblue" stroke="midnightblue" points="66.064,-47.5001 56.064,-51 66.0639,-54.5001 66.064,-47.5001"/>
</g>
<!-- Node6 -->
<g id="node12" class="node"><title>Node6</title>
<a xlink:href="classgrid_1_1PassThroughGrid.xhtml" target="_top" xlink:title="grid::PassThroughGrid">
<polygon fill="white" stroke="black" points="92,-0.5 92,-21.5 206,-21.5 206,-0.5 92,-0.5"/>
<text text-anchor="middle" x="149" y="-8.5" font-family="Helvetica,sans-Serif" font-size="10.00">grid::PassThroughGrid</text>
</a>
</g>
<!-- Node1&#45;&gt;Node6 -->
<g id="edge12" class="edge"><title>Node1&#45;&gt;Node6</title>
<path fill="none" stroke="midnightblue" d="M65.8612,-38.4839C82.2154,-33.0775 101.149,-26.8186 116.813,-21.6405"/>
<polygon fill="midnightblue" stroke="midnightblue" points="64.46,-35.2607 56.064,-41.7227 66.6572,-41.907 64.46,-35.2607"/>
</g>
<!-- Node3 -->
<g id="node5" class="node"><title>Node3</title>
<a xlink:href="classgrid_1_1DistCacheGrid.xhtml" target="_top" xlink:title="grid::DistCacheGrid">
<polygon fill="white" stroke="black" points="242.5,-80.5 242.5,-101.5 345.5,-101.5 345.5,-80.5 242.5,-80.5"/>
<text text-anchor="middle" x="294" y="-88.5" font-family="Helvetica,sans-Serif" font-size="10.00">grid::DistCacheGrid</text>
</a>
</g>
<!-- Node2&#45;&gt;Node3 -->
<g id="edge4" class="edge"><title>Node2&#45;&gt;Node3</title>
<path fill="none" stroke="midnightblue" d="M213.659,-91C223.204,-91 232.932,-91 242.172,-91"/>
<polygon fill="midnightblue" stroke="midnightblue" points="213.405,-87.5001 203.405,-91 213.405,-94.5001 213.405,-87.5001"/>
</g>
<!-- Node4 -->
<g id="node7" class="node"><title>Node4</title>
<a xlink:href="classgrid_1_1DistStaticGrid.xhtml" target="_top" xlink:title="grid::DistStaticGrid">
<polygon fill="white" stroke="black" points="244,-40.5 244,-61.5 344,-61.5 344,-40.5 244,-40.5"/>
<text text-anchor="middle" x="294" y="-48.5" font-family="Helvetica,sans-Serif" font-size="10.00">grid::DistStaticGrid</text>
</a>
</g>
<!-- Node2&#45;&gt;Node4 -->
<g id="edge6" class="edge"><title>Node2&#45;&gt;Node4</title>
<path fill="none" stroke="midnightblue" d="M196.856,-77.7985C216.036,-72.5073 237.829,-66.4955 255.906,-61.5087"/>
<polygon fill="midnightblue" stroke="midnightblue" points="195.806,-74.4571 187.097,-80.4905 197.668,-81.2051 195.806,-74.4571"/>
</g>
<!-- Node5&#45;&gt;Node4 -->
<g id="edge10" class="edge"><title>Node5&#45;&gt;Node4</title>
<path fill="none" stroke="midnightblue" d="M211.91,-51C222.621,-51 233.617,-51 243.939,-51"/>
<polygon fill="midnightblue" stroke="midnightblue" points="211.759,-47.5001 201.759,-51 211.758,-54.5001 211.759,-47.5001"/>
</g>
</g>
</svg>
