<?xml version="1.0" encoding="UTF-8" standalone="no"?>
<!DOCTYPE svg PUBLIC "-//W3C//DTD SVG 1.1//EN"
 "http://www.w3.org/Graphics/SVG/1.1/DTD/svg11.dtd">
<!-- Generated by graphviz version 2.26.3 (20100126.1600)
 -->
<!-- Title: Graphical Class Hierarchy Pages: 1 -->
<svg width="280pt" height="70pt"
 viewBox="0.00 0.00 280.00 70.00" xmlns="http://www.w3.org/2000/svg" xmlns:xlink="http://www.w3.org/1999/xlink">
<g id="graph1" class="graph" transform="scale(1 1) rotate(0) translate(4 66)">
<title>Graphical Class Hierarchy</title>
<polygon fill="white" stroke="white" points="-4,5 -4,-66 277,-66 277,5 -4,5"/>
<!-- Node1 -->
<g id="node1" class="node"><title>Node1</title>
<a xlink:href="classtransfer_1_1NumaCache.xhtml" target="_top" xlink:title="transfer::NumaCache">
<polygon fill="white" stroke="black" points="0,-40.5 0,-61.5 110,-61.5 110,-40.5 0,-40.5"/>
<text text-anchor="middle" x="55" y="-48.5" font-family="Helvetica,sans-Serif" font-size="10.00">transfer::NumaCache</text>
</a>
</g>
<!-- Node2 -->
<g id="node3" class="node"><title>Node2</title>
<a xlink:href="classtransfer_1_1NumaFullCache.xhtml" target="_top" xlink:title="transfer::NumaFullCache">
<polygon fill="white" stroke="black" points="146,-20.5 146,-41.5 272,-41.5 272,-20.5 146,-20.5"/>
<text text-anchor="middle" x="209" y="-28.5" font-family="Helvetica,sans-Serif" font-size="10.00">transfer::NumaFullCache</text>
</a>
</g>
<!-- Node1&#45;&gt;Node2 -->
<g id="edge2" class="edge"><title>Node1&#45;&gt;Node2</title>
<path fill="none" stroke="midnightblue" d="M120.343,-42.5139C128.79,-41.4169 137.429,-40.295 145.84,-39.2026"/>
<polygon fill="midnightblue" stroke="midnightblue" points="119.628,-39.0772 110.163,-43.836 120.53,-46.0189 119.628,-39.0772"/>
</g>
<!-- Node3 -->
<g id="node4" class="node"><title>Node3</title>
<a xlink:href="classtransfer_1_1NumaFull.xhtml" target="_top" xlink:title="transfer::NumaFull">
<polygon fill="white" stroke="black" points="6,-0.5 6,-21.5 104,-21.5 104,-0.5 6,-0.5"/>
<text text-anchor="middle" x="55" y="-8.5" font-family="Helvetica,sans-Serif" font-size="10.00">transfer::NumaFull</text>
</a>
</g>
<!-- Node3&#45;&gt;Node2 -->
<g id="edge4" class="edge"><title>Node3&#45;&gt;Node2</title>
<path fill="none" stroke="midnightblue" d="M114.329,-18.7051C124.688,-20.0504 135.498,-21.4543 145.954,-22.8122"/>
<polygon fill="midnightblue" stroke="midnightblue" points="114.517,-15.2002 104.15,-17.3831 113.616,-22.1419 114.517,-15.2002"/>
</g>
</g>
</svg>
