<?xml version="1.0" encoding="UTF-8" standalone="no"?>
<!DOCTYPE svg PUBLIC "-//W3C//DTD SVG 1.1//EN"
 "http://www.w3.org/Graphics/SVG/1.1/DTD/svg11.dtd">
<!-- Generated by graphviz version 2.26.3 (20100126.1600)
 -->
<!-- Title: Graphical Class Hierarchy Pages: 1 -->
<svg width="378pt" height="42pt"
 viewBox="0.00 0.00 378.00 42.00" xmlns="http://www.w3.org/2000/svg" xmlns:xlink="http://www.w3.org/1999/xlink">
<g id="graph1" class="graph" transform="scale(1 1) rotate(0) translate(4 38)">
<title>Graphical Class Hierarchy</title>
<polygon fill="white" stroke="white" points="-4,5 -4,-38 375,-38 375,5 -4,5"/>
<!-- Node1 -->
<g id="node1" class="node"><title>Node1</title>
<a xlink:href="classgrid_1_1Container.xhtml" target="_top" xlink:title="grid::Container">
<polygon fill="white" stroke="black" points="0,-6.5 0,-27.5 80,-27.5 80,-6.5 0,-6.5"/>
<text text-anchor="middle" x="40" y="-14.5" font-family="Helvetica,sans-Serif" font-size="10.00">grid::Container</text>
</a>
</g>
<!-- Node2 -->
<g id="node3" class="node"><title>Node2</title>
<a xlink:href="classgrid_1_1TypedContainer.xhtml" target="_top" xlink:title="grid::TypedContainer\l\&lt; Type \&gt;">
<polygon fill="white" stroke="black" points="116.5,-0 116.5,-34 223.5,-34 223.5,-0 116.5,-0"/>
<text text-anchor="start" x="124.5" y="-21" font-family="Helvetica,sans-Serif" font-size="10.00">grid::TypedContainer</text>
<text text-anchor="middle" x="170" y="-8" font-family="Helvetica,sans-Serif" font-size="10.00">&lt; Type &gt;</text>
</a>
</g>
<!-- Node1&#45;&gt;Node2 -->
<g id="edge2" class="edge"><title>Node1&#45;&gt;Node2</title>
<path fill="none" stroke="midnightblue" d="M90.2923,-17C98.8582,-17 107.784,-17 116.431,-17"/>
<polygon fill="midnightblue" stroke="midnightblue" points="90.0651,-13.5001 80.065,-17 90.065,-20.5001 90.0651,-13.5001"/>
</g>
<!-- Node3 -->
<g id="node5" class="node"><title>Node3</title>
<a xlink:href="classgrid_1_1SimpleContainer.xhtml" target="_top" xlink:title="grid::SimpleContainer\l\&lt; Level, Type \&gt;">
<polygon fill="white" stroke="black" points="260,-0 260,-34 370,-34 370,-0 260,-0"/>
<text text-anchor="start" x="268" y="-21" font-family="Helvetica,sans-Serif" font-size="10.00">grid::SimpleContainer</text>
<text text-anchor="middle" x="315" y="-8" font-family="Helvetica,sans-Serif" font-size="10.00">&lt; Level, Type &gt;</text>
</a>
</g>
<!-- Node2&#45;&gt;Node3 -->
<g id="edge4" class="edge"><title>Node2&#45;&gt;Node3</title>
<path fill="none" stroke="midnightblue" d="M233.658,-17C242.336,-17 251.185,-17 259.699,-17"/>
<polygon fill="midnightblue" stroke="midnightblue" points="233.581,-13.5001 223.581,-17 233.581,-20.5001 233.581,-13.5001"/>
</g>
</g>
</svg>
