<?xml version="1.0" encoding="UTF-8" standalone="no"?>
<!DOCTYPE svg PUBLIC "-//W3C//DTD SVG 1.1//EN"
 "http://www.w3.org/Graphics/SVG/1.1/DTD/svg11.dtd">
<!-- Generated by graphviz version 2.26.3 (20100126.1600)
 -->
<!-- Title: Graphical Class Hierarchy Pages: 1 -->
<svg width="556pt" height="132pt"
 viewBox="0.00 0.00 556.00 132.00" xmlns="http://www.w3.org/2000/svg" xmlns:xlink="http://www.w3.org/1999/xlink">
<g id="graph1" class="graph" transform="scale(1 1) rotate(0) translate(4 128)">
<title>Graphical Class Hierarchy</title>
<polygon fill="white" stroke="white" points="-4,5 -4,-128 553,-128 553,5 -4,5"/>
<!-- Node1 -->
<g id="node1" class="node"><title>Node1</title>
<a xlink:href="classgrid_1_1level_1_1Level.xhtml" target="_top" xlink:title="Base class for a grid level. ">
<polygon fill="white" stroke="black" points="0,-26 0,-60 88,-60 88,-26 0,-26"/>
<text text-anchor="start" x="8" y="-47" font-family="Helvetica,sans-Serif" font-size="10.00">grid::level::Level</text>
<text text-anchor="middle" x="44" y="-34" font-family="Helvetica,sans-Serif" font-size="10.00">&lt; Type &gt;</text>
</a>
</g>
<!-- Node2 -->
<g id="node3" class="node"><title>Node2</title>
<a xlink:href="classgrid_1_1level_1_1Blocked.xhtml" target="_top" xlink:title="Base class for all grid levels that work on blocks. ">
<polygon fill="white" stroke="black" points="135,-52 135,-86 235,-86 235,-52 135,-52"/>
<text text-anchor="start" x="143" y="-73" font-family="Helvetica,sans-Serif" font-size="10.00">grid::level::Blocked</text>
<text text-anchor="middle" x="185" y="-60" font-family="Helvetica,sans-Serif" font-size="10.00">&lt; Type &gt;</text>
</a>
</g>
<!-- Node1&#45;&gt;Node2 -->
<g id="edge2" class="edge"><title>Node1&#45;&gt;Node2</title>
<path fill="none" stroke="midnightblue" d="M98.0951,-52.975C110.07,-55.1831 122.713,-57.5144 134.536,-59.6946"/>
<polygon fill="midnightblue" stroke="midnightblue" points="98.6953,-49.5267 88.2264,-51.1552 97.4259,-56.4107 98.6953,-49.5267"/>
</g>
<!-- Node7 -->
<g id="node13" class="node"><title>Node7</title>
<a xlink:href="classgrid_1_1level_1_1PassThrough.xhtml" target="_top" xlink:title="grid::level::PassThrough\l\&lt; Type \&gt;">
<polygon fill="white" stroke="black" points="124,-0 124,-34 246,-34 246,-0 124,-0"/>
<text text-anchor="start" x="132" y="-21" font-family="Helvetica,sans-Serif" font-size="10.00">grid::level::PassThrough</text>
<text text-anchor="middle" x="185" y="-8" font-family="Helvetica,sans-Serif" font-size="10.00">&lt; Type &gt;</text>
</a>
</g>
<!-- Node1&#45;&gt;Node7 -->
<g id="edge12" class="edge"><title>Node1&#45;&gt;Node7</title>
<path fill="none" stroke="midnightblue" d="M98.261,-32.9944C106.647,-31.448 115.358,-29.8418 123.883,-28.2699"/>
<polygon fill="midnightblue" stroke="midnightblue" points="97.4259,-29.5893 88.2264,-34.8448 98.6953,-36.4733 97.4259,-29.5893"/>
</g>
<!-- Node3 -->
<g id="node5" class="node"><title>Node3</title>
<a xlink:href="classgrid_1_1level_1_1Cache.xhtml" target="_top" xlink:title="grid::level::Cache\l\&lt; Type, Allocator \&gt;">
<polygon fill="white" stroke="black" points="282.5,-79 282.5,-113 383.5,-113 383.5,-79 282.5,-79"/>
<text text-anchor="start" x="290.5" y="-100" font-family="Helvetica,sans-Serif" font-size="10.00">grid::level::Cache</text>
<text text-anchor="middle" x="333" y="-87" font-family="Helvetica,sans-Serif" font-size="10.00">&lt; Type, Allocator &gt;</text>
</a>
</g>
<!-- Node2&#45;&gt;Node3 -->
<g id="edge4" class="edge"><title>Node2&#45;&gt;Node3</title>
<path fill="none" stroke="midnightblue" d="M245.309,-80.0022C257.639,-82.2517 270.495,-84.5971 282.442,-86.7766"/>
<polygon fill="midnightblue" stroke="midnightblue" points="245.572,-76.4926 235.106,-78.141 244.316,-83.3789 245.572,-76.4926"/>
</g>
<!-- Node5 -->
<g id="node9" class="node"><title>Node5</title>
<a xlink:href="classgrid_1_1level_1_1Full.xhtml" target="_top" xlink:title="grid::level::Full\&lt;\l Type, Allocator \&gt;">
<polygon fill="white" stroke="black" points="285.5,-24 285.5,-58 380.5,-58 380.5,-24 285.5,-24"/>
<text text-anchor="start" x="293.5" y="-45" font-family="Helvetica,sans-Serif" font-size="10.00">grid::level::Full&lt;</text>
<text text-anchor="middle" x="333" y="-32" font-family="Helvetica,sans-Serif" font-size="10.00"> Type, Allocator &gt;</text>
</a>
</g>
<!-- Node2&#45;&gt;Node5 -->
<g id="edge8" class="edge"><title>Node2&#45;&gt;Node5</title>
<path fill="none" stroke="midnightblue" d="M245.203,-57.6103C258.606,-55.0745 272.635,-52.4204 285.446,-49.9966"/>
<polygon fill="midnightblue" stroke="midnightblue" points="244.281,-54.2225 235.106,-59.5205 245.582,-61.1005 244.281,-54.2225"/>
</g>
<!-- Node4 -->
<g id="node7" class="node"><title>Node4</title>
<a xlink:href="classgrid_1_1level_1_1CacheDist.xhtml" target="_top" xlink:title="grid::level::CacheDist\l\&lt; MPITrans, NumaTrans,\l Type, Allocator \&gt;">
<polygon fill="white" stroke="black" points="420,-76.5 420,-123.5 548,-123.5 548,-76.5 420,-76.5"/>
<text text-anchor="start" x="428" y="-110.5" font-family="Helvetica,sans-Serif" font-size="10.00">grid::level::CacheDist</text>
<text text-anchor="start" x="428" y="-97.5" font-family="Helvetica,sans-Serif" font-size="10.00">&lt; MPITrans, NumaTrans,</text>
<text text-anchor="middle" x="484" y="-84.5" font-family="Helvetica,sans-Serif" font-size="10.00"> Type, Allocator &gt;</text>
</a>
</g>
<!-- Node3&#45;&gt;Node4 -->
<g id="edge6" class="edge"><title>Node3&#45;&gt;Node4</title>
<path fill="none" stroke="midnightblue" d="M393.92,-97.6138C402.427,-97.8391 411.19,-98.0713 419.756,-98.2982"/>
<polygon fill="midnightblue" stroke="midnightblue" points="393.79,-94.1092 383.701,-97.3431 393.605,-101.107 393.79,-94.1092"/>
</g>
<!-- Node6 -->
<g id="node11" class="node"><title>Node6</title>
<a xlink:href="classgrid_1_1level_1_1FullDist.xhtml" target="_top" xlink:title="grid::level::FullDist\l\&lt; MPITrans, NumaTrans,\l Type, Allocator \&gt;">
<polygon fill="white" stroke="black" points="420,-10.5 420,-57.5 548,-57.5 548,-10.5 420,-10.5"/>
<text text-anchor="start" x="428" y="-44.5" font-family="Helvetica,sans-Serif" font-size="10.00">grid::level::FullDist</text>
<text text-anchor="start" x="428" y="-31.5" font-family="Helvetica,sans-Serif" font-size="10.00">&lt; MPITrans, NumaTrans,</text>
<text text-anchor="middle" x="484" y="-18.5" font-family="Helvetica,sans-Serif" font-size="10.00"> Type, Allocator &gt;</text>
</a>
</g>
<!-- Node5&#45;&gt;Node6 -->
<g id="edge10" class="edge"><title>Node5&#45;&gt;Node6</title>
<path fill="none" stroke="midnightblue" d="M390.908,-38.3155C400.415,-37.8748 410.317,-37.4158 419.962,-36.9686"/>
<polygon fill="midnightblue" stroke="midnightblue" points="390.605,-34.8257 380.777,-38.7852 390.929,-41.8182 390.605,-34.8257"/>
</g>
</g>
</svg>
