<?xml version="1.0" encoding="UTF-8" standalone="no"?>
<!DOCTYPE svg PUBLIC "-//W3C//DTD SVG 1.1//EN"
 "http://www.w3.org/Graphics/SVG/1.1/DTD/svg11.dtd">
<!-- Generated by graphviz version 2.26.3 (20100126.1600)
 -->
<!-- Title: G Pages: 1 -->
<svg width="380pt" height="70pt"
 viewBox="0.00 0.00 380.00 70.00" xmlns="http://www.w3.org/2000/svg" xmlns:xlink="http://www.w3.org/1999/xlink">
<g id="graph1" class="graph" transform="scale(1 1) rotate(0) translate(4 66)">
<title>G</title>
<polygon fill="white" stroke="white" points="-4,5 -4,-66 377,-66 377,5 -4,5"/>
<!-- Node1 -->
<g id="node1" class="node"><title>Node1</title>
<a xlink:href="classasagi_1_1Grid.xhtml" target="_top" xlink:title="C++ Interface for ASAGI.">
<polygon fill="white" stroke="black" points="0,-0.5 0,-21.5 64,-21.5 64,-0.5 0,-0.5"/>
<text text-anchor="middle" x="32" y="-8.5" font-family="Helvetica,sans-Serif" font-size="10.00">asagi::Grid</text>
</a>
</g>
<!-- Node2 -->
<g id="node3" class="node"><title>Node2</title>
<a xlink:href="classgrid_1_1GridContainer.xhtml" target="_top" xlink:title="grid::GridContainer">
<polygon fill="white" stroke="black" points="100,-0.5 100,-21.5 198,-21.5 198,-0.5 100,-0.5"/>
<text text-anchor="middle" x="149" y="-8.5" font-family="Helvetica,sans-Serif" font-size="10.00">grid::GridContainer</text>
</a>
</g>
<!-- Node1&#45;&gt;Node2 -->
<g id="edge2" class="edge"><title>Node1&#45;&gt;Node2</title>
<path fill="none" stroke="midnightblue" d="M74.3944,-11C82.6163,-11 91.2985,-11 99.7192,-11"/>
<polygon fill="midnightblue" stroke="midnightblue" points="74.2805,-7.5001 64.2805,-11 74.2804,-14.5001 74.2805,-7.5001"/>
</g>
<!-- Node3 -->
<g id="node5" class="node"><title>Node3</title>
<a xlink:href="classgrid_1_1AdaptiveGridContainer.xhtml" target="_top" xlink:title="An adaptive container that can store multiple grids of the same level.">
<polygon fill="white" stroke="black" points="234.5,-40.5 234.5,-61.5 371.5,-61.5 371.5,-40.5 234.5,-40.5"/>
<text text-anchor="middle" x="303" y="-48.5" font-family="Helvetica,sans-Serif" font-size="10.00">grid::AdaptiveGridContainer</text>
</a>
</g>
<!-- Node2&#45;&gt;Node3 -->
<g id="edge4" class="edge"><title>Node2&#45;&gt;Node3</title>
<path fill="none" stroke="midnightblue" d="M199.266,-24.0561C219.772,-29.3823 243.166,-35.4587 262.541,-40.4913"/>
<polygon fill="midnightblue" stroke="midnightblue" points="200.02,-20.636 189.462,-21.5095 198.261,-27.4112 200.02,-20.636"/>
</g>
<!-- Node4 -->
<g id="node7" class="node"><title>Node4</title>
<a xlink:href="classgrid_1_1SimpleGridContainer.xhtml" target="_top" xlink:title="grid::SimpleGridContainer">
<polygon fill="white" stroke="black" points="239,-0.5 239,-21.5 367,-21.5 367,-0.5 239,-0.5"/>
<text text-anchor="middle" x="303" y="-8.5" font-family="Helvetica,sans-Serif" font-size="10.00">grid::SimpleGridContainer</text>
</a>
</g>
<!-- Node2&#45;&gt;Node4 -->
<g id="edge6" class="edge"><title>Node2&#45;&gt;Node4</title>
<path fill="none" stroke="midnightblue" d="M208.37,-11C218.351,-11 228.749,-11 238.844,-11"/>
<polygon fill="midnightblue" stroke="midnightblue" points="208.15,-7.5001 198.15,-11 208.15,-14.5001 208.15,-7.5001"/>
</g>
<!-- Node5 -->
<g id="node8" class="node"><title>Node5</title>
<a xlink:href="classgrid_1_1GridCreator.xhtml" target="_top" xlink:title="grid::GridCreator">
<polygon fill="white" stroke="black" points="104.5,-40.5 104.5,-61.5 193.5,-61.5 193.5,-40.5 104.5,-40.5"/>
<text text-anchor="middle" x="149" y="-48.5" font-family="Helvetica,sans-Serif" font-size="10.00">grid::GridCreator</text>
</a>
</g>
<!-- Node5&#45;&gt;Node3 -->
<g id="edge8" class="edge"><title>Node5&#45;&gt;Node3</title>
<path fill="none" stroke="#8b1a1a" d="M203.697,-51C213.66,-51 224.169,-51 234.472,-51"/>
<polygon fill="#8b1a1a" stroke="#8b1a1a" points="203.543,-47.5001 193.543,-51 203.543,-54.5001 203.543,-47.5001"/>
</g>
</g>
</svg>
