<?xml version="1.0" encoding="UTF-8" standalone="no"?>
<!DOCTYPE svg PUBLIC "-//W3C//DTD SVG 1.1//EN"
 "http://www.w3.org/Graphics/SVG/1.1/DTD/svg11.dtd">
<!-- Generated by graphviz version 2.26.3 (20100126.1600)
 -->
<!-- Title: G Pages: 1 -->
<svg width="320pt" height="70pt"
 viewBox="0.00 0.00 320.00 70.00" xmlns="http://www.w3.org/2000/svg" xmlns:xlink="http://www.w3.org/1999/xlink">
<g id="graph1" class="graph" transform="scale(1 1) rotate(0) translate(4 66)">
<title>G</title>
<polygon fill="white" stroke="white" points="-4,5 -4,-66 317,-66 317,5 -4,5"/>
<!-- Node1 -->
<g id="node1" class="node"><title>Node1</title>
<a xlink:href="classallocator_1_1Allocator.xhtml" target="_top" xlink:title="allocator::Allocator\&lt; T \&gt;">
<polygon fill="white" stroke="black" points="0,-20.5 0,-41.5 122,-41.5 122,-20.5 0,-20.5"/>
<text text-anchor="middle" x="61" y="-28.5" font-family="Helvetica,sans-Serif" font-size="10.00">allocator::Allocator&lt; T &gt;</text>
</a>
</g>
<!-- Node2 -->
<g id="node3" class="node"><title>Node2</title>
<a xlink:href="classallocator_1_1DefaultAllocator.xhtml" target="_top" xlink:title="allocator::DefaultAllocator\&lt; T \&gt;">
<polygon fill="white" stroke="black" points="158.5,-40.5 158.5,-61.5 311.5,-61.5 311.5,-40.5 158.5,-40.5"/>
<text text-anchor="middle" x="235" y="-48.5" font-family="Helvetica,sans-Serif" font-size="10.00">allocator::DefaultAllocator&lt; T &gt;</text>
</a>
</g>
<!-- Node1&#45;&gt;Node2 -->
<g id="edge2" class="edge"><title>Node1&#45;&gt;Node2</title>
<path fill="none" stroke="midnightblue" d="M132.309,-39.1964C140.896,-40.1835 149.694,-41.1947 158.354,-42.1901"/>
<polygon fill="midnightblue" stroke="midnightblue" points="132.68,-35.7161 122.346,-38.0513 131.881,-42.6704 132.68,-35.7161"/>
</g>
<!-- Node3 -->
<g id="node5" class="node"><title>Node3</title>
<a xlink:href="classallocator_1_1MPIAllocator.xhtml" target="_top" xlink:title="allocator::MPIAllocator\&lt; T \&gt;">
<polygon fill="white" stroke="black" points="165,-0.5 165,-21.5 305,-21.5 305,-0.5 165,-0.5"/>
<text text-anchor="middle" x="235" y="-8.5" font-family="Helvetica,sans-Serif" font-size="10.00">allocator::MPIAllocator&lt; T &gt;</text>
</a>
</g>
<!-- Node1&#45;&gt;Node3 -->
<g id="edge4" class="edge"><title>Node1&#45;&gt;Node3</title>
<path fill="none" stroke="midnightblue" d="M132.441,-22.7884C143.095,-21.5638 154.071,-20.3022 164.702,-19.0803"/>
<polygon fill="midnightblue" stroke="midnightblue" points="131.881,-19.3296 122.346,-23.9487 132.68,-26.2839 131.881,-19.3296"/>
</g>
</g>
</svg>
