<?xml version="1.0" encoding="UTF-8" standalone="no"?>
<!DOCTYPE svg PUBLIC "-//W3C//DTD SVG 1.1//EN"
 "http://www.w3.org/Graphics/SVG/1.1/DTD/svg11.dtd">
<!-- Generated by graphviz version 2.26.3 (20100126.1600)
 -->
<!-- Title: Graphical Class Hierarchy Pages: 1 -->
<svg width="254pt" height="238pt"
 viewBox="0.00 0.00 254.00 238.00" xmlns="http://www.w3.org/2000/svg" xmlns:xlink="http://www.w3.org/1999/xlink">
<g id="graph1" class="graph" transform="scale(1 1) rotate(0) translate(4 234)">
<title>Graphical Class Hierarchy</title>
<polygon fill="white" stroke="white" points="-4,5 -4,-234 251,-234 251,5 -4,5"/>
<!-- Node1 -->
<g id="node1" class="node"><title>Node1</title>
<a xlink:href="classmpi_1_1Receiver.xhtml" target="_top" xlink:title="mpi::Receiver">
<polygon fill="white" stroke="black" points="0.5,-98.5 0.5,-119.5 77.5,-119.5 77.5,-98.5 0.5,-98.5"/>
<text text-anchor="middle" x="39" y="-106.5" font-family="Helvetica,sans-Serif" font-size="10.00">mpi::Receiver</text>
</a>
</g>
<!-- Node2 -->
<g id="node3" class="node"><title>Node2</title>
<a xlink:href="classtransfer_1_1MPIThreadCache_1_1Adder.xhtml" target="_top" xlink:title="transfer::MPIThreadCache\l::Adder">
<polygon fill="white" stroke="black" points="114,-196 114,-230 246,-230 246,-196 114,-196"/>
<text text-anchor="start" x="122" y="-217" font-family="Helvetica,sans-Serif" font-size="10.00">transfer::MPIThreadCache</text>
<text text-anchor="middle" x="180" y="-204" font-family="Helvetica,sans-Serif" font-size="10.00">::Adder</text>
</a>
</g>
<!-- Node1&#45;&gt;Node2 -->
<g id="edge2" class="edge"><title>Node1&#45;&gt;Node2</title>
<path fill="none" stroke="midnightblue" d="M53.289,-127.997C67.1739,-145.348 89.676,-170.709 114,-187 118.912,-190.29 124.302,-193.26 129.818,-195.914"/>
<polygon fill="midnightblue" stroke="midnightblue" points="55.7606,-125.475 46.8496,-119.743 50.2416,-129.781 55.7606,-125.475"/>
</g>
<!-- Node3 -->
<g id="node5" class="node"><title>Node3</title>
<a xlink:href="classtransfer_1_1MPIThreadCache_1_1BlockInfoResponder.xhtml" target="_top" xlink:title="transfer::MPIThreadCache\l::BlockInfoResponder">
<polygon fill="white" stroke="black" points="114,-144 114,-178 246,-178 246,-144 114,-144"/>
<text text-anchor="start" x="122" y="-165" font-family="Helvetica,sans-Serif" font-size="10.00">transfer::MPIThreadCache</text>
<text text-anchor="middle" x="180" y="-152" font-family="Helvetica,sans-Serif" font-size="10.00">::BlockInfoResponder</text>
</a>
</g>
<!-- Node1&#45;&gt;Node3 -->
<g id="edge4" class="edge"><title>Node1&#45;&gt;Node3</title>
<path fill="none" stroke="midnightblue" d="M77.3525,-123.144C94.7566,-129.563 115.487,-137.208 133.746,-143.942"/>
<polygon fill="midnightblue" stroke="midnightblue" points="78.1268,-119.699 67.5335,-119.523 75.7047,-126.267 78.1268,-119.699"/>
</g>
<!-- Node4 -->
<g id="node7" class="node"><title>Node4</title>
<a xlink:href="classtransfer_1_1MPIThreadCache_1_1BlockTransferer.xhtml" target="_top" xlink:title="transfer::MPIThreadCache\l::BlockTransferer">
<polygon fill="white" stroke="black" points="114,-92 114,-126 246,-126 246,-92 114,-92"/>
<text text-anchor="start" x="122" y="-113" font-family="Helvetica,sans-Serif" font-size="10.00">transfer::MPIThreadCache</text>
<text text-anchor="middle" x="180" y="-100" font-family="Helvetica,sans-Serif" font-size="10.00">::BlockTransferer</text>
</a>
</g>
<!-- Node1&#45;&gt;Node4 -->
<g id="edge6" class="edge"><title>Node1&#45;&gt;Node4</title>
<path fill="none" stroke="midnightblue" d="M87.5946,-109C96.0681,-109 105.01,-109 113.861,-109"/>
<polygon fill="midnightblue" stroke="midnightblue" points="87.5289,-105.5 77.5289,-109 87.5288,-112.5 87.5289,-105.5"/>
</g>
<!-- Node5 -->
<g id="node9" class="node"><title>Node5</title>
<a xlink:href="classtransfer_1_1MPIThreadCache_1_1Deleter.xhtml" target="_top" xlink:title="transfer::MPIThreadCache\l::Deleter">
<polygon fill="white" stroke="black" points="114,-40 114,-74 246,-74 246,-40 114,-40"/>
<text text-anchor="start" x="122" y="-61" font-family="Helvetica,sans-Serif" font-size="10.00">transfer::MPIThreadCache</text>
<text text-anchor="middle" x="180" y="-48" font-family="Helvetica,sans-Serif" font-size="10.00">::Deleter</text>
</a>
</g>
<!-- Node1&#45;&gt;Node5 -->
<g id="edge8" class="edge"><title>Node1&#45;&gt;Node5</title>
<path fill="none" stroke="midnightblue" d="M77.3525,-94.8558C94.7566,-88.4373 115.487,-80.7922 133.746,-74.0582"/>
<polygon fill="midnightblue" stroke="midnightblue" points="75.7047,-91.733 67.5335,-98.477 78.1268,-98.3006 75.7047,-91.733"/>
</g>
<!-- Node6 -->
<g id="node11" class="node"><title>Node6</title>
<a xlink:href="classtransfer_1_1MPIThreadFull.xhtml" target="_top" xlink:title="transfer::MPIThreadFull">
<polygon fill="white" stroke="black" points="120.5,-0.5 120.5,-21.5 239.5,-21.5 239.5,-0.5 120.5,-0.5"/>
<text text-anchor="middle" x="180" y="-8.5" font-family="Helvetica,sans-Serif" font-size="10.00">transfer::MPIThreadFull</text>
</a>
</g>
<!-- Node1&#45;&gt;Node6 -->
<g id="edge10" class="edge"><title>Node1&#45;&gt;Node6</title>
<path fill="none" stroke="#8b1a1a" d="M52.7717,-89.8337C66.4288,-72.1501 88.8996,-46.376 114,-31 120.126,-27.2475 127.006,-24.1553 133.949,-21.6201"/>
<polygon fill="#8b1a1a" stroke="#8b1a1a" points="49.6635,-88.1448 46.466,-98.2456 55.2646,-92.3434 49.6635,-88.1448"/>
</g>
</g>
</svg>
