<?xml version="1.0" encoding="UTF-8" standalone="no"?>
<!DOCTYPE svg PUBLIC "-//W3C//DTD SVG 1.1//EN"
 "http://www.w3.org/Graphics/SVG/1.1/DTD/svg11.dtd">
<!-- Generated by graphviz version 2.26.3 (20100126.1600)
 -->
<!-- Title: mpi::CommThread::ReceiverDetail Pages: 1 -->
<svg width="150pt" height="116pt"
 viewBox="0.00 0.00 150.00 116.00" xmlns="http://www.w3.org/2000/svg" xmlns:xlink="http://www.w3.org/1999/xlink">
<g id="graph1" class="graph" transform="scale(1 1) rotate(0) translate(4 112)">
<title>mpi::CommThread::ReceiverDetail</title>
<polygon fill="white" stroke="white" points="-4,5 -4,-112 147,-112 147,5 -4,5"/>
<!-- Node1 -->
<g id="node1" class="node"><title>Node1</title>
<polygon fill="#bfbfbf" stroke="black" points="-0.5,-1 -0.5,-35 142.5,-35 142.5,-1 -0.5,-1"/>
<text text-anchor="start" x="7.5" y="-22" font-family="Helvetica,sans-Serif" font-size="10.00">mpi::CommThread::Receiver</text>
<text text-anchor="middle" x="71" y="-9" font-family="Helvetica,sans-Serif" font-size="10.00">Detail</text>
</g>
<!-- Node2 -->
<g id="node2" class="node"><title>Node2</title>
<a xlink:href="classmpi_1_1Receiver.xhtml" target="_top" xlink:title="mpi::Receiver">
<polygon fill="white" stroke="black" points="32.5,-86.5 32.5,-107.5 109.5,-107.5 109.5,-86.5 32.5,-86.5"/>
<text text-anchor="middle" x="71" y="-94.5" font-family="Helvetica,sans-Serif" font-size="10.00">mpi::Receiver</text>
</a>
</g>
<!-- Node2&#45;&gt;Node1 -->
<g id="edge2" class="edge"><title>Node2&#45;&gt;Node1</title>
<path fill="none" stroke="#9a32cd" stroke-dasharray="5,2" d="M71,-76.1618C71,-63.3635 71,-47.1713 71,-35.1236"/>
<polygon fill="#9a32cd" stroke="#9a32cd" points="67.5001,-76.3457 71,-86.3457 74.5001,-76.3457 67.5001,-76.3457"/>
<text text-anchor="middle" x="82" y="-58.5" font-family="Helvetica,sans-Serif" font-size="10.00"> recv</text>
</g>
</g>
</svg>
